<svg xmlns="http://www.w3.org/2000/svg" xmlns:xlink="http://www.w3.org/1999/xlink" width="45" zoomAndPan="magnify" viewBox="0 0 33.75 33.749998" height="45" preserveAspectRatio="xMidYMid meet" version="1.0"><defs><clipPath id="de38dc1925"><path d="M 1.191406 1.191406 L 32.460938 1.191406 L 32.460938 32.460938 L 1.191406 32.460938 Z M 1.191406 1.191406 " clip-rule="nonzero"/></clipPath></defs><g clip-path="url(#de38dc1925)"><path fill="#c4942e" d="M 11.117188 11.277344 C 12.617188 11.042969 13.925781 10.363281 14.941406 9.640625 L 18.558594 9.640625 C 19.574219 10.363281 20.882812 11.042969 22.382812 11.277344 C 22.699219 11.328125 22.929688 11.597656 22.929688 11.917969 L 22.929688 16.742188 C 22.929688 20.226562 19.390625 23.152344 16.75 23.859375 C 14.105469 23.152344 10.570312 20.226562 10.570312 16.742188 L 10.570312 11.917969 C 10.570312 11.597656 10.800781 11.328125 11.117188 11.277344 Z M 7.070312 19.828125 C 6.886719 19.339844 6.417969 18.992188 5.863281 18.992188 C 5.148438 18.992188 4.570312 19.570312 4.570312 20.28125 C 4.570312 20.996094 5.148438 21.574219 5.863281 21.574219 C 6.417969 21.574219 6.886719 21.226562 7.070312 20.738281 L 11 20.738281 C 10.800781 20.445312 10.613281 20.140625 10.453125 19.828125 Z M 16.75 17.25 C 16.332031 17.25 15.996094 17.585938 15.996094 18.003906 C 15.996094 18.246094 16.113281 18.464844 16.296875 18.601562 L 16.296875 19.253906 C 16.296875 19.503906 16.5 19.707031 16.75 19.707031 C 17 19.707031 17.203125 19.503906 17.203125 19.253906 L 17.203125 18.601562 C 17.386719 18.464844 17.503906 18.246094 17.503906 18.003906 C 17.503906 17.585938 17.164062 17.25 16.75 17.25 Z M 13.671875 23.371094 C 13.355469 23.152344 13.050781 22.917969 12.761719 22.671875 L 12.761719 26.425781 C 12.273438 26.609375 11.925781 27.082031 11.925781 27.636719 C 11.925781 28.351562 12.503906 28.929688 13.214844 28.929688 C 13.929688 28.929688 14.507812 28.351562 14.507812 27.636719 C 14.507812 27.082031 14.160156 26.609375 13.671875 26.425781 Z M 20.28125 28.929688 C 20.996094 28.929688 21.574219 28.351562 21.574219 27.636719 C 21.574219 27.082031 21.226562 26.609375 20.738281 26.425781 L 20.738281 22.671875 C 20.449219 22.917969 20.144531 23.152344 19.828125 23.371094 L 19.828125 26.425781 C 19.339844 26.609375 18.992188 27.082031 18.992188 27.636719 C 18.992188 28.351562 19.570312 28.929688 20.28125 28.929688 Z M 22.5 20.738281 L 26.425781 20.738281 C 26.609375 21.226562 27.082031 21.574219 27.636719 21.574219 C 28.351562 21.574219 28.929688 20.996094 28.929688 20.28125 C 28.929688 19.570312 28.351562 18.992188 27.636719 18.992188 C 27.082031 18.992188 26.609375 19.339844 26.425781 19.828125 L 23.046875 19.828125 C 22.882812 20.140625 22.699219 20.445312 22.5 20.738281 Z M 4.570312 13.214844 C 4.570312 12.503906 5.148438 11.925781 5.863281 11.925781 C 6.417969 11.925781 6.886719 12.273438 7.070312 12.761719 L 9.664062 12.761719 L 9.664062 13.671875 L 7.070312 13.671875 C 6.886719 14.160156 6.417969 14.507812 5.863281 14.507812 C 5.148438 14.507812 4.570312 13.929688 4.570312 13.214844 Z M 12.761719 9.847656 C 13.074219 9.710938 13.378906 9.554688 13.671875 9.382812 L 13.671875 7.070312 C 14.160156 6.886719 14.507812 6.417969 14.507812 5.863281 C 14.507812 5.148438 13.929688 4.570312 13.214844 4.570312 C 12.503906 4.570312 11.925781 5.148438 11.925781 5.863281 C 11.925781 6.417969 12.273438 6.886719 12.761719 7.070312 Z M 1.191406 16.75 C 1.191406 16.035156 1.769531 15.457031 2.484375 15.457031 C 3.035156 15.457031 3.507812 15.808594 3.691406 16.296875 L 9.664062 16.296875 L 9.664062 16.742188 C 9.664062 16.898438 9.667969 17.050781 9.679688 17.203125 L 3.691406 17.203125 C 3.507812 17.691406 3.035156 18.039062 2.480469 18.039062 C 1.769531 18.042969 1.191406 17.464844 1.191406 16.75 Z M 20.28125 4.570312 C 19.570312 4.570312 18.992188 5.148438 18.992188 5.863281 C 18.992188 6.417969 19.339844 6.886719 19.828125 7.070312 L 19.828125 9.382812 C 20.121094 9.554688 20.425781 9.710938 20.738281 9.847656 L 20.738281 7.070312 C 21.226562 6.886719 21.574219 6.417969 21.574219 5.863281 C 21.574219 5.148438 20.996094 4.570312 20.28125 4.570312 Z M 23.835938 12.761719 L 26.425781 12.761719 C 26.609375 12.273438 27.082031 11.925781 27.636719 11.925781 C 28.351562 11.925781 28.929688 12.503906 28.929688 13.214844 C 28.929688 13.929688 28.351562 14.507812 27.636719 14.507812 C 27.082031 14.507812 26.609375 14.160156 26.425781 13.671875 L 23.835938 13.671875 Z M 16.75 1.191406 C 17.464844 1.191406 18.039062 1.769531 18.039062 2.484375 C 18.039062 3.035156 17.691406 3.507812 17.203125 3.691406 L 17.203125 8.730469 L 16.296875 8.730469 L 16.296875 3.691406 C 15.808594 3.507812 15.457031 3.035156 15.457031 2.480469 C 15.457031 1.769531 16.035156 1.191406 16.75 1.191406 Z M 32.308594 16.75 C 32.308594 16.035156 31.730469 15.457031 31.015625 15.457031 C 30.464844 15.457031 29.992188 15.808594 29.808594 16.296875 L 23.835938 16.296875 L 23.835938 16.742188 C 23.835938 16.898438 23.832031 17.050781 23.820312 17.203125 L 29.808594 17.203125 C 29.992188 17.691406 30.464844 18.039062 31.015625 18.039062 C 31.730469 18.042969 32.308594 17.464844 32.308594 16.75 Z M 16.75 32.308594 C 17.464844 32.308594 18.039062 31.730469 18.039062 31.015625 C 18.039062 30.464844 17.691406 29.992188 17.203125 29.808594 L 17.203125 24.675781 C 17.054688 24.71875 16.902344 24.757812 16.75 24.800781 C 16.597656 24.757812 16.445312 24.71875 16.296875 24.675781 L 16.296875 29.808594 C 15.808594 29.992188 15.457031 30.464844 15.457031 31.015625 C 15.457031 31.730469 16.035156 32.308594 16.75 32.308594 Z M 14.363281 15.46875 L 13.882812 15.46875 C 13.632812 15.46875 13.429688 15.671875 13.429688 15.921875 L 13.429688 18.492188 C 13.429688 20.316406 14.921875 21.808594 16.75 21.808594 C 18.578125 21.808594 20.070312 20.316406 20.070312 18.492188 L 20.070312 15.921875 C 20.070312 15.671875 19.867188 15.46875 19.613281 15.46875 L 19.136719 15.46875 L 19.136719 14.078125 C 19.136719 12.761719 18.0625 11.691406 16.75 11.691406 C 15.4375 11.691406 14.363281 12.761719 14.363281 14.078125 Z M 18.230469 15.46875 L 18.230469 14.078125 C 18.230469 13.265625 17.5625 12.597656 16.75 12.597656 C 15.9375 12.597656 15.269531 13.265625 15.269531 14.078125 L 15.269531 15.46875 Z M 18.230469 15.46875 " fill-opacity="1" fill-rule="evenodd"/></g></svg>