<svg xmlns="http://www.w3.org/2000/svg" xmlns:xlink="http://www.w3.org/1999/xlink" width="45" zoomAndPan="magnify" viewBox="0 0 33.75 33.749998" height="45" preserveAspectRatio="xMidYMid meet" version="1.0"><defs><clipPath id="29b51ac920"><path d="M 1.648438 2 L 23 2 L 23 27 L 1.648438 27 Z M 1.648438 2 " clip-rule="nonzero"/></clipPath><clipPath id="aaf7a72bc0"><path d="M 5 1.039062 L 19 1.039062 L 19 6 L 5 6 Z M 5 1.039062 " clip-rule="nonzero"/></clipPath><clipPath id="15dd150d95"><path d="M 20 14.039062 L 32.480469 14.039062 L 32.480469 28 L 20 28 Z M 20 14.039062 " clip-rule="nonzero"/></clipPath><clipPath id="4456884de5"><path d="M 9.402344 20 L 22 20 L 22 33.394531 L 9.402344 33.394531 Z M 9.402344 20 " clip-rule="nonzero"/></clipPath></defs><g clip-path="url(#29b51ac920)"><path fill="#c4942e" d="M 20.691406 2.1875 L 19.785156 2.1875 L 19.785156 4 C 19.785156 4.320312 19.722656 4.628906 19.601562 4.925781 C 19.476562 5.222656 19.304688 5.484375 19.078125 5.710938 C 18.847656 5.9375 18.589844 6.113281 18.292969 6.234375 C 17.996094 6.359375 17.6875 6.417969 17.367188 6.417969 L 7.085938 6.417969 C 6.765625 6.417969 6.457031 6.359375 6.160156 6.234375 C 5.867188 6.113281 5.605469 5.9375 5.378906 5.710938 C 5.152344 5.484375 4.976562 5.222656 4.851562 4.925781 C 4.730469 4.628906 4.667969 4.320312 4.667969 4 L 4.667969 2.1875 L 3.761719 2.1875 C 3.480469 2.1875 3.210938 2.242188 2.953125 2.351562 C 2.695312 2.457031 2.46875 2.613281 2.269531 2.808594 C 2.070312 3.007812 1.917969 3.234375 1.808594 3.496094 C 1.703125 3.753906 1.648438 4.023438 1.644531 4.300781 L 1.644531 24.859375 C 1.648438 25.140625 1.703125 25.410156 1.808594 25.667969 C 1.917969 25.925781 2.070312 26.15625 2.269531 26.351562 C 2.46875 26.550781 2.695312 26.703125 2.953125 26.8125 C 3.210938 26.917969 3.480469 26.972656 3.761719 26.976562 L 20.691406 26.976562 C 20.972656 26.972656 21.242188 26.917969 21.5 26.8125 C 21.757812 26.703125 21.988281 26.550781 22.183594 26.351562 C 22.382812 26.15625 22.535156 25.925781 22.644531 25.667969 C 22.75 25.410156 22.804688 25.140625 22.808594 24.859375 L 22.808594 4.300781 C 22.804688 4.023438 22.75 3.753906 22.644531 3.496094 C 22.535156 3.234375 22.382812 3.007812 22.183594 2.808594 C 21.988281 2.613281 21.757812 2.457031 21.5 2.351562 C 21.242188 2.242188 20.972656 2.1875 20.691406 2.1875 Z M 16.519531 14.277344 L 11.984375 19.117188 C 11.800781 19.300781 11.578125 19.394531 11.320312 19.394531 C 11.089844 19.398438 10.886719 19.320312 10.714844 19.164062 L 7.996094 16.746094 C 7.902344 16.667969 7.832031 16.574219 7.777344 16.46875 C 7.726562 16.359375 7.695312 16.246094 7.6875 16.125 C 7.679688 16.007812 7.699219 15.890625 7.738281 15.777344 C 7.78125 15.664062 7.839844 15.5625 7.921875 15.476562 C 8.078125 15.277344 8.277344 15.160156 8.527344 15.128906 C 8.777344 15.09375 9.003906 15.15625 9.203125 15.308594 L 11.257812 17.144531 L 15.191406 12.972656 C 15.367188 12.796875 15.582031 12.707031 15.832031 12.707031 C 16.082031 12.707031 16.292969 12.796875 16.472656 12.972656 C 16.644531 13.140625 16.734375 13.34375 16.742188 13.585938 C 16.753906 13.828125 16.679688 14.039062 16.519531 14.21875 Z M 16.519531 14.277344 " fill-opacity="1" fill-rule="nonzero"/></g><g clip-path="url(#aaf7a72bc0)"><path fill="#c4942e" d="M 7.390625 0.976562 L 17.0625 0.976562 C 17.265625 0.976562 17.457031 1.015625 17.640625 1.09375 C 17.828125 1.167969 17.992188 1.277344 18.132812 1.421875 C 18.273438 1.5625 18.382812 1.726562 18.460938 1.910156 C 18.535156 2.09375 18.574219 2.289062 18.574219 2.488281 L 18.574219 3.699219 C 18.574219 3.898438 18.535156 4.089844 18.460938 4.277344 C 18.382812 4.460938 18.273438 4.625 18.132812 4.765625 C 17.992188 4.910156 17.828125 5.019531 17.640625 5.09375 C 17.457031 5.171875 17.265625 5.210938 17.0625 5.210938 L 7.390625 5.210938 C 7.191406 5.210938 6.996094 5.171875 6.8125 5.09375 C 6.625 5.019531 6.460938 4.910156 6.320312 4.765625 C 6.179688 4.625 6.070312 4.460938 5.992188 4.277344 C 5.917969 4.089844 5.878906 3.898438 5.878906 3.699219 L 5.878906 2.488281 C 5.878906 2.289062 5.917969 2.09375 5.992188 1.910156 C 6.070312 1.726562 6.179688 1.5625 6.320312 1.421875 C 6.460938 1.277344 6.625 1.167969 6.8125 1.09375 C 6.996094 1.015625 7.191406 0.976562 7.390625 0.976562 Z M 7.390625 0.976562 " fill-opacity="1" fill-rule="nonzero"/></g><g clip-path="url(#15dd150d95)"><path fill="#ffffff" d="M 32.179688 14.710938 C 31.519531 14.050781 30.4375 14.050781 29.777344 14.710938 L 28.480469 15.984375 C 28.035156 16.429688 27.328125 16.785156 26.621094 17.066406 C 26.269531 17.207031 24.335938 17.351562 23.769531 17.398438 C 23.769531 17.398438 23.746094 17.398438 23.746094 17.398438 L 23.652344 17.398438 C 23.628906 17.398438 23.628906 17.398438 23.628906 17.398438 L 22.96875 17.445312 L 21.957031 17.539062 C 21.25 17.609375 21.015625 17.539062 21.0625 18.011719 C 21.085938 18.339844 21.507812 18.433594 21.980469 18.503906 C 22.757812 18.597656 23.109375 18.550781 23.535156 18.644531 C 23.933594 18.761719 23.984375 18.738281 24.21875 18.953125 C 25.042969 19.777344 22.804688 22.4375 22.804688 22.4375 L 20.589844 25.242188 C 20.402344 25.476562 20.449219 25.832031 20.683594 26.019531 C 20.921875 26.207031 21.273438 26.160156 21.460938 25.925781 L 24.125 22.554688 C 24.195312 22.484375 24.21875 22.414062 24.3125 22.507812 C 24.335938 22.53125 24.3125 22.628906 24.265625 22.699219 C 24.265625 22.699219 24.21875 22.769531 24.265625 22.699219 C 24.3125 22.628906 23.371094 24.160156 22.945312 24.582031 C 22.546875 25.03125 21.601562 26.113281 21.601562 26.113281 C 21.390625 26.347656 21.414062 26.679688 21.648438 26.890625 C 21.886719 27.101562 22.214844 27.078125 22.429688 26.84375 L 23.132812 26.042969 C 23.132812 26.183594 23.179688 26.347656 23.324219 26.441406 C 23.558594 26.65625 23.886719 26.632812 24.101562 26.394531 L 25.019531 25.382812 C 24.996094 25.546875 25.066406 25.738281 25.183594 25.855469 C 25.417969 26.066406 25.75 26.042969 25.960938 25.808594 L 26.972656 24.675781 C 26.972656 24.675781 27.019531 24.628906 27.09375 24.535156 L 27.117188 24.511719 L 27.304688 24.300781 C 27.328125 24.277344 27.328125 24.277344 27.351562 24.253906 C 27.871094 23.640625 28.789062 22.507812 29.023438 21.898438 C 29.332031 21 29.683594 19.613281 30.957031 18.339844 L 32.203125 17.089844 C 32.839844 16.429688 32.839844 15.371094 32.179688 14.710938 " fill-opacity="1" fill-rule="nonzero"/></g><g clip-path="url(#4456884de5)"><path fill="#ffffff" d="M 17.929688 25.03125 C 17.90625 25.007812 17.929688 24.914062 17.976562 24.839844 C 17.976562 24.839844 18.023438 24.769531 17.976562 24.839844 C 17.929688 24.914062 18.871094 23.382812 19.292969 22.957031 C 19.71875 22.484375 20.660156 21.402344 20.660156 21.402344 C 20.871094 21.167969 20.847656 20.835938 20.613281 20.625 C 20.378906 20.414062 20.046875 20.4375 19.835938 20.671875 L 19.128906 21.472656 C 19.128906 21.332031 19.082031 21.167969 18.941406 21.070312 C 18.707031 20.859375 18.375 20.882812 18.164062 21.121094 L 17.246094 22.132812 C 17.269531 21.96875 17.199219 21.777344 17.082031 21.660156 C 16.84375 21.449219 16.515625 21.472656 16.304688 21.707031 L 15.289062 22.839844 C 15.289062 22.839844 15.242188 22.886719 15.171875 22.980469 L 15.148438 23.003906 L 14.960938 23.214844 C 14.9375 23.238281 14.9375 23.238281 14.914062 23.261719 C 14.394531 23.875 13.476562 25.007812 13.242188 25.617188 C 12.933594 26.515625 12.582031 27.902344 11.308594 29.175781 L 10.058594 30.425781 C 9.402344 31.085938 9.402344 32.167969 10.058594 32.828125 C 10.71875 33.488281 11.804688 33.488281 12.464844 32.828125 L 13.757812 31.53125 C 14.207031 31.085938 14.914062 30.730469 15.621094 30.449219 C 15.972656 30.308594 17.90625 30.164062 18.46875 30.117188 C 18.46875 30.117188 18.492188 30.117188 18.492188 30.117188 L 18.589844 30.117188 C 18.613281 30.117188 18.613281 30.117188 18.613281 30.117188 L 19.269531 30.070312 L 20.285156 29.976562 C 20.992188 29.90625 21.226562 29.976562 21.179688 29.503906 C 21.15625 29.175781 20.730469 29.082031 20.261719 29.011719 C 19.484375 28.917969 19.128906 28.964844 18.707031 28.871094 C 18.304688 28.753906 18.304688 28.703125 18.023438 28.5625 C 17.105469 28.070312 19.4375 25.078125 19.4375 25.078125 L 21.648438 22.273438 C 21.839844 22.039062 21.792969 21.683594 21.554688 21.496094 C 21.320312 21.308594 20.96875 21.355469 20.777344 21.589844 L 18.140625 24.960938 C 18.046875 25.03125 18.046875 25.101562 17.929688 25.03125 " fill-opacity="1" fill-rule="nonzero"/></g></svg>