<svg xmlns="http://www.w3.org/2000/svg" xmlns:xlink="http://www.w3.org/1999/xlink" width="45" zoomAndPan="magnify" viewBox="0 0 33.75 33.749998" height="45" preserveAspectRatio="xMidYMid meet" version="1.0"><defs><clipPath id="7d31a86487"><path d="M 1.191406 1.191406 L 29 1.191406 L 29 24 L 1.191406 24 Z M 1.191406 1.191406 " clip-rule="nonzero"/></clipPath><clipPath id="f094b0ed01"><path d="M 3 8 L 32.460938 8 L 32.460938 32.460938 L 3 32.460938 Z M 3 8 " clip-rule="nonzero"/></clipPath></defs><path fill="#030429" d="M 21.628906 14.867188 L 21.402344 14.867188 C 21.402344 14.277344 21.285156 13.699219 21.058594 13.15625 C 20.835938 12.632812 20.519531 12.160156 20.113281 11.757812 C 19.710938 11.355469 19.238281 11.035156 18.714844 10.816406 C 18.171875 10.585938 17.597656 10.46875 17.003906 10.46875 C 16.410156 10.46875 15.832031 10.585938 15.289062 10.816406 C 14.765625 11.035156 14.296875 11.355469 13.890625 11.757812 C 13.488281 12.160156 13.171875 12.632812 12.949219 13.15625 C 12.71875 13.699219 12.605469 14.277344 12.605469 14.867188 L 12.378906 14.867188 C 11.644531 14.867188 11.046875 15.464844 11.046875 16.199219 L 11.046875 22.074219 C 11.046875 22.8125 11.644531 23.40625 12.378906 23.40625 L 21.628906 23.40625 C 22.363281 23.40625 22.957031 22.808594 22.957031 22.074219 L 22.957031 16.199219 C 22.957031 15.464844 22.363281 14.867188 21.628906 14.867188 Z M 17.488281 19.191406 L 17.488281 20.140625 C 17.488281 20.40625 17.269531 20.625 17.003906 20.625 C 16.734375 20.625 16.519531 20.40625 16.519531 20.140625 L 16.519531 19.191406 C 16.078125 19 15.765625 18.5625 15.765625 18.050781 C 15.765625 17.933594 15.78125 17.824219 15.8125 17.71875 C 15.957031 17.195312 16.433594 16.8125 17.003906 16.8125 C 17.570312 16.8125 18.050781 17.195312 18.195312 17.71875 C 18.226562 17.824219 18.242188 17.933594 18.242188 18.050781 C 18.242188 18.5625 17.929688 19 17.488281 19.191406 Z M 13.914062 14.867188 C 13.914062 13.167969 15.300781 11.78125 17.003906 11.78125 C 18.707031 11.78125 20.089844 13.167969 20.089844 14.867188 Z M 13.914062 14.867188 " fill-opacity="1" fill-rule="nonzero"/><path fill="#030429" d="M 26.585938 8.941406 C 24.871094 8.945312 23.164062 8.710938 21.515625 8.238281 C 19.929688 7.785156 18.410156 7.117188 17.003906 6.253906 L 16.761719 6.105469 L 16.523438 6.257812 L 16.496094 6.277344 C 14.976562 7.25 13.316406 7.972656 11.574219 8.417969 C 10.019531 8.816406 8.414062 8.992188 6.804688 8.941406 L 6.398438 8.929688 L 6.347656 9.328125 C 6.175781 10.582031 6.097656 11.828125 6.113281 13.03125 C 6.136719 14.839844 6.367188 16.574219 6.796875 18.179688 C 7.3125 20.09375 8.113281 21.847656 9.183594 23.386719 C 9.792969 24.265625 10.496094 25.085938 11.277344 25.832031 C 12.117188 26.636719 13.070312 27.371094 14.105469 28.015625 C 14.863281 28.488281 15.6875 28.929688 16.550781 29.316406 C 16.570312 29.324219 16.589844 29.335938 16.609375 29.34375 L 16.773438 29.417969 L 16.945312 29.355469 C 17.847656 29.027344 18.703125 28.640625 19.496094 28.210938 C 20.59375 27.609375 21.589844 26.898438 22.464844 26.097656 C 23.277344 25.355469 24 24.519531 24.613281 23.609375 C 25.679688 22.03125 26.449219 20.199219 26.902344 18.164062 C 27.5 15.46875 27.542969 12.410156 27.03125 9.316406 L 26.96875 8.941406 Z M 26.023438 17.96875 C 26.019531 17.996094 26.011719 18.027344 26.003906 18.054688 L 23.367188 18.054688 L 23.367188 22.324219 C 23.367188 23.109375 22.730469 23.746094 21.945312 23.746094 L 16.972656 23.746094 L 16.972656 28.386719 C 16.917969 28.40625 16.863281 28.425781 16.808594 28.449219 C 16.023438 28.085938 15.273438 27.6875 14.578125 27.253906 C 11.089844 25.074219 8.773438 21.980469 7.695312 18.054688 L 10.636719 18.054688 L 10.636719 16.042969 C 10.640625 15.914062 10.675781 15.445312 11.050781 15.035156 C 11.414062 14.640625 11.863281 14.558594 11.992188 14.539062 C 12.09375 14.53125 12.195312 14.527344 12.296875 14.519531 C 12.304688 14.117188 12.363281 13.78125 12.425781 13.53125 C 12.464844 13.351562 12.539062 13.089844 12.667969 12.789062 C 12.902344 12.230469 13.242188 11.726562 13.675781 11.292969 C 14.105469 10.863281 14.609375 10.523438 15.167969 10.285156 C 15.742188 10.042969 16.351562 9.921875 16.976562 9.917969 L 16.976562 7.28125 C 18.328125 8.0625 19.765625 8.671875 21.265625 9.101562 C 22.875 9.5625 24.53125 9.808594 26.203125 9.835938 C 26.394531 11.089844 26.488281 12.332031 26.488281 13.542969 C 26.488281 15.085938 26.332031 16.578125 26.023438 17.96875 Z M 26.023438 17.96875 " fill-opacity="1" fill-rule="nonzero"/><path fill="#030429" d="M 14.511719 14.566406 L 16.976562 14.566406 L 16.976562 12.351562 C 15.617188 12.359375 14.511719 13.351562 14.511719 14.566406 Z M 14.511719 14.566406 " fill-opacity="1" fill-rule="nonzero"/><g clip-path="url(#7d31a86487)"><path fill="#030429" d="M 3.714844 22.75 C 2.871094 20.921875 2.398438 18.890625 2.398438 16.75 C 2.398438 8.835938 8.835938 2.398438 16.75 2.398438 C 18.546875 2.398438 20.117188 2.789062 20.605469 2.925781 C 22.078125 3.339844 23.328125 3.953125 24.367188 4.613281 C 24.238281 4.898438 24.164062 5.214844 24.164062 5.550781 C 24.164062 6.785156 25.164062 7.785156 26.398438 7.785156 C 26.855469 7.785156 27.28125 7.648438 27.636719 7.410156 C 27.984375 7.179688 28.261719 6.859375 28.433594 6.476562 C 28.5625 6.195312 28.636719 5.878906 28.636719 5.550781 C 28.636719 4.316406 27.632812 3.3125 26.398438 3.3125 C 25.953125 3.3125 25.535156 3.445312 25.183594 3.671875 C 24.429688 3.1875 23.628906 2.761719 22.804688 2.414062 C 20.886719 1.601562 18.847656 1.191406 16.75 1.191406 C 14.648438 1.191406 12.613281 1.601562 10.691406 2.414062 C 9.769531 2.804688 8.882812 3.285156 8.050781 3.847656 C 7.226562 4.40625 6.453125 5.042969 5.746094 5.746094 C 5.042969 6.453125 4.40625 7.226562 3.847656 8.050781 C 3.285156 8.882812 2.804688 9.769531 2.414062 10.691406 C 1.601562 12.613281 1.191406 14.648438 1.191406 16.75 C 1.191406 18.847656 1.601562 20.886719 2.414062 22.804688 C 2.484375 22.96875 2.554688 23.132812 2.632812 23.296875 C 2.8125 23.503906 3.097656 23.578125 3.339844 23.484375 C 3.617188 23.375 3.78125 23.0625 3.714844 22.75 Z M 3.714844 22.75 " fill-opacity="1" fill-rule="nonzero"/></g><g clip-path="url(#f094b0ed01)"><path fill="#030429" d="M 31.085938 10.691406 C 30.789062 9.996094 30.441406 9.316406 30.046875 8.667969 C 29.832031 8.394531 29.441406 8.347656 29.183594 8.542969 C 28.957031 8.71875 28.882812 9.046875 29.023438 9.320312 C 29.53125 10.160156 30.152344 11.371094 30.582031 12.925781 C 30.582031 12.925781 31.097656 14.8125 31.097656 16.75 C 31.097656 24.660156 24.660156 31.097656 16.75 31.097656 C 14.96875 31.097656 13.53125 30.753906 12.890625 30.570312 C 10.625 29.925781 8.839844 28.789062 7.503906 27.648438 C 7.609375 27.386719 7.667969 27.101562 7.667969 26.804688 C 7.667969 25.570312 6.667969 24.570312 5.433594 24.570312 C 5.207031 24.570312 4.988281 24.601562 4.785156 24.664062 C 3.867188 24.941406 3.195312 25.796875 3.195312 26.804688 C 3.195312 28.039062 4.199219 29.039062 5.433594 29.039062 C 5.910156 29.039062 6.351562 28.890625 6.710938 28.636719 C 7.140625 29 7.585938 29.335938 8.050781 29.648438 C 8.882812 30.210938 9.769531 30.695312 10.691406 31.085938 C 12.613281 31.894531 14.648438 32.308594 16.75 32.308594 C 18.847656 32.308594 20.886719 31.894531 22.804688 31.085938 C 23.726562 30.695312 24.617188 30.210938 25.449219 29.648438 C 26.273438 29.09375 27.046875 28.453125 27.75 27.75 C 28.453125 27.046875 29.09375 26.273438 29.648438 25.449219 C 30.210938 24.617188 30.695312 23.726562 31.085938 22.804688 C 31.894531 20.886719 32.308594 18.847656 32.308594 16.75 C 32.308594 14.648438 31.894531 12.613281 31.085938 10.691406 Z M 31.085938 10.691406 " fill-opacity="1" fill-rule="nonzero"/></g></svg>