<svg xmlns="http://www.w3.org/2000/svg" xmlns:xlink="http://www.w3.org/1999/xlink" width="45" zoomAndPan="magnify" viewBox="0 0 33.75 33.749998" height="45" preserveAspectRatio="xMidYMid meet" version="1.0"><defs><clipPath id="2c24b70207"><path d="M 26 0.894531 L 32.90625 0.894531 L 32.90625 7 L 26 7 Z M 26 0.894531 " clip-rule="nonzero"/></clipPath><clipPath id="356b145cc6"><path d="M 0.894531 10 L 14 10 L 14 20 L 0.894531 20 Z M 0.894531 10 " clip-rule="nonzero"/></clipPath><clipPath id="f06921cb0f"><path d="M 13 20 L 23 20 L 23 32.90625 L 13 32.90625 Z M 13 20 " clip-rule="nonzero"/></clipPath><clipPath id="958eb3e082"><path d="M 8 28 L 13 28 L 13 32.90625 L 8 32.90625 Z M 8 28 " clip-rule="nonzero"/></clipPath></defs><g clip-path="url(#2c24b70207)"><path fill="#030429" d="M 27.65625 1.535156 C 27.648438 1.539062 27.636719 1.539062 27.628906 1.542969 C 27.539062 1.566406 27.449219 1.585938 27.355469 1.613281 C 27.339844 1.617188 27.320312 1.621094 27.304688 1.625 C 27.199219 1.652344 27.09375 1.679688 26.988281 1.710938 C 27.222656 2.898438 27.792969 3.972656 28.660156 4.839844 C 29.523438 5.703125 30.597656 6.277344 31.789062 6.507812 C 31.789062 6.507812 31.789062 6.503906 31.789062 6.5 C 31.789062 6.496094 31.792969 6.492188 31.792969 6.488281 C 31.820312 6.394531 31.84375 6.296875 31.871094 6.203125 C 31.878906 6.175781 31.882812 6.148438 31.890625 6.121094 C 31.910156 6.046875 31.929688 5.972656 31.949219 5.898438 C 31.953125 5.871094 31.960938 5.84375 31.964844 5.820312 C 32.015625 5.625 32.058594 5.433594 32.097656 5.246094 C 32.101562 5.222656 32.109375 5.199219 32.113281 5.175781 C 32.128906 5.105469 32.144531 5.035156 32.15625 4.964844 C 32.164062 4.9375 32.167969 4.914062 32.171875 4.890625 C 32.1875 4.804688 32.207031 4.722656 32.222656 4.644531 C 32.222656 4.636719 32.222656 4.628906 32.226562 4.621094 C 32.242188 4.53125 32.257812 4.445312 32.273438 4.355469 C 32.277344 4.335938 32.28125 4.316406 32.285156 4.296875 C 32.296875 4.230469 32.308594 4.164062 32.320312 4.097656 C 32.324219 4.074219 32.328125 4.050781 32.332031 4.027344 C 32.339844 3.957031 32.351562 3.886719 32.363281 3.816406 C 32.363281 3.804688 32.367188 3.792969 32.367188 3.78125 C 32.378906 3.699219 32.394531 3.617188 32.40625 3.535156 C 32.40625 3.523438 32.40625 3.507812 32.410156 3.492188 C 32.417969 3.429688 32.425781 3.363281 32.4375 3.300781 C 32.4375 3.28125 32.441406 3.261719 32.445312 3.242188 C 32.453125 3.179688 32.457031 3.117188 32.464844 3.058594 C 32.46875 3.042969 32.46875 3.03125 32.472656 3.015625 C 32.480469 2.941406 32.488281 2.871094 32.496094 2.796875 C 32.496094 2.789062 32.496094 2.777344 32.5 2.769531 C 32.503906 2.707031 32.511719 2.648438 32.515625 2.589844 C 32.519531 2.574219 32.519531 2.554688 32.519531 2.539062 C 32.527344 2.484375 32.53125 2.433594 32.535156 2.378906 C 32.535156 2.367188 32.539062 2.351562 32.539062 2.339844 C 32.542969 2.273438 32.550781 2.210938 32.554688 2.148438 C 32.554688 2.144531 32.554688 2.140625 32.554688 2.136719 C 32.558594 2.078125 32.5625 2.027344 32.566406 1.972656 C 32.566406 1.957031 32.566406 1.941406 32.570312 1.925781 C 32.570312 1.882812 32.574219 1.839844 32.578125 1.796875 C 32.578125 1.785156 32.578125 1.769531 32.578125 1.757812 C 32.585938 1.648438 32.589844 1.546875 32.59375 1.453125 C 32.59375 1.441406 32.59375 1.429688 32.59375 1.417969 C 32.59375 1.382812 32.597656 1.347656 32.597656 1.3125 C 32.597656 1.300781 32.597656 1.289062 32.597656 1.277344 C 32.597656 1.238281 32.597656 1.203125 32.601562 1.167969 L 32.601562 1.15625 C 32.601562 1.117188 32.601562 1.082031 32.601562 1.046875 C 32.601562 1.035156 32.601562 1.023438 32.601562 1.011719 L 32.601562 0.894531 C 31.867188 0.894531 30.023438 0.957031 27.65625 1.535156 Z M 27.65625 1.535156 " fill-opacity="1" fill-rule="nonzero"/></g><path fill="#030429" d="M 13.320312 24.855469 L 8.273438 19.808594 L 7.707031 20.375 L 13.121094 25.789062 L 13.691406 25.222656 L 13.324219 24.855469 C 13.320312 24.855469 13.320312 24.855469 13.320312 24.855469 Z M 13.320312 24.855469 " fill-opacity="1" fill-rule="nonzero"/><g clip-path="url(#356b145cc6)"><path fill="#030429" d="M 9.515625 17.195312 C 10.492188 14.820312 11.679688 12.648438 13.042969 10.730469 C 11.777344 10.613281 9.789062 10.675781 7.660156 11.691406 C 4.808594 13.050781 2.539062 15.695312 0.894531 19.5625 C 2.699219 18.332031 6.421875 16.21875 9.515625 17.195312 Z M 9.515625 17.195312 " fill-opacity="1" fill-rule="nonzero"/></g><path fill="#030429" d="M 8.335938 22.074219 L 11.425781 25.160156 L 10.25 26.335938 L 7.160156 23.246094 Z M 8.335938 22.074219 " fill-opacity="1" fill-rule="nonzero"/><g clip-path="url(#f06921cb0f)"><path fill="#030429" d="M 16.300781 23.980469 C 17.28125 27.074219 15.164062 30.796875 13.933594 32.601562 C 17.800781 30.957031 20.445312 28.6875 21.804688 25.835938 C 22.820312 23.710938 22.882812 21.71875 22.765625 20.453125 C 20.847656 21.820312 18.675781 23.003906 16.300781 23.980469 Z M 16.300781 23.980469 " fill-opacity="1" fill-rule="nonzero"/></g><path fill="#030429" d="M 26.261719 1.921875 C 22.777344 3.003906 17.964844 5.390625 14.027344 10.660156 C 12.476562 12.738281 11.148438 15.148438 10.082031 17.816406 C 9.824219 18.457031 9.578125 19.128906 9.347656 19.808594 L 13.6875 24.148438 C 14.371094 23.917969 15.042969 23.671875 15.679688 23.417969 C 15.683594 23.417969 15.683594 23.417969 15.683594 23.417969 C 18.351562 22.351562 20.757812 21.019531 22.835938 19.46875 C 28.105469 15.53125 30.492188 10.71875 31.574219 7.238281 C 30.265625 6.964844 29.078125 6.328125 28.125 5.371094 C 27.167969 4.417969 26.53125 3.230469 26.261719 1.921875 Z M 22.109375 14.003906 C 20.667969 14.003906 19.492188 12.828125 19.492188 11.386719 C 19.492188 9.941406 20.667969 8.765625 22.109375 8.765625 C 23.554688 8.765625 24.730469 9.941406 24.730469 11.386719 C 24.730469 12.828125 23.554688 14.003906 22.109375 14.003906 Z M 22.109375 14.003906 " fill-opacity="1" fill-rule="nonzero"/><path fill="#030429" d="M 7.269531 26.226562 C 7.121094 26.078125 6.882812 26.078125 6.734375 26.226562 L 2.007812 30.953125 C 1.859375 31.101562 1.859375 31.339844 2.007812 31.488281 C 2.082031 31.5625 2.179688 31.597656 2.277344 31.597656 C 2.375 31.597656 2.46875 31.5625 2.542969 31.488281 L 7.269531 26.761719 C 7.417969 26.613281 7.417969 26.375 7.269531 26.226562 Z M 7.269531 26.226562 " fill-opacity="1" fill-rule="nonzero"/><path fill="#030429" d="M 9.082031 28.039062 C 8.9375 27.894531 8.695312 27.894531 8.546875 28.039062 L 5.460938 31.125 C 5.316406 31.273438 5.316406 31.515625 5.460938 31.660156 C 5.535156 31.734375 5.632812 31.773438 5.730469 31.773438 C 5.828125 31.773438 5.921875 31.734375 5.996094 31.660156 L 9.082031 28.574219 C 9.230469 28.425781 9.230469 28.1875 9.082031 28.039062 Z M 9.082031 28.039062 " fill-opacity="1" fill-rule="nonzero"/><g clip-path="url(#958eb3e082)"><path fill="#030429" d="M 11.875 28.339844 L 8.640625 31.574219 C 8.496094 31.722656 8.496094 31.960938 8.640625 32.109375 C 8.714844 32.183594 8.8125 32.21875 8.910156 32.21875 C 9.007812 32.21875 9.101562 32.183594 9.175781 32.109375 L 12.410156 28.875 C 12.558594 28.726562 12.558594 28.488281 12.410156 28.339844 C 12.265625 28.191406 12.023438 28.191406 11.875 28.339844 Z M 11.875 28.339844 " fill-opacity="1" fill-rule="nonzero"/></g><path fill="#030429" d="M 5.15625 21.621094 C 5.304688 21.472656 5.304688 21.234375 5.15625 21.085938 C 5.011719 20.9375 4.769531 20.9375 4.621094 21.085938 L 1.386719 24.320312 C 1.242188 24.46875 1.242188 24.707031 1.386719 24.855469 C 1.460938 24.929688 1.558594 24.964844 1.65625 24.964844 C 1.753906 24.964844 1.847656 24.929688 1.921875 24.855469 Z M 5.15625 21.621094 " fill-opacity="1" fill-rule="nonzero"/><path fill="#030429" d="M 2.371094 28.035156 L 5.457031 24.949219 C 5.605469 24.800781 5.605469 24.5625 5.457031 24.414062 C 5.308594 24.265625 5.070312 24.265625 4.921875 24.414062 L 1.835938 27.5 C 1.6875 27.648438 1.6875 27.886719 1.835938 28.035156 C 1.910156 28.109375 2.007812 28.144531 2.101562 28.144531 C 2.199219 28.144531 2.296875 28.109375 2.371094 28.035156 Z M 2.371094 28.035156 " fill-opacity="1" fill-rule="nonzero"/></svg>