<svg xmlns="http://www.w3.org/2000/svg" xmlns:xlink="http://www.w3.org/1999/xlink" width="45" zoomAndPan="magnify" viewBox="0 0 33.75 33.749998" height="45" preserveAspectRatio="xMidYMid meet" version="1.0"><defs><clipPath id="65b27ac952"><path d="M 11 1.5625 L 22 1.5625 L 22 7 L 11 7 Z M 11 1.5625 " clip-rule="nonzero"/></clipPath><clipPath id="d91f51726e"><path d="M 1.5625 1.5625 L 28 1.5625 L 28 28 L 1.5625 28 Z M 1.5625 1.5625 " clip-rule="nonzero"/></clipPath></defs><path fill="#c4942e" d="M 9.433594 17.363281 L 6.332031 17.363281 C 5.960938 17.363281 5.65625 17.058594 5.65625 16.6875 L 5.65625 14.640625 C 5.65625 14.273438 5.960938 13.96875 6.332031 13.96875 L 9.433594 13.96875 C 9.804688 13.96875 10.105469 14.273438 10.105469 14.640625 L 10.105469 16.6875 C 10.105469 17.058594 9.804688 17.363281 9.433594 17.363281 " fill-opacity="1" fill-rule="nonzero"/><path fill="#c4942e" d="M 15.976562 17.363281 L 12.878906 17.363281 C 12.503906 17.363281 12.203125 17.058594 12.203125 16.6875 L 12.203125 14.640625 C 12.203125 14.273438 12.503906 13.96875 12.878906 13.96875 L 15.976562 13.96875 C 16.347656 13.96875 16.652344 14.273438 16.652344 14.640625 L 16.652344 16.6875 C 16.652344 17.058594 16.347656 17.363281 15.976562 17.363281 " fill-opacity="1" fill-rule="nonzero"/><path fill="#c4942e" d="M 23.199219 14.640625 L 23.199219 16.082031 C 22.84375 16.136719 22.488281 16.210938 22.132812 16.304688 C 21.273438 16.535156 20.46875 16.894531 19.738281 17.363281 L 19.421875 17.363281 C 19.050781 17.363281 18.746094 17.058594 18.746094 16.6875 L 18.746094 14.640625 C 18.746094 14.273438 19.050781 13.96875 19.421875 13.96875 L 22.523438 13.96875 C 22.894531 13.96875 23.199219 14.273438 23.199219 14.640625 " fill-opacity="1" fill-rule="nonzero"/><path fill="#c4942e" d="M 9.433594 23.230469 L 6.332031 23.230469 C 5.960938 23.230469 5.65625 22.925781 5.65625 22.558594 L 5.65625 20.511719 C 5.65625 20.140625 5.960938 19.835938 6.332031 19.835938 L 9.433594 19.835938 C 9.804688 19.835938 10.105469 20.140625 10.105469 20.511719 L 10.105469 22.558594 C 10.105469 22.925781 9.804688 23.230469 9.433594 23.230469 " fill-opacity="1" fill-rule="nonzero"/><path fill="#c4942e" d="M 16.652344 20.511719 L 16.652344 21.015625 C 16.347656 21.722656 16.144531 22.464844 16.042969 23.226562 C 16.023438 23.230469 16 23.230469 15.976562 23.230469 L 12.878906 23.230469 C 12.503906 23.230469 12.203125 22.925781 12.203125 22.558594 L 12.203125 20.511719 C 12.203125 20.140625 12.503906 19.835938 12.878906 19.835938 L 15.976562 19.835938 C 16.347656 19.835938 16.652344 20.140625 16.652344 20.511719 " fill-opacity="1" fill-rule="nonzero"/><g clip-path="url(#65b27ac952)"><path fill="#c4942e" d="M 19.453125 5.722656 C 19.453125 5.773438 19.453125 5.824219 19.453125 5.878906 C 19.457031 6.164062 19.589844 6.390625 19.808594 6.566406 C 20.121094 6.8125 20.46875 6.851562 20.828125 6.691406 C 21.242188 6.507812 21.40625 6.152344 21.40625 5.71875 C 21.410156 4.785156 21.414062 3.855469 21.40625 2.925781 C 21.40625 2.777344 21.378906 2.621094 21.324219 2.484375 C 21.179688 2.070312 20.730469 1.800781 20.316406 1.859375 C 19.835938 1.921875 19.472656 2.285156 19.457031 2.761719 C 19.445312 3.117188 19.445312 3.472656 19.449219 3.828125 C 16.894531 3.835938 11.125 3.847656 11.019531 3.855469 C 11.019531 3.972656 11.019531 4.0625 11.019531 4.152344 C 11.019531 4.675781 11.027344 5.199219 11.015625 5.722656 C 13.511719 5.722656 16.859375 5.722656 19.453125 5.722656 " fill-opacity="1" fill-rule="nonzero"/></g><g clip-path="url(#d91f51726e)"><path fill="#c4942e" d="M 27.300781 16.511719 C 27.300781 13.300781 27.296875 10.09375 27.296875 6.882812 C 27.296875 6.808594 27.296875 6.734375 27.292969 6.65625 C 27.222656 5.292969 26.257812 4.15625 24.921875 3.90625 C 24.492188 3.824219 24.039062 3.847656 23.597656 3.835938 C 23.199219 3.824219 23.300781 3.832031 22.867188 3.832031 L 22.867188 4.132812 C 22.867188 4.652344 22.871094 5.171875 22.867188 5.691406 C 22.867188 5.703125 22.867188 5.714844 22.867188 5.722656 L 24.183594 5.722656 C 24.929688 5.722656 25.335938 6.132812 25.335938 6.875 L 25.335938 8.789062 L 3.519531 8.789062 L 3.519531 6.878906 C 3.519531 6.132812 3.925781 5.722656 4.671875 5.722656 L 7.449219 5.722656 C 7.453125 5.859375 7.472656 5.996094 7.511719 6.121094 C 7.652344 6.566406 8.085938 6.828125 8.578125 6.769531 C 9.011719 6.722656 9.378906 6.347656 9.398438 5.890625 C 9.417969 5.363281 9.402344 4.835938 9.402344 4.308594 C 9.402344 3.789062 9.414062 3.265625 9.398438 2.75 C 9.386719 2.335938 9.097656 2.007812 8.703125 1.894531 C 8.035156 1.707031 7.453125 2.1875 7.449219 2.9375 C 7.445312 3.234375 7.445312 3.535156 7.445312 3.832031 C 7.023438 3.832031 5.796875 3.824219 5.492188 3.832031 C 5 3.84375 4.496094 3.804688 4.015625 3.890625 C 2.53125 4.144531 1.558594 5.359375 1.558594 6.898438 C 1.554688 12.773438 1.554688 18.648438 1.558594 24.523438 C 1.558594 26.296875 2.847656 27.589844 4.617188 27.589844 C 8.609375 27.589844 12.601562 27.589844 16.597656 27.589844 C 16.367188 27.039062 16.199219 26.460938 16.097656 25.867188 C 16.082031 25.789062 16.070312 25.710938 16.058594 25.628906 C 12.261719 25.628906 8.464844 25.628906 4.671875 25.628906 C 3.925781 25.628906 3.519531 25.21875 3.519531 24.476562 C 3.519531 21.542969 3.519531 18.609375 3.519531 15.675781 C 3.519531 13.914062 3.519531 12.160156 3.519531 10.398438 L 25.335938 10.398438 C 25.335938 12.15625 25.335938 13.914062 25.335938 15.675781 L 25.335938 16.035156 C 26.015625 16.105469 26.667969 16.265625 27.300781 16.511719 " fill-opacity="1" fill-rule="nonzero"/></g><path fill="#c4942e" d="M 31.171875 21.914062 L 31.011719 22.101562 C 30.699219 22.453125 30.398438 22.808594 30.085938 23.15625 C 30.078125 23.160156 30.078125 23.160156 30.074219 23.164062 C 30.171875 23.582031 30.222656 24.019531 30.222656 24.46875 C 30.222656 27.734375 27.5625 30.390625 24.296875 30.390625 C 21.03125 30.390625 18.371094 27.734375 18.371094 24.46875 C 18.371094 21.195312 21.03125 18.542969 24.296875 18.542969 C 25.476562 18.542969 26.585938 18.890625 27.507812 19.492188 C 27.90625 19.191406 28.308594 18.902344 28.71875 18.621094 C 27.484375 17.6875 25.957031 17.132812 24.296875 17.132812 C 20.253906 17.132812 16.964844 20.421875 16.964844 24.46875 C 16.964844 28.511719 20.253906 31.800781 24.296875 31.800781 C 28.34375 31.800781 31.632812 28.511719 31.632812 24.46875 C 31.632812 23.570312 31.472656 22.707031 31.171875 21.914062 " fill-opacity="1" fill-rule="nonzero"/><path fill="#c4942e" d="M 31.894531 18.769531 C 31.878906 18.597656 31.753906 18.484375 31.441406 18.484375 C 31.421875 18.484375 31.398438 18.488281 31.375 18.488281 C 31.269531 18.503906 31.175781 18.546875 31.105469 18.582031 L 31.019531 18.628906 C 30.941406 18.671875 30.859375 18.714844 30.777344 18.757812 C 30.582031 18.863281 30.351562 18.992188 30.121094 19.144531 C 28.5625 20.175781 27.078125 21.355469 25.640625 22.492188 L 25.550781 22.558594 C 25.207031 22.832031 24.859375 23.117188 24.519531 23.390625 C 24.421875 23.46875 24.324219 23.546875 24.226562 23.625 C 24.074219 23.496094 23.925781 23.371094 23.773438 23.242188 C 23.332031 22.875 22.875 22.492188 22.414062 22.128906 C 22.128906 21.910156 21.800781 21.757812 21.546875 21.648438 C 21.296875 21.542969 21.054688 21.589844 20.914062 21.765625 C 20.808594 21.894531 20.773438 22.078125 20.820312 22.28125 C 20.855469 22.453125 20.90625 22.65625 20.988281 22.851562 C 21.4375 23.949219 22.0625 25.054688 22.960938 26.332031 C 23.246094 26.738281 23.675781 26.96875 24.148438 26.96875 C 24.535156 26.96875 24.914062 26.808594 25.210938 26.519531 C 25.488281 26.242188 25.78125 25.949219 26.070312 25.648438 C 27.121094 24.5625 28.167969 23.472656 29.171875 22.339844 C 29.707031 21.738281 30.238281 21.125 30.773438 20.515625 C 30.914062 20.355469 31.929688 19.289062 31.894531 18.769531 " fill-opacity="1" fill-rule="nonzero"/></svg>