<svg xmlns="http://www.w3.org/2000/svg" xmlns:xlink="http://www.w3.org/1999/xlink" width="45" zoomAndPan="magnify" viewBox="0 0 33.75 33.749998" height="45" preserveAspectRatio="xMidYMid meet" version="1.0"><defs><clipPath id="caa2ceee01"><path d="M 28 16 L 32.875 16 L 32.875 18 L 28 18 Z M 28 16 " clip-rule="nonzero"/></clipPath><clipPath id="585a67bfb6"><path d="M 0.863281 16 L 6 16 L 6 18 L 0.863281 18 Z M 0.863281 16 " clip-rule="nonzero"/></clipPath><clipPath id="bd3ec6ca23"><path d="M 16 5.492188 L 18 5.492188 L 18 10 L 16 10 Z M 16 5.492188 " clip-rule="nonzero"/></clipPath><clipPath id="d91b7b8464"><path d="M 16 24 L 18 24 L 18 27.824219 L 16 27.824219 Z M 16 24 " clip-rule="nonzero"/></clipPath></defs><path fill="#030429" d="M 5.8125 16.746094 C 8.832031 20.648438 12.792969 22.597656 16.75 22.597656 C 20.703125 22.597656 24.664062 20.648438 27.683594 16.746094 C 21.644531 8.945312 11.855469 8.945312 5.8125 16.746094 Z M 16.75 21.605469 C 14.0625 21.605469 11.890625 19.429688 11.890625 16.746094 C 11.890625 14.0625 14.0625 11.890625 16.75 11.890625 C 19.429688 11.890625 21.601562 14.0625 21.601562 16.746094 C 21.601562 19.429688 19.429688 21.605469 16.75 21.605469 Z M 16.75 21.605469 " fill-opacity="1" fill-rule="nonzero"/><path fill="#030429" d="M 16.746094 13.457031 C 14.929688 13.457031 13.457031 14.929688 13.457031 16.746094 C 13.457031 18.5625 14.929688 20.035156 16.746094 20.035156 C 18.566406 20.035156 20.035156 18.5625 20.035156 16.746094 C 20.035156 14.929688 18.566406 13.457031 16.746094 13.457031 Z M 16.746094 18.269531 C 15.90625 18.269531 15.222656 17.585938 15.222656 16.746094 C 15.222656 15.90625 15.90625 15.222656 16.746094 15.222656 C 17.589844 15.222656 18.269531 15.90625 18.269531 16.746094 C 18.269531 17.585938 17.589844 18.269531 16.746094 18.269531 Z M 16.746094 18.269531 " fill-opacity="1" fill-rule="nonzero"/><path fill="#030429" d="M 7.394531 7.390625 L 10.488281 7.390625 L 10.488281 6.765625 L 6.769531 6.765625 L 6.769531 10.484375 L 7.394531 10.484375 Z M 7.394531 7.390625 " fill-opacity="1" fill-rule="nonzero"/><path fill="#030429" d="M 7.394531 23.007812 L 6.769531 23.007812 L 6.769531 26.722656 L 10.488281 26.722656 L 10.488281 26.097656 L 7.394531 26.097656 Z M 7.394531 23.007812 " fill-opacity="1" fill-rule="nonzero"/><path fill="#030429" d="M 26.101562 10.484375 L 26.726562 10.484375 L 26.726562 6.765625 L 23.007812 6.765625 L 23.007812 7.390625 L 26.101562 7.390625 Z M 26.101562 10.484375 " fill-opacity="1" fill-rule="nonzero"/><path fill="#030429" d="M 26.101562 26.097656 L 23.007812 26.097656 L 23.007812 26.722656 L 26.726562 26.722656 L 26.726562 23.007812 L 26.101562 23.007812 Z M 26.101562 26.097656 " fill-opacity="1" fill-rule="nonzero"/><g clip-path="url(#caa2ceee01)"><path fill="#030429" d="M 28.246094 16.417969 L 32.542969 16.417969 L 32.542969 17.074219 L 28.246094 17.074219 Z M 28.246094 16.417969 " fill-opacity="1" fill-rule="nonzero"/></g><g clip-path="url(#585a67bfb6)"><path fill="#030429" d="M 0.953125 16.417969 L 5.25 16.417969 L 5.25 17.074219 L 0.953125 17.074219 Z M 0.953125 16.417969 " fill-opacity="1" fill-rule="nonzero"/></g><g clip-path="url(#bd3ec6ca23)"><path fill="#030429" d="M 16.417969 5.5 L 17.078125 5.5 L 17.078125 9.488281 L 16.417969 9.488281 Z M 16.417969 5.5 " fill-opacity="1" fill-rule="nonzero"/></g><g clip-path="url(#d91b7b8464)"><path fill="#030429" d="M 16.417969 24.003906 L 17.078125 24.003906 L 17.078125 27.992188 L 16.417969 27.992188 Z M 16.417969 24.003906 " fill-opacity="1" fill-rule="nonzero"/></g></svg>