<svg xmlns="http://www.w3.org/2000/svg" xmlns:xlink="http://www.w3.org/1999/xlink" width="45" zoomAndPan="magnify" viewBox="0 0 33.75 33.749998" height="45" preserveAspectRatio="xMidYMid meet" version="1.0"><defs><clipPath id="044b91279e"><path d="M 23 28 L 30.273438 28 L 30.273438 30.515625 L 23 30.515625 Z M 23 28 " clip-rule="nonzero"/></clipPath><clipPath id="ce58cc73b8"><path d="M 29 18 L 30.273438 18 L 30.273438 28 L 29 28 Z M 29 18 " clip-rule="nonzero"/></clipPath><clipPath id="7cd01fa9b8"><path d="M 18 2.972656 L 20 2.972656 L 20 6 L 18 6 Z M 18 2.972656 " clip-rule="nonzero"/></clipPath><clipPath id="9ca1683f02"><path d="M 12 18 L 27 18 L 27 30.515625 L 12 30.515625 Z M 12 18 " clip-rule="nonzero"/></clipPath><clipPath id="7a861474fe"><path d="M 3.472656 19 L 15 19 L 15 30.515625 L 3.472656 30.515625 Z M 3.472656 19 " clip-rule="nonzero"/></clipPath></defs><path fill="#c4942e" d="M 26.308594 23.28125 L 25.941406 23.476562 L 25.941406 27.464844 L 27.984375 27.464844 L 27.984375 18.28125 L 26.445312 18.28125 C 26.449219 18.777344 26.398438 19.265625 26.296875 19.75 C 26.269531 19.875 26.285156 19.996094 26.34375 20.109375 L 26.957031 21.210938 C 27.144531 21.582031 27.179688 21.964844 27.054688 22.363281 C 26.933594 22.773438 26.6875 23.078125 26.308594 23.28125 Z M 26.308594 23.28125 " fill-opacity="1" fill-rule="nonzero"/><path fill="#c4942e" d="M 29.707031 17.261719 L 28.300781 14.398438 C 27.875 14.605469 27.429688 14.707031 26.957031 14.707031 C 26.484375 14.707031 26.039062 14.605469 25.613281 14.398438 L 24.207031 17.261719 Z M 29.707031 17.261719 " fill-opacity="1" fill-rule="nonzero"/><path fill="#c4942e" d="M 27.855469 13.484375 L 26.957031 11.644531 L 26.058594 13.484375 C 26.65625 13.769531 27.257812 13.769531 27.855469 13.484375 Z M 27.855469 13.484375 " fill-opacity="1" fill-rule="nonzero"/><g clip-path="url(#044b91279e)"><path fill="#c4942e" d="M 23.894531 30.019531 C 23.894531 30.160156 23.945312 30.28125 24.042969 30.378906 C 24.144531 30.480469 24.265625 30.527344 24.40625 30.527344 L 29.507812 30.527344 C 29.648438 30.527344 29.769531 30.480469 29.871094 30.378906 C 29.96875 30.28125 30.019531 30.160156 30.019531 30.019531 L 30.019531 28.488281 L 23.894531 28.488281 Z M 23.894531 30.019531 " fill-opacity="1" fill-rule="nonzero"/></g><path fill="#c4942e" d="M 24.40625 24.566406 L 24.40625 25.425781 C 24.40625 25.878906 24.234375 26.261719 23.894531 26.5625 L 23.894531 27.464844 L 24.914062 27.464844 L 24.914062 24 L 24.6875 24.113281 C 24.5 24.207031 24.40625 24.359375 24.40625 24.566406 Z M 24.40625 24.566406 " fill-opacity="1" fill-rule="nonzero"/><g clip-path="url(#ce58cc73b8)"><path fill="#c4942e" d="M 29 18.28125 L 30.019531 18.28125 L 30.019531 27.464844 L 29 27.464844 Z M 29 18.28125 " fill-opacity="1" fill-rule="nonzero"/></g><path fill="#c4942e" d="M 5.453125 16.089844 L 6.542969 16.089844 C 6.773438 16.089844 6.929688 16.195312 7.019531 16.40625 C 7.105469 16.617188 7.066406 16.804688 6.90625 16.964844 L 6.136719 17.769531 C 6.050781 17.855469 6.007812 17.957031 6.007812 18.078125 C 6.007812 18.199219 6.050781 18.300781 6.136719 18.386719 L 7.003906 19.253906 C 7.277344 18.953125 7.617188 18.804688 8.023438 18.8125 L 9.148438 18.8125 C 9.1875 18.804688 9.226562 18.804688 9.265625 18.8125 C 9.304688 18.804688 9.34375 18.804688 9.382812 18.8125 L 9.699219 18.8125 C 10.03125 18.8125 10.320312 18.917969 10.574219 19.132812 C 10.828125 19.351562 10.976562 19.621094 11.03125 19.949219 C 11.117188 19.886719 11.210938 19.835938 11.308594 19.800781 C 11.199219 19.300781 11.140625 18.792969 11.136719 18.28125 C 11.136719 18.09375 11.136719 17.90625 11.136719 17.722656 C 11.148438 17.59375 11.203125 17.480469 11.300781 17.394531 C 11.398438 17.304688 11.515625 17.257812 11.648438 17.261719 L 15.628906 17.261719 L 15.332031 16.964844 C 15.171875 16.804688 15.132812 16.617188 15.21875 16.40625 C 15.308594 16.195312 15.464844 16.089844 15.695312 16.089844 L 16.203125 16.089844 L 16.203125 14.707031 C 16.203125 14.539062 16.132812 14.402344 15.996094 14.300781 C 15.359375 13.824219 14.878906 13.222656 14.558594 12.496094 C 14.234375 11.769531 14.109375 11.007812 14.179688 10.21875 C 14.203125 10.011719 14.246094 9.804688 14.300781 9.605469 C 14.253906 9.621094 14.214844 9.648438 14.179688 9.6875 L 13.394531 10.472656 C 13.230469 10.632812 13.046875 10.671875 12.835938 10.585938 C 12.625 10.496094 12.519531 10.339844 12.519531 10.109375 L 12.519531 9.023438 C 12.519531 8.902344 12.480469 8.800781 12.394531 8.714844 C 12.308594 8.628906 12.207031 8.585938 12.085938 8.585938 L 10.1875 8.585938 C 10.066406 8.585938 9.964844 8.628906 9.878906 8.714844 C 9.792969 8.800781 9.753906 8.902344 9.753906 9.023438 L 9.753906 10.117188 C 9.753906 10.34375 9.648438 10.503906 9.4375 10.589844 C 9.226562 10.675781 9.042969 10.640625 8.882812 10.476562 L 8.074219 9.707031 C 7.988281 9.621094 7.886719 9.582031 7.765625 9.582031 C 7.644531 9.582031 7.542969 9.621094 7.457031 9.707031 L 6.136719 11.050781 C 6.050781 11.136719 6.007812 11.238281 6.007812 11.359375 C 6.007812 11.476562 6.050781 11.582031 6.136719 11.667969 L 6.921875 12.453125 C 7.089844 12.609375 7.136719 12.792969 7.054688 13.007812 C 6.96875 13.222656 6.808594 13.328125 6.578125 13.324219 L 5.453125 13.324219 C 5.332031 13.324219 5.226562 13.367188 5.140625 13.449219 C 5.054688 13.535156 5.011719 13.636719 5.011719 13.757812 L 5.011719 15.65625 C 5.011719 15.777344 5.054688 15.882812 5.140625 15.964844 C 5.226562 16.050781 5.332031 16.09375 5.453125 16.089844 Z M 11.136719 12.304688 C 11.457031 12.304688 11.761719 12.367188 12.058594 12.488281 C 12.351562 12.609375 12.609375 12.785156 12.835938 13.007812 C 13.0625 13.234375 13.234375 13.492188 13.359375 13.789062 C 13.480469 14.082031 13.539062 14.390625 13.539062 14.707031 C 13.539062 15.027344 13.480469 15.332031 13.359375 15.628906 C 13.234375 15.921875 13.0625 16.183594 12.835938 16.40625 C 12.609375 16.632812 12.351562 16.808594 12.058594 16.929688 C 11.761719 17.050781 11.457031 17.113281 11.136719 17.113281 C 10.816406 17.113281 10.511719 17.050781 10.21875 16.929688 C 9.921875 16.808594 9.664062 16.632812 9.4375 16.40625 C 9.210938 16.183594 9.039062 15.921875 8.917969 15.628906 C 8.792969 15.332031 8.734375 15.027344 8.734375 14.707031 C 8.734375 14.390625 8.792969 14.082031 8.917969 13.789062 C 9.039062 13.492188 9.210938 13.234375 9.4375 13.007812 C 9.664062 12.785156 9.921875 12.609375 10.21875 12.488281 C 10.511719 12.367188 10.816406 12.304688 11.136719 12.304688 Z M 11.136719 12.304688 " fill-opacity="1" fill-rule="nonzero"/><path fill="#c4942e" d="M 11.136719 16.089844 C 11.320312 16.089844 11.496094 16.054688 11.667969 15.984375 C 11.835938 15.914062 11.984375 15.816406 12.113281 15.6875 C 12.246094 15.558594 12.34375 15.40625 12.414062 15.238281 C 12.484375 15.066406 12.519531 14.890625 12.519531 14.707031 C 12.519531 14.523438 12.484375 14.347656 12.414062 14.179688 C 12.34375 14.007812 12.246094 13.859375 12.113281 13.730469 C 11.984375 13.601562 11.835938 13.5 11.667969 13.429688 C 11.496094 13.359375 11.320312 13.324219 11.136719 13.324219 C 10.953125 13.324219 10.777344 13.359375 10.609375 13.429688 C 10.4375 13.5 10.289062 13.601562 10.160156 13.730469 C 10.03125 13.859375 9.929688 14.007812 9.859375 14.179688 C 9.789062 14.347656 9.753906 14.523438 9.753906 14.707031 C 9.753906 14.890625 9.789062 15.066406 9.859375 15.238281 C 9.929688 15.40625 10.03125 15.558594 10.160156 15.6875 C 10.289062 15.816406 10.4375 15.914062 10.609375 15.984375 C 10.777344 16.054688 10.953125 16.089844 11.136719 16.089844 Z M 11.136719 16.089844 " fill-opacity="1" fill-rule="nonzero"/><path fill="#c4942e" d="M 16.460938 13.324219 C 16.515625 13.378906 16.578125 13.433594 16.644531 13.480469 C 17.054688 13.785156 17.261719 14.195312 17.261719 14.707031 L 17.261719 15.21875 L 20.324219 15.21875 L 20.324219 14.707031 C 20.324219 14.199219 20.527344 13.792969 20.933594 13.488281 C 21.164062 13.316406 21.371094 13.121094 21.550781 12.898438 C 21.734375 12.675781 21.886719 12.4375 22.007812 12.179688 C 22.132812 11.921875 22.226562 11.652344 22.285156 11.371094 C 22.34375 11.09375 22.367188 10.808594 22.359375 10.523438 C 22.351562 10.238281 22.308594 9.957031 22.234375 9.679688 C 22.15625 9.402344 22.046875 9.140625 21.910156 8.890625 C 21.769531 8.640625 21.601562 8.410156 21.40625 8.203125 C 21.210938 7.992188 20.996094 7.808594 20.757812 7.652344 C 20.304688 7.351562 19.8125 7.164062 19.273438 7.089844 C 18.738281 7.015625 18.210938 7.0625 17.695312 7.226562 C 17.03125 7.433594 16.480469 7.800781 16.035156 8.332031 C 15.589844 8.863281 15.324219 9.472656 15.234375 10.160156 L 15.234375 10.300781 C 15.179688 10.972656 15.300781 11.613281 15.597656 12.21875 C 15.8125 12.644531 16.097656 13.015625 16.460938 13.324219 Z M 18.792969 8.074219 C 19.128906 8.074219 19.457031 8.140625 19.769531 8.269531 C 20.082031 8.398438 20.355469 8.582031 20.597656 8.820312 C 20.835938 9.0625 21.019531 9.335938 21.148438 9.648438 C 21.277344 9.960938 21.34375 10.289062 21.34375 10.625 C 21.34375 10.765625 21.292969 10.886719 21.195312 10.988281 C 21.09375 11.085938 20.972656 11.136719 20.832031 11.136719 C 20.691406 11.136719 20.570312 11.085938 20.472656 10.988281 C 20.371094 10.886719 20.324219 10.765625 20.324219 10.625 C 20.324219 10.421875 20.285156 10.226562 20.207031 10.039062 C 20.128906 9.851562 20.019531 9.6875 19.875 9.542969 C 19.730469 9.398438 19.566406 9.289062 19.378906 9.210938 C 19.191406 9.132812 18.996094 9.09375 18.792969 9.09375 C 18.652344 9.09375 18.53125 9.046875 18.429688 8.945312 C 18.332031 8.847656 18.28125 8.726562 18.28125 8.585938 C 18.28125 8.445312 18.332031 8.324219 18.429688 8.222656 C 18.53125 8.125 18.652344 8.074219 18.792969 8.074219 Z M 18.792969 8.074219 " fill-opacity="1" fill-rule="nonzero"/><path fill="#c4942e" d="M 17.261719 16.238281 L 20.324219 16.238281 L 20.324219 17.261719 L 17.261719 17.261719 Z M 17.261719 16.238281 " fill-opacity="1" fill-rule="nonzero"/><g clip-path="url(#7cd01fa9b8)"><path fill="#c4942e" d="M 18.792969 5.011719 C 18.933594 5.011719 19.054688 4.960938 19.152344 4.863281 C 19.253906 4.761719 19.300781 4.644531 19.300781 4.5 L 19.300781 3.480469 C 19.300781 3.339844 19.253906 3.21875 19.152344 3.121094 C 19.054688 3.019531 18.933594 2.972656 18.792969 2.972656 C 18.652344 2.972656 18.53125 3.019531 18.429688 3.121094 C 18.332031 3.21875 18.28125 3.339844 18.28125 3.480469 L 18.28125 4.5 C 18.28125 4.644531 18.332031 4.761719 18.429688 4.863281 C 18.53125 4.960938 18.652344 5.011719 18.792969 5.011719 Z M 18.792969 5.011719 " fill-opacity="1" fill-rule="nonzero"/></g><path fill="#c4942e" d="M 14.101562 6.65625 C 14.203125 6.753906 14.320312 6.804688 14.460938 6.804688 C 14.601562 6.804688 14.722656 6.753906 14.820312 6.65625 C 14.921875 6.554688 14.96875 6.4375 14.96875 6.296875 C 14.96875 6.15625 14.921875 6.035156 14.820312 5.9375 L 14.101562 5.210938 C 14 5.109375 13.882812 5.0625 13.738281 5.0625 C 13.597656 5.0625 13.476562 5.113281 13.378906 5.210938 C 13.277344 5.3125 13.226562 5.433594 13.226562 5.574219 C 13.226562 5.714844 13.277344 5.835938 13.378906 5.9375 Z M 14.101562 6.65625 " fill-opacity="1" fill-rule="nonzero"/><path fill="#c4942e" d="M 23.125 6.804688 C 23.265625 6.804688 23.382812 6.753906 23.480469 6.65625 L 24.207031 5.9375 C 24.304688 5.835938 24.355469 5.714844 24.355469 5.574219 C 24.355469 5.433594 24.304688 5.3125 24.207031 5.210938 C 24.105469 5.109375 23.984375 5.0625 23.84375 5.0625 C 23.703125 5.0625 23.582031 5.109375 23.480469 5.210938 L 22.761719 5.9375 C 22.664062 6.035156 22.613281 6.15625 22.613281 6.296875 C 22.613281 6.4375 22.664062 6.554688 22.761719 6.65625 C 22.863281 6.753906 22.984375 6.804688 23.125 6.804688 Z M 23.125 6.804688 " fill-opacity="1" fill-rule="nonzero"/><g clip-path="url(#9ca1683f02)"><path fill="#c4942e" d="M 24.230469 23.199219 C 24.445312 23.097656 24.6875 22.976562 24.914062 22.851562 L 25.828125 22.363281 C 25.871094 22.34375 25.90625 22.316406 25.9375 22.28125 C 26 22.21875 26.046875 22.144531 26.074219 22.058594 C 26.117188 21.921875 26.105469 21.792969 26.039062 21.667969 L 25.9375 21.480469 L 25.425781 20.570312 C 25.253906 20.25 25.207031 19.910156 25.277344 19.550781 C 25.371094 19.132812 25.421875 18.710938 25.425781 18.28125 L 12.15625 18.28125 C 12.15625 18.796875 12.214844 19.308594 12.335938 19.8125 C 12.496094 19.875 12.636719 19.964844 12.761719 20.085938 L 13.945312 21.269531 C 14.207031 21.535156 14.339844 21.851562 14.335938 22.226562 C 14.339844 22.503906 14.261719 22.757812 14.101562 22.984375 L 14.152344 23.03125 C 14.640625 23.140625 14.96875 23.425781 15.136719 23.894531 C 15.191406 23.976562 15.21875 24.066406 15.21875 24.164062 L 15.21875 30.019531 C 15.21875 30.160156 15.269531 30.28125 15.367188 30.378906 C 15.46875 30.480469 15.589844 30.527344 15.730469 30.527344 L 20.324219 30.527344 C 20.464844 30.527344 20.585938 30.480469 20.683594 30.378906 C 20.785156 30.28125 20.832031 30.160156 20.832031 30.019531 L 20.832031 27.464844 C 20.832031 27.261719 20.871094 27.066406 20.949219 26.878906 C 21.027344 26.691406 21.136719 26.527344 21.28125 26.382812 C 21.425781 26.242188 21.589844 26.128906 21.777344 26.050781 C 21.964844 25.972656 22.160156 25.9375 22.363281 25.9375 L 22.875 25.9375 C 23.015625 25.9375 23.136719 25.886719 23.234375 25.785156 C 23.335938 25.6875 23.386719 25.566406 23.386719 25.425781 L 23.386719 24.566406 C 23.386719 24.113281 23.554688 23.734375 23.894531 23.429688 C 23.996094 23.335938 24.109375 23.261719 24.230469 23.199219 Z M 24.230469 23.199219 " fill-opacity="1" fill-rule="nonzero"/></g><g clip-path="url(#7a861474fe)"><path fill="#c4942e" d="M 13.871094 24 L 12.886719 24 C 12.664062 24 12.503906 23.898438 12.417969 23.691406 C 12.332031 23.480469 12.367188 23.292969 12.53125 23.132812 L 13.222656 22.441406 C 13.285156 22.375 13.316406 22.296875 13.316406 22.207031 C 13.316406 22.117188 13.285156 22.039062 13.222656 21.976562 L 12.035156 20.785156 C 11.96875 20.726562 11.890625 20.695312 11.804688 20.695312 C 11.714844 20.695312 11.636719 20.726562 11.570312 20.785156 L 11.53125 20.828125 L 10.882812 21.476562 C 10.722656 21.636719 10.535156 21.675781 10.324219 21.585938 C 10.117188 21.5 10.015625 21.34375 10.015625 21.117188 L 10.015625 20.136719 C 10.011719 19.96875 9.925781 19.863281 9.757812 19.820312 L 8.003906 19.820312 C 7.914062 19.820312 7.835938 19.855469 7.769531 19.917969 C 7.707031 19.980469 7.671875 20.058594 7.671875 20.148438 L 7.671875 21.132812 C 7.671875 21.359375 7.566406 21.515625 7.359375 21.601562 C 7.148438 21.691406 6.964844 21.652344 6.804688 21.492188 L 6.109375 20.796875 C 6.042969 20.734375 5.96875 20.707031 5.878906 20.707031 C 5.789062 20.707031 5.710938 20.734375 5.644531 20.796875 L 4.457031 21.976562 C 4.394531 22.039062 4.363281 22.117188 4.363281 22.207031 C 4.363281 22.296875 4.394531 22.375 4.457031 22.441406 L 5.152344 23.132812 C 5.3125 23.292969 5.351562 23.480469 5.261719 23.691406 C 5.175781 23.898438 5.019531 24 4.792969 24 L 3.808594 24 C 3.71875 24.003906 3.640625 24.035156 3.578125 24.101562 C 3.515625 24.164062 3.480469 24.242188 3.480469 24.332031 L 3.480469 26.007812 C 3.480469 26.097656 3.515625 26.175781 3.578125 26.238281 C 3.640625 26.304688 3.71875 26.335938 3.808594 26.339844 L 4.792969 26.339844 C 5.019531 26.339844 5.175781 26.441406 5.261719 26.648438 C 5.351562 26.859375 5.3125 27.046875 5.152344 27.207031 L 4.457031 27.898438 C 4.394531 27.964844 4.363281 28.042969 4.363281 28.136719 C 4.363281 28.222656 4.394531 28.300781 4.457031 28.363281 L 5.644531 29.554688 C 5.710938 29.613281 5.789062 29.644531 5.878906 29.644531 C 5.96875 29.644531 6.042969 29.613281 6.109375 29.554688 L 6.804688 28.859375 C 6.902344 28.757812 7.023438 28.707031 7.160156 28.707031 C 7.230469 28.707031 7.296875 28.722656 7.359375 28.746094 C 7.566406 28.835938 7.671875 28.992188 7.671875 29.21875 L 7.671875 30.203125 C 7.671875 30.292969 7.707031 30.371094 7.769531 30.433594 C 7.835938 30.496094 7.914062 30.527344 8.003906 30.527344 L 9.675781 30.527344 C 9.769531 30.527344 9.84375 30.496094 9.910156 30.433594 C 9.976562 30.371094 10.007812 30.292969 10.007812 30.203125 L 10.007812 29.21875 C 10.007812 28.992188 10.113281 28.835938 10.320312 28.746094 C 10.53125 28.660156 10.714844 28.699219 10.875 28.859375 L 11.570312 29.554688 C 11.636719 29.613281 11.714844 29.644531 11.804688 29.644531 C 11.890625 29.644531 11.96875 29.613281 12.035156 29.554688 L 13.222656 28.363281 C 13.285156 28.300781 13.316406 28.222656 13.316406 28.136719 C 13.316406 28.042969 13.285156 27.964844 13.222656 27.898438 L 12.53125 27.207031 C 12.367188 27.046875 12.332031 26.859375 12.417969 26.648438 C 12.503906 26.441406 12.664062 26.339844 12.886719 26.339844 L 13.871094 26.339844 C 13.964844 26.335938 14.039062 26.304688 14.105469 26.238281 C 14.167969 26.175781 14.199219 26.097656 14.199219 26.007812 L 14.199219 24.332031 C 14.199219 24.242188 14.167969 24.164062 14.105469 24.101562 C 14.039062 24.035156 13.964844 24.003906 13.871094 24 Z M 8.839844 27.359375 C 8.550781 27.359375 8.269531 27.304688 8.003906 27.191406 C 7.734375 27.082031 7.496094 26.921875 7.292969 26.71875 C 7.085938 26.511719 6.929688 26.277344 6.816406 26.007812 C 6.707031 25.738281 6.652344 25.460938 6.652344 25.171875 C 6.652344 24.878906 6.707031 24.601562 6.816406 24.332031 C 6.929688 24.0625 7.085938 23.828125 7.292969 23.621094 C 7.496094 23.417969 7.734375 23.257812 8.003906 23.148438 C 8.269531 23.035156 8.550781 22.980469 8.839844 22.980469 C 9.132812 22.980469 9.410156 23.035156 9.679688 23.148438 C 9.945312 23.257812 10.183594 23.417969 10.386719 23.621094 C 10.59375 23.828125 10.753906 24.0625 10.863281 24.332031 C 10.972656 24.601562 11.03125 24.878906 11.03125 25.171875 C 11.027344 25.460938 10.972656 25.738281 10.863281 26.007812 C 10.75 26.273438 10.59375 26.511719 10.386719 26.714844 C 10.183594 26.921875 9.945312 27.078125 9.675781 27.191406 C 9.410156 27.300781 9.128906 27.359375 8.839844 27.359375 Z M 8.839844 27.359375 " fill-opacity="1" fill-rule="nonzero"/></g><path fill="#c4942e" d="M 8.839844 24 C 8.6875 24 8.535156 24.03125 8.394531 24.089844 C 8.25 24.148438 8.125 24.234375 8.015625 24.34375 C 7.90625 24.453125 7.820312 24.578125 7.761719 24.722656 C 7.703125 24.867188 7.671875 25.015625 7.671875 25.171875 C 7.671875 25.324219 7.703125 25.472656 7.761719 25.617188 C 7.820312 25.761719 7.90625 25.886719 8.015625 25.996094 C 8.125 26.105469 8.25 26.191406 8.394531 26.25 C 8.535156 26.308594 8.6875 26.339844 8.839844 26.339844 C 8.996094 26.339844 9.144531 26.308594 9.289062 26.25 C 9.429688 26.191406 9.558594 26.105469 9.667969 25.996094 C 9.777344 25.886719 9.859375 25.761719 9.921875 25.617188 C 9.980469 25.472656 10.007812 25.324219 10.007812 25.171875 C 10.007812 25.015625 9.976562 24.867188 9.917969 24.722656 C 9.859375 24.582031 9.773438 24.453125 9.664062 24.34375 C 9.554688 24.234375 9.429688 24.152344 9.285156 24.089844 C 9.144531 24.03125 8.996094 24.003906 8.839844 24 Z M 8.839844 24 " fill-opacity="1" fill-rule="nonzero"/></svg>