<svg xmlns="http://www.w3.org/2000/svg" xmlns:xlink="http://www.w3.org/1999/xlink" width="45" zoomAndPan="magnify" viewBox="0 0 33.75 33.749998" height="45" preserveAspectRatio="xMidYMid meet" version="1.0"><defs><clipPath id="b4aa1e0b6c"><path d="M 4 6 L 33 6 L 33 31 L 4 31 Z M 4 6 " clip-rule="nonzero"/></clipPath><clipPath id="fd3461c569"><path d="M 25.882812 30.265625 L 0.96875 13.957031 L 7.898438 3.367188 L 32.816406 19.675781 Z M 25.882812 30.265625 " clip-rule="nonzero"/></clipPath><clipPath id="22fb25d86d"><path d="M 25.882812 30.265625 L 0.96875 13.957031 L 7.898438 3.367188 L 32.816406 19.675781 Z M 25.882812 30.265625 " clip-rule="nonzero"/></clipPath><clipPath id="891e806b9d"><path d="M 4 7 L 32 7 L 32 30 L 4 30 Z M 4 7 " clip-rule="nonzero"/></clipPath><clipPath id="d2fdf7da0c"><path d="M 25.882812 30.265625 L 0.96875 13.957031 L 7.898438 3.367188 L 32.816406 19.675781 Z M 25.882812 30.265625 " clip-rule="nonzero"/></clipPath><clipPath id="4642eae08f"><path d="M 25.882812 30.265625 L 0.96875 13.957031 L 7.898438 3.367188 L 32.816406 19.675781 Z M 25.882812 30.265625 " clip-rule="nonzero"/></clipPath></defs><g clip-path="url(#b4aa1e0b6c)"><g clip-path="url(#fd3461c569)"><g clip-path="url(#22fb25d86d)"><path fill="#c4942e" d="M 25.828125 30.230469 L 32.722656 19.796875 L 12.359375 6.355469 C 12.359375 6.355469 12.335938 6.332031 4.09375 8.628906 C 5.488281 16.90625 5.503906 16.925781 5.503906 16.925781 Z M 25.828125 30.230469 " fill-opacity="1" fill-rule="nonzero"/></g></g></g><g clip-path="url(#891e806b9d)"><g clip-path="url(#d2fdf7da0c)"><g clip-path="url(#4642eae08f)"><path fill="#fdfdfd" d="M 25.726562 29.25 L 25.941406 28.925781 C 25.957031 28.898438 25.980469 28.894531 26.007812 28.914062 C 26.035156 28.929688 26.039062 28.953125 26.019531 28.980469 L 25.804688 29.304688 C 25.789062 29.332031 25.765625 29.335938 25.738281 29.320312 C 25.710938 29.300781 25.707031 29.277344 25.726562 29.25 Z M 26.371094 28.277344 L 26.585938 27.953125 C 26.601562 27.925781 26.625 27.917969 26.652344 27.9375 C 26.679688 27.957031 26.683594 27.976562 26.664062 28.003906 L 26.449219 28.332031 C 26.433594 28.355469 26.410156 28.363281 26.382812 28.34375 C 26.355469 28.324219 26.351562 28.304688 26.371094 28.277344 Z M 27.015625 27.300781 L 27.230469 26.976562 C 27.246094 26.949219 27.269531 26.945312 27.296875 26.960938 C 27.324219 26.980469 27.328125 27.003906 27.3125 27.03125 L 27.097656 27.355469 C 27.078125 27.382812 27.054688 27.386719 27.027344 27.367188 C 27 27.351562 26.996094 27.328125 27.015625 27.300781 Z M 27.660156 26.324219 L 27.875 26 C 27.890625 25.972656 27.914062 25.96875 27.941406 25.988281 C 27.96875 26.003906 27.972656 26.027344 27.957031 26.054688 L 27.742188 26.378906 C 27.722656 26.40625 27.699219 26.410156 27.671875 26.394531 C 27.644531 26.375 27.640625 26.351562 27.660156 26.324219 Z M 28.304688 25.351562 L 28.519531 25.027344 C 28.539062 25 28.558594 24.992188 28.585938 25.011719 C 28.613281 25.03125 28.617188 25.050781 28.601562 25.078125 L 28.386719 25.40625 C 28.367188 25.429688 28.34375 25.4375 28.316406 25.417969 C 28.289062 25.398438 28.285156 25.378906 28.304688 25.351562 Z M 28.949219 24.375 L 29.164062 24.050781 C 29.183594 24.023438 29.203125 24.019531 29.230469 24.035156 C 29.257812 24.054688 29.261719 24.078125 29.246094 24.105469 L 29.03125 24.429688 C 29.011719 24.457031 28.988281 24.460938 28.964844 24.441406 C 28.9375 24.425781 28.929688 24.402344 28.949219 24.375 Z M 29.59375 23.398438 L 29.808594 23.074219 C 29.828125 23.046875 29.847656 23.042969 29.875 23.0625 C 29.902344 23.078125 29.910156 23.101562 29.890625 23.128906 L 29.675781 23.453125 C 29.65625 23.480469 29.636719 23.484375 29.609375 23.46875 C 29.582031 23.449219 29.578125 23.425781 29.59375 23.398438 Z M 30.238281 22.425781 L 30.453125 22.101562 C 30.472656 22.074219 30.496094 22.066406 30.523438 22.085938 C 30.546875 22.105469 30.554688 22.125 30.535156 22.152344 L 30.320312 22.476562 C 30.300781 22.503906 30.28125 22.511719 30.253906 22.492188 C 30.226562 22.472656 30.222656 22.453125 30.238281 22.425781 Z M 30.882812 21.449219 L 31.097656 21.125 C 31.117188 21.097656 31.140625 21.09375 31.167969 21.109375 C 31.195312 21.128906 31.199219 21.152344 31.179688 21.179688 L 30.964844 21.503906 C 30.949219 21.53125 30.925781 21.535156 30.898438 21.515625 C 30.871094 21.5 30.867188 21.476562 30.882812 21.449219 Z M 31.527344 20.472656 L 31.742188 20.148438 C 31.761719 20.121094 31.785156 20.117188 31.8125 20.136719 C 31.839844 20.152344 31.84375 20.175781 31.824219 20.203125 L 31.609375 20.527344 C 31.59375 20.554688 31.570312 20.558594 31.542969 20.542969 C 31.515625 20.523438 31.511719 20.5 31.527344 20.472656 Z M 31.40625 19.726562 L 31.082031 19.511719 C 31.054688 19.492188 31.050781 19.472656 31.066406 19.445312 C 31.085938 19.417969 31.109375 19.414062 31.132812 19.429688 L 31.460938 19.644531 C 31.488281 19.664062 31.492188 19.683594 31.472656 19.710938 C 31.457031 19.738281 31.433594 19.742188 31.40625 19.726562 Z M 30.429688 19.082031 L 30.105469 18.867188 C 30.078125 18.851562 30.074219 18.828125 30.089844 18.800781 C 30.109375 18.773438 30.132812 18.769531 30.160156 18.785156 L 30.484375 19 C 30.511719 19.019531 30.515625 19.042969 30.496094 19.070312 C 30.480469 19.09375 30.457031 19.101562 30.429688 19.082031 Z M 29.453125 18.4375 L 29.128906 18.222656 C 29.101562 18.207031 29.097656 18.183594 29.117188 18.15625 C 29.132812 18.128906 29.15625 18.125 29.183594 18.140625 L 29.507812 18.355469 C 29.535156 18.375 29.539062 18.398438 29.523438 18.425781 C 29.503906 18.453125 29.480469 18.457031 29.453125 18.4375 Z M 28.480469 17.792969 L 28.152344 17.578125 C 28.125 17.5625 28.121094 17.539062 28.140625 17.511719 C 28.15625 17.484375 28.179688 17.480469 28.207031 17.5 L 28.53125 17.714844 C 28.558594 17.730469 28.5625 17.753906 28.546875 17.78125 C 28.527344 17.808594 28.503906 17.8125 28.480469 17.792969 Z M 27.503906 17.152344 L 27.175781 16.9375 C 27.148438 16.917969 27.144531 16.894531 27.164062 16.867188 C 27.179688 16.839844 27.203125 16.835938 27.230469 16.855469 L 27.554688 17.070312 C 27.582031 17.085938 27.589844 17.109375 27.570312 17.136719 C 27.550781 17.164062 27.53125 17.167969 27.503906 17.152344 Z M 26.527344 16.507812 L 26.203125 16.292969 C 26.175781 16.273438 26.167969 16.25 26.1875 16.222656 C 26.207031 16.199219 26.226562 16.191406 26.253906 16.210938 L 26.582031 16.425781 C 26.609375 16.441406 26.613281 16.464844 26.59375 16.492188 C 26.578125 16.519531 26.554688 16.523438 26.527344 16.507812 Z M 25.550781 15.863281 L 25.226562 15.648438 C 25.199219 15.628906 25.195312 15.609375 25.210938 15.582031 C 25.230469 15.554688 25.253906 15.550781 25.277344 15.566406 L 25.605469 15.78125 C 25.632812 15.800781 25.636719 15.820312 25.617188 15.847656 C 25.601562 15.875 25.578125 15.878906 25.550781 15.863281 Z M 24.574219 15.21875 L 24.25 15.003906 C 24.222656 14.984375 24.21875 14.964844 24.234375 14.9375 C 24.253906 14.910156 24.277344 14.90625 24.304688 14.921875 L 24.628906 15.136719 C 24.65625 15.15625 24.660156 15.179688 24.640625 15.203125 C 24.625 15.230469 24.601562 15.238281 24.574219 15.21875 Z M 23.597656 14.574219 L 23.273438 14.359375 C 23.246094 14.34375 23.242188 14.320312 23.257812 14.292969 C 23.277344 14.265625 23.300781 14.261719 23.328125 14.277344 L 23.652344 14.492188 C 23.679688 14.511719 23.683594 14.535156 23.667969 14.5625 C 23.648438 14.589844 23.625 14.59375 23.597656 14.574219 Z M 22.621094 13.929688 L 22.296875 13.714844 C 22.269531 13.699219 22.265625 13.675781 22.285156 13.648438 C 22.300781 13.621094 22.324219 13.617188 22.351562 13.636719 L 22.675781 13.851562 C 22.703125 13.867188 22.707031 13.890625 22.691406 13.917969 C 22.671875 13.945312 22.648438 13.949219 22.621094 13.929688 Z M 21.648438 13.285156 L 21.320312 13.074219 C 21.292969 13.054688 21.289062 13.03125 21.308594 13.003906 C 21.324219 12.976562 21.347656 12.972656 21.375 12.992188 L 21.699219 13.207031 C 21.726562 13.222656 21.730469 13.246094 21.714844 13.273438 C 21.695312 13.300781 21.675781 13.304688 21.648438 13.285156 Z M 20.671875 12.644531 L 20.347656 12.429688 C 20.320312 12.410156 20.3125 12.386719 20.332031 12.359375 C 20.351562 12.332031 20.371094 12.328125 20.398438 12.347656 L 20.726562 12.5625 C 20.75 12.578125 20.757812 12.601562 20.738281 12.628906 C 20.722656 12.65625 20.699219 12.660156 20.671875 12.644531 Z M 19.695312 12 L 19.371094 11.785156 C 19.34375 11.765625 19.339844 11.746094 19.355469 11.71875 C 19.375 11.691406 19.394531 11.683594 19.421875 11.703125 L 19.75 11.917969 C 19.777344 11.9375 19.78125 11.957031 19.761719 11.984375 C 19.746094 12.011719 19.722656 12.015625 19.695312 12 Z M 18.71875 11.355469 L 18.394531 11.140625 C 18.367188 11.121094 18.363281 11.101562 18.378906 11.074219 C 18.398438 11.046875 18.421875 11.042969 18.449219 11.058594 L 18.773438 11.273438 C 18.800781 11.292969 18.804688 11.3125 18.785156 11.339844 C 18.769531 11.367188 18.746094 11.375 18.71875 11.355469 Z M 17.742188 10.710938 L 17.417969 10.496094 C 17.390625 10.480469 17.386719 10.457031 17.402344 10.429688 C 17.421875 10.402344 17.445312 10.398438 17.472656 10.414062 L 17.796875 10.628906 C 17.824219 10.648438 17.828125 10.671875 17.8125 10.699219 C 17.792969 10.726562 17.769531 10.730469 17.742188 10.710938 Z M 16.765625 10.066406 L 16.441406 9.851562 C 16.414062 9.835938 16.410156 9.8125 16.429688 9.785156 C 16.445312 9.757812 16.46875 9.753906 16.496094 9.773438 L 16.820312 9.984375 C 16.847656 10.003906 16.851562 10.027344 16.835938 10.054688 C 16.816406 10.082031 16.792969 10.085938 16.765625 10.066406 Z M 15.792969 9.421875 L 15.464844 9.210938 C 15.4375 9.191406 15.433594 9.167969 15.453125 9.140625 C 15.46875 9.113281 15.492188 9.109375 15.519531 9.128906 L 15.84375 9.34375 C 15.871094 9.359375 15.875 9.382812 15.859375 9.410156 C 15.839844 9.4375 15.820312 9.441406 15.792969 9.421875 Z M 14.816406 8.78125 L 14.488281 8.566406 C 14.464844 8.546875 14.457031 8.523438 14.476562 8.496094 C 14.496094 8.46875 14.515625 8.464844 14.542969 8.484375 L 14.871094 8.699219 C 14.894531 8.714844 14.902344 8.738281 14.882812 8.765625 C 14.863281 8.792969 14.84375 8.796875 14.816406 8.78125 Z M 13.839844 8.136719 L 13.515625 7.921875 C 13.488281 7.902344 13.484375 7.878906 13.5 7.855469 C 13.519531 7.828125 13.539062 7.820312 13.566406 7.839844 L 13.894531 8.054688 C 13.921875 8.074219 13.925781 8.09375 13.90625 8.121094 C 13.890625 8.148438 13.867188 8.152344 13.839844 8.136719 Z M 12.863281 7.492188 L 12.539062 7.277344 C 12.511719 7.257812 12.507812 7.238281 12.523438 7.210938 C 12.542969 7.183594 12.566406 7.179688 12.59375 7.195312 L 12.917969 7.410156 C 12.945312 7.429688 12.949219 7.449219 12.929688 7.476562 C 12.914062 7.503906 12.890625 7.511719 12.863281 7.492188 Z M 11.832031 7.414062 L 11.457031 7.503906 C 11.425781 7.511719 11.40625 7.5 11.398438 7.46875 C 11.390625 7.4375 11.402344 7.417969 11.433594 7.410156 L 11.808594 7.320312 C 11.839844 7.3125 11.859375 7.324219 11.867188 7.355469 C 11.875 7.386719 11.863281 7.40625 11.832031 7.414062 Z M 10.695312 7.691406 L 10.3125 7.785156 C 10.28125 7.792969 10.261719 7.78125 10.253906 7.75 C 10.246094 7.71875 10.257812 7.699219 10.289062 7.691406 L 10.671875 7.597656 C 10.703125 7.589844 10.722656 7.601562 10.730469 7.632812 C 10.738281 7.664062 10.726562 7.683594 10.695312 7.691406 Z M 9.558594 7.96875 L 9.179688 8.0625 C 9.148438 8.070312 9.128906 8.058594 9.121094 8.027344 C 9.113281 7.996094 9.125 7.976562 9.15625 7.96875 L 9.535156 7.875 C 9.566406 7.867188 9.585938 7.878906 9.59375 7.910156 C 9.601562 7.941406 9.589844 7.960938 9.558594 7.96875 Z M 8.421875 8.25 L 8.046875 8.34375 C 8.011719 8.351562 7.992188 8.339844 7.984375 8.308594 C 7.976562 8.277344 7.988281 8.257812 8.023438 8.25 L 8.398438 8.15625 C 8.429688 8.148438 8.449219 8.160156 8.457031 8.191406 C 8.464844 8.222656 8.453125 8.242188 8.421875 8.25 Z M 7.289062 8.535156 L 6.910156 8.628906 C 6.878906 8.636719 6.859375 8.625 6.851562 8.589844 C 6.84375 8.558594 6.855469 8.539062 6.886719 8.53125 L 7.265625 8.4375 C 7.296875 8.429688 7.316406 8.441406 7.324219 8.472656 C 7.332031 8.503906 7.320312 8.523438 7.289062 8.535156 Z M 6.152344 8.816406 L 5.777344 8.910156 C 5.746094 8.917969 5.726562 8.90625 5.71875 8.875 C 5.710938 8.84375 5.722656 8.824219 5.753906 8.816406 L 6.128906 8.722656 C 6.160156 8.714844 6.179688 8.726562 6.1875 8.757812 C 6.195312 8.789062 6.183594 8.808594 6.152344 8.816406 Z M 5.019531 9.097656 L 4.839844 9.144531 L 4.828125 9.097656 L 4.875 9.085938 L 4.917969 9.296875 C 4.921875 9.328125 4.910156 9.347656 4.878906 9.351562 C 4.847656 9.359375 4.828125 9.347656 4.820312 9.316406 L 4.78125 9.105469 C 4.773438 9.074219 4.785156 9.054688 4.816406 9.046875 L 4.996094 9.003906 C 5.027344 8.996094 5.046875 9.007812 5.054688 9.039062 C 5.0625 9.070312 5.050781 9.089844 5.019531 9.097656 Z M 5.066406 10.0625 L 5.144531 10.4375 C 5.148438 10.46875 5.136719 10.488281 5.105469 10.496094 C 5.074219 10.503906 5.054688 10.488281 5.046875 10.457031 L 4.972656 10.078125 C 4.964844 10.046875 4.980469 10.027344 5.011719 10.023438 C 5.042969 10.015625 5.0625 10.027344 5.066406 10.0625 Z M 5.292969 11.207031 L 5.371094 11.585938 C 5.375 11.617188 5.363281 11.636719 5.332031 11.644531 C 5.300781 11.648438 5.28125 11.636719 5.273438 11.605469 L 5.199219 11.226562 C 5.191406 11.195312 5.207031 11.175781 5.238281 11.167969 C 5.269531 11.164062 5.289062 11.175781 5.292969 11.207031 Z M 5.519531 12.355469 L 5.597656 12.734375 C 5.601562 12.765625 5.589844 12.785156 5.558594 12.792969 C 5.527344 12.800781 5.507812 12.785156 5.5 12.753906 L 5.425781 12.375 C 5.417969 12.339844 5.433594 12.324219 5.464844 12.316406 C 5.496094 12.308594 5.515625 12.324219 5.519531 12.355469 Z M 5.746094 13.496094 L 5.824219 13.878906 C 5.828125 13.910156 5.816406 13.929688 5.785156 13.9375 C 5.753906 13.941406 5.734375 13.929688 5.726562 13.898438 L 5.652344 13.515625 C 5.644531 13.484375 5.65625 13.464844 5.691406 13.457031 C 5.722656 13.453125 5.742188 13.464844 5.746094 13.496094 Z M 5.976562 14.648438 L 6.054688 15.039062 C 6.058594 15.070312 6.046875 15.089844 6.015625 15.09375 C 5.984375 15.101562 5.964844 15.089844 5.957031 15.058594 L 5.878906 14.664062 C 5.875 14.632812 5.886719 14.613281 5.917969 14.609375 C 5.949219 14.601562 5.96875 14.613281 5.976562 14.648438 Z M 6.203125 15.792969 L 6.28125 16.179688 C 6.289062 16.214844 6.277344 16.230469 6.242188 16.238281 C 6.210938 16.246094 6.191406 16.230469 6.1875 16.199219 L 6.109375 15.8125 C 6.101562 15.78125 6.113281 15.761719 6.148438 15.753906 C 6.179688 15.75 6.199219 15.761719 6.203125 15.792969 Z M 6.554688 16.808594 L 6.882812 17.023438 C 6.910156 17.042969 6.914062 17.0625 6.894531 17.089844 C 6.878906 17.117188 6.855469 17.121094 6.828125 17.105469 L 6.5 16.890625 C 6.472656 16.875 6.46875 16.851562 6.488281 16.824219 C 6.503906 16.796875 6.527344 16.792969 6.554688 16.808594 Z M 7.535156 17.449219 L 7.859375 17.664062 C 7.886719 17.679688 7.890625 17.703125 7.875 17.730469 C 7.855469 17.757812 7.832031 17.761719 7.804688 17.746094 L 7.480469 17.53125 C 7.453125 17.515625 7.449219 17.492188 7.464844 17.464844 C 7.484375 17.4375 7.507812 17.433594 7.535156 17.449219 Z M 8.511719 18.089844 L 8.835938 18.304688 C 8.863281 18.320312 8.871094 18.34375 8.851562 18.371094 C 8.835938 18.398438 8.8125 18.402344 8.785156 18.386719 L 8.457031 18.171875 C 8.429688 18.152344 8.425781 18.132812 8.445312 18.105469 C 8.460938 18.078125 8.484375 18.074219 8.511719 18.089844 Z M 9.488281 18.730469 L 9.816406 18.945312 C 9.84375 18.960938 9.847656 18.984375 9.832031 19.011719 C 9.8125 19.039062 9.789062 19.042969 9.761719 19.027344 L 9.4375 18.8125 C 9.410156 18.792969 9.40625 18.773438 9.421875 18.746094 C 9.441406 18.71875 9.460938 18.714844 9.488281 18.730469 Z M 10.46875 19.371094 L 10.792969 19.585938 C 10.820312 19.601562 10.828125 19.625 10.808594 19.652344 C 10.789062 19.679688 10.769531 19.683594 10.742188 19.667969 L 10.414062 19.453125 C 10.386719 19.433594 10.382812 19.414062 10.402344 19.386719 C 10.417969 19.359375 10.441406 19.351562 10.46875 19.371094 Z M 11.445312 20.011719 L 11.773438 20.226562 C 11.800781 20.242188 11.804688 20.265625 11.785156 20.292969 C 11.769531 20.320312 11.746094 20.324219 11.71875 20.304688 L 11.394531 20.09375 C 11.367188 20.074219 11.363281 20.050781 11.378906 20.027344 C 11.398438 20 11.417969 19.992188 11.445312 20.011719 Z M 12.425781 20.652344 L 12.75 20.863281 C 12.777344 20.882812 12.78125 20.90625 12.765625 20.933594 C 12.746094 20.960938 12.726562 20.964844 12.699219 20.945312 L 12.371094 20.734375 C 12.34375 20.714844 12.339844 20.691406 12.359375 20.664062 C 12.375 20.636719 12.398438 20.632812 12.425781 20.652344 Z M 13.402344 21.292969 L 13.730469 21.503906 C 13.757812 21.523438 13.761719 21.546875 13.742188 21.574219 C 13.726562 21.601562 13.703125 21.605469 13.675781 21.585938 L 13.351562 21.375 C 13.324219 21.355469 13.316406 21.332031 13.335938 21.304688 C 13.355469 21.277344 13.375 21.273438 13.402344 21.292969 Z M 14.382812 21.933594 L 14.707031 22.144531 C 14.734375 22.164062 14.738281 22.1875 14.722656 22.214844 C 14.703125 22.242188 14.679688 22.246094 14.652344 22.226562 L 14.328125 22.015625 C 14.300781 21.996094 14.296875 21.972656 14.3125 21.945312 C 14.332031 21.917969 14.355469 21.914062 14.382812 21.933594 Z M 15.359375 22.574219 L 15.6875 22.785156 C 15.714844 22.804688 15.71875 22.828125 15.699219 22.855469 C 15.683594 22.878906 15.660156 22.886719 15.632812 22.867188 L 15.304688 22.652344 C 15.277344 22.636719 15.273438 22.613281 15.292969 22.585938 C 15.308594 22.558594 15.332031 22.554688 15.359375 22.574219 Z M 16.339844 23.214844 L 16.664062 23.425781 C 16.691406 23.445312 16.695312 23.464844 16.679688 23.492188 C 16.660156 23.519531 16.636719 23.527344 16.609375 23.507812 L 16.285156 23.292969 C 16.257812 23.277344 16.253906 23.253906 16.269531 23.226562 C 16.289062 23.199219 16.3125 23.195312 16.339844 23.214844 Z M 17.316406 23.851562 L 17.640625 24.066406 C 17.667969 24.085938 17.675781 24.105469 17.65625 24.132812 C 17.640625 24.160156 17.617188 24.167969 17.589844 24.148438 L 17.261719 23.933594 C 17.234375 23.917969 17.230469 23.894531 17.25 23.867188 C 17.265625 23.839844 17.289062 23.835938 17.316406 23.851562 Z M 18.292969 24.492188 L 18.621094 24.707031 C 18.648438 24.726562 18.652344 24.746094 18.636719 24.773438 C 18.617188 24.800781 18.59375 24.804688 18.566406 24.789062 L 18.242188 24.574219 C 18.214844 24.558594 18.210938 24.535156 18.226562 24.507812 C 18.246094 24.480469 18.265625 24.476562 18.292969 24.492188 Z M 19.273438 25.132812 L 19.597656 25.347656 C 19.625 25.363281 19.632812 25.386719 19.613281 25.414062 C 19.59375 25.441406 19.574219 25.445312 19.546875 25.429688 L 19.21875 25.214844 C 19.191406 25.199219 19.1875 25.175781 19.207031 25.148438 C 19.222656 25.121094 19.246094 25.117188 19.273438 25.132812 Z M 20.25 25.773438 L 20.578125 25.988281 C 20.605469 26.003906 20.609375 26.027344 20.589844 26.054688 C 20.574219 26.082031 20.550781 26.085938 20.523438 26.070312 L 20.199219 25.855469 C 20.171875 25.839844 20.164062 25.816406 20.183594 25.789062 C 20.203125 25.761719 20.222656 25.757812 20.25 25.773438 Z M 21.230469 26.414062 L 21.554688 26.628906 C 21.582031 26.644531 21.585938 26.667969 21.570312 26.695312 C 21.550781 26.722656 21.53125 26.726562 21.503906 26.710938 L 21.175781 26.496094 C 21.148438 26.476562 21.144531 26.457031 21.160156 26.429688 C 21.179688 26.402344 21.203125 26.398438 21.230469 26.414062 Z M 22.207031 27.054688 L 22.535156 27.269531 C 22.5625 27.285156 22.566406 27.308594 22.546875 27.335938 C 22.53125 27.363281 22.507812 27.367188 22.480469 27.351562 L 22.15625 27.136719 C 22.128906 27.117188 22.121094 27.097656 22.140625 27.070312 C 22.15625 27.042969 22.179688 27.035156 22.207031 27.054688 Z M 23.1875 27.695312 L 23.511719 27.910156 C 23.539062 27.925781 23.542969 27.949219 23.527344 27.976562 C 23.507812 28.003906 23.484375 28.007812 23.457031 27.988281 L 23.132812 27.777344 C 23.105469 27.757812 23.101562 27.738281 23.117188 27.710938 C 23.136719 27.683594 23.160156 27.675781 23.1875 27.695312 Z M 24.164062 28.335938 L 24.492188 28.550781 C 24.519531 28.566406 24.523438 28.589844 24.503906 28.617188 C 24.488281 28.644531 24.464844 28.648438 24.4375 28.628906 L 24.109375 28.417969 C 24.082031 28.398438 24.078125 28.375 24.097656 28.347656 C 24.113281 28.324219 24.136719 28.316406 24.164062 28.335938 Z M 25.144531 28.976562 L 25.46875 29.1875 C 25.496094 29.207031 25.5 29.230469 25.484375 29.257812 C 25.464844 29.285156 25.441406 29.289062 25.414062 29.269531 L 25.089844 29.058594 C 25.0625 29.039062 25.058594 29.015625 25.074219 28.988281 C 25.09375 28.960938 25.117188 28.957031 25.144531 28.976562 Z M 25.144531 28.976562 " fill-opacity="1" fill-rule="nonzero"/></g></g></g></svg>