<svg xmlns="http://www.w3.org/2000/svg" xmlns:xlink="http://www.w3.org/1999/xlink" width="45" zoomAndPan="magnify" viewBox="0 0 33.75 33.749998" height="45" preserveAspectRatio="xMidYMid meet" version="1.0"><defs><clipPath id="ecd89f512d"><path d="M 1.445312 1.941406 L 31.96875 1.941406 L 31.96875 31.71875 L 1.445312 31.71875 Z M 1.445312 1.941406 " clip-rule="nonzero"/></clipPath></defs><g clip-path="url(#ecd89f512d)"><path fill="#c4942e" d="M 7.699219 6.03125 L 8.390625 7.859375 C 8.414062 7.914062 8.460938 7.949219 8.519531 7.953125 L 10.472656 8.046875 C 10.605469 8.054688 10.660156 8.222656 10.558594 8.304688 L 9.03125 9.53125 C 8.988281 9.566406 8.96875 9.625 8.984375 9.679688 L 9.496094 11.566406 C 9.53125 11.695312 9.390625 11.800781 9.277344 11.726562 L 7.640625 10.65625 C 7.59375 10.625 7.53125 10.625 7.484375 10.65625 L 5.847656 11.726562 C 5.734375 11.800781 5.59375 11.695312 5.628906 11.566406 L 6.140625 9.679688 C 6.15625 9.625 6.136719 9.566406 6.09375 9.53125 L 4.566406 8.304688 C 4.464844 8.222656 4.519531 8.054688 4.652344 8.046875 L 6.605469 7.953125 C 6.664062 7.949219 6.710938 7.914062 6.734375 7.859375 L 7.425781 6.03125 C 7.472656 5.90625 7.652344 5.90625 7.699219 6.03125 Z M 25.433594 2.0625 L 26.128906 3.890625 C 26.148438 3.945312 26.199219 3.980469 26.257812 3.984375 L 28.210938 4.078125 C 28.34375 4.085938 28.398438 4.253906 28.292969 4.335938 L 26.769531 5.5625 C 26.722656 5.597656 26.707031 5.65625 26.722656 5.714844 L 27.234375 7.601562 C 27.269531 7.730469 27.125 7.832031 27.015625 7.757812 L 25.378906 6.6875 C 25.328125 6.65625 25.269531 6.65625 25.21875 6.6875 L 23.585938 7.757812 C 23.472656 7.832031 23.332031 7.730469 23.367188 7.601562 L 23.878906 5.714844 C 23.894531 5.65625 23.875 5.597656 23.828125 5.5625 L 22.304688 4.335938 C 22.203125 4.253906 22.253906 4.085938 22.390625 4.078125 L 24.34375 3.984375 C 24.402344 3.980469 24.449219 3.945312 24.46875 3.890625 L 25.164062 2.0625 C 25.210938 1.941406 25.386719 1.941406 25.433594 2.0625 Z M 29.085938 11.625 L 29.777344 13.453125 C 29.800781 13.507812 29.847656 13.542969 29.90625 13.546875 L 31.859375 13.644531 C 31.992188 13.648438 32.046875 13.816406 31.945312 13.898438 L 30.417969 15.125 C 30.375 15.160156 30.355469 15.21875 30.371094 15.277344 L 30.882812 17.164062 C 30.917969 17.292969 30.777344 17.394531 30.664062 17.320312 L 29.027344 16.25 C 28.980469 16.21875 28.917969 16.21875 28.871094 16.25 L 27.234375 17.320312 C 27.121094 17.394531 26.980469 17.292969 27.015625 17.164062 L 27.527344 15.277344 C 27.542969 15.21875 27.523438 15.160156 27.480469 15.125 L 25.953125 13.898438 C 25.851562 13.816406 25.90625 13.648438 26.039062 13.644531 L 27.992188 13.546875 C 28.050781 13.542969 28.097656 13.507812 28.121094 13.453125 L 28.8125 11.625 C 28.859375 11.503906 29.039062 11.503906 29.085938 11.625 Z M 4.679688 15.414062 L 5.371094 17.242188 C 5.394531 17.296875 5.441406 17.332031 5.5 17.335938 L 7.453125 17.433594 C 7.585938 17.4375 7.640625 17.605469 7.539062 17.6875 L 6.011719 18.914062 C 5.96875 18.949219 5.949219 19.007812 5.964844 19.066406 L 6.476562 20.953125 C 6.511719 21.082031 6.371094 21.183594 6.257812 21.109375 L 4.621094 20.039062 C 4.574219 20.007812 4.511719 20.007812 4.464844 20.039062 L 2.828125 21.109375 C 2.714844 21.183594 2.574219 21.082031 2.609375 20.953125 L 3.121094 19.066406 C 3.136719 19.007812 3.117188 18.949219 3.074219 18.914062 L 1.550781 17.6875 C 1.445312 17.605469 1.5 17.4375 1.632812 17.433594 L 3.585938 17.335938 C 3.644531 17.332031 3.691406 17.296875 3.714844 17.242188 L 4.410156 15.414062 C 4.457031 15.292969 4.632812 15.292969 4.679688 15.414062 Z M 13.988281 21.996094 C 14.3125 21.671875 14.84375 21.671875 15.167969 21.996094 L 16.011719 22.84375 L 18.296875 20.554688 C 18.621094 20.230469 19.152344 20.230469 19.476562 20.554688 C 19.476562 20.632812 20.042969 21.167969 19.476562 21.734375 L 16.617188 24.59375 C 16.203125 25.007812 15.652344 24.839844 15.285156 24.472656 L 13.988281 23.175781 C 13.664062 22.851562 13.664062 22.320312 13.988281 21.996094 Z M 25.5625 21.421875 L 24.234375 20.910156 C 24.191406 20.894531 24.164062 20.863281 24.15625 20.820312 C 23.972656 20.078125 23.675781 19.371094 23.28125 18.714844 C 23.261719 18.679688 23.257812 18.636719 23.273438 18.597656 L 23.855469 17.296875 C 23.875 17.246094 23.867188 17.191406 23.828125 17.152344 L 22.25 15.574219 C 22.210938 15.535156 22.15625 15.527344 22.105469 15.546875 L 20.804688 16.128906 C 20.761719 16.144531 20.722656 16.140625 20.683594 16.121094 C 20.03125 15.726562 19.324219 15.429688 18.582031 15.246094 C 18.539062 15.238281 18.507812 15.210938 18.496094 15.171875 L 17.980469 13.839844 C 17.960938 13.789062 17.917969 13.757812 17.863281 13.757812 L 15.628906 13.757812 C 15.574219 13.757812 15.53125 13.789062 15.511719 13.839844 L 15 15.171875 C 14.984375 15.210938 14.953125 15.238281 14.910156 15.246094 C 14.167969 15.429688 13.460938 15.726562 12.808594 16.121094 C 12.769531 16.140625 12.730469 16.144531 12.691406 16.128906 L 11.386719 15.546875 C 11.335938 15.527344 11.28125 15.535156 11.242188 15.574219 L 9.664062 17.152344 C 9.625 17.191406 9.617188 17.246094 9.636719 17.296875 L 10.21875 18.597656 C 10.234375 18.636719 10.230469 18.679688 10.210938 18.71875 C 9.816406 19.371094 9.523438 20.078125 9.339844 20.820312 C 9.328125 20.863281 9.300781 20.894531 9.261719 20.90625 L 7.929688 21.421875 C 7.878906 21.441406 7.847656 21.484375 7.847656 21.539062 L 7.847656 23.773438 C 7.847656 23.828125 7.878906 23.871094 7.929688 23.890625 L 9.261719 24.402344 C 9.300781 24.417969 9.328125 24.449219 9.339844 24.492188 C 9.519531 25.234375 9.816406 25.941406 10.210938 26.59375 C 10.230469 26.632812 10.234375 26.671875 10.21875 26.710938 L 9.636719 28.015625 C 9.617188 28.066406 9.625 28.121094 9.664062 28.15625 L 11.246094 29.738281 C 11.28125 29.773438 11.335938 29.785156 11.386719 29.765625 L 12.691406 29.183594 C 12.730469 29.167969 12.769531 29.167969 12.808594 29.191406 C 13.460938 29.585938 14.167969 29.878906 14.910156 30.0625 C 14.953125 30.074219 14.984375 30.101562 15 30.140625 L 15.511719 31.472656 C 15.53125 31.523438 15.574219 31.554688 15.628906 31.554688 L 17.863281 31.554688 C 17.917969 31.554688 17.960938 31.523438 17.980469 31.472656 L 18.492188 30.140625 C 18.507812 30.101562 18.539062 30.074219 18.582031 30.0625 C 19.324219 29.882812 20.03125 29.585938 20.6875 29.191406 C 20.722656 29.167969 20.765625 29.167969 20.804688 29.183594 L 22.105469 29.765625 C 22.15625 29.785156 22.210938 29.777344 22.25 29.738281 L 23.828125 28.15625 C 23.867188 28.121094 23.875 28.066406 23.855469 28.015625 L 23.273438 26.710938 C 23.257812 26.671875 23.261719 26.632812 23.28125 26.59375 C 23.675781 25.941406 23.972656 25.234375 24.152344 24.492188 C 24.164062 24.449219 24.191406 24.417969 24.230469 24.402344 L 25.5625 23.890625 C 25.613281 23.871094 25.644531 23.828125 25.644531 23.773438 L 25.644531 21.539062 C 25.644531 21.484375 25.613281 21.441406 25.5625 21.421875 Z M 16.730469 27.300781 C 14.121094 27.300781 12.007812 25.183594 12.007812 22.574219 C 12.007812 19.964844 14.121094 17.847656 16.730469 17.847656 C 19.34375 17.847656 21.457031 19.964844 21.457031 22.574219 C 21.457031 25.183594 19.34375 27.300781 16.730469 27.300781 Z M 16.714844 4.046875 C 14.914062 4.046875 13.457031 5.503906 13.457031 7.304688 C 13.457031 9.105469 14.914062 10.5625 16.714844 10.5625 C 13.960938 10.5625 11.613281 12.289062 10.691406 14.71875 C 11.011719 14.5 11.433594 14.457031 11.796875 14.617188 L 12.695312 15.015625 C 13.179688 14.757812 13.6875 14.546875 14.210938 14.386719 L 14.5625 13.472656 C 14.730469 13.03125 15.15625 12.742188 15.628906 12.742188 L 17.863281 12.742188 C 18.335938 12.742188 18.761719 13.03125 18.929688 13.472656 L 19.28125 14.386719 C 19.808594 14.546875 20.316406 14.757812 20.800781 15.015625 L 21.695312 14.617188 C 22.027344 14.46875 22.410156 14.492188 22.71875 14.667969 C 21.785156 12.265625 19.449219 10.5625 16.714844 10.5625 C 18.515625 10.5625 19.972656 9.105469 19.972656 7.304688 C 19.972656 5.503906 18.515625 4.046875 16.714844 4.046875 Z M 16.714844 4.046875 " fill-opacity="1" fill-rule="evenodd"/></g></svg>