<svg xmlns="http://www.w3.org/2000/svg" xmlns:xlink="http://www.w3.org/1999/xlink" width="45" zoomAndPan="magnify" viewBox="0 0 33.75 33.749998" height="45" preserveAspectRatio="xMidYMid meet" version="1.0"><defs><clipPath id="c19b1a29a8"><path d="M 16 4.40625 L 31.132812 4.40625 L 31.132812 24 L 16 24 Z M 16 4.40625 " clip-rule="nonzero"/></clipPath><clipPath id="b610c0a179"><path d="M 7 13 L 21 13 L 21 28.972656 L 7 28.972656 Z M 7 13 " clip-rule="nonzero"/></clipPath><clipPath id="f8c1078e17"><path d="M 2.097656 19 L 6 19 L 6 28.972656 L 2.097656 28.972656 Z M 2.097656 19 " clip-rule="nonzero"/></clipPath></defs><g clip-path="url(#c19b1a29a8)"><path fill="#c4942e" d="M 30.613281 8.054688 C 26.09375 7.597656 24.773438 5.03125 24.710938 4.90625 C 24.566406 4.601562 24.261719 4.40625 23.925781 4.40625 C 23.585938 4.40625 23.273438 4.601562 23.128906 4.914062 C 23.121094 4.9375 21.832031 7.585938 17.234375 8.050781 C 16.792969 8.097656 16.449219 8.476562 16.449219 8.921875 L 16.449219 13.632812 C 16.449219 15.03125 16.867188 16.308594 17.488281 17.433594 C 17.96875 17.425781 18.445312 17.425781 18.855469 17.425781 C 20.503906 17.425781 21.839844 18.773438 21.839844 20.414062 C 21.839844 20.890625 21.734375 21.347656 21.523438 21.742188 C 22.585938 22.515625 23.421875 22.949219 23.519531 23.003906 C 23.640625 23.0625 23.78125 23.101562 23.925781 23.101562 C 24.058594 23.101562 24.199219 23.0625 24.320312 23.003906 C 24.613281 22.859375 31.394531 19.300781 31.394531 13.632812 L 31.394531 8.925781 C 31.394531 8.480469 31.0625 8.097656 30.613281 8.054688 Z M 27.398438 12.367188 L 23.589844 16.1875 C 23.414062 16.355469 23.195312 16.445312 22.964844 16.445312 C 22.746094 16.445312 22.519531 16.355469 22.347656 16.1875 L 20.449219 14.289062 C 20.105469 13.945312 20.105469 13.390625 20.449219 13.058594 C 20.792969 12.714844 21.347656 12.714844 21.6875 13.058594 L 22.960938 14.335938 L 26.164062 11.136719 C 26.503906 10.792969 27.058594 10.792969 27.398438 11.136719 C 27.742188 11.480469 27.742188 12.023438 27.398438 12.367188 Z M 27.398438 12.367188 " fill-opacity="1" fill-rule="nonzero"/></g><g clip-path="url(#b610c0a179)"><path fill="#c4942e" d="M 20.105469 20.414062 C 20.105469 19.734375 19.546875 19.175781 18.863281 19.175781 C 18.183594 19.175781 14.777344 19.214844 14.0625 19.207031 C 13.679688 19.203125 13.414062 18.832031 13.53125 18.46875 C 13.898438 17.367188 14.546875 15.355469 14.664062 14.738281 C 14.949219 13.210938 12.578125 12.742188 12.097656 13.9375 C 11.648438 15.058594 9.890625 18.488281 7.820312 19.761719 C 7.574219 19.914062 7.425781 20.179688 7.425781 20.472656 L 7.410156 27.476562 C 7.410156 27.886719 9.066406 29.089844 11.394531 29.089844 L 17.929688 29.089844 C 18.613281 29.089844 19.167969 28.53125 19.167969 27.851562 C 19.167969 27.273438 18.773438 26.785156 18.234375 26.652344 C 18.210938 26.644531 18.214844 26.609375 18.238281 26.609375 C 18.917969 26.609375 19.476562 26.050781 19.476562 25.371094 C 19.476562 24.792969 19.078125 24.308594 18.542969 24.171875 C 18.519531 24.164062 18.523438 24.132812 18.546875 24.132812 C 19.226562 24.132812 19.785156 23.574219 19.785156 22.890625 C 19.785156 22.316406 19.386719 21.828125 18.851562 21.6875 C 18.828125 21.683594 18.832031 21.648438 18.855469 21.648438 C 19.546875 21.65625 20.105469 21.097656 20.105469 20.414062 Z M 20.105469 20.414062 " fill-opacity="1" fill-rule="nonzero"/></g><g clip-path="url(#f8c1078e17)"><path fill="#c4942e" d="M 4.875 19.59375 L 2.859375 19.59375 C 2.441406 19.59375 2.101562 19.929688 2.101562 20.351562 L 2.101562 27.730469 C 2.101562 28.148438 2.441406 28.488281 2.859375 28.488281 L 4.875 28.488281 C 5.296875 28.488281 5.636719 28.148438 5.636719 27.730469 L 5.636719 20.351562 C 5.636719 19.929688 5.296875 19.59375 4.875 19.59375 Z M 4.875 19.59375 " fill-opacity="1" fill-rule="nonzero"/></g></svg>