<svg xmlns="http://www.w3.org/2000/svg" xmlns:xlink="http://www.w3.org/1999/xlink" width="45" zoomAndPan="magnify" viewBox="0 0 33.75 33.749998" height="45" preserveAspectRatio="xMidYMid meet" version="1.0"><defs><clipPath id="940aef5106"><path d="M 3.34375 13 L 19 13 L 19 21 L 3.34375 21 Z M 3.34375 13 " clip-rule="nonzero"/></clipPath><clipPath id="937e3ed104"><path d="M 3.34375 18 L 19 18 L 19 24 L 3.34375 24 Z M 3.34375 18 " clip-rule="nonzero"/></clipPath><clipPath id="4291a0cfd3"><path d="M 3.34375 22 L 19 22 L 19 28 L 3.34375 28 Z M 3.34375 22 " clip-rule="nonzero"/></clipPath><clipPath id="2e1d787e1e"><path d="M 3.34375 25 L 19 25 L 19 31.175781 L 3.34375 31.175781 Z M 3.34375 25 " clip-rule="nonzero"/></clipPath><clipPath id="a2823467df"><path d="M 20 14 L 30.148438 14 L 30.148438 24 L 20 24 Z M 20 14 " clip-rule="nonzero"/></clipPath><clipPath id="807b596370"><path d="M 21 7 L 30.148438 7 L 30.148438 14 L 21 14 Z M 21 7 " clip-rule="nonzero"/></clipPath><clipPath id="055a71d7a8"><path d="M 8 2.140625 L 15 2.140625 L 15 6 L 8 6 Z M 8 2.140625 " clip-rule="nonzero"/></clipPath><clipPath id="98c8fa9591"><path d="M 10 2.140625 L 14 2.140625 L 14 6 L 10 6 Z M 10 2.140625 " clip-rule="nonzero"/></clipPath></defs><g clip-path="url(#940aef5106)"><path fill="#c4942e" d="M 18.164062 16.613281 C 18.164062 18.464844 14.769531 20.03125 10.753906 20.03125 C 6.738281 20.03125 3.34375 18.464844 3.34375 16.613281 C 3.34375 14.761719 6.738281 13.191406 10.753906 13.191406 C 14.769531 13.191406 18.164062 14.757812 18.164062 16.613281 Z M 18.164062 16.613281 " fill-opacity="1" fill-rule="nonzero"/></g><g clip-path="url(#937e3ed104)"><path fill="#c4942e" d="M 18.164062 18.335938 L 18.164062 20.386719 C 18.164062 21.089844 17.667969 21.652344 17.25 22.003906 C 15.925781 23.117188 13.4375 23.808594 10.753906 23.808594 C 8.070312 23.808594 5.582031 23.117188 4.257812 22.003906 C 3.84375 21.65625 3.347656 21.09375 3.34375 20.398438 L 3.34375 18.335938 C 3.761719 18.808594 4.355469 19.238281 5.105469 19.601562 C 6.621094 20.339844 8.628906 20.742188 10.753906 20.742188 C 12.882812 20.742188 14.886719 20.335938 16.402344 19.601562 C 17.152344 19.238281 17.746094 18.808594 18.164062 18.335938 Z M 18.164062 18.335938 " fill-opacity="1" fill-rule="nonzero"/></g><g clip-path="url(#4291a0cfd3)"><path fill="#c4942e" d="M 18.164062 22.109375 L 18.164062 24.164062 C 18.164062 24.867188 17.667969 25.429688 17.25 25.78125 C 15.925781 26.890625 13.4375 27.582031 10.753906 27.582031 C 8.070312 27.582031 5.582031 26.890625 4.257812 25.78125 C 3.84375 25.429688 3.347656 24.871094 3.34375 24.171875 L 3.34375 22.109375 C 3.484375 22.265625 3.636719 22.414062 3.796875 22.550781 C 4.507812 23.144531 5.515625 23.640625 6.71875 23.984375 C 7.941406 24.335938 9.335938 24.519531 10.753906 24.519531 C 12.175781 24.519531 13.570312 24.335938 14.789062 23.984375 C 15.976562 23.644531 16.980469 23.15625 17.6875 22.570312 L 17.710938 22.550781 C 17.875 22.414062 18.023438 22.265625 18.164062 22.109375 Z M 18.164062 22.109375 " fill-opacity="1" fill-rule="nonzero"/></g><g clip-path="url(#2e1d787e1e)"><path fill="#c4942e" d="M 18.164062 25.882812 L 18.164062 27.941406 C 18.164062 29.792969 14.769531 31.359375 10.753906 31.359375 C 6.738281 31.359375 3.347656 29.792969 3.34375 27.941406 L 3.34375 25.882812 C 3.484375 26.042969 3.636719 26.191406 3.800781 26.324219 C 4.507812 26.921875 5.519531 27.417969 6.71875 27.761719 C 7.941406 28.113281 9.335938 28.296875 10.757812 28.296875 C 12.175781 28.296875 13.570312 28.109375 14.792969 27.761719 C 15.992188 27.417969 17.003906 26.921875 17.710938 26.324219 C 17.875 26.191406 18.023438 26.042969 18.164062 25.882812 Z M 18.164062 25.882812 " fill-opacity="1" fill-rule="nonzero"/></g><path fill="#c4942e" d="M 17.507812 8.425781 C 17.507812 8.5625 17.519531 8.699219 17.550781 8.832031 L 14.007812 8.832031 C 13.863281 8.832031 13.734375 8.78125 13.632812 8.675781 C 13.527344 8.570312 13.476562 8.445312 13.476562 8.296875 L 13.476562 5.199219 C 13.476562 5.050781 13.527344 4.925781 13.632812 4.820312 C 13.734375 4.714844 13.863281 4.664062 14.007812 4.664062 C 14.15625 4.664062 14.28125 4.714844 14.386719 4.820312 C 14.492188 4.925781 14.542969 5.050781 14.542969 5.199219 L 14.542969 7.761719 L 17.621094 7.761719 C 17.546875 7.976562 17.507812 8.199219 17.507812 8.425781 Z M 17.507812 8.425781 " fill-opacity="1" fill-rule="nonzero"/><g clip-path="url(#a2823467df)"><path fill="#c4942e" d="M 30.144531 20.011719 C 30.144531 20.421875 30.066406 20.820312 29.910156 21.199219 C 29.75 21.578125 29.527344 21.914062 29.238281 22.203125 C 28.945312 22.496094 28.609375 22.71875 28.230469 22.878906 C 27.851562 23.035156 27.453125 23.113281 27.042969 23.113281 L 26.730469 23.113281 C 26.832031 22.757812 26.832031 22.402344 26.730469 22.046875 L 27.042969 22.046875 C 27.3125 22.046875 27.574219 21.996094 27.820312 21.890625 C 28.070312 21.789062 28.292969 21.640625 28.480469 21.449219 C 28.671875 21.257812 28.820312 21.039062 28.921875 20.789062 C 29.027344 20.539062 29.078125 20.28125 29.078125 20.011719 C 29.078125 19.742188 29.027344 19.484375 28.921875 19.234375 C 28.820312 18.984375 28.671875 18.765625 28.480469 18.574219 C 28.292969 18.382812 28.070312 18.234375 27.820312 18.132812 C 27.574219 18.03125 27.3125 17.976562 27.042969 17.976562 L 23.5 17.976562 C 23.285156 17.976562 23.074219 17.953125 22.867188 17.902344 C 22.660156 17.847656 22.460938 17.773438 22.269531 17.675781 C 22.078125 17.574219 21.902344 17.453125 21.742188 17.3125 C 21.582031 17.171875 21.441406 17.011719 21.320312 16.835938 C 21.195312 16.660156 21.097656 16.472656 21.019531 16.269531 C 20.945312 16.070312 20.894531 15.863281 20.867188 15.652344 C 20.839844 15.4375 20.839844 15.226562 20.863281 15.011719 C 20.890625 14.800781 20.9375 14.59375 21.015625 14.390625 C 21.21875 14.78125 21.519531 15.070312 21.914062 15.257812 C 21.914062 15.277344 21.914062 15.300781 21.914062 15.324219 C 21.917969 15.535156 21.957031 15.734375 22.039062 15.929688 C 22.117188 16.125 22.230469 16.296875 22.382812 16.445312 C 22.53125 16.59375 22.699219 16.707031 22.894531 16.789062 C 23.089844 16.867188 23.292969 16.910156 23.5 16.910156 L 27.042969 16.910156 C 27.457031 16.910156 27.851562 16.988281 28.230469 17.144531 C 28.613281 17.304688 28.949219 17.527344 29.238281 17.816406 C 29.53125 18.109375 29.753906 18.445312 29.910156 18.824219 C 30.070312 19.203125 30.148438 19.601562 30.148438 20.011719 Z M 30.144531 20.011719 " fill-opacity="1" fill-rule="nonzero"/></g><path fill="#c4942e" d="M 22.921875 22.582031 C 22.921875 22.761719 22.945312 22.941406 22.996094 23.113281 L 18.875 23.113281 L 18.875 22.046875 L 22.996094 22.046875 C 22.945312 22.222656 22.921875 22.398438 22.921875 22.582031 Z M 22.921875 22.582031 " fill-opacity="1" fill-rule="nonzero"/><g clip-path="url(#807b596370)"><path fill="#c4942e" d="M 30.144531 10.75 C 30.144531 11.144531 30.070312 11.527344 29.917969 11.890625 C 29.765625 12.257812 29.550781 12.582031 29.269531 12.859375 C 28.988281 13.140625 28.667969 13.355469 28.300781 13.507812 C 27.9375 13.660156 27.554688 13.738281 27.160156 13.738281 L 24.664062 13.738281 C 24.675781 13.65625 24.679688 13.578125 24.679688 13.5 C 24.679688 13.207031 24.617188 12.929688 24.492188 12.667969 L 27.160156 12.667969 C 27.414062 12.671875 27.664062 12.625 27.902344 12.53125 C 28.140625 12.433594 28.351562 12.296875 28.53125 12.117188 C 28.714844 11.9375 28.855469 11.726562 28.957031 11.492188 C 29.054688 11.253906 29.105469 11.007812 29.105469 10.75 C 29.105469 10.492188 29.054688 10.246094 28.957031 10.011719 C 28.855469 9.773438 28.714844 9.566406 28.53125 9.382812 C 28.351562 9.203125 28.140625 9.066406 27.902344 8.96875 C 27.664062 8.875 27.414062 8.828125 27.160156 8.832031 L 21.347656 8.832031 C 21.375 8.699219 21.390625 8.5625 21.390625 8.425781 C 21.390625 8.199219 21.351562 7.976562 21.273438 7.761719 L 27.160156 7.761719 C 27.554688 7.761719 27.9375 7.839844 28.300781 7.992188 C 28.667969 8.140625 28.992188 8.359375 29.269531 8.636719 C 29.550781 8.917969 29.765625 9.242188 29.917969 9.605469 C 30.070312 9.972656 30.144531 10.355469 30.144531 10.75 Z M 30.144531 10.75 " fill-opacity="1" fill-rule="nonzero"/></g><g clip-path="url(#055a71d7a8)"><path fill="#c4942e" d="M 8.738281 5.910156 L 10.550781 4.023438 L 8.738281 2.140625 L 14.539062 2.140625 L 14.539062 5.910156 Z M 8.738281 5.910156 " fill-opacity="1" fill-rule="nonzero"/></g><g clip-path="url(#98c8fa9591)"><path fill="#c4942e" d="M 10.410156 5.199219 L 13.828125 5.199219 L 13.828125 2.851562 L 10.410156 2.851562 L 11.535156 4.023438 Z M 10.410156 5.199219 " fill-opacity="1" fill-rule="nonzero"/></g><path fill="#c4942e" d="M 20.496094 8.425781 C 20.496094 8.589844 20.464844 8.746094 20.402344 8.894531 C 20.339844 9.046875 20.253906 9.179688 20.136719 9.292969 C 20.023438 9.410156 19.890625 9.5 19.738281 9.5625 C 19.585938 9.625 19.429688 9.65625 19.269531 9.65625 C 19.105469 9.65625 18.949219 9.625 18.796875 9.5625 C 18.648438 9.5 18.515625 9.410156 18.398438 9.292969 C 18.28125 9.179688 18.195312 9.046875 18.132812 8.894531 C 18.070312 8.746094 18.039062 8.589844 18.039062 8.425781 C 18.039062 8.261719 18.070312 8.105469 18.132812 7.953125 C 18.195312 7.804688 18.28125 7.671875 18.398438 7.554688 C 18.515625 7.441406 18.648438 7.351562 18.796875 7.289062 C 18.949219 7.226562 19.105469 7.195312 19.269531 7.195312 C 19.429688 7.195312 19.585938 7.226562 19.738281 7.289062 C 19.890625 7.351562 20.023438 7.441406 20.136719 7.554688 C 20.253906 7.671875 20.339844 7.804688 20.402344 7.953125 C 20.464844 8.105469 20.496094 8.261719 20.496094 8.425781 Z M 20.496094 8.425781 " fill-opacity="1" fill-rule="nonzero"/><path fill="#c4942e" d="M 23.789062 13.5 C 23.789062 13.660156 23.757812 13.816406 23.695312 13.96875 C 23.632812 14.121094 23.542969 14.253906 23.425781 14.367188 C 23.3125 14.484375 23.179688 14.570312 23.027344 14.632812 C 22.878906 14.695312 22.71875 14.726562 22.558594 14.726562 C 22.394531 14.726562 22.238281 14.695312 22.085938 14.632812 C 21.9375 14.570312 21.804688 14.484375 21.6875 14.367188 C 21.574219 14.253906 21.484375 14.121094 21.421875 13.96875 C 21.359375 13.816406 21.328125 13.660156 21.328125 13.5 C 21.328125 13.335938 21.359375 13.179688 21.421875 13.027344 C 21.484375 12.875 21.574219 12.742188 21.6875 12.628906 C 21.804688 12.511719 21.9375 12.425781 22.085938 12.363281 C 22.238281 12.300781 22.394531 12.269531 22.558594 12.269531 C 22.71875 12.269531 22.878906 12.300781 23.027344 12.363281 C 23.179688 12.425781 23.3125 12.511719 23.425781 12.628906 C 23.542969 12.742188 23.632812 12.875 23.695312 13.027344 C 23.757812 13.179688 23.789062 13.335938 23.789062 13.5 Z M 23.789062 13.5 " fill-opacity="1" fill-rule="nonzero"/><path fill="#c4942e" d="M 26.09375 22.582031 C 26.09375 22.742188 26.0625 22.898438 26 23.050781 C 25.9375 23.203125 25.847656 23.335938 25.734375 23.449219 C 25.617188 23.566406 25.484375 23.652344 25.332031 23.714844 C 25.183594 23.777344 25.027344 23.808594 24.863281 23.808594 C 24.699219 23.808594 24.542969 23.777344 24.394531 23.714844 C 24.242188 23.652344 24.109375 23.566406 23.992188 23.449219 C 23.878906 23.335938 23.789062 23.203125 23.726562 23.050781 C 23.664062 22.898438 23.632812 22.742188 23.632812 22.582031 C 23.632812 22.417969 23.664062 22.261719 23.726562 22.109375 C 23.789062 21.960938 23.878906 21.828125 23.992188 21.710938 C 24.109375 21.59375 24.242188 21.507812 24.394531 21.445312 C 24.542969 21.382812 24.699219 21.351562 24.863281 21.351562 C 25.027344 21.351562 25.183594 21.382812 25.332031 21.445312 C 25.484375 21.507812 25.617188 21.59375 25.734375 21.710938 C 25.847656 21.828125 25.9375 21.960938 26 22.109375 C 26.0625 22.261719 26.09375 22.417969 26.09375 22.582031 Z M 26.09375 22.582031 " fill-opacity="1" fill-rule="nonzero"/></svg>