<svg xmlns="http://www.w3.org/2000/svg" xmlns:xlink="http://www.w3.org/1999/xlink" width="45" zoomAndPan="magnify" viewBox="0 0 33.75 33.749998" height="45" preserveAspectRatio="xMidYMid meet" version="1.0"><defs><clipPath id="388bd5f870"><path d="M 4.222656 3.960938 L 29.535156 3.960938 L 29.535156 29.273438 L 4.222656 29.273438 Z M 4.222656 3.960938 " clip-rule="nonzero"/></clipPath></defs><g clip-path="url(#388bd5f870)"><path fill="#c4942e" d="M 27.222656 27.679688 L 24.808594 27.679688 C 24.570312 27.679688 24.359375 27.488281 24.359375 27.230469 L 24.359375 14.140625 C 24.359375 13.902344 24.570312 13.691406 24.808594 13.691406 L 27.222656 13.691406 C 27.480469 13.691406 27.671875 13.902344 27.671875 14.140625 L 27.671875 27.230469 C 27.671875 27.488281 27.480469 27.679688 27.222656 27.679688 Z M 7.476562 16.644531 C 6.621094 16.644531 5.933594 15.957031 5.933594 15.085938 C 5.933594 14.230469 6.621094 13.542969 7.476562 13.542969 C 7.882812 13.542969 8.257812 13.691406 8.527344 13.945312 L 10.609375 12.703125 C 10.582031 12.582031 10.566406 12.460938 10.566406 12.328125 C 10.566406 11.472656 11.253906 10.78125 12.109375 10.78125 C 12.964844 10.78125 13.667969 11.472656 13.667969 12.328125 C 13.667969 12.566406 13.625 12.777344 13.535156 12.972656 L 15.917969 15.070312 C 16.15625 14.921875 16.441406 14.847656 16.742188 14.847656 C 17.117188 14.847656 17.460938 14.964844 17.730469 15.191406 L 19.90625 13.707031 C 19.847656 13.558594 19.832031 13.40625 19.832031 13.242188 C 19.832031 12.386719 20.519531 11.683594 21.375 11.683594 C 21.75 11.683594 22.09375 11.816406 22.367188 12.042969 L 24.539062 10.558594 C 24.496094 10.410156 24.464844 10.257812 24.464844 10.09375 C 24.464844 9.238281 25.15625 8.535156 26.023438 8.535156 C 26.878906 8.535156 27.570312 9.238281 27.570312 10.09375 C 27.570312 10.949219 26.878906 11.652344 26.023438 11.652344 C 25.648438 11.652344 25.304688 11.519531 25.035156 11.292969 L 22.859375 12.777344 C 22.90625 12.925781 22.933594 13.078125 22.933594 13.242188 C 22.933594 14.097656 22.246094 14.800781 21.375 14.800781 C 21.015625 14.800781 20.671875 14.667969 20.402344 14.457031 L 18.226562 15.925781 C 18.273438 16.074219 18.300781 16.226562 18.300781 16.390625 C 18.300781 17.246094 17.597656 17.949219 16.742188 17.949219 C 15.886719 17.949219 15.199219 17.246094 15.199219 16.390625 C 15.199219 16.167969 15.242188 15.941406 15.332031 15.746094 L 12.933594 13.648438 C 12.695312 13.796875 12.410156 13.886719 12.109375 13.886719 C 11.703125 13.886719 11.34375 13.738281 11.058594 13.480469 L 8.992188 14.710938 C 9.019531 14.832031 9.035156 14.964844 9.035156 15.085938 C 9.035156 15.957031 8.332031 16.644531 7.476562 16.644531 Z M 17.222656 12.222656 C 15.679688 12.222656 14.34375 11.382812 13.625 10.125 L 17.117188 8.414062 L 18.855469 11.894531 C 18.347656 12.101562 17.808594 12.222656 17.222656 12.222656 Z M 13.398438 9.6875 C 13.203125 9.195312 13.085938 8.652344 13.085938 8.085938 C 13.085938 5.878906 14.808594 4.082031 16.96875 3.960938 L 16.96875 7.933594 Z M 17.460938 3.960938 C 19.5625 4.082031 21.226562 5.746094 21.347656 7.828125 L 17.460938 7.828125 Z M 21.347656 8.339844 C 21.269531 9.75 20.460938 10.992188 19.292969 11.667969 L 17.628906 8.339844 Z M 28.828125 29.539062 L 4.671875 29.539062 C 4.417969 29.539062 4.222656 29.332031 4.222656 29.089844 C 4.222656 28.835938 4.417969 28.640625 4.671875 28.640625 L 28.828125 28.640625 C 29.082031 28.640625 29.277344 28.835938 29.277344 29.089844 C 29.277344 29.332031 29.082031 29.539062 28.828125 29.539062 Z M 22.589844 27.679688 L 20.175781 27.679688 C 19.921875 27.679688 19.726562 27.488281 19.726562 27.230469 L 19.726562 17.289062 C 19.726562 17.050781 19.921875 16.839844 20.175781 16.839844 L 22.589844 16.839844 C 22.832031 16.839844 23.039062 17.050781 23.039062 17.289062 L 23.039062 27.230469 C 23.039062 27.488281 22.832031 27.679688 22.589844 27.679688 Z M 17.957031 27.679688 L 15.542969 27.679688 C 15.289062 27.679688 15.09375 27.488281 15.09375 27.230469 L 15.09375 20.4375 C 15.09375 20.199219 15.289062 19.988281 15.542969 19.988281 L 17.957031 19.988281 C 18.195312 19.988281 18.40625 20.199219 18.40625 20.4375 L 18.40625 27.230469 C 18.40625 27.488281 18.195312 27.679688 17.957031 27.679688 Z M 13.324219 27.679688 L 10.910156 27.679688 C 10.65625 27.679688 10.460938 27.488281 10.460938 27.230469 L 10.460938 16.375 C 10.460938 16.136719 10.65625 15.941406 10.910156 15.941406 L 13.324219 15.941406 C 13.5625 15.941406 13.773438 16.136719 13.773438 16.375 L 13.773438 27.230469 C 13.773438 27.488281 13.5625 27.679688 13.324219 27.679688 Z M 8.691406 27.679688 L 6.277344 27.679688 C 6.023438 27.679688 5.828125 27.488281 5.828125 27.230469 L 5.828125 19.136719 C 5.828125 18.894531 6.023438 18.699219 6.277344 18.699219 L 8.691406 18.699219 C 8.929688 18.699219 9.140625 18.894531 9.140625 19.136719 L 9.140625 27.230469 C 9.140625 27.488281 8.929688 27.679688 8.691406 27.679688 Z M 8.691406 27.679688 " fill-opacity="1" fill-rule="evenodd"/></g></svg>