<svg xmlns="http://www.w3.org/2000/svg" xmlns:xlink="http://www.w3.org/1999/xlink" width="45" zoomAndPan="magnify" viewBox="0 0 33.75 33.749998" height="45" preserveAspectRatio="xMidYMid meet" version="1.0"><defs><clipPath id="3c0fad4a69"><path d="M 3.402344 3.335938 L 30 3.335938 L 30 30.136719 L 3.402344 30.136719 Z M 3.402344 3.335938 " clip-rule="nonzero"/></clipPath></defs><g clip-path="url(#3c0fad4a69)"><path fill="#c4942e" d="M 8.253906 4.46875 L 7.925781 3.90625 L 10.410156 3.90625 C 10.488281 3.90625 10.554688 3.933594 10.609375 3.988281 L 12.75 6.128906 C 12.542969 6.1875 12.34375 6.25 12.144531 6.320312 L 10.292969 4.46875 Z M 23.140625 29.03125 L 21.472656 27.363281 C 21.289062 27.445312 21.097656 27.523438 20.90625 27.59375 C 20.972656 27.617188 22.960938 29.765625 23.023438 29.59375 L 25.507812 29.59375 L 25.179688 29.03125 Z M 9.53125 22.871094 C 9.214844 22.636719 7.605469 22.785156 7.222656 22.746094 C 6.875 22.785156 5.769531 22.648438 5.476562 22.871094 C 5.160156 22.929688 3.78125 25.648438 3.578125 25.90625 C 3.402344 26.210938 3.402344 26.554688 3.578125 26.859375 L 4.988281 29.300781 C 5.171875 28.617188 5.617188 27.917969 6.390625 27.984375 C 5.441406 27.421875 5.390625 26.300781 5.445312 25.308594 C 5.496094 22.605469 9.511719 22.605469 9.5625 25.308594 C 9.617188 26.300781 9.5625 27.421875 8.617188 27.984375 C 9.390625 27.917969 9.835938 28.617188 10.019531 29.300781 L 11.425781 26.859375 C 11.601562 26.554688 11.601562 26.210938 11.425781 25.90625 C 11.214844 25.625 9.863281 22.953125 9.53125 22.871094 Z M 6.472656 12.980469 L 11.308594 14.273438 C 11.867188 12.625 13.375 11.449219 15.136719 11.335938 L 15.136719 6.332031 C 11.121094 6.453125 7.628906 9.128906 6.472656 12.980469 Z M 4.460938 7.464844 C 4.546875 7.617188 4.6875 7.699219 4.867188 7.699219 L 6.761719 7.699219 C 6.933594 7.699219 7.074219 7.621094 7.160156 7.476562 C 7.21875 7.335938 8.246094 5.714844 8.179688 5.589844 C 8.25 5.46875 7.21875 3.851562 7.167969 3.714844 C 7.078125 3.5625 6.9375 3.484375 6.761719 3.480469 C 6.609375 3.5 4.710938 3.421875 4.628906 3.542969 C 4.503906 3.523438 3.59375 5.253906 3.511719 5.355469 C 3.417969 5.511719 3.417969 5.667969 3.511719 5.824219 Z M 26.796875 18.585938 L 21.796875 18.585938 C 21.65625 20.757812 19.917969 22.496094 17.746094 22.636719 L 17.746094 27.640625 C 22.679688 27.492188 26.652344 23.519531 26.796875 18.585938 Z M 28.800781 25.859375 C 28.730469 25.738281 26.816406 25.820312 26.671875 25.796875 C 26.5 25.800781 26.359375 25.875 26.269531 26.023438 C 26.210938 26.160156 25.1875 27.785156 25.253906 27.910156 C 25.183594 28.027344 26.210938 29.648438 26.265625 29.78125 C 26.351562 29.9375 26.492188 30.015625 26.671875 30.015625 L 28.566406 30.015625 C 28.738281 30.015625 28.878906 29.941406 28.964844 29.792969 L 29.917969 28.144531 C 30.011719 27.988281 30.011719 27.828125 29.917969 27.671875 C 29.824219 27.550781 28.945312 25.867188 28.800781 25.859375 Z M 11.417969 16.980469 L 6.585938 15.683594 C 6.066406 17.859375 6.363281 20.226562 7.410156 22.183594 C 8.328125 22.230469 9.859375 21.898438 10.363281 22.941406 C 10.71875 23.683594 12.277344 25.863281 12.121094 26.472656 C 13.171875 26.902344 14.261719 27.136719 15.394531 27.167969 L 15.394531 22.164062 C 12.816406 22.027344 10.886719 19.519531 11.417969 16.980469 Z M 23.414062 10.035156 C 23.597656 9.351562 24.042969 8.652344 24.816406 8.714844 C 23.867188 8.15625 23.816406 7.035156 23.871094 6.042969 C 23.921875 3.335938 27.9375 3.335938 27.988281 6.042969 L 27.988281 6.988281 C 27.988281 7.699219 27.625 8.339844 27.042969 8.714844 C 27.816406 8.652344 28.261719 9.351562 28.445312 10.035156 C 28.585938 9.699219 30.066406 7.464844 29.984375 7.117188 C 30.089844 6.808594 28.429688 4.261719 28.304688 3.957031 C 28.128906 3.648438 27.832031 3.484375 27.480469 3.480469 L 24.378906 3.480469 C 24.03125 3.480469 23.738281 3.644531 23.5625 3.945312 L 22.003906 6.640625 C 21.832031 6.945312 21.832031 7.289062 22.003906 7.59375 Z M 25.28125 9.28125 C 24.539062 9.28125 24.132812 9.15625 23.855469 10.601562 C 23.902344 10.621094 24.054688 10.707031 24.09375 10.710938 L 27.507812 10.75 C 27.632812 10.726562 27.890625 10.6875 28 10.601562 C 27.570312 8.335938 26.292969 9.820312 26.292969 9 C 26.292969 7.949219 26.546875 8.726562 27.164062 7.824219 C 27.558594 7.242188 27.84375 4.546875 25.929688 4.546875 C 25.109375 4.546875 24.433594 5.222656 24.433594 6.042969 C 24.433594 6.898438 24.285156 7.949219 25.382812 8.378906 C 25.652344 8.484375 25.675781 9.28125 25.28125 9.28125 Z M 22.089844 15.894531 L 27.09375 15.894531 C 27.046875 14.242188 26.589844 12.707031 25.722656 11.296875 L 24.121094 11.296875 L 23.683594 11.152344 L 23.066406 10.558594 C 22.664062 9.851562 21.726562 8.441406 21.414062 7.578125 C 20.335938 7.121094 19.210938 6.875 18.039062 6.839844 L 18.039062 11.84375 C 20.210938 11.984375 21.949219 13.722656 22.089844 15.894531 Z M 8.714844 28.546875 L 8.148438 28.546875 C 7.8125 28.554688 7.867188 28.132812 7.867188 27.90625 C 7.875 27.578125 8.539062 27.515625 8.738281 27.09375 C 9.089844 26.667969 8.984375 25.824219 8.996094 25.308594 C 8.957031 23.347656 6.046875 23.34375 6.007812 25.308594 C 5.972656 26.222656 5.945312 27.261719 6.960938 27.644531 C 7.207031 27.722656 7.128906 28.074219 7.140625 28.265625 C 7.144531 28.667969 6.535156 28.519531 6.292969 28.546875 C 5.695312 28.601562 5.558594 29.324219 5.433594 29.867188 C 5.589844 29.96875 5.757812 30.015625 5.953125 30.015625 C 6.34375 29.964844 9.332031 30.160156 9.574219 29.867188 C 9.449219 29.324219 9.308594 28.597656 8.714844 28.546875 Z M 8.714844 28.546875 " fill-opacity="1" fill-rule="evenodd"/></g></svg>