<svg xmlns="http://www.w3.org/2000/svg" xmlns:xlink="http://www.w3.org/1999/xlink" width="45" zoomAndPan="magnify" viewBox="0 0 33.75 33.749998" height="45" preserveAspectRatio="xMidYMid meet" version="1.0"><defs><clipPath id="168f7cc6a1"><path d="M 1.257812 1.277344 L 32.527344 1.277344 L 32.527344 32.546875 L 1.257812 32.546875 Z M 1.257812 1.277344 " clip-rule="nonzero"/></clipPath></defs><g clip-path="url(#168f7cc6a1)"><path fill="#c4942e" d="M 25.878906 26.855469 C 25.027344 27.589844 23.917969 28.03125 22.707031 28.03125 C 20.015625 28.03125 17.832031 25.847656 17.832031 23.15625 C 17.832031 20.460938 20.015625 18.28125 22.707031 18.28125 C 25.398438 18.28125 27.582031 20.460938 27.582031 23.15625 C 27.582031 24.191406 27.257812 25.152344 26.707031 25.945312 L 28.230469 27.433594 L 28.285156 27.378906 C 28.453125 27.203125 28.738281 27.199219 28.914062 27.367188 L 31.589844 29.964844 C 31.765625 30.136719 31.769531 30.417969 31.597656 30.59375 L 30.632812 31.589844 C 30.460938 31.761719 30.179688 31.765625 30.003906 31.597656 L 27.328125 29 C 27.152344 28.832031 27.148438 28.546875 27.320312 28.371094 L 27.375 28.316406 Z M 22.707031 19.683594 C 20.789062 19.683594 19.234375 21.238281 19.234375 23.15625 C 19.234375 25.074219 20.789062 26.628906 22.707031 26.628906 C 24.625 26.628906 26.179688 25.074219 26.179688 23.15625 C 26.179688 21.238281 24.625 19.683594 22.707031 19.683594 Z M 24.261719 9.449219 L 22.140625 9.449219 C 21.96875 9.449219 21.828125 9.3125 21.828125 9.140625 L 21.828125 7.019531 Z M 2.988281 12.257812 C 2.527344 13.671875 2.277344 15.183594 2.277344 16.75 C 2.277344 24.738281 8.761719 31.222656 16.75 31.222656 C 19 31.222656 21.128906 30.710938 23.027344 29.792969 C 23.277344 29.671875 23.574219 29.777344 23.695312 30.023438 C 23.816406 30.273438 23.710938 30.570312 23.460938 30.691406 C 21.433594 31.671875 19.15625 32.222656 16.75 32.222656 C 8.210938 32.222656 1.28125 25.289062 1.28125 16.75 C 1.28125 14.964844 1.582031 13.253906 2.140625 11.65625 L 2.117188 11.675781 C 1.890625 11.832031 1.578125 11.78125 1.417969 11.554688 C 1.261719 11.328125 1.316406 11.019531 1.539062 10.859375 L 2.972656 9.847656 C 3.117188 9.746094 3.304688 9.726562 3.46875 9.800781 C 3.628906 9.878906 3.738281 10.03125 3.757812 10.210938 L 3.914062 11.957031 C 3.941406 12.230469 3.738281 12.472656 3.464844 12.5 C 3.265625 12.515625 3.085938 12.417969 2.988281 12.257812 Z M 30.507812 21.25 C 30.972656 19.835938 31.222656 18.320312 31.222656 16.75 C 31.222656 8.761719 24.738281 2.277344 16.75 2.277344 C 14.503906 2.277344 12.375 2.789062 10.472656 3.707031 C 10.226562 3.828125 9.925781 3.722656 9.808594 3.476562 C 9.6875 3.226562 9.792969 2.929688 10.039062 2.808594 C 12.070312 1.828125 14.347656 1.277344 16.75 1.277344 C 25.289062 1.277344 32.222656 8.210938 32.222656 16.75 C 32.222656 18.53125 31.921875 20.238281 31.367188 21.832031 L 31.382812 21.820312 C 31.605469 21.660156 31.917969 21.714844 32.078125 21.9375 C 32.238281 22.160156 32.183594 22.472656 31.960938 22.632812 L 30.53125 23.652344 C 30.386719 23.753906 30.199219 23.773438 30.035156 23.699219 C 29.875 23.625 29.761719 23.46875 29.746094 23.292969 L 29.578125 21.546875 C 29.554688 21.273438 29.753906 21.027344 30.027344 21.003906 C 30.230469 20.984375 30.414062 21.085938 30.507812 21.25 Z M 17.867188 26.480469 L 9.554688 26.480469 C 9.472656 26.480469 9.390625 26.449219 9.332031 26.390625 C 9.273438 26.332031 9.242188 26.253906 9.242188 26.167969 L 9.242188 7.332031 C 9.242188 7.246094 9.273438 7.167969 9.332031 7.109375 C 9.390625 7.050781 9.472656 7.019531 9.554688 7.019531 L 20.828125 7.019531 L 20.828125 9.449219 C 20.828125 10.003906 21.277344 10.449219 21.828125 10.449219 L 24.261719 10.449219 L 24.261719 17.488281 C 23.765625 17.355469 23.246094 17.28125 22.707031 17.28125 C 19.460938 17.28125 16.832031 19.910156 16.832031 23.15625 C 16.832031 24.390625 17.214844 25.535156 17.867188 26.480469 Z M 12.308594 13.539062 L 21.195312 13.539062 C 21.472656 13.539062 21.695312 13.316406 21.695312 13.042969 C 21.695312 12.765625 21.472656 12.542969 21.195312 12.542969 L 12.308594 12.542969 C 12.03125 12.542969 11.808594 12.765625 11.808594 13.042969 C 11.808594 13.316406 12.03125 13.539062 12.308594 13.539062 Z M 12.308594 18.777344 L 17.628906 18.777344 C 17.902344 18.777344 18.128906 18.554688 18.128906 18.28125 C 18.128906 18.003906 17.902344 17.78125 17.628906 17.78125 L 12.308594 17.78125 C 12.03125 17.78125 11.808594 18.003906 11.808594 18.28125 C 11.808594 18.554688 12.03125 18.777344 12.308594 18.777344 Z M 12.308594 10.921875 L 18.6875 10.921875 C 18.964844 10.921875 19.1875 10.699219 19.1875 10.421875 C 19.1875 10.148438 18.964844 9.921875 18.6875 9.921875 L 12.308594 9.921875 C 12.03125 9.921875 11.808594 10.148438 11.808594 10.421875 C 11.808594 10.699219 12.03125 10.921875 12.308594 10.921875 Z M 12.308594 24.019531 L 15.617188 24.019531 C 15.890625 24.019531 16.113281 23.792969 16.113281 23.519531 C 16.113281 23.242188 15.890625 23.019531 15.617188 23.019531 L 12.308594 23.019531 C 12.03125 23.019531 11.808594 23.242188 11.808594 23.519531 C 11.808594 23.792969 12.03125 24.019531 12.308594 24.019531 Z M 12.308594 21.398438 L 16.128906 21.398438 C 16.402344 21.398438 16.625 21.175781 16.625 20.898438 C 16.625 20.625 16.402344 20.398438 16.128906 20.398438 L 12.308594 20.398438 C 12.03125 20.398438 11.808594 20.625 11.808594 20.898438 C 11.808594 21.175781 12.03125 21.398438 12.308594 21.398438 Z M 12.308594 16.160156 L 21.195312 16.160156 C 21.472656 16.160156 21.695312 15.933594 21.695312 15.660156 C 21.695312 15.382812 21.472656 15.160156 21.195312 15.160156 L 12.308594 15.160156 C 12.03125 15.160156 11.808594 15.382812 11.808594 15.660156 C 11.808594 15.933594 12.03125 16.160156 12.308594 16.160156 Z M 12.308594 16.160156 " fill-opacity="1" fill-rule="evenodd"/></g></svg>