<svg xmlns="http://www.w3.org/2000/svg" xmlns:xlink="http://www.w3.org/1999/xlink" width="45" zoomAndPan="magnify" viewBox="0 0 33.75 33.749998" height="45" preserveAspectRatio="xMidYMid meet" version="1.0"><defs><clipPath id="2acd7c5fd4"><path d="M 2.5 7 L 30.789062 7 L 30.789062 24 L 2.5 24 Z M 2.5 7 " clip-rule="nonzero"/></clipPath><clipPath id="3135373e37"><path d="M 16 2.1875 L 18 2.1875 L 18 6 L 16 6 Z M 16 2.1875 " clip-rule="nonzero"/></clipPath></defs><path fill="#c4942e" d="M 18.480469 29.738281 L 15.015625 29.738281 C 15.632812 31.304688 17.867188 31.304688 18.480469 29.738281 Z M 18.480469 29.738281 " fill-opacity="1" fill-rule="evenodd"/><path fill="#c4942e" d="M 20.4375 28.0625 L 13.058594 28.0625 C 12.445312 28.0625 12.445312 29.179688 13.058594 29.179688 L 20.4375 29.179688 C 21.050781 29.179688 21.050781 28.0625 20.4375 28.0625 Z M 20.4375 28.0625 " fill-opacity="1" fill-rule="evenodd"/><path fill="#c4942e" d="M 20.4375 26.441406 L 13.058594 26.441406 C 12.5 26.441406 12.390625 27.503906 13.058594 27.503906 L 20.4375 27.503906 C 21.105469 27.503906 20.996094 26.441406 20.4375 26.441406 Z M 20.4375 26.441406 " fill-opacity="1" fill-rule="evenodd"/><path fill="#c4942e" d="M 15.632812 20.015625 L 15.632812 25.828125 L 17.867188 25.828125 L 17.867188 20.015625 C 17.867188 19.90625 17.921875 19.792969 18.035156 19.792969 C 19.375 19.234375 20.214844 17.949219 20.214844 16.550781 C 20.214844 14.597656 18.648438 12.976562 16.75 12.976562 C 14.847656 12.976562 13.285156 14.597656 13.285156 16.550781 C 13.285156 17.949219 14.121094 19.234375 15.464844 19.792969 C 15.574219 19.792969 15.632812 19.90625 15.632812 20.015625 Z M 16.75 18.339844 C 15.742188 18.339844 14.90625 17.558594 14.90625 16.550781 C 14.90625 15.546875 15.742188 14.707031 16.75 14.707031 C 17.753906 14.707031 18.59375 15.546875 18.59375 16.550781 C 18.59375 17.558594 17.753906 18.339844 16.75 18.339844 Z M 16.75 18.339844 " fill-opacity="1" fill-rule="evenodd"/><path fill="#c4942e" d="M 13.285156 23.535156 C 13.394531 23.816406 13.507812 25.269531 13.507812 25.828125 L 15.070312 25.828125 L 15.070312 20.238281 C 13.621094 19.570312 12.667969 18.117188 12.667969 16.550781 C 12.667969 14.261719 14.511719 12.417969 16.75 12.417969 C 18.984375 12.417969 20.828125 14.261719 20.828125 16.550781 C 20.828125 18.117188 19.878906 19.570312 18.425781 20.238281 L 18.425781 25.828125 L 19.988281 25.828125 C 19.988281 25.324219 20.101562 23.816406 20.214844 23.535156 C 20.546875 21.859375 21.21875 21.078125 21.832031 20.351562 C 22.503906 19.511719 23.121094 18.789062 23.121094 16.609375 C 23.121094 13.03125 20.269531 10.125 16.75 10.125 C 13.226562 10.125 10.378906 13.03125 10.378906 16.609375 C 10.378906 18.789062 10.992188 19.511719 11.664062 20.351562 C 12.277344 21.078125 12.949219 21.859375 13.285156 23.535156 Z M 13.285156 23.535156 " fill-opacity="1" fill-rule="evenodd"/><path fill="#c4942e" d="M 16.75 15.265625 C 16.023438 15.265625 15.464844 15.824219 15.464844 16.550781 C 15.464844 17.222656 16.078125 17.78125 16.75 17.78125 C 17.417969 17.78125 18.035156 17.222656 18.035156 16.550781 C 18.035156 15.824219 17.476562 15.265625 16.75 15.265625 Z M 16.75 15.265625 " fill-opacity="1" fill-rule="evenodd"/><g clip-path="url(#2acd7c5fd4)"><path fill="#c4942e" d="M 23.734375 16.609375 C 23.734375 20.6875 21.609375 20.238281 20.882812 23.3125 C 25.074219 22.25 28.761719 19.511719 31 15.714844 C 28.035156 10.683594 22.617188 7.609375 16.75 7.609375 C 10.882812 7.609375 5.460938 10.683594 2.5 15.714844 C 4.734375 19.511719 8.421875 22.25 12.613281 23.3125 C 11.886719 20.238281 9.761719 20.6875 9.761719 16.609375 C 9.761719 10.292969 17.363281 7.21875 21.722656 11.632812 C 23.007812 12.976562 23.734375 14.707031 23.734375 16.609375 Z M 23.734375 16.609375 " fill-opacity="1" fill-rule="evenodd"/></g><path fill="#c4942e" d="M 22.058594 24.488281 L 23.285156 26.5 C 23.34375 26.609375 23.453125 26.667969 23.566406 26.667969 C 23.789062 26.667969 23.902344 26.441406 23.789062 26.21875 L 22.558594 24.207031 C 22.394531 23.871094 21.890625 24.152344 22.058594 24.488281 Z M 22.058594 24.488281 " fill-opacity="1" fill-rule="evenodd"/><path fill="#c4942e" d="M 27.644531 21.636719 L 29.433594 23.3125 C 29.488281 23.371094 29.601562 23.425781 29.65625 23.425781 C 29.9375 23.425781 30.046875 23.089844 29.882812 22.921875 L 28.035156 21.246094 C 27.757812 20.964844 27.367188 21.414062 27.644531 21.636719 Z M 27.644531 21.636719 " fill-opacity="1" fill-rule="evenodd"/><path fill="#c4942e" d="M 29.433594 7.386719 L 27.644531 9.0625 C 27.476562 9.230469 27.589844 9.566406 27.867188 9.566406 C 27.925781 9.566406 27.980469 9.566406 28.035156 9.511719 L 29.882812 7.777344 C 30.160156 7.554688 29.714844 7.109375 29.433594 7.386719 Z M 29.433594 7.386719 " fill-opacity="1" fill-rule="evenodd"/><path fill="#c4942e" d="M 23.285156 4.203125 L 22.058594 6.214844 C 21.945312 6.4375 22.113281 6.660156 22.335938 6.660156 C 22.449219 6.660156 22.503906 6.605469 22.558594 6.550781 L 23.789062 4.480469 C 24.011719 4.144531 23.511719 3.867188 23.285156 4.203125 Z M 23.285156 4.203125 " fill-opacity="1" fill-rule="evenodd"/><g clip-path="url(#3135373e37)"><path fill="#c4942e" d="M 16.46875 2.582031 L 16.46875 4.929688 C 16.46875 5.097656 16.582031 5.207031 16.75 5.207031 C 16.917969 5.207031 17.027344 5.097656 17.027344 4.929688 L 17.027344 2.582031 C 17.027344 2.191406 16.46875 2.191406 16.46875 2.582031 Z M 16.46875 2.582031 " fill-opacity="1" fill-rule="evenodd"/></g><path fill="#c4942e" d="M 9.652344 4.480469 L 10.9375 6.550781 C 10.992188 6.605469 11.046875 6.660156 11.160156 6.660156 C 11.382812 6.660156 11.550781 6.382812 11.441406 6.214844 L 10.15625 4.203125 C 9.929688 3.867188 9.429688 4.144531 9.652344 4.480469 Z M 9.652344 4.480469 " fill-opacity="1" fill-rule="evenodd"/><path fill="#c4942e" d="M 3.671875 7.835938 L 5.460938 9.566406 C 5.515625 9.621094 5.570312 9.621094 5.628906 9.621094 C 5.90625 9.621094 6.019531 9.289062 5.851562 9.121094 L 4.121094 7.441406 C 3.839844 7.164062 3.394531 7.609375 3.671875 7.835938 Z M 3.671875 7.835938 " fill-opacity="1" fill-rule="evenodd"/><path fill="#c4942e" d="M 5.460938 21.132812 L 3.671875 22.8125 C 3.503906 22.976562 3.617188 23.3125 3.894531 23.3125 C 3.953125 23.3125 4.0625 23.257812 4.121094 23.203125 L 5.851562 21.582031 C 6.132812 21.300781 5.738281 20.910156 5.460938 21.132812 Z M 5.460938 21.132812 " fill-opacity="1" fill-rule="evenodd"/><path fill="#c4942e" d="M 10.9375 24.207031 L 9.652344 26.21875 C 9.539062 26.386719 9.652344 26.667969 9.875 26.667969 C 9.988281 26.667969 10.097656 26.609375 10.15625 26.5 L 11.382812 24.488281 C 11.609375 24.152344 11.105469 23.871094 10.9375 24.207031 Z M 10.9375 24.207031 " fill-opacity="1" fill-rule="evenodd"/></svg>