<svg xmlns="http://www.w3.org/2000/svg" xmlns:xlink="http://www.w3.org/1999/xlink" width="45" zoomAndPan="magnify" viewBox="0 0 33.75 33.749998" height="45" preserveAspectRatio="xMidYMid meet" version="1.0"><defs><clipPath id="05b4770b42"><path d="M 2.453125 2.523438 L 30.742188 2.523438 L 30.742188 30.816406 L 2.453125 30.816406 Z M 2.453125 2.523438 " clip-rule="nonzero"/></clipPath></defs><g clip-path="url(#05b4770b42)"><path fill="#c4942e" d="M 5.183594 2.527344 C 3.6875 2.527344 2.460938 3.75 2.460938 5.246094 L 2.460938 28.246094 C 2.460938 29.742188 3.6875 30.964844 5.183594 30.964844 L 20.800781 30.964844 C 22.296875 30.964844 23.519531 29.742188 23.519531 28.246094 L 23.519531 21.121094 C 22.976562 21.804688 22.425781 22.484375 21.851562 23.148438 C 21.847656 23.15625 21.839844 23.164062 21.832031 23.167969 L 21.832031 28.246094 C 21.832031 28.824219 21.378906 29.277344 20.804688 29.277344 L 5.183594 29.277344 C 4.609375 29.277344 4.148438 28.820312 4.148438 28.246094 L 4.148438 20.839844 L 7.09375 20.839844 L 7.09375 23.621094 C 7.09375 23.785156 7.164062 23.929688 7.277344 24.035156 C 7.277344 24.050781 7.28125 24.058594 7.292969 24.066406 L 9.683594 25.757812 C 9.515625 26.414062 9.773438 27.105469 10.324219 27.496094 C 11.0625 28.015625 12.082031 27.84375 12.601562 27.105469 C 13.125 26.367188 12.949219 25.347656 12.210938 24.828125 C 11.65625 24.4375 10.921875 24.425781 10.359375 24.804688 L 8.261719 23.324219 L 8.261719 20.253906 C 8.261719 20.09375 8.195312 19.945312 8.089844 19.84375 C 8.054688 19.804688 8.011719 19.785156 7.976562 19.765625 C 7.960938 19.753906 7.9375 19.730469 7.902344 19.71875 C 7.832031 19.6875 7.757812 19.671875 7.675781 19.671875 L 4.148438 19.671875 L 4.148438 17.929688 L 11.066406 17.929688 C 11.308594 18.5625 11.914062 18.980469 12.59375 18.980469 C 13.496094 18.980469 14.226562 18.25 14.226562 17.347656 C 14.226562 16.441406 13.496094 15.710938 12.59375 15.710938 C 11.914062 15.710938 11.308594 16.128906 11.066406 16.761719 L 4.148438 16.761719 L 4.148438 14.984375 L 6.132812 14.984375 L 6.132812 14.980469 L 7.675781 14.980469 C 7.757812 14.980469 7.835938 14.96875 7.90625 14.9375 C 7.941406 14.921875 7.960938 14.898438 7.976562 14.886719 C 8.011719 14.867188 8.054688 14.84375 8.089844 14.808594 C 8.195312 14.703125 8.261719 14.5625 8.261719 14.398438 L 8.261719 11.332031 L 10.359375 9.847656 C 10.921875 10.222656 11.65625 10.214844 12.210938 9.824219 C 12.949219 9.304688 13.125 8.285156 12.601562 7.546875 C 12.082031 6.808594 11.0625 6.636719 10.324219 7.15625 C 9.773438 7.546875 9.515625 8.238281 9.683594 8.894531 L 7.292969 10.585938 C 7.28125 10.59375 7.277344 10.605469 7.277344 10.617188 C 7.167969 10.722656 7.09375 10.867188 7.09375 11.035156 L 7.09375 13.816406 L 4.148438 13.816406 L 4.148438 5.246094 C 4.148438 4.671875 4.609375 4.210938 5.183594 4.210938 L 12.910156 4.210938 C 13.699219 4.214844 14.359375 4.816406 14.441406 5.605469 C 14.46875 5.945312 14.480469 6.316406 14.46875 6.664062 C 14.460938 6.945312 14.4375 7.246094 14.425781 7.570312 C 14.421875 7.640625 14.421875 7.710938 14.421875 7.78125 C 14.421875 9.960938 16.21875 11.730469 18.398438 11.730469 C 18.789062 11.722656 19.15625 11.695312 19.488281 11.683594 C 19.808594 11.675781 20.128906 11.679688 20.441406 11.703125 C 21.234375 11.785156 21.835938 12.453125 21.835938 13.25 C 21.835938 13.253906 21.835938 13.261719 21.835938 13.269531 C 21.835938 13.269531 21.835938 13.273438 21.835938 13.273438 L 21.835938 14.976562 C 21.921875 14.855469 22.003906 14.730469 22.089844 14.609375 C 22.5625 13.9375 23.042969 13.273438 23.523438 12.605469 L 23.523438 11.253906 C 23.523438 11.222656 23.519531 11.191406 23.519531 11.160156 C 23.519531 10.445312 23.226562 9.757812 22.703125 9.269531 L 17.394531 3.644531 C 16.871094 2.941406 16.039062 2.527344 15.164062 2.527344 C 15.109375 2.527344 15.050781 2.523438 14.996094 2.527344 Z M 28.484375 8.316406 C 27.894531 8.296875 27.3125 8.5625 26.941406 9.078125 L 26.195312 10.113281 L 25 11.777344 L 24.988281 11.792969 L 24.292969 12.761719 C 23.75 13.515625 23.207031 14.265625 22.671875 15.027344 C 21.324219 16.9375 20.003906 18.871094 18.8125 20.882812 L 21.308594 22.679688 C 22.835938 20.910156 24.25 19.042969 25.632812 17.15625 C 26.183594 16.40625 26.722656 15.652344 27.261719 14.898438 L 27.265625 14.898438 L 27.960938 13.929688 L 27.972656 13.914062 L 28.722656 12.871094 L 28.929688 12.582031 L 29.023438 12.453125 L 29.09375 12.503906 C 29.695312 12.933594 29.820312 13.714844 29.390625 14.316406 L 28.90625 14.988281 L 28.902344 14.992188 L 28.492188 15.566406 L 27.855469 16.449219 C 27.679688 16.691406 27.738281 17.027344 27.980469 17.203125 C 28.222656 17.378906 28.5625 17.324219 28.738281 17.082031 L 29.371094 16.199219 L 30.269531 14.949219 C 31.039062 13.878906 30.796875 12.394531 29.726562 11.625 L 29.65625 11.574219 L 29.914062 11.214844 C 30.503906 10.390625 30.320312 9.253906 29.496094 8.660156 C 29.1875 8.4375 28.835938 8.328125 28.484375 8.316406 Z M 18.449219 21.507812 C 18.339844 21.695312 18.230469 21.882812 18.125 22.074219 C 17.429688 23.324219 16.792969 24.605469 16.199219 25.90625 C 16.121094 26.074219 16.050781 26.242188 15.976562 26.410156 C 15.832031 26.683594 15.910156 27.019531 16.164062 27.203125 C 16.417969 27.382812 16.765625 27.347656 16.976562 27.117188 C 17.109375 26.996094 17.246094 26.878906 17.375 26.753906 C 18.421875 25.777344 19.433594 24.765625 20.398438 23.707031 C 20.546875 23.546875 20.6875 23.382812 20.832031 23.222656 Z M 18.449219 21.507812 " fill-opacity="1" fill-rule="nonzero"/></g></svg>