<svg xmlns="http://www.w3.org/2000/svg" xmlns:xlink="http://www.w3.org/1999/xlink" width="45" zoomAndPan="magnify" viewBox="0 0 33.75 33.749998" height="45" preserveAspectRatio="xMidYMid meet" version="1.0"><defs><clipPath id="6096d4f7b3"><path d="M 22 16 L 29.496094 16 L 29.496094 21 L 22 21 Z M 22 16 " clip-rule="nonzero"/></clipPath><clipPath id="e2308d22a7"><path d="M 9 4.183594 L 25 4.183594 L 25 20 L 9 20 Z M 9 4.183594 " clip-rule="nonzero"/></clipPath><clipPath id="6572093e21"><path d="M 4.183594 10 L 13 10 L 13 17 L 4.183594 17 Z M 4.183594 10 " clip-rule="nonzero"/></clipPath><clipPath id="f2925073cf"><path d="M 12 25 L 22 25 L 22 29.496094 L 12 29.496094 Z M 12 25 " clip-rule="nonzero"/></clipPath><clipPath id="a4bf88fa45"><path d="M 4.183594 16 L 12 16 L 12 22 L 4.183594 22 Z M 4.183594 16 " clip-rule="nonzero"/></clipPath></defs><path fill="#c4942e" d="M 26.882812 12.839844 L 25.636719 12.839844 C 25.347656 12.839844 25.085938 13.027344 25.003906 13.289062 L 24.902344 13.617188 C 24.796875 13.953125 25.054688 14.148438 25.421875 14.238281 C 25.988281 14.382812 26.542969 14.382812 27.097656 14.238281 C 27.460938 14.148438 27.722656 13.953125 27.617188 13.617188 L 27.515625 13.289062 C 27.429688 13.027344 27.171875 12.839844 26.882812 12.839844 Z M 26.332031 11.039062 C 26.011719 11.027344 25.730469 11.246094 25.65625 11.558594 C 25.570312 11.921875 25.792969 12.285156 26.152344 12.375 C 26.511719 12.460938 26.871094 12.234375 26.957031 11.871094 C 27.042969 11.507812 26.820312 11.144531 26.460938 11.058594 C 26.421875 11.046875 26.375 11.039062 26.332031 11.039062 Z M 26.257812 9.949219 C 27.714844 9.949219 28.894531 11.128906 28.894531 12.585938 C 28.894531 13.285156 28.617188 13.953125 28.121094 14.449219 C 27.628906 14.941406 26.957031 15.21875 26.257812 15.21875 C 25.445312 15.21875 24.675781 14.839844 24.175781 14.195312 L 21.738281 15.835938 C 21.335938 16.109375 20.929688 15.503906 21.332031 15.234375 L 23.8125 13.5625 C 23.6875 13.25 23.625 12.917969 23.625 12.585938 C 23.625 11.128906 24.804688 9.949219 26.257812 9.949219 Z M 26.257812 9.949219 " fill-opacity="1" fill-rule="evenodd"/><g clip-path="url(#6096d4f7b3)"><path fill="#c4942e" d="M 27.613281 19.03125 L 26.609375 19.03125 C 26.375 19.03125 26.164062 19.183594 26.097656 19.394531 L 26.015625 19.664062 C 25.929688 19.929688 26.140625 20.089844 26.4375 20.164062 C 26.894531 20.277344 27.339844 20.277344 27.785156 20.164062 C 28.078125 20.085938 28.289062 19.933594 28.207031 19.664062 L 28.121094 19.394531 C 28.054688 19.183594 27.847656 19.03125 27.613281 19.03125 Z M 27.167969 17.582031 C 26.910156 17.574219 26.683594 17.75 26.625 18 C 26.554688 18.292969 26.734375 18.589844 27.023438 18.660156 C 27.3125 18.726562 27.605469 18.546875 27.671875 18.253906 C 27.742188 17.960938 27.5625 17.667969 27.273438 17.597656 C 27.238281 17.589844 27.203125 17.582031 27.167969 17.582031 Z M 27.109375 16.703125 C 28.285156 16.703125 29.234375 17.65625 29.234375 18.828125 C 29.234375 20.003906 28.285156 20.953125 27.109375 20.953125 C 26.078125 20.953125 25.195312 20.210938 25.019531 19.195312 L 22.78125 19.195312 C 22.285156 19.199219 22.285156 18.457031 22.78125 18.464844 L 25.019531 18.464844 C 25.195312 17.449219 26.078125 16.703125 27.109375 16.703125 Z M 27.109375 16.703125 " fill-opacity="1" fill-rule="evenodd"/></g><g clip-path="url(#e2308d22a7)"><path fill="#c4942e" d="M 11.5 7.640625 L 12.894531 7.640625 C 13.21875 7.640625 13.507812 7.847656 13.601562 8.140625 L 13.71875 8.511719 C 13.835938 8.886719 13.542969 9.101562 13.132812 9.207031 C 12.5 9.367188 11.882812 9.367188 11.261719 9.207031 C 10.851562 9.101562 10.558594 8.886719 10.679688 8.511719 L 10.792969 8.140625 C 10.886719 7.847656 11.175781 7.640625 11.5 7.640625 Z M 20.613281 7.398438 L 22.007812 7.398438 C 22.332031 7.398438 22.621094 7.605469 22.714844 7.902344 L 22.832031 8.269531 C 22.945312 8.644531 22.65625 8.863281 22.246094 8.964844 C 21.613281 9.125 20.992188 9.125 20.375 8.964844 C 19.964844 8.859375 19.671875 8.644531 19.789062 8.269531 L 19.90625 7.902344 C 20 7.605469 20.289062 7.398438 20.613281 7.398438 Z M 12.117188 5.625 C 12.472656 5.613281 12.785156 5.859375 12.871094 6.207031 C 12.964844 6.613281 12.71875 7.023438 12.316406 7.121094 C 11.917969 7.214844 11.511719 6.964844 11.417969 6.558594 C 11.320312 6.152344 11.570312 5.742188 11.96875 5.648438 C 12.019531 5.636719 12.066406 5.628906 12.117188 5.625 Z M 21.230469 5.386719 C 21.585938 5.375 21.898438 5.617188 21.984375 5.964844 C 22.078125 6.371094 21.832031 6.78125 21.429688 6.875 C 21.027344 6.972656 20.625 6.722656 20.527344 6.316406 C 20.429688 5.910156 20.679688 5.503906 21.082031 5.40625 C 21.128906 5.394531 21.179688 5.386719 21.230469 5.386719 Z M 21.308594 4.167969 C 19.683594 4.167969 18.363281 5.488281 18.363281 7.113281 C 18.363281 8.097656 18.855469 9.019531 19.675781 9.566406 L 17.859375 10.878906 C 17.765625 10.945312 17.707031 11.058594 17.707031 11.171875 L 17.707031 15.984375 C 17.398438 15.957031 17.082031 15.941406 16.753906 15.941406 C 16.425781 15.941406 16.105469 15.957031 15.796875 15.984375 L 15.796875 11.414062 C 15.796875 11.296875 15.742188 11.1875 15.648438 11.121094 L 13.832031 9.804688 C 14.652344 9.261719 15.144531 8.339844 15.144531 7.355469 C 15.144531 5.726562 13.824219 4.410156 12.195312 4.410156 C 10.570312 4.410156 9.25 5.726562 9.25 7.355469 C 9.25 8.980469 10.570312 10.300781 12.195312 10.300781 C 12.5 10.300781 12.796875 10.253906 13.085938 10.164062 L 15.070312 11.601562 L 15.070312 16.074219 C 14.421875 16.179688 13.835938 16.339844 13.371094 16.542969 C 12.949219 16.722656 12.617188 16.929688 12.414062 17.148438 C 12.03125 17.558594 12.085938 18.011719 12.414062 18.351562 C 12.621094 18.566406 12.949219 18.78125 13.371094 18.960938 C 14.210938 19.324219 15.414062 19.558594 16.753906 19.558594 C 18.089844 19.558594 19.296875 19.324219 20.136719 18.960938 C 20.558594 18.78125 20.894531 18.570312 21.09375 18.351562 C 21.472656 17.941406 21.421875 17.484375 21.09375 17.148438 C 20.886719 16.933594 20.558594 16.722656 20.136719 16.542969 C 19.667969 16.339844 19.085938 16.179688 18.433594 16.074219 L 18.433594 11.359375 L 20.421875 9.921875 C 20.710938 10.011719 21.007812 10.058594 21.308594 10.0625 C 22.9375 10.0625 24.253906 8.742188 24.253906 7.113281 C 24.257812 5.488281 22.9375 4.167969 21.308594 4.167969 Z M 21.308594 4.167969 " fill-opacity="1" fill-rule="evenodd"/></g><g clip-path="url(#6572093e21)"><path fill="#c4942e" d="M 6.625 13.082031 L 7.871094 13.082031 C 8.160156 13.082031 8.421875 13.265625 8.503906 13.53125 L 8.605469 13.859375 C 8.710938 14.195312 8.449219 14.390625 8.082031 14.480469 C 7.515625 14.625 6.964844 14.625 6.410156 14.480469 C 6.042969 14.386719 5.785156 14.195312 5.890625 13.859375 L 5.992188 13.53125 C 6.074219 13.265625 6.335938 13.082031 6.625 13.082031 Z M 7.175781 11.28125 C 7.492188 11.269531 7.777344 11.488281 7.851562 11.800781 C 7.933594 12.164062 7.714844 12.527344 7.355469 12.613281 C 6.996094 12.703125 6.632812 12.476562 6.550781 12.113281 C 6.464844 11.75 6.683594 11.386719 7.042969 11.300781 C 7.085938 11.289062 7.128906 11.28125 7.175781 11.28125 Z M 7.246094 10.191406 C 5.792969 10.191406 4.613281 11.371094 4.613281 12.824219 C 4.613281 13.527344 4.890625 14.195312 5.382812 14.6875 C 5.878906 15.183594 6.550781 15.460938 7.246094 15.460938 C 8.0625 15.460938 8.832031 15.082031 9.328125 14.4375 L 11.765625 16.078125 C 12.171875 16.351562 12.578125 15.746094 12.175781 15.476562 L 9.695312 13.800781 C 9.816406 13.492188 9.882812 13.160156 9.882812 12.824219 C 9.882812 11.371094 8.703125 10.191406 7.246094 10.191406 Z M 7.246094 10.191406 " fill-opacity="1" fill-rule="evenodd"/></g><path fill="#c4942e" d="M 16.753906 21.304688 C 16.980469 21.304688 17.164062 21.488281 17.164062 21.714844 C 17.164062 21.941406 16.980469 22.121094 16.753906 22.121094 C 16.527344 22.121094 16.34375 21.941406 16.34375 21.714844 C 16.347656 21.488281 16.527344 21.304688 16.753906 21.304688 Z M 18.246094 21.085938 C 18.472656 21.085938 18.65625 21.269531 18.65625 21.496094 C 18.65625 21.722656 18.472656 21.902344 18.246094 21.902344 C 18.023438 21.902344 17.839844 21.722656 17.839844 21.496094 C 17.839844 21.269531 18.023438 21.085938 18.246094 21.085938 Z M 15.257812 21.085938 C 15.488281 21.085938 15.667969 21.269531 15.667969 21.496094 C 15.667969 21.722656 15.488281 21.902344 15.257812 21.902344 C 15.035156 21.902344 14.851562 21.722656 14.851562 21.496094 C 14.851562 21.269531 15.035156 21.085938 15.257812 21.085938 Z M 12.121094 18.988281 L 12.121094 20.910156 C 12.121094 21.101562 12.207031 21.296875 12.414062 21.511719 C 12.621094 21.726562 12.949219 21.9375 13.371094 22.117188 C 14.210938 22.480469 15.417969 22.71875 16.753906 22.71875 C 18.09375 22.71875 19.296875 22.480469 20.136719 22.117188 C 20.558594 21.9375 20.886719 21.726562 21.09375 21.511719 C 21.304688 21.296875 21.386719 21.101562 21.386719 20.910156 L 21.386719 18.988281 C 21.117188 19.214844 20.789062 19.410156 20.402344 19.578125 C 19.449219 19.988281 18.167969 20.230469 16.753906 20.230469 C 15.339844 20.230469 14.058594 19.988281 13.101562 19.578125 C 12.71875 19.410156 12.386719 19.214844 12.121094 18.988281 Z M 12.121094 18.988281 " fill-opacity="1" fill-rule="evenodd"/><path fill="#c4942e" d="M 16.753906 24.59375 C 16.980469 24.59375 17.164062 24.777344 17.164062 25.003906 C 17.164062 25.226562 16.980469 25.410156 16.753906 25.410156 C 16.527344 25.410156 16.34375 25.226562 16.34375 25.003906 C 16.347656 24.777344 16.527344 24.59375 16.753906 24.59375 Z M 18.246094 24.375 C 18.472656 24.375 18.65625 24.558594 18.65625 24.785156 C 18.65625 25.007812 18.472656 25.191406 18.246094 25.191406 C 18.023438 25.191406 17.839844 25.007812 17.839844 24.785156 C 17.839844 24.558594 18.023438 24.375 18.246094 24.375 Z M 15.257812 24.375 C 15.488281 24.375 15.667969 24.558594 15.667969 24.785156 C 15.667969 25.007812 15.488281 25.191406 15.257812 25.191406 C 15.035156 25.191406 14.851562 25.007812 14.851562 24.785156 C 14.851562 24.558594 15.035156 24.375 15.257812 24.375 Z M 12.121094 22.277344 L 12.121094 24.195312 C 12.121094 24.390625 12.207031 24.589844 12.414062 24.800781 C 12.621094 25.011719 12.949219 25.222656 13.371094 25.40625 C 14.210938 25.769531 15.417969 26.007812 16.753906 26.007812 C 18.09375 26.007812 19.296875 25.769531 20.136719 25.40625 C 20.558594 25.226562 20.886719 25.011719 21.09375 24.800781 C 21.304688 24.585938 21.386719 24.390625 21.386719 24.195312 L 21.386719 22.277344 C 21.117188 22.503906 20.789062 22.699219 20.402344 22.863281 C 19.449219 23.277344 18.167969 23.515625 16.753906 23.515625 C 15.339844 23.515625 14.058594 23.277344 13.101562 22.863281 C 12.71875 22.699219 12.386719 22.503906 12.121094 22.277344 Z M 12.121094 22.277344 " fill-opacity="1" fill-rule="evenodd"/><g clip-path="url(#f2925073cf)"><path fill="#c4942e" d="M 16.753906 27.882812 C 16.980469 27.882812 17.164062 28.066406 17.164062 28.292969 C 17.164062 28.519531 16.980469 28.699219 16.753906 28.699219 C 16.527344 28.699219 16.34375 28.519531 16.34375 28.292969 C 16.347656 28.066406 16.527344 27.882812 16.753906 27.882812 Z M 18.246094 27.664062 C 18.472656 27.664062 18.65625 27.847656 18.65625 28.074219 C 18.65625 28.296875 18.472656 28.480469 18.246094 28.480469 C 18.023438 28.480469 17.839844 28.296875 17.839844 28.074219 C 17.839844 27.84375 18.023438 27.664062 18.246094 27.664062 Z M 15.257812 27.664062 C 15.488281 27.664062 15.667969 27.84375 15.667969 28.074219 C 15.667969 28.296875 15.488281 28.480469 15.257812 28.480469 C 15.035156 28.480469 14.851562 28.296875 14.851562 28.074219 C 14.851562 27.847656 15.035156 27.664062 15.257812 27.664062 Z M 12.121094 25.566406 L 12.121094 27.484375 C 12.121094 27.679688 12.207031 27.875 12.414062 28.085938 C 12.621094 28.300781 12.949219 28.515625 13.371094 28.695312 C 14.210938 29.058594 15.417969 29.292969 16.753906 29.292969 C 18.09375 29.292969 19.296875 29.058594 20.136719 28.695312 C 20.558594 28.515625 20.886719 28.300781 21.09375 28.085938 C 21.304688 27.875 21.386719 27.679688 21.386719 27.484375 L 21.386719 25.566406 C 21.117188 25.792969 20.789062 25.988281 20.402344 26.152344 C 19.449219 26.566406 18.167969 26.804688 16.753906 26.804688 C 15.339844 26.804688 14.058594 26.566406 13.101562 26.152344 C 12.71875 25.988281 12.386719 25.792969 12.121094 25.566406 Z M 12.121094 25.566406 " fill-opacity="1" fill-rule="evenodd"/></g><g clip-path="url(#a4bf88fa45)"><path fill="#c4942e" d="M 5.894531 19.273438 L 6.898438 19.273438 C 7.132812 19.273438 7.34375 19.425781 7.410156 19.636719 L 7.492188 19.902344 C 7.578125 20.175781 7.367188 20.328125 7.070312 20.40625 C 6.613281 20.519531 6.167969 20.519531 5.722656 20.40625 C 5.429688 20.328125 5.214844 20.175781 5.300781 19.902344 L 5.382812 19.636719 C 5.453125 19.425781 5.660156 19.273438 5.894531 19.273438 Z M 6.339844 17.824219 C 6.59375 17.8125 6.820312 17.988281 6.882812 18.242188 C 6.949219 18.535156 6.773438 18.828125 6.484375 18.898438 C 6.195312 18.96875 5.902344 18.789062 5.835938 18.496094 C 5.765625 18.203125 5.941406 17.910156 6.230469 17.839844 C 6.265625 17.832031 6.304688 17.824219 6.339844 17.824219 Z M 6.398438 16.945312 C 5.222656 16.945312 4.273438 17.898438 4.273438 19.070312 C 4.273438 20.242188 5.222656 21.195312 6.398438 21.195312 C 7.429688 21.195312 8.308594 20.453125 8.484375 19.433594 L 10.726562 19.433594 C 11.21875 19.441406 11.21875 18.699219 10.726562 18.703125 L 8.488281 18.703125 C 8.3125 17.6875 7.429688 16.945312 6.398438 16.945312 Z M 6.398438 16.945312 " fill-opacity="1" fill-rule="evenodd"/></g></svg>