<svg xmlns="http://www.w3.org/2000/svg" xmlns:xlink="http://www.w3.org/1999/xlink" width="45" zoomAndPan="magnify" viewBox="0 0 33.75 33.749998" height="45" preserveAspectRatio="xMidYMid meet" version="1.0"><defs><clipPath id="fcc355906c"><path d="M 3.351562 1.324219 L 30.152344 1.324219 L 30.152344 31.847656 L 3.351562 31.847656 Z M 3.351562 1.324219 " clip-rule="nonzero"/></clipPath></defs><g clip-path="url(#fcc355906c)"><path fill="#c4942e" d="M 26.347656 16.929688 C 24.84375 22.035156 21.878906 26.089844 17.539062 28.972656 C 16.90625 29.394531 16.480469 29.417969 15.855469 29.070312 C 10.167969 25.914062 6.957031 20.90625 6.046875 13.765625 C 5.832031 12.0625 5.757812 10.3125 5.832031 8.421875 C 5.839844 8.203125 6.003906 8.023438 6.21875 7.996094 C 8.292969 7.710938 10.496094 7.359375 12.59375 6.441406 C 13.898438 5.871094 15.148438 5.171875 16.3125 4.363281 C 16.535156 4.210938 16.664062 4.136719 16.777344 4.136719 C 16.855469 4.136719 16.925781 4.171875 17.011719 4.238281 C 18.503906 5.371094 20.15625 6.261719 21.929688 6.890625 C 23.582031 7.476562 25.398438 7.855469 27.324219 8.011719 L 27.328125 8.011719 C 27.457031 8.023438 27.554688 8.132812 27.558594 8.265625 C 27.601562 11.15625 27.191406 14.070312 26.347656 16.929688 Z M 29.992188 8.113281 C 29.980469 7.625 29.949219 7.109375 29.71875 6.652344 C 29.449219 6.125 28.992188 5.761719 28.3125 5.550781 C 27.765625 5.378906 27.160156 5.332031 26.621094 5.289062 L 26.613281 5.289062 C 24.023438 5.082031 21.5 4.179688 19.316406 2.683594 C 19.25 2.636719 19.179688 2.589844 19.109375 2.542969 C 18.441406 2.078125 17.75 1.597656 16.910156 1.558594 C 15.960938 1.511719 15.128906 2.054688 14.390625 2.53125 C 14.332031 2.570312 14.269531 2.609375 14.210938 2.648438 C 12.511719 3.742188 10.65625 4.53125 8.699219 4.996094 C 7.835938 5.199219 6.914062 5.335938 5.789062 5.429688 C 4.726562 5.511719 3.984375 5.996094 3.632812 6.820312 C 3.390625 7.394531 3.359375 8.011719 3.34375 8.648438 C 3.335938 9.132812 3.332031 9.621094 3.335938 10.09375 C 3.402344 15.558594 4.550781 20.171875 6.746094 23.808594 C 7.613281 25.246094 8.691406 26.601562 9.953125 27.84375 C 11.136719 29 12.480469 30.0625 13.949219 30.992188 C 14.765625 31.511719 15.652344 31.984375 16.609375 31.984375 C 16.664062 31.984375 16.71875 31.984375 16.777344 31.980469 C 17.621094 31.933594 18.371094 31.511719 19.058594 31.0625 C 20.835938 29.90625 22.464844 28.453125 23.898438 26.742188 C 25.300781 25.070312 26.488281 23.191406 27.425781 21.160156 C 29.234375 17.234375 30.125 12.722656 29.992188 8.113281 " fill-opacity="1" fill-rule="nonzero"/></g><path fill="#c4942e" d="M 20.859375 21.085938 C 20.859375 21.621094 20.425781 22.050781 19.894531 22.050781 L 12.675781 22.050781 C 12.144531 22.050781 11.710938 21.621094 11.710938 21.085938 L 11.710938 16.171875 C 11.710938 15.640625 12.144531 15.207031 12.675781 15.207031 L 19.894531 15.207031 C 20.425781 15.207031 20.859375 15.640625 20.859375 16.171875 Z M 20.679688 14.507812 L 11.890625 14.507812 C 11.355469 14.507812 10.925781 14.941406 10.925781 15.472656 L 10.925781 21.785156 C 10.925781 22.320312 11.355469 22.75 11.890625 22.75 L 20.679688 22.75 C 21.214844 22.75 21.644531 22.320312 21.644531 21.785156 L 21.644531 15.472656 C 21.644531 14.941406 21.214844 14.507812 20.679688 14.507812 " fill-opacity="1" fill-rule="nonzero"/><path fill="#c4942e" d="M 16.800781 18.855469 L 16.800781 19.796875 C 16.800781 20.042969 16.601562 20.242188 16.355469 20.242188 L 16.214844 20.242188 C 15.96875 20.242188 15.765625 20.042969 15.765625 19.796875 L 15.765625 18.855469 C 15.480469 18.679688 15.292969 18.367188 15.292969 18.007812 C 15.292969 17.460938 15.738281 17.015625 16.285156 17.015625 C 16.835938 17.015625 17.277344 17.460938 17.277344 18.007812 C 17.277344 18.367188 17.089844 18.679688 16.800781 18.855469 Z M 19.238281 15.835938 L 13.328125 15.835938 C 12.8125 15.835938 12.394531 16.253906 12.394531 16.769531 L 12.394531 20.492188 C 12.394531 21.007812 12.8125 21.425781 13.328125 21.425781 L 19.238281 21.425781 C 19.753906 21.425781 20.171875 21.007812 20.171875 20.492188 L 20.171875 16.769531 C 20.171875 16.253906 19.753906 15.835938 19.238281 15.835938 " fill-opacity="1" fill-rule="nonzero"/><path fill="#c4942e" d="M 13.949219 13.726562 C 13.949219 13.65625 13.949219 13.589844 13.949219 13.523438 C 13.960938 12.980469 13.925781 11.609375 13.996094 11.074219 C 14.132812 9.992188 15.15625 9.039062 16.472656 9.140625 C 17.644531 9.230469 18.558594 10.179688 18.613281 11.328125 C 18.636719 11.824219 18.621094 13.144531 18.621094 13.640625 C 18.621094 13.671875 18.621094 13.699219 18.621094 13.726562 L 20.207031 13.726562 C 20.207031 13.386719 20.210938 12.214844 20.207031 11.867188 C 20.199219 11.523438 20.210938 11.171875 20.15625 10.832031 C 19.785156 8.59375 17.613281 7.140625 15.40625 7.644531 C 13.699219 8.03125 12.433594 9.542969 12.371094 11.292969 C 12.351562 11.828125 12.367188 13.191406 12.367188 13.726562 L 13.949219 13.726562 " fill-opacity="1" fill-rule="nonzero"/></svg>