<svg xmlns="http://www.w3.org/2000/svg" xmlns:xlink="http://www.w3.org/1999/xlink" width="45" zoomAndPan="magnify" viewBox="0 0 33.75 33.749998" height="45" preserveAspectRatio="xMidYMid meet" version="1.0"><defs><clipPath id="a5c202da1f"><path d="M 1.585938 4 L 32 4 L 32 29.40625 L 1.585938 29.40625 Z M 1.585938 4 " clip-rule="nonzero"/></clipPath></defs><g clip-path="url(#a5c202da1f)"><path fill="#c4942e" d="M 9.539062 14.335938 C 12.832031 14.335938 15.722656 16.414062 17.363281 19.539062 C 17.496094 19.792969 17.496094 20.097656 17.363281 20.351562 C 15.722656 23.480469 12.832031 25.554688 9.539062 25.554688 C 6.246094 25.554688 3.355469 23.480469 1.714844 20.351562 C 1.582031 20.097656 1.582031 19.792969 1.714844 19.539062 C 3.355469 16.414062 6.246094 14.335938 9.539062 14.335938 Z M 11.089844 10.558594 C 12.132812 7.230469 16.40625 6.160156 18.894531 8.609375 C 18.992188 8.707031 19.039062 8.828125 19.03125 8.964844 C 19.027344 9.105469 18.96875 9.21875 18.863281 9.308594 L 18.683594 9.453125 C 18.496094 9.605469 18.230469 9.597656 18.058594 9.429688 C 16.191406 7.621094 13.007812 8.417969 12.210938 10.890625 C 12.140625 11.117188 11.90625 11.253906 11.671875 11.207031 L 11.445312 11.160156 C 11.3125 11.136719 11.203125 11.058594 11.132812 10.941406 C 11.0625 10.820312 11.046875 10.691406 11.089844 10.558594 Z M 9.539062 16.3125 C 11.546875 16.3125 13.175781 17.9375 13.175781 19.945312 C 13.175781 21.953125 11.546875 23.582031 9.539062 23.582031 C 7.53125 23.582031 5.90625 21.953125 5.90625 19.945312 C 5.90625 17.9375 7.53125 16.3125 9.539062 16.3125 Z M 9.539062 18.199219 C 10.503906 18.199219 11.289062 18.980469 11.289062 19.945312 C 11.289062 20.910156 10.503906 21.691406 9.539062 21.691406 C 8.574219 21.691406 7.792969 20.910156 7.792969 19.945312 C 7.792969 19.753906 7.824219 19.566406 7.882812 19.394531 C 8.015625 19.570312 8.230469 19.6875 8.472656 19.6875 C 8.878906 19.6875 9.210938 19.355469 9.210938 18.949219 C 9.210938 18.6875 9.078125 18.460938 8.878906 18.328125 C 9.082031 18.246094 9.304688 18.199219 9.539062 18.199219 Z M 21.230469 20.175781 C 20.230469 20.933594 19.101562 21.445312 17.933594 21.71875 C 18.097656 21.453125 18.257812 21.175781 18.402344 20.898438 C 18.632812 20.460938 18.691406 19.964844 18.589844 19.496094 C 19.347656 19.175781 20.066406 18.71875 20.695312 18.113281 C 23.457031 15.472656 23.550781 11.078125 20.910156 8.316406 C 18.269531 5.566406 13.875 5.464844 11.113281 8.105469 C 9.679688 9.480469 8.964844 11.332031 8.984375 13.179688 C 8.324219 13.21875 7.6875 13.332031 7.074219 13.507812 C 6.964844 11.046875 7.875 8.554688 9.789062 6.71875 C 13.308594 3.347656 18.921875 3.472656 22.292969 6.992188 C 25.425781 10.261719 25.546875 15.332031 22.734375 18.738281 L 23.960938 20.019531 C 24.753906 19.804688 25.628906 20.011719 26.242188 20.636719 L 31.027344 25.625 C 31.902344 26.542969 31.875 27.988281 30.957031 28.863281 C 30.039062 29.738281 28.59375 29.710938 27.71875 28.792969 L 22.921875 23.8125 C 22.324219 23.171875 22.128906 22.253906 22.433594 21.425781 Z M 9.539062 17.476562 C 10.90625 17.476562 12.011719 18.582031 12.011719 19.945312 C 12.011719 21.308594 10.90625 22.417969 9.539062 22.417969 C 8.175781 22.417969 7.070312 21.308594 7.070312 19.945312 C 7.070312 18.582031 8.175781 17.476562 9.539062 17.476562 Z M 9.539062 15.828125 C 12.425781 15.828125 14.96875 17.269531 16.464844 19.464844 C 16.65625 19.746094 16.65625 20.144531 16.464844 20.425781 C 14.96875 22.621094 12.425781 24.066406 9.539062 24.066406 C 6.65625 24.066406 4.113281 22.621094 2.617188 20.425781 C 2.421875 20.144531 2.421875 19.746094 2.617188 19.464844 C 4.113281 17.269531 6.65625 15.828125 9.539062 15.828125 Z M 9.539062 15.828125 " fill-opacity="1" fill-rule="evenodd"/></g></svg>