<?xml version="1.0" encoding="UTF-8"?>
<svg version="1.1" xmlns="http://www.w3.org/2000/svg" width="140" height="140">
<path d="M0 0 C46.2 0 92.4 0 140 0 C140 46.2 140 92.4 140 140 C93.8 140 47.6 140 0 140 C0 93.8 0 47.6 0 0 Z " fill="#030029" transform="translate(0,0)"/>
<path d="M0 0 C0.66 0 1.32 0 2 0 C6.82888919 9.61151219 11.65349935 19.22515862 16.47260284 28.84158134 C18.71025068 33.30642362 20.94938614 37.7705069 23.19189453 42.23291016 C25.35450459 46.53645747 27.51324175 50.8419266 29.66926575 55.14877701 C30.49401661 56.79457297 31.32017925 58.43966221 32.14775085 60.0840416 C33.30337714 62.38085339 34.45403473 64.68008843 35.60351562 66.97998047 C35.94949295 67.66474457 36.29547028 68.34950867 36.65193176 69.05502319 C39 73.77189568 39 73.77189568 39 76 C31.61960876 75.3431543 24.69393361 73.45888248 17.5625 71.5 C16.36689453 71.17902344 15.17128906 70.85804687 13.93945312 70.52734375 C5.13469092 68.13469092 5.13469092 68.13469092 4 67 C3.92728259 64.64686445 3.91629132 62.29166332 3.9375 59.9375 C3.94652344 58.64714844 3.95554688 57.35679688 3.96484375 56.02734375 C3.97644531 55.02832031 3.98804688 54.02929688 4 53 C6.31 53 8.62 53 11 53 C10.72736328 52.37955811 10.45472656 51.75911621 10.17382812 51.11987305 C8.94354969 48.31152592 7.72169183 45.49959245 6.5 42.6875 C6.07074219 41.71103516 5.64148438 40.73457031 5.19921875 39.72851562 C4.79316406 38.79072266 4.38710937 37.85292969 3.96875 36.88671875 C3.40317383 35.59060669 3.40317383 35.59060669 2.82617188 34.26831055 C2 32 2 32 2 29 C1.34 29 0.68 29 0 29 C-0.13728516 30.21042969 -0.13728516 30.21042969 -0.27734375 31.4453125 C-1.17583146 35.86490071 -2.79359908 39.74172657 -4.5625 43.875 C-4.89185547 44.65875 -5.22121094 45.4425 -5.56054688 46.25 C-6.36796786 48.16908756 -7.18319769 50.0848865 -8 52 C-5.69 52 -3.38 52 -1 52 C-1 56.95 -1 61.9 -1 67 C-4.8540968 68.12523981 -8.70827483 69.25020007 -12.5625 70.375 C-13.64853516 70.69210938 -14.73457031 71.00921875 -15.85351562 71.3359375 C-17.96327525 71.95155125 -20.07337261 72.56600898 -22.18383789 73.17919922 C-23.86942554 73.67048189 -25.5539165 74.16558832 -27.23608398 74.66845703 C-30.61123195 75.66827087 -33.46586212 76.21419017 -37 76 C-33.73504237 68.38176554 -30.04426772 61.00589612 -26.31274414 53.60961914 C-24.623013 50.25058321 -22.942373 46.88702054 -21.26171875 43.5234375 C-18.78295211 38.56262644 -16.3004989 33.60370724 -13.81124878 28.64814758 C-12.41152973 25.8612939 -11.01343822 23.07362522 -9.61547852 20.28588867 C-8.90164179 18.86334597 -8.18710114 17.44115631 -7.47192383 16.01928711 C-6.41821866 13.92394482 -5.36706286 11.82734096 -4.31640625 9.73046875 C-3.9966835 9.09618454 -3.67696075 8.46190033 -3.34754944 7.80839539 C-2.05584883 5.22532552 -0.91499666 2.74498998 0 0 Z " fill="#D3B164" transform="translate(69,31)"/>
<path d="M0 0 C1.74229724 13.72059076 0.37848782 23.25872788 -5 36 C-2.69 36 -0.38 36 2 36 C2 40.95 2 45.9 2 51 C-1.8540968 52.12523981 -5.70827483 53.25020007 -9.5625 54.375 C-10.64853516 54.69210938 -11.73457031 55.00921875 -12.85351562 55.3359375 C-14.96327525 55.95155125 -17.07337261 56.56600898 -19.18383789 57.17919922 C-20.86942554 57.67048189 -22.5539165 58.16558832 -24.23608398 58.66845703 C-27.61123195 59.66827087 -30.46586212 60.21419017 -34 60 C-30.66599935 52.22066516 -26.88791241 44.69219643 -23.07763672 37.13916016 C-21.65813917 34.32138999 -20.24718469 31.49939842 -18.83789062 28.67651367 C-18.16002392 27.32029608 -17.48036619 25.96497205 -16.79882812 24.6105957 C-15.3372897 21.70313669 -13.90347414 18.7931223 -12.52734375 15.84375 C-11.89505859 14.49796875 -11.89505859 14.49796875 -11.25 13.125 C-10.90453125 12.36445312 -10.5590625 11.60390625 -10.203125 10.8203125 C-8.74574688 8.61531833 -7.34030409 8.13225238 -5 7 C-4.27306096 5.02111039 -3.60183749 3.02045442 -3 1 C-1 0 -1 0 0 0 Z " fill="#DBB156" transform="translate(66,47)"/>
<path d="M0 0 C3.74311427 1.24770476 4.21723295 2.84732113 5.93180847 6.24583435 C6.28817886 6.97810745 6.64454926 7.71038055 7.01171875 8.46484375 C7.57135063 9.5876046 7.57135063 9.5876046 8.14228821 10.73304749 C8.92939876 12.31701631 9.71168164 13.90339187 10.48950195 15.49194336 C11.6834103 17.9291514 12.89207809 20.35857453 14.10351562 22.78710938 C14.86546116 24.32508625 15.62655787 25.86348401 16.38671875 27.40234375 C16.74916183 28.13259262 17.11160492 28.86284149 17.48503113 29.61521912 C20 34.76675192 20 34.76675192 20 37 C13.58304617 36.394627 6.99255895 35.46442671 1 33 C-0.15927528 29.52217417 -0.11313066 26.81196743 -0.09765625 23.14453125 C-0.0962413 22.48289474 -0.09482635 21.82125824 -0.09336853 21.13957214 C-0.08777996 19.03050172 -0.07522965 16.92153823 -0.0625 14.8125 C-0.05748352 13.38086091 -0.05292087 11.94922015 -0.04882812 10.51757812 C-0.0378143 7.01168412 -0.02055755 3.5058525 0 0 Z " fill="#A3874B" transform="translate(88,70)"/>
<path d="M0 0 C0.66 0 1.32 0 2 0 C3.65 3.63 5.3 7.26 7 11 C6.34 11 5.68 11 5 11 C5.33 16.94 5.66 22.88 6 29 C6.33 29 6.66 29 7 29 C7 32.96 7 36.92 7 41 C3.92732833 36.90310444 2 34.13829491 2 29 C1.34 29 0.68 29 0 29 C-0.1546875 30.36125 -0.1546875 30.36125 -0.3125 31.75 C-1.00414949 35.01961575 -1.82134921 36.53717737 -4 39 C-3.83757812 38.31035156 -3.67515625 37.62070313 -3.5078125 36.91015625 C-2.94767599 33.70014319 -2.86745088 30.6949472 -2.875 27.4375 C-2.87242188 26.32246094 -2.86984375 25.20742188 -2.8671875 24.05859375 C-2.97793853 21.50806272 -3.2532138 19.42409171 -4 17 C-4.66 17 -5.32 17 -6 17 C-6.268125 18.134375 -6.53625 19.26875 -6.8125 20.4375 C-7.204375 21.613125 -7.59625 22.78875 -8 24 C-8.99 24.33 -9.98 24.66 -11 25 C-9.33913088 19.43335076 -6.88928264 14.34213647 -4.375 9.125 C-3.95476562 8.24585938 -3.53453125 7.36671875 -3.1015625 6.4609375 C-2.0708308 4.30577122 -1.03690574 2.15220078 0 0 Z " fill="#FADC8C" transform="translate(69,31)"/>
<path d="M0 0 C0.66 0 1.32 0 2 0 C3.5056651 3.62267294 5.00356546 7.24850549 6.5 10.875 C7.14388672 12.42380859 7.14388672 12.42380859 7.80078125 14.00390625 C8.40986328 15.48310547 8.40986328 15.48310547 9.03125 16.9921875 C9.40830078 17.90339355 9.78535156 18.81459961 10.17382812 19.75341797 C11 22 11 22 11 24 C8.69 24 6.38 24 4 24 C4 28.62 4 33.24 4 38 C3.67 38 3.34 38 3 38 C3 33.38 3 28.76 3 24 C-0.63 23.67 -4.26 23.34 -8 23 C-5.77150394 15.14161917 -3.01037052 7.59136913 0 0 Z " fill="#110D29" transform="translate(69,60)"/>
<path d="M0 0 C3 1 3 1 4.75 3.6875 C6.19619297 7.51991137 5.72279768 9.04258456 5 13 C4.9222876 15.16291168 4.89203764 17.32790473 4.90234375 19.4921875 C4.90556641 20.69101563 4.90878906 21.88984375 4.91210938 23.125 C4.92048828 24.3625 4.92886719 25.6 4.9375 26.875 C4.94201172 28.13570312 4.94652344 29.39640625 4.95117188 30.6953125 C4.9629204 33.79692386 4.97934833 36.89843725 5 40 C2.69 39.67 0.38 39.34 -2 39 C-1.67 37.35 -1.34 35.7 -1 34 C-1.66 34 -2.32 34 -3 34 C-2.84080078 33.44820068 -2.68160156 32.89640137 -2.51757812 32.32788086 C-1.94713562 29.76223498 -1.80610869 27.3804753 -1.71875 24.75390625 C-1.68136719 23.75166016 -1.64398438 22.74941406 -1.60546875 21.71679688 C-1.57066406 20.67587891 -1.53585938 19.63496094 -1.5 18.5625 C-1.43081937 16.50117331 -1.35802672 14.43996399 -1.28125 12.37890625 C-1.25095703 11.4669751 -1.22066406 10.55504395 -1.18945312 9.61547852 C-1.00030265 7.00417824 -0.5393044 4.55869371 0 2 C0 1.34 0 0.68 0 0 Z " fill="#B89956" transform="translate(84,62)"/>
<path d="M0 0 C3 1 3 1 4.17675781 2.53686523 C7.83246402 9.96045322 7.25292354 16.96383437 6.75 25.0625 C6.68157477 26.41851942 6.61515299 27.77464149 6.55078125 29.13085938 C6.38680387 32.42211966 6.20271772 35.71093688 6 39 C6.66 39 7.32 39 8 39 C7.67 39.99 7.34 40.98 7 42 C0.94688619 35.08215564 0.56558624 27.75263283 1 19 C0.67 19 0.34 19 0 19 C0 12.73 0 6.46 0 0 Z " fill="#E3C16D" transform="translate(74,42)"/>
<path d="M0 0 C3 1 3 1 4.3503418 3.10131836 C4.79547119 4.00503174 5.24060059 4.90874512 5.69921875 5.83984375 C6.18583984 6.82017578 6.67246094 7.80050781 7.17382812 8.81054688 C7.67333984 9.84244141 8.17285156 10.87433594 8.6875 11.9375 C9.19861328 12.96552734 9.70972656 13.99355469 10.23632812 15.05273438 C14 22.70570135 14 22.70570135 14 25 C5.42857143 24.14285714 5.42857143 24.14285714 2 22 C2 20.68 2 19.36 2 18 C1.34 17.67 0.68 17.34 0 17 C0 11.39 0 5.78 0 0 Z " fill="#755F35" transform="translate(94,82)"/>
<path d="M0 0 C0.33 0 0.66 0 1 0 C1 11.55 1 23.1 1 35 C-0.32 34.67 -1.64 34.34 -3 34 C-2.67 32.68 -2.34 31.36 -2 30 C-2.66 30 -3.32 30 -4 30 C-3.84007568 29.44965088 -3.68015137 28.89930176 -3.51538086 28.33227539 C-2.94210167 25.73799015 -2.82271481 23.33932628 -2.75390625 20.68359375 C-2.72103516 19.67232422 -2.68816406 18.66105469 -2.65429688 17.61914062 C-2.59298949 15.49425269 -2.53571195 13.36924474 -2.48242188 11.24414062 C-2.44826172 10.23416016 -2.41410156 9.22417969 -2.37890625 8.18359375 C-2.3538501 7.26118896 -2.32879395 6.33878418 -2.30297852 5.38842773 C-2 3 -2 3 0 0 Z " fill="#C7A65C" transform="translate(85,66)"/>
<path d="M0 0 C0.99 0.33 1.98 0.66 3 1 C3.33 1.99 3.66 2.98 4 4 C3.34 4 2.68 4 2 4 C2.33 9.94 2.66 15.88 3 22 C3.33 22 3.66 22 4 22 C4 25.96 4 29.92 4 34 C-1.58305137 26.55593151 -1.15231409 20.57879318 -0.625 11.625 C-0.56828125 10.50738281 -0.5115625 9.38976562 -0.453125 8.23828125 C-0.31226356 5.49148312 -0.16091224 2.74568432 0 0 Z " fill="#F6D37B" transform="translate(72,38)"/>
<path d="M0 0 C3 1 3 1 4.75 3.3125 C6.57126713 8.68523804 5.66457666 13.4511852 5 19 C5 19.99 5 20.98 5 22 C4.01 21.67 3.02 21.34 2 21 C2 20.01 2 19.02 2 18 C1.34 17.67 0.68 17.34 0 17 C0 11.39 0 5.78 0 0 Z " fill="#89703C" transform="translate(94,82)"/>
<path d="M0 0 C0.66 0.33 1.32 0.66 2 1 C1.649375 1.680625 1.29875 2.36125 0.9375 3.0625 C-0.22620603 6.7087789 0.27154898 9.28489978 1 13 C1.99 13.33 2.98 13.66 4 14 C0.17482487 16.39073445 -3.59665524 16.55966552 -8 17 C-5.49470177 11.24314449 -2.84850231 5.59527239 0 0 Z " fill="#A37D2D" transform="translate(40,90)"/>
<path d="M0 0 C3.03938745 3.03938745 2.99394102 5.22531588 3.02734375 9.49609375 C2.96750586 12.12115578 2.90501096 14.74615861 2.83984375 17.37109375 C2.99085838 20.79286416 3.5050581 22.95735354 5 26 C3.68 26 2.36 26 1 26 C-0.30475618 23.39048764 -0.11301572 21.47298715 -0.09765625 18.5546875 C-0.09443359 17.47832031 -0.09121094 16.40195313 -0.08789062 15.29296875 C-0.07951172 14.16503906 -0.07113281 13.03710938 -0.0625 11.875 C-0.05798828 10.73933594 -0.05347656 9.60367188 -0.04882812 8.43359375 C-0.03701615 5.62234362 -0.02054507 2.8111977 0 0 Z " fill="#997E45" transform="translate(92,78)"/>
<path d="M0 0 C2.31 0 4.62 0 7 0 C6.01 0.33 5.02 0.66 4 1 C4 4.96 4 8.92 4 13 C4.66 13 5.32 13 6 13 C6 13.66 6 14.32 6 15 C4.33388095 15.042721 2.66617115 15.04063832 1 15 C0 14 0 14 -0.09765625 10.83984375 C-0.08025391 8.90818359 -0.08025391 8.90818359 -0.0625 6.9375 C-0.05347656 5.64714844 -0.04445313 4.35679688 -0.03515625 3.02734375 C-0.02355469 2.02832031 -0.01195313 1.02929688 0 0 Z " fill="#F3D378" transform="translate(73,84)"/>
<path d="M0 0 C2.31 0 4.62 0 7 0 C7 4.62 7 9.24 7 14 C5.576875 14.515625 4.15375 15.03125 2.6875 15.5625 C1.48673828 15.99755859 1.48673828 15.99755859 0.26171875 16.44140625 C-2 17 -2 17 -5 16 C-4.67 15.34 -4.34 14.68 -4 14 C-1.69 14 0.62 14 3 14 C3 13.34 3 12.68 3 12 C3.99 12 4.98 12 6 12 C6 8.7 6 5.4 6 2 C4.68 2.33 3.36 2.66 2 3 C1.34 2.01 0.68 1.02 0 0 Z " fill="#FCE081" transform="translate(60,84)"/>
<path d="M0 0 C0.99 0.33 1.98 0.66 3 1 C4.1875 4.0625 4.1875 4.0625 5 7 C4.34 7 3.68 7 3 7 C2.67 15.25 2.34 23.5 2 32 C0 30 0 30 -0.22705078 27.01904297 C-0.21657715 25.77268066 -0.20610352 24.52631836 -0.1953125 23.2421875 C-0.1924826 22.57913605 -0.18965271 21.91608459 -0.18673706 21.23294067 C-0.17553435 19.11344417 -0.15043051 16.99436896 -0.125 14.875 C-0.11497028 13.43880818 -0.10584441 12.00260975 -0.09765625 10.56640625 C-0.075595 7.04413372 -0.04106494 3.52210797 0 0 Z " fill="#AC8F50" transform="translate(88,70)"/>
<path d="M0 0 C0 1.87633868 -0.0100663 3.75273533 -0.03515625 5.62890625 C-0.04417969 6.59699219 -0.05320312 7.56507812 -0.0625 8.5625 C-0.07410156 9.53316406 -0.08570312 10.50382812 -0.09765625 11.50390625 C-0.17162081 14.00001275 -0.17162081 14.00001275 1 16 C-0.32 15.67 -1.64 15.34 -3 15 C-2.67 14.34 -2.34 13.68 -2 13 C-2.66 13 -3.32 13 -4 13 C-5.53166168 8.91556885 -4.63081652 5.20544343 -4 1 C-2.68 0.67 -1.36 0.34 0 0 Z " fill="#E2BD6A" transform="translate(81,84)"/>
<path d="M0 0 C3.147709 4.19694533 4.40492686 6.11119251 3.6796875 11.28515625 C2.77928976 15.79429098 2.77928976 15.79429098 2 18 C1.34 18.33 0.68 18.66 0 19 C0 12.73 0 6.46 0 0 Z " fill="#F1CB6E" transform="translate(74,42)"/>
<path d="M0 0 C0.66 0 1.32 0 2 0 C2 2.64 2 5.28 2 8 C1.34 6.68 0.68 5.36 0 4 C-0.66 4 -1.32 4 -2 4 C-2.4021875 5.7015625 -2.4021875 5.7015625 -2.8125 7.4375 C-3.204375 8.613125 -3.59625 9.78875 -4 11 C-4.99 11.33 -5.98 11.66 -7 12 C-5.8905928 8.51329166 -4.73662334 5.22515763 -3 2 C-2.01 2 -1.02 2 0 2 C0 1.34 0 0.68 0 0 Z " fill="#F7D172" transform="translate(65,44)"/>
<path d="M0 0 C1.32 0 2.64 0 4 0 C4 0.99 4 1.98 4 3 C3.071875 3.3403125 3.071875 3.3403125 2.125 3.6875 C-0.61410209 5.37929835 -1.05024472 6.99244161 -2 10 C-2.66 10 -3.32 10 -4 10 C-2.8905928 6.51329166 -1.73662334 3.22515763 0 0 Z " fill="#C29943" transform="translate(45,80)"/>
<path d="M0 0 C2.15377564 2.62198774 3.40072174 4.64404172 4 8 C2.68 8 1.36 8 0 8 C-0.38063221 5.6739143 -0.71269945 3.33944736 -1 1 C-0.67 0.67 -0.34 0.34 0 0 Z " fill="#5F4E31" transform="translate(104,99)"/>
<path d="M0 0 C0.99 0 1.98 0 3 0 C3 0.99 3 1.98 3 3 C-0.63 3.66 -4.26 4.32 -8 5 C-7.67 4.01 -7.34 3.02 -7 2 C-4.69 2 -2.38 2 0 2 C0 1.34 0 0.68 0 0 Z " fill="#EBC86F" transform="translate(63,96)"/>
<path d="M0 0 C0.66 0 1.32 0 2 0 C2.66 1.65 3.32 3.3 4 5 C2.02 5.66 0.04 6.32 -2 7 C-1.34 4.69 -0.68 2.38 0 0 Z " fill="#EBD899" transform="translate(69,31)"/>
<path d="M0 0 C1.32 0.33 2.64 0.66 4 1 C3.01 3.97 2.02 6.94 1 10 C0.67 10 0.34 10 0 10 C0 6.7 0 3.4 0 0 Z " fill="#EECF75" transform="translate(61,70)"/>
</svg>
