<svg xmlns="http://www.w3.org/2000/svg" xmlns:xlink="http://www.w3.org/1999/xlink" width="80" zoomAndPan="magnify" viewBox="0 0 60 60" height="80" preserveAspectRatio="xMidYMid meet" version="1.0"><defs><clipPath id="e74480ec02"><path d="M 4.953125 14.894531 L 55.203125 14.894531 L 55.203125 44.894531 L 4.953125 44.894531 Z M 4.953125 14.894531 " clip-rule="nonzero"/></clipPath></defs><g clip-path="url(#e74480ec02)"><path fill="#000000" d="M 16.8125 22.71875 L 26.289062 22.71875 L 26.289062 23.460938 L 17.679688 23.460938 L 17.679688 29.074219 L 25.773438 29.074219 L 25.773438 29.816406 L 17.679688 29.816406 L 17.679688 35.976562 L 26.386719 35.976562 L 26.386719 36.722656 L 16.8125 36.722656 Z M 27.136719 22.71875 L 28.144531 22.71875 L 32.605469 28.875 L 37.164062 22.71875 L 43.367188 14.894531 L 33.175781 29.523438 L 38.429688 36.722656 L 37.382812 36.722656 L 32.605469 30.171875 L 27.808594 36.722656 L 26.78125 36.722656 L 32.070312 29.523438 Z M 38.804688 23.460938 L 38.804688 22.71875 L 49.601562 22.71875 L 49.601562 23.460938 L 44.625 23.460938 L 44.625 36.722656 L 43.757812 36.722656 L 43.757812 23.460938 Z M 4.957031 22.71875 L 6.042969 22.71875 L 21.015625 44.890625 L 14.828125 36.722656 L 5.867188 23.777344 L 5.828125 36.722656 L 4.957031 36.722656 Z M 49.511719 35.753906 C 49.335938 35.753906 49.203125 35.617188 49.203125 35.441406 C 49.203125 35.265625 49.335938 35.128906 49.511719 35.128906 C 49.691406 35.128906 49.824219 35.265625 49.824219 35.441406 C 49.824219 35.617188 49.691406 35.753906 49.511719 35.753906 Z M 50.367188 34.929688 L 50.832031 34.929688 C 50.835938 35.179688 51.023438 35.347656 51.292969 35.347656 C 51.59375 35.347656 51.765625 35.167969 51.765625 34.832031 L 51.765625 32.695312 L 52.238281 32.695312 L 52.238281 34.832031 C 52.238281 35.441406 51.882812 35.789062 51.296875 35.789062 C 50.746094 35.789062 50.367188 35.453125 50.367188 34.929688 Z M 52.859375 34.90625 L 53.328125 34.90625 C 53.367188 35.191406 53.648438 35.375 54.058594 35.375 C 54.4375 35.375 54.714844 35.179688 54.714844 34.910156 C 54.714844 34.679688 54.539062 34.542969 54.136719 34.449219 L 53.742188 34.355469 C 53.191406 34.226562 52.941406 33.960938 52.941406 33.519531 C 52.941406 32.980469 53.382812 32.625 54.050781 32.625 C 54.667969 32.625 55.121094 32.980469 55.148438 33.488281 L 54.6875 33.488281 C 54.644531 33.210938 54.398438 33.035156 54.042969 33.035156 C 53.667969 33.035156 53.417969 33.214844 53.417969 33.488281 C 53.417969 33.703125 53.582031 33.828125 53.976562 33.917969 L 54.3125 34 C 54.9375 34.144531 55.195312 34.398438 55.195312 34.851562 C 55.195312 35.429688 54.742188 35.789062 54.023438 35.789062 C 53.347656 35.789062 52.890625 35.445312 52.859375 34.90625 Z M 52.859375 34.90625 " fill-opacity="1" fill-rule="nonzero"/></g></svg>