<svg xmlns="http://www.w3.org/2000/svg" xmlns:xlink="http://www.w3.org/1999/xlink" width="45" zoomAndPan="magnify" viewBox="0 0 33.75 33.749998" height="45" preserveAspectRatio="xMidYMid meet" version="1.0"><defs><clipPath id="c83ffc18bd"><path d="M 6.460938 1.507812 L 27.308594 1.507812 L 27.308594 32 L 6.460938 32 Z M 6.460938 1.507812 " clip-rule="nonzero"/></clipPath></defs><g clip-path="url(#c83ffc18bd)"><path fill="#ecc165" d="M 24.628906 1.507812 L 24.628906 25.859375 L 25.664062 25.261719 L 25.664062 15.9375 L 27.027344 16.726562 L 27.027344 26.050781 L 16.746094 31.988281 L 11.601562 29.019531 L 8.859375 27.433594 L 8.859375 25.859375 L 8.863281 25.859375 L 8.863281 19.671875 L 13.664062 16.898438 L 13.664062 14.144531 L 7.828125 17.515625 L 7.828125 26.839844 L 6.460938 26.050781 L 6.460938 16.726562 L 13.664062 12.566406 L 13.664062 7.839844 Z M 23.265625 3.875 L 15.027344 8.628906 L 15.027344 11.78125 L 16.746094 10.785156 L 23.265625 14.550781 Z M 16.746094 12.363281 L 15.027344 13.355469 L 15.027344 16.898438 L 19.828125 19.671875 L 19.828125 28.632812 L 21.207031 27.835938 L 23.265625 26.648438 L 23.265625 16.128906 Z M 13.664062 18.472656 L 10.226562 20.457031 L 10.226562 26.648438 L 12.285156 27.835938 L 13.664062 28.632812 Z M 13.664062 18.472656 " fill-opacity="1" fill-rule="nonzero"/></g></svg>