<svg xmlns="http://www.w3.org/2000/svg" xmlns:xlink="http://www.w3.org/1999/xlink" width="45" zoomAndPan="magnify" viewBox="0 0 33.75 33.749998" height="45" preserveAspectRatio="xMidYMid meet" version="1.0"><defs><clipPath id="f1b3f596a2"><path d="M 1.488281 1.488281 L 32 1.488281 L 32 32.011719 L 1.488281 32.011719 Z M 1.488281 1.488281 " clip-rule="nonzero"/></clipPath></defs><g clip-path="url(#f1b3f596a2)"><path fill="#ecc165" d="M 14.121094 3.167969 L 15.453125 4.503906 C 15.632812 4.679688 15.632812 4.96875 15.453125 5.144531 L 15.242188 5.359375 C 14.285156 6.3125 14.960938 7.945312 16.3125 7.945312 L 16.613281 7.945312 C 16.867188 7.945312 17.070312 8.152344 17.070312 8.402344 L 17.070312 10.285156 C 17.070312 10.535156 16.867188 10.742188 16.613281 10.742188 L 16.3125 10.742188 C 14.960938 10.742188 14.285156 12.375 15.242188 13.332031 L 15.453125 13.542969 C 15.632812 13.71875 15.632812 14.007812 15.453125 14.1875 L 14.121094 15.519531 C 13.945312 15.695312 13.65625 15.695312 13.476562 15.519531 L 13.265625 15.308594 C 12.308594 14.351562 10.675781 15.027344 10.675781 16.378906 L 10.675781 16.679688 C 10.675781 16.929688 10.472656 17.132812 10.222656 17.132812 L 8.335938 17.132812 C 8.085938 17.132812 7.882812 16.929688 7.882812 16.679688 L 7.882812 16.378906 C 7.882812 15.027344 6.25 14.351562 5.292969 15.308594 L 5.082031 15.519531 C 4.902344 15.695312 4.613281 15.695312 4.4375 15.519531 L 3.105469 14.1875 C 2.925781 14.007812 2.925781 13.71875 3.105469 13.542969 L 3.316406 13.332031 C 4.273438 12.375 3.597656 10.742188 2.246094 10.742188 L 1.945312 10.742188 C 1.695312 10.742188 1.488281 10.535156 1.488281 10.285156 L 1.488281 8.402344 C 1.488281 8.152344 1.695312 7.945312 1.945312 7.945312 L 2.246094 7.945312 C 3.597656 7.945312 4.273438 6.3125 3.316406 5.359375 L 3.105469 5.144531 C 2.925781 4.96875 2.925781 4.679688 3.105469 4.503906 L 4.4375 3.167969 C 4.613281 2.992188 4.902344 2.992188 5.082031 3.167969 L 5.292969 3.382812 C 6.25 4.335938 7.882812 3.660156 7.882812 2.308594 L 7.882812 2.007812 C 7.882812 1.757812 8.085938 1.554688 8.335938 1.554688 L 10.222656 1.554688 C 10.472656 1.554688 10.675781 1.757812 10.675781 2.007812 L 10.675781 2.308594 C 10.675781 3.660156 12.308594 4.335938 13.265625 3.382812 L 13.476562 3.167969 C 13.65625 2.992188 13.945312 2.992188 14.121094 3.167969 Z M 6.996094 9.648438 L 8.3125 11.117188 C 8.570312 11.402344 9.023438 11.382812 9.257812 11.082031 L 11.574219 8.378906 C 11.792969 8.121094 11.765625 7.734375 11.507812 7.515625 C 11.25 7.292969 10.863281 7.324219 10.640625 7.582031 L 8.761719 9.777344 L 7.910156 8.828125 C 7.679688 8.574219 7.292969 8.554688 7.039062 8.78125 C 6.789062 9.007812 6.769531 9.398438 6.996094 9.648438 Z M 28.824219 6.863281 C 25.851562 3.113281 22.398438 2.472656 19.796875 2.460938 L 19.601562 1.714844 C 19.554688 1.546875 19.335938 1.492188 19.222656 1.636719 L 17.640625 3.699219 C 17.554688 3.8125 17.597656 3.972656 17.726562 4.027344 L 20.121094 5.039062 C 20.289062 5.113281 20.457031 4.957031 20.414062 4.789062 L 20.246094 4.167969 C 21.574219 3.953125 24.386719 4.046875 28.824219 6.863281 Z M 2.566406 16.945312 C 2.019531 21.699219 4.003906 24.59375 5.835938 26.441406 L 5.449219 27.109375 C 5.359375 27.257812 5.480469 27.453125 5.660156 27.429688 L 8.238281 27.089844 C 8.378906 27.070312 8.460938 26.925781 8.410156 26.796875 L 7.433594 24.386719 C 7.363281 24.21875 7.136719 24.210938 7.050781 24.359375 L 6.726562 24.914062 C 5.636719 24.128906 3.714844 22.070312 2.566406 16.945312 Z M 20.871094 20.023438 L 22.015625 21.167969 C 22.167969 21.320312 22.167969 21.566406 22.015625 21.71875 L 21.835938 21.902344 C 21.015625 22.722656 21.59375 24.125 22.753906 24.125 L 23.011719 24.125 C 23.226562 24.125 23.402344 24.300781 23.402344 24.515625 L 23.402344 26.132812 C 23.402344 26.347656 23.226562 26.523438 23.011719 26.523438 L 22.753906 26.523438 C 21.59375 26.523438 21.015625 27.925781 21.835938 28.746094 L 22.015625 28.925781 C 22.167969 29.078125 22.167969 29.328125 22.015625 29.480469 L 20.871094 30.625 C 20.722656 30.777344 20.472656 30.777344 20.320312 30.625 L 20.136719 30.441406 C 19.316406 29.621094 17.917969 30.199219 17.917969 31.359375 L 17.917969 31.621094 C 17.917969 31.835938 17.742188 32.011719 17.527344 32.011719 L 15.90625 32.011719 C 15.691406 32.011719 15.519531 31.835938 15.519531 31.621094 L 15.519531 31.359375 C 15.519531 30.199219 14.117188 29.621094 13.296875 30.441406 L 13.113281 30.625 C 12.960938 30.777344 12.714844 30.777344 12.5625 30.625 L 11.417969 29.480469 C 11.265625 29.328125 11.265625 29.078125 11.417969 28.925781 L 11.601562 28.746094 C 12.421875 27.925781 11.839844 26.523438 10.679688 26.523438 L 10.421875 26.523438 C 10.207031 26.523438 10.03125 26.347656 10.03125 26.132812 L 10.03125 24.515625 C 10.03125 24.300781 10.207031 24.125 10.421875 24.125 L 10.679688 24.125 C 11.839844 24.125 12.421875 22.722656 11.601562 21.902344 L 11.417969 21.71875 C 11.265625 21.566406 11.265625 21.320312 11.417969 21.167969 L 12.5625 20.023438 C 12.714844 19.871094 12.960938 19.871094 13.113281 20.023438 L 13.296875 20.207031 C 14.117188 21.027344 15.515625 20.445312 15.515625 19.285156 L 15.515625 19.027344 C 15.515625 18.8125 15.691406 18.636719 15.90625 18.636719 L 17.527344 18.636719 C 17.742188 18.636719 17.917969 18.8125 17.917969 19.027344 L 17.917969 19.285156 C 17.917969 20.445312 19.316406 21.027344 20.136719 20.207031 L 20.320312 20.023438 C 20.472656 19.871094 20.722656 19.871094 20.871094 20.023438 Z M 16.71875 22.019531 C 14.890625 22.019531 13.414062 23.5 13.414062 25.324219 C 13.414062 27.148438 14.890625 28.628906 16.71875 28.628906 C 18.542969 28.628906 20.019531 27.148438 20.019531 25.324219 C 20.019531 23.5 18.542969 22.019531 16.71875 22.019531 Z M 29.777344 8.367188 C 29.644531 8.238281 29.433594 8.238281 29.300781 8.367188 L 29.144531 8.527344 C 28.441406 9.230469 27.242188 8.730469 27.242188 7.738281 L 27.242188 7.515625 C 27.242188 7.332031 27.089844 7.179688 26.90625 7.179688 L 25.519531 7.179688 C 25.335938 7.179688 25.183594 7.332031 25.183594 7.515625 L 25.183594 7.738281 C 25.183594 8.730469 23.984375 9.230469 23.277344 8.527344 L 23.121094 8.367188 C 22.992188 8.238281 22.78125 8.238281 22.648438 8.367188 L 21.667969 9.351562 C 21.539062 9.480469 21.539062 9.695312 21.667969 9.824219 L 21.824219 9.980469 C 22.527344 10.683594 22.03125 11.886719 21.035156 11.886719 L 20.8125 11.886719 C 20.628906 11.886719 20.480469 12.035156 20.480469 12.21875 L 20.480469 13.605469 C 20.480469 13.792969 20.628906 13.941406 20.8125 13.941406 L 21.035156 13.941406 C 22.03125 13.941406 22.527344 15.144531 21.824219 15.847656 L 21.667969 16.003906 C 21.539062 16.132812 21.539062 16.347656 21.667969 16.476562 L 22.648438 17.457031 C 22.78125 17.585938 22.992188 17.585938 23.121094 17.457031 L 23.277344 17.300781 C 23.984375 16.597656 25.183594 17.09375 25.183594 18.089844 L 25.183594 18.3125 C 25.183594 18.496094 25.335938 18.644531 25.519531 18.644531 L 26.90625 18.644531 C 27.089844 18.644531 27.242188 18.496094 27.242188 18.3125 L 27.242188 18.089844 C 27.242188 17.09375 28.441406 16.597656 29.144531 17.300781 L 29.300781 17.457031 C 29.433594 17.585938 29.644531 17.585938 29.777344 17.457031 L 30.757812 16.476562 C 30.886719 16.347656 30.886719 16.132812 30.757812 16.003906 L 30.601562 15.847656 C 29.898438 15.144531 30.394531 13.941406 31.390625 13.941406 L 31.609375 13.941406 C 31.792969 13.941406 31.945312 13.792969 31.945312 13.605469 L 31.945312 12.21875 C 31.945312 12.035156 31.792969 11.886719 31.609375 11.886719 L 31.390625 11.886719 C 30.394531 11.886719 29.898438 10.683594 30.601562 9.980469 L 30.757812 9.824219 C 30.886719 9.695312 30.886719 9.480469 30.757812 9.351562 Z M 26.210938 10.082031 C 27.777344 10.082031 29.046875 11.347656 29.046875 12.914062 C 29.046875 14.476562 27.777344 15.746094 26.210938 15.746094 C 24.648438 15.746094 23.378906 14.476562 23.378906 12.914062 C 23.378906 11.347656 24.648438 10.082031 26.210938 10.082031 Z M 24.367188 29.246094 C 28.757812 27.34375 30.273438 24.175781 30.957031 21.667969 L 31.730469 21.667969 C 31.902344 21.671875 32.011719 21.46875 31.898438 21.328125 L 30.316406 19.261719 C 30.230469 19.152344 30.066406 19.148438 29.980469 19.261719 L 28.378906 21.3125 C 28.269531 21.457031 28.375 21.65625 28.546875 21.65625 L 29.191406 21.660156 C 29.054688 22.996094 28.234375 25.691406 24.367188 29.246094 Z M 9.28125 5.167969 C 6.972656 5.167969 5.101562 7.039062 5.101562 9.34375 C 5.101562 11.652344 6.972656 13.519531 9.28125 13.519531 C 11.585938 13.519531 13.457031 11.652344 13.457031 9.34375 C 13.457031 7.039062 11.585938 5.167969 9.28125 5.167969 Z M 9.28125 5.167969 " fill-opacity="1" fill-rule="evenodd"/></g></svg>