<svg xmlns="http://www.w3.org/2000/svg" xmlns:xlink="http://www.w3.org/1999/xlink" width="45" zoomAndPan="magnify" viewBox="0 0 33.75 33.749998" height="45" preserveAspectRatio="xMidYMid meet" version="1.0"><defs><clipPath id="fa59552dfd"><path d="M 0.808594 5.230469 L 32.820312 5.230469 L 32.820312 28.3125 L 0.808594 28.3125 Z M 0.808594 5.230469 " clip-rule="nonzero"/></clipPath></defs><g clip-path="url(#fa59552dfd)"><path fill="#ecc165" d="M 32.609375 5.726562 C 32.539062 5.621094 32.433594 5.550781 32.328125 5.550781 L 26.253906 5.230469 C 26.074219 5.230469 25.898438 5.371094 25.898438 5.550781 C 25.898438 5.621094 25.898438 5.65625 25.933594 5.726562 L 26.851562 7.492188 C 25.6875 7.917969 24.558594 8.410156 23.460938 9.011719 C 19.929688 10.953125 17.632812 13.605469 16.75 16.820312 C 15.867188 13.605469 13.570312 10.953125 10.039062 9.011719 C 8.941406 8.410156 7.8125 7.917969 6.648438 7.527344 L 7.566406 5.761719 C 7.636719 5.585938 7.601562 5.371094 7.421875 5.300781 C 7.351562 5.230469 7.316406 5.230469 7.246094 5.230469 L 1.171875 5.550781 C 0.996094 5.550781 0.816406 5.726562 0.851562 5.902344 C 0.851562 5.972656 0.886719 6.007812 0.921875 6.078125 L 4.210938 11.132812 C 4.28125 11.238281 4.386719 11.273438 4.492188 11.273438 C 4.597656 11.273438 4.738281 11.203125 4.773438 11.097656 L 6.011719 8.730469 C 7.175781 9.117188 8.308594 9.613281 9.402344 10.210938 C 13.675781 12.542969 15.832031 15.863281 15.832031 20.070312 L 15.832031 28.265625 L 17.632812 28.265625 L 17.632812 20.070312 C 17.632812 15.863281 19.789062 12.542969 24.0625 10.210938 C 25.15625 9.613281 26.289062 9.117188 27.453125 8.730469 L 28.691406 11.097656 C 28.761719 11.203125 28.867188 11.273438 28.972656 11.273438 C 29.078125 11.273438 29.183594 11.203125 29.253906 11.132812 L 32.539062 6.078125 C 32.644531 5.972656 32.683594 5.832031 32.609375 5.726562 Z M 32.609375 5.726562 " fill-opacity="1" fill-rule="nonzero"/></g></svg>