<svg xmlns="http://www.w3.org/2000/svg" xmlns:xlink="http://www.w3.org/1999/xlink" width="45" zoomAndPan="magnify" viewBox="0 0 33.75 33.749998" height="45" preserveAspectRatio="xMidYMid meet" version="1.0"><defs><clipPath id="4a17173daa"><path d="M 1.382812 1.789062 L 31.90625 1.789062 L 31.90625 31.566406 L 1.382812 31.566406 Z M 1.382812 1.789062 " clip-rule="nonzero"/></clipPath></defs><g clip-path="url(#4a17173daa)"><path fill="#ecc165" d="M 30.152344 16.636719 C 29.109375 16.636719 28.265625 17.457031 28.203125 18.484375 L 27.324219 18.484375 C 27.269531 18.179688 27.015625 17.945312 26.695312 17.945312 L 22.855469 17.945312 C 22.734375 17.945312 22.636719 17.847656 22.636719 17.722656 L 22.636719 15.710938 L 24.367188 14.996094 C 24.617188 14.890625 24.773438 14.65625 24.773438 14.386719 C 24.773438 14.386719 24.773438 5.492188 24.773438 5.484375 C 24.773438 5.359375 24.730469 5.234375 24.660156 5.128906 C 24.625 5.078125 24.582031 5.027344 24.535156 4.988281 C 24.488281 4.949219 24.429688 4.898438 24.371094 4.882812 L 17 1.835938 C 16.839844 1.769531 16.660156 1.769531 16.5 1.835938 L 9.132812 4.882812 C 9.011719 4.929688 8.90625 5.023438 8.835938 5.132812 C 8.769531 5.234375 8.726562 5.363281 8.726562 5.492188 L 8.726562 14.386719 C 8.726562 14.65625 8.886719 14.890625 9.132812 14.996094 L 10.867188 15.710938 L 10.867188 17.722656 C 10.867188 17.847656 10.765625 17.945312 10.644531 17.945312 L 6.808594 17.945312 C 6.484375 17.945312 6.230469 18.179688 6.175781 18.484375 L 5.296875 18.484375 C 5.238281 17.457031 4.390625 16.636719 3.347656 16.636719 C 2.265625 16.636719 1.386719 17.519531 1.386719 18.597656 C 1.386719 19.679688 2.265625 20.5625 3.347656 20.5625 C 4.390625 20.5625 5.238281 19.742188 5.296875 18.714844 L 6.175781 18.714844 C 6.230469 19.019531 6.484375 19.253906 6.808594 19.253906 L 10.644531 19.253906 C 11.488281 19.253906 12.171875 18.566406 12.171875 17.722656 L 12.171875 16.253906 L 13.480469 16.792969 L 13.480469 20.402344 C 13.480469 20.433594 13.464844 20.460938 13.441406 20.480469 L 11.246094 22.054688 C 10.976562 22.246094 10.910156 22.597656 11.058594 22.882812 L 10.351562 23.421875 C 9.992188 22.976562 9.449219 22.6875 8.835938 22.6875 C 7.753906 22.6875 6.875 23.570312 6.875 24.652344 C 6.875 25.730469 7.753906 26.613281 8.835938 26.613281 C 9.917969 26.613281 10.796875 25.730469 10.796875 24.652344 C 10.796875 24.265625 10.679688 23.90625 10.488281 23.601562 L 11.203125 23.058594 C 11.324219 23.167969 11.46875 23.238281 11.628906 23.238281 C 11.757812 23.238281 11.894531 23.199219 12.007812 23.117188 L 14.203125 21.542969 C 14.570312 21.277344 14.789062 20.851562 14.789062 20.402344 L 14.789062 17.335938 L 16.097656 17.875 L 16.097656 25.261719 C 16.097656 25.582031 16.332031 25.835938 16.636719 25.894531 L 16.636719 26.820312 C 15.609375 26.882812 14.789062 27.730469 14.789062 28.769531 C 14.789062 29.8125 15.609375 30.660156 16.636719 30.722656 L 16.636719 31.59375 C 16.636719 31.65625 16.6875 31.707031 16.75 31.707031 C 16.8125 31.707031 16.863281 31.65625 16.863281 31.59375 L 16.863281 30.722656 C 17.890625 30.660156 18.710938 29.8125 18.710938 28.769531 C 18.710938 27.730469 17.890625 26.882812 16.863281 26.820312 L 16.863281 25.894531 C 17.167969 25.835938 17.402344 25.582031 17.402344 25.261719 L 17.402344 17.875 L 18.710938 17.335938 L 18.710938 20.402344 C 18.710938 20.851562 18.929688 21.277344 19.296875 21.542969 L 21.492188 23.117188 C 21.609375 23.199219 21.742188 23.238281 21.875 23.238281 C 22.03125 23.238281 22.175781 23.167969 22.296875 23.058594 C 22.296875 23.058594 23.011719 23.601562 23.011719 23.601562 C 22.820312 23.90625 22.703125 24.265625 22.703125 24.652344 C 22.703125 25.730469 23.585938 26.613281 24.664062 26.613281 C 25.746094 26.613281 26.628906 25.730469 26.628906 24.652344 C 26.628906 23.570312 25.746094 22.6875 24.664062 22.6875 C 24.050781 22.6875 23.511719 22.976562 23.148438 23.421875 L 22.441406 22.882812 C 22.589844 22.597656 22.523438 22.246094 22.253906 22.054688 L 20.058594 20.480469 C 20.035156 20.460938 20.019531 20.433594 20.019531 20.402344 L 20.019531 16.792969 L 21.328125 16.253906 L 21.328125 17.722656 C 21.328125 18.566406 22.011719 19.253906 22.855469 19.253906 L 26.695312 19.253906 C 27.015625 19.253906 27.269531 19.019531 27.324219 18.714844 L 28.203125 18.714844 C 28.265625 19.742188 29.109375 20.5625 30.152344 20.5625 C 31.234375 20.5625 32.117188 19.679688 32.117188 18.597656 C 32.117188 17.519531 31.234375 16.636719 30.152344 16.636719 Z M 3.347656 19.253906 C 2.984375 19.253906 2.691406 18.960938 2.691406 18.597656 C 2.691406 18.238281 2.984375 17.945312 3.347656 17.945312 C 3.707031 17.945312 4 18.238281 4 18.597656 C 4 18.960938 3.707031 19.253906 3.347656 19.253906 Z M 8.835938 25.304688 C 8.472656 25.304688 8.179688 25.011719 8.179688 24.652344 C 8.179688 24.289062 8.472656 23.996094 8.835938 23.996094 C 9.195312 23.996094 9.488281 24.289062 9.488281 24.652344 C 9.488281 25.011719 9.195312 25.304688 8.835938 25.304688 Z M 24.664062 23.996094 C 25.027344 23.996094 25.320312 24.289062 25.320312 24.652344 C 25.320312 25.011719 25.027344 25.304688 24.664062 25.304688 C 24.304688 25.304688 24.011719 25.011719 24.011719 24.652344 C 24.011719 24.289062 24.304688 23.996094 24.664062 23.996094 Z M 16.75 7.824219 L 14.777344 7.007812 L 20.433594 4.671875 L 22.40625 5.484375 Z M 16.75 3.148438 L 18.722656 3.964844 L 13.066406 6.300781 L 12.746094 6.167969 L 11.09375 5.484375 Z M 17.402344 28.769531 C 17.402344 29.132812 17.109375 29.425781 16.75 29.425781 C 16.390625 29.425781 16.097656 29.132812 16.097656 28.769531 C 16.097656 28.410156 16.390625 28.117188 16.75 28.117188 C 17.109375 28.117188 17.402344 28.410156 17.402344 28.769531 Z M 17.402344 16.457031 L 17.402344 8.96875 L 23.464844 6.464844 L 23.464844 13.949219 L 22.636719 14.292969 L 22.636719 13.714844 C 22.636719 13.394531 22.398438 13.140625 22.09375 13.085938 L 22.09375 12.183594 C 22.09375 12.117188 22.042969 12.066406 21.980469 12.066406 C 21.917969 12.066406 21.867188 12.117188 21.867188 12.183594 L 21.867188 13.085938 C 21.5625 13.140625 21.328125 13.394531 21.328125 13.714844 L 21.328125 14.835938 Z M 30.152344 19.253906 C 29.792969 19.253906 29.5 18.960938 29.5 18.597656 C 29.5 18.238281 29.792969 17.945312 30.152344 17.945312 C 30.515625 17.945312 30.808594 18.238281 30.808594 18.597656 C 30.808594 18.960938 30.515625 19.253906 30.152344 19.253906 Z M 30.152344 19.253906 " fill-opacity="1" fill-rule="nonzero"/></g></svg>