<svg xmlns="http://www.w3.org/2000/svg" xmlns:xlink="http://www.w3.org/1999/xlink" width="45" zoomAndPan="magnify" viewBox="0 0 33.75 33.749998" height="45" preserveAspectRatio="xMidYMid meet" version="1.0"><defs><clipPath id="1f43b70672"><path d="M 1.800781 8 L 31.582031 8 L 31.582031 28 L 1.800781 28 Z M 1.800781 8 " clip-rule="nonzero"/></clipPath><clipPath id="e600bb9c70"><path d="M 7 11 L 27 11 L 27 31.304688 L 7 31.304688 Z M 7 11 " clip-rule="nonzero"/></clipPath><clipPath id="3175d8f128"><path d="M 1.800781 2.269531 L 31.582031 2.269531 L 31.582031 9 L 1.800781 9 Z M 1.800781 2.269531 " clip-rule="nonzero"/></clipPath></defs><g clip-path="url(#1f43b70672)"><path fill="#ecc165" d="M 31.679688 8.871094 L 1.804688 8.871094 L 1.804688 25.4375 C 1.804688 26.433594 2.578125 27.242188 3.523438 27.242188 L 8.363281 27.242188 L 9.5 25.878906 C 9.074219 25.167969 8.753906 24.414062 8.542969 23.609375 L 6.679688 23.433594 C 6.472656 23.417969 6.324219 23.234375 6.324219 23.035156 L 6.324219 20.085938 C 6.316406 19.878906 6.472656 19.703125 6.679688 19.679688 L 8.570312 19.488281 C 8.769531 18.6875 9.101562 17.917969 9.523438 17.207031 L 8.320312 15.75 C 8.179688 15.59375 8.199219 15.351562 8.335938 15.210938 L 10.402344 13.128906 C 10.546875 12.980469 10.78125 12.972656 10.9375 13.09375 L 12.394531 14.300781 C 13.105469 13.875 13.871094 13.554688 14.675781 13.347656 L 14.867188 11.4375 C 14.886719 11.230469 15.066406 11.074219 15.277344 11.066406 L 18.199219 11.066406 C 18.40625 11.066406 18.582031 11.230469 18.605469 11.4375 L 18.796875 13.328125 C 19.59375 13.535156 20.367188 13.859375 21.078125 14.28125 L 22.535156 13.078125 C 22.691406 12.9375 22.933594 12.957031 23.074219 13.09375 L 25.15625 15.175781 C 25.304688 15.324219 25.3125 15.558594 25.171875 15.714844 L 23.96875 17.171875 C 24.390625 17.882812 24.714844 18.644531 24.921875 19.453125 L 26.8125 19.644531 C 27.019531 19.660156 27.167969 19.84375 27.167969 20.050781 L 27.167969 23.007812 C 27.175781 23.21875 27.019531 23.390625 26.8125 23.417969 L 24.921875 23.609375 C 24.722656 24.40625 24.390625 25.175781 23.96875 25.878906 L 25.101562 27.242188 L 29.976562 27.242188 C 30.921875 27.242188 31.695312 26.445312 31.695312 25.4375 Z M 31.679688 8.871094 " fill-opacity="1" fill-rule="nonzero"/></g><g clip-path="url(#e600bb9c70)"><path fill="#ecc165" d="M 10.296875 26.167969 L 9.132812 27.570312 L 10.695312 29.132812 L 12.101562 27.96875 C 12.238281 27.859375 12.429688 27.847656 12.578125 27.953125 C 13.351562 28.464844 14.226562 28.828125 15.128906 29.027344 C 15.300781 29.070312 15.433594 29.21875 15.441406 29.394531 L 15.613281 31.222656 L 17.835938 31.222656 L 18.007812 29.394531 C 18.027344 29.21875 18.15625 29.070312 18.328125 29.027344 C 19.230469 28.828125 20.097656 28.464844 20.878906 27.953125 C 21.027344 27.859375 21.226562 27.867188 21.355469 27.988281 L 22.761719 29.148438 L 24.324219 27.589844 L 23.160156 26.183594 C 23.046875 26.042969 23.039062 25.855469 23.144531 25.707031 C 23.65625 24.933594 24.019531 24.074219 24.21875 23.164062 C 24.253906 23 24.390625 22.863281 24.566406 22.851562 L 26.378906 22.679688 L 26.378906 20.476562 L 24.566406 20.300781 C 24.390625 20.285156 24.253906 20.15625 24.210938 19.992188 C 24.011719 19.089844 23.644531 18.222656 23.132812 17.441406 C 23.039062 17.292969 23.046875 17.09375 23.167969 16.964844 L 24.332031 15.558594 L 22.769531 13.996094 L 21.363281 15.160156 C 21.226562 15.273438 21.035156 15.28125 20.886719 15.175781 C 20.117188 14.664062 19.238281 14.300781 18.335938 14.101562 C 18.164062 14.058594 18.035156 13.910156 18.027344 13.738281 L 17.851562 11.914062 L 15.632812 11.914062 L 15.457031 13.738281 C 15.441406 13.910156 15.308594 14.058594 15.136719 14.101562 C 14.234375 14.300781 13.367188 14.664062 12.585938 15.175781 C 12.441406 15.273438 12.238281 15.261719 12.109375 15.140625 L 10.714844 13.980469 L 9.167969 15.53125 L 10.332031 16.929688 C 10.445312 17.066406 10.453125 17.257812 10.347656 17.40625 C 9.835938 18.175781 9.472656 19.035156 9.273438 19.945312 C 9.238281 20.113281 9.101562 20.25 8.925781 20.257812 L 7.113281 20.433594 L 7.113281 22.636719 L 8.902344 22.808594 C 9.074219 22.828125 9.210938 22.957031 9.257812 23.121094 C 9.457031 24.023438 9.820312 24.890625 10.332031 25.671875 C 10.425781 25.84375 10.410156 26.035156 10.296875 26.167969 Z M 16.742188 27.859375 C 13.253906 27.859375 10.4375 25.039062 10.425781 21.550781 C 10.425781 18.074219 13.246094 15.253906 16.722656 15.246094 C 20.210938 15.246094 23.03125 18.054688 23.039062 21.542969 C 23.039062 25.019531 20.21875 27.839844 16.742188 27.859375 Z M 16.742188 27.859375 " fill-opacity="1" fill-rule="nonzero"/></g><path fill="#ecc165" d="M 27.894531 5.21875 C 27.894531 5.808594 28.347656 6.292969 28.902344 6.292969 C 29.457031 6.292969 29.910156 5.816406 29.910156 5.21875 C 29.910156 4.621094 29.457031 4.144531 28.902344 4.144531 C 28.355469 4.144531 27.894531 4.621094 27.894531 5.21875 Z M 27.894531 5.21875 " fill-opacity="1" fill-rule="nonzero"/><path fill="#ecc165" d="M 23.316406 5.21875 C 23.316406 5.808594 23.769531 6.292969 24.324219 6.292969 C 24.878906 6.292969 25.328125 5.816406 25.328125 5.21875 C 25.328125 4.621094 24.878906 4.144531 24.324219 4.144531 C 23.769531 4.144531 23.316406 4.621094 23.316406 5.21875 Z M 23.316406 5.21875 " fill-opacity="1" fill-rule="nonzero"/><g clip-path="url(#3175d8f128)"><path fill="#ecc165" d="M 1.804688 4.101562 L 1.804688 8.054688 L 31.679688 8.054688 L 31.679688 4.101562 C 31.679688 3.101562 30.90625 2.269531 29.960938 2.269531 L 3.515625 2.269531 C 2.578125 2.269531 1.804688 3.101562 1.804688 4.101562 Z M 27.097656 5.21875 C 27.097656 4.179688 27.914062 3.335938 28.910156 3.335938 C 29.910156 3.335938 30.722656 4.179688 30.722656 5.21875 C 30.722656 6.257812 29.910156 7.101562 28.910156 7.101562 C 27.914062 7.101562 27.097656 6.257812 27.097656 5.21875 Z M 22.511719 5.21875 C 22.511719 4.179688 23.324219 3.335938 24.324219 3.335938 C 25.320312 3.335938 26.136719 4.179688 26.136719 5.21875 C 26.136719 6.257812 25.320312 7.101562 24.324219 7.101562 C 23.316406 7.101562 22.511719 6.257812 22.511719 5.21875 Z M 17.929688 5.21875 C 17.929688 4.179688 18.746094 3.335938 19.742188 3.335938 C 20.742188 3.335938 21.554688 4.179688 21.554688 5.21875 C 21.554688 6.257812 20.742188 7.101562 19.742188 7.101562 C 18.738281 7.101562 17.929688 6.257812 17.929688 5.21875 Z M 17.929688 5.21875 " fill-opacity="1" fill-rule="nonzero"/></g><path fill="#ecc165" d="M 18.726562 5.21875 C 18.726562 5.808594 19.179688 6.292969 19.734375 6.292969 C 20.289062 6.292969 20.742188 5.816406 20.742188 5.21875 C 20.742188 4.621094 20.289062 4.144531 19.734375 4.144531 C 19.1875 4.144531 18.726562 4.621094 18.726562 5.21875 Z M 18.726562 5.21875 " fill-opacity="1" fill-rule="nonzero"/><path fill="#ecc165" d="M 16.722656 16.050781 C 13.695312 16.050781 11.242188 18.515625 11.242188 21.558594 C 11.242188 24.585938 13.707031 27.042969 16.75 27.042969 C 19.777344 27.042969 22.230469 24.578125 22.230469 21.542969 C 22.222656 18.507812 19.761719 16.050781 16.722656 16.050781 Z M 15.40625 23.199219 C 15.578125 23.320312 15.613281 23.582031 15.492188 23.761719 C 15.371094 23.9375 15.109375 23.980469 14.929688 23.851562 C 14.929688 23.839844 14.921875 23.839844 14.921875 23.839844 L 12.308594 21.863281 C 12.117188 21.726562 12.09375 21.480469 12.222656 21.300781 C 12.257812 21.265625 12.273438 21.238281 12.308594 21.214844 L 14.921875 19.234375 C 15.09375 19.097656 15.34375 19.140625 15.484375 19.324219 C 15.621094 19.496094 15.589844 19.746094 15.414062 19.886719 L 13.230469 21.542969 Z M 17.574219 18.664062 L 16.679688 24.542969 C 16.644531 24.769531 16.457031 24.917969 16.222656 24.890625 C 15.996094 24.855469 15.847656 24.648438 15.875 24.429688 L 16.769531 18.550781 C 16.800781 18.324219 17.011719 18.175781 17.226562 18.203125 C 17.445312 18.230469 17.589844 18.445312 17.574219 18.664062 Z M 21.304688 21.535156 C 21.304688 21.65625 21.242188 21.777344 21.140625 21.847656 L 18.527344 23.824219 C 18.355469 23.964844 18.105469 23.929688 17.964844 23.753906 C 17.824219 23.582031 17.859375 23.328125 18.035156 23.191406 C 18.035156 23.183594 18.042969 23.183594 18.042969 23.183594 L 20.230469 21.527344 L 18.042969 19.867188 C 17.871094 19.746094 17.835938 19.488281 17.957031 19.304688 C 18.078125 19.132812 18.335938 19.089844 18.519531 19.21875 C 18.519531 19.226562 18.527344 19.226562 18.527344 19.226562 L 21.140625 21.203125 C 21.234375 21.28125 21.304688 21.414062 21.304688 21.535156 Z M 21.304688 21.535156 " fill-opacity="1" fill-rule="nonzero"/></svg>