<svg xmlns="http://www.w3.org/2000/svg" xmlns:xlink="http://www.w3.org/1999/xlink" width="45" zoomAndPan="magnify" viewBox="0 0 33.75 33.749998" height="45" preserveAspectRatio="xMidYMid meet" version="1.0"><defs><clipPath id="0eaee06081"><path d="M 12 14 L 25 14 L 25 31.316406 L 12 31.316406 Z M 12 14 " clip-rule="nonzero"/></clipPath><clipPath id="044410112e"><path d="M 12 2.28125 L 21 2.28125 L 21 11 L 12 11 Z M 12 2.28125 " clip-rule="nonzero"/></clipPath><clipPath id="55c38a516a"><path d="M 0.421875 15 L 8 15 L 8 23 L 0.421875 23 Z M 0.421875 15 " clip-rule="nonzero"/></clipPath></defs><path fill="#ecc165" d="M 10.703125 21.6875 C 9.195312 21.6875 8.78125 22.222656 8.78125 24.1875 L 8.78125 27.296875 C 8.78125 29.257812 9.195312 29.792969 10.703125 29.792969 C 11.433594 29.792969 11.566406 29.371094 11.566406 28.9375 L 11.566406 22.621094 C 11.566406 22.03125 11.367188 21.6875 10.703125 21.6875 Z M 10.703125 21.6875 " fill-opacity="1" fill-rule="nonzero"/><g clip-path="url(#0eaee06081)"><path fill="#ecc165" d="M 16.507812 15.160156 C 16.027344 17.007812 14.738281 18.679688 13.714844 19.667969 C 13.234375 20.125 12.796875 20.542969 12.5625 20.925781 C 12.355469 21.261719 12.371094 21.53125 12.371094 21.910156 L 12.371094 29.429688 C 12.371094 29.5625 12.433594 29.800781 12.796875 29.871094 C 13.410156 29.984375 13.800781 30.304688 14.179688 30.601562 C 14.773438 31.066406 15.390625 31.101562 16.214844 31.101562 C 16.214844 31.101562 22.988281 31.085938 23 31.085938 C 23.15625 31.085938 23.417969 30.902344 23.566406 30.605469 C 23.730469 30.28125 23.726562 29.871094 23.566406 29.546875 C 23.484375 29.382812 23.351562 29.269531 23.222656 29.160156 C 22.996094 28.96875 23.050781 28.652344 23.382812 28.601562 C 23.734375 28.550781 24.074219 28.378906 24.253906 28.023438 C 24.449219 27.648438 24.449219 27.179688 24.253906 26.808594 C 24.070312 26.449219 23.738281 26.226562 23.382812 26.226562 C 23.214844 26.226562 23.078125 26.089844 23.078125 25.925781 C 23.078125 25.757812 23.214844 25.625 23.382812 25.625 C 23.738281 25.625 24.070312 25.402344 24.253906 25.042969 C 24.449219 24.667969 24.449219 24.203125 24.253906 23.828125 C 24.070312 23.46875 23.738281 23.246094 23.382812 23.246094 C 23.214844 23.246094 23.082031 23.113281 23.082031 22.945312 C 23.082031 22.78125 23.214844 22.644531 23.382812 22.644531 C 23.738281 22.644531 24.070312 22.421875 24.253906 22.0625 C 24.449219 21.6875 24.449219 21.222656 24.253906 20.847656 C 24.070312 20.488281 23.738281 20.265625 23.382812 20.265625 L 19.070312 20.265625 C 18.273438 20.265625 18.257812 19.554688 18.226562 19.019531 C 18.203125 18.558594 18.21875 17.738281 18.4375 17.128906 C 18.824219 16.054688 18.636719 15.269531 18.375 14.820312 C 17.804688 13.824219 16.820312 13.957031 16.507812 15.160156 Z M 16.507812 15.160156 " fill-opacity="1" fill-rule="nonzero"/></g><g clip-path="url(#044410112e)"><path fill="#ecc165" d="M 17 2.757812 L 17.964844 4.742188 L 20.167969 5.070312 C 20.773438 5.15625 20.808594 5.421875 20.375 5.847656 L 18.816406 7.253906 L 19.171875 9.503906 C 19.289062 10.195312 19.078125 10.359375 18.585938 10.101562 L 16.589844 9.035156 L 14.589844 10.101562 C 14.101562 10.359375 13.890625 10.195312 14.007812 9.503906 L 14.367188 7.257812 L 12.804688 5.847656 C 12.371094 5.421875 12.40625 5.15625 13.011719 5.070312 L 15.214844 4.742188 L 16.183594 2.757812 C 16.292969 2.523438 16.441406 2.40625 16.589844 2.40625 C 16.738281 2.40625 16.886719 2.523438 17 2.757812 Z M 17 2.757812 " fill-opacity="1" fill-rule="nonzero"/></g><g clip-path="url(#55c38a516a)"><path fill="#ecc165" d="M 4.5 15.566406 L 5.347656 17.308594 L 7.277344 17.59375 C 7.808594 17.671875 7.84375 17.90625 7.464844 18.28125 L 6.09375 19.515625 L 6.40625 21.488281 C 6.507812 22.089844 6.320312 22.234375 5.894531 22.007812 L 4.140625 21.074219 L 2.386719 22.007812 C 1.957031 22.238281 1.773438 22.089844 1.875 21.488281 L 2.1875 19.515625 L 0.816406 18.28125 C 0.4375 17.90625 0.46875 17.671875 1 17.59375 L 2.933594 17.308594 L 3.78125 15.566406 C 3.882812 15.363281 4.011719 15.261719 4.140625 15.261719 C 4.269531 15.261719 4.398438 15.363281 4.5 15.566406 Z M 4.5 15.566406 " fill-opacity="1" fill-rule="nonzero"/></g><path fill="#ecc165" d="M 8.332031 7.578125 L 9.179688 9.324219 L 11.117188 9.609375 C 11.648438 9.6875 11.679688 9.921875 11.300781 10.296875 L 9.929688 11.53125 L 10.242188 13.507812 C 10.34375 14.113281 10.15625 14.257812 9.730469 14.027344 L 7.972656 13.09375 L 6.214844 14.027344 C 5.789062 14.257812 5.601562 14.113281 5.703125 13.507812 L 6.015625 11.53125 L 4.644531 10.296875 C 4.265625 9.921875 4.296875 9.6875 4.828125 9.609375 L 6.765625 9.324219 L 7.613281 7.578125 C 7.714844 7.375 7.84375 7.269531 7.972656 7.269531 C 8.101562 7.269531 8.230469 7.375 8.332031 7.578125 Z M 8.332031 7.578125 " fill-opacity="1" fill-rule="nonzero"/><path fill="#ecc165" d="M 24.847656 7.578125 L 24 9.324219 L 22.0625 9.609375 C 21.53125 9.6875 21.5 9.921875 21.878906 10.296875 L 23.253906 11.53125 L 22.9375 13.507812 C 22.835938 14.113281 23.019531 14.257812 23.453125 14.027344 L 25.207031 13.09375 L 26.960938 14.027344 C 27.390625 14.257812 27.578125 14.113281 27.476562 13.507812 L 27.160156 11.53125 L 28.535156 10.296875 C 28.914062 9.921875 28.882812 9.6875 28.351562 9.609375 L 26.414062 9.324219 L 25.566406 7.578125 C 25.464844 7.375 25.335938 7.269531 25.207031 7.269531 C 25.078125 7.269531 24.945312 7.375 24.847656 7.578125 Z M 24.847656 7.578125 " fill-opacity="1" fill-rule="nonzero"/><path fill="#ecc165" d="M 29.726562 15.566406 L 30.574219 17.308594 L 32.507812 17.59375 C 33.039062 17.671875 33.070312 17.90625 32.691406 18.28125 L 31.320312 19.515625 L 31.636719 21.488281 C 31.738281 22.089844 31.550781 22.234375 31.121094 22.007812 L 29.371094 21.074219 L 27.617188 22.007812 C 27.1875 22.238281 27 22.089844 27.105469 21.488281 L 27.417969 19.515625 L 26.046875 18.28125 C 25.667969 17.90625 25.699219 17.671875 26.230469 17.59375 L 28.164062 17.308594 L 29.011719 15.566406 C 29.109375 15.363281 29.238281 15.261719 29.371094 15.261719 C 29.5 15.261719 29.628906 15.363281 29.726562 15.566406 Z M 29.726562 15.566406 " fill-opacity="1" fill-rule="nonzero"/></svg>