<svg xmlns="http://www.w3.org/2000/svg" xmlns:xlink="http://www.w3.org/1999/xlink" width="45" zoomAndPan="magnify" viewBox="0 0 33.75 33.749998" height="45" preserveAspectRatio="xMidYMid meet" version="1.0"><defs><clipPath id="3e0f133264"><path d="M 2.285156 2.082031 L 31.320312 2.082031 L 31.320312 31.117188 L 2.285156 31.117188 Z M 2.285156 2.082031 " clip-rule="nonzero"/></clipPath></defs><g clip-path="url(#3e0f133264)"><path fill="#ecc165" d="M 27.355469 9.925781 L 25.949219 9.925781 L 25.949219 8.308594 L 28.027344 8.308594 C 28.546875 8.308594 28.972656 8.734375 28.972656 9.253906 L 28.972656 11.882812 L 27.355469 11.882812 Z M 3.910156 9.925781 L 5.316406 9.925781 L 5.316406 8.308594 L 3.242188 8.308594 C 2.722656 8.308594 2.296875 8.734375 2.296875 9.253906 L 2.296875 26.03125 C 2.296875 26.550781 2.722656 26.976562 3.242188 26.976562 L 21.929688 26.976562 L 21.929688 24.480469 L 3.910156 24.480469 Z M 19.847656 29.488281 L 17.703125 29.488281 L 17.703125 27.804688 L 13.566406 27.804688 L 13.566406 29.488281 L 11.421875 29.488281 C 10.570312 29.488281 9.875 30.183594 9.875 31.035156 L 9.875 31.195312 C 9.875 31.3125 9.972656 31.410156 10.09375 31.410156 L 21.175781 31.410156 C 21.292969 31.410156 21.394531 31.3125 21.394531 31.195312 L 21.394531 31.035156 C 21.394531 30.183594 20.699219 29.488281 19.847656 29.488281 Z M 6.144531 12.074219 L 6.144531 3.421875 C 6.144531 2.683594 6.742188 2.085938 7.480469 2.085938 L 23.789062 2.085938 C 24.523438 2.085938 25.125 2.683594 25.125 3.421875 L 25.125 11.882812 L 24.296875 11.882812 L 24.296875 5.195312 L 6.96875 5.195312 L 6.96875 12.074219 C 6.96875 12.097656 6.96875 12.117188 6.964844 12.136719 C 6.800781 12.1875 6.648438 12.277344 6.519531 12.40625 L 6.449219 12.472656 C 6.273438 12.429688 6.144531 12.265625 6.144531 12.074219 Z M 11.230469 3.640625 C 11.230469 3.902344 11.441406 4.117188 11.707031 4.117188 C 11.96875 4.117188 12.179688 3.902344 12.179688 3.640625 C 12.179688 3.378906 11.96875 3.164062 11.707031 3.164062 C 11.441406 3.164062 11.230469 3.378906 11.230469 3.640625 Z M 9.472656 3.640625 C 9.472656 3.902344 9.6875 4.117188 9.949219 4.117188 C 10.210938 4.117188 10.421875 3.902344 10.421875 3.640625 C 10.421875 3.378906 10.210938 3.164062 9.949219 3.164062 C 9.6875 3.164062 9.472656 3.378906 9.472656 3.640625 Z M 7.714844 3.640625 C 7.714844 3.902344 7.929688 4.117188 8.191406 4.117188 C 8.453125 4.117188 8.667969 3.902344 8.667969 3.640625 C 8.667969 3.378906 8.453125 3.164062 8.191406 3.164062 C 7.929688 3.164062 7.714844 3.378906 7.714844 3.640625 Z M 16.46875 17.457031 L 21.929688 17.457031 L 21.929688 16.628906 L 16.46875 16.628906 Z M 8.878906 6.863281 C 8.703125 6.863281 8.558594 7.007812 8.558594 7.183594 L 8.558594 9.519531 C 8.558594 9.695312 8.703125 9.839844 8.878906 9.839844 L 14.171875 9.839844 C 14.351562 9.839844 14.496094 9.695312 14.496094 9.519531 L 14.496094 7.183594 C 14.496094 7.007812 14.351562 6.863281 14.171875 6.863281 Z M 16.175781 6.90625 C 15.945312 6.90625 15.761719 7.089844 15.761719 7.320312 C 15.761719 7.546875 15.945312 7.734375 16.175781 7.734375 L 22.558594 7.734375 C 22.785156 7.734375 22.96875 7.546875 22.96875 7.320312 C 22.96875 7.089844 22.785156 6.90625 22.558594 6.90625 Z M 22.96875 9.386719 C 22.96875 9.15625 22.785156 8.972656 22.558594 8.972656 L 16.175781 8.972656 C 15.945312 8.972656 15.761719 9.15625 15.761719 9.386719 C 15.761719 9.613281 15.945312 9.796875 16.175781 9.796875 L 22.558594 9.796875 C 22.785156 9.796875 22.96875 9.613281 22.96875 9.386719 Z M 21.820312 11.449219 C 21.820312 11.222656 21.636719 11.035156 21.40625 11.035156 L 16.175781 11.035156 C 15.945312 11.035156 15.761719 11.222656 15.761719 11.449219 C 15.761719 11.679688 15.945312 11.863281 16.175781 11.863281 L 21.40625 11.863281 C 21.636719 11.863281 21.820312 11.675781 21.820312 11.449219 Z M 16.175781 13.101562 C 15.945312 13.101562 15.761719 13.285156 15.761719 13.515625 C 15.761719 13.742188 15.945312 13.929688 16.175781 13.929688 L 20.410156 13.929688 C 20.636719 13.929688 20.824219 13.742188 20.824219 13.515625 C 20.824219 13.285156 20.636719 13.101562 20.410156 13.101562 Z M 6.007812 16.140625 L 6.53125 14.875 L 6.121094 14.257812 C 6.050781 14.160156 6.066406 14.027344 6.152344 13.941406 L 7.101562 12.988281 C 7.1875 12.90625 7.320312 12.890625 7.421875 12.960938 L 8.035156 13.371094 L 9.300781 12.847656 L 9.441406 12.121094 C 9.464844 12.003906 9.566406 11.917969 9.6875 11.917969 L 11.035156 11.917969 C 11.15625 11.917969 11.257812 12.003906 11.28125 12.121094 L 11.425781 12.847656 L 12.691406 13.371094 L 13.304688 12.960938 C 13.40625 12.890625 13.535156 12.90625 13.621094 12.988281 L 14.574219 13.941406 C 14.660156 14.027344 14.671875 14.160156 14.605469 14.257812 L 14.191406 14.875 L 14.714844 16.140625 L 15.441406 16.28125 C 15.5625 16.304688 15.644531 16.40625 15.644531 16.527344 L 15.644531 17.875 C 15.644531 17.996094 15.5625 18.097656 15.441406 18.121094 L 14.714844 18.265625 L 14.191406 19.53125 L 14.605469 20.144531 C 14.671875 20.246094 14.660156 20.375 14.574219 20.460938 L 13.621094 21.414062 C 13.535156 21.5 13.40625 21.511719 13.304688 21.445312 L 12.691406 21.03125 L 11.425781 21.554688 L 11.28125 22.28125 C 11.257812 22.402344 11.15625 22.484375 11.035156 22.484375 L 9.6875 22.484375 C 9.566406 22.484375 9.464844 22.402344 9.441406 22.28125 L 9.300781 21.554688 L 8.035156 21.03125 L 7.417969 21.445312 C 7.320312 21.511719 7.1875 21.5 7.101562 21.414062 L 6.152344 20.460938 C 6.066406 20.375 6.050781 20.242188 6.121094 20.144531 L 6.53125 19.527344 L 6.007812 18.265625 L 5.28125 18.121094 C 5.164062 18.097656 5.078125 17.996094 5.078125 17.875 L 5.078125 16.527344 C 5.078125 16.40625 5.164062 16.304688 5.28125 16.28125 Z M 7.929688 17.203125 C 7.929688 18.542969 9.019531 19.632812 10.363281 19.632812 C 11.707031 19.632812 12.792969 18.542969 12.792969 17.203125 C 12.792969 15.859375 11.707031 14.769531 10.363281 14.769531 C 9.019531 14.769531 7.929688 15.859375 7.929688 17.203125 Z M 31.207031 13.75 L 31.207031 27.667969 C 31.207031 28.242188 30.738281 28.710938 30.164062 28.710938 L 23.796875 28.710938 C 23.226562 28.710938 22.753906 28.242188 22.753906 27.667969 L 22.753906 13.75 C 22.753906 13.175781 23.226562 12.707031 23.796875 12.707031 L 30.164062 12.707031 C 30.738281 12.707031 31.207031 13.179688 31.207031 13.75 Z M 27.761719 26.738281 C 27.761719 26.507812 27.578125 26.324219 27.347656 26.324219 L 26.613281 26.324219 C 26.386719 26.324219 26.203125 26.507812 26.203125 26.738281 C 26.203125 26.964844 26.386719 27.152344 26.613281 27.152344 L 27.347656 27.152344 C 27.578125 27.148438 27.761719 26.964844 27.761719 26.738281 Z M 29.660156 20.710938 C 29.660156 19.234375 28.457031 18.03125 26.980469 18.03125 C 25.507812 18.03125 24.304688 19.234375 24.304688 20.710938 C 24.304688 22.183594 25.507812 23.386719 26.980469 23.386719 C 28.457031 23.386719 29.660156 22.183594 29.660156 20.710938 Z M 27.964844 19.523438 L 26.511719 20.976562 L 26.035156 20.355469 C 25.898438 20.171875 25.640625 20.136719 25.457031 20.277344 C 25.277344 20.414062 25.242188 20.675781 25.378906 20.855469 L 26.140625 21.855469 C 26.210938 21.949219 26.320312 22.007812 26.441406 22.015625 C 26.449219 22.015625 26.457031 22.015625 26.46875 22.015625 C 26.578125 22.015625 26.683594 21.972656 26.761719 21.898438 L 28.546875 20.109375 C 28.710938 19.945312 28.710938 19.6875 28.546875 19.523438 C 28.386719 19.363281 28.125 19.363281 27.964844 19.523438 Z M 27.964844 19.523438 " fill-opacity="1" fill-rule="evenodd"/></g></svg>