<svg xmlns="http://www.w3.org/2000/svg" xmlns:xlink="http://www.w3.org/1999/xlink" width="45" zoomAndPan="magnify" viewBox="0 0 33.75 33.749998" height="45" preserveAspectRatio="xMidYMid meet" version="1.0"><defs><clipPath id="7bbfd5ca51"><path d="M 3.996094 2.601562 L 29.308594 2.601562 L 29.308594 30.890625 L 3.996094 30.890625 Z M 3.996094 2.601562 " clip-rule="nonzero"/></clipPath></defs><g clip-path="url(#7bbfd5ca51)"><path fill="#c4942e" d="M 23.769531 6.035156 C 27.222656 8.316406 29.5 12.234375 29.5 16.679688 C 29.5 23.722656 23.789062 29.433594 16.746094 29.433594 C 15.695312 29.433594 14.667969 29.304688 13.691406 29.0625 L 14.730469 27.84375 C 15.382812 27.960938 16.058594 28.019531 16.746094 28.019531 C 23.011719 28.019531 28.085938 22.945312 28.085938 16.679688 C 28.085938 12.757812 26.089844 9.296875 23.058594 7.261719 Z M 24.617188 3.316406 C 24.695312 3.183594 24.695312 3.03125 24.617188 2.898438 C 24.539062 2.765625 24.40625 2.6875 24.253906 2.6875 L 16.601562 2.6875 C 16.445312 2.6875 16.3125 2.765625 16.238281 2.898438 L 7.289062 18.394531 C 7.210938 18.53125 7.210938 18.683594 7.289062 18.816406 C 7.367188 18.949219 7.5 19.023438 7.652344 19.023438 L 14.996094 19.023438 C 15.140625 19.023438 15.265625 19.09375 15.34375 19.214844 C 15.425781 19.335938 15.4375 19.476562 15.378906 19.609375 L 10.839844 30.183594 C 10.757812 30.375 10.824219 30.59375 11.003906 30.703125 C 11.179688 30.816406 11.40625 30.78125 11.542969 30.621094 L 26.160156 13.460938 C 26.269531 13.335938 26.292969 13.164062 26.222656 13.015625 C 26.152344 12.863281 26.007812 12.769531 25.84375 12.769531 L 19.886719 12.769531 C 19.730469 12.769531 19.601562 12.695312 19.523438 12.5625 C 19.445312 12.425781 19.445312 12.273438 19.523438 12.140625 Z M 11.054688 28.09375 L 11.613281 26.796875 C 7.929688 24.921875 5.40625 21.097656 5.40625 16.679688 C 5.40625 11.402344 9.011719 6.96875 13.898438 5.703125 L 14.839844 4.070312 C 8.703125 4.992188 3.996094 10.289062 3.996094 16.679688 C 3.996094 21.679688 6.871094 26.003906 11.054688 28.09375 Z M 11.054688 28.09375 " fill-opacity="1" fill-rule="evenodd"/></g></svg>