<svg xmlns="http://www.w3.org/2000/svg" xmlns:xlink="http://www.w3.org/1999/xlink" width="45" zoomAndPan="magnify" viewBox="0 0 33.75 33.749998" height="45" preserveAspectRatio="xMidYMid meet" version="1.0"><defs><clipPath id="7bc7051566"><path d="M 1.015625 0.859375 L 32.285156 0.859375 L 32.285156 32.871094 L 1.015625 32.871094 Z M 1.015625 0.859375 " clip-rule="nonzero"/></clipPath></defs><g clip-path="url(#7bc7051566)"><path fill="#c4942e" d="M 10.785156 22.007812 L 10.785156 17.714844 L 9.4375 17.714844 C 9.308594 17.714844 9.1875 17.675781 9.082031 17.609375 C 8.980469 17.542969 8.898438 17.445312 8.847656 17.324219 C 8.792969 17.207031 8.777344 17.082031 8.800781 16.957031 C 8.820312 16.835938 8.875 16.722656 8.964844 16.625 L 13.023438 12.261719 C 13.085938 12.195312 13.15625 12.140625 13.238281 12.109375 C 13.320312 12.070312 13.40625 12.054688 13.496094 12.054688 C 13.585938 12.054688 13.671875 12.070312 13.753906 12.109375 C 13.835938 12.140625 13.910156 12.195312 13.96875 12.261719 L 18.027344 16.625 C 18.117188 16.722656 18.171875 16.835938 18.191406 16.957031 C 18.214844 17.082031 18.199219 17.207031 18.144531 17.324219 C 18.09375 17.445312 18.011719 17.542969 17.90625 17.609375 C 17.804688 17.675781 17.683594 17.714844 17.554688 17.714844 L 16.207031 17.714844 L 16.207031 22.007812 C 16.207031 22.230469 16.023438 22.414062 15.800781 22.414062 L 11.191406 22.414062 C 10.964844 22.414062 10.785156 22.230469 10.785156 22.007812 Z M 32.367188 15.167969 C 32.359375 15.097656 32.328125 15.039062 32.28125 15 C 32.234375 14.957031 32.171875 14.929688 32.105469 14.929688 L 32.105469 14.933594 L 30.777344 14.933594 C 30.550781 14.933594 30.335938 14.863281 30.160156 14.738281 C 30.136719 14.722656 30.113281 14.703125 30.089844 14.683594 C 30.050781 14.71875 30.015625 14.75 29.980469 14.78125 C 29.402344 15.273438 28.972656 15.644531 28.972656 16.890625 L 28.972656 18.132812 C 28.972656 18.609375 28.78125 19.039062 28.46875 19.347656 C 28.226562 19.589844 27.914062 19.761719 27.5625 19.824219 L 27.5625 21.765625 C 27.5625 22.429688 27.265625 23.027344 26.785156 23.464844 C 26.3125 23.890625 25.671875 24.152344 24.960938 24.152344 L 23.742188 24.152344 C 22.839844 25.027344 21.777344 25.730469 20.597656 26.21875 C 19.410156 26.710938 18.109375 26.980469 16.75 26.980469 C 13.972656 26.980469 11.457031 25.855469 9.636719 24.035156 C 7.8125 22.214844 6.6875 19.699219 6.6875 16.921875 C 6.6875 14.28125 7.710938 11.875 9.375 10.078125 C 10.984375 8.34375 13.203125 7.179688 15.6875 6.917969 C 16.03125 5.234375 16.863281 3.730469 18.035156 2.5625 C 18.257812 2.335938 18.492188 2.125 18.742188 1.925781 L 18.742188 1.566406 L 18.738281 1.566406 C 18.738281 1.496094 18.714844 1.433594 18.671875 1.386719 C 18.632812 1.34375 18.574219 1.3125 18.503906 1.304688 C 17.925781 1.238281 17.339844 1.207031 16.75 1.207031 C 16.160156 1.207031 15.574219 1.238281 14.996094 1.304688 C 14.925781 1.3125 14.867188 1.34375 14.824219 1.386719 C 14.78125 1.433594 14.757812 1.5 14.757812 1.566406 L 14.757812 2.894531 L 14.761719 2.894531 C 14.761719 3.148438 14.671875 3.382812 14.523438 3.570312 C 14.371094 3.757812 14.15625 3.894531 13.910156 3.949219 C 13.140625 4.113281 12.390625 4.347656 11.660156 4.648438 C 10.945312 4.945312 10.25 5.308594 9.582031 5.738281 C 9.367188 5.875 9.121094 5.929688 8.882812 5.902344 C 8.644531 5.878906 8.414062 5.773438 8.234375 5.59375 L 7.296875 4.65625 C 7.25 4.605469 7.1875 4.582031 7.125 4.578125 C 7.0625 4.574219 6.996094 4.59375 6.945312 4.636719 C 6.71875 4.816406 6.496094 5.003906 6.273438 5.203125 C 6.070312 5.386719 5.859375 5.585938 5.636719 5.808594 C 5.414062 6.03125 5.214844 6.242188 5.03125 6.445312 C 4.832031 6.667969 4.640625 6.894531 4.460938 7.117188 C 4.421875 7.171875 4.398438 7.234375 4.402344 7.296875 C 4.40625 7.355469 4.429688 7.410156 4.46875 7.457031 C 4.476562 7.460938 4.480469 7.46875 4.484375 7.472656 L 5.421875 8.40625 C 5.601562 8.585938 5.707031 8.816406 5.730469 9.058594 C 5.757812 9.292969 5.703125 9.539062 5.566406 9.753906 C 5.136719 10.421875 4.773438 11.121094 4.476562 11.835938 C 4.175781 12.5625 3.941406 13.316406 3.773438 14.082031 C 3.71875 14.332031 3.582031 14.542969 3.394531 14.695312 C 3.210938 14.84375 2.972656 14.933594 2.71875 14.933594 L 2.71875 14.929688 L 1.394531 14.929688 L 1.394531 14.933594 C 1.324219 14.933594 1.261719 14.957031 1.214844 15 C 1.171875 15.039062 1.136719 15.097656 1.128906 15.167969 C 1.066406 15.746094 1.035156 16.332031 1.035156 16.921875 C 1.035156 17.511719 1.066406 18.097656 1.128906 18.675781 C 1.136719 18.746094 1.171875 18.804688 1.214844 18.847656 C 1.261719 18.890625 1.324219 18.914062 1.394531 18.914062 L 2.71875 18.914062 L 2.71875 18.910156 C 2.972656 18.910156 3.210938 19 3.398438 19.148438 C 3.582031 19.300781 3.722656 19.515625 3.773438 19.761719 C 3.941406 20.53125 4.175781 21.28125 4.476562 22.011719 C 4.773438 22.726562 5.136719 23.421875 5.566406 24.089844 C 5.703125 24.304688 5.757812 24.550781 5.730469 24.789062 C 5.707031 25.027344 5.601562 25.257812 5.421875 25.4375 L 4.484375 26.375 C 4.433594 26.421875 4.40625 26.484375 4.402344 26.546875 C 4.398438 26.609375 4.421875 26.675781 4.460938 26.726562 C 4.640625 26.953125 4.832031 27.175781 5.03125 27.398438 C 5.210938 27.601562 5.414062 27.8125 5.636719 28.035156 C 5.859375 28.257812 6.070312 28.460938 6.273438 28.640625 C 6.496094 28.839844 6.71875 29.03125 6.945312 29.210938 C 6.996094 29.25 7.0625 29.269531 7.125 29.265625 C 7.183594 29.265625 7.238281 29.242188 7.285156 29.203125 C 7.289062 29.195312 7.292969 29.191406 7.296875 29.1875 L 8.234375 28.25 C 8.414062 28.070312 8.644531 27.964844 8.882812 27.9375 C 9.121094 27.914062 9.367188 27.96875 9.582031 28.105469 C 10.25 28.535156 10.945312 28.898438 11.660156 29.195312 C 12.390625 29.496094 13.140625 29.730469 13.910156 29.898438 C 14.15625 29.953125 14.371094 30.089844 14.523438 30.273438 C 14.671875 30.460938 14.757812 30.695312 14.757812 30.953125 L 14.757812 32.277344 L 14.761719 32.277344 C 14.761719 32.347656 14.785156 32.410156 14.824219 32.453125 C 14.867188 32.5 14.925781 32.535156 14.996094 32.542969 C 15.574219 32.605469 16.160156 32.640625 16.75 32.640625 C 17.339844 32.640625 17.925781 32.605469 18.503906 32.542969 C 18.574219 32.535156 18.632812 32.5 18.671875 32.453125 C 18.714844 32.410156 18.738281 32.347656 18.738281 32.277344 L 18.738281 30.953125 C 18.738281 30.699219 18.828125 30.460938 18.976562 30.273438 C 19.128906 30.089844 19.339844 29.953125 19.589844 29.898438 C 20.355469 29.730469 21.109375 29.496094 21.835938 29.195312 C 22.554688 28.898438 23.25 28.535156 23.917969 28.105469 C 24.132812 27.96875 24.378906 27.914062 24.617188 27.9375 C 24.855469 27.964844 25.085938 28.070312 25.265625 28.25 L 26.203125 29.1875 C 26.25 29.234375 26.3125 29.265625 26.375 29.265625 C 26.4375 29.269531 26.5 29.25 26.554688 29.210938 C 26.78125 29.03125 27.003906 28.839844 27.226562 28.640625 C 27.429688 28.460938 27.640625 28.257812 27.863281 28.035156 C 28.085938 27.8125 28.285156 27.601562 28.46875 27.398438 C 28.667969 27.175781 28.855469 26.953125 29.035156 26.726562 C 29.078125 26.675781 29.097656 26.609375 29.09375 26.546875 C 29.089844 26.484375 29.0625 26.421875 29.015625 26.375 L 28.078125 25.4375 C 27.898438 25.253906 27.792969 25.027344 27.765625 24.789062 C 27.742188 24.550781 27.792969 24.304688 27.933594 24.089844 C 28.363281 23.421875 28.726562 22.726562 29.023438 22.011719 C 29.324219 21.28125 29.558594 20.53125 29.722656 19.761719 C 29.777344 19.511719 29.914062 19.300781 30.101562 19.148438 C 30.289062 19 30.523438 18.910156 30.777344 18.910156 L 32.105469 18.910156 C 32.175781 18.910156 32.238281 18.886719 32.28125 18.847656 C 32.328125 18.804688 32.359375 18.746094 32.367188 18.675781 C 32.433594 18.097656 32.464844 17.511719 32.464844 16.921875 C 32.464844 16.332031 32.433594 15.746094 32.367188 15.167969 Z M 25.15625 9.074219 C 25.15625 8.785156 25.042969 8.527344 24.851562 8.335938 C 24.664062 8.148438 24.398438 8.03125 24.109375 8.03125 C 23.820312 8.03125 23.5625 8.148438 23.371094 8.335938 C 23.179688 8.527344 23.0625 8.785156 23.0625 9.074219 C 23.0625 9.367188 23.179688 9.628906 23.371094 9.816406 C 23.5625 10.007812 23.820312 10.121094 24.109375 10.121094 C 24.398438 10.121094 24.664062 10.007812 24.851562 9.816406 C 25.042969 9.628906 25.15625 9.367188 25.15625 9.074219 Z M 18.609375 3.136719 C 20.015625 1.726562 21.960938 0.855469 24.109375 0.855469 C 26.257812 0.855469 28.203125 1.726562 29.613281 3.136719 C 31.019531 4.546875 31.890625 6.488281 31.890625 8.636719 C 31.890625 9.402344 31.78125 10.140625 31.578125 10.835938 C 31.367188 11.554688 31.050781 12.230469 30.652344 12.851562 C 30.394531 13.25 30.132812 13.539062 29.878906 13.78125 C 29.871094 13.789062 29.867188 13.792969 29.859375 13.800781 C 29.71875 13.933594 29.582031 14.050781 29.449219 14.164062 C 28.710938 14.796875 28.15625 15.269531 28.15625 16.890625 L 28.15625 18.136719 C 28.15625 18.382812 28.054688 18.609375 27.890625 18.773438 C 27.730469 18.9375 27.5 19.039062 27.253906 19.039062 L 24.519531 19.039062 L 24.519531 10.894531 C 24.867188 10.816406 25.183594 10.640625 25.429688 10.394531 C 25.765625 10.054688 25.972656 9.589844 25.972656 9.074219 C 25.972656 8.5625 25.765625 8.097656 25.429688 7.761719 C 25.089844 7.421875 24.625 7.214844 24.109375 7.214844 C 23.597656 7.214844 23.128906 7.421875 22.792969 7.761719 C 22.457031 8.097656 22.25 8.5625 22.25 9.074219 C 22.25 9.589844 22.457031 10.054688 22.792969 10.394531 C 23.039062 10.640625 23.351562 10.816406 23.703125 10.894531 L 23.703125 19.039062 L 20.96875 19.039062 C 20.71875 19.039062 20.492188 18.9375 20.332031 18.773438 C 20.164062 18.609375 20.0625 18.382812 20.0625 18.136719 L 20.0625 16.890625 C 20.0625 15.269531 19.511719 14.796875 18.769531 14.164062 C 18.402344 13.847656 17.976562 13.480469 17.566406 12.851562 C 17.171875 12.230469 16.855469 11.554688 16.644531 10.835938 C 16.441406 10.140625 16.332031 9.402344 16.332031 8.636719 C 16.332031 6.488281 17.203125 4.546875 18.609375 3.136719 Z M 26.707031 7.578125 C 26.820312 7.769531 27.070312 7.839844 27.261719 7.726562 L 28.878906 6.792969 C 29.074219 6.679688 29.140625 6.429688 29.027344 6.234375 C 28.914062 6.042969 28.667969 5.976562 28.472656 6.089844 L 26.855469 7.023438 C 26.660156 7.136719 26.59375 7.382812 26.707031 7.578125 Z M 26.855469 11.128906 L 28.472656 12.0625 C 28.667969 12.175781 28.914062 12.109375 29.027344 11.917969 C 29.140625 11.722656 29.074219 11.472656 28.878906 11.363281 L 27.261719 10.425781 C 27.070312 10.3125 26.820312 10.382812 26.707031 10.574219 C 26.59375 10.769531 26.660156 11.019531 26.855469 11.128906 Z M 23.703125 5.671875 C 23.703125 5.894531 23.886719 6.078125 24.109375 6.078125 C 24.335938 6.078125 24.519531 5.894531 24.519531 5.671875 L 24.519531 3.804688 C 24.519531 3.582031 24.335938 3.394531 24.109375 3.394531 C 23.886719 3.394531 23.703125 3.582031 23.703125 3.804688 Z M 19.34375 6.792969 L 20.960938 7.726562 C 21.15625 7.835938 21.402344 7.769531 21.511719 7.574219 C 21.625 7.382812 21.558594 7.132812 21.363281 7.023438 L 19.746094 6.089844 C 19.554688 5.976562 19.304688 6.042969 19.191406 6.238281 C 19.082031 6.433594 19.148438 6.679688 19.34375 6.792969 Z M 19.191406 11.914062 C 19.304688 12.109375 19.554688 12.175781 19.746094 12.0625 L 21.363281 11.128906 C 21.558594 11.019531 21.625 10.769531 21.511719 10.578125 C 21.402344 10.382812 21.15625 10.316406 20.960938 10.425781 L 19.34375 11.363281 C 19.148438 11.472656 19.082031 11.71875 19.191406 11.914062 Z M 21.472656 21.765625 C 21.472656 22.191406 21.667969 22.578125 21.980469 22.863281 C 22.308594 23.15625 22.757812 23.335938 23.257812 23.335938 L 24.960938 23.335938 C 25.464844 23.335938 25.914062 23.15625 26.242188 22.863281 C 26.554688 22.578125 26.75 22.191406 26.75 21.765625 L 26.75 19.851562 L 21.472656 19.851562 Z M 21.472656 21.765625 " fill-opacity="1" fill-rule="nonzero"/></g></svg>