<svg xmlns="http://www.w3.org/2000/svg" xmlns:xlink="http://www.w3.org/1999/xlink" width="45" zoomAndPan="magnify" viewBox="0 0 33.75 33.749998" height="45" preserveAspectRatio="xMidYMid meet" version="1.0"><defs><clipPath id="6c35e9a84e"><path d="M 3.65625 19 L 29.714844 19 L 29.714844 31.9375 L 3.65625 31.9375 Z M 3.65625 19 " clip-rule="nonzero"/></clipPath><clipPath id="f8fe38da82"><path d="M 10 1.414062 L 24 1.414062 L 24 10 L 10 10 Z M 10 1.414062 " clip-rule="nonzero"/></clipPath></defs><g clip-path="url(#6c35e9a84e)"><path fill="#c4942e" d="M 27.503906 21.082031 C 27.535156 20.910156 27.675781 20.78125 27.84375 20.757812 L 29.839844 20.460938 L 29.839844 19.402344 L 24.605469 19.402344 C 24.394531 23.546875 20.953125 26.863281 16.75 26.863281 C 12.546875 26.863281 9.105469 23.554688 8.894531 19.402344 L 3.65625 19.402344 L 3.65625 20.460938 L 5.65625 20.757812 C 5.828125 20.78125 5.960938 20.910156 5.996094 21.082031 C 6.089844 21.578125 6.222656 22.078125 6.390625 22.558594 C 6.449219 22.722656 6.398438 22.902344 6.257812 23.011719 L 4.671875 24.261719 L 6.140625 26.8125 L 8.019531 26.0625 C 8.179688 26 8.363281 26.042969 8.480469 26.171875 C 8.8125 26.554688 9.175781 26.917969 9.558594 27.25 C 9.6875 27.367188 9.730469 27.550781 9.667969 27.710938 L 8.917969 29.589844 L 11.46875 31.058594 L 12.71875 29.472656 C 12.828125 29.339844 13.007812 29.28125 13.171875 29.339844 C 13.652344 29.503906 14.148438 29.640625 14.648438 29.734375 C 14.820312 29.769531 14.949219 29.90625 14.972656 30.074219 L 15.265625 32.074219 L 18.210938 32.074219 L 18.503906 30.074219 C 18.53125 29.902344 18.660156 29.769531 18.832031 29.734375 C 19.328125 29.640625 19.828125 29.503906 20.304688 29.339844 C 20.472656 29.28125 20.652344 29.332031 20.761719 29.472656 L 22.011719 31.058594 L 24.558594 29.589844 L 23.8125 27.710938 C 23.75 27.550781 23.792969 27.367188 23.921875 27.25 C 24.304688 26.917969 24.667969 26.554688 25 26.171875 C 25.117188 26.042969 25.300781 26 25.460938 26.0625 L 27.339844 26.8125 L 28.808594 24.261719 L 27.222656 23.011719 C 27.089844 22.902344 27.03125 22.722656 27.089844 22.558594 C 27.273438 22.070312 27.410156 21.574219 27.503906 21.082031 Z M 27.503906 21.082031 " fill-opacity="1" fill-rule="nonzero"/></g><path fill="#c4942e" d="M 16.75 26.039062 C 20.5 26.039062 23.578125 23.09375 23.789062 19.394531 L 9.710938 19.394531 C 9.921875 23.09375 12.992188 26.039062 16.75 26.039062 Z M 16.75 26.039062 " fill-opacity="1" fill-rule="nonzero"/><path fill="#c4942e" d="M 24.929688 6.546875 C 24.929688 6.429688 24.835938 6.335938 24.71875 6.335938 L 23.789062 6.335938 C 23.671875 6.335938 23.578125 6.429688 23.578125 6.546875 L 23.578125 18.578125 L 24.925781 18.578125 L 24.925781 6.546875 Z M 24.929688 6.546875 " fill-opacity="1" fill-rule="nonzero"/><path fill="#c4942e" d="M 19.207031 7.933594 C 19.09375 7.933594 18.996094 8.027344 18.996094 8.144531 L 18.996094 18.585938 L 20.34375 18.585938 L 20.34375 8.144531 C 20.34375 8.027344 20.25 7.933594 20.132812 7.933594 Z M 19.207031 7.933594 " fill-opacity="1" fill-rule="nonzero"/><path fill="#c4942e" d="M 14.628906 9.839844 C 14.515625 9.839844 14.417969 9.9375 14.417969 10.050781 L 14.417969 18.578125 L 15.765625 18.578125 L 15.765625 10.050781 C 15.765625 9.9375 15.667969 9.839844 15.554688 9.839844 Z M 14.628906 9.839844 " fill-opacity="1" fill-rule="nonzero"/><path fill="#c4942e" d="M 11.1875 12.28125 C 11.1875 12.167969 11.089844 12.070312 10.976562 12.070312 L 10.050781 12.070312 C 9.933594 12.070312 9.839844 12.167969 9.839844 12.28125 L 9.839844 18.578125 L 11.1875 18.578125 Z M 11.1875 12.28125 " fill-opacity="1" fill-rule="nonzero"/><g clip-path="url(#f8fe38da82)"><path fill="#c4942e" d="M 11 9.414062 C 11.03125 9.414062 11.066406 9.40625 11.097656 9.402344 C 16.039062 8.195312 19.0625 6.269531 20.726562 4.871094 C 21.488281 4.234375 22.039062 3.648438 22.425781 3.167969 L 22.414062 4.082031 C 22.40625 4.304688 22.59375 4.488281 22.816406 4.496094 L 22.824219 4.496094 C 23.046875 4.496094 23.226562 4.316406 23.230469 4.09375 L 23.261719 1.839844 L 23.261719 1.832031 C 23.261719 1.820312 23.261719 1.800781 23.261719 1.789062 C 23.261719 1.773438 23.257812 1.761719 23.257812 1.742188 C 23.257812 1.742188 23.257812 1.738281 23.257812 1.738281 C 23.257812 1.722656 23.25 1.710938 23.246094 1.699219 C 23.238281 1.6875 23.230469 1.667969 23.226562 1.652344 C 23.21875 1.640625 23.210938 1.632812 23.207031 1.621094 C 23.207031 1.617188 23.199219 1.609375 23.191406 1.601562 C 23.1875 1.597656 23.1875 1.589844 23.179688 1.582031 C 23.175781 1.578125 23.167969 1.566406 23.160156 1.558594 C 23.160156 1.550781 23.15625 1.550781 23.148438 1.546875 C 23.140625 1.539062 23.140625 1.539062 23.136719 1.53125 C 23.128906 1.527344 23.121094 1.519531 23.109375 1.511719 C 23.105469 1.507812 23.097656 1.507812 23.089844 1.5 C 23.078125 1.496094 23.066406 1.480469 23.058594 1.476562 C 23.050781 1.46875 23.046875 1.46875 23.039062 1.460938 C 23.027344 1.457031 23.007812 1.449219 22.996094 1.441406 C 22.988281 1.441406 22.984375 1.4375 22.976562 1.4375 C 22.957031 1.429688 22.9375 1.425781 22.925781 1.425781 C 22.886719 1.417969 22.84375 1.417969 22.804688 1.425781 C 22.785156 1.425781 22.773438 1.429688 22.753906 1.4375 L 20.816406 1.953125 C 20.601562 2.011719 20.472656 2.234375 20.53125 2.453125 C 20.585938 2.667969 20.8125 2.796875 21.027344 2.738281 L 21.898438 2.503906 C 20.734375 3.972656 17.644531 6.949219 10.898438 8.597656 C 10.683594 8.648438 10.546875 8.871094 10.597656 9.085938 C 10.648438 9.285156 10.816406 9.414062 11 9.414062 Z M 11 9.414062 " fill-opacity="1" fill-rule="nonzero"/></g></svg>