<svg xmlns="http://www.w3.org/2000/svg" xmlns:xlink="http://www.w3.org/1999/xlink" width="45" zoomAndPan="magnify" viewBox="0 0 33.75 33.749998" height="45" preserveAspectRatio="xMidYMid meet" version="1.0"><defs><clipPath id="3eb4e2eb41"><path d="M 1.304688 1.304688 L 16 1.304688 L 16 16 L 1.304688 16 Z M 1.304688 1.304688 " clip-rule="nonzero"/></clipPath><clipPath id="acb88f1cb1"><path d="M 18 1.304688 L 32.570312 1.304688 L 32.570312 16 L 18 16 Z M 18 1.304688 " clip-rule="nonzero"/></clipPath><clipPath id="63e7488df8"><path d="M 1.304688 18 L 16 18 L 16 32.570312 L 1.304688 32.570312 Z M 1.304688 18 " clip-rule="nonzero"/></clipPath><clipPath id="d4ce13d3fe"><path d="M 18 18 L 32.570312 18 L 32.570312 32.570312 L 18 32.570312 Z M 18 18 " clip-rule="nonzero"/></clipPath></defs><g clip-path="url(#3eb4e2eb41)"><path fill="#c4942e" d="M 15.136719 4.5625 L 15.136719 1.304688 C 7.867188 2.0625 2.0625 7.867188 1.304688 15.136719 L 4.5625 15.136719 C 5.269531 9.640625 9.65625 5.269531 15.136719 4.5625 Z M 15.136719 4.5625 " fill-opacity="1" fill-rule="nonzero"/></g><g clip-path="url(#acb88f1cb1)"><path fill="#c4942e" d="M 28.941406 15.136719 L 32.199219 15.136719 C 31.441406 7.867188 25.636719 2.0625 18.363281 1.304688 L 18.363281 4.5625 C 23.863281 5.269531 28.230469 9.640625 28.941406 15.136719 Z M 28.941406 15.136719 " fill-opacity="1" fill-rule="nonzero"/></g><g clip-path="url(#63e7488df8)"><path fill="#c4942e" d="M 4.5625 18.363281 L 1.304688 18.363281 C 2.0625 25.636719 7.867188 31.441406 15.136719 32.199219 L 15.136719 28.941406 C 9.65625 28.230469 5.269531 23.847656 4.5625 18.363281 Z M 4.5625 18.363281 " fill-opacity="1" fill-rule="nonzero"/></g><g clip-path="url(#d4ce13d3fe)"><path fill="#c4942e" d="M 18.363281 28.941406 L 18.363281 32.199219 C 25.636719 31.441406 31.441406 25.636719 32.199219 18.363281 L 28.941406 18.363281 C 28.230469 23.847656 23.863281 28.230469 18.363281 28.941406 Z M 18.363281 28.941406 " fill-opacity="1" fill-rule="nonzero"/></g><path fill="#c4942e" d="M 26 16.746094 C 26 11.652344 21.855469 7.503906 16.757812 7.503906 C 11.660156 7.503906 7.515625 11.652344 7.515625 16.746094 C 7.515625 21.84375 11.660156 25.992188 16.757812 25.992188 C 21.855469 25.992188 26 21.84375 26 16.746094 Z M 16.753906 22.765625 C 13.4375 22.765625 10.738281 20.066406 10.738281 16.746094 C 10.738281 13.429688 13.4375 10.726562 16.753906 10.726562 C 20.070312 10.726562 22.773438 13.425781 22.773438 16.746094 C 22.773438 20.066406 20.074219 22.765625 16.753906 22.765625 Z M 16.753906 22.765625 " fill-opacity="1" fill-rule="nonzero"/><path fill="#c4942e" d="M 19.78125 16.746094 C 19.78125 17.148438 19.707031 17.535156 19.550781 17.90625 C 19.398438 18.277344 19.179688 18.601562 18.894531 18.886719 C 18.613281 19.171875 18.285156 19.386719 17.914062 19.542969 C 17.542969 19.695312 17.160156 19.773438 16.757812 19.773438 C 16.355469 19.773438 15.96875 19.695312 15.601562 19.542969 C 15.230469 19.386719 14.902344 19.171875 14.617188 18.886719 C 14.335938 18.601562 14.117188 18.277344 13.964844 17.90625 C 13.808594 17.535156 13.734375 17.148438 13.734375 16.746094 C 13.734375 16.347656 13.808594 15.960938 13.964844 15.589844 C 14.117188 15.21875 14.335938 14.890625 14.617188 14.609375 C 14.902344 14.324219 15.230469 14.105469 15.601562 13.953125 C 15.96875 13.800781 16.355469 13.722656 16.757812 13.722656 C 17.160156 13.722656 17.542969 13.800781 17.914062 13.953125 C 18.285156 14.105469 18.613281 14.324219 18.894531 14.609375 C 19.179688 14.890625 19.398438 15.21875 19.550781 15.589844 C 19.707031 15.960938 19.78125 16.347656 19.78125 16.746094 Z M 19.78125 16.746094 " fill-opacity="1" fill-rule="nonzero"/></svg>