<svg xmlns="http://www.w3.org/2000/svg" xmlns:xlink="http://www.w3.org/1999/xlink" width="45" zoomAndPan="magnify" viewBox="0 0 33.75 33.749998" height="45" preserveAspectRatio="xMidYMid meet" version="1.0"><defs><clipPath id="e48f137f36"><path d="M 1.265625 1.265625 L 32.535156 1.265625 L 32.535156 32.535156 L 1.265625 32.535156 Z M 1.265625 1.265625 " clip-rule="nonzero"/></clipPath></defs><path fill="#c4942e" d="M 16.75 7.949219 C 11.898438 7.949219 7.949219 11.898438 7.949219 16.75 C 7.949219 21.597656 11.898438 25.546875 16.75 25.546875 C 21.597656 25.546875 25.546875 21.597656 25.546875 16.75 C 25.546875 11.898438 21.597656 7.949219 16.75 7.949219 Z M 10.265625 20.320312 C 10.222656 20.34375 10.179688 20.355469 10.136719 20.355469 C 10.035156 20.355469 9.933594 20.296875 9.882812 20.195312 C 9.675781 19.78125 9.5 19.347656 9.367188 18.898438 C 9.320312 18.75 9.40625 18.589844 9.554688 18.542969 C 9.710938 18.496094 9.871094 18.582031 9.914062 18.730469 C 10.035156 19.148438 10.203125 19.554688 10.390625 19.9375 C 10.464844 20.078125 10.40625 20.25 10.265625 20.320312 Z M 11.773438 11.503906 C 11.117188 12.15625 9.96875 13.5625 9.675781 15.679688 C 9.613281 16.121094 9.59375 16.566406 9.617188 17.011719 C 9.625 17.164062 9.503906 17.304688 9.34375 17.308594 L 9.332031 17.308594 C 9.179688 17.308594 9.054688 17.195312 9.046875 17.039062 C 9.023438 16.558594 9.042969 16.082031 9.109375 15.605469 C 9.425781 13.316406 10.664062 11.800781 11.371094 11.097656 C 11.488281 10.988281 11.667969 10.988281 11.777344 11.105469 C 11.886719 11.210938 11.886719 11.394531 11.773438 11.503906 Z M 19.828125 17.152344 C 19.828125 17.628906 19.792969 18.089844 19.730469 18.53125 L 21.121094 18.53125 C 21.273438 18.53125 21.40625 18.65625 21.40625 18.816406 L 21.40625 20.976562 C 21.40625 21.128906 21.273438 21.261719 21.121094 21.261719 C 20.960938 21.261719 20.832031 21.128906 20.832031 20.976562 L 20.832031 19.101562 L 19.628906 19.101562 C 19.195312 21.152344 18.085938 22.582031 16.75 22.582031 L 16.730469 22.582031 C 15.40625 22.570312 14.304688 21.148438 13.867188 19.101562 L 12.664062 19.101562 L 12.664062 20.976562 C 12.664062 21.128906 12.539062 21.261719 12.378906 21.261719 C 12.222656 21.261719 12.09375 21.128906 12.09375 20.976562 L 12.09375 18.816406 C 12.09375 18.65625 12.222656 18.53125 12.378906 18.53125 L 13.765625 18.53125 C 13.703125 18.089844 13.667969 17.628906 13.667969 17.152344 C 13.667969 17.050781 13.675781 16.953125 13.675781 16.855469 L 12.355469 16.855469 C 12.199219 16.855469 12.070312 16.730469 12.070312 16.570312 C 12.070312 16.410156 12.199219 16.285156 12.355469 16.285156 L 13.710938 16.285156 C 13.761719 15.691406 13.863281 15.125 14.011719 14.613281 L 12.378906 14.613281 C 12.222656 14.613281 12.09375 14.484375 12.09375 14.324219 L 12.09375 12.167969 C 12.09375 12.007812 12.222656 11.882812 12.378906 11.882812 C 12.539062 11.882812 12.664062 12.007812 12.664062 12.167969 L 12.664062 14.039062 L 14.207031 14.039062 C 14.480469 13.34375 14.847656 12.765625 15.273438 12.359375 C 15.207031 12.195312 15.121094 12.039062 15 11.914062 C 14.714844 11.605469 14.359375 11.515625 14.175781 11.480469 C 14.019531 11.457031 13.914062 11.308594 13.9375 11.15625 C 13.964844 11 14.109375 10.890625 14.269531 10.921875 C 14.519531 10.960938 15.011719 11.09375 15.417969 11.519531 C 15.546875 11.664062 15.652344 11.828125 15.742188 12.011719 C 16.058594 11.824219 16.394531 11.722656 16.75 11.722656 C 17.101562 11.722656 17.441406 11.824219 17.753906 12.011719 C 17.84375 11.828125 17.949219 11.664062 18.078125 11.519531 C 18.484375 11.09375 18.976562 10.960938 19.226562 10.921875 C 19.386719 10.890625 19.53125 11 19.558594 11.15625 C 19.582031 11.308594 19.480469 11.457031 19.320312 11.480469 C 19.136719 11.515625 18.78125 11.605469 18.496094 11.914062 C 18.375 12.039062 18.292969 12.195312 18.222656 12.359375 C 18.652344 12.765625 19.015625 13.34375 19.289062 14.039062 L 20.832031 14.039062 L 20.832031 12.167969 C 20.832031 12.007812 20.960938 11.882812 21.121094 11.882812 C 21.273438 11.882812 21.40625 12.007812 21.40625 12.167969 L 21.40625 14.324219 C 21.40625 14.484375 21.273438 14.613281 21.121094 14.613281 L 19.484375 14.613281 C 19.632812 15.125 19.738281 15.691406 19.789062 16.285156 L 21.140625 16.285156 C 21.296875 16.285156 21.429688 16.410156 21.429688 16.570312 C 21.429688 16.730469 21.296875 16.855469 21.140625 16.855469 L 19.824219 16.855469 C 19.824219 16.953125 19.828125 17.050781 19.828125 17.152344 Z M 19.828125 17.152344 " fill-opacity="1" fill-rule="nonzero"/><g clip-path="url(#e48f137f36)"><path fill="#c4942e" d="M 30.058594 14.0625 C 29.027344 13.839844 28.203125 13.148438 27.796875 12.171875 C 27.390625 11.195312 27.488281 10.121094 28.0625 9.234375 C 28.890625 7.945312 28.472656 6.585938 27.691406 5.808594 C 26.914062 5.023438 25.554688 4.609375 24.261719 5.4375 C 23.375 6.007812 22.300781 6.105469 21.324219 5.699219 C 20.347656 5.292969 19.65625 4.472656 19.433594 3.4375 C 19.109375 1.941406 17.851562 1.269531 16.75 1.269531 C 15.644531 1.269531 14.390625 1.941406 14.0625 3.4375 C 13.839844 4.472656 13.148438 5.292969 12.171875 5.699219 C 11.195312 6.105469 10.121094 6.007812 9.234375 5.4375 C 7.945312 4.609375 6.585938 5.023438 5.808594 5.808594 C 5.023438 6.585938 4.609375 7.945312 5.4375 9.234375 C 6.007812 10.121094 6.105469 11.195312 5.699219 12.171875 C 5.292969 13.148438 4.472656 13.839844 3.4375 14.0625 C 1.941406 14.390625 1.269531 15.644531 1.269531 16.75 C 1.269531 17.851562 1.941406 19.109375 3.4375 19.433594 C 4.472656 19.65625 5.292969 20.347656 5.699219 21.324219 C 6.105469 22.300781 6.007812 23.375 5.4375 24.261719 C 4.609375 25.554688 5.023438 26.914062 5.808594 27.691406 C 6.585938 28.472656 7.945312 28.890625 9.234375 28.0625 C 10.121094 27.488281 11.195312 27.390625 12.171875 27.796875 C 13.148438 28.203125 13.839844 29.027344 14.0625 30.058594 C 14.390625 31.558594 15.644531 32.226562 16.75 32.226562 C 17.851562 32.226562 19.109375 31.558594 19.433594 30.058594 C 19.65625 29.027344 20.347656 28.203125 21.324219 27.796875 C 22.300781 27.390625 23.375 27.488281 24.261719 28.0625 C 25.554688 28.890625 26.914062 28.472656 27.691406 27.691406 C 28.472656 26.914062 28.890625 25.554688 28.0625 24.261719 C 27.488281 23.375 27.390625 22.300781 27.796875 21.324219 C 28.203125 20.347656 29.027344 19.65625 30.058594 19.433594 C 31.558594 19.109375 32.226562 17.851562 32.226562 16.75 C 32.226562 15.644531 31.558594 14.390625 30.058594 14.0625 Z M 29.941406 18.875 C 28.722656 19.140625 27.746094 19.953125 27.273438 21.109375 C 26.792969 22.261719 26.90625 23.523438 27.582031 24.570312 C 28.277344 25.660156 27.859375 26.71875 27.289062 27.289062 C 26.71875 27.859375 25.660156 28.277344 24.570312 27.582031 C 23.523438 26.90625 22.261719 26.792969 21.109375 27.273438 C 19.953125 27.746094 19.140625 28.722656 18.875 29.941406 C 18.601562 31.203125 17.558594 31.65625 16.75 31.65625 C 15.9375 31.65625 14.898438 31.203125 14.625 29.941406 C 14.355469 28.722656 13.542969 27.746094 12.390625 27.273438 C 11.921875 27.078125 11.429688 26.980469 10.945312 26.980469 C 10.242188 26.980469 9.542969 27.179688 8.925781 27.582031 C 7.835938 28.277344 6.777344 27.859375 6.207031 27.289062 C 5.636719 26.71875 5.21875 25.660156 5.917969 24.570312 C 6.589844 23.523438 6.703125 22.261719 6.226562 21.109375 C 5.75 19.953125 4.773438 19.140625 3.558594 18.875 C 2.292969 18.601562 1.84375 17.558594 1.84375 16.75 C 1.84375 15.9375 2.292969 14.898438 3.558594 14.625 C 4.773438 14.355469 5.75 13.542969 6.226562 12.390625 C 6.703125 11.234375 6.589844 9.972656 5.917969 8.925781 C 5.21875 7.835938 5.636719 6.777344 6.207031 6.207031 C 6.777344 5.636719 7.835938 5.21875 8.925781 5.917969 C 9.972656 6.589844 11.234375 6.703125 12.390625 6.226562 C 13.542969 5.75 14.355469 4.773438 14.625 3.558594 C 14.898438 2.292969 15.9375 1.84375 16.75 1.84375 C 17.558594 1.84375 18.601562 2.292969 18.875 3.558594 C 19.140625 4.773438 19.953125 5.75 21.109375 6.226562 C 22.261719 6.703125 23.523438 6.589844 24.570312 5.917969 C 25.660156 5.21875 26.71875 5.636719 27.289062 6.207031 C 27.859375 6.777344 28.277344 7.835938 27.582031 8.925781 C 26.90625 9.972656 26.792969 11.234375 27.273438 12.390625 C 27.746094 13.542969 28.722656 14.355469 29.941406 14.625 C 31.203125 14.898438 31.65625 15.9375 31.65625 16.75 C 31.65625 17.558594 31.203125 18.601562 29.941406 18.875 Z M 29.941406 18.875 " fill-opacity="1" fill-rule="nonzero"/></g><path fill="#c4942e" d="M 16.75 12.292969 C 16.113281 12.292969 15.527344 12.785156 15.074219 13.566406 C 15.359375 13.8125 15.929688 14.199219 16.738281 14.207031 C 17.535156 14.207031 18.132812 13.8125 18.417969 13.566406 C 17.972656 12.785156 17.382812 12.292969 16.75 12.292969 Z M 16.75 12.292969 " fill-opacity="1" fill-rule="nonzero"/><path fill="#c4942e" d="M 14.242188 17.152344 C 14.242188 19.59375 15.222656 21.679688 16.453125 21.96875 L 16.453125 14.753906 C 15.707031 14.679688 15.148438 14.355469 14.816406 14.09375 C 14.457031 14.933594 14.242188 16.007812 14.242188 17.152344 Z M 14.242188 17.152344 " fill-opacity="1" fill-rule="nonzero"/><path fill="#c4942e" d="M 17.023438 14.753906 L 17.023438 21.976562 C 18.261719 21.703125 19.257812 19.605469 19.257812 17.152344 C 19.257812 16.007812 19.039062 14.933594 18.679688 14.09375 C 18.34375 14.359375 17.777344 14.6875 17.023438 14.753906 Z M 17.023438 14.753906 " fill-opacity="1" fill-rule="nonzero"/></svg>