<svg xmlns="http://www.w3.org/2000/svg" xmlns:xlink="http://www.w3.org/1999/xlink" width="45" zoomAndPan="magnify" viewBox="0 0 33.75 33.749998" height="45" preserveAspectRatio="xMidYMid meet" version="1.0"><defs><clipPath id="458e7f6b26"><path d="M 2 2 L 32.234375 2 L 32.234375 17 L 2 17 Z M 2 2 " clip-rule="nonzero"/></clipPath><clipPath id="8b1ea4fcd4"><path d="M 0.96875 15 L 30 15 L 30 31 L 0.96875 31 Z M 0.96875 15 " clip-rule="nonzero"/></clipPath></defs><g clip-path="url(#458e7f6b26)"><path fill="#c4942e" d="M 30.863281 13.449219 C 30.808594 13.449219 30.753906 13.449219 30.699219 13.414062 L 28.851562 12.523438 L 27.003906 13.414062 C 26.871094 13.484375 26.726562 13.46875 26.613281 13.375 C 26.503906 13.300781 26.449219 13.152344 26.464844 13.023438 L 26.742188 10.992188 L 25.320312 9.496094 C 25.210938 9.402344 25.191406 9.253906 25.226562 9.125 C 25.265625 8.996094 25.375 8.886719 25.523438 8.867188 L 27.539062 8.496094 L 28.515625 6.6875 C 28.589844 6.558594 28.722656 6.484375 28.851562 6.484375 C 28.996094 6.484375 29.128906 6.558594 29.183594 6.6875 L 30.160156 8.496094 L 32.175781 8.867188 C 32.324219 8.886719 32.433594 8.996094 32.472656 9.125 C 32.527344 9.253906 32.488281 9.402344 32.398438 9.496094 L 30.976562 10.992188 L 31.253906 13.023438 C 31.269531 13.152344 31.214844 13.300781 31.085938 13.375 C 31.03125 13.429688 30.957031 13.449219 30.863281 13.449219 Z M 12.941406 15.09375 C 12.867188 15.09375 12.792969 15.074219 12.71875 15.019531 C 12.609375 14.945312 12.554688 14.796875 12.570312 14.667969 L 13.089844 10.789062 L 10.390625 7.960938 C 10.300781 7.867188 10.261719 7.722656 10.300781 7.59375 C 10.355469 7.445312 10.464844 7.351562 10.59375 7.332031 L 14.457031 6.632812 L 16.304688 3.195312 C 16.359375 3.066406 16.488281 2.992188 16.636719 2.992188 C 16.765625 2.992188 16.894531 3.066406 16.96875 3.195312 L 18.816406 6.632812 L 22.660156 7.332031 C 22.808594 7.351562 22.917969 7.445312 22.957031 7.59375 C 23.011719 7.722656 22.972656 7.867188 22.882812 7.960938 L 20.164062 10.789062 L 20.703125 14.667969 C 20.71875 14.796875 20.664062 14.945312 20.535156 15.019531 C 20.425781 15.09375 20.277344 15.113281 20.148438 15.058594 L 16.636719 13.355469 L 13.105469 15.058594 C 13.050781 15.074219 12.996094 15.09375 12.941406 15.09375 Z M 3.757812 16.089844 C 3.664062 16.089844 3.589844 16.074219 3.535156 16.015625 C 3.40625 15.945312 3.351562 15.796875 3.371094 15.667969 L 3.648438 13.632812 L 2.222656 12.136719 C 2.132812 12.046875 2.09375 11.898438 2.148438 11.769531 C 2.1875 11.621094 2.296875 11.527344 2.445312 11.507812 L 4.460938 11.140625 L 5.4375 9.328125 C 5.496094 9.199219 5.625 9.125 5.773438 9.125 C 5.902344 9.125 6.03125 9.199219 6.105469 9.328125 L 7.082031 11.140625 L 9.097656 11.507812 C 9.246094 11.527344 9.355469 11.621094 9.394531 11.769531 C 9.429688 11.898438 9.410156 12.046875 9.300781 12.136719 L 7.878906 13.632812 L 8.15625 15.667969 C 8.175781 15.796875 8.117188 15.945312 8.007812 16.015625 C 7.898438 16.109375 7.75 16.109375 7.621094 16.054688 L 5.773438 15.167969 L 3.925781 16.054688 C 3.867188 16.074219 3.8125 16.089844 3.757812 16.089844 Z M 3.757812 16.089844 " fill-opacity="1" fill-rule="evenodd"/></g><g clip-path="url(#8b1ea4fcd4)"><path fill="#c4942e" d="M 6.179688 21.394531 Z M 15.804688 21.96875 C 15.601562 21.96875 15.433594 21.78125 15.433594 21.578125 C 15.433594 21.359375 15.621094 21.210938 15.824219 21.210938 L 21.144531 21.359375 C 21.828125 21.320312 22.328125 21.136719 22.585938 20.820312 C 22.84375 20.488281 22.789062 20.101562 22.789062 20.101562 C 22.789062 20.082031 22.789062 20.046875 22.789062 20.027344 C 22.789062 19.824219 22.753906 19.621094 22.640625 19.453125 L 22.625 19.417969 C 22.457031 19.175781 22.199219 18.972656 21.828125 18.808594 C 20.921875 18.382812 13.3125 17.421875 11.667969 17.457031 C 10.574219 17.476562 9.746094 17.828125 8.988281 18.585938 L 6.195312 21.375 L 6.179688 21.394531 L 0.96875 26.105469 L 5.328125 30.503906 L 10.464844 25.792969 L 10.519531 25.753906 C 11.519531 25.035156 12.332031 24.535156 13.605469 24.589844 C 14.585938 24.628906 15.785156 24.851562 16.949219 25.035156 C 17.523438 25.144531 18.058594 25.238281 18.539062 25.292969 C 21.164062 25.664062 21.808594 25.257812 23.011719 24 C 24.953125 21.984375 26.964844 19.972656 28.886719 18.011719 L 29.496094 17.386719 C 29.609375 17.253906 30.179688 16.441406 29.460938 15.59375 C 29.273438 15.464844 28.3125 14.835938 27.222656 15.886719 L 23.417969 19.324219 C 23.511719 19.546875 23.566406 19.769531 23.546875 20.007812 C 23.566406 20.175781 23.601562 20.765625 23.175781 21.300781 C 22.769531 21.800781 22.105469 22.078125 21.183594 22.113281 L 21.164062 22.132812 L 21.144531 22.132812 Z M 15.804688 21.96875 " fill-opacity="1" fill-rule="evenodd"/></g></svg>