<svg xmlns="http://www.w3.org/2000/svg" xmlns:xlink="http://www.w3.org/1999/xlink" width="45" zoomAndPan="magnify" viewBox="0 0 33.75 33.749998" height="45" preserveAspectRatio="xMidYMid meet" version="1.0"><defs><clipPath id="40f387b455"><path d="M 1.339844 1 L 33 1 L 33 32 L 1.339844 32 Z M 1.339844 1 " clip-rule="nonzero"/></clipPath></defs><path fill="#c4942e" d="M 15.628906 10.0625 C 15.59375 10.027344 15.539062 10.050781 15.539062 10.097656 L 15.539062 20.972656 C 16.121094 21.320312 16.738281 21.605469 17.382812 21.8125 L 17.382812 11.902344 C 17.382812 11.890625 17.378906 11.878906 17.367188 11.871094 Z M 15.628906 10.0625 " fill-opacity="1" fill-rule="nonzero"/><path fill="#c4942e" d="M 20.6875 13.441406 L 19.851562 14.359375 C 19.832031 14.382812 19.796875 14.382812 19.773438 14.359375 L 19.023438 13.585938 C 18.992188 13.550781 18.933594 13.574219 18.933594 13.621094 L 18.933594 22.160156 C 19.320312 22.210938 19.714844 22.234375 20.109375 22.234375 C 20.335938 22.234375 20.558594 22.226562 20.78125 22.210938 L 20.78125 13.476562 C 20.78125 13.429688 20.722656 13.40625 20.6875 13.441406 Z M 20.6875 13.441406 " fill-opacity="1" fill-rule="nonzero"/><path fill="#c4942e" d="M 23.316406 10.652344 C 23.296875 10.632812 23.261719 10.632812 23.242188 10.652344 L 22.347656 11.632812 C 22.339844 11.640625 22.332031 11.652344 22.332031 11.667969 L 22.332031 21.957031 C 22.976562 21.792969 23.59375 21.558594 24.179688 21.253906 L 24.179688 11.535156 C 24.179688 11.523438 24.175781 11.507812 24.164062 11.5 Z M 23.316406 10.652344 " fill-opacity="1" fill-rule="nonzero"/><path fill="#c4942e" d="M 25.820312 13.152344 C 25.789062 13.121094 25.730469 13.144531 25.730469 13.191406 L 25.730469 20.230469 C 25.957031 20.046875 26.171875 19.851562 26.378906 19.644531 C 26.835938 19.1875 27.238281 18.6875 27.578125 18.152344 L 27.578125 14.917969 C 27.578125 14.902344 27.574219 14.890625 27.5625 14.882812 Z M 25.820312 13.152344 " fill-opacity="1" fill-rule="nonzero"/><path fill="#c4942e" d="M 27.984375 12.808594 L 27.578125 12.398438 L 27.546875 12.367188 C 27.582031 12.265625 27.601562 12.15625 27.601562 12.046875 C 27.601562 11.519531 27.179688 11.097656 26.652344 11.097656 C 26.542969 11.097656 26.433594 11.117188 26.332031 11.152344 L 25.730469 10.554688 L 24.1875 9.011719 C 24.199219 8.957031 24.203125 8.902344 24.203125 8.847656 C 24.203125 8.320312 23.777344 7.898438 23.257812 7.898438 C 22.730469 7.898438 22.308594 8.320312 22.308594 8.847656 C 22.308594 8.914062 22.316406 8.976562 22.328125 9.039062 L 20.78125 10.730469 L 20.253906 11.304688 C 20.132812 11.25 20 11.214844 19.855469 11.214844 C 19.667969 11.214844 19.496094 11.269531 19.347656 11.367188 L 18.933594 10.941406 L 17.382812 9.332031 L 17.347656 9.296875 C 17.386719 9.191406 17.40625 9.082031 17.40625 8.964844 C 17.40625 8.441406 16.984375 8.015625 16.460938 8.015625 C 16.355469 8.015625 16.253906 8.035156 16.160156 8.066406 L 15.726562 7.617188 C 15.710938 7.597656 15.710938 7.5625 15.730469 7.542969 L 16.203125 7.085938 C 16.230469 7.058594 16.21875 7.007812 16.179688 7 L 14.5 6.519531 L 14.132812 6.417969 C 14.09375 6.40625 14.058594 6.441406 14.066406 6.480469 L 14.152344 6.820312 L 14.589844 8.542969 C 14.597656 8.582031 14.648438 8.597656 14.675781 8.566406 L 15.082031 8.175781 C 15.101562 8.15625 15.132812 8.15625 15.152344 8.175781 L 15.539062 8.574219 L 15.578125 8.617188 C 15.535156 8.726562 15.511719 8.84375 15.511719 8.964844 C 15.511719 9.488281 15.9375 9.914062 16.460938 9.914062 C 16.570312 9.914062 16.675781 9.890625 16.773438 9.855469 L 17.382812 10.488281 L 18.914062 12.074219 C 18.914062 12.105469 18.910156 12.132812 18.910156 12.164062 C 18.910156 12.6875 19.335938 13.109375 19.855469 13.109375 C 20.382812 13.109375 20.804688 12.6875 20.804688 12.164062 C 20.804688 12.082031 20.792969 12.003906 20.773438 11.925781 L 20.78125 11.917969 L 22.332031 10.222656 L 22.820312 9.6875 C 22.953125 9.753906 23.097656 9.792969 23.257812 9.792969 C 23.421875 9.792969 23.582031 9.75 23.71875 9.675781 L 25.765625 11.722656 C 25.726562 11.824219 25.707031 11.929688 25.707031 12.046875 C 25.707031 12.566406 26.132812 12.992188 26.652344 12.992188 C 26.765625 12.992188 26.875 12.972656 26.976562 12.933594 L 27.417969 13.375 C 27.4375 13.394531 27.46875 13.394531 27.492188 13.375 L 27.984375 12.882812 C 28.003906 12.859375 28.003906 12.828125 27.984375 12.808594 Z M 27.984375 12.808594 " fill-opacity="1" fill-rule="nonzero"/><g clip-path="url(#40f387b455)"><path fill="#c4942e" d="M 28.734375 4.757812 C 23.980469 0 16.242188 0 11.484375 4.757812 C 6.9375 9.304688 6.742188 16.585938 10.898438 21.371094 L 8.367188 23.898438 C 7.515625 23.535156 6.492188 23.699219 5.796875 24.394531 L 2.246094 27.941406 C 1.335938 28.851562 1.335938 30.332031 2.246094 31.246094 C 3.160156 32.15625 4.640625 32.15625 5.550781 31.246094 L 9.097656 27.699219 C 9.796875 27 9.957031 25.976562 9.59375 25.125 L 12.121094 22.59375 C 16.90625 26.75 24.183594 26.558594 28.734375 22.007812 C 33.492188 17.25 33.492188 9.511719 28.734375 4.757812 Z M 27.390625 20.660156 C 23.378906 24.675781 16.847656 24.675781 12.832031 20.660156 C 8.816406 16.644531 8.816406 10.113281 12.832031 6.101562 C 16.847656 2.085938 23.378906 2.085938 27.390625 6.101562 C 31.40625 10.113281 31.40625 16.644531 27.390625 20.660156 Z M 27.390625 20.660156 " fill-opacity="1" fill-rule="nonzero"/></g></svg>