<svg xmlns="http://www.w3.org/2000/svg" xmlns:xlink="http://www.w3.org/1999/xlink" width="45" zoomAndPan="magnify" viewBox="0 0 33.75 33.749998" height="45" preserveAspectRatio="xMidYMid meet" version="1.0"><defs><clipPath id="6bf5ab2fb9"><path d="M 0.820312 0.820312 L 32.832031 0.820312 L 32.832031 32.832031 L 0.820312 32.832031 Z M 0.820312 0.820312 " clip-rule="nonzero"/></clipPath></defs><g clip-path="url(#6bf5ab2fb9)"><path fill="#c4942e" d="M 4.277344 25.171875 C 4.417969 25.375 4.363281 25.652344 4.160156 25.789062 C 4.082031 25.84375 3.992188 25.867188 3.910156 25.867188 C 3.765625 25.867188 3.625 25.800781 3.539062 25.671875 C 1.742188 23.027344 0.789062 19.929688 0.789062 16.71875 C 0.789062 12.847656 2.164062 9.191406 4.683594 6.296875 L 1.867188 6.5 C 1.621094 6.519531 1.410156 6.332031 1.390625 6.089844 C 1.371094 5.84375 1.558594 5.632812 1.800781 5.613281 L 5.738281 5.328125 C 5.855469 5.316406 5.96875 5.355469 6.058594 5.433594 C 6.148438 5.511719 6.203125 5.617188 6.214844 5.738281 L 6.5 9.675781 C 6.519531 9.917969 6.332031 10.132812 6.089844 10.152344 C 6.078125 10.152344 6.066406 10.152344 6.054688 10.152344 C 5.820312 10.152344 5.625 9.972656 5.605469 9.734375 L 5.398438 6.820312 C 3 9.5625 1.683594 13.035156 1.683594 16.707031 C 1.683594 19.738281 2.582031 22.664062 4.277344 25.160156 Z M 25.171875 29.160156 C 22.675781 30.859375 19.75 31.757812 16.71875 31.757812 C 13.046875 31.757812 9.574219 30.441406 6.832031 28.042969 L 9.746094 27.828125 C 9.992188 27.808594 10.175781 27.59375 10.15625 27.351562 C 10.140625 27.105469 9.917969 26.921875 9.679688 26.941406 L 5.742188 27.226562 C 5.5 27.242188 5.316406 27.457031 5.332031 27.703125 L 5.617188 31.636719 C 5.636719 31.875 5.832031 32.054688 6.066406 32.054688 C 6.078125 32.054688 6.089844 32.054688 6.101562 32.054688 C 6.34375 32.039062 6.53125 31.824219 6.511719 31.578125 L 6.308594 28.761719 C 9.203125 31.273438 12.859375 32.65625 16.730469 32.65625 C 19.941406 32.65625 23.039062 31.703125 25.683594 29.90625 C 25.886719 29.769531 25.9375 29.488281 25.800781 29.285156 C 25.664062 29.082031 25.386719 29.03125 25.183594 29.167969 Z M 8.269531 4.277344 C 10.765625 2.582031 13.6875 1.683594 16.71875 1.683594 C 20.394531 1.683594 23.867188 3 26.605469 5.398438 L 23.699219 5.605469 C 23.457031 5.625 23.269531 5.839844 23.289062 6.082031 C 23.308594 6.320312 23.503906 6.5 23.734375 6.5 C 23.746094 6.5 23.757812 6.5 23.769531 6.5 L 27.707031 6.214844 C 27.953125 6.195312 28.136719 5.980469 28.117188 5.738281 L 27.832031 1.800781 C 27.816406 1.558594 27.601562 1.371094 27.355469 1.390625 C 27.113281 1.410156 26.925781 1.621094 26.945312 1.867188 L 27.148438 4.683594 C 24.253906 2.171875 20.597656 0.789062 16.726562 0.789062 C 13.515625 0.789062 10.417969 1.742188 7.773438 3.539062 C 7.574219 3.675781 7.519531 3.957031 7.65625 4.160156 C 7.792969 4.363281 8.074219 4.417969 8.273438 4.277344 Z M 31.574219 26.941406 L 28.757812 27.140625 C 31.269531 24.246094 32.652344 20.589844 32.652344 16.71875 C 32.652344 13.511719 31.699219 10.414062 29.898438 7.769531 C 29.761719 7.566406 29.484375 7.511719 29.28125 7.648438 C 29.078125 7.785156 29.023438 8.066406 29.160156 8.269531 C 30.859375 10.765625 31.757812 13.6875 31.757812 16.71875 C 31.757812 20.394531 30.441406 23.867188 28.042969 26.605469 L 27.832031 23.695312 C 27.816406 23.449219 27.601562 23.257812 27.355469 23.28125 C 27.113281 23.300781 26.925781 23.515625 26.945312 23.757812 L 27.230469 27.695312 C 27.238281 27.816406 27.296875 27.921875 27.386719 28 C 27.46875 28.070312 27.570312 28.105469 27.679688 28.105469 C 27.691406 28.105469 27.703125 28.105469 27.707031 28.105469 L 31.644531 27.820312 C 31.886719 27.804688 32.074219 27.589844 32.054688 27.34375 C 32.039062 27.101562 31.816406 26.910156 31.578125 26.933594 Z M 19.691406 14.492188 L 11.949219 10.019531 L 8.976562 11.734375 L 16.71875 16.214844 L 19.699219 14.492188 Z M 24.457031 11.734375 L 16.941406 7.394531 C 16.804688 7.316406 16.628906 7.316406 16.492188 7.394531 L 12.84375 9.503906 L 20.585938 13.972656 Z M 8.523438 12.507812 L 16.265625 16.988281 L 16.265625 25.921875 L 8.75 21.578125 C 8.613281 21.503906 8.523438 21.351562 8.523438 21.191406 Z M 11.730469 20.554688 L 14.113281 21.925781 C 14.183594 21.964844 14.261719 21.984375 14.332031 21.984375 C 14.488281 21.984375 14.636719 21.90625 14.71875 21.757812 C 14.84375 21.542969 14.765625 21.269531 14.550781 21.152344 L 12.171875 19.78125 C 11.957031 19.660156 11.683594 19.734375 11.5625 19.949219 C 11.4375 20.164062 11.515625 20.4375 11.730469 20.554688 Z M 24.902344 21.199219 L 24.902344 12.515625 L 21.03125 14.753906 L 21.03125 16.878906 C 21.03125 17.125 20.828125 17.328125 20.585938 17.328125 C 20.339844 17.328125 20.136719 17.125 20.136719 16.878906 L 20.136719 15.273438 L 17.160156 16.992188 L 17.160156 25.925781 L 24.675781 21.585938 C 24.8125 21.507812 24.902344 21.359375 24.902344 21.199219 Z M 24.902344 21.199219 " fill-opacity="1" fill-rule="nonzero"/></g></svg>