<svg xmlns="http://www.w3.org/2000/svg" xmlns:xlink="http://www.w3.org/1999/xlink" width="45" zoomAndPan="magnify" viewBox="0 0 33.75 33.749998" height="45" preserveAspectRatio="xMidYMid meet" version="1.0"><defs><clipPath id="f3f338c5c7"><path d="M 1.070312 21 L 32.335938 21 L 32.335938 30.152344 L 1.070312 30.152344 Z M 1.070312 21 " clip-rule="nonzero"/></clipPath><clipPath id="e33bf7bdea"><path d="M 1.070312 14 L 32.335938 14 L 32.335938 24 L 1.070312 24 Z M 1.070312 14 " clip-rule="nonzero"/></clipPath><clipPath id="d46a769bf1"><path d="M 1.070312 3.351562 L 32.335938 3.351562 L 32.335938 17 L 1.070312 17 Z M 1.070312 3.351562 " clip-rule="nonzero"/></clipPath></defs><g clip-path="url(#f3f338c5c7)"><path fill="#c4942e" d="M 32.09375 23.671875 L 26.210938 21.125 L 17.738281 24.511719 C 17.433594 24.632812 17.078125 24.695312 16.722656 24.695312 C 16.367188 24.695312 16.007812 24.632812 15.707031 24.511719 L 7.234375 21.125 L 1.347656 23.671875 C 1.082031 23.789062 1.082031 23.972656 1.355469 24.078125 L 16.230469 30.03125 C 16.5 30.136719 16.941406 30.136719 17.210938 30.03125 L 32.089844 24.078125 C 32.359375 23.972656 32.363281 23.789062 32.09375 23.671875 Z M 32.09375 23.671875 " fill-opacity="1" fill-rule="nonzero"/></g><g clip-path="url(#e33bf7bdea)"><path fill="#c4942e" d="M 32.09375 16.800781 L 26.210938 14.25 L 17.738281 17.636719 C 17.433594 17.761719 17.078125 17.820312 16.722656 17.820312 C 16.367188 17.820312 16.007812 17.761719 15.703125 17.640625 L 7.234375 14.25 L 1.347656 16.800781 C 1.082031 16.917969 1.082031 17.097656 1.355469 17.207031 L 16.230469 23.15625 C 16.5 23.265625 16.941406 23.265625 17.210938 23.15625 L 32.089844 17.207031 C 32.359375 17.097656 32.363281 16.917969 32.09375 16.800781 Z M 32.09375 16.800781 " fill-opacity="1" fill-rule="nonzero"/></g><g clip-path="url(#d46a769bf1)"><path fill="#c4942e" d="M 1.355469 10.335938 L 9.113281 13.4375 L 16.230469 16.285156 C 16.5 16.394531 16.941406 16.394531 17.210938 16.285156 L 24.332031 13.4375 L 32.089844 10.335938 C 32.359375 10.226562 32.363281 10.046875 32.09375 9.929688 L 17.207031 3.476562 C 16.9375 3.363281 16.503906 3.363281 16.238281 3.476562 L 1.347656 9.929688 C 1.082031 10.046875 1.082031 10.226562 1.355469 10.335938 Z M 1.355469 10.335938 " fill-opacity="1" fill-rule="nonzero"/></g></svg>