<svg xmlns="http://www.w3.org/2000/svg" xmlns:xlink="http://www.w3.org/1999/xlink" width="45" zoomAndPan="magnify" viewBox="0 0 33.75 33.749998" height="45" preserveAspectRatio="xMidYMid meet" version="1.0"><defs><clipPath id="6e884eaaee"><path d="M 22 21 L 32 21 L 32 30.894531 L 22 30.894531 Z M 22 21 " clip-rule="nonzero"/></clipPath><clipPath id="ee469125ea"><path d="M 0.824219 3.351562 L 32.839844 3.351562 L 32.839844 23 L 0.824219 23 Z M 0.824219 3.351562 " clip-rule="nonzero"/></clipPath></defs><g clip-path="url(#6e884eaaee)"><path fill="#c4942e" d="M 22.429688 22.945312 L 23.847656 21.527344 C 23.941406 21.429688 24.050781 21.359375 24.171875 21.308594 C 24.296875 21.257812 24.425781 21.230469 24.558594 21.230469 C 24.691406 21.230469 24.820312 21.257812 24.941406 21.308594 C 25.066406 21.359375 25.171875 21.429688 25.265625 21.527344 L 31.125 27.382812 C 31.21875 27.476562 31.292969 27.585938 31.34375 27.710938 C 31.394531 27.832031 31.417969 27.960938 31.417969 28.09375 C 31.417969 28.226562 31.394531 28.355469 31.34375 28.476562 C 31.292969 28.601562 31.21875 28.710938 31.125 28.804688 L 29.707031 30.222656 C 29.613281 30.316406 29.503906 30.390625 29.378906 30.441406 C 29.257812 30.492188 29.128906 30.515625 28.996094 30.515625 C 28.863281 30.515625 28.734375 30.492188 28.613281 30.441406 C 28.488281 30.390625 28.378906 30.316406 28.285156 30.222656 L 22.429688 24.363281 C 22.332031 24.269531 22.261719 24.160156 22.210938 24.039062 C 22.160156 23.917969 22.132812 23.789062 22.132812 23.65625 C 22.132812 23.523438 22.160156 23.394531 22.210938 23.269531 C 22.261719 23.148438 22.332031 23.039062 22.429688 22.945312 Z M 22.429688 22.945312 " fill-opacity="1" fill-rule="nonzero"/></g><path fill="#c4942e" d="M 19.113281 12.046875 L 14.792969 16.125 C 14.605469 16.304688 14.378906 16.394531 14.121094 16.398438 C 13.863281 16.40625 13.636719 16.324219 13.441406 16.152344 L 10.152344 13.273438 L 7.988281 15.570312 C 8.332031 16.125 8.757812 16.613281 9.261719 17.027344 C 9.765625 17.445312 10.324219 17.769531 10.933594 18.007812 C 11.546875 18.242188 12.175781 18.375 12.832031 18.402344 C 13.484375 18.433594 14.125 18.355469 14.753906 18.175781 C 15.382812 17.996094 15.96875 17.722656 16.507812 17.351562 C 17.046875 16.980469 17.515625 16.535156 17.910156 16.011719 C 18.300781 15.488281 18.601562 14.917969 18.8125 14.296875 C 19.019531 13.675781 19.121094 13.039062 19.121094 12.386719 C 19.121094 12.269531 19.117188 12.15625 19.113281 12.046875 Z M 19.113281 12.046875 " fill-opacity="1" fill-rule="nonzero"/><path fill="#c4942e" d="M 10.75 11.128906 L 14.078125 14.039062 L 18.546875 9.816406 C 18.394531 9.488281 18.210938 9.175781 18 8.882812 C 17.789062 8.585938 17.550781 8.3125 17.289062 8.058594 C 17.027344 7.808594 16.746094 7.578125 16.445312 7.378906 C 16.144531 7.175781 15.824219 7.003906 15.492188 6.859375 C 15.160156 6.714844 14.816406 6.601562 14.460938 6.519531 C 14.109375 6.4375 13.75 6.386719 13.386719 6.371094 C 13.023438 6.351562 12.664062 6.367188 12.300781 6.417969 C 11.941406 6.464844 11.589844 6.546875 11.242188 6.65625 C 10.898438 6.769531 10.566406 6.910156 10.246094 7.082031 C 9.925781 7.253906 9.625 7.453125 9.339844 7.679688 C 9.054688 7.90625 8.796875 8.160156 8.558594 8.433594 C 8.316406 8.707031 8.105469 9 7.921875 9.3125 C 7.734375 9.625 7.578125 9.949219 7.453125 10.289062 C 7.328125 10.632812 7.230469 10.980469 7.167969 11.339844 C 7.105469 11.695312 7.074219 12.054688 7.074219 12.417969 C 7.078125 12.78125 7.113281 13.144531 7.179688 13.5 L 9.359375 11.195312 C 9.542969 10.996094 9.769531 10.894531 10.039062 10.878906 C 10.308594 10.867188 10.546875 10.949219 10.75 11.128906 Z M 10.75 11.128906 " fill-opacity="1" fill-rule="nonzero"/><g clip-path="url(#ee469125ea)"><path fill="#c4942e" d="M 31.671875 3.351562 L 26.652344 3.351562 L 26.652344 5.359375 L 29.246094 5.359375 L 26.148438 8.457031 L 23.847656 6.152344 C 23.65625 5.960938 23.421875 5.863281 23.152344 5.859375 C 22.878906 5.855469 22.644531 5.949219 22.449219 6.132812 L 20.808594 7.679688 C 20.40625 7.019531 19.925781 6.421875 19.367188 5.882812 C 18.8125 5.34375 18.195312 4.886719 17.519531 4.507812 C 16.84375 4.128906 16.132812 3.839844 15.382812 3.644531 C 14.636719 3.449219 13.875 3.351562 13.097656 3.351562 C 8.117188 3.351562 4.0625 7.402344 4.0625 12.386719 C 4.0625 13.640625 4.316406 14.847656 4.820312 16 L 0.824219 20.226562 L 2.285156 21.605469 L 5.875 17.804688 C 6.238281 18.289062 6.644531 18.730469 7.097656 19.132812 C 7.546875 19.535156 8.035156 19.890625 8.558594 20.195312 C 9.078125 20.5 9.628906 20.746094 10.199219 20.941406 C 10.773438 21.136719 11.359375 21.269531 11.957031 21.347656 C 12.558594 21.421875 13.160156 21.4375 13.761719 21.394531 C 14.367188 21.351562 14.957031 21.246094 15.539062 21.082031 C 16.121094 20.917969 16.683594 20.699219 17.21875 20.421875 C 17.757812 20.144531 18.261719 19.816406 18.734375 19.441406 L 21.628906 22.332031 C 21.65625 22.300781 21.6875 22.265625 21.71875 22.234375 L 23.042969 20.910156 L 20.15625 18.019531 C 20.621094 17.4375 21.007812 16.808594 21.320312 16.128906 C 21.628906 15.449219 21.851562 14.742188 21.984375 14.007812 C 22.121094 13.273438 22.164062 12.535156 22.113281 11.789062 C 22.066406 11.042969 21.925781 10.316406 21.695312 9.605469 L 23.117188 8.261719 L 25.4375 10.585938 C 25.535156 10.679688 25.640625 10.75 25.765625 10.800781 C 25.886719 10.851562 26.015625 10.878906 26.148438 10.878906 C 26.28125 10.878906 26.410156 10.851562 26.535156 10.800781 C 26.65625 10.75 26.765625 10.679688 26.859375 10.585938 L 30.667969 6.777344 L 30.667969 9.375 L 32.675781 9.375 L 32.675781 4.355469 C 32.675781 4.222656 32.648438 4.09375 32.597656 3.96875 C 32.546875 3.847656 32.472656 3.738281 32.378906 3.644531 C 32.285156 3.550781 32.175781 3.476562 32.054688 3.425781 C 31.929688 3.375 31.804688 3.351562 31.671875 3.351562 Z M 6.070312 12.386719 C 6.070312 11.921875 6.117188 11.464844 6.207031 11.015625 C 6.296875 10.5625 6.429688 10.121094 6.605469 9.695312 C 6.785156 9.269531 7 8.863281 7.257812 8.480469 C 7.511719 8.097656 7.804688 7.742188 8.128906 7.417969 C 8.457031 7.089844 8.8125 6.796875 9.195312 6.542969 C 9.578125 6.285156 9.984375 6.070312 10.410156 5.894531 C 10.835938 5.714844 11.277344 5.582031 11.726562 5.492188 C 12.179688 5.402344 12.636719 5.359375 13.097656 5.359375 C 13.558594 5.359375 14.015625 5.402344 14.46875 5.492188 C 14.921875 5.582031 15.363281 5.714844 15.789062 5.894531 C 16.214844 6.070312 16.621094 6.285156 17.003906 6.542969 C 17.386719 6.796875 17.742188 7.089844 18.066406 7.417969 C 18.394531 7.742188 18.683594 8.097656 18.941406 8.480469 C 19.199219 8.863281 19.414062 9.269531 19.589844 9.695312 C 19.769531 10.121094 19.902344 10.5625 19.992188 11.015625 C 20.082031 11.464844 20.125 11.921875 20.125 12.386719 C 20.125 12.847656 20.082031 13.304688 19.992188 13.753906 C 19.902344 14.207031 19.769531 14.648438 19.589844 15.074219 C 19.414062 15.5 19.199219 15.90625 18.941406 16.289062 C 18.683594 16.671875 18.394531 17.027344 18.066406 17.355469 C 17.742188 17.679688 17.386719 17.972656 17.003906 18.226562 C 16.621094 18.484375 16.214844 18.699219 15.789062 18.875 C 15.363281 19.054688 14.921875 19.1875 14.46875 19.277344 C 14.015625 19.367188 13.558594 19.410156 13.097656 19.410156 C 12.636719 19.410156 12.179688 19.367188 11.730469 19.277344 C 11.277344 19.183594 10.835938 19.050781 10.410156 18.875 C 9.984375 18.699219 9.582031 18.480469 9.195312 18.226562 C 8.8125 17.96875 8.457031 17.675781 8.132812 17.351562 C 7.804688 17.023438 7.515625 16.671875 7.257812 16.285156 C 7.003906 15.902344 6.785156 15.5 6.609375 15.074219 C 6.433594 14.648438 6.296875 14.207031 6.207031 13.753906 C 6.117188 13.304688 6.074219 12.847656 6.070312 12.386719 Z M 6.070312 12.386719 " fill-opacity="1" fill-rule="nonzero"/></g></svg>