<svg xmlns="http://www.w3.org/2000/svg" xmlns:xlink="http://www.w3.org/1999/xlink" width="45" zoomAndPan="magnify" viewBox="0 0 33.75 33.749998" height="45" preserveAspectRatio="xMidYMid meet" version="1.0"><defs><clipPath id="9de3540c51"><path d="M 18.828125 17.078125 L 32.558594 17.078125 L 32.558594 30.800781 L 18.828125 30.800781 Z M 18.828125 17.078125 " clip-rule="nonzero"/></clipPath><clipPath id="51d88c7e8d"><path d="M 0.925781 2.511719 L 27 2.511719 L 27 30.800781 L 0.925781 30.800781 Z M 0.925781 2.511719 " clip-rule="nonzero"/></clipPath></defs><g clip-path="url(#9de3540c51)"><path fill="#030429" d="M 29.234375 22.929688 L 25.246094 26.917969 C 25.003906 27.160156 24.683594 27.28125 24.363281 27.28125 C 24.046875 27.28125 23.726562 27.160156 23.484375 26.917969 L 21.527344 24.960938 C 21.039062 24.472656 21.039062 23.6875 21.527344 23.199219 C 22.011719 22.710938 22.800781 22.710938 23.289062 23.199219 L 24.363281 24.273438 L 27.472656 21.167969 C 27.957031 20.679688 28.746094 20.679688 29.234375 21.167969 C 29.71875 21.65625 29.71875 22.445312 29.234375 22.929688 Z M 25.691406 17.179688 C 21.902344 17.179688 18.828125 20.25 18.828125 24.042969 C 18.828125 27.832031 21.902344 30.910156 25.691406 30.910156 C 29.484375 30.910156 32.554688 27.832031 32.554688 24.042969 C 32.554688 20.25 29.484375 17.179688 25.691406 17.179688 " fill-opacity="1" fill-rule="nonzero"/></g><g clip-path="url(#51d88c7e8d)"><path fill="#030429" d="M 26.074219 7.703125 C 25.6875 7.367188 25.171875 7.214844 24.667969 7.285156 C 24.386719 7.324219 24.050781 7.355469 23.675781 7.355469 C 22.363281 7.355469 20.5625 6.988281 19.007812 5.382812 C 17.167969 3.484375 15.511719 2.597656 13.804688 2.597656 C 12.09375 2.597656 10.4375 3.484375 8.597656 5.382812 C 6.597656 7.449219 4.191406 7.464844 2.941406 7.285156 C 2.433594 7.214844 1.921875 7.367188 1.535156 7.703125 C 1.148438 8.035156 0.925781 8.519531 0.925781 9.03125 L 0.925781 12.96875 C 0.929688 13.09375 1.007812 16.097656 2.542969 19.742188 C 3.960938 23.113281 6.945312 27.683594 13.109375 30.304688 C 13.332031 30.398438 13.566406 30.445312 13.804688 30.445312 C 14.039062 30.445312 14.273438 30.398438 14.496094 30.304688 C 15.851562 29.730469 17.050781 29.058594 18.113281 28.328125 C 17.828125 27.828125 17.59375 27.296875 17.410156 26.738281 C 16.367188 27.484375 15.179688 28.160156 13.828125 28.734375 C 13.8125 28.742188 13.792969 28.742188 13.777344 28.734375 C 9.273438 26.816406 6.03125 23.589844 4.140625 19.140625 C 2.714844 15.789062 2.632812 12.960938 2.632812 12.949219 L 2.632812 9.03125 C 2.632812 9.027344 2.632812 9.007812 2.652344 8.988281 C 2.667969 8.976562 2.683594 8.972656 2.691406 8.972656 L 2.703125 8.972656 C 4.277344 9.195312 7.296875 9.179688 9.824219 6.570312 C 11.300781 5.042969 12.601562 4.304688 13.804688 4.304688 C 14.402344 4.304688 15.03125 4.488281 15.6875 4.867188 C 16.351562 5.242188 17.042969 5.804688 17.78125 6.570312 C 20.308594 9.179688 23.332031 9.195312 24.90625 8.972656 C 24.914062 8.972656 24.933594 8.96875 24.953125 8.988281 C 24.972656 9.007812 24.972656 9.027344 24.972656 9.03125 L 24.972656 12.933594 C 24.972656 12.964844 24.945312 13.929688 24.632812 15.398438 C 24.980469 15.355469 25.332031 15.335938 25.691406 15.335938 C 25.925781 15.335938 26.15625 15.34375 26.386719 15.363281 C 26.652344 13.953125 26.675781 13.03125 26.679688 12.949219 L 26.679688 9.03125 C 26.679688 8.519531 26.457031 8.035156 26.074219 7.703125 " fill-opacity="1" fill-rule="nonzero"/></g><path fill="#030429" d="M 15.5 16.507812 L 15.5 19.460938 C 15.5 20.402344 14.742188 21.160156 13.804688 21.160156 C 12.863281 21.160156 12.105469 20.402344 12.105469 19.460938 L 12.105469 16.507812 C 11.539062 16.027344 11.171875 15.320312 11.171875 14.515625 C 11.171875 13.0625 12.351562 11.886719 13.804688 11.886719 C 15.253906 11.886719 16.433594 13.0625 16.433594 14.515625 C 16.433594 15.320312 16.066406 16.027344 15.5 16.507812 Z M 16.25 8.152344 C 14.835938 6.695312 14.070312 6.535156 13.804688 6.535156 C 13.539062 6.535156 12.769531 6.695312 11.355469 8.152344 C 9.183594 10.394531 6.734375 11.117188 4.765625 11.265625 L 4.765625 13.007812 C 4.777344 13.273438 4.929688 15.652344 6.101562 18.410156 C 7.652344 22.058594 10.242188 24.785156 13.804688 26.507812 C 15.023438 25.917969 16.082031 25.226562 16.996094 24.480469 C 16.988281 24.335938 16.984375 24.191406 16.984375 24.042969 C 16.984375 20.429688 19.195312 17.324219 22.335938 16.007812 C 22.765625 14.390625 22.835938 13.214844 22.839844 12.996094 L 22.839844 11.265625 C 20.875 11.117188 18.421875 10.394531 16.25 8.152344 " fill-opacity="1" fill-rule="nonzero"/></svg>