<svg xmlns="http://www.w3.org/2000/svg" xmlns:xlink="http://www.w3.org/1999/xlink" width="45" zoomAndPan="magnify" viewBox="0 0 33.75 33.749998" height="45" preserveAspectRatio="xMidYMid meet" version="1.0"><defs><clipPath id="529b91bd22"><path d="M 24 10 L 32.832031 10 L 32.832031 21 L 24 21 Z M 24 10 " clip-rule="nonzero"/></clipPath><clipPath id="37d46cd431"><path d="M 24 9.953125 L 32.832031 9.953125 L 32.832031 21 L 24 21 Z M 24 9.953125 " clip-rule="nonzero"/></clipPath><clipPath id="6df202a0b4"><path d="M 15 22 L 18 22 L 18 25.589844 L 15 25.589844 Z M 15 22 " clip-rule="nonzero"/></clipPath><clipPath id="d5d54279cb"><path d="M 14 22 L 19 22 L 19 25.589844 L 14 25.589844 Z M 14 22 " clip-rule="nonzero"/></clipPath><clipPath id="e869f02149"><path d="M 16 23 L 20 23 L 20 25.589844 L 16 25.589844 Z M 16 23 " clip-rule="nonzero"/></clipPath><clipPath id="7f9d41755b"><path d="M 1.5625 10 L 11 10 L 11 21 L 1.5625 21 Z M 1.5625 10 " clip-rule="nonzero"/></clipPath><clipPath id="827e8e71ca"><path d="M 1.5625 9.953125 L 11 9.953125 L 11 21 L 1.5625 21 Z M 1.5625 9.953125 " clip-rule="nonzero"/></clipPath></defs><path fill="#ffffff" d="M 24.226562 12.105469 C 19.160156 10.589844 19.070312 10.21875 13.917969 11.425781 C 10.5625 12.210938 9.832031 11.664062 9.101562 14.183594 C 7.664062 19.117188 7.691406 19.492188 8.898438 20.1875 C 9.558594 20.570312 9.71875 20.230469 17.371094 24.460938 C 18.644531 25.164062 18.679688 24.03125 18.875 23.964844 C 19.695312 23.675781 20.261719 24.074219 20.277344 22.761719 C 22.027344 23.28125 22.136719 23.1875 22.257812 23.085938 C 22.628906 22.761719 22.335938 21.300781 22.304688 21.148438 C 23.765625 21.863281 23.8125 21.824219 23.917969 21.734375 C 24.730469 21.042969 24.164062 19.855469 24.144531 19.769531 C 24.378906 19.84375 26.851562 21.160156 26.050781 17.5625 C 25.089844 13.25 25.535156 12.796875 23.796875 11.984375 " fill-opacity="1" fill-rule="evenodd"/><path fill="#c4942e" d="M 25.828125 11.28125 C 25.78125 11.15625 25.847656 11.019531 25.96875 10.976562 C 26.09375 10.933594 26.230469 10.996094 26.273438 11.121094 C 27.292969 13.980469 27.738281 15.539062 27.796875 20.242188 C 27.796875 20.375 27.695312 20.480469 27.5625 20.484375 C 27.433594 20.484375 27.324219 20.378906 27.324219 20.25 C 27.261719 15.621094 26.828125 14.09375 25.828125 11.28125 Z M 25.828125 11.28125 " fill-opacity="1" fill-rule="evenodd"/><g clip-path="url(#529b91bd22)"><path fill="#c4942e" d="M 31.8125 10.230469 C 31.199219 10.261719 28.113281 10.425781 24.277344 11.710938 C 25.398438 15.589844 25.363281 15.582031 26.109375 20.523438 C 29.203125 20.351562 29.179688 20.324219 32.257812 20.320312 " fill-opacity="1" fill-rule="evenodd"/></g><g clip-path="url(#37d46cd431)"><path fill="#c4942e" d="M 31.800781 9.996094 C 31.929688 9.988281 32.042969 10.089844 32.050781 10.21875 C 32.054688 10.351562 31.957031 10.460938 31.824219 10.46875 C 31.226562 10.5 28.269531 10.652344 24.570312 11.863281 C 25.613281 15.484375 25.609375 15.621094 26.3125 20.277344 C 29.195312 20.113281 29.246094 20.089844 32.257812 20.085938 C 32.386719 20.085938 32.492188 20.191406 32.492188 20.320312 C 32.496094 20.453125 32.386719 20.558594 32.257812 20.558594 C 29.1875 20.5625 29.210938 20.589844 26.121094 20.761719 C 26 20.769531 25.894531 20.679688 25.875 20.558594 C 25.128906 15.632812 25.167969 15.640625 24.050781 11.777344 C 24.015625 11.652344 24.082031 11.527344 24.203125 11.484375 C 28.070312 10.1875 31.183594 10.027344 31.800781 9.996094 Z M 31.800781 9.996094 " fill-opacity="1" fill-rule="evenodd"/></g><path fill="#c4942e" d="M 8.097656 20.042969 C 7.984375 19.980469 7.941406 19.835938 8.003906 19.71875 C 8.070312 19.605469 8.210938 19.5625 8.328125 19.628906 C 9.109375 20.058594 9.101562 20.066406 9.917969 20.421875 C 10.039062 20.472656 10.09375 20.613281 10.039062 20.734375 C 9.988281 20.855469 9.847656 20.910156 9.726562 20.855469 C 8.890625 20.492188 8.898438 20.484375 8.097656 20.042969 Z M 8.097656 20.042969 " fill-opacity="1" fill-rule="evenodd"/><g clip-path="url(#6df202a0b4)"><path fill="#ffffff" d="M 17.09375 24.363281 C 15.695312 25.585938 14.921875 24.847656 15.199219 24.027344 C 15.394531 23.4375 16.644531 21.894531 17.5 22.351562 C 18.675781 22.980469 16.871094 24.519531 16.722656 24.644531 " fill-opacity="1" fill-rule="evenodd"/></g><g clip-path="url(#d5d54279cb)"><path fill="#c4942e" d="M 17.328125 24.398438 C 17.320312 24.453125 17.292969 24.503906 17.25 24.542969 C 16.449219 25.242188 15.8125 25.335938 15.429688 25.183594 C 14.984375 25.003906 14.789062 24.496094 14.972656 23.949219 C 15.101562 23.570312 15.632812 22.8125 16.238281 22.378906 C 16.695312 22.054688 17.195312 21.917969 17.613281 22.140625 C 17.859375 22.273438 18.003906 22.445312 18.074219 22.625 C 18.179688 22.890625 18.136719 23.195312 17.992188 23.496094 C 17.835938 23.824219 17.566406 24.148438 17.328125 24.398438 Z M 16.546875 24.484375 C 16.554688 24.480469 16.5625 24.472656 16.570312 24.464844 C 16.652344 24.394531 17.300781 23.847656 17.5625 23.292969 C 17.644531 23.121094 17.695312 22.953125 17.632812 22.800781 C 17.597656 22.707031 17.515625 22.628906 17.386719 22.558594 C 17.121094 22.417969 16.808594 22.554688 16.515625 22.765625 C 15.996094 23.136719 15.53125 23.777344 15.421875 24.101562 C 15.328125 24.378906 15.382812 24.652344 15.605469 24.742188 C 15.730469 24.792969 15.894531 24.785156 16.09375 24.71875 C 16.230469 24.671875 16.382812 24.59375 16.546875 24.484375 Z M 16.546875 24.484375 " fill-opacity="1" fill-rule="evenodd"/></g><path fill="#ffffff" d="M 13.453125 23.609375 C 13.445312 23.582031 13.445312 23.550781 13.449219 23.523438 C 13.683594 22.117188 16.023438 19.828125 16.539062 21.425781 C 16.84375 22.375 13.898438 25.402344 13.453125 23.609375 Z M 13.453125 23.609375 " fill-opacity="1" fill-rule="evenodd"/><path fill="#c4942e" d="M 13.386719 24.050781 C 13.234375 23.824219 13.1875 23.546875 13.257812 23.285156 C 13.503906 22.382812 14.433594 21.238281 15.253906 20.824219 C 15.640625 20.625 16.011719 20.589844 16.296875 20.738281 C 16.492188 20.84375 16.660156 21.035156 16.765625 21.355469 C 16.828125 21.554688 16.796875 21.832031 16.664062 22.136719 C 16.40625 22.734375 15.785156 23.484375 15.15625 23.945312 C 14.835938 24.179688 14.511719 24.339844 14.230469 24.386719 C 13.882812 24.445312 13.585938 24.347656 13.386719 24.050781 Z M 13.78125 23.785156 C 13.867188 23.914062 14 23.945312 14.152344 23.917969 C 14.375 23.882812 14.625 23.746094 14.875 23.5625 C 15.359375 23.207031 15.84375 22.664062 16.113281 22.179688 C 16.199219 22.027344 16.261719 21.882812 16.296875 21.75 C 16.324219 21.65625 16.335938 21.570312 16.3125 21.5 C 16.257812 21.328125 16.179688 21.214844 16.074219 21.160156 C 15.910156 21.070312 15.695312 21.128906 15.46875 21.246094 C 14.75 21.613281 13.933594 22.617188 13.714844 23.40625 C 13.683594 23.535156 13.707031 23.675781 13.78125 23.785156 Z M 13.78125 23.785156 " fill-opacity="1" fill-rule="evenodd"/><path fill="#ffffff" d="M 11.539062 22.230469 C 11.882812 20.640625 13.746094 18.71875 14.722656 19.960938 C 14.863281 20.144531 15.328125 20.730469 13.460938 22.574219 C 12.738281 23.289062 11.742188 23.488281 11.539062 22.230469 Z M 11.539062 22.230469 " fill-opacity="1" fill-rule="evenodd"/><path fill="#c4942e" d="M 11.308594 22.179688 C 11.527344 21.164062 12.332031 20.023438 13.164062 19.558594 C 13.792969 19.207031 14.433594 19.210938 14.90625 19.8125 C 15.066406 20.015625 15.683594 20.710938 13.628906 22.742188 C 13.117188 23.246094 12.480469 23.492188 12.011719 23.324219 C 11.683594 23.203125 11.40625 22.886719 11.304688 22.269531 C 11.300781 22.238281 11.300781 22.207031 11.308594 22.179688 Z M 11.78125 22.238281 C 11.847656 22.597656 11.976562 22.804688 12.175781 22.878906 C 12.324219 22.933594 12.5 22.90625 12.675781 22.832031 C 12.886719 22.746094 13.101562 22.59375 13.296875 22.402344 C 14.011719 21.699219 14.371094 21.1875 14.535156 20.8125 C 14.636719 20.582031 14.65625 20.417969 14.632812 20.300781 C 14.613281 20.203125 14.5625 20.144531 14.535156 20.105469 C 14.226562 19.714844 13.804688 19.742188 13.394531 19.972656 C 12.675781 20.375 11.988281 21.355469 11.78125 22.238281 Z M 11.78125 22.238281 " fill-opacity="1" fill-rule="evenodd"/><g clip-path="url(#e869f02149)"><path fill="#c4942e" d="M 18.527344 23.875 C 18.511719 23.746094 18.605469 23.625 18.734375 23.609375 C 18.863281 23.59375 18.984375 23.6875 19 23.816406 C 19.050781 24.238281 18.925781 24.691406 18.609375 24.910156 C 18.308594 25.121094 17.796875 25.15625 17.042969 24.644531 C 16.933594 24.570312 16.90625 24.421875 16.976562 24.3125 C 17.050781 24.207031 17.199219 24.175781 17.308594 24.25 C 17.585938 24.4375 17.816406 24.542969 18.007812 24.574219 C 18.148438 24.597656 18.257812 24.578125 18.339844 24.523438 C 18.523438 24.394531 18.558594 24.121094 18.527344 23.875 Z M 18.527344 23.875 " fill-opacity="1" fill-rule="evenodd"/></g><path fill="#c4942e" d="M 19.867188 22.660156 C 19.824219 22.535156 19.894531 22.398438 20.015625 22.359375 C 20.140625 22.320312 20.277344 22.386719 20.316406 22.511719 C 20.5625 23.257812 20.417969 23.722656 20.113281 23.957031 C 19.921875 24.101562 19.65625 24.171875 19.332031 24.152344 C 18.917969 24.128906 18.398438 23.960938 17.851562 23.671875 C 17.738281 23.613281 17.691406 23.46875 17.753906 23.351562 C 17.816406 23.238281 17.960938 23.191406 18.074219 23.253906 C 18.550781 23.507812 19 23.660156 19.359375 23.679688 C 19.550781 23.691406 19.710938 23.667969 19.824219 23.582031 C 19.902344 23.519531 19.949219 23.429688 19.964844 23.304688 C 19.984375 23.136719 19.953125 22.921875 19.867188 22.660156 Z M 19.867188 22.660156 " fill-opacity="1" fill-rule="evenodd"/><path fill="#c4942e" d="M 21.203125 20.554688 C 21.125 20.449219 21.152344 20.300781 21.257812 20.222656 C 21.363281 20.148438 21.511719 20.171875 21.589844 20.277344 C 21.699219 20.433594 22.257812 20.996094 22.554688 21.605469 C 22.789062 22.085938 22.859375 22.589844 22.570312 22.996094 C 22.238281 23.472656 21.683594 23.53125 21.019531 23.285156 C 19.734375 22.8125 17.984375 21.164062 17.128906 20.402344 C 17.03125 20.316406 17.023438 20.164062 17.109375 20.066406 C 17.195312 19.96875 17.347656 19.960938 17.445312 20.046875 C 18.15625 20.679688 19.496094 21.953125 20.652344 22.59375 C 21.007812 22.789062 21.34375 22.925781 21.632812 22.949219 C 21.859375 22.96875 22.054688 22.910156 22.183594 22.722656 C 22.371094 22.457031 22.28125 22.128906 22.128906 21.816406 C 21.84375 21.234375 21.308594 20.703125 21.203125 20.554688 Z M 21.203125 20.554688 " fill-opacity="1" fill-rule="evenodd"/><path fill="#c4942e" d="M 16.75 14.605469 C 16.632812 14.546875 16.585938 14.402344 16.644531 14.285156 C 16.703125 14.167969 16.847656 14.121094 16.964844 14.179688 C 18.421875 14.910156 21.710938 17.109375 23.417969 18.972656 C 23.875 19.46875 24.222656 19.945312 24.402344 20.363281 C 24.539062 20.683594 24.582031 20.976562 24.527344 21.226562 C 24.449219 21.597656 24.277344 21.8125 24.0625 21.917969 C 23.851562 22.019531 23.585938 22.019531 23.269531 21.914062 C 22.792969 21.757812 22.183594 21.347656 21.511719 20.8125 C 20.546875 20.039062 19.441406 19 18.417969 18.117188 C 18.320312 18.03125 18.308594 17.882812 18.394531 17.78125 C 18.480469 17.683594 18.628906 17.671875 18.730469 17.757812 C 20.171875 19.003906 21.785156 20.574219 22.929688 21.234375 C 23.167969 21.375 23.386719 21.472656 23.574219 21.507812 C 23.707031 21.53125 23.816406 21.527344 23.902344 21.460938 C 23.980469 21.394531 24.03125 21.285156 24.0625 21.128906 C 24.101562 20.960938 24.058594 20.765625 23.964844 20.550781 C 23.800781 20.171875 23.484375 19.742188 23.070312 19.292969 C 21.394531 17.46875 18.179688 15.320312 16.75 14.605469 Z M 16.75 14.605469 " fill-opacity="1" fill-rule="evenodd"/><path fill="#c4942e" d="M 16.921875 10.394531 C 17.046875 10.347656 17.183594 10.40625 17.230469 10.527344 C 17.277344 10.652344 17.21875 10.789062 17.097656 10.835938 C 15.792969 11.347656 15.496094 11.152344 13.039062 14.199219 C 12.644531 14.683594 12.527344 15.046875 12.632812 15.316406 C 12.726562 15.550781 12.988281 15.675781 13.296875 15.734375 C 13.84375 15.839844 14.558594 15.714844 15.078125 15.367188 C 15.371094 15.171875 15.773438 14.746094 16.257812 14.421875 C 16.746094 14.089844 17.308594 13.859375 17.910156 13.976562 C 18.3125 14.054688 18.734375 14.28125 19.167969 14.753906 C 21.59375 17.390625 21.796875 17.15625 24.390625 19.628906 C 24.550781 19.777344 24.695312 19.855469 24.832031 19.882812 C 25.035156 19.917969 25.21875 19.839844 25.378906 19.75 C 25.527344 19.667969 25.664062 19.574219 25.78125 19.511719 C 25.898438 19.449219 26.039062 19.492188 26.101562 19.609375 C 26.164062 19.722656 26.121094 19.867188 26.003906 19.929688 C 25.886719 19.992188 25.753906 20.082031 25.609375 20.164062 C 25.355469 20.304688 25.066406 20.40625 24.746094 20.347656 C 24.535156 20.308594 24.304688 20.203125 24.066406 19.972656 C 21.460938 17.488281 21.253906 17.722656 18.820312 15.074219 C 18.472656 14.699219 18.140625 14.503906 17.820312 14.441406 C 17.34375 14.351562 16.90625 14.554688 16.523438 14.8125 C 16.039062 15.140625 15.632812 15.566406 15.339844 15.765625 C 14.71875 16.179688 13.863281 16.324219 13.207031 16.203125 C 12.71875 16.109375 12.339844 15.859375 12.191406 15.492188 C 12.042969 15.117188 12.121094 14.578125 12.667969 13.898438 C 15.242188 10.714844 15.558594 10.925781 16.921875 10.394531 Z M 16.921875 10.394531 " fill-opacity="1" fill-rule="evenodd"/><path fill="#c4942e" d="M 10.210938 12.402344 C 10.082031 12.425781 9.960938 12.34375 9.9375 12.214844 C 9.914062 12.085938 10 11.960938 10.128906 11.9375 C 16.171875 10.832031 16.0625 10.238281 18.097656 10.230469 C 19.78125 10.222656 21.6875 11.261719 24.367188 11.851562 C 24.496094 11.882812 24.574219 12.007812 24.546875 12.136719 C 24.519531 12.261719 24.390625 12.34375 24.265625 12.316406 C 22.660156 11.960938 21.335938 11.445312 20.171875 11.089844 C 19.425781 10.863281 18.746094 10.699219 18.097656 10.703125 C 16.085938 10.714844 16.195312 11.3125 10.210938 12.402344 Z M 10.210938 12.402344 " fill-opacity="1" fill-rule="evenodd"/><g clip-path="url(#7f9d41755b)"><path fill="#c4942e" d="M 2.605469 10.214844 C 9.3125 11.566406 9.660156 11.738281 10.132812 11.871094 C 8.796875 16.226562 8.773438 16.199219 8.03125 20.238281 C 6.167969 20.628906 6.175781 20.359375 1.808594 20.0625 " fill-opacity="1" fill-rule="evenodd"/></g><g clip-path="url(#827e8e71ca)"><path fill="#c4942e" d="M 2.558594 10.445312 C 2.429688 10.421875 2.347656 10.292969 2.371094 10.167969 C 2.398438 10.039062 2.523438 9.953125 2.652344 9.980469 C 9.375 11.335938 9.722656 11.507812 10.199219 11.644531 C 10.257812 11.660156 10.3125 11.703125 10.339844 11.757812 C 10.371094 11.8125 10.378906 11.878906 10.359375 11.941406 C 9.027344 16.28125 9.003906 16.253906 8.265625 20.28125 C 8.25 20.378906 8.175781 20.453125 8.082031 20.472656 C 6.199219 20.863281 6.203125 20.601562 1.792969 20.300781 C 1.664062 20.289062 1.5625 20.175781 1.570312 20.046875 C 1.582031 19.917969 1.695312 19.816406 1.824219 19.828125 C 6.019531 20.113281 6.136719 20.375 7.828125 20.039062 C 8.53125 16.214844 8.582031 16.117188 9.835938 12.03125 C 9.339844 11.886719 8.222656 11.589844 2.558594 10.445312 Z M 2.558594 10.445312 " fill-opacity="1" fill-rule="evenodd"/></g><path fill="#ffffff" d="M 10.074219 21.574219 C 9.097656 19.25 11.765625 18.714844 12.246094 19.074219 C 13.417969 19.949219 10.984375 22.851562 10.074219 21.574219 Z M 10.074219 21.574219 " fill-opacity="1" fill-rule="evenodd"/><path fill="#c4942e" d="M 9.855469 21.667969 C 9.550781 20.9375 9.578125 20.367188 9.765625 19.929688 C 10.054688 19.269531 10.734375 18.90625 11.332031 18.785156 C 11.796875 18.6875 12.210938 18.75 12.386719 18.882812 C 12.6875 19.109375 12.8125 19.433594 12.792969 19.804688 C 12.773438 20.28125 12.503906 20.839844 12.121094 21.285156 C 11.800781 21.660156 11.40625 21.953125 11.035156 22.074219 C 10.59375 22.210938 10.175781 22.128906 9.882812 21.710938 C 9.871094 21.699219 9.863281 21.683594 9.855469 21.667969 Z M 10.285156 21.457031 C 10.441406 21.664062 10.664062 21.691406 10.890625 21.621094 C 11.191406 21.523438 11.503906 21.277344 11.761719 20.976562 C 12.019531 20.671875 12.226562 20.304688 12.296875 19.964844 C 12.355469 19.6875 12.320312 19.425781 12.105469 19.265625 C 12.070312 19.238281 12.019531 19.226562 11.953125 19.21875 C 11.8125 19.199219 11.625 19.207031 11.425781 19.25 C 10.960938 19.34375 10.421875 19.605469 10.203125 20.117188 C 10.054688 20.457031 10.054688 20.898438 10.285156 21.457031 Z M 10.285156 21.457031 " fill-opacity="1" fill-rule="evenodd"/></svg>