<svg xmlns="http://www.w3.org/2000/svg" xmlns:xlink="http://www.w3.org/1999/xlink" width="45" zoomAndPan="magnify" viewBox="0 0 33.75 33.749998" height="45" preserveAspectRatio="xMidYMid meet" version="1.0"><defs><clipPath id="79f5c2ae71"><path d="M 5.027344 1.09375 L 28.105469 1.09375 L 28.105469 32.359375 L 5.027344 32.359375 Z M 5.027344 1.09375 " clip-rule="nonzero"/></clipPath></defs><g clip-path="url(#79f5c2ae71)"><path fill="#c4942e" d="M 28.449219 13.996094 L 28.449219 7.691406 C 28.449219 7.664062 28.433594 7.640625 28.40625 7.628906 C 24.121094 5.972656 20.257812 3.792969 16.796875 1.117188 C 16.773438 1.097656 16.742188 1.097656 16.714844 1.117188 C 13.253906 3.792969 9.390625 5.972656 5.105469 7.628906 C 5.078125 7.640625 5.0625 7.664062 5.0625 7.691406 L 5.0625 15.390625 C 5.027344 22.125 9.535156 28.179688 16.722656 32.386719 C 16.746094 32.402344 16.769531 32.402344 16.789062 32.386719 C 23.640625 28.378906 28.046875 22.695312 28.425781 16.351562 C 28.46875 15.589844 28.449219 14.753906 28.449219 13.996094 Z M 9.039062 11.367188 C 8.828125 11.199219 8.792969 10.894531 8.960938 10.683594 C 9.128906 10.472656 9.433594 10.4375 9.644531 10.605469 L 10.589844 11.363281 C 10.605469 11.375 10.621094 11.378906 10.640625 11.375 C 10.660156 11.371094 10.675781 11.363281 10.683594 11.347656 L 12.347656 8.734375 C 12.492188 8.503906 12.792969 8.4375 13.019531 8.582031 C 13.246094 8.726562 13.3125 9.03125 13.167969 9.257812 L 11.175781 12.386719 C 11.019531 12.628906 10.6875 12.6875 10.460938 12.507812 Z M 14.949219 20.644531 C 14.675781 20.644531 14.457031 20.421875 14.457031 20.152344 C 14.457031 19.882812 14.675781 19.664062 14.949219 19.664062 L 24.175781 19.664062 C 24.445312 19.664062 24.664062 19.882812 24.664062 20.152344 C 24.664062 20.421875 24.445312 20.644531 24.175781 20.644531 Z M 9.039062 20.960938 C 8.828125 20.792969 8.792969 20.488281 8.960938 20.277344 C 9.128906 20.066406 9.433594 20.03125 9.644531 20.199219 L 10.589844 20.953125 C 10.605469 20.964844 10.621094 20.972656 10.640625 20.96875 C 10.660156 20.964844 10.675781 20.953125 10.683594 20.9375 L 12.347656 18.324219 C 12.492188 18.097656 12.792969 18.03125 13.019531 18.175781 C 13.246094 18.320312 13.3125 18.621094 13.167969 18.847656 L 11.175781 21.980469 C 11.019531 22.222656 10.6875 22.28125 10.460938 22.101562 Z M 14.949219 15.847656 C 14.675781 15.847656 14.457031 15.628906 14.457031 15.355469 C 14.457031 15.085938 14.675781 14.867188 14.949219 14.867188 L 24.175781 14.867188 C 24.445312 14.867188 24.664062 15.085938 24.664062 15.355469 C 24.664062 15.628906 24.445312 15.847656 24.175781 15.847656 Z M 9.039062 16.164062 C 8.828125 15.996094 8.792969 15.691406 8.960938 15.480469 C 9.128906 15.269531 9.433594 15.234375 9.644531 15.402344 L 10.589844 16.15625 C 10.605469 16.171875 10.621094 16.175781 10.640625 16.171875 C 10.660156 16.167969 10.675781 16.160156 10.683594 16.140625 L 12.347656 13.527344 C 12.492188 13.300781 12.792969 13.234375 13.019531 13.378906 C 13.246094 13.523438 13.3125 13.824219 13.167969 14.050781 L 11.175781 17.183594 C 11.019531 17.425781 10.6875 17.484375 10.460938 17.304688 Z M 14.949219 11.050781 C 14.675781 11.050781 14.457031 10.832031 14.457031 10.5625 C 14.457031 10.289062 14.675781 10.070312 14.949219 10.070312 L 24.175781 10.070312 C 24.445312 10.070312 24.664062 10.289062 24.664062 10.5625 C 24.664062 10.832031 24.445312 11.050781 24.175781 11.050781 Z M 14.949219 11.050781 " fill-opacity="1" fill-rule="evenodd"/></g></svg>