<svg xmlns="http://www.w3.org/2000/svg" xmlns:xlink="http://www.w3.org/1999/xlink" width="45" zoomAndPan="magnify" viewBox="0 0 33.75 33.749998" height="45" preserveAspectRatio="xMidYMid meet" version="1.0"><defs><clipPath id="91ebd37aa1"><path d="M 0.902344 16 L 7 16 L 7 22 L 0.902344 22 Z M 0.902344 16 " clip-rule="nonzero"/></clipPath><clipPath id="658d3e604d"><path d="M 17 26 L 32 26 L 32 27.234375 L 17 27.234375 Z M 17 26 " clip-rule="nonzero"/></clipPath><clipPath id="6cb2ad567e"><path d="M 17 6.390625 L 25 6.390625 L 25 11 L 17 11 Z M 17 6.390625 " clip-rule="nonzero"/></clipPath><clipPath id="6d5310e400"><path d="M 16 10 L 32.917969 10 L 32.917969 18 L 16 18 Z M 16 10 " clip-rule="nonzero"/></clipPath></defs><path fill="#c4942e" d="M 17.492188 8.804688 C 17.417969 8.730469 17.339844 8.660156 17.261719 8.585938 C 16.886719 8.957031 16.574219 9.398438 16.34375 9.886719 C 16.359375 9.898438 16.371094 9.90625 16.378906 9.917969 C 16.925781 10.464844 17.195312 11.183594 17.195312 11.902344 C 17.195312 12.628906 16.917969 13.347656 16.371094 13.902344 C 15.816406 14.453125 15.097656 14.726562 14.375 14.726562 C 13.65625 14.726562 12.9375 14.449219 12.386719 13.90625 C 11.859375 13.375 11.5625 12.667969 11.5625 11.917969 C 11.5625 11.164062 11.859375 10.460938 12.394531 9.925781 C 13.265625 9.054688 14.570312 8.871094 15.625 9.378906 C 15.871094 8.894531 16.179688 8.460938 16.542969 8.078125 C 15.882812 7.710938 15.144531 7.523438 14.40625 7.523438 C 13.277344 7.523438 12.152344 7.953125 11.292969 8.816406 C 9.914062 10.195312 9.597656 12.273438 10.507812 13.988281 C 10.601562 14.15625 10.570312 14.363281 10.429688 14.496094 L 7.226562 17.699219 L 2.773438 22.148438 C 2.730469 22.195312 2.683594 22.25 2.644531 22.308594 C 2.636719 22.316406 2.636719 22.320312 2.628906 22.328125 C 2.617188 22.339844 2.609375 22.359375 2.601562 22.375 C 2.601562 22.375 2.601562 22.378906 2.597656 22.378906 C 2.523438 22.519531 2.492188 22.671875 2.492188 22.828125 C 2.492188 23.085938 2.589844 23.328125 2.773438 23.515625 C 2.960938 23.699219 3.203125 23.796875 3.460938 23.796875 C 3.71875 23.796875 3.960938 23.699219 4.144531 23.515625 L 11.800781 15.859375 C 11.933594 15.726562 12.144531 15.695312 12.308594 15.78125 C 13.4375 16.378906 14.722656 16.445312 15.863281 16.03125 C 15.894531 16.011719 15.929688 15.996094 15.96875 15.992188 C 16.523438 15.773438 17.039062 15.4375 17.480469 14.996094 C 19.195312 13.292969 19.199219 10.511719 17.492188 8.804688 Z M 17.492188 8.804688 " fill-opacity="1" fill-rule="nonzero"/><path fill="#c4942e" d="M 15.546875 10.339844 C 15.203125 10.089844 14.800781 9.964844 14.394531 9.964844 C 13.890625 9.964844 13.390625 10.15625 13.007812 10.539062 C 12.640625 10.90625 12.433594 11.394531 12.433594 11.917969 C 12.433594 12.4375 12.632812 12.925781 13 13.292969 C 13.761719 14.050781 14.992188 14.046875 15.757812 13.289062 C 16.523438 12.523438 16.523438 11.289062 15.765625 10.53125 C 15.707031 10.472656 15.640625 10.414062 15.574219 10.367188 C 15.566406 10.355469 15.558594 10.347656 15.546875 10.339844 Z M 15.546875 10.339844 " fill-opacity="1" fill-rule="nonzero"/><g clip-path="url(#91ebd37aa1)"><path fill="#c4942e" d="M 5.367188 16.453125 C 4.945312 16.03125 4.257812 16.03125 3.835938 16.453125 L 3.804688 16.484375 L 4.421875 17.105469 C 4.59375 17.277344 4.59375 17.546875 4.421875 17.71875 L 2.503906 19.636719 C 2.425781 19.714844 2.3125 19.761719 2.195312 19.761719 C 2.082031 19.761719 1.96875 19.714844 1.890625 19.636719 L 1.273438 19.019531 L 1.238281 19.050781 C 1.035156 19.253906 0.921875 19.527344 0.921875 19.816406 C 0.921875 20.105469 1.035156 20.375 1.238281 20.582031 L 2.179688 21.515625 L 6.308594 17.390625 Z M 5.367188 16.453125 " fill-opacity="1" fill-rule="nonzero"/></g><g clip-path="url(#658d3e604d)"><path fill="#c4942e" d="M 17.800781 26.164062 L 31.273438 26.164062 L 31.273438 27.109375 L 17.800781 27.109375 Z M 17.800781 26.164062 " fill-opacity="1" fill-rule="nonzero"/></g><path fill="#c4942e" d="M 30.671875 25.300781 L 30.671875 17.25 L 24.539062 13.078125 L 18.363281 17.285156 L 18.363281 25.300781 L 22.113281 25.300781 L 22.113281 19.855469 C 22.113281 19.617188 22.304688 19.421875 22.550781 19.421875 L 26.53125 19.421875 C 26.769531 19.421875 26.96875 19.609375 26.96875 19.855469 L 26.96875 25.300781 Z M 30.671875 25.300781 " fill-opacity="1" fill-rule="nonzero"/><path fill="#c4942e" d="M 22.976562 20.289062 L 26.097656 20.289062 L 26.097656 25.300781 L 22.976562 25.300781 Z M 22.976562 20.289062 " fill-opacity="1" fill-rule="nonzero"/><g clip-path="url(#6cb2ad567e)"><path fill="#c4942e" d="M 20.464844 7.261719 C 22.457031 7.261719 23.566406 8.136719 24.027344 10.089844 C 24.308594 9.976562 24.613281 9.957031 24.902344 10.035156 C 24.375 7.585938 22.917969 6.390625 20.464844 6.390625 C 19.277344 6.390625 18.144531 6.792969 17.222656 7.480469 C 17.472656 7.636719 17.714844 7.820312 17.941406 8.03125 C 18.679688 7.539062 19.550781 7.261719 20.464844 7.261719 Z M 20.464844 7.261719 " fill-opacity="1" fill-rule="nonzero"/></g><g clip-path="url(#6d5310e400)"><path fill="#c4942e" d="M 32.566406 16.398438 C 32.539062 16.261719 32.460938 16.144531 32.339844 16.0625 L 24.832031 10.953125 C 24.738281 10.894531 24.640625 10.859375 24.535156 10.859375 C 24.433594 10.859375 24.328125 10.894531 24.238281 10.953125 L 18.898438 14.585938 C 18.679688 14.957031 18.410156 15.304688 18.09375 15.621094 C 17.636719 16.078125 17.109375 16.441406 16.535156 16.695312 C 16.550781 16.730469 16.5625 16.761719 16.589844 16.789062 C 16.667969 16.90625 16.785156 16.988281 16.925781 17.011719 C 17.0625 17.039062 17.203125 17.011719 17.320312 16.933594 L 17.675781 16.691406 L 24.289062 12.191406 C 24.433594 12.09375 24.632812 12.09375 24.777344 12.191406 L 31.34375 16.664062 L 31.746094 16.933594 C 31.867188 17.011719 32.003906 17.039062 32.144531 17.011719 C 32.28125 16.988281 32.402344 16.90625 32.480469 16.789062 C 32.566406 16.675781 32.59375 16.539062 32.566406 16.398438 Z M 32.566406 16.398438 " fill-opacity="1" fill-rule="nonzero"/></g></svg>