<svg xmlns="http://www.w3.org/2000/svg" xmlns:xlink="http://www.w3.org/1999/xlink" width="45" zoomAndPan="magnify" viewBox="0 0 33.75 33.749998" height="45" preserveAspectRatio="xMidYMid meet" version="1.0"><defs><clipPath id="5ba7d61f06"><path d="M 4 1.414062 L 30 1.414062 L 30 31.9375 L 4 31.9375 Z M 4 1.414062 " clip-rule="nonzero"/></clipPath><clipPath id="93a06eed14"><path d="M 3.351562 1.414062 L 30 1.414062 L 30 31.9375 L 3.351562 31.9375 Z M 3.351562 1.414062 " clip-rule="nonzero"/></clipPath><clipPath id="156f038b57"><path d="M 8.121094 9.359375 L 26.734375 9.359375 L 26.734375 22.761719 L 8.121094 22.761719 Z M 8.121094 9.359375 " clip-rule="nonzero"/></clipPath></defs><g clip-path="url(#5ba7d61f06)"><path fill="#ffffff" d="M 28.957031 4.917969 C 26.984375 2.945312 16.746094 1.929688 16.746094 1.929688 C 16.746094 1.929688 6.507812 2.945312 4.535156 4.917969 C 4.535156 4.917969 3.382812 15.527344 5.296875 20.941406 C 8.222656 29.210938 16.746094 31.5625 16.746094 31.5625 C 16.746094 31.5625 25.265625 29.210938 28.191406 20.941406 C 30.109375 15.527344 28.957031 4.917969 28.957031 4.917969 " fill-opacity="1" fill-rule="nonzero"/></g><g clip-path="url(#93a06eed14)"><path fill="#c4942e" d="M 28.957031 4.917969 L 29.316406 4.554688 C 29.160156 4.398438 28.972656 4.257812 28.765625 4.125 C 28.378906 3.882812 27.910156 3.667969 27.378906 3.46875 C 26.453125 3.121094 25.335938 2.824219 24.171875 2.570312 C 22.429688 2.1875 20.589844 1.902344 19.183594 1.710938 C 17.773438 1.515625 16.800781 1.421875 16.796875 1.417969 C 16.765625 1.417969 16.726562 1.417969 16.695312 1.417969 C 16.6875 1.421875 14.117188 1.675781 11.289062 2.179688 C 9.875 2.433594 8.394531 2.746094 7.128906 3.128906 C 6.492188 3.320312 5.910156 3.527344 5.410156 3.757812 C 5.160156 3.875 4.933594 3.996094 4.726562 4.125 C 4.519531 4.257812 4.332031 4.398438 4.175781 4.554688 C 4.09375 4.636719 4.039062 4.746094 4.027344 4.863281 C 4.027344 4.875 3.679688 8.050781 3.679688 11.839844 C 3.679688 13.410156 3.738281 15.089844 3.910156 16.691406 C 4.082031 18.296875 4.363281 19.824219 4.816406 21.113281 C 5.570312 23.246094 6.691406 25 7.9375 26.425781 C 9.808594 28.566406 11.96875 29.964844 13.660156 30.835938 C 15.355469 31.707031 16.585938 32.046875 16.609375 32.054688 C 16.699219 32.078125 16.792969 32.078125 16.882812 32.054688 C 16.914062 32.046875 19.089844 31.445312 21.652344 29.78125 C 22.929688 28.949219 24.308594 27.851562 25.554688 26.425781 C 26.800781 25 27.917969 23.246094 28.675781 21.113281 C 29.128906 19.824219 29.410156 18.296875 29.582031 16.691406 C 29.75 15.089844 29.8125 13.410156 29.8125 11.839844 C 29.8125 8.050781 29.464844 4.875 29.464844 4.863281 C 29.449219 4.746094 29.398438 4.636719 29.316406 4.554688 L 28.957031 4.917969 L 28.449219 4.972656 L 28.449219 4.980469 C 28.46875 5.160156 28.789062 8.230469 28.789062 11.839844 C 28.789062 13.386719 28.730469 15.03125 28.566406 16.585938 C 28.398438 18.140625 28.125 19.601562 27.710938 20.773438 C 27.003906 22.773438 25.960938 24.414062 24.785156 25.753906 C 23.027344 27.765625 20.972656 29.101562 19.363281 29.929688 C 18.558594 30.34375 17.863281 30.628906 17.371094 30.8125 C 17.128906 30.90625 16.933594 30.96875 16.804688 31.011719 C 16.738281 31.03125 16.6875 31.046875 16.65625 31.058594 C 16.636719 31.0625 16.625 31.066406 16.617188 31.070312 L 16.609375 31.070312 L 16.699219 31.386719 L 16.609375 31.070312 L 16.699219 31.386719 L 16.609375 31.070312 L 16.746094 31.5625 L 16.882812 31.070312 C 16.847656 31.0625 14.757812 30.472656 12.339844 28.886719 C 11.132812 28.097656 9.839844 27.058594 8.679688 25.722656 C 7.515625 24.386719 6.484375 22.757812 5.78125 20.773438 C 5.367188 19.601562 5.089844 18.136719 4.925781 16.585938 C 4.761719 15.03125 4.703125 13.386719 4.703125 11.839844 C 4.703125 9.976562 4.789062 8.257812 4.871094 7.003906 C 4.914062 6.378906 4.957031 5.867188 4.992188 5.515625 C 5.007812 5.339844 5.019531 5.203125 5.027344 5.113281 C 5.035156 5.066406 5.039062 5.03125 5.039062 5.007812 C 5.039062 4.996094 5.042969 4.984375 5.042969 4.980469 L 5.042969 4.972656 L 4.535156 4.917969 L 4.898438 5.277344 C 4.984375 5.191406 5.109375 5.089844 5.269531 4.992188 C 5.570312 4.800781 5.984375 4.609375 6.472656 4.425781 C 7.324219 4.105469 8.40625 3.816406 9.539062 3.566406 C 11.238281 3.195312 13.054688 2.910156 14.445312 2.722656 C 15.140625 2.625 15.730469 2.554688 16.144531 2.507812 C 16.351562 2.484375 16.515625 2.464844 16.625 2.453125 C 16.683594 2.449219 16.726562 2.441406 16.753906 2.441406 C 16.78125 2.4375 16.796875 2.4375 16.796875 2.4375 L 16.746094 1.929688 L 16.695312 2.4375 C 16.695312 2.4375 16.703125 2.4375 16.722656 2.4375 C 17.015625 2.46875 19.574219 2.738281 22.285156 3.234375 C 23.636719 3.480469 25.027344 3.785156 26.179688 4.140625 C 26.757812 4.320312 27.273438 4.507812 27.691406 4.707031 C 27.898438 4.804688 28.082031 4.902344 28.234375 5 C 28.390625 5.097656 28.507812 5.191406 28.59375 5.277344 L 28.957031 4.917969 L 28.449219 4.972656 L 28.957031 4.917969 " fill-opacity="1" fill-rule="nonzero"/></g><g clip-path="url(#156f038b57)"><path fill="#c4942e" d="M 14.683594 12.320312 L 15.550781 9.933594 C 15.554688 9.933594 15.554688 9.929688 15.554688 9.929688 C 15.558594 9.925781 15.554688 9.921875 15.558594 9.921875 L 15.757812 9.363281 L 26.449219 13.222656 L 24.921875 14.097656 L 21.503906 12.851562 C 21.464844 12.839844 21.429688 12.832031 21.390625 12.832031 C 21.328125 12.832031 21.265625 12.851562 21.210938 12.886719 L 19.410156 14.089844 Z M 8.121094 22.542969 L 10.0625 22.542969 L 10.0625 14.777344 L 8.121094 14.777344 Z M 26.261719 14.546875 L 25.378906 16.980469 L 25.976562 17.199219 L 26.859375 14.765625 Z M 25.113281 14.734375 C 25.03125 14.78125 24.929688 14.789062 24.839844 14.757812 L 21.433594 13.519531 L 19.628906 14.722656 C 19.574219 14.757812 19.511719 14.777344 19.449219 14.777344 C 19.410156 14.777344 19.371094 14.769531 19.335938 14.753906 L 14.15625 12.8125 C 13.992188 12.75 13.90625 12.566406 13.964844 12.398438 L 14.835938 10.011719 L 14.285156 9.8125 C 14.101562 9.742188 13.898438 9.839844 13.835938 10.027344 L 12.796875 13.117188 C 12.710938 13.371094 12.84375 13.648438 13.097656 13.742188 L 17.242188 15.25 L 17.019531 15.851562 C 16.945312 16.058594 16.945312 16.277344 17.015625 16.476562 L 17.023438 16.523438 L 17.09375 16.640625 C 17.113281 16.679688 17.140625 16.714844 17.167969 16.75 L 16.203125 18.035156 L 12.328125 18.035156 L 12.328125 17.117188 C 12.328125 16.898438 12.148438 16.71875 11.929688 16.71875 L 10.710938 16.71875 L 10.710938 20.601562 L 11.929688 20.601562 C 12.148438 20.601562 12.328125 20.421875 12.328125 20.203125 L 12.328125 19.285156 L 16.535156 19.285156 C 16.742188 19.285156 16.925781 19.191406 17.042969 19.027344 L 18.320312 17.304688 C 18.375 17.316406 18.433594 17.324219 18.496094 17.324219 C 18.886719 17.324219 19.238281 17.078125 19.375 16.710938 L 19.59375 16.105469 L 23.980469 17.703125 C 24.242188 17.796875 24.53125 17.65625 24.621094 17.394531 L 25.59375 14.457031 Z M 25.113281 14.734375 " fill-opacity="1" fill-rule="nonzero"/></g></svg>