<svg xmlns="http://www.w3.org/2000/svg" xmlns:xlink="http://www.w3.org/1999/xlink" width="45" zoomAndPan="magnify" viewBox="0 0 33.75 33.749998" height="45" preserveAspectRatio="xMidYMid meet" version="1.0"><defs><clipPath id="df70bb6278"><path d="M 13 1.414062 L 20 1.414062 L 20 8 L 13 8 Z M 13 1.414062 " clip-rule="nonzero"/></clipPath><clipPath id="ed41bd910f"><path d="M 13 25 L 20 25 L 20 31.9375 L 13 31.9375 Z M 13 25 " clip-rule="nonzero"/></clipPath><clipPath id="1ca339a413"><path d="M 25 13 L 31.9375 13 L 31.9375 20 L 25 20 Z M 25 13 " clip-rule="nonzero"/></clipPath><clipPath id="192e8b2d6f"><path d="M 1.414062 13 L 8 13 L 8 20 L 1.414062 20 Z M 1.414062 13 " clip-rule="nonzero"/></clipPath></defs><g clip-path="url(#df70bb6278)"><path fill="#c4942e" d="M 19.859375 4.527344 C 19.859375 6.25 18.464844 7.644531 16.746094 7.644531 C 15.027344 7.644531 13.632812 6.25 13.632812 4.527344 C 13.632812 2.808594 15.027344 1.414062 16.746094 1.414062 C 18.464844 1.414062 19.859375 2.808594 19.859375 4.527344 " fill-opacity="1" fill-rule="nonzero"/></g><path fill="#c4942e" d="M 14.398438 18.132812 L 14.398438 12.386719 C 14.398438 10.996094 15.644531 9.847656 17.082031 10.039062 C 17.753906 10.132812 18.277344 10.46875 18.664062 10.996094 L 21.34375 10.996094 C 20.914062 9.609375 19.910156 8.507812 18.566406 7.929688 C 18.039062 8.21875 17.417969 8.363281 16.746094 8.363281 C 16.121094 8.363281 15.503906 8.21875 14.972656 7.929688 C 13.203125 8.746094 11.957031 10.519531 11.957031 12.53125 L 11.957031 18.089844 C 12.339844 18.183594 12.484375 18.132812 14.398438 18.132812 " fill-opacity="1" fill-rule="nonzero"/><path fill="#c4942e" d="M 21.539062 20.964844 L 21.539062 16.839844 C 21.539062 16.171875 21.007812 15.644531 20.339844 15.644531 C 19.671875 15.644531 19.140625 16.171875 19.140625 16.839844 L 19.140625 21.058594 C 19.140625 22.445312 17.898438 23.597656 16.457031 23.40625 C 15.789062 23.308594 15.261719 22.976562 14.878906 22.445312 L 12.195312 22.445312 C 12.625 23.835938 13.679688 24.988281 14.972656 25.515625 C 15.5 25.226562 16.121094 25.085938 16.796875 25.085938 C 17.417969 25.085938 18.039062 25.226562 18.566406 25.515625 C 20.292969 24.746094 21.539062 22.976562 21.539062 20.964844 " fill-opacity="1" fill-rule="nonzero"/><g clip-path="url(#ed41bd910f)"><path fill="#c4942e" d="M 19.859375 28.964844 C 19.859375 30.683594 18.464844 32.078125 16.746094 32.078125 C 15.027344 32.078125 13.632812 30.683594 13.632812 28.964844 C 13.632812 27.242188 15.027344 25.847656 16.746094 25.847656 C 18.464844 25.847656 19.859375 27.242188 19.859375 28.964844 " fill-opacity="1" fill-rule="nonzero"/></g><path fill="#c4942e" d="M 25.515625 14.972656 C 24.746094 13.203125 22.976562 11.957031 20.964844 11.957031 L 15.402344 11.957031 C 15.308594 12.289062 15.359375 12.433594 15.359375 14.351562 L 21.105469 14.351562 C 22.496094 14.351562 23.644531 15.597656 23.453125 17.035156 C 23.359375 17.703125 23.023438 18.234375 22.496094 18.613281 L 22.496094 21.296875 C 23.835938 20.914062 24.988281 19.910156 25.5625 18.519531 C 25.273438 17.992188 25.128906 17.371094 25.128906 16.699219 C 25.085938 16.121094 25.226562 15.503906 25.515625 14.972656 " fill-opacity="1" fill-rule="nonzero"/><g clip-path="url(#1ca339a413)"><path fill="#c4942e" d="M 32.078125 16.746094 C 32.078125 18.464844 30.683594 19.859375 28.964844 19.859375 C 27.242188 19.859375 25.847656 18.464844 25.847656 16.746094 C 25.847656 15.027344 27.242188 13.632812 28.964844 13.632812 C 30.683594 13.632812 32.078125 15.027344 32.078125 16.746094 " fill-opacity="1" fill-rule="nonzero"/></g><path fill="#c4942e" d="M 7.976562 18.519531 C 8.746094 20.292969 10.519531 21.488281 12.53125 21.488281 L 18.089844 21.488281 C 18.183594 21.105469 18.132812 21.007812 18.132812 19.09375 L 12.386719 19.09375 C 10.996094 19.09375 9.847656 17.847656 10.039062 16.410156 C 10.132812 15.738281 10.46875 15.214844 10.996094 14.828125 L 10.996094 12.144531 C 9.65625 12.578125 8.507812 13.582031 7.929688 14.925781 C 8.21875 15.453125 8.363281 16.074219 8.363281 16.746094 C 8.40625 17.371094 8.265625 17.992188 7.976562 18.519531 " fill-opacity="1" fill-rule="nonzero"/><g clip-path="url(#192e8b2d6f)"><path fill="#c4942e" d="M 7.644531 16.746094 C 7.644531 18.464844 6.25 19.859375 4.527344 19.859375 C 2.808594 19.859375 1.414062 18.464844 1.414062 16.746094 C 1.414062 15.027344 2.808594 13.632812 4.527344 13.632812 C 6.25 13.632812 7.644531 15.027344 7.644531 16.746094 " fill-opacity="1" fill-rule="nonzero"/></g></svg>