<svg xmlns="http://www.w3.org/2000/svg" xmlns:xlink="http://www.w3.org/1999/xlink" width="45" zoomAndPan="magnify" viewBox="0 0 33.75 33.749998" height="45" preserveAspectRatio="xMidYMid meet" version="1.0"><defs><clipPath id="169944577b"><path d="M 4.734375 1.191406 L 28.554688 1.191406 L 28.554688 32.460938 L 4.734375 32.460938 Z M 4.734375 1.191406 " clip-rule="nonzero"/></clipPath></defs><g clip-path="url(#169944577b)"><path fill="#c4942e" d="M 5.375 1.191406 L 23.855469 1.191406 L 23.855469 4.769531 C 23.855469 5.496094 24.445312 6.085938 25.171875 6.085938 L 28.746094 6.085938 L 28.746094 31.671875 C 28.746094 32.015625 28.464844 32.296875 28.117188 32.296875 L 5.375 32.296875 C 5.027344 32.296875 4.746094 32.015625 4.746094 31.671875 L 4.746094 1.820312 C 4.746094 1.476562 5.027344 1.191406 5.375 1.191406 Z M 24.855469 1.246094 L 24.855469 4.769531 C 24.855469 4.941406 25 5.082031 25.171875 5.082031 L 28.691406 5.082031 C 28.660156 5.015625 28.617188 4.953125 28.5625 4.898438 L 25.039062 1.375 C 24.984375 1.320312 24.925781 1.277344 24.855469 1.246094 Z M 11.726562 24.527344 C 11.503906 24.527344 11.320312 24.710938 11.320312 24.933594 L 11.320312 29.234375 C 11.320312 29.457031 11.503906 29.640625 11.726562 29.640625 L 12.695312 29.640625 C 12.917969 29.640625 13.101562 29.457031 13.101562 29.234375 L 13.101562 24.933594 C 13.101562 24.710938 12.917969 24.527344 12.695312 24.527344 Z M 23.21875 18.511719 C 22.992188 18.511719 22.808594 18.695312 22.808594 18.917969 L 22.808594 29.234375 C 22.808594 29.457031 22.992188 29.640625 23.21875 29.640625 L 24.183594 29.640625 C 24.40625 29.640625 24.589844 29.457031 24.589844 29.234375 L 24.589844 18.917969 C 24.589844 18.695312 24.40625 18.511719 24.183594 18.511719 Z M 19.386719 20.515625 C 19.164062 20.515625 18.980469 20.699219 18.980469 20.921875 C 18.980469 23.695312 18.980469 26.464844 18.980469 29.234375 C 18.980469 29.457031 19.164062 29.640625 19.386719 29.640625 C 19.710938 29.640625 20.03125 29.640625 20.351562 29.640625 C 20.578125 29.640625 20.761719 29.457031 20.761719 29.234375 C 20.761719 26.464844 20.761719 23.695312 20.761719 20.921875 C 20.761719 20.699219 20.578125 20.515625 20.351562 20.515625 C 20.03125 20.515625 19.710938 20.515625 19.386719 20.515625 Z M 15.558594 22.523438 C 15.332031 22.523438 15.152344 22.703125 15.152344 22.929688 C 15.152344 25.03125 15.152344 27.132812 15.152344 29.234375 C 15.152344 29.457031 15.332031 29.640625 15.558594 29.640625 C 15.878906 29.640625 16.203125 29.640625 16.523438 29.640625 C 16.746094 29.640625 16.929688 29.457031 16.929688 29.234375 C 16.929688 27.132812 16.929688 25.03125 16.929688 22.929688 C 16.929688 22.703125 16.746094 22.523438 16.523438 22.523438 C 16.203125 22.523438 15.878906 22.523438 15.558594 22.523438 Z M 10.808594 18.25 L 14.613281 18.25 C 14.890625 18.25 15.113281 18.023438 15.113281 17.746094 C 15.113281 17.46875 14.890625 17.246094 14.613281 17.246094 L 10.808594 17.246094 C 10.53125 17.246094 10.304688 17.46875 10.304688 17.746094 C 10.304688 18.023438 10.53125 18.25 10.808594 18.25 Z M 8.773438 20.65625 L 9.289062 20.65625 C 9.566406 20.65625 9.789062 20.429688 9.789062 20.15625 C 9.789062 19.878906 9.566406 19.652344 9.289062 19.652344 L 8.773438 19.652344 C 8.496094 19.652344 8.273438 19.878906 8.273438 20.15625 C 8.273438 20.429688 8.496094 20.65625 8.773438 20.65625 Z M 8.773438 18.25 L 9.289062 18.25 C 9.566406 18.25 9.789062 18.023438 9.789062 17.746094 C 9.789062 17.46875 9.566406 17.246094 9.289062 17.246094 L 8.773438 17.246094 C 8.496094 17.246094 8.273438 17.46875 8.273438 17.746094 C 8.273438 18.023438 8.496094 18.25 8.773438 18.25 Z M 10.808594 20.65625 L 14.613281 20.65625 C 14.890625 20.65625 15.113281 20.429688 15.113281 20.15625 C 15.113281 19.878906 14.890625 19.652344 14.613281 19.652344 L 10.808594 19.652344 C 10.53125 19.652344 10.304688 19.878906 10.304688 20.15625 C 10.304688 20.429688 10.53125 20.65625 10.808594 20.65625 Z M 20.785156 13.652344 L 25.292969 13.652344 C 25.570312 13.652344 25.792969 13.429688 25.792969 13.152344 C 25.792969 12.875 25.570312 12.648438 25.292969 12.648438 L 20.785156 12.648438 C 20.507812 12.648438 20.28125 12.875 20.28125 13.152344 C 20.28125 13.429688 20.507812 13.652344 20.785156 13.652344 Z M 20.785156 11.246094 L 25.292969 11.246094 C 25.570312 11.246094 25.792969 11.019531 25.792969 10.742188 C 25.792969 10.464844 25.570312 10.242188 25.292969 10.242188 L 20.785156 10.242188 C 20.507812 10.242188 20.28125 10.464844 20.28125 10.742188 C 20.28125 11.019531 20.507812 11.246094 20.785156 11.246094 Z M 20.785156 8.835938 L 25.292969 8.835938 C 25.570312 8.835938 25.792969 8.613281 25.792969 8.335938 C 25.792969 8.058594 25.570312 7.832031 25.292969 7.832031 L 20.785156 7.832031 C 20.507812 7.832031 20.28125 8.058594 20.28125 8.335938 C 20.28125 8.613281 20.507812 8.835938 20.785156 8.835938 Z M 12.199219 5.144531 C 9.640625 5.398438 7.644531 7.554688 7.644531 10.179688 C 7.644531 12.976562 9.910156 15.242188 12.703125 15.242188 C 13.445312 15.242188 14.152344 15.082031 14.789062 14.792969 L 12.285156 10.460938 C 12.234375 10.382812 12.199219 10.285156 12.199219 10.179688 Z M 15.652344 14.292969 C 16.804688 13.464844 17.589844 12.167969 17.738281 10.683594 L 13.570312 10.683594 Z M 17.738281 9.679688 C 17.5 7.285156 15.597656 5.382812 13.203125 5.144531 L 13.203125 9.679688 Z M 17.738281 9.679688 " fill-opacity="1" fill-rule="evenodd"/></g></svg>