<svg xmlns="http://www.w3.org/2000/svg" xmlns:xlink="http://www.w3.org/1999/xlink" width="45" zoomAndPan="magnify" viewBox="0 0 33.75 33.749998" height="45" preserveAspectRatio="xMidYMid meet" version="1.0"><defs><clipPath id="ae19af9aaf"><path d="M 16 3.351562 L 32.859375 3.351562 L 32.859375 24 L 16 24 Z M 16 3.351562 " clip-rule="nonzero"/></clipPath><clipPath id="2347c6823f"><path d="M 6 12 L 21 12 L 21 30.152344 L 6 30.152344 Z M 6 12 " clip-rule="nonzero"/></clipPath><clipPath id="7619e2fac4"><path d="M 0.84375 19 L 5 19 L 5 30 L 0.84375 30 Z M 0.84375 19 " clip-rule="nonzero"/></clipPath></defs><g clip-path="url(#ae19af9aaf)"><path fill="#c4942e" d="M 31.796875 7.3125 C 26.890625 6.816406 25.457031 4.03125 25.390625 3.898438 C 25.234375 3.566406 24.90625 3.351562 24.539062 3.351562 C 24.167969 3.351562 23.832031 3.566406 23.671875 3.902344 C 23.664062 3.925781 22.265625 6.804688 17.273438 7.308594 C 16.792969 7.359375 16.421875 7.769531 16.421875 8.257812 L 16.421875 13.371094 C 16.421875 14.886719 16.875 16.273438 17.550781 17.496094 C 18.070312 17.488281 18.589844 17.488281 19.035156 17.488281 C 20.824219 17.488281 22.273438 18.949219 22.273438 20.730469 C 22.273438 21.25 22.160156 21.742188 21.929688 22.171875 C 23.085938 23.011719 23.992188 23.484375 24.097656 23.542969 C 24.230469 23.609375 24.378906 23.648438 24.535156 23.648438 C 24.683594 23.648438 24.835938 23.609375 24.964844 23.542969 C 25.285156 23.382812 32.648438 19.523438 32.648438 13.371094 L 32.648438 8.257812 C 32.648438 7.773438 32.285156 7.359375 31.796875 7.3125 Z M 28.308594 11.996094 L 24.171875 16.144531 C 23.980469 16.324219 23.742188 16.425781 23.496094 16.425781 C 23.257812 16.425781 23.011719 16.324219 22.828125 16.144531 L 20.765625 14.082031 C 20.390625 13.710938 20.390625 13.105469 20.765625 12.746094 C 21.136719 12.375 21.738281 12.375 22.105469 12.746094 L 23.492188 14.132812 L 26.96875 10.660156 C 27.339844 10.289062 27.941406 10.289062 28.308594 10.660156 C 28.679688 11.03125 28.679688 11.625 28.308594 11.996094 Z M 28.308594 11.996094 " fill-opacity="1" fill-rule="nonzero"/></g><g clip-path="url(#2347c6823f)"><path fill="#c4942e" d="M 20.390625 20.734375 C 20.390625 19.992188 19.78125 19.386719 19.042969 19.386719 C 18.304688 19.386719 14.609375 19.425781 13.832031 19.421875 C 13.414062 19.417969 13.128906 19.011719 13.253906 18.621094 C 13.648438 17.425781 14.355469 15.238281 14.484375 14.570312 C 14.796875 12.910156 12.21875 12.402344 11.699219 13.699219 C 11.210938 14.917969 9.300781 18.640625 7.054688 20.023438 C 6.789062 20.1875 6.625 20.480469 6.625 20.792969 L 6.609375 28.398438 C 6.609375 28.84375 8.402344 30.148438 10.933594 30.148438 L 18.027344 30.148438 C 18.769531 30.148438 19.375 29.542969 19.375 28.804688 C 19.375 28.179688 18.941406 27.648438 18.359375 27.503906 C 18.332031 27.496094 18.335938 27.457031 18.363281 27.457031 C 19.105469 27.457031 19.710938 26.851562 19.710938 26.113281 C 19.710938 25.488281 19.277344 24.957031 18.695312 24.8125 C 18.667969 24.804688 18.671875 24.765625 18.699219 24.765625 C 19.4375 24.765625 20.042969 24.160156 20.042969 23.421875 C 20.042969 22.796875 19.613281 22.265625 19.03125 22.117188 C 19.003906 22.109375 19.007812 22.070312 19.035156 22.070312 C 19.78125 22.078125 20.390625 21.472656 20.390625 20.734375 Z M 20.390625 20.734375 " fill-opacity="1" fill-rule="nonzero"/></g><g clip-path="url(#7619e2fac4)"><path fill="#c4942e" d="M 3.859375 19.839844 L 1.667969 19.839844 C 1.214844 19.839844 0.84375 20.207031 0.84375 20.664062 L 0.84375 28.675781 C 0.84375 29.128906 1.214844 29.496094 1.667969 29.496094 L 3.859375 29.496094 C 4.3125 29.496094 4.679688 29.128906 4.679688 28.675781 L 4.679688 20.664062 C 4.683594 20.207031 4.3125 19.839844 3.859375 19.839844 Z M 3.859375 19.839844 " fill-opacity="1" fill-rule="nonzero"/></g></svg>