<svg xmlns="http://www.w3.org/2000/svg" xmlns:xlink="http://www.w3.org/1999/xlink" width="80" zoomAndPan="magnify" viewBox="0 0 60 60" height="80" preserveAspectRatio="xMidYMid meet" version="1.0"><defs><clipPath id="7f8f28ff3c"><path d="M 29 3.390625 L 46.644531 3.390625 L 46.644531 41 L 29 41 Z M 29 3.390625 " clip-rule="nonzero"/></clipPath><clipPath id="46f835d5b9"><path d="M 13.644531 3.390625 L 31 3.390625 L 31 41 L 13.644531 41 Z M 13.644531 3.390625 " clip-rule="nonzero"/></clipPath><clipPath id="34e9d2f004"><path d="M 29 33 L 46.644531 33 L 46.644531 56.640625 L 29 56.640625 Z M 29 33 " clip-rule="nonzero"/></clipPath><clipPath id="52676425a9"><path d="M 13.644531 33 L 31 33 L 31 56.640625 L 13.644531 56.640625 Z M 13.644531 33 " clip-rule="nonzero"/></clipPath><clipPath id="14001073b0"><path d="M 30 23 L 46.644531 23 L 46.644531 41 L 30 41 Z M 30 23 " clip-rule="nonzero"/></clipPath><clipPath id="bb62cc1f76"><path d="M 13.644531 23 L 31 23 L 31 41 L 13.644531 41 Z M 13.644531 23 " clip-rule="nonzero"/></clipPath></defs><g clip-path="url(#7f8f28ff3c)"><path fill="#343434" d="M 30.140625 3.390625 L 29.78125 4.601562 L 29.78125 39.8125 L 30.140625 40.167969 L 46.621094 30.507812 Z M 30.140625 3.390625 " fill-opacity="1" fill-rule="nonzero"/></g><g clip-path="url(#46f835d5b9)"><path fill="#8c8c8c" d="M 30.140625 3.390625 L 13.660156 30.507812 L 30.140625 40.167969 Z M 30.140625 3.390625 " fill-opacity="1" fill-rule="nonzero"/></g><g clip-path="url(#34e9d2f004)"><path fill="#3c3c3b" d="M 30.140625 43.265625 L 29.9375 43.507812 L 29.9375 56.050781 L 30.140625 56.640625 L 46.632812 33.609375 Z M 30.140625 43.265625 " fill-opacity="1" fill-rule="nonzero"/></g><g clip-path="url(#52676425a9)"><path fill="#8c8c8c" d="M 30.140625 56.640625 L 30.140625 43.265625 L 13.660156 33.609375 Z M 30.140625 56.640625 " fill-opacity="1" fill-rule="nonzero"/></g><g clip-path="url(#14001073b0)"><path fill="#141414" d="M 30.140625 40.167969 L 46.621094 30.507812 L 30.140625 23.078125 Z M 30.140625 40.167969 " fill-opacity="1" fill-rule="nonzero"/></g><g clip-path="url(#bb62cc1f76)"><path fill="#393939" d="M 13.660156 30.507812 L 30.140625 40.167969 L 30.140625 23.078125 Z M 13.660156 30.507812 " fill-opacity="1" fill-rule="nonzero"/></g></svg>