<svg xmlns="http://www.w3.org/2000/svg" xmlns:xlink="http://www.w3.org/1999/xlink" width="80" zoomAndPan="magnify" viewBox="0 0 60 60" height="80" preserveAspectRatio="xMidYMid meet" version="1.0"><defs><clipPath id="d2743c0377"><path d="M 3.578125 7 L 56.078125 7 L 56.078125 54 L 3.578125 54 Z M 3.578125 7 " clip-rule="nonzero"/></clipPath></defs><path fill="#53c1de" d="M 34.515625 30.035156 C 34.515625 27.503906 32.417969 25.445312 29.828125 25.445312 C 27.238281 25.445312 25.140625 27.503906 25.140625 30.035156 C 25.140625 32.570312 27.238281 34.628906 29.828125 34.628906 C 32.417969 34.628906 34.515625 32.570312 34.515625 30.035156 Z M 34.515625 30.035156 " fill-opacity="1" fill-rule="nonzero"/><g clip-path="url(#d2743c0377)"><path fill="#53c1de" d="M 45.054688 21.515625 C 46.042969 17.578125 47.289062 10.273438 42.902344 7.796875 C 38.535156 5.328125 32.855469 10.054688 29.851562 12.890625 C 26.863281 10.082031 21.019531 5.378906 16.636719 7.863281 C 12.273438 10.335938 13.617188 17.519531 14.628906 21.484375 C 10.558594 22.617188 3.578125 25.054688 3.578125 30.035156 C 3.578125 35.003906 10.550781 37.660156 14.597656 38.789062 C 13.582031 42.773438 12.304688 49.855469 16.675781 52.324219 C 21.074219 54.808594 26.898438 50.214844 29.925781 47.347656 C 32.945312 50.203125 38.574219 54.824219 42.941406 52.347656 C 47.320312 49.867188 46.179688 42.660156 45.167969 38.671875 C 49.09375 37.539062 56.078125 34.941406 56.078125 30.035156 C 56.078125 25.101562 49.0625 22.644531 45.054688 21.515625 Z M 44.558594 36.558594 C 43.894531 34.5 42.996094 32.308594 41.898438 30.046875 C 42.945312 27.839844 43.808594 25.675781 44.453125 23.628906 C 47.390625 24.464844 53.835938 26.371094 53.835938 30.035156 C 53.835938 33.738281 47.652344 35.660156 44.558594 36.558594 Z M 41.816406 50.449219 C 38.558594 52.292969 33.71875 47.875 31.488281 45.773438 C 32.96875 44.1875 34.445312 42.347656 35.886719 40.300781 C 38.425781 40.082031 40.824219 39.722656 43 39.230469 C 43.710938 42.050781 45.089844 48.59375 41.816406 50.449219 Z M 17.796875 50.421875 C 14.535156 48.582031 16.027344 42.261719 16.773438 39.328125 C 18.921875 39.792969 21.304688 40.128906 23.847656 40.332031 C 25.300781 42.332031 26.820312 44.171875 28.355469 45.78125 C 26.460938 47.574219 21.070312 52.269531 17.796875 50.421875 Z M 5.820312 30.035156 C 5.820312 26.324219 12.226562 24.429688 15.230469 23.597656 C 15.890625 25.691406 16.75 27.878906 17.792969 30.089844 C 16.738281 32.335938 15.863281 34.558594 15.199219 36.675781 C 12.335938 35.871094 5.820312 33.753906 5.820312 30.035156 Z M 17.761719 9.761719 C 21.03125 7.910156 26.109375 12.425781 28.28125 14.457031 C 26.757812 16.0625 25.25 17.886719 23.808594 19.875 C 21.339844 20.101562 18.976562 20.460938 16.804688 20.941406 C 15.988281 17.746094 14.492188 11.617188 17.761719 9.761719 Z M 37.492188 22.261719 C 39.167969 22.46875 40.773438 22.746094 42.28125 23.082031 C 41.828125 24.503906 41.261719 25.988281 40.597656 27.507812 C 39.636719 25.71875 38.601562 23.96875 37.492188 22.261719 Z M 29.855469 16.027344 C 30.886719 17.125 31.925781 18.347656 32.945312 19.679688 C 30.875 19.582031 28.804688 19.582031 26.738281 19.675781 C 27.757812 18.359375 28.804688 17.136719 29.855469 16.027344 Z M 19.078125 27.507812 C 18.425781 25.992188 17.867188 24.5 17.410156 23.058594 C 18.90625 22.730469 20.503906 22.464844 22.167969 22.257812 C 21.054688 23.960938 20.023438 25.710938 19.078125 27.507812 Z M 22.21875 37.972656 C 20.496094 37.785156 18.875 37.527344 17.378906 37.210938 C 17.84375 35.746094 18.414062 34.222656 19.082031 32.671875 C 20.039062 34.484375 21.085938 36.253906 22.21875 37.972656 Z M 29.917969 44.203125 C 28.851562 43.078125 27.792969 41.835938 26.757812 40.5 C 28.835938 40.582031 30.917969 40.582031 33 40.488281 C 31.976562 41.851562 30.945312 43.09375 29.917969 44.203125 Z M 40.621094 32.59375 C 41.324219 34.160156 41.914062 35.675781 42.382812 37.113281 C 40.863281 37.453125 39.21875 37.730469 37.488281 37.933594 C 38.605469 36.195312 39.65625 34.414062 40.621094 32.59375 Z M 34.636719 38.199219 C 31.457031 38.421875 28.257812 38.417969 25.074219 38.214844 C 23.269531 35.632812 21.660156 32.914062 20.269531 30.089844 C 21.652344 27.273438 23.25 24.558594 25.046875 21.976562 C 28.230469 21.742188 31.433594 21.742188 34.617188 21.980469 C 36.402344 24.5625 37.996094 27.265625 39.410156 30.058594 C 38.015625 32.875 36.410156 35.59375 34.636719 38.199219 Z M 41.78125 9.699219 C 45.054688 11.546875 43.597656 18.109375 42.882812 20.964844 C 40.707031 20.472656 38.339844 20.105469 35.863281 19.878906 C 34.421875 17.867188 32.925781 16.039062 31.425781 14.457031 C 33.625 12.378906 38.539062 7.867188 41.78125 9.699219 Z M 41.78125 9.699219 " fill-opacity="1" fill-rule="evenodd"/></g></svg>