<svg xmlns="http://www.w3.org/2000/svg" xmlns:xlink="http://www.w3.org/1999/xlink" width="45" zoomAndPan="magnify" viewBox="0 0 33.75 33.749998" height="45" preserveAspectRatio="xMidYMid meet" version="1.0"><defs><clipPath id="e98ebbb1b9"><path d="M 1.488281 1.488281 L 32.011719 1.488281 L 32.011719 32.011719 L 1.488281 32.011719 Z M 1.488281 1.488281 " clip-rule="nonzero"/></clipPath></defs><path fill="#c4942e" d="M 14.257812 19.347656 L 10.871094 19.347656 C 9.96875 19.347656 9.234375 20.082031 9.234375 20.984375 L 9.234375 22.34375 L 15.894531 22.34375 L 15.894531 20.984375 C 15.894531 20.082031 15.160156 19.347656 14.257812 19.347656 Z M 14.257812 19.347656 " fill-opacity="1" fill-rule="evenodd"/><path fill="#c4942e" d="M 12.5625 15.183594 C 11.894531 15.183594 11.351562 15.726562 11.351562 16.390625 C 11.351562 17.058594 11.894531 17.601562 12.5625 17.601562 C 13.230469 17.601562 13.773438 17.058594 13.773438 16.390625 C 13.769531 15.726562 13.226562 15.183594 12.5625 15.183594 Z M 12.5625 15.183594 " fill-opacity="1" fill-rule="evenodd"/><path fill="#c4942e" d="M 18.667969 13.121094 L 8.410156 13.121094 C 7.992188 13.121094 7.652344 13.457031 7.652344 13.871094 L 7.652344 23.652344 C 7.652344 24.070312 7.992188 24.410156 8.40625 24.410156 L 25.09375 24.410156 C 25.511719 24.410156 25.851562 24.070312 25.851562 23.652344 L 25.851562 14.480469 C 25.160156 15.59375 23.925781 16.335938 22.519531 16.335938 C 21.515625 16.335938 20.59375 15.957031 19.902344 15.328125 L 17.652344 15.328125 C 17.492188 15.328125 17.359375 15.199219 17.359375 15.035156 C 17.359375 14.875 17.492188 14.742188 17.652344 14.742188 L 19.367188 14.742188 C 19.019531 14.269531 18.777344 13.71875 18.667969 13.121094 Z M 17.652344 18.472656 L 24.5625 18.472656 C 24.726562 18.472656 24.859375 18.601562 24.859375 18.765625 C 24.859375 18.925781 24.726562 19.058594 24.5625 19.058594 L 17.652344 19.058594 C 17.492188 19.058594 17.359375 18.925781 17.359375 18.765625 C 17.359375 18.601562 17.492188 18.472656 17.652344 18.472656 Z M 17.652344 20.332031 L 24.5625 20.332031 C 24.726562 20.332031 24.859375 20.464844 24.859375 20.625 C 24.859375 20.789062 24.726562 20.921875 24.5625 20.921875 L 17.652344 20.921875 C 17.492188 20.921875 17.359375 20.789062 17.359375 20.625 C 17.359375 20.464844 17.492188 20.332031 17.652344 20.332031 Z M 17.652344 22.195312 L 24.5625 22.195312 C 24.726562 22.195312 24.859375 22.324219 24.859375 22.488281 C 24.859375 22.652344 24.726562 22.78125 24.5625 22.78125 L 17.652344 22.78125 C 17.492188 22.78125 17.359375 22.652344 17.359375 22.488281 C 17.359375 22.324219 17.492188 22.195312 17.652344 22.195312 Z M 17.652344 16.609375 L 24.5625 16.609375 C 24.726562 16.609375 24.859375 16.738281 24.859375 16.902344 C 24.859375 17.0625 24.726562 17.195312 24.5625 17.195312 L 17.652344 17.195312 C 17.492188 17.195312 17.359375 17.0625 17.359375 16.902344 C 17.359375 16.738281 17.492188 16.609375 17.652344 16.609375 Z M 12.5625 14.59375 C 13.550781 14.59375 14.359375 15.402344 14.359375 16.390625 C 14.359375 17.382812 13.550781 18.1875 12.5625 18.1875 C 11.570312 18.1875 10.765625 17.378906 10.765625 16.390625 C 10.765625 15.402344 11.570312 14.59375 12.5625 14.59375 Z M 10.871094 18.761719 L 14.253906 18.761719 C 15.480469 18.761719 16.480469 19.757812 16.480469 20.984375 L 16.480469 22.636719 C 16.480469 22.796875 16.351562 22.929688 16.1875 22.929688 L 8.9375 22.929688 C 8.777344 22.929688 8.644531 22.796875 8.644531 22.636719 L 8.644531 20.984375 C 8.644531 19.757812 9.644531 18.761719 10.871094 18.761719 Z M 10.871094 18.761719 " fill-opacity="1" fill-rule="evenodd"/><path fill="#c4942e" d="M 22.519531 9.09375 C 20.683594 9.09375 19.191406 10.585938 19.191406 12.421875 C 19.191406 12.535156 19.199219 12.648438 19.210938 12.761719 C 19.214844 12.78125 19.214844 12.804688 19.214844 12.824219 C 19.417969 14.472656 20.824219 15.75 22.519531 15.75 C 24.355469 15.75 25.847656 14.257812 25.847656 12.421875 C 25.851562 10.585938 24.355469 9.09375 22.519531 9.09375 Z M 20.242188 12.667969 C 20.359375 12.554688 20.542969 12.554688 20.65625 12.667969 L 21.527344 13.539062 L 24.382812 10.683594 C 24.5 10.566406 24.683594 10.566406 24.796875 10.683594 C 24.914062 10.796875 24.914062 10.984375 24.796875 11.097656 L 21.734375 14.160156 C 21.679688 14.21875 21.601562 14.246094 21.527344 14.246094 C 21.453125 14.246094 21.378906 14.21875 21.320312 14.160156 L 20.242188 13.082031 C 20.128906 12.96875 20.128906 12.78125 20.242188 12.667969 Z M 20.242188 12.667969 " fill-opacity="1" fill-rule="evenodd"/><g clip-path="url(#e98ebbb1b9)"><path fill="#c4942e" d="M 16.75 1.488281 C 20.964844 1.488281 24.78125 3.195312 27.542969 5.960938 C 30.304688 8.722656 32.011719 12.535156 32.011719 16.75 C 32.011719 20.964844 30.304688 24.78125 27.542969 27.542969 C 24.78125 30.304688 20.964844 32.011719 16.75 32.011719 C 12.539062 32.011719 8.722656 30.304688 5.960938 27.542969 C 3.199219 24.78125 1.488281 20.964844 1.488281 16.75 C 1.488281 12.535156 3.199219 8.722656 5.960938 5.960938 C 8.722656 3.199219 12.535156 1.488281 16.75 1.488281 Z M 27.0625 6.441406 C 24.421875 3.804688 20.777344 2.171875 16.75 2.171875 C 12.722656 2.171875 9.082031 3.804688 6.441406 6.441406 C 3.804688 9.078125 2.171875 12.722656 2.171875 16.75 C 2.171875 20.777344 3.804688 24.421875 6.441406 27.0625 C 9.078125 29.699219 12.722656 31.332031 16.75 31.332031 C 20.777344 31.332031 24.421875 29.699219 27.0625 27.0625 C 29.699219 24.421875 31.332031 20.777344 31.332031 16.75 C 31.332031 12.722656 29.699219 9.082031 27.0625 6.441406 Z M 27.0625 6.441406 " fill-opacity="1" fill-rule="nonzero"/></g></svg>