<svg xmlns="http://www.w3.org/2000/svg" xmlns:xlink="http://www.w3.org/1999/xlink" width="45" zoomAndPan="magnify" viewBox="0 0 33.75 33.749998" height="45" preserveAspectRatio="xMidYMid meet" version="1.0"><defs><clipPath id="0185295a3d"><path d="M 1.117188 1.117188 L 32.386719 1.117188 L 32.386719 32.386719 L 1.117188 32.386719 Z M 1.117188 1.117188 " clip-rule="nonzero"/></clipPath></defs><g clip-path="url(#0185295a3d)"><path fill="#c4942e" d="M 25.023438 25 C 23.277344 25 22.402344 27.109375 23.636719 28.34375 C 23.863281 28.570312 23.863281 28.9375 23.636719 29.167969 L 22.382812 30.417969 C 22.15625 30.644531 21.789062 30.644531 21.5625 30.417969 C 20.328125 29.1875 18.21875 30.058594 18.21875 31.804688 C 18.21875 32.125 17.957031 32.386719 17.636719 32.386719 L 15.867188 32.386719 C 15.542969 32.386719 15.285156 32.125 15.285156 31.804688 C 15.285156 30.058594 13.171875 29.183594 11.941406 30.417969 C 11.710938 30.644531 11.34375 30.644531 11.117188 30.417969 L 9.863281 29.167969 C 9.636719 28.9375 9.636719 28.570312 9.863281 28.34375 C 11.097656 27.109375 10.222656 25 8.480469 25 C 8.160156 25 7.898438 24.738281 7.898438 24.417969 L 7.898438 22.648438 C 7.898438 22.328125 8.160156 22.066406 8.480469 22.066406 C 10.222656 22.066406 11.097656 19.953125 9.863281 18.722656 C 9.636719 18.496094 9.636719 18.125 9.863281 17.898438 L 11.117188 16.648438 C 11.34375 16.417969 11.710938 16.417969 11.941406 16.648438 C 13.171875 17.878906 15.285156 17.003906 15.285156 15.261719 C 15.285156 14.941406 15.542969 14.679688 15.867188 14.679688 L 17.636719 14.679688 C 17.957031 14.679688 18.21875 14.941406 18.21875 15.261719 C 18.21875 17.003906 20.328125 17.878906 21.5625 16.648438 C 21.789062 16.417969 22.15625 16.417969 22.382812 16.648438 L 23.636719 17.898438 C 23.863281 18.125 23.863281 18.496094 23.636719 18.722656 C 22.402344 19.953125 23.277344 22.066406 25.023438 22.066406 C 25.34375 22.066406 25.601562 22.328125 25.601562 22.648438 L 25.601562 24.417969 C 25.601562 24.738281 25.34375 25 25.023438 25 Z M 18.738281 5.011719 L 18.738281 14.253906 C 18.464844 13.957031 18.074219 13.769531 17.636719 13.769531 C 17.046875 13.769531 16.457031 13.769531 15.867188 13.769531 C 15.429688 13.769531 15.035156 13.957031 14.761719 14.253906 L 14.761719 5.011719 L 12.675781 5.011719 L 16.75 1.117188 L 20.828125 5.011719 Z M 23.726562 16.699219 C 24.789062 15.136719 26.582031 14.203125 28.472656 14.238281 L 28.472656 16.371094 L 32.386719 12.28125 L 28.472656 8.1875 L 28.472656 10.261719 C 24.597656 10.21875 21.066406 12.527344 19.546875 16.101562 C 19.9375 16.386719 20.515625 16.40625 20.917969 16.003906 C 21.5 15.417969 22.445312 15.417969 23.03125 16.003906 Z M 9.773438 16.699219 L 10.472656 16.003906 C 11.054688 15.417969 12 15.417969 12.585938 16.003906 C 12.988281 16.40625 13.566406 16.386719 13.953125 16.101562 C 12.4375 12.527344 8.902344 10.21875 5.027344 10.261719 L 5.027344 8.1875 L 1.117188 12.28125 L 5.027344 16.371094 L 5.027344 14.238281 C 6.917969 14.203125 8.714844 15.136719 9.773438 16.699219 Z M 16.75 19.207031 C 14.363281 19.207031 12.425781 21.144531 12.425781 23.53125 C 12.425781 25.921875 14.363281 27.859375 16.75 27.859375 C 19.140625 27.859375 21.078125 25.921875 21.078125 23.53125 C 21.078125 21.144531 19.140625 19.207031 16.75 19.207031 Z M 16.75 19.207031 " fill-opacity="1" fill-rule="evenodd"/></g></svg>