<svg xmlns="http://www.w3.org/2000/svg" xmlns:xlink="http://www.w3.org/1999/xlink" width="45" zoomAndPan="magnify" viewBox="0 0 33.75 33.749998" height="45" preserveAspectRatio="xMidYMid meet" version="1.0"><defs><clipPath id="5a7be9bc01"><path d="M 1.457031 1.550781 L 31.980469 1.550781 L 31.980469 32 L 1.457031 32 Z M 1.457031 1.550781 " clip-rule="nonzero"/></clipPath></defs><g clip-path="url(#5a7be9bc01)"><path fill="#c4942e" d="M 14.355469 23.089844 C 14.355469 22.820312 14.570312 22.605469 14.839844 22.605469 L 19.433594 22.605469 C 19.699219 22.605469 19.917969 22.820312 19.917969 23.089844 C 19.917969 23.355469 19.699219 23.570312 19.433594 23.570312 L 14.839844 23.570312 C 14.570312 23.570312 14.355469 23.355469 14.355469 23.089844 Z M 18.667969 5.511719 L 21.230469 5.511719 C 21.425781 6.046875 21.941406 6.429688 22.546875 6.429688 C 23.320312 6.429688 23.949219 5.800781 23.949219 5.027344 C 23.949219 4.253906 23.320312 3.625 22.546875 3.625 C 21.941406 3.625 21.425781 4.007812 21.230469 4.546875 L 18.183594 4.546875 C 17.917969 4.546875 17.699219 4.761719 17.699219 5.027344 L 17.699219 9.777344 L 18.667969 9.777344 Z M 14.863281 4.269531 L 14.863281 9.777344 L 15.824219 9.777344 L 15.824219 4.269531 C 16.363281 4.070312 16.746094 3.554688 16.746094 2.953125 C 16.746094 2.179688 16.117188 1.550781 15.34375 1.550781 C 14.570312 1.550781 13.941406 2.179688 13.941406 2.953125 C 13.941406 3.554688 14.324219 4.070312 14.863281 4.269531 Z M 14.835938 17.675781 L 17.53125 17.675781 C 17.796875 17.675781 18.011719 17.457031 18.011719 17.191406 C 18.011719 16.925781 17.796875 16.710938 17.53125 16.710938 L 14.835938 16.710938 C 14.570312 16.710938 14.355469 16.925781 14.355469 17.191406 C 14.355469 17.457031 14.570312 17.675781 14.835938 17.675781 Z M 14.835938 19.640625 L 17.5 19.640625 C 17.765625 19.640625 17.984375 19.425781 17.984375 19.15625 C 17.984375 18.890625 17.765625 18.671875 17.5 18.671875 L 14.835938 18.671875 C 14.570312 18.671875 14.355469 18.890625 14.355469 19.15625 C 14.355469 19.425781 14.570312 19.640625 14.835938 19.640625 Z M 14.835938 21.605469 L 18.066406 21.605469 C 18.332031 21.605469 18.550781 21.386719 18.550781 21.121094 C 18.550781 20.855469 18.332031 20.640625 18.066406 20.640625 L 14.835938 20.640625 C 14.570312 20.640625 14.355469 20.855469 14.355469 21.121094 C 14.355469 21.386719 14.570312 21.605469 14.835938 21.605469 Z M 14.835938 13.742188 L 19.644531 13.742188 C 19.910156 13.742188 20.128906 13.527344 20.128906 13.261719 C 20.128906 12.996094 19.910156 12.777344 19.644531 12.777344 L 14.835938 12.777344 C 14.570312 12.777344 14.355469 12.996094 14.355469 13.261719 C 14.355469 13.527344 14.570312 13.742188 14.835938 13.742188 Z M 12.570312 19.082031 C 12.46875 19.539062 12.289062 19.964844 12.050781 20.34375 L 12.515625 21.191406 L 11.609375 22.097656 L 10.761719 21.632812 C 10.378906 21.871094 9.953125 22.050781 9.5 22.15625 L 9.230469 23.082031 L 7.953125 23.082031 L 7.683594 22.15625 C 7.226562 22.050781 6.800781 21.871094 6.421875 21.632812 L 5.574219 22.097656 L 4.667969 21.191406 L 5.132812 20.34375 C 4.894531 19.964844 4.714844 19.535156 4.609375 19.082031 L 3.683594 18.8125 L 3.683594 17.535156 L 4.609375 17.265625 C 4.714844 16.8125 4.894531 16.386719 5.132812 16.003906 L 4.667969 15.15625 L 5.574219 14.25 L 6.421875 14.714844 C 6.804688 14.476562 7.230469 14.296875 7.683594 14.191406 L 7.953125 13.265625 L 9.230469 13.265625 L 9.5 14.191406 C 9.957031 14.296875 10.378906 14.472656 10.761719 14.714844 L 11.609375 14.25 L 12.515625 15.152344 L 12.050781 16.003906 C 12.289062 16.386719 12.46875 16.808594 12.570312 17.261719 L 13.5 17.535156 L 13.5 18.8125 Z M 10.953125 18.175781 C 10.953125 16.871094 9.894531 15.8125 8.589844 15.8125 C 7.289062 15.8125 6.230469 16.871094 6.230469 18.175781 C 6.230469 19.476562 7.289062 20.535156 8.589844 20.535156 C 9.894531 20.535156 10.953125 19.476562 10.953125 18.175781 Z M 14.835938 15.707031 L 18.164062 15.707031 C 18.429688 15.707031 18.648438 15.492188 18.648438 15.226562 C 18.648438 14.960938 18.429688 14.742188 18.164062 14.742188 L 14.835938 14.742188 C 14.570312 14.742188 14.355469 14.960938 14.355469 15.226562 C 14.355469 15.492188 14.570312 15.707031 14.835938 15.707031 Z M 10.375 4.269531 L 10.375 9.777344 L 11.339844 9.777344 L 11.339844 4.269531 C 11.875 4.070312 12.257812 3.554688 12.257812 2.953125 C 12.257812 2.179688 11.632812 1.550781 10.855469 1.550781 C 10.082031 1.550781 9.453125 2.179688 9.453125 2.953125 C 9.457031 3.554688 9.839844 4.070312 10.375 4.269531 Z M 3.652344 6.429688 C 4.257812 6.429688 4.773438 6.046875 4.96875 5.511719 L 7.535156 5.511719 L 7.535156 9.777344 L 8.5 9.777344 L 8.5 5.027344 C 8.5 4.761719 8.28125 4.546875 8.015625 4.546875 L 4.96875 4.546875 C 4.773438 4.007812 4.257812 3.625 3.652344 3.625 C 2.878906 3.625 2.253906 4.253906 2.253906 5.027344 C 2.253906 5.800781 2.878906 6.429688 3.652344 6.429688 Z M 28.632812 15.269531 C 30.066406 17.757812 29.214844 20.933594 26.730469 22.371094 C 24.242188 23.804688 21.066406 22.953125 19.632812 20.464844 C 18.195312 17.980469 19.046875 14.804688 21.535156 13.371094 C 24.019531 11.933594 27.195312 12.785156 28.632812 15.269531 Z M 22.398438 14.863281 C 20.734375 15.820312 20.167969 17.945312 21.128906 19.601562 C 22.085938 21.261719 24.207031 21.832031 25.867188 20.875 C 27.527344 19.914062 28.09375 17.792969 27.136719 16.132812 C 26.175781 14.476562 24.054688 13.90625 22.398438 14.863281 Z M 17.984375 30.980469 L 16.351562 30.980469 L 15.84375 29.617188 L 10.359375 29.617188 L 9.851562 30.980469 L 8.214844 30.980469 C 7.949219 30.980469 7.734375 31.195312 7.734375 31.464844 C 7.734375 31.730469 7.949219 31.949219 8.214844 31.949219 L 17.984375 31.949219 C 18.25 31.949219 18.464844 31.730469 18.464844 31.464844 C 18.464844 31.195312 18.25 30.980469 17.984375 30.980469 Z M 31.625 27.933594 L 29.070312 23.511719 L 28.523438 23.824219 L 27.898438 22.742188 C 27.683594 22.910156 27.453125 23.0625 27.210938 23.203125 C 26.96875 23.34375 26.71875 23.464844 26.464844 23.570312 L 27.089844 24.652344 L 26.546875 24.964844 L 29.097656 29.390625 C 29.5 30.082031 30.394531 30.324219 31.089844 29.925781 C 31.785156 29.523438 32.023438 28.628906 31.625 27.933594 Z M 23.769531 24.015625 L 23.769531 24.640625 L 2.429688 24.640625 L 2.429688 12.683594 C 2.429688 12.417969 2.542969 12.171875 2.71875 11.996094 C 2.898438 11.820312 3.140625 11.707031 3.410156 11.707031 L 22.789062 11.707031 C 22.925781 11.707031 23.050781 11.734375 23.167969 11.785156 C 23.601562 11.714844 24.039062 11.695312 24.476562 11.722656 C 24.390625 11.570312 24.285156 11.433594 24.164062 11.3125 C 23.8125 10.960938 23.324219 10.742188 22.789062 10.742188 L 3.410156 10.742188 C 2.875 10.742188 2.390625 10.960938 2.035156 11.3125 C 1.6875 11.664062 1.46875 12.152344 1.46875 12.683594 L 1.46875 26.710938 C 1.46875 27.246094 1.6875 27.730469 2.035156 28.082031 C 2.390625 28.433594 2.875 28.652344 3.410156 28.652344 L 22.789062 28.652344 C 23.324219 28.652344 23.8125 28.433594 24.164062 28.082031 C 24.515625 27.730469 24.734375 27.246094 24.734375 26.710938 L 24.734375 24 C 24.410156 24.03125 24.089844 24.039062 23.769531 24.015625 Z M 23.769531 24.015625 " fill-opacity="1" fill-rule="nonzero"/></g></svg>