<svg xmlns="http://www.w3.org/2000/svg" xmlns:xlink="http://www.w3.org/1999/xlink" width="45" zoomAndPan="magnify" viewBox="0 0 33.75 33.749998" height="45" preserveAspectRatio="xMidYMid meet" version="1.0"><defs><clipPath id="925b52265f"><path d="M 10 7 L 30 7 L 30 31.335938 L 10 31.335938 Z M 10 7 " clip-rule="nonzero"/></clipPath><clipPath id="d5e225b379"><path d="M 3.351562 2.300781 L 23 2.300781 L 23 27 L 3.351562 27 Z M 3.351562 2.300781 " clip-rule="nonzero"/></clipPath></defs><g clip-path="url(#925b52265f)"><path fill="#c4942e" d="M 16.03125 22.148438 L 12.972656 19.089844 C 12.742188 18.855469 12.472656 18.796875 12.164062 18.914062 C 11.859375 19.027344 11.695312 19.25 11.671875 19.578125 L 10.953125 30.367188 C 10.9375 30.589844 11.007812 30.78125 11.15625 30.941406 C 11.308594 31.101562 11.492188 31.183594 11.714844 31.183594 L 23.226562 31.183594 C 23.566406 31.183594 23.800781 31.023438 23.929688 30.710938 C 24.058594 30.398438 24.003906 30.121094 23.765625 29.878906 L 20.707031 26.824219 L 27.363281 20.167969 C 27.773438 19.753906 28.144531 19.304688 28.46875 18.820312 C 28.792969 18.332031 29.070312 17.820312 29.292969 17.28125 C 29.515625 16.738281 29.683594 16.183594 29.800781 15.609375 C 29.914062 15.035156 29.96875 14.457031 29.96875 13.871094 C 29.96875 13.289062 29.914062 12.707031 29.800781 12.136719 C 29.683594 11.5625 29.515625 11.003906 29.292969 10.464844 C 29.070312 9.925781 28.792969 9.414062 28.46875 8.925781 C 28.144531 8.441406 27.773438 7.992188 27.363281 7.578125 C 27.117188 7.332031 26.832031 7.277344 26.515625 7.417969 C 26.195312 7.558594 26.042969 7.804688 26.058594 8.152344 C 26.160156 9.273438 26.027344 10.367188 25.652344 11.429688 C 25.28125 12.492188 24.707031 13.433594 23.929688 14.246094 Z M 16.03125 22.148438 " fill-opacity="1" fill-rule="nonzero"/></g><g clip-path="url(#d5e225b379)"><path fill="#c4942e" d="M 3.53125 19.628906 C 3.527344 20.808594 3.753906 21.945312 4.203125 23.035156 C 4.65625 24.128906 5.300781 25.089844 6.140625 25.921875 C 6.386719 26.167969 6.667969 26.222656 6.988281 26.082031 C 7.304688 25.941406 7.457031 25.695312 7.441406 25.347656 C 7.339844 24.226562 7.472656 23.132812 7.847656 22.070312 C 8.21875 21.007812 8.792969 20.066406 9.570312 19.253906 L 17.46875 11.355469 L 20.527344 14.410156 C 20.761719 14.644531 21.03125 14.703125 21.335938 14.585938 C 21.644531 14.472656 21.808594 14.25 21.828125 13.921875 L 22.550781 3.132812 C 22.5625 2.910156 22.496094 2.722656 22.34375 2.558594 C 22.195312 2.398438 22.007812 2.316406 21.789062 2.316406 L 10.277344 2.316406 C 9.9375 2.316406 9.703125 2.476562 9.570312 2.789062 C 9.441406 3.101562 9.496094 3.378906 9.738281 3.621094 L 12.792969 6.679688 L 6.140625 13.332031 C 5.300781 14.164062 4.65625 15.128906 4.203125 16.21875 C 3.753906 17.308594 3.527344 18.445312 3.53125 19.628906 Z M 3.53125 19.628906 " fill-opacity="1" fill-rule="nonzero"/></g></svg>