<svg xmlns="http://www.w3.org/2000/svg" xmlns:xlink="http://www.w3.org/1999/xlink" width="45" zoomAndPan="magnify" viewBox="0 0 33.75 33.749998" height="45" preserveAspectRatio="xMidYMid meet" version="1.0"><defs><clipPath id="a0dd03c3b4"><path d="M 9 3 L 32.570312 3 L 32.570312 32.570312 L 9 32.570312 Z M 9 3 " clip-rule="nonzero"/></clipPath><clipPath id="bcee3e0514"><path d="M 3 1.304688 L 19 1.304688 L 19 11 L 3 11 Z M 3 1.304688 " clip-rule="nonzero"/></clipPath><clipPath id="4d90ceae18"><path d="M 1.304688 15 L 11 15 L 11 30 L 1.304688 30 Z M 1.304688 15 " clip-rule="nonzero"/></clipPath></defs><g clip-path="url(#a0dd03c3b4)"><path fill="#c4942e" d="M 32.175781 16.78125 C 32.175781 17.179688 31.96875 17.582031 31.695312 17.835938 C 31.417969 18.09375 31.042969 18.246094 30.632812 18.234375 C 30.234375 18.234375 29.832031 18.03125 29.578125 17.757812 C 28.78125 16.898438 29.238281 15.5 30.378906 15.269531 C 30.003906 11.671875 28.21875 8.402344 25.457031 6.125 L 24.628906 7.265625 C 24.492188 7.457031 24.1875 7.433594 24.089844 7.210938 L 22.675781 4.039062 C 22.566406 3.804688 22.753906 3.566406 22.988281 3.589844 L 26.4375 3.949219 C 26.703125 3.972656 26.8125 4.257812 26.675781 4.449219 L 25.828125 5.617188 C 28.75 8.011719 30.636719 11.476562 31.011719 15.277344 C 31.703125 15.433594 32.195312 16.0625 32.171875 16.78125 Z M 16.714844 32.175781 C 16.316406 32.175781 15.914062 31.96875 15.660156 31.695312 C 15.402344 31.417969 15.246094 31.042969 15.261719 30.632812 L 15.257812 30.632812 C 15.257812 30.234375 15.464844 29.832031 15.738281 29.578125 C 16.597656 28.78125 17.996094 29.242188 18.226562 30.378906 C 21.824219 30.003906 25.09375 28.21875 27.371094 25.457031 L 26.230469 24.628906 C 26.039062 24.492188 26.0625 24.1875 26.285156 24.089844 L 29.457031 22.675781 C 29.691406 22.566406 29.929688 22.753906 29.90625 22.988281 L 29.542969 26.4375 C 29.523438 26.703125 29.238281 26.8125 29.046875 26.675781 L 27.878906 25.828125 C 25.484375 28.75 22.019531 30.636719 18.21875 31.011719 C 18.058594 31.703125 17.433594 32.195312 16.714844 32.171875 Z M 11.292969 16.21875 C 11.101562 16.21875 10.945312 16.0625 10.945312 15.871094 C 10.945312 15.679688 11.101562 15.523438 11.292969 15.523438 L 13.449219 15.523438 C 13.640625 15.523438 13.796875 15.679688 13.796875 15.871094 C 13.796875 16.0625 13.640625 16.21875 13.449219 16.21875 Z M 11.292969 17.972656 C 11.101562 17.972656 10.945312 17.816406 10.945312 17.625 C 10.945312 17.433594 11.101562 17.277344 11.292969 17.277344 L 13.449219 17.277344 C 13.640625 17.277344 13.796875 17.433594 13.796875 17.625 C 13.796875 17.816406 13.640625 17.972656 13.449219 17.972656 Z M 11.292969 21.921875 C 11.101562 21.921875 10.945312 21.765625 10.945312 21.574219 C 10.945312 21.378906 11.101562 21.226562 11.292969 21.226562 L 13.449219 21.226562 C 13.640625 21.226562 13.796875 21.378906 13.796875 21.574219 C 13.796875 21.765625 13.640625 21.921875 13.449219 21.921875 Z M 11.292969 23.671875 C 11.101562 23.671875 10.945312 23.519531 10.945312 23.324219 C 10.945312 23.132812 11.101562 22.976562 11.292969 22.976562 L 13.449219 22.976562 C 13.640625 22.976562 13.796875 23.132812 13.796875 23.324219 C 13.796875 23.519531 13.640625 23.671875 13.449219 23.671875 Z M 11.292969 10.519531 C 11.101562 10.519531 10.945312 10.363281 10.945312 10.167969 C 10.945312 9.976562 11.101562 9.820312 11.292969 9.820312 L 13.449219 9.820312 C 13.640625 9.820312 13.796875 9.976562 13.796875 10.167969 C 13.796875 10.363281 13.640625 10.519531 13.449219 10.519531 Z M 11.292969 12.269531 C 11.101562 12.269531 10.945312 12.113281 10.945312 11.921875 C 10.945312 11.730469 11.101562 11.574219 11.292969 11.574219 L 13.449219 11.574219 C 13.640625 11.574219 13.796875 11.730469 13.796875 11.921875 C 13.796875 12.113281 13.640625 12.269531 13.449219 12.269531 Z M 20.308594 14.246094 L 9.90625 14.246094 C 9.421875 14.246094 9.019531 14.644531 9.019531 15.128906 L 9.019531 18.363281 C 9.019531 18.851562 9.421875 19.25 9.90625 19.25 L 21.171875 19.25 C 20.964844 18.929688 20.597656 18.308594 20.464844 18.03125 C 20.359375 17.804688 20.308594 17.625 20.308594 17.371094 Z M 24.109375 11.324219 L 24.109375 9.429688 C 24.109375 8.941406 23.710938 8.542969 23.226562 8.542969 L 9.90625 8.542969 C 9.421875 8.542969 9.019531 8.941406 9.019531 9.429688 L 9.019531 12.664062 C 9.019531 13.148438 9.421875 13.546875 9.90625 13.546875 L 20.316406 13.546875 C 20.363281 13.1875 20.59375 12.882812 20.933594 12.730469 L 24.007812 11.367188 C 24.042969 11.351562 24.074219 11.335938 24.109375 11.324219 Z M 21.648438 19.945312 L 9.90625 19.945312 C 9.421875 19.945312 9.019531 20.347656 9.019531 20.832031 L 9.019531 24.066406 C 9.019531 24.550781 9.421875 24.953125 9.90625 24.953125 L 23.226562 24.953125 C 23.710938 24.953125 24.109375 24.550781 24.109375 24.066406 L 24.109375 22.167969 C 24.054688 22.148438 24 22.125 23.945312 22.09375 C 23.039062 21.585938 22.273438 20.792969 21.648438 19.945312 Z M 21.648438 19.945312 " fill-opacity="1" fill-rule="evenodd"/></g><path fill="#c4942e" d="M 21.003906 13.898438 L 21.003906 17.371094 C 21.003906 17.503906 21.027344 17.613281 21.089844 17.726562 C 21.363281 18.246094 21.695312 18.820312 22.089844 19.371094 L 22.125 19.421875 C 22.21875 19.554688 22.316406 19.683594 22.417969 19.808594 C 22.945312 20.476562 23.570312 21.085938 24.285156 21.488281 C 24.398438 21.550781 24.519531 21.550781 24.628906 21.488281 C 26.042969 20.695312 27.109375 19.09375 27.824219 17.726562 C 27.886719 17.609375 27.914062 17.507812 27.914062 17.371094 L 27.914062 13.6875 C 27.914062 13.539062 27.835938 13.425781 27.703125 13.363281 L 24.644531 12 C 24.527344 11.945312 24.40625 11.945312 24.289062 12 L 21.210938 13.363281 C 20.96875 13.472656 21.003906 13.6875 21.003906 13.898438 Z M 25.210938 15.328125 C 25.660156 14.828125 26.5 15.113281 26.539062 15.792969 C 26.550781 15.984375 26.488281 16.183594 26.347656 16.339844 C 25.808594 16.917969 25.289062 17.570312 24.761719 18.164062 C 24.476562 18.484375 23.976562 18.507812 23.667969 18.207031 L 23.652344 18.191406 L 22.628906 17.273438 C 22.125 16.824219 22.425781 15.992188 23.09375 15.953125 C 23.285156 15.945312 23.484375 16.007812 23.640625 16.144531 L 24.128906 16.585938 L 25.214844 15.328125 Z M 25.210938 15.328125 " fill-opacity="1" fill-rule="evenodd"/><g clip-path="url(#bcee3e0514)"><path fill="#c4942e" d="M 4.039062 10.820312 L 7.210938 9.40625 C 7.433594 9.308594 7.457031 9.003906 7.265625 8.867188 L 6.125 8.039062 C 8.402344 5.277344 11.671875 3.492188 15.269531 3.117188 C 15.5 4.253906 16.898438 4.714844 17.757812 3.917969 C 18.03125 3.664062 18.234375 3.261719 18.234375 2.863281 C 18.246094 2.453125 18.09375 2.078125 17.835938 1.800781 C 17.582031 1.527344 17.179688 1.320312 16.78125 1.320312 C 16.0625 1.300781 15.433594 1.792969 15.277344 2.484375 C 11.476562 2.859375 8.011719 4.746094 5.613281 7.667969 L 4.449219 6.820312 C 4.257812 6.683594 3.972656 6.792969 3.949219 7.058594 L 3.589844 10.503906 C 3.566406 10.742188 3.804688 10.929688 4.039062 10.820312 Z M 4.039062 10.820312 " fill-opacity="1" fill-rule="evenodd"/></g><g clip-path="url(#4d90ceae18)"><path fill="#c4942e" d="M 8.867188 26.230469 L 8.039062 27.371094 C 5.277344 25.09375 3.492188 21.824219 3.117188 18.226562 C 4.253906 17.996094 4.714844 16.597656 3.917969 15.738281 C 3.664062 15.464844 3.261719 15.257812 2.863281 15.257812 L 2.863281 15.261719 C 2.453125 15.246094 2.078125 15.402344 1.800781 15.660156 C 1.527344 15.914062 1.320312 16.316406 1.320312 16.714844 C 1.300781 17.433594 1.792969 18.058594 2.484375 18.21875 C 2.859375 22.019531 4.746094 25.484375 7.667969 27.878906 L 6.820312 29.046875 C 6.683594 29.238281 6.792969 29.523438 7.058594 29.542969 L 10.503906 29.90625 C 10.742188 29.929688 10.929688 29.691406 10.820312 29.457031 L 9.40625 26.285156 C 9.308594 26.0625 9.003906 26.039062 8.867188 26.230469 Z M 8.867188 26.230469 " fill-opacity="1" fill-rule="evenodd"/></g></svg>