<svg xmlns="http://www.w3.org/2000/svg" xmlns:xlink="http://www.w3.org/1999/xlink" width="45" zoomAndPan="magnify" viewBox="0 0 33.75 33.749998" height="45" preserveAspectRatio="xMidYMid meet" version="1.0"><defs><clipPath id="8ebe5099b6"><path d="M 1.9375 1.9375 L 31.714844 1.9375 L 31.714844 31.714844 L 1.9375 31.714844 Z M 1.9375 1.9375 " clip-rule="nonzero"/></clipPath></defs><g clip-path="url(#8ebe5099b6)"><path fill="#c4942e" d="M 30.894531 2.605469 C 30.480469 2.191406 29.90625 1.9375 29.277344 1.9375 L 17.992188 1.9375 C 17.363281 1.9375 16.792969 2.191406 16.378906 2.605469 C 15.964844 3.023438 15.707031 3.59375 15.707031 4.222656 L 15.707031 10.519531 L 14.523438 9.332031 C 14.445312 9.257812 14.34375 9.214844 14.234375 9.214844 C 14.128906 9.214844 14.023438 9.257812 13.949219 9.332031 L 6.828125 16.453125 L 4.074219 16.453125 C 2.894531 16.453125 1.9375 17.414062 1.9375 18.59375 L 1.9375 30.207031 C 1.9375 30.957031 2.546875 31.5625 3.292969 31.5625 L 17.949219 31.5625 C 18.699219 31.5625 19.308594 30.957031 19.308594 30.207031 L 19.308594 28.53125 L 19.835938 28.53125 C 20.0625 28.53125 20.242188 28.351562 20.242188 28.128906 L 20.242188 27.972656 L 29.277344 27.972656 C 29.90625 27.972656 30.480469 27.714844 30.894531 27.300781 C 31.308594 26.886719 31.5625 26.316406 31.5625 25.6875 L 31.5625 4.222656 C 31.5625 3.59375 31.308594 3.023438 30.894531 2.605469 Z M 14.234375 10.191406 L 19.6875 15.644531 L 15.414062 19.921875 L 14.15625 19.921875 L 17.570312 16.503906 C 17.191406 16.125 17.191406 15.511719 17.570312 15.128906 L 14.75 12.308594 C 14.371094 12.6875 13.753906 12.6875 13.375 12.308594 L 6.320312 19.363281 C 6.476562 19.519531 6.566406 19.71875 6.59375 19.921875 L 4.539062 19.921875 L 4.519531 19.90625 L 7.28125 17.144531 L 7.285156 17.144531 Z M 17.066406 19.921875 L 16.558594 19.921875 L 17.066406 19.410156 Z M 11.132812 17.722656 C 11.253906 17.84375 11.496094 17.808594 11.660156 17.648438 C 12.140625 17.167969 12.890625 17.132812 13.328125 17.574219 C 13.675781 17.921875 13.730469 18.464844 13.496094 18.914062 L 13.566406 18.984375 C 13.722656 19.140625 13.722656 19.398438 13.566406 19.554688 C 13.484375 19.636719 13.382812 19.675781 13.277344 19.675781 C 13.175781 19.675781 13.070312 19.636719 12.992188 19.554688 L 12.925781 19.488281 C 12.769531 19.566406 12.601562 19.617188 12.433594 19.628906 C 12.109375 19.648438 11.800781 19.535156 11.585938 19.320312 C 11.425781 19.160156 11.425781 18.90625 11.585938 18.746094 C 11.742188 18.589844 12 18.589844 12.15625 18.746094 C 12.230469 18.816406 12.324219 18.824219 12.378906 18.820312 C 12.484375 18.8125 12.597656 18.757812 12.683594 18.671875 C 12.84375 18.511719 12.878906 18.269531 12.757812 18.148438 C 12.632812 18.023438 12.394531 18.058594 12.230469 18.21875 C 11.75 18.699219 11 18.734375 10.558594 18.296875 C 10.210938 17.945312 10.160156 17.402344 10.390625 16.953125 L 10.324219 16.886719 C 10.164062 16.730469 10.164062 16.472656 10.324219 16.3125 C 10.480469 16.15625 10.738281 16.15625 10.894531 16.3125 L 10.964844 16.382812 C 11.414062 16.152344 11.957031 16.203125 12.304688 16.550781 C 12.464844 16.707031 12.464844 16.964844 12.304688 17.121094 C 12.148438 17.28125 11.890625 17.28125 11.734375 17.125 C 11.609375 17 11.367188 17.035156 11.207031 17.199219 C 11.042969 17.359375 11.011719 17.601562 11.132812 17.722656 Z M 13.5 15.804688 L 14.507812 14.796875 C 14.667969 14.636719 14.925781 14.636719 15.082031 14.796875 C 15.242188 14.953125 15.242188 15.210938 15.082031 15.371094 L 14.074219 16.378906 C 13.996094 16.457031 13.890625 16.496094 13.789062 16.496094 C 13.683594 16.496094 13.578125 16.457031 13.5 16.378906 C 13.34375 16.21875 13.34375 15.964844 13.5 15.804688 Z M 4.074219 17.261719 L 6.019531 17.261719 L 3.636719 19.644531 C 3.589844 19.691406 3.558594 19.746094 3.539062 19.808594 C 3.070312 19.601562 2.746094 19.132812 2.746094 18.59375 C 2.746094 17.859375 3.34375 17.261719 4.074219 17.261719 Z M 18.496094 30.207031 C 18.496094 30.507812 18.25 30.753906 17.949219 30.753906 L 3.292969 30.753906 C 2.992188 30.753906 2.746094 30.507812 2.746094 30.207031 L 2.746094 20.265625 C 3.109375 20.558594 3.574219 20.730469 4.074219 20.730469 L 17.394531 20.730469 C 17.410156 20.730469 17.421875 20.730469 17.433594 20.730469 C 17.449219 20.730469 17.460938 20.730469 17.472656 20.730469 L 17.949219 20.730469 C 18.25 20.730469 18.496094 20.976562 18.496094 21.277344 L 18.496094 22.953125 L 16.015625 22.953125 C 14.769531 22.953125 13.753906 23.964844 13.753906 25.210938 L 13.753906 26.273438 C 13.753906 27.519531 14.769531 28.53125 16.015625 28.53125 L 18.496094 28.53125 Z M 19.433594 27.722656 L 16.015625 27.722656 C 15.214844 27.722656 14.566406 27.074219 14.566406 26.273438 L 14.566406 25.210938 C 14.566406 24.414062 15.214844 23.761719 16.015625 23.761719 L 19.433594 23.761719 Z M 25.269531 26.460938 L 22.003906 26.460938 C 21.777344 26.460938 21.597656 26.28125 21.597656 26.058594 C 21.597656 25.835938 21.777344 25.652344 22.003906 25.652344 L 25.269531 25.652344 C 25.492188 25.652344 25.675781 25.835938 25.675781 26.058594 C 25.675781 26.28125 25.492188 26.460938 25.269531 26.460938 Z M 20.242188 24.546875 L 20.242188 23.355469 C 20.242188 23.132812 20.0625 22.953125 19.835938 22.953125 L 19.308594 22.953125 L 19.308594 21.277344 C 19.308594 20.53125 18.699219 19.921875 17.949219 19.921875 L 17.878906 19.921875 L 17.878906 18.601562 L 20.546875 15.933594 C 20.703125 15.773438 20.703125 15.519531 20.546875 15.359375 L 16.515625 11.328125 L 16.515625 5.363281 L 30.753906 5.363281 L 30.753906 24.546875 Z M 18.03125 25.742188 C 18.03125 26.3125 17.566406 26.773438 16.996094 26.773438 C 16.429688 26.773438 15.964844 26.3125 15.964844 25.742188 C 15.964844 25.171875 16.429688 24.710938 16.996094 24.710938 C 17.566406 24.710938 18.03125 25.175781 18.03125 25.742188 Z M 4.164062 27.023438 C 4.164062 26.800781 4.347656 26.617188 4.570312 26.617188 L 7.960938 26.617188 C 8.183594 26.617188 8.367188 26.800781 8.367188 27.023438 C 8.367188 27.246094 8.183594 27.429688 7.960938 27.429688 L 4.570312 27.429688 C 4.347656 27.429688 4.164062 27.246094 4.164062 27.023438 Z M 10.933594 29.34375 C 10.933594 29.566406 10.753906 29.746094 10.53125 29.746094 L 4.570312 29.746094 C 4.347656 29.746094 4.164062 29.566406 4.164062 29.34375 C 4.164062 29.117188 4.347656 28.9375 4.570312 28.9375 L 10.53125 28.9375 C 10.753906 28.9375 10.933594 29.117188 10.933594 29.34375 Z M 23.636719 7.179688 C 21.484375 7.179688 19.730469 8.933594 19.730469 11.082031 C 19.730469 13.234375 21.484375 14.984375 23.636719 14.984375 C 25.785156 14.984375 27.539062 13.234375 27.539062 11.082031 C 27.539062 8.933594 25.785156 7.179688 23.636719 7.179688 Z M 25.929688 9.960938 L 23.113281 12.777344 C 22.957031 12.9375 22.699219 12.9375 22.539062 12.777344 L 21.164062 11.398438 C 21.003906 11.242188 21.003906 10.984375 21.164062 10.828125 C 21.320312 10.667969 21.578125 10.667969 21.734375 10.828125 L 22.824219 11.917969 L 25.355469 9.386719 C 25.515625 9.230469 25.769531 9.230469 25.929688 9.386719 C 26.085938 9.546875 26.085938 9.804688 25.929688 9.960938 Z M 25.929688 9.960938 " fill-opacity="1" fill-rule="nonzero"/></g></svg>