<svg xmlns="http://www.w3.org/2000/svg" xmlns:xlink="http://www.w3.org/1999/xlink" width="45" zoomAndPan="magnify" viewBox="0 0 33.75 33.749998" height="45" preserveAspectRatio="xMidYMid meet" version="1.0"><defs><clipPath id="5de9fb6ee7"><path d="M 6 11 L 30.792969 11 L 30.792969 26 L 6 26 Z M 6 11 " clip-rule="nonzero"/></clipPath><clipPath id="0bac8b5ca4"><path d="M 2.503906 17 L 14 17 L 14 31.339844 L 2.503906 31.339844 Z M 2.503906 17 " clip-rule="nonzero"/></clipPath><clipPath id="bf8418a40a"><path d="M 7 2.304688 L 13 2.304688 L 13 8 L 7 8 Z M 7 2.304688 " clip-rule="nonzero"/></clipPath><clipPath id="c329f8a020"><path d="M 16 2.304688 L 22 2.304688 L 22 8 L 16 8 Z M 16 2.304688 " clip-rule="nonzero"/></clipPath><clipPath id="3edd59b290"><path d="M 25 2.304688 L 30.792969 2.304688 L 30.792969 8 L 25 8 Z M 25 2.304688 " clip-rule="nonzero"/></clipPath></defs><g clip-path="url(#5de9fb6ee7)"><path fill="#c4942e" d="M 20.246094 25.617188 L 13.8125 25.566406 L 6.464844 18.015625 C 7.160156 17.339844 8.074219 16.863281 8.972656 16.660156 C 9.226562 16.609375 9.886719 16.507812 10.121094 16.660156 L 10.121094 16.679688 C 10.679688 17.136719 12.207031 17.40625 12.898438 17.523438 C 14.59375 17.777344 16.351562 17.878906 18.0625 17.914062 C 18.945312 17.914062 19.992188 18.101562 20.550781 18.84375 C 20.90625 19.320312 21.007812 19.910156 20.957031 20.488281 L 20.941406 20.640625 L 13.375 20.640625 C 13.1875 20.640625 13.035156 20.792969 13.035156 20.980469 C 13.035156 21.164062 13.1875 21.316406 13.375 21.316406 L 21.230469 21.316406 C 21.382812 21.316406 21.515625 21.214844 21.550781 21.0625 C 21.617188 20.792969 21.652344 20.4375 21.652344 20.148438 C 21.636719 19.539062 21.484375 18.945312 21.109375 18.457031 C 20.789062 18.03125 20.382812 17.746094 19.925781 17.558594 L 25.15625 12.613281 C 25.816406 11.75 27.492188 10.464844 29.320312 11.546875 C 31.152344 12.613281 31.117188 14.375 30.847656 15.15625 C 30.828125 15.222656 30.796875 15.289062 30.726562 15.339844 L 20.601562 25.464844 C 20.519531 25.566406 20.382812 25.617188 20.246094 25.617188 Z M 24.394531 18.894531 C 24.480469 18.894531 24.566406 18.863281 24.632812 18.792969 L 29.167969 14.242188 C 29.304688 14.121094 29.304688 13.902344 29.167969 13.765625 C 29.050781 13.628906 28.832031 13.628906 28.695312 13.765625 L 24.140625 18.320312 C 24.023438 18.457031 24.023438 18.660156 24.140625 18.792969 C 24.210938 18.863281 24.292969 18.894531 24.394531 18.894531 Z M 17.859375 23.398438 C 18.046875 23.398438 18.199219 23.246094 18.199219 23.0625 C 18.199219 22.875 18.046875 22.722656 17.859375 22.722656 L 12.664062 22.722656 C 12.476562 22.722656 12.324219 22.875 12.324219 23.0625 C 12.324219 23.246094 12.476562 23.398438 12.664062 23.398438 Z M 17.859375 23.398438 " fill-opacity="1" fill-rule="evenodd"/></g><g clip-path="url(#0bac8b5ca4)"><path fill="#c4942e" d="M 8.988281 31.1875 C 8.851562 31.1875 8.71875 31.136719 8.617188 31.035156 L 2.65625 24.753906 C 2.539062 24.636719 2.488281 24.449219 2.519531 24.28125 L 3.332031 21.113281 L 7.5 25.261719 C 7.566406 25.328125 7.652344 25.363281 7.734375 25.363281 C 7.820312 25.363281 7.90625 25.328125 7.972656 25.261719 C 8.109375 25.125 8.109375 24.921875 7.972656 24.789062 L 3.535156 20.351562 L 4.195312 17.746094 C 4.246094 17.574219 4.382812 17.421875 4.550781 17.390625 C 4.738281 17.339844 4.925781 17.390625 5.042969 17.523438 L 13.375 26.09375 C 13.578125 26.296875 13.578125 26.601562 13.390625 26.804688 L 9.359375 31.035156 C 9.257812 31.136719 9.125 31.1875 8.988281 31.1875 Z M 8.988281 31.1875 " fill-opacity="1" fill-rule="evenodd"/></g><path fill="#c4942e" d="M 17.148438 17.203125 C 17.148438 17.203125 17.164062 17.1875 17.164062 17.1875 L 23.617188 11.363281 C 23.703125 11.292969 24.363281 10.71875 25.242188 10.820312 C 25.480469 10.855469 25.699219 10.921875 25.902344 11.039062 C 25.429688 11.34375 24.988281 11.734375 24.648438 12.15625 L 19.179688 17.339844 L 19.113281 17.339844 L 19.097656 17.320312 L 19.011719 17.320312 L 18.996094 17.304688 L 18.910156 17.304688 L 18.894531 17.289062 L 18.808594 17.289062 C 18.554688 17.253906 18.316406 17.238281 18.0625 17.238281 C 17.960938 17.238281 17.859375 17.238281 17.742188 17.21875 L 17.488281 17.21875 C 17.371094 17.21875 17.25 17.21875 17.148438 17.203125 Z M 17.148438 17.203125 " fill-opacity="1" fill-rule="evenodd"/><path fill="#c4942e" d="M 16.65625 13.121094 C 16.539062 13.121094 16.4375 13.089844 16.351562 13.019531 L 14.339844 11.546875 L 12.324219 13.019531 C 12.136719 13.15625 11.902344 13.15625 11.714844 13.019531 C 11.546875 12.902344 11.460938 12.664062 11.527344 12.460938 L 12.308594 10.09375 L 10.292969 8.621094 C 10.105469 8.484375 10.039062 8.265625 10.105469 8.042969 C 10.171875 7.839844 10.359375 7.707031 10.578125 7.707031 L 13.085938 7.707031 L 13.847656 5.335938 C 13.914062 5.113281 14.117188 4.980469 14.339844 4.980469 C 14.558594 4.980469 14.746094 5.113281 14.8125 5.335938 L 15.589844 7.707031 L 18.082031 7.707031 C 18.300781 7.707031 18.503906 7.839844 18.570312 8.042969 C 18.640625 8.265625 18.554688 8.484375 18.386719 8.621094 L 16.351562 10.09375 L 17.132812 12.460938 C 17.199219 12.664062 17.132812 12.902344 16.945312 13.019531 C 16.859375 13.089844 16.757812 13.121094 16.65625 13.121094 Z M 16.65625 13.121094 " fill-opacity="1" fill-rule="evenodd"/><path fill="#c4942e" d="M 7.871094 14.984375 Z M 7.871094 14.984375 C 7.667969 14.984375 7.480469 14.851562 7.398438 14.664062 L 6.921875 13.511719 L 5.753906 13.019531 C 5.570312 12.9375 5.449219 12.75 5.449219 12.546875 C 5.449219 12.34375 5.570312 12.15625 5.753906 12.089844 L 6.921875 11.597656 L 7.398438 10.429688 C 7.480469 10.246094 7.667969 10.125 7.871094 10.125 C 8.074219 10.125 8.261719 10.246094 8.34375 10.429688 L 8.820312 11.597656 L 9.988281 12.089844 C 10.171875 12.15625 10.292969 12.34375 10.292969 12.546875 C 10.292969 12.75 10.171875 12.9375 9.988281 13.019531 L 8.820312 13.511719 L 8.34375 14.664062 C 8.261719 14.851562 8.074219 14.984375 7.871094 14.984375 Z M 7.871094 14.984375 " fill-opacity="1" fill-rule="evenodd"/><g clip-path="url(#bf8418a40a)"><path fill="#c4942e" d="M 9.582031 7.449219 C 9.378906 7.449219 9.191406 7.332031 9.105469 7.128906 L 8.617188 5.976562 L 7.464844 5.488281 C 7.277344 5.417969 7.144531 5.234375 7.144531 5.03125 C 7.144531 4.808594 7.277344 4.640625 7.464844 4.554688 L 8.617188 4.066406 L 9.105469 2.914062 C 9.191406 2.710938 9.378906 2.59375 9.582031 2.59375 C 9.785156 2.59375 9.96875 2.710938 10.039062 2.914062 L 10.527344 4.066406 L 11.699219 4.554688 C 11.882812 4.640625 12.003906 4.808594 12.003906 5.03125 C 12.003906 5.234375 11.882812 5.402344 11.699219 5.488281 L 10.527344 5.976562 L 10.039062 7.128906 C 9.96875 7.332031 9.785156 7.449219 9.582031 7.449219 Z M 9.582031 7.449219 " fill-opacity="1" fill-rule="evenodd"/></g><path fill="#c4942e" d="M 18.132812 4.742188 L 18.367188 4.828125 C 18.488281 4.894531 18.589844 4.980469 18.640625 5.113281 L 18.742188 5.335938 L 18.84375 5.113281 C 18.894531 4.980469 18.996094 4.894531 19.113281 4.828125 L 19.351562 4.742188 L 19.113281 4.640625 C 18.996094 4.589844 18.894531 4.488281 18.84375 4.371094 L 18.742188 4.132812 L 18.640625 4.371094 C 18.589844 4.488281 18.488281 4.589844 18.367188 4.640625 Z M 18.132812 4.742188 " fill-opacity="1" fill-rule="evenodd"/><g clip-path="url(#c329f8a020)"><path fill="#c4942e" d="M 18.742188 7.164062 C 18.539062 7.164062 18.351562 7.042969 18.265625 6.859375 L 17.792969 5.691406 L 16.625 5.199219 C 16.4375 5.132812 16.320312 4.945312 16.320312 4.742188 C 16.320312 4.539062 16.4375 4.351562 16.625 4.269531 L 17.792969 3.777344 L 18.265625 2.625 C 18.351562 2.441406 18.539062 2.304688 18.742188 2.304688 C 18.945312 2.304688 19.128906 2.441406 19.214844 2.625 L 19.6875 3.777344 L 20.855469 4.269531 C 21.042969 4.351562 21.160156 4.539062 21.160156 4.742188 C 21.160156 4.945312 21.042969 5.132812 20.855469 5.199219 L 19.6875 5.691406 L 19.214844 6.859375 C 19.128906 7.042969 18.945312 7.164062 18.742188 7.164062 Z M 18.742188 7.164062 " fill-opacity="1" fill-rule="evenodd"/></g><path fill="#c4942e" d="M 23.292969 10.296875 C 23.074219 10.296875 22.90625 10.160156 22.820312 9.972656 L 22.328125 8.824219 L 21.179688 8.332031 C 20.992188 8.246094 20.855469 8.0625 20.855469 7.859375 C 20.855469 7.65625 20.992188 7.46875 21.179688 7.398438 L 22.328125 6.910156 L 22.820312 5.742188 C 22.90625 5.554688 23.074219 5.4375 23.292969 5.4375 C 23.5 5.4375 23.683594 5.554688 23.753906 5.742188 L 24.242188 6.910156 L 25.394531 7.398438 C 25.597656 7.46875 25.714844 7.65625 25.714844 7.859375 C 25.714844 8.0625 25.597656 8.246094 25.394531 8.332031 L 24.242188 8.824219 L 23.753906 9.972656 C 23.683594 10.160156 23.5 10.296875 23.292969 10.296875 Z M 23.292969 10.296875 " fill-opacity="1" fill-rule="evenodd"/><g clip-path="url(#3edd59b290)"><path fill="#c4942e" d="M 28.253906 7.449219 C 28.050781 7.449219 27.867188 7.332031 27.796875 7.128906 L 27.308594 5.976562 L 26.140625 5.488281 C 25.953125 5.417969 25.835938 5.234375 25.835938 5.03125 C 25.835938 4.808594 25.953125 4.640625 26.140625 4.554688 L 27.308594 4.066406 L 27.796875 2.914062 C 27.867188 2.710938 28.050781 2.59375 28.253906 2.59375 C 28.457031 2.59375 28.644531 2.710938 28.730469 2.914062 L 29.21875 4.066406 L 30.371094 4.554688 C 30.558594 4.640625 30.695312 4.808594 30.695312 5.03125 C 30.695312 5.234375 30.558594 5.402344 30.371094 5.488281 L 29.21875 5.976562 L 28.730469 7.128906 C 28.644531 7.332031 28.457031 7.449219 28.253906 7.449219 Z M 28.253906 7.449219 " fill-opacity="1" fill-rule="evenodd"/></g></svg>