<svg xmlns="http://www.w3.org/2000/svg" xmlns:xlink="http://www.w3.org/1999/xlink" width="45" zoomAndPan="magnify" viewBox="0 0 33.75 33.749998" height="45" preserveAspectRatio="xMidYMid meet" version="1.0"><defs><clipPath id="161b52e434"><path d="M 3 1.867188 L 20 1.867188 L 20 21 L 3 21 Z M 3 1.867188 " clip-rule="nonzero"/></clipPath><clipPath id="036cce9812"><path d="M 13 12 L 30 12 L 30 31.644531 L 13 31.644531 Z M 13 12 " clip-rule="nonzero"/></clipPath><clipPath id="21efe0d8b9"><path d="M 2.628906 18 L 13 18 L 13 28 L 2.628906 28 Z M 2.628906 18 " clip-rule="nonzero"/></clipPath><clipPath id="a83c0caa84"><path d="M 20 3 L 30.917969 3 L 30.917969 12 L 20 12 Z M 20 3 " clip-rule="nonzero"/></clipPath></defs><path fill="#c4942e" d="M 13.21875 15.902344 L 17.976562 15.902344 C 18.660156 15.902344 19.21875 15.34375 19.21875 14.660156 L 19.21875 11.574219 C 19.21875 10.890625 18.660156 10.335938 17.976562 10.335938 L 11.027344 10.335938 C 10.339844 10.335938 9.785156 10.890625 9.785156 11.574219 L 9.785156 14.660156 C 9.785156 15.34375 10.339844 15.902344 11.027344 15.902344 C 11.109375 15.902344 11.1875 15.945312 11.230469 16.015625 C 11.273438 16.089844 11.277344 16.179688 11.238281 16.253906 L 10.746094 17.199219 L 13.105469 15.929688 C 13.140625 15.910156 13.179688 15.902344 13.21875 15.902344 Z M 11.230469 11.648438 L 17.773438 11.648438 C 17.90625 11.648438 18.011719 11.757812 18.011719 11.890625 C 18.011719 12.023438 17.90625 12.128906 17.773438 12.128906 L 11.230469 12.128906 C 11.097656 12.128906 10.992188 12.023438 10.992188 11.890625 C 10.992188 11.757812 11.097656 11.648438 11.230469 11.648438 Z M 11.230469 14.378906 C 11.097656 14.378906 10.992188 14.269531 10.992188 14.136719 C 10.992188 14.007812 11.097656 13.898438 11.230469 13.898438 L 17.773438 13.898438 C 17.90625 13.898438 18.011719 14.007812 18.011719 14.136719 C 18.011719 14.269531 17.90625 14.378906 17.773438 14.378906 Z M 11.230469 14.378906 " fill-opacity="1" fill-rule="nonzero"/><path fill="#c4942e" d="M 15.523438 22.9375 L 22.476562 22.9375 C 23.160156 22.9375 23.714844 22.382812 23.714844 21.699219 L 23.714844 18.613281 C 23.714844 17.929688 23.160156 17.371094 22.476562 17.371094 C 22.390625 17.371094 22.3125 17.328125 22.269531 17.257812 C 22.226562 17.183594 22.222656 17.097656 22.261719 17.019531 L 22.753906 16.074219 L 20.394531 17.34375 C 20.359375 17.363281 20.320312 17.371094 20.28125 17.371094 L 15.523438 17.371094 C 14.839844 17.371094 14.285156 17.929688 14.285156 18.613281 L 14.285156 21.699219 C 14.285156 22.382812 14.839844 22.9375 15.523438 22.9375 Z M 15.730469 18.785156 L 22.269531 18.785156 C 22.402344 18.785156 22.511719 18.890625 22.511719 19.023438 C 22.511719 19.15625 22.402344 19.265625 22.269531 19.265625 L 15.730469 19.265625 C 15.597656 19.265625 15.488281 19.15625 15.488281 19.023438 C 15.488281 18.890625 15.597656 18.785156 15.730469 18.785156 Z M 15.730469 21.035156 L 22.269531 21.035156 C 22.402344 21.035156 22.511719 21.140625 22.511719 21.273438 C 22.511719 21.40625 22.402344 21.511719 22.269531 21.511719 L 15.730469 21.511719 C 15.597656 21.511719 15.488281 21.40625 15.488281 21.273438 C 15.488281 21.140625 15.597656 21.035156 15.730469 21.035156 Z M 15.730469 21.035156 " fill-opacity="1" fill-rule="nonzero"/><g clip-path="url(#161b52e434)"><path fill="#c4942e" d="M 3.238281 16.75 C 3.238281 17.921875 3.394531 19.074219 3.691406 20.183594 C 4.28125 19.5625 5.011719 19.078125 5.832031 18.78125 C 5.707031 18.117188 5.640625 17.4375 5.640625 16.75 C 5.640625 14.15625 6.570312 11.644531 8.253906 9.667969 C 9.917969 7.714844 12.21875 6.40625 14.726562 5.976562 C 14.796875 5.964844 14.867188 5.984375 14.921875 6.03125 C 14.976562 6.074219 15.007812 6.144531 15.007812 6.214844 L 15.007812 7.167969 C 15.007812 7.242188 15.023438 7.371094 15.113281 7.371094 C 15.15625 7.371094 15.214844 7.351562 15.273438 7.320312 L 19.683594 4.769531 C 19.785156 4.710938 19.824219 4.652344 19.824219 4.617188 C 19.824219 4.585938 19.785156 4.523438 19.683594 4.464844 L 15.273438 1.917969 C 15.214844 1.882812 15.15625 1.867188 15.113281 1.867188 C 15.023438 1.867188 15.007812 1.996094 15.007812 2.070312 L 15.007812 3.296875 C 15.007812 3.417969 14.917969 3.519531 14.800781 3.535156 C 8.207031 4.414062 3.238281 10.09375 3.238281 16.75 Z M 3.238281 16.75 " fill-opacity="1" fill-rule="nonzero"/></g><g clip-path="url(#036cce9812)"><path fill="#c4942e" d="M 29.902344 16.75 C 29.902344 15.449219 29.710938 14.171875 29.347656 12.953125 C 28.710938 13.484375 27.964844 13.867188 27.164062 14.074219 C 27.382812 14.941406 27.5 15.839844 27.5 16.75 C 27.5 19.339844 26.574219 21.855469 24.886719 23.832031 C 23.222656 25.78125 20.925781 27.09375 18.414062 27.523438 C 18.34375 27.535156 18.273438 27.515625 18.21875 27.46875 C 18.164062 27.421875 18.132812 27.355469 18.132812 27.285156 L 18.132812 26.332031 C 18.132812 26.257812 18.121094 26.128906 18.027344 26.128906 C 17.984375 26.128906 17.925781 26.144531 17.867188 26.179688 L 13.457031 28.726562 C 13.355469 28.785156 13.320312 28.847656 13.320312 28.878906 C 13.320312 28.914062 13.355469 28.972656 13.457031 29.03125 L 17.867188 31.582031 C 17.925781 31.613281 17.984375 31.632812 18.027344 31.632812 C 18.0625 31.632812 18.078125 31.621094 18.089844 31.605469 C 18.117188 31.570312 18.132812 31.507812 18.132812 31.429688 L 18.132812 30.203125 C 18.132812 30.082031 18.222656 29.980469 18.339844 29.964844 C 24.933594 29.085938 29.902344 23.40625 29.902344 16.75 Z M 29.902344 16.75 " fill-opacity="1" fill-rule="nonzero"/></g><g clip-path="url(#21efe0d8b9)"><path fill="#c4942e" d="M 2.628906 24.035156 C 2.628906 25.1875 3.015625 26.292969 3.71875 27.1875 L 3.789062 26.933594 C 4.074219 25.808594 5.257812 24.886719 6.425781 24.886719 L 6.433594 24.886719 C 6.515625 24.886719 6.589844 24.929688 6.632812 24.996094 L 7.734375 26.632812 L 8.832031 24.996094 C 8.878906 24.929688 8.953125 24.886719 9.03125 24.886719 L 9.042969 24.886719 C 10.207031 24.886719 11.390625 25.808594 11.675781 26.9375 L 11.746094 27.1875 C 12.453125 26.289062 12.839844 25.1875 12.839844 24.035156 C 12.839844 21.21875 10.546875 18.929688 7.734375 18.929688 C 4.917969 18.929688 2.628906 21.21875 2.628906 24.035156 Z M 7.734375 19.496094 C 9.019531 19.496094 9.785156 20.292969 9.785156 21.625 C 9.785156 23.152344 8.890625 24.925781 7.734375 24.925781 C 6.578125 24.925781 5.679688 23.152344 5.679688 21.625 C 5.679688 20.292969 6.449219 19.496094 7.734375 19.496094 Z M 7.734375 19.496094 " fill-opacity="1" fill-rule="nonzero"/></g><path fill="#c4942e" d="M 11.367188 27.617188 L 11.214844 27.0625 C 10.988281 26.179688 10.066406 25.433594 9.15625 25.371094 L 7.933594 27.199219 C 7.886719 27.265625 7.8125 27.304688 7.734375 27.304688 C 7.652344 27.304688 7.578125 27.265625 7.535156 27.199219 L 6.308594 25.371094 C 5.402344 25.429688 4.476562 26.179688 4.253906 27.058594 L 4.097656 27.617188 C 5.054688 28.585938 6.371094 29.136719 7.734375 29.136719 C 9.097656 29.136719 10.410156 28.585938 11.367188 27.617188 Z M 11.367188 27.617188 " fill-opacity="1" fill-rule="nonzero"/><path fill="#c4942e" d="M 9.304688 21.625 C 9.304688 20.261719 8.449219 19.976562 7.734375 19.976562 C 7.015625 19.976562 6.160156 20.261719 6.160156 21.625 C 6.160156 22.867188 6.902344 24.445312 7.734375 24.445312 C 8.566406 24.445312 9.304688 22.867188 9.304688 21.625 Z M 9.304688 21.625 " fill-opacity="1" fill-rule="nonzero"/><g clip-path="url(#a83c0caa84)"><path fill="#c4942e" d="M 21.753906 11.824219 L 21.824219 11.570312 C 22.109375 10.445312 23.292969 9.523438 24.457031 9.523438 L 24.46875 9.523438 C 24.550781 9.523438 24.625 9.566406 24.667969 9.632812 L 25.765625 11.269531 L 26.867188 9.632812 C 26.910156 9.566406 26.984375 9.523438 27.066406 9.523438 L 27.074219 9.523438 C 28.242188 9.523438 29.425781 10.445312 29.710938 11.574219 L 29.78125 11.824219 C 30.488281 10.925781 30.871094 9.820312 30.871094 8.671875 C 30.871094 5.855469 28.582031 3.566406 25.765625 3.566406 C 22.953125 3.566406 20.664062 5.855469 20.664062 8.671875 C 20.664062 9.824219 21.046875 10.929688 21.753906 11.824219 Z M 25.765625 4.132812 C 27.050781 4.132812 27.820312 4.929688 27.820312 6.261719 C 27.820312 7.789062 26.921875 9.5625 25.765625 9.5625 C 24.613281 9.5625 23.714844 7.789062 23.714844 6.261719 C 23.714844 4.929688 24.480469 4.132812 25.765625 4.132812 Z M 25.765625 4.132812 " fill-opacity="1" fill-rule="nonzero"/></g><path fill="#c4942e" d="M 29.402344 12.253906 L 29.246094 11.699219 C 29.023438 10.816406 28.101562 10.070312 27.191406 10.007812 L 25.964844 11.835938 C 25.921875 11.902344 25.847656 11.941406 25.765625 11.941406 C 25.6875 11.941406 25.613281 11.902344 25.566406 11.835938 L 24.34375 10.007812 C 23.433594 10.066406 22.511719 10.816406 22.289062 11.695312 L 22.132812 12.253906 C 23.089844 13.222656 24.402344 13.773438 25.765625 13.773438 C 27.128906 13.773438 28.445312 13.222656 29.402344 12.253906 Z M 29.402344 12.253906 " fill-opacity="1" fill-rule="nonzero"/><path fill="#c4942e" d="M 24.195312 6.261719 C 24.195312 7.503906 24.933594 9.082031 25.765625 9.082031 C 26.597656 9.082031 27.339844 7.503906 27.339844 6.261719 C 27.339844 4.898438 26.484375 4.613281 25.765625 4.613281 C 25.050781 4.613281 24.195312 4.898438 24.195312 6.261719 Z M 24.195312 6.261719 " fill-opacity="1" fill-rule="nonzero"/></svg>