<svg xmlns="http://www.w3.org/2000/svg" xmlns:xlink="http://www.w3.org/1999/xlink" width="45" zoomAndPan="magnify" viewBox="0 0 33.75 33.749998" height="45" preserveAspectRatio="xMidYMid meet" version="1.0"><defs><clipPath id="91d125dafb"><path d="M 1.824219 8 L 12 8 L 12 21 L 1.824219 21 Z M 1.824219 8 " clip-rule="nonzero"/></clipPath><clipPath id="00788f434a"><path d="M 28 27 L 31.601562 27 L 31.601562 31 L 28 31 Z M 28 27 " clip-rule="nonzero"/></clipPath><clipPath id="3b953001ec"><path d="M 28 2 L 31.601562 2 L 31.601562 7 L 28 7 Z M 28 2 " clip-rule="nonzero"/></clipPath></defs><path fill="#c4942e" d="M 12.832031 9.816406 L 14.535156 10.796875 L 14.535156 10.269531 C 14.535156 10.257812 14.535156 10.242188 14.535156 10.230469 C 14.535156 10.21875 14.535156 10.207031 14.539062 10.195312 C 14.539062 10.183594 14.546875 10.167969 14.546875 10.164062 C 14.546875 10.15625 14.554688 10.152344 14.554688 10.136719 C 14.554688 10.132812 14.558594 10.125 14.558594 10.121094 C 14.566406 10.113281 14.566406 10.101562 14.570312 10.09375 C 14.578125 10.089844 14.578125 10.082031 14.585938 10.074219 C 14.585938 10.070312 14.589844 10.070312 14.589844 10.0625 C 14.589844 10.058594 14.597656 10.058594 14.597656 10.050781 C 14.601562 10.046875 14.609375 10.03125 14.617188 10.027344 C 14.621094 10.019531 14.628906 10.007812 14.640625 10 C 14.652344 9.988281 14.660156 9.984375 14.671875 9.96875 C 14.679688 9.964844 14.691406 9.957031 14.703125 9.953125 C 14.714844 9.945312 14.722656 9.9375 14.734375 9.933594 C 14.738281 9.925781 14.753906 9.921875 14.765625 9.921875 C 14.769531 9.914062 14.777344 9.914062 14.789062 9.90625 C 14.789062 9.90625 14.789062 9.90625 14.796875 9.90625 C 14.800781 9.90625 14.808594 9.902344 14.820312 9.902344 C 14.828125 9.902344 14.832031 9.894531 14.839844 9.894531 C 14.847656 9.894531 14.851562 9.890625 14.859375 9.890625 C 14.871094 9.890625 14.875 9.882812 14.890625 9.882812 C 14.902344 9.882812 14.90625 9.882812 14.921875 9.882812 C 14.921875 9.882812 14.925781 9.882812 14.925781 9.882812 C 14.933594 9.882812 14.9375 9.882812 14.945312 9.882812 C 14.953125 9.882812 14.957031 9.882812 14.964844 9.882812 C 14.976562 9.882812 14.984375 9.882812 14.996094 9.890625 C 14.996094 9.890625 15 9.890625 15 9.890625 C 15.089844 9.90625 15.167969 9.921875 15.257812 9.9375 C 17.296875 10.386719 19.148438 11.53125 20.472656 13.160156 C 21.679688 14.648438 22.402344 16.480469 22.539062 18.390625 L 22.953125 17.835938 C 23.035156 17.730469 23.167969 17.675781 23.304688 17.6875 C 23.433594 17.707031 23.550781 17.792969 23.601562 17.910156 L 23.6875 18.109375 C 23.277344 13.320312 19.703125 9.429688 14.875 8.675781 C 14.875 8.675781 14.871094 8.675781 14.871094 8.675781 C 14.863281 8.675781 14.859375 8.675781 14.851562 8.671875 C 14.847656 8.671875 14.839844 8.671875 14.832031 8.664062 C 14.832031 8.664062 14.832031 8.664062 14.828125 8.664062 C 14.820312 8.664062 14.816406 8.664062 14.816406 8.660156 C 14.808594 8.660156 14.800781 8.652344 14.796875 8.652344 C 14.789062 8.652344 14.785156 8.644531 14.777344 8.644531 C 14.769531 8.640625 14.757812 8.640625 14.753906 8.632812 C 14.753906 8.632812 14.746094 8.632812 14.746094 8.632812 C 14.738281 8.628906 14.734375 8.628906 14.726562 8.621094 C 14.714844 8.613281 14.703125 8.609375 14.695312 8.597656 C 14.683594 8.589844 14.679688 8.578125 14.664062 8.570312 C 14.660156 8.566406 14.660156 8.566406 14.652344 8.558594 C 14.648438 8.550781 14.640625 8.546875 14.632812 8.539062 C 14.632812 8.539062 14.628906 8.535156 14.628906 8.535156 C 14.621094 8.519531 14.609375 8.507812 14.601562 8.503906 C 14.597656 8.496094 14.589844 8.484375 14.589844 8.476562 C 14.589844 8.476562 14.589844 8.472656 14.589844 8.472656 C 14.585938 8.464844 14.585938 8.453125 14.578125 8.445312 C 14.570312 8.433594 14.570312 8.429688 14.566406 8.414062 C 14.558594 8.402344 14.558594 8.398438 14.558594 8.382812 C 14.558594 8.371094 14.554688 8.367188 14.554688 8.351562 C 14.554688 8.339844 14.554688 8.335938 14.554688 8.324219 L 14.554688 7.664062 L 13.078125 8.515625 L 11.835938 9.238281 L 12.804688 9.796875 Z M 12.832031 9.816406 " fill-opacity="1" fill-rule="nonzero"/><g clip-path="url(#91d125dafb)"><path fill="#c4942e" d="M 3.976562 19.242188 L 3.996094 19.210938 L 4.945312 17.5625 L 4.511719 17.5625 C 4.503906 17.5625 4.496094 17.5625 4.492188 17.5625 C 4.46875 17.5625 4.441406 17.558594 4.417969 17.558594 C 4.40625 17.558594 4.390625 17.550781 4.386719 17.542969 C 4.375 17.539062 4.359375 17.539062 4.347656 17.53125 C 4.324219 17.519531 4.304688 17.511719 4.285156 17.496094 C 4.273438 17.488281 4.269531 17.480469 4.253906 17.476562 C 4.238281 17.464844 4.21875 17.445312 4.207031 17.425781 C 4.199219 17.421875 4.191406 17.40625 4.1875 17.402344 C 4.175781 17.382812 4.164062 17.363281 4.15625 17.34375 C 4.15625 17.339844 4.148438 17.332031 4.148438 17.332031 C 4.144531 17.320312 4.144531 17.316406 4.136719 17.300781 C 4.136719 17.296875 4.132812 17.289062 4.132812 17.289062 C 4.132812 17.285156 4.125 17.285156 4.125 17.277344 C 4.125 17.269531 4.117188 17.265625 4.117188 17.257812 C 4.113281 17.238281 4.113281 17.214844 4.113281 17.191406 C 4.113281 17.175781 4.113281 17.160156 4.113281 17.148438 C 4.113281 17.132812 4.117188 17.121094 4.117188 17.109375 C 4.527344 15.179688 5.519531 13.457031 6.992188 12.132812 C 8.273438 10.976562 9.808594 10.21875 11.476562 9.902344 L 10.890625 9.566406 C 10.773438 9.496094 10.703125 9.375 10.703125 9.242188 C 10.703125 9.105469 10.773438 8.980469 10.890625 8.917969 L 11.109375 8.796875 C 6.964844 9.652344 3.644531 12.988281 2.90625 17.257812 C 2.90625 17.269531 2.898438 17.277344 2.898438 17.289062 C 2.898438 17.300781 2.894531 17.308594 2.886719 17.320312 C 2.886719 17.320312 2.886719 17.328125 2.886719 17.328125 C 2.886719 17.332031 2.882812 17.339844 2.882812 17.34375 C 2.882812 17.351562 2.875 17.359375 2.875 17.363281 C 2.867188 17.375 2.863281 17.390625 2.851562 17.402344 C 2.84375 17.40625 2.835938 17.421875 2.832031 17.425781 C 2.824219 17.4375 2.8125 17.453125 2.800781 17.457031 C 2.78125 17.476562 2.761719 17.488281 2.746094 17.5 C 2.730469 17.507812 2.726562 17.511719 2.714844 17.519531 C 2.699219 17.527344 2.695312 17.53125 2.683594 17.539062 C 2.667969 17.542969 2.65625 17.550781 2.644531 17.550781 C 2.632812 17.558594 2.621094 17.558594 2.609375 17.5625 C 2.582031 17.570312 2.558594 17.570312 2.53125 17.570312 C 2.527344 17.570312 2.519531 17.570312 2.515625 17.570312 L 1.824219 17.570312 L 2.714844 19.113281 L 3.386719 20.269531 Z M 3.976562 19.242188 " fill-opacity="1" fill-rule="nonzero"/></g><path fill="#c4942e" d="M 23.316406 21.910156 L 23.320312 21.890625 C 23.320312 21.886719 23.320312 21.886719 23.328125 21.878906 C 23.328125 21.871094 23.335938 21.867188 23.335938 21.859375 C 23.335938 21.855469 23.335938 21.855469 23.339844 21.847656 C 23.339844 21.839844 23.347656 21.835938 23.347656 21.828125 C 23.363281 21.792969 23.390625 21.753906 23.414062 21.722656 C 23.421875 21.71875 23.421875 21.71875 23.425781 21.710938 C 23.433594 21.703125 23.441406 21.699219 23.453125 21.691406 C 23.464844 21.6875 23.476562 21.671875 23.484375 21.667969 C 23.488281 21.660156 23.503906 21.65625 23.507812 21.65625 C 23.515625 21.648438 23.527344 21.648438 23.53125 21.644531 C 23.546875 21.636719 23.550781 21.636719 23.5625 21.628906 C 23.578125 21.625 23.582031 21.625 23.59375 21.625 C 23.613281 21.617188 23.632812 21.617188 23.652344 21.613281 C 23.664062 21.613281 23.675781 21.613281 23.6875 21.613281 C 23.707031 21.613281 23.71875 21.613281 23.738281 21.617188 L 23.75 21.617188 L 24.378906 21.691406 L 23.714844 20.125 C 23.714844 20.117188 23.707031 20.117188 23.707031 20.113281 L 23.160156 18.820312 L 22.476562 19.726562 L 21.28125 21.3125 L 21.816406 21.382812 C 21.828125 21.382812 21.839844 21.386719 21.847656 21.386719 C 21.855469 21.386719 21.867188 21.394531 21.871094 21.394531 C 21.871094 21.394531 21.878906 21.394531 21.878906 21.394531 C 21.890625 21.398438 21.898438 21.398438 21.910156 21.40625 C 21.921875 21.414062 21.933594 21.417969 21.949219 21.425781 C 21.953125 21.429688 21.964844 21.4375 21.972656 21.4375 C 21.976562 21.445312 21.984375 21.445312 21.992188 21.449219 C 21.996094 21.457031 22.003906 21.460938 22.007812 21.46875 C 22.015625 21.476562 22.023438 21.480469 22.027344 21.488281 C 22.035156 21.492188 22.035156 21.492188 22.035156 21.5 C 22.039062 21.503906 22.046875 21.511719 22.046875 21.511719 C 22.054688 21.519531 22.058594 21.523438 22.066406 21.535156 C 22.078125 21.554688 22.085938 21.566406 22.097656 21.585938 C 22.101562 21.59375 22.101562 21.605469 22.109375 21.613281 C 22.109375 21.617188 22.113281 21.625 22.113281 21.628906 C 22.121094 21.636719 22.121094 21.644531 22.121094 21.648438 C 22.121094 21.65625 22.128906 21.660156 22.128906 21.667969 C 22.128906 21.671875 22.132812 21.679688 22.132812 21.6875 C 22.132812 21.691406 22.132812 21.699219 22.132812 21.703125 C 22.132812 21.710938 22.132812 21.710938 22.132812 21.71875 C 22.132812 21.730469 22.132812 21.742188 22.132812 21.753906 C 22.132812 21.761719 22.132812 21.773438 22.132812 21.78125 C 22.132812 21.785156 22.132812 21.792969 22.132812 21.796875 C 22.132812 21.808594 22.128906 21.824219 22.128906 21.835938 C 22.128906 21.847656 22.121094 21.859375 22.121094 21.867188 L 22.113281 21.890625 C 21.519531 23.757812 20.367188 25.359375 18.789062 26.53125 C 18.203125 26.964844 17.574219 27.328125 16.921875 27.605469 L 19.292969 27.605469 C 21.230469 26.21875 22.664062 24.199219 23.316406 21.910156 Z M 23.316406 21.910156 " fill-opacity="1" fill-rule="nonzero"/><g clip-path="url(#00788f434a)"><path fill="#c4942e" d="M 28.71875 30.742188 L 31.671875 29.035156 L 28.71875 27.328125 Z M 28.71875 30.742188 " fill-opacity="1" fill-rule="nonzero"/></g><path fill="#c4942e" d="M 12.988281 28.347656 C 10.660156 28.285156 8.464844 27.371094 6.78125 25.753906 C 5.332031 24.355469 4.386719 22.5625 4.054688 20.605469 L 3.707031 21.207031 C 3.640625 21.324219 3.515625 21.394531 3.386719 21.394531 C 3.246094 21.394531 3.125 21.324219 3.0625 21.207031 L 2.949219 21.015625 C 3.882812 25.832031 8.179688 29.523438 13.234375 29.523438 L 27.96875 29.523438 L 27.96875 28.359375 L 13.03125 28.359375 C 13.015625 28.351562 13 28.347656 12.988281 28.347656 Z M 12.988281 28.347656 " fill-opacity="1" fill-rule="nonzero"/><g clip-path="url(#3b953001ec)"><path fill="#c4942e" d="M 28.71875 2.757812 L 28.71875 6.171875 L 31.671875 4.460938 Z M 28.71875 2.757812 " fill-opacity="1" fill-rule="nonzero"/></g><path fill="#c4942e" d="M 13.234375 25.222656 L 13.9375 24.578125 L 13.9375 24.050781 C 13.9375 23.867188 14.0625 23.71875 14.234375 23.683594 C 14.839844 23.558594 15.410156 23.320312 15.933594 22.980469 C 16.082031 22.878906 16.28125 22.90625 16.40625 23.03125 L 16.78125 23.402344 L 17.730469 23.359375 L 17.773438 22.40625 L 17.402344 22.035156 C 17.277344 21.910156 17.253906 21.710938 17.351562 21.5625 C 17.695312 21.039062 17.929688 20.472656 18.054688 19.863281 C 18.09375 19.691406 18.242188 19.566406 18.421875 19.566406 L 18.949219 19.566406 L 19.597656 18.863281 L 18.949219 18.160156 L 18.421875 18.160156 C 18.242188 18.160156 18.09375 18.035156 18.054688 17.863281 C 17.929688 17.257812 17.695312 16.6875 17.351562 16.164062 C 17.253906 16.015625 17.277344 15.820312 17.402344 15.691406 L 17.773438 15.316406 L 17.730469 14.367188 L 16.78125 14.324219 L 16.40625 14.695312 C 16.28125 14.820312 16.082031 14.839844 15.933594 14.746094 C 15.410156 14.402344 14.847656 14.167969 14.234375 14.042969 C 14.0625 14.007812 13.9375 13.855469 13.9375 13.675781 L 13.9375 13.148438 L 13.234375 12.5 L 12.53125 13.148438 L 12.53125 13.675781 C 12.53125 13.855469 12.40625 14.007812 12.234375 14.042969 C 11.628906 14.167969 11.058594 14.402344 10.535156 14.746094 C 10.386719 14.847656 10.1875 14.820312 10.0625 14.695312 L 9.691406 14.324219 L 8.738281 14.367188 L 8.695312 15.316406 L 9.070312 15.691406 C 9.191406 15.816406 9.21875 16.015625 9.117188 16.164062 C 8.777344 16.6875 8.539062 17.253906 8.414062 17.863281 C 8.378906 18.035156 8.230469 18.160156 8.046875 18.160156 L 7.519531 18.160156 L 6.875 18.863281 L 7.519531 19.566406 L 8.046875 19.566406 C 8.230469 19.566406 8.378906 19.691406 8.414062 19.863281 C 8.539062 20.46875 8.777344 21.039062 9.117188 21.5625 C 9.21875 21.710938 9.191406 21.910156 9.070312 22.035156 L 8.695312 22.40625 L 8.738281 23.359375 L 9.691406 23.402344 L 10.0625 23.03125 C 10.1875 22.90625 10.386719 22.886719 10.535156 22.980469 C 11.058594 23.320312 11.625 23.558594 12.234375 23.683594 C 12.40625 23.71875 12.53125 23.867188 12.53125 24.050781 L 12.53125 24.578125 Z M 10.386719 21.949219 C 9.535156 21.195312 9.074219 20.132812 9.054688 18.867188 C 9.054688 18.863281 9.054688 18.855469 9.054688 18.851562 C 9.054688 18.851562 9.054688 18.84375 9.054688 18.84375 C 9.054688 18.84375 9.054688 18.839844 9.054688 18.839844 C 9.054688 18.824219 9.054688 18.820312 9.054688 18.808594 C 9.085938 17.550781 9.554688 16.492188 10.40625 15.753906 C 11.164062 15.089844 12.171875 14.726562 13.246094 14.726562 C 14.324219 14.726562 15.332031 15.101562 16.082031 15.765625 C 16.933594 16.519531 17.394531 17.582031 17.414062 18.84375 C 17.414062 18.851562 17.414062 18.855469 17.414062 18.863281 C 17.414062 18.863281 17.414062 18.867188 17.414062 18.867188 C 17.414062 18.867188 17.414062 18.875 17.414062 18.875 C 17.414062 18.886719 17.414062 18.894531 17.414062 18.90625 C 17.382812 20.164062 16.917969 21.21875 16.066406 21.960938 C 15.304688 22.617188 14.304688 22.984375 13.234375 22.984375 L 13.222656 22.984375 C 12.148438 22.984375 11.140625 22.617188 10.386719 21.949219 Z M 10.386719 21.949219 " fill-opacity="1" fill-rule="nonzero"/><path fill="#c4942e" d="M 13.230469 21.996094 C 13.382812 21.996094 13.515625 22.089844 13.570312 22.226562 C 15 22.097656 16.445312 21.152344 16.644531 19.234375 C 16.480469 19.191406 16.371094 19.050781 16.371094 18.875 C 16.371094 18.703125 16.488281 18.558594 16.648438 18.515625 C 16.460938 16.597656 15.027344 15.640625 13.589844 15.503906 C 13.535156 15.640625 13.398438 15.730469 13.246094 15.730469 C 13.09375 15.730469 12.960938 15.636719 12.90625 15.5 C 11.476562 15.628906 10.03125 16.574219 9.832031 18.488281 C 9.996094 18.535156 10.105469 18.683594 10.105469 18.851562 C 10.105469 19.023438 9.988281 19.167969 9.828125 19.210938 C 10.015625 21.125 11.457031 22.085938 12.886719 22.222656 C 12.941406 22.089844 13.074219 21.996094 13.230469 21.996094 Z M 12.664062 18.863281 C 12.664062 18.683594 12.75 18.519531 12.878906 18.414062 C 12.867188 18.378906 12.863281 18.335938 12.863281 18.289062 L 12.863281 16.742188 C 12.863281 16.539062 13.03125 16.371094 13.234375 16.371094 C 13.441406 16.371094 13.609375 16.539062 13.609375 16.742188 L 13.609375 18.289062 C 13.609375 18.335938 13.601562 18.378906 13.589844 18.414062 C 13.71875 18.519531 13.808594 18.683594 13.808594 18.863281 C 13.808594 18.867188 13.808594 18.875 13.808594 18.882812 C 13.851562 18.898438 13.886719 18.917969 13.917969 18.949219 L 15.230469 20.105469 C 15.386719 20.242188 15.398438 20.480469 15.261719 20.636719 C 15.1875 20.722656 15.082031 20.765625 14.984375 20.765625 C 14.894531 20.765625 14.808594 20.734375 14.734375 20.671875 L 13.421875 19.515625 C 13.390625 19.492188 13.367188 19.460938 13.347656 19.429688 C 13.308594 19.433594 13.273438 19.441406 13.234375 19.441406 C 12.917969 19.429688 12.664062 19.175781 12.664062 18.863281 Z M 12.664062 18.863281 " fill-opacity="1" fill-rule="nonzero"/><path fill="#c4942e" d="M 14.539062 4.460938 L 14.539062 6.804688 L 14.726562 6.699219 C 14.847656 6.632812 14.988281 6.632812 15.101562 6.699219 C 15.21875 6.769531 15.289062 6.890625 15.289062 7.023438 L 15.289062 4.839844 L 27.96875 4.839844 L 27.96875 4.085938 L 14.914062 4.085938 C 14.707031 4.085938 14.539062 4.253906 14.539062 4.460938 Z M 14.539062 4.460938 " fill-opacity="1" fill-rule="nonzero"/></svg>