<svg xmlns="http://www.w3.org/2000/svg" xmlns:xlink="http://www.w3.org/1999/xlink" width="45" zoomAndPan="magnify" viewBox="0 0 33.75 33.749998" height="45" preserveAspectRatio="xMidYMid meet" version="1.0"><defs><clipPath id="6f3cc1a6ff"><path d="M 2.160156 2.285156 L 16 2.285156 L 16 26 L 2.160156 26 Z M 2.160156 2.285156 " clip-rule="nonzero"/></clipPath><clipPath id="d437306213"><path d="M 9.636719 11 L 26.449219 11 L 26.449219 31.199219 L 9.636719 31.199219 Z M 9.636719 11 " clip-rule="nonzero"/></clipPath><clipPath id="b6a8e778e4"><path d="M 8.4375 2.335938 L 31.195312 2.335938 L 31.195312 16.503906 L 8.4375 16.503906 Z M 8.4375 2.335938 " clip-rule="nonzero"/></clipPath></defs><g clip-path="url(#6f3cc1a6ff)"><path fill="#c4942e" d="M 15.285156 25.296875 L 15.285156 15.804688 L 7.0625 11.058594 L 7.0625 15.117188 L 4.085938 13.398438 L 4.085938 7.234375 L 9.011719 4.390625 L 10.722656 5.492188 L 12.570312 4.425781 L 9.550781 2.484375 C 9.253906 2.292969 8.871094 2.285156 8.5625 2.460938 L 2.664062 5.867188 C 2.371094 6.035156 2.191406 6.347656 2.191406 6.6875 L 2.191406 13.945312 C 2.191406 14.292969 2.382812 14.601562 2.664062 14.765625 L 7.0625 17.304688 L 7.0625 20.550781 L 15.285156 25.296875 " fill-opacity="1" fill-rule="nonzero"/></g><g clip-path="url(#d437306213)"><path fill="#c4942e" d="M 18.203125 25.296875 L 21.800781 23.21875 L 21.800781 26.234375 L 16.742188 29.15625 L 11.683594 26.234375 L 11.683594 24.902344 L 9.789062 23.808594 C 9.789062 23.808594 9.789062 26.78125 9.789062 26.78125 C 9.789062 27.117188 9.976562 27.429688 10.261719 27.601562 L 16.269531 31.070312 C 16.417969 31.15625 16.578125 31.199219 16.742188 31.199219 C 16.90625 31.199219 17.070312 31.15625 17.21875 31.070312 C 17.21875 31.070312 23.222656 27.605469 23.222656 27.601562 C 23.507812 27.4375 23.695312 27.117188 23.695312 26.78125 L 23.695312 22.125 L 26.421875 20.550781 L 26.421875 11.058594 L 18.203125 15.804688 L 18.203125 25.296875 " fill-opacity="1" fill-rule="nonzero"/></g><g clip-path="url(#b6a8e778e4)"><path fill="#c4942e" d="M 30.820312 5.867188 C 30.820312 5.867188 24.925781 2.460938 24.921875 2.460938 C 24.804688 2.394531 24.667969 2.347656 24.535156 2.339844 C 24.472656 2.335938 24.410156 2.332031 24.347656 2.339844 C 24.285156 2.347656 24.222656 2.359375 24.160156 2.378906 C 24.078125 2.40625 24.007812 2.445312 23.933594 2.484375 L 19.46875 5.359375 L 16.742188 3.785156 L 8.523438 8.53125 L 16.742188 13.277344 L 24.960938 8.53125 L 21.3125 6.425781 L 24.476562 4.390625 L 29.398438 7.234375 L 29.398438 13.398438 L 27.953125 14.234375 L 27.953125 16.421875 C 27.953125 16.421875 30.820312 14.765625 30.820312 14.765625 C 31.105469 14.601562 31.292969 14.277344 31.292969 13.945312 L 31.292969 6.6875 C 31.292969 6.347656 31.113281 6.035156 30.820312 5.867188 " fill-opacity="1" fill-rule="nonzero"/></g></svg>