<svg xmlns="http://www.w3.org/2000/svg" xmlns:xlink="http://www.w3.org/1999/xlink" width="45" zoomAndPan="magnify" viewBox="0 0 33.75 33.749998" height="45" preserveAspectRatio="xMidYMid meet" version="1.0"><defs><clipPath id="509a2cca78"><path d="M 2 2 L 31.679688 2 L 31.679688 31.679688 L 2 31.679688 Z M 2 2 " clip-rule="nonzero"/></clipPath></defs><g clip-path="url(#509a2cca78)"><path fill="#c4942e" d="M 16.902344 2.210938 C 14.949219 2.210938 13.058594 2.585938 11.273438 3.328125 L 10.574219 2.628906 C 9.84375 1.898438 8.59375 2.160156 8.222656 3.128906 L 7.703125 4.480469 C 6.808594 3.707031 5.453125 3.738281 4.597656 4.597656 C 3.734375 5.457031 3.710938 6.8125 4.480469 7.703125 L 3.128906 8.222656 C 2.160156 8.59375 1.894531 9.839844 2.628906 10.574219 L 3.328125 11.273438 C 2.585938 13.058594 2.210938 14.949219 2.210938 16.902344 C 2.210938 25.023438 8.78125 31.597656 16.902344 31.597656 C 25.023438 31.597656 31.597656 25.023438 31.597656 16.902344 C 31.597656 8.78125 25.023438 2.210938 16.902344 2.210938 Z M 7.792969 12.433594 L 9.101562 11.929688 L 10.550781 13.246094 C 9.910156 14.355469 9.570312 15.613281 9.570312 16.902344 C 9.570312 20.945312 12.859375 24.234375 16.902344 24.234375 C 20.945312 24.234375 24.234375 20.945312 24.234375 16.902344 C 24.234375 12.859375 20.945312 9.570312 16.902344 9.570312 C 15.613281 9.570312 14.355469 9.910156 13.246094 10.550781 L 11.929688 9.101562 L 12.433594 7.792969 C 13.828125 7.105469 15.332031 6.753906 16.902344 6.753906 C 22.5 6.753906 27.050781 11.308594 27.050781 16.902344 C 27.050781 22.5 22.5 27.050781 16.902344 27.050781 C 11.308594 27.050781 6.753906 22.5 6.753906 16.902344 C 6.753906 15.332031 7.105469 13.828125 7.792969 12.433594 Z M 11.101562 9.472656 C 11.101562 9.476562 11.105469 9.480469 11.109375 9.484375 L 17.453125 16.464844 C 17.707031 16.742188 17.695312 17.164062 17.429688 17.429688 C 17.164062 17.695312 16.742188 17.707031 16.464844 17.453125 L 9.484375 11.105469 C 9.480469 11.105469 9.476562 11.101562 9.476562 11.101562 L 7.671875 9.460938 L 9.460938 7.671875 Z M 13.40625 15.84375 C 12.703125 18.140625 14.421875 20.554688 16.902344 20.554688 C 18.917969 20.554688 20.554688 18.917969 20.554688 16.902344 C 20.554688 14.421875 18.144531 12.703125 15.84375 13.40625 L 13.84375 11.207031 C 14.78125 10.699219 15.828125 10.433594 16.902344 10.433594 C 20.46875 10.433594 23.371094 13.335938 23.371094 16.902344 C 23.371094 20.46875 20.46875 23.371094 16.902344 23.371094 C 13.335938 23.371094 10.433594 20.46875 10.433594 16.902344 C 10.433594 15.828125 10.699219 14.78125 11.207031 13.84375 Z M 5.207031 5.207031 C 5.78125 4.632812 6.71875 4.65625 7.265625 5.257812 L 7.535156 5.550781 C 7.535156 5.550781 7.535156 5.554688 7.535156 5.554688 L 8.878906 7.03125 L 7.03125 8.878906 L 5.554688 7.535156 C 5.554688 7.535156 5.550781 7.535156 5.550781 7.53125 L 5.257812 7.265625 C 4.652344 6.71875 4.632812 5.78125 5.207031 5.207031 Z M 16.902344 30.730469 C 9.277344 30.730469 3.074219 24.527344 3.074219 16.902344 C 3.074219 15.183594 3.382812 13.515625 3.996094 11.933594 C 4.734375 12.589844 5.726562 12.890625 6.699219 12.757812 C 6.164062 14.070312 5.890625 15.460938 5.890625 16.902344 C 5.890625 22.976562 10.832031 27.917969 16.902344 27.917969 C 22.976562 27.917969 27.917969 22.976562 27.917969 16.902344 C 27.917969 10.832031 22.976562 5.890625 16.902344 5.890625 C 15.460938 5.890625 14.070312 6.164062 12.757812 6.699219 C 12.886719 5.730469 12.59375 4.738281 11.933594 3.996094 C 13.515625 3.382812 15.183594 3.074219 16.902344 3.074219 C 24.527344 3.074219 30.730469 9.277344 30.730469 16.902344 C 30.730469 24.527344 24.527344 30.730469 16.902344 30.730469 Z M 16.902344 30.730469 " fill-opacity="1" fill-rule="nonzero"/></g></svg>