<svg xmlns="http://www.w3.org/2000/svg" xmlns:xlink="http://www.w3.org/1999/xlink" width="45" zoomAndPan="magnify" viewBox="0 0 33.75 33.749998" height="45" preserveAspectRatio="xMidYMid meet" version="1.0"><defs><clipPath id="4823371b2e"><path d="M 1.875 14 L 30 14 L 30 29 L 1.875 29 Z M 1.875 14 " clip-rule="nonzero"/></clipPath><clipPath id="1a8a50e037"><path d="M 22 25 L 31.65625 25 L 31.65625 29.902344 L 22 29.902344 Z M 22 25 " clip-rule="nonzero"/></clipPath></defs><path fill="#c4942e" d="M 16.914062 22.261719 C 17.28125 22.261719 17.640625 22.226562 18 22.152344 C 18.359375 22.082031 18.707031 21.976562 19.046875 21.835938 C 19.382812 21.695312 19.707031 21.527344 20.007812 21.324219 C 20.3125 21.121094 20.59375 20.886719 20.851562 20.628906 C 21.113281 20.371094 21.34375 20.089844 21.546875 19.785156 C 21.75 19.480469 21.921875 19.160156 22.0625 18.824219 C 22.199219 18.484375 22.304688 18.136719 22.378906 17.777344 C 22.449219 17.417969 22.484375 17.058594 22.484375 16.691406 C 22.484375 16.324219 22.449219 15.964844 22.378906 15.605469 C 22.304688 15.246094 22.199219 14.898438 22.0625 14.558594 C 21.921875 14.222656 21.75 13.902344 21.546875 13.597656 C 21.34375 13.292969 21.113281 13.011719 20.851562 12.753906 C 20.59375 12.492188 20.3125 12.261719 20.007812 12.058594 C 19.707031 11.855469 19.382812 11.683594 19.046875 11.546875 C 18.707031 11.40625 18.359375 11.300781 18 11.226562 C 17.640625 11.15625 17.28125 11.121094 16.914062 11.121094 C 16.550781 11.121094 16.1875 11.15625 15.828125 11.226562 C 15.46875 11.300781 15.121094 11.40625 14.78125 11.546875 C 14.445312 11.683594 14.125 11.855469 13.820312 12.058594 C 13.515625 12.261719 13.234375 12.492188 12.976562 12.753906 C 12.71875 13.011719 12.488281 13.292969 12.28125 13.597656 C 12.078125 13.902344 11.910156 14.222656 11.769531 14.558594 C 11.628906 14.898438 11.523438 15.246094 11.453125 15.605469 C 11.378906 15.964844 11.34375 16.324219 11.34375 16.691406 C 11.34375 17.058594 11.378906 17.417969 11.453125 17.777344 C 11.523438 18.136719 11.628906 18.484375 11.769531 18.824219 C 11.910156 19.160156 12.078125 19.480469 12.28125 19.785156 C 12.488281 20.089844 12.71875 20.371094 12.976562 20.628906 C 13.234375 20.886719 13.515625 21.121094 13.820312 21.324219 C 14.125 21.527344 14.445312 21.695312 14.78125 21.835938 C 15.121094 21.976562 15.46875 22.082031 15.828125 22.152344 C 16.1875 22.226562 16.550781 22.261719 16.914062 22.261719 Z M 13.734375 16.296875 C 13.84375 16.1875 13.976562 16.128906 14.128906 16.128906 C 14.285156 16.128906 14.417969 16.1875 14.523438 16.296875 L 16.078125 17.855469 L 19.304688 14.625 C 19.414062 14.515625 19.546875 14.460938 19.699219 14.460938 C 19.855469 14.460938 19.984375 14.515625 20.09375 14.625 C 20.203125 14.734375 20.257812 14.867188 20.257812 15.019531 C 20.257812 15.175781 20.203125 15.304688 20.09375 15.414062 L 16.472656 19.035156 C 16.367188 19.144531 16.234375 19.199219 16.078125 19.199219 C 15.925781 19.199219 15.792969 19.144531 15.683594 19.035156 L 13.734375 17.085938 C 13.625 16.976562 13.570312 16.847656 13.570312 16.691406 C 13.570312 16.535156 13.625 16.40625 13.734375 16.296875 Z M 13.734375 16.296875 " fill-opacity="1" fill-rule="nonzero"/><g clip-path="url(#4823371b2e)"><path fill="#c4942e" d="M 28.613281 16.691406 L 29.726562 16.691406 L 28.511719 15.175781 L 27.953125 14.453125 C 27.902344 14.386719 27.835938 14.335938 27.761719 14.296875 C 27.683594 14.261719 27.605469 14.242188 27.519531 14.242188 C 27.4375 14.242188 27.355469 14.261719 27.277344 14.296875 C 27.203125 14.335938 27.136719 14.386719 27.085938 14.453125 L 26.292969 15.410156 L 25.269531 16.691406 L 26.382812 16.691406 C 26.382812 17.3125 26.324219 17.929688 26.203125 18.539062 C 26.082031 19.148438 25.902344 19.742188 25.664062 20.316406 C 25.425781 20.890625 25.132812 21.433594 24.789062 21.953125 C 24.441406 22.46875 24.050781 22.945312 23.609375 23.386719 C 23.171875 23.828125 22.691406 24.21875 22.175781 24.566406 C 21.660156 24.910156 21.113281 25.203125 20.539062 25.441406 C 19.964844 25.675781 19.371094 25.855469 18.761719 25.976562 C 18.152344 26.101562 17.535156 26.160156 16.914062 26.160156 L 2.433594 26.160156 C 2.277344 26.160156 2.148438 26.214844 2.039062 26.324219 C 1.929688 26.433594 1.875 26.5625 1.875 26.71875 L 1.875 27.832031 C 1.875 27.984375 1.929688 28.117188 2.039062 28.226562 C 2.148438 28.332031 2.277344 28.386719 2.433594 28.386719 L 16.914062 28.386719 C 17.683594 28.386719 18.441406 28.3125 19.195312 28.164062 C 19.949219 28.015625 20.679688 27.792969 21.390625 27.496094 C 22.101562 27.203125 22.773438 26.84375 23.414062 26.417969 C 24.050781 25.992188 24.644531 25.503906 25.1875 24.960938 C 25.730469 24.417969 26.214844 23.828125 26.640625 23.191406 C 27.066406 22.550781 27.425781 21.878906 27.722656 21.167969 C 28.015625 20.457031 28.238281 19.726562 28.386719 18.972656 C 28.535156 18.21875 28.613281 17.460938 28.613281 16.691406 Z M 28.613281 16.691406 " fill-opacity="1" fill-rule="nonzero"/></g><path fill="#c4942e" d="M 5.316406 18.210938 L 5.875 18.9375 C 5.925781 19 5.992188 19.054688 6.066406 19.089844 C 6.144531 19.125 6.222656 19.144531 6.308594 19.144531 C 6.394531 19.144531 6.472656 19.125 6.550781 19.089844 C 6.625 19.054688 6.691406 19 6.742188 18.9375 L 7.511719 17.976562 L 8.558594 16.691406 L 7.445312 16.691406 C 7.445312 16.15625 7.488281 15.625 7.578125 15.097656 C 7.667969 14.570312 7.800781 14.054688 7.976562 13.550781 C 8.152344 13.046875 8.371094 12.5625 8.628906 12.09375 C 8.890625 11.625 9.1875 11.183594 9.519531 10.765625 C 9.851562 10.351562 10.21875 9.964844 10.617188 9.609375 C 11.019531 9.253906 11.445312 8.933594 11.898438 8.652344 C 12.351562 8.367188 12.824219 8.125 13.320312 7.921875 C 13.8125 7.71875 14.320312 7.558594 14.84375 7.441406 C 15.363281 7.324219 15.890625 7.253906 16.425781 7.226562 C 16.960938 7.195312 17.492188 7.214844 18.023438 7.277344 C 18.554688 7.339844 19.074219 7.445312 19.585938 7.597656 C 20.101562 7.75 20.597656 7.941406 21.078125 8.175781 C 21.554688 8.410156 22.011719 8.683594 22.445312 8.996094 C 22.878906 9.308594 23.285156 9.65625 23.660156 10.035156 C 24.035156 10.417969 24.375 10.824219 24.679688 11.265625 C 24.988281 11.703125 25.253906 12.164062 25.480469 12.648438 C 25.519531 12.730469 25.578125 12.796875 25.648438 12.851562 C 25.722656 12.90625 25.804688 12.941406 25.894531 12.953125 C 25.984375 12.96875 26.074219 12.960938 26.160156 12.933594 C 26.246094 12.90625 26.320312 12.859375 26.382812 12.792969 L 27.21875 11.957031 C 27.410156 11.765625 27.445312 11.550781 27.324219 11.308594 C 27.027344 10.730469 26.683594 10.175781 26.292969 9.652344 C 25.902344 9.128906 25.472656 8.644531 25 8.191406 C 24.53125 7.742188 24.023438 7.332031 23.484375 6.964844 C 22.945312 6.597656 22.375 6.28125 21.785156 6.007812 C 21.191406 5.734375 20.578125 5.515625 19.949219 5.347656 C 19.316406 5.175781 18.675781 5.0625 18.027344 5 C 17.378906 4.9375 16.726562 4.929688 16.074219 4.976562 C 15.425781 5.023438 14.78125 5.125 14.148438 5.277344 C 13.515625 5.433594 12.898438 5.636719 12.296875 5.894531 C 11.699219 6.152344 11.125 6.460938 10.574219 6.8125 C 10.027344 7.167969 9.511719 7.5625 9.027344 8.003906 C 8.546875 8.445312 8.105469 8.921875 7.703125 9.433594 C 7.300781 9.949219 6.945312 10.492188 6.632812 11.066406 C 6.320312 11.640625 6.058594 12.234375 5.847656 12.855469 C 5.636719 13.472656 5.476562 14.101562 5.371094 14.746094 C 5.265625 15.390625 5.214844 16.039062 5.21875 16.691406 L 4.101562 16.691406 L 5.316406 18.207031 Z M 5.316406 18.210938 " fill-opacity="1" fill-rule="nonzero"/><g clip-path="url(#1a8a50e037)"><path fill="#c4942e" d="M 31.398438 26.839844 L 29.167969 25.046875 L 29.167969 26.160156 L 25.539062 26.160156 C 25.183594 26.484375 24.8125 26.785156 24.421875 27.0625 C 23.710938 27.585938 22.949219 28.027344 22.140625 28.386719 L 29.167969 28.386719 L 29.167969 29.503906 L 31.398438 27.707031 C 31.460938 27.65625 31.515625 27.589844 31.550781 27.515625 C 31.585938 27.4375 31.605469 27.359375 31.605469 27.273438 C 31.605469 27.191406 31.585938 27.109375 31.550781 27.035156 C 31.515625 26.957031 31.460938 26.894531 31.398438 26.839844 Z M 31.398438 26.839844 " fill-opacity="1" fill-rule="nonzero"/></g><path fill="#c4942e" d="M 8.035156 20 L 6.332031 21.703125 C 6.929688 22.960938 7.726562 24.074219 8.726562 25.046875 L 12.457031 25.046875 C 11.4375 24.503906 10.546875 23.796875 9.785156 22.929688 C 9.023438 22.058594 8.441406 21.082031 8.035156 20 Z M 8.035156 20 " fill-opacity="1" fill-rule="nonzero"/></svg>