<svg xmlns="http://www.w3.org/2000/svg" xmlns:xlink="http://www.w3.org/1999/xlink" width="45" zoomAndPan="magnify" viewBox="0 0 33.75 33.749998" height="45" preserveAspectRatio="xMidYMid meet" version="1.0"><defs><clipPath id="ca1cfed403"><path d="M 2.308594 6 L 9 6 L 9 13 L 2.308594 13 Z M 2.308594 6 " clip-rule="nonzero"/></clipPath><clipPath id="ab5877e713"><path d="M 2.308594 15 L 9 15 L 9 22 L 2.308594 22 Z M 2.308594 15 " clip-rule="nonzero"/></clipPath><clipPath id="628fccf843"><path d="M 8 24 L 26 24 L 26 30.152344 L 8 30.152344 Z M 8 24 " clip-rule="nonzero"/></clipPath><clipPath id="bc0832b16b"><path d="M 2.308594 24 L 9 24 L 9 30.152344 L 2.308594 30.152344 Z M 2.308594 24 " clip-rule="nonzero"/></clipPath><clipPath id="4bee3e260a"><path d="M 18 3.351562 L 32.085938 3.351562 L 32.085938 17 L 18 17 Z M 18 3.351562 " clip-rule="nonzero"/></clipPath></defs><path fill="#c4942e" d="M 8.851562 7.550781 L 8.851562 12.054688 C 8.851562 12.277344 8.800781 12.488281 8.707031 12.675781 L 19.578125 12.675781 C 19.421875 12.3125 19.296875 11.9375 19.207031 11.546875 L 18.457031 11.390625 C 18.148438 11.324219 17.929688 11.058594 17.929688 10.742188 L 17.929688 9.480469 C 17.929688 9.160156 18.148438 8.894531 18.457031 8.828125 L 19.207031 8.671875 C 19.347656 8.054688 19.574219 7.472656 19.886719 6.929688 L 8.707031 6.929688 C 8.800781 7.117188 8.851562 7.328125 8.851562 7.550781 Z M 16.757812 9.800781 C 16.757812 9.585938 16.933594 9.410156 17.148438 9.410156 C 17.367188 9.410156 17.539062 9.585938 17.539062 9.800781 L 17.539062 10.925781 C 17.539062 11.144531 17.367188 11.320312 17.148438 11.320312 C 16.933594 11.320312 16.757812 11.144531 16.757812 10.925781 Z M 10.578125 9.410156 L 14.941406 9.410156 C 15.15625 9.410156 15.332031 9.585938 15.332031 9.800781 C 15.332031 10.019531 15.15625 10.195312 14.941406 10.195312 L 10.578125 10.195312 C 10.359375 10.195312 10.183594 10.019531 10.183594 9.800781 C 10.183594 9.585938 10.359375 9.410156 10.578125 9.410156 Z M 10.578125 9.410156 " fill-opacity="1" fill-rule="evenodd"/><path fill="#c4942e" d="M 5.980469 9.800781 C 5.980469 9.367188 5.628906 9.015625 5.195312 9.015625 C 4.761719 9.015625 4.410156 9.367188 4.410156 9.800781 C 4.410156 10.238281 4.761719 10.589844 5.195312 10.589844 C 5.628906 10.589844 5.980469 10.238281 5.980469 9.800781 Z M 5.980469 9.800781 " fill-opacity="1" fill-rule="evenodd"/><g clip-path="url(#ca1cfed403)"><path fill="#c4942e" d="M 5.195312 8.230469 C 6.0625 8.230469 6.765625 8.9375 6.765625 9.800781 C 6.765625 10.667969 6.0625 11.371094 5.195312 11.371094 C 4.328125 11.371094 3.625 10.667969 3.625 9.800781 C 3.625 8.9375 4.328125 8.230469 5.195312 8.230469 Z M 8.070312 12.054688 L 8.070312 7.550781 C 8.070312 7.207031 7.789062 6.929688 7.449219 6.929688 L 2.941406 6.929688 C 2.597656 6.929688 2.320312 7.207031 2.320312 7.550781 L 2.320312 12.054688 C 2.320312 12.398438 2.597656 12.675781 2.941406 12.675781 L 7.449219 12.675781 C 7.792969 12.675781 8.070312 12.398438 8.070312 12.054688 Z M 8.070312 12.054688 " fill-opacity="1" fill-rule="evenodd"/></g><path fill="#c4942e" d="M 19.988281 13.460938 L 4.410156 13.460938 L 4.410156 14.878906 L 19.597656 14.878906 C 19.464844 14.664062 19.460938 14.390625 19.605469 14.167969 L 20.027344 13.523438 C 20.011719 13.503906 20 13.480469 19.988281 13.460938 Z M 19.988281 13.460938 " fill-opacity="1" fill-rule="evenodd"/><g clip-path="url(#ab5877e713)"><path fill="#c4942e" d="M 8.070312 20.792969 L 8.070312 16.285156 C 8.070312 15.941406 7.792969 15.664062 7.449219 15.664062 L 2.941406 15.664062 C 2.597656 15.664062 2.320312 15.941406 2.320312 16.285156 L 2.320312 20.792969 C 2.320312 21.132812 2.597656 21.414062 2.941406 21.414062 L 7.449219 21.414062 C 7.789062 21.414062 8.070312 21.132812 8.070312 20.792969 Z M 5.195312 16.96875 C 6.0625 16.96875 6.765625 17.671875 6.765625 18.539062 C 6.765625 19.402344 6.0625 20.109375 5.195312 20.109375 C 4.328125 20.109375 3.625 19.402344 3.625 18.539062 C 3.625 17.671875 4.328125 16.96875 5.195312 16.96875 Z M 5.195312 16.96875 " fill-opacity="1" fill-rule="evenodd"/></g><path fill="#c4942e" d="M 5.195312 19.324219 C 5.628906 19.324219 5.980469 18.972656 5.980469 18.539062 C 5.980469 18.105469 5.628906 17.75 5.195312 17.75 C 4.761719 17.75 4.410156 18.105469 4.410156 18.539062 C 4.410156 18.972656 4.761719 19.324219 5.195312 19.324219 Z M 5.195312 19.324219 " fill-opacity="1" fill-rule="evenodd"/><path fill="#c4942e" d="M 8.851562 16.285156 L 8.851562 20.792969 C 8.851562 21.015625 8.800781 21.226562 8.707031 21.414062 L 24.890625 21.414062 C 25.234375 21.414062 25.511719 21.132812 25.511719 20.792969 L 25.511719 17.65625 L 24.84375 17.65625 C 24.527344 17.65625 24.261719 17.4375 24.195312 17.128906 L 24.035156 16.378906 C 23.335938 16.21875 22.671875 15.945312 22.0625 15.558594 L 21.417969 15.980469 C 21.152344 16.152344 20.808594 16.117188 20.585938 15.890625 L 20.359375 15.664062 L 8.707031 15.664062 C 8.800781 15.851562 8.851562 16.0625 8.851562 16.285156 Z M 16.757812 18.539062 C 16.757812 18.320312 16.933594 18.144531 17.148438 18.144531 C 17.367188 18.144531 17.539062 18.320312 17.539062 18.539062 L 17.539062 19.664062 C 17.539062 19.878906 17.367188 20.054688 17.148438 20.054688 C 16.933594 20.054688 16.757812 19.878906 16.757812 19.664062 Z M 18.945312 18.539062 C 18.945312 18.320312 19.121094 18.144531 19.335938 18.144531 C 19.550781 18.144531 19.726562 18.320312 19.726562 18.539062 L 19.726562 19.664062 C 19.726562 19.878906 19.550781 20.054688 19.335938 20.054688 C 19.121094 20.054688 18.945312 19.878906 18.945312 19.664062 Z M 21.132812 18.539062 C 21.132812 18.320312 21.308594 18.144531 21.523438 18.144531 C 21.738281 18.144531 21.914062 18.320312 21.914062 18.539062 L 21.914062 19.664062 C 21.914062 19.878906 21.738281 20.054688 21.523438 20.054688 C 21.308594 20.054688 21.132812 19.878906 21.132812 19.664062 Z M 23.316406 18.539062 C 23.316406 18.320312 23.492188 18.144531 23.710938 18.144531 C 23.925781 18.144531 24.101562 18.320312 24.101562 18.539062 L 24.101562 19.664062 C 24.101562 19.878906 23.925781 20.054688 23.710938 20.054688 C 23.492188 20.054688 23.316406 19.878906 23.316406 19.664062 Z M 10.578125 18.144531 L 14.941406 18.144531 C 15.15625 18.144531 15.332031 18.320312 15.332031 18.539062 C 15.332031 18.753906 15.15625 18.929688 14.941406 18.929688 L 10.578125 18.929688 C 10.359375 18.929688 10.183594 18.753906 10.183594 18.539062 C 10.183594 18.320312 10.359375 18.144531 10.578125 18.144531 Z M 10.578125 18.144531 " fill-opacity="1" fill-rule="evenodd"/><path fill="#c4942e" d="M 4.410156 22.195312 L 23.425781 22.195312 L 23.425781 23.613281 L 4.410156 23.613281 Z M 4.410156 22.195312 " fill-opacity="1" fill-rule="nonzero"/><g clip-path="url(#628fccf843)"><path fill="#c4942e" d="M 24.890625 24.398438 L 8.707031 24.398438 C 8.800781 24.585938 8.851562 24.796875 8.851562 25.019531 L 8.851562 29.527344 C 8.851562 29.75 8.800781 29.960938 8.707031 30.148438 L 24.890625 30.148438 C 25.234375 30.148438 25.511719 29.867188 25.511719 29.527344 L 25.511719 25.019531 C 25.511719 24.675781 25.234375 24.398438 24.890625 24.398438 Z M 10.578125 26.882812 L 14.941406 26.882812 C 15.15625 26.882812 15.332031 27.058594 15.332031 27.273438 C 15.332031 27.488281 15.15625 27.664062 14.941406 27.664062 L 10.578125 27.664062 C 10.359375 27.664062 10.183594 27.488281 10.183594 27.273438 C 10.183594 27.058594 10.359375 26.882812 10.578125 26.882812 Z M 17.148438 28.789062 C 16.933594 28.789062 16.757812 28.613281 16.757812 28.398438 L 16.757812 27.273438 C 16.757812 27.058594 16.933594 26.882812 17.148438 26.882812 C 17.367188 26.882812 17.539062 27.058594 17.539062 27.273438 L 17.539062 28.398438 C 17.539062 28.613281 17.367188 28.789062 17.148438 28.789062 Z M 19.335938 28.789062 C 19.121094 28.789062 18.945312 28.613281 18.945312 28.398438 L 18.945312 27.273438 C 18.945312 27.058594 19.121094 26.882812 19.335938 26.882812 C 19.550781 26.882812 19.726562 27.058594 19.726562 27.273438 L 19.726562 28.398438 C 19.726562 28.613281 19.550781 28.789062 19.335938 28.789062 Z M 21.523438 28.789062 C 21.308594 28.789062 21.132812 28.613281 21.132812 28.398438 L 21.132812 27.273438 C 21.132812 27.058594 21.308594 26.882812 21.523438 26.882812 C 21.738281 26.882812 21.914062 27.058594 21.914062 27.273438 L 21.914062 28.398438 C 21.914062 28.613281 21.738281 28.789062 21.523438 28.789062 Z M 23.710938 28.789062 C 23.492188 28.789062 23.316406 28.613281 23.316406 28.398438 L 23.316406 27.273438 C 23.316406 27.058594 23.492188 26.882812 23.710938 26.882812 C 23.925781 26.882812 24.101562 27.058594 24.101562 27.273438 L 24.101562 28.398438 C 24.101562 28.613281 23.925781 28.789062 23.710938 28.789062 Z M 23.710938 28.789062 " fill-opacity="1" fill-rule="evenodd"/></g><path fill="#c4942e" d="M 5.195312 28.058594 C 5.628906 28.058594 5.980469 27.707031 5.980469 27.273438 C 5.980469 26.839844 5.628906 26.488281 5.195312 26.488281 C 4.761719 26.488281 4.410156 26.839844 4.410156 27.273438 C 4.410156 27.707031 4.761719 28.058594 5.195312 28.058594 Z M 5.195312 28.058594 " fill-opacity="1" fill-rule="evenodd"/><g clip-path="url(#bc0832b16b)"><path fill="#c4942e" d="M 5.195312 25.703125 C 6.0625 25.703125 6.765625 26.40625 6.765625 27.273438 C 6.765625 28.136719 6.0625 28.84375 5.195312 28.84375 C 4.328125 28.84375 3.625 28.136719 3.625 27.273438 C 3.625 26.40625 4.328125 25.703125 5.195312 25.703125 Z M 8.070312 25.019531 C 8.070312 24.675781 7.789062 24.398438 7.449219 24.398438 L 2.941406 24.398438 C 2.597656 24.398438 2.320312 24.675781 2.320312 25.019531 L 2.320312 29.527344 C 2.320312 29.867188 2.597656 30.148438 2.941406 30.148438 L 7.449219 30.148438 C 7.789062 30.148438 8.070312 29.867188 8.070312 29.527344 Z M 8.070312 25.019531 " fill-opacity="1" fill-rule="evenodd"/></g><path fill="#c4942e" d="M 26.480469 7.871094 L 25.226562 12.550781 C 25.179688 12.726562 25.023438 12.84375 24.847656 12.84375 C 24.816406 12.84375 24.78125 12.839844 24.746094 12.828125 C 24.539062 12.773438 24.414062 12.558594 24.46875 12.347656 L 25.722656 7.667969 C 25.78125 7.457031 25.996094 7.335938 26.203125 7.390625 C 26.414062 7.445312 26.539062 7.660156 26.480469 7.871094 Z M 22.960938 10.109375 L 24.007812 11.167969 C 24.160156 11.324219 24.160156 11.570312 24.003906 11.722656 C 23.929688 11.796875 23.828125 11.835938 23.730469 11.835938 C 23.628906 11.835938 23.527344 11.796875 23.449219 11.71875 L 22.132812 10.386719 C 21.980469 10.234375 21.980469 9.988281 22.132812 9.835938 L 23.449219 8.5 C 23.601562 8.347656 23.851562 8.34375 24.003906 8.496094 C 24.160156 8.648438 24.160156 8.898438 24.007812 9.050781 Z M 21.488281 10.109375 C 21.488281 12.308594 23.277344 14.09375 25.476562 14.09375 C 27.671875 14.09375 29.460938 12.308594 29.460938 10.109375 C 29.460938 7.910156 27.671875 6.125 25.476562 6.125 C 23.277344 6.125 21.488281 7.910156 21.488281 10.109375 Z M 26.949219 8.496094 C 27.101562 8.34375 27.347656 8.347656 27.5 8.5 L 28.820312 9.835938 C 28.96875 9.988281 28.96875 10.234375 28.820312 10.386719 L 27.5 11.71875 C 27.425781 11.796875 27.324219 11.835938 27.222656 11.835938 C 27.121094 11.835938 27.023438 11.796875 26.949219 11.722656 C 26.792969 11.570312 26.792969 11.324219 26.945312 11.167969 L 27.988281 10.109375 L 26.945312 9.050781 C 26.792969 8.898438 26.792969 8.648438 26.949219 8.496094 Z M 26.949219 8.496094 " fill-opacity="1" fill-rule="evenodd"/><g clip-path="url(#4bee3e260a)"><path fill="#c4942e" d="M 25.476562 5.339844 C 28.105469 5.339844 30.246094 7.480469 30.246094 10.109375 C 30.246094 12.738281 28.105469 14.878906 25.476562 14.878906 C 22.84375 14.878906 20.707031 12.738281 20.707031 10.109375 C 20.707031 7.480469 22.847656 5.339844 25.476562 5.339844 Z M 31.027344 9.074219 C 30.882812 8.296875 30.582031 7.570312 30.132812 6.917969 C 30.042969 6.785156 30.042969 6.613281 30.128906 6.480469 L 30.632812 5.707031 L 29.878906 4.953125 L 29.105469 5.457031 C 28.96875 5.542969 28.796875 5.542969 28.667969 5.449219 C 28.015625 5.003906 27.289062 4.703125 26.511719 4.558594 C 26.355469 4.527344 26.234375 4.410156 26.203125 4.253906 L 26.011719 3.347656 L 24.941406 3.347656 L 24.75 4.253906 C 24.71875 4.410156 24.59375 4.527344 24.4375 4.558594 C 23.664062 4.703125 22.9375 5.003906 22.285156 5.449219 C 22.152344 5.542969 21.980469 5.542969 21.847656 5.457031 L 21.070312 4.953125 L 20.316406 5.707031 L 20.824219 6.480469 C 20.910156 6.613281 20.90625 6.785156 20.816406 6.917969 C 20.367188 7.570312 20.066406 8.296875 19.925781 9.074219 C 19.894531 9.226562 19.773438 9.351562 19.621094 9.382812 L 18.714844 9.574219 L 18.714844 10.644531 L 19.621094 10.835938 C 19.773438 10.867188 19.894531 10.992188 19.925781 11.148438 C 20.066406 11.921875 20.367188 12.648438 20.816406 13.300781 C 20.90625 13.433594 20.910156 13.605469 20.824219 13.738281 L 20.316406 14.511719 L 21.070312 15.269531 L 21.847656 14.761719 C 21.980469 14.675781 22.152344 14.679688 22.285156 14.769531 C 22.9375 15.214844 23.660156 15.515625 24.4375 15.660156 C 24.59375 15.691406 24.71875 15.808594 24.75 15.964844 L 24.941406 16.871094 L 26.011719 16.871094 L 26.203125 15.964844 C 26.234375 15.808594 26.355469 15.691406 26.511719 15.660156 C 27.289062 15.519531 28.015625 15.21875 28.667969 14.769531 C 28.796875 14.679688 28.96875 14.675781 29.105469 14.761719 L 29.878906 15.269531 L 30.632812 14.511719 L 30.128906 13.738281 C 30.042969 13.605469 30.042969 13.433594 30.132812 13.300781 C 30.582031 12.648438 30.882812 11.921875 31.027344 11.148438 C 31.058594 10.992188 31.175781 10.867188 31.332031 10.835938 L 32.238281 10.644531 L 32.238281 9.574219 L 31.332031 9.382812 C 31.175781 9.351562 31.058594 9.226562 31.027344 9.074219 Z M 31.027344 9.074219 " fill-opacity="1" fill-rule="evenodd"/></g></svg>