<svg xmlns="http://www.w3.org/2000/svg" xmlns:xlink="http://www.w3.org/1999/xlink" width="45" zoomAndPan="magnify" viewBox="0 0 33.75 33.749998" height="45" preserveAspectRatio="xMidYMid meet" version="1.0"><defs><clipPath id="2165acd97f"><path d="M 1.527344 1.527344 L 32 1.527344 L 32 32 L 1.527344 32 Z M 1.527344 1.527344 " clip-rule="nonzero"/></clipPath></defs><g clip-path="url(#2165acd97f)"><path fill="#c4942e" d="M 6.539062 22.832031 C 6.421875 22.140625 6.074219 21.53125 5.578125 21.082031 L 7.726562 17.695312 L 10.984375 22.832031 Z M 10.984375 10.664062 L 6.539062 10.664062 C 6.421875 11.351562 6.074219 11.964844 5.578125 12.414062 L 7.726562 15.796875 Z M 22.46875 22.832031 L 26.910156 22.832031 C 27.027344 22.140625 27.378906 21.53125 27.871094 21.082031 L 25.722656 17.695312 Z M 16.21875 20.296875 L 13.175781 20.296875 L 13.175781 17.253906 L 20.269531 17.253906 L 20.269531 20.296875 Z M 18.246094 19.285156 C 19.257812 19.285156 18.246094 19.285156 19.257812 19.285156 L 19.257812 18.265625 L 18.246094 18.265625 Z M 16.21875 19.285156 C 17.230469 19.285156 16.21875 19.285156 17.230469 19.285156 L 17.230469 18.265625 L 16.21875 18.265625 Z M 15.203125 18.265625 L 14.1875 18.265625 L 14.1875 19.285156 C 15.203125 19.285156 14.1875 19.285156 15.203125 19.285156 Z M 12.828125 9.652344 L 16.222656 9.652344 L 16.222656 6.5625 C 15.804688 6.492188 15.410156 6.335938 15.070312 6.113281 Z M 30.414062 21.378906 C 30.25 21.339844 30.078125 21.3125 29.90625 21.3125 C 29.730469 21.3125 29.558594 21.335938 29.398438 21.378906 C 29.355469 21.386719 29.320312 21.398438 29.28125 21.410156 C 29.113281 21.464844 28.960938 21.535156 28.816406 21.628906 C 28.671875 21.722656 28.542969 21.832031 28.421875 21.960938 C 28.191406 22.203125 28.023438 22.503906 27.941406 22.835938 C 27.898438 22.996094 27.871094 23.167969 27.871094 23.34375 C 27.871094 23.519531 27.898438 23.691406 27.941406 23.851562 C 27.945312 23.859375 27.945312 23.875 27.949219 23.886719 C 28.042969 24.226562 28.21875 24.527344 28.457031 24.765625 C 28.824219 25.136719 29.339844 25.371094 29.90625 25.371094 C 31.023438 25.371094 31.933594 24.464844 31.933594 23.34375 C 31.933594 22.394531 31.285156 21.605469 30.414062 21.378906 Z M 18.535156 29.027344 C 18.457031 28.863281 18.347656 28.707031 18.226562 28.574219 C 18.109375 28.449219 17.984375 28.332031 17.839844 28.238281 C 17.519531 28.023438 17.136719 27.898438 16.726562 27.898438 C 16.3125 27.898438 15.929688 28.023438 15.609375 28.238281 C 15.464844 28.332031 15.335938 28.441406 15.222656 28.574219 C 15.101562 28.707031 14.992188 28.863281 14.914062 29.027344 C 14.875 29.101562 14.84375 29.175781 14.816406 29.253906 C 14.742188 29.464844 14.703125 29.6875 14.703125 29.925781 C 14.703125 30.085938 14.71875 30.238281 14.753906 30.386719 C 14.964844 31.28125 15.765625 31.949219 16.730469 31.949219 C 17.6875 31.949219 18.492188 31.28125 18.703125 30.386719 C 18.738281 30.238281 18.757812 30.085938 18.757812 29.925781 C 18.757812 29.6875 18.710938 29.464844 18.640625 29.253906 C 18.609375 29.175781 18.578125 29.101562 18.535156 29.027344 Z M 3.035156 12.117188 C 3.199219 12.15625 3.371094 12.183594 3.546875 12.183594 C 3.71875 12.183594 3.890625 12.160156 4.054688 12.117188 C 4.09375 12.105469 4.128906 12.097656 4.171875 12.085938 C 4.335938 12.03125 4.488281 11.957031 4.632812 11.863281 C 4.777344 11.773438 4.90625 11.660156 5.023438 11.535156 C 5.253906 11.292969 5.421875 10.992188 5.503906 10.660156 C 5.546875 10.496094 5.574219 10.328125 5.574219 10.152344 C 5.574219 9.976562 5.546875 9.804688 5.503906 9.644531 C 5.5 9.628906 5.5 9.621094 5.496094 9.605469 C 5.402344 9.269531 5.226562 8.96875 4.988281 8.730469 C 4.621094 8.355469 4.105469 8.121094 3.539062 8.121094 C 2.421875 8.121094 1.511719 9.03125 1.511719 10.152344 C 1.515625 11.097656 2.164062 11.890625 3.035156 12.117188 Z M 5.019531 21.953125 C 4.902344 21.828125 4.773438 21.722656 4.628906 21.625 C 4.484375 21.535156 4.332031 21.460938 4.164062 21.40625 C 4.128906 21.390625 4.089844 21.382812 4.050781 21.375 C 3.886719 21.335938 3.714844 21.308594 3.539062 21.308594 C 3.367188 21.308594 3.195312 21.328125 3.03125 21.375 C 2.160156 21.597656 1.511719 22.390625 1.511719 23.335938 C 1.511719 24.453125 2.421875 25.363281 3.539062 25.363281 C 4.105469 25.363281 4.621094 25.128906 4.988281 24.757812 C 5.226562 24.511719 5.402344 24.210938 5.496094 23.878906 C 5.5 23.871094 5.5 23.855469 5.503906 23.84375 C 5.546875 23.679688 5.574219 23.511719 5.574219 23.335938 C 5.574219 23.160156 5.546875 22.988281 5.503906 22.828125 C 5.421875 22.5 5.25 22.199219 5.019531 21.953125 Z M 21.824219 23.84375 L 19.136719 28.082031 C 19.289062 28.285156 19.421875 28.507812 19.523438 28.738281 L 27.054688 24.394531 C 26.988281 24.222656 26.9375 24.035156 26.90625 23.847656 L 21.824219 23.847656 Z M 26.324219 16.746094 L 28.726562 20.535156 C 28.9375 20.445312 29.164062 20.378906 29.398438 20.339844 L 29.398438 13.15625 C 29.164062 13.113281 28.9375 13.050781 28.726562 12.960938 Z M 26.910156 9.652344 C 26.941406 9.460938 26.992188 9.277344 27.058594 9.097656 L 19.527344 4.753906 C 19.425781 4.992188 19.292969 5.207031 19.140625 5.410156 L 21.828125 9.652344 Z M 6.539062 23.84375 C 6.507812 24.03125 6.460938 24.214844 6.390625 24.390625 L 13.921875 28.734375 C 14.023438 28.496094 14.15625 28.28125 14.308594 28.078125 L 11.621094 23.839844 L 6.539062 23.839844 Z M 4.050781 13.15625 L 4.050781 20.34375 C 4.28125 20.386719 4.507812 20.449219 4.71875 20.539062 L 7.125 16.746094 L 4.722656 12.960938 C 4.507812 13.050781 4.28125 13.113281 4.050781 13.15625 Z M 11.625 9.652344 L 14.316406 5.410156 C 14.160156 5.207031 14.027344 4.988281 13.929688 4.753906 L 6.394531 9.097656 C 6.464844 9.273438 6.511719 9.457031 6.542969 9.652344 Z M 25.125 16.746094 L 21.265625 10.664062 L 17.230469 10.664062 L 17.230469 12.183594 L 20.269531 12.183594 C 20.824219 12.183594 21.285156 12.636719 21.285156 13.199219 L 21.285156 16.238281 C 21.285156 16.421875 21.230469 16.59375 21.144531 16.746094 C 21.230469 16.894531 21.285156 17.066406 21.285156 17.253906 L 21.285156 20.296875 C 21.285156 20.851562 20.832031 21.3125 20.269531 21.3125 L 17.230469 21.3125 L 17.230469 22.832031 L 21.265625 22.832031 Z M 22.46875 10.664062 L 25.722656 15.796875 L 27.871094 12.414062 C 27.375 11.964844 27.027344 11.351562 26.910156 10.664062 Z M 20.625 23.84375 L 17.230469 23.84375 L 17.230469 26.933594 C 17.648438 27.003906 18.039062 27.15625 18.378906 27.382812 Z M 16.21875 13.199219 L 20.269531 13.199219 L 20.269531 16.238281 L 13.175781 16.238281 L 13.175781 13.199219 Z M 15.203125 14.210938 L 14.1875 14.210938 L 14.1875 15.226562 C 15.203125 15.226562 14.1875 15.226562 15.203125 15.226562 Z M 18.246094 15.226562 C 19.257812 15.226562 18.246094 15.226562 19.257812 15.226562 L 19.257812 14.210938 L 18.246094 14.210938 Z M 17.234375 14.210938 L 16.222656 14.210938 L 16.222656 15.226562 C 17.234375 15.226562 16.222656 15.226562 17.234375 15.226562 Z M 17.234375 6.5625 L 17.234375 9.652344 L 20.628906 9.652344 L 18.382812 6.117188 C 18.042969 6.335938 17.652344 6.492188 17.234375 6.5625 Z M 16.21875 26.933594 L 16.21875 23.84375 L 12.820312 23.84375 L 15.066406 27.378906 C 15.40625 27.15625 15.796875 27.003906 16.21875 26.933594 Z M 16.21875 21.3125 L 13.175781 21.3125 C 12.621094 21.3125 12.160156 20.855469 12.160156 20.296875 L 12.160156 17.253906 C 12.160156 17.070312 12.214844 16.898438 12.300781 16.746094 C 12.214844 16.597656 12.160156 16.421875 12.160156 16.238281 L 12.160156 13.199219 C 12.160156 12.640625 12.613281 12.183594 13.175781 12.183594 L 16.21875 12.183594 L 16.21875 10.664062 L 12.183594 10.664062 L 8.324219 16.746094 L 12.183594 22.832031 L 16.222656 22.832031 L 16.222656 21.3125 Z M 28.429688 11.539062 C 28.546875 11.667969 28.675781 11.773438 28.824219 11.867188 C 28.96875 11.957031 29.121094 12.035156 29.289062 12.089844 C 29.324219 12.101562 29.363281 12.113281 29.40625 12.121094 C 29.566406 12.160156 29.738281 12.1875 29.914062 12.1875 C 30.089844 12.1875 30.261719 12.164062 30.421875 12.121094 C 31.292969 11.894531 31.941406 11.105469 31.941406 10.160156 C 31.941406 9.039062 31.035156 8.132812 29.914062 8.132812 C 29.347656 8.132812 28.835938 8.367188 28.464844 8.738281 C 28.226562 8.980469 28.050781 9.28125 27.957031 9.617188 C 27.953125 9.625 27.953125 9.636719 27.949219 9.652344 C 27.90625 9.8125 27.882812 9.984375 27.882812 10.160156 C 27.882812 10.335938 27.90625 10.507812 27.949219 10.667969 C 28.03125 10.996094 28.199219 11.296875 28.429688 11.539062 Z M 14.914062 4.46875 C 14.992188 4.632812 15.101562 4.785156 15.222656 4.921875 C 15.339844 5.046875 15.464844 5.160156 15.609375 5.257812 C 15.929688 5.46875 16.3125 5.59375 16.726562 5.59375 C 17.136719 5.59375 17.519531 5.46875 17.839844 5.257812 C 17.984375 5.164062 18.113281 5.050781 18.226562 4.921875 C 18.347656 4.785156 18.457031 4.632812 18.535156 4.46875 C 18.574219 4.394531 18.605469 4.320312 18.632812 4.242188 C 18.707031 4.03125 18.75 3.804688 18.75 3.566406 C 18.75 3.410156 18.726562 3.257812 18.695312 3.109375 C 18.484375 2.214844 17.683594 1.542969 16.71875 1.542969 C 15.761719 1.542969 14.957031 2.214844 14.746094 3.109375 C 14.710938 3.257812 14.691406 3.410156 14.691406 3.566406 C 14.691406 3.804688 14.738281 4.03125 14.808594 4.242188 C 14.839844 4.320312 14.871094 4.394531 14.914062 4.46875 Z M 14.914062 4.46875 " fill-opacity="1" fill-rule="nonzero"/></g></svg>