<svg xmlns="http://www.w3.org/2000/svg" xmlns:xlink="http://www.w3.org/1999/xlink" width="45" zoomAndPan="magnify" viewBox="0 0 33.75 33.749998" height="45" preserveAspectRatio="xMidYMid meet" version="1.0"><defs><clipPath id="b1c30f531b"><path d="M 3 2.378906 L 30.867188 2.378906 L 30.867188 31 L 3 31 Z M 3 2.378906 " clip-rule="nonzero"/></clipPath></defs><g clip-path="url(#b1c30f531b)"><path fill="#c4942e" d="M 14.761719 5.332031 C 14.65625 5.222656 14.539062 5.117188 14.417969 5.019531 L 15.421875 4.015625 C 17.054688 2.386719 19.707031 2.386719 21.339844 4.015625 C 22.972656 5.652344 22.972656 8.300781 21.339844 9.9375 L 19.5 11.777344 C 19.203125 11.621094 18.890625 11.496094 18.5625 11.398438 L 20.679688 9.28125 C 21.296875 8.664062 21.632812 7.847656 21.632812 6.980469 C 21.632812 6.109375 21.296875 5.292969 20.679688 4.675781 C 19.410156 3.40625 17.347656 3.40625 16.078125 4.675781 L 15.074219 5.679688 C 14.976562 5.554688 14.867188 5.445312 14.761719 5.332031 Z M 14.300781 20.550781 C 14.425781 20.640625 14.5625 20.726562 14.703125 20.804688 C 14.847656 20.882812 14.992188 20.957031 15.144531 21.023438 C 15.46875 21.160156 15.808594 21.257812 16.160156 21.320312 C 16.355469 21.351562 16.550781 21.375 16.753906 21.386719 C 16.824219 21.390625 16.894531 21.398438 16.96875 21.398438 C 17.121094 21.398438 17.273438 21.390625 17.421875 21.375 C 18.152344 21.304688 18.832031 21.054688 19.421875 20.6875 C 19.613281 20.570312 19.792969 20.441406 19.96875 20.296875 C 20.109375 20.175781 20.234375 20.054688 20.359375 19.917969 C 20.46875 19.796875 20.578125 19.671875 20.679688 19.535156 C 20.683594 19.53125 20.683594 19.527344 20.6875 19.527344 C 20.875 19.277344 21.035156 19.011719 21.171875 18.730469 C 21.238281 18.589844 21.296875 18.445312 21.347656 18.300781 C 21.402344 18.15625 21.445312 18.007812 21.480469 17.855469 C 21.566406 17.5 21.617188 17.132812 21.617188 16.753906 C 21.617188 16.441406 21.585938 16.132812 21.527344 15.835938 L 19.878906 17.480469 L 16.964844 20.394531 L 16.371094 19.800781 L 16.039062 19.472656 L 15.710938 19.140625 L 13.328125 16.746094 L 14.050781 16.019531 L 15.433594 14.636719 L 16.96875 16.171875 L 19.953125 13.183594 C 19.855469 13.09375 19.75 13.015625 19.640625 12.941406 C 19.511719 12.851562 19.378906 12.765625 19.238281 12.6875 C 19.097656 12.609375 18.949219 12.535156 18.800781 12.46875 C 18.476562 12.328125 18.140625 12.230469 17.785156 12.167969 C 17.589844 12.132812 17.394531 12.113281 17.191406 12.101562 C 17.117188 12.097656 17.042969 12.089844 16.964844 12.089844 C 16.816406 12.089844 16.667969 12.097656 16.523438 12.109375 C 15.800781 12.179688 15.128906 12.414062 14.542969 12.777344 C 14.339844 12.902344 14.148438 13.039062 13.96875 13.191406 C 13.828125 13.304688 13.703125 13.433594 13.578125 13.566406 C 13.464844 13.683594 13.359375 13.8125 13.257812 13.945312 C 13.253906 13.949219 13.253906 13.949219 13.246094 13.953125 C 13.0625 14.199219 12.898438 14.46875 12.765625 14.753906 C 12.699219 14.894531 12.640625 15.035156 12.589844 15.183594 C 12.535156 15.328125 12.492188 15.476562 12.457031 15.628906 C 12.371094 15.984375 12.316406 16.355469 12.316406 16.738281 C 12.316406 18.316406 13.105469 19.707031 14.300781 20.550781 Z M 18.871094 27.816406 L 17.867188 28.820312 C 17.253906 29.433594 16.4375 29.773438 15.566406 29.773438 C 14.695312 29.773438 13.878906 29.433594 13.265625 28.820312 C 12.648438 28.203125 12.3125 27.386719 12.3125 26.515625 C 12.3125 25.648438 12.648438 24.832031 13.265625 24.214844 L 15.378906 22.101562 C 15.054688 22.003906 14.742188 21.878906 14.441406 21.722656 L 12.605469 23.558594 C 10.976562 25.195312 10.976562 27.84375 12.605469 29.480469 C 14.238281 31.113281 16.890625 31.113281 18.523438 29.480469 L 19.527344 28.476562 C 19.40625 28.378906 19.289062 28.269531 19.183594 28.164062 C 19.078125 28.046875 18.972656 27.9375 18.871094 27.816406 Z M 10.5 14.195312 L 9.5 15.199219 C 8.882812 15.8125 8.066406 16.152344 7.195312 16.152344 C 6.328125 16.152344 5.511719 15.8125 4.894531 15.199219 C 3.625 13.929688 3.625 11.867188 4.894531 10.597656 L 8.84375 6.648438 C 9.734375 5.757812 11.058594 5.472656 12.234375 5.890625 L 12.25 5.875 L 12.542969 6.011719 C 12.886719 6.179688 13.191406 6.394531 13.441406 6.648438 C 13.699219 6.90625 13.90625 7.207031 14.074219 7.546875 L 14.21875 7.84375 L 14.199219 7.859375 C 14.617188 9.035156 14.328125 10.359375 13.441406 11.25 L 12.492188 12.199219 C 12.496094 12.207031 12.503906 12.222656 12.507812 12.230469 C 12.539062 12.269531 12.566406 12.3125 12.601562 12.351562 C 12.613281 12.371094 12.625 12.386719 12.636719 12.402344 C 12.683594 12.460938 12.734375 12.515625 12.78125 12.5625 C 12.832031 12.613281 12.886719 12.664062 12.941406 12.707031 C 12.960938 12.71875 12.980469 12.738281 12.996094 12.75 C 13.007812 12.761719 13.023438 12.769531 13.039062 12.777344 C 13.316406 12.496094 13.632812 12.25 13.964844 12.035156 L 14.097656 11.902344 C 15.5 10.5 15.722656 8.285156 14.628906 6.636719 C 14.472656 6.402344 14.296875 6.183594 14.097656 5.984375 C 13.898438 5.785156 13.679688 5.609375 13.445312 5.453125 C 12.746094 4.992188 11.945312 4.761719 11.144531 4.761719 C 10.058594 4.761719 8.984375 5.179688 8.179688 5.988281 L 4.230469 9.9375 C 2.597656 11.570312 2.597656 14.222656 4.230469 15.855469 C 5.863281 17.488281 8.515625 17.488281 10.148438 15.855469 L 11.152344 14.851562 C 11.03125 14.753906 10.917969 14.644531 10.808594 14.539062 C 10.707031 14.433594 10.601562 14.316406 10.5 14.195312 Z M 29.710938 17.636719 C 28.921875 16.847656 27.871094 16.410156 26.753906 16.410156 C 25.628906 16.410156 24.582031 16.84375 23.789062 17.636719 L 22.789062 18.640625 C 22.90625 18.738281 23.023438 18.84375 23.132812 18.953125 C 23.136719 18.957031 23.136719 18.960938 23.140625 18.960938 C 23.246094 19.066406 23.347656 19.179688 23.445312 19.296875 L 24.445312 18.292969 C 25.71875 17.023438 27.785156 17.023438 29.050781 18.292969 C 30.320312 19.5625 30.320312 21.625 29.050781 22.894531 L 25.101562 26.84375 C 24.210938 27.734375 22.886719 28.019531 21.710938 27.601562 C 21.609375 27.566406 21.503906 27.523438 21.402344 27.480469 C 21.058594 27.3125 20.753906 27.097656 20.503906 26.84375 C 20.246094 26.585938 20.035156 26.285156 19.871094 25.945312 C 19.824219 25.839844 19.78125 25.738281 19.746094 25.628906 C 19.328125 24.457031 19.613281 23.132812 20.503906 22.238281 L 21.453125 21.292969 C 21.449219 21.28125 21.441406 21.273438 21.4375 21.265625 C 21.40625 21.222656 21.375 21.179688 21.34375 21.140625 C 21.332031 21.121094 21.320312 21.101562 21.304688 21.085938 C 21.257812 21.03125 21.207031 20.976562 21.160156 20.925781 C 21.109375 20.875 21.054688 20.824219 21 20.78125 C 20.980469 20.761719 20.960938 20.75 20.945312 20.738281 C 20.929688 20.726562 20.910156 20.714844 20.894531 20.703125 C 20.625 20.972656 20.320312 21.214844 19.996094 21.421875 L 19.839844 21.582031 C 18.4375 22.984375 18.214844 25.199219 19.308594 26.847656 C 19.464844 27.082031 19.640625 27.300781 19.839844 27.5 C 20.035156 27.695312 20.257812 27.875 20.492188 28.03125 C 22.140625 29.121094 24.355469 28.898438 25.757812 27.5 L 29.707031 23.550781 C 30.492188 22.765625 30.929688 21.710938 30.929688 20.589844 C 30.929688 19.476562 30.496094 18.425781 29.710938 17.636719 Z M 20.867188 25.820312 C 20.875 25.828125 20.878906 25.839844 20.886719 25.847656 C 20.914062 25.890625 20.945312 25.933594 20.972656 25.96875 C 20.984375 25.984375 21.003906 26.007812 21.015625 26.023438 C 21.058594 26.074219 21.109375 26.132812 21.160156 26.183594 C 21.207031 26.234375 21.261719 26.28125 21.320312 26.328125 C 21.335938 26.339844 21.355469 26.351562 21.375 26.367188 C 21.414062 26.402344 21.457031 26.429688 21.496094 26.460938 C 21.503906 26.464844 21.515625 26.472656 21.527344 26.476562 L 22.476562 25.527344 C 23.878906 24.125 24.101562 21.910156 23.007812 20.261719 C 22.9375 20.15625 22.863281 20.058594 22.785156 19.960938 C 22.683594 19.835938 22.582031 19.71875 22.476562 19.609375 C 22.398438 19.53125 22.308594 19.457031 22.222656 19.382812 C 22.144531 19.316406 22.0625 19.253906 21.980469 19.191406 C 21.84375 19.472656 21.679688 19.742188 21.496094 19.992188 C 21.609375 20.078125 21.714844 20.164062 21.816406 20.265625 C 22.070312 20.515625 22.28125 20.820312 22.445312 21.164062 L 22.589844 21.460938 L 22.574219 21.476562 C 22.992188 22.652344 22.707031 23.976562 21.816406 24.867188 Z M 15.433594 15.957031 L 14.640625 16.746094 L 16.40625 18.511719 L 16.738281 18.839844 L 16.964844 19.066406 L 17.773438 18.257812 L 18.464844 17.570312 L 21.199219 14.835938 C 21.199219 14.832031 21.195312 14.828125 21.195312 14.824219 C 21.132812 14.683594 21.058594 14.546875 20.984375 14.414062 C 20.949219 14.355469 20.910156 14.292969 20.875 14.230469 C 20.851562 14.1875 20.820312 14.148438 20.796875 14.105469 C 20.734375 14.019531 20.671875 13.933594 20.605469 13.851562 L 16.96875 17.488281 Z M 13.078125 7.671875 C 13.074219 7.660156 13.066406 7.652344 13.058594 7.644531 C 13.03125 7.601562 13 7.558594 12.972656 7.523438 C 12.960938 7.507812 12.941406 7.484375 12.929688 7.46875 C 12.886719 7.410156 12.835938 7.359375 12.785156 7.308594 C 12.738281 7.257812 12.683594 7.214844 12.628906 7.167969 C 12.609375 7.152344 12.589844 7.140625 12.570312 7.121094 C 12.535156 7.09375 12.492188 7.066406 12.453125 7.035156 C 12.445312 7.03125 12.433594 7.023438 12.425781 7.015625 L 11.476562 7.964844 C 10.074219 9.367188 9.851562 11.582031 10.945312 13.230469 C 11.101562 13.464844 11.28125 13.683594 11.476562 13.882812 C 11.628906 14.03125 11.792969 14.164062 11.960938 14.292969 C 12.101562 14.011719 12.261719 13.742188 12.445312 13.492188 C 12.335938 13.410156 12.230469 13.324219 12.132812 13.222656 C 11.878906 12.96875 11.667969 12.667969 11.503906 12.324219 C 11.453125 12.222656 11.414062 12.117188 11.375 12.011719 C 10.957031 10.835938 11.242188 9.511719 12.132812 8.621094 Z M 28.59375 13.132812 L 30.917969 12.0625 L 30.917969 9.101562 L 28.59375 10.171875 Z M 28.015625 7.445312 L 25.984375 8.375 L 27 8.84375 L 27.664062 9.148438 L 28.128906 9.363281 L 28.597656 9.148438 L 29.261719 8.84375 L 30.273438 8.375 L 29.261719 7.910156 L 28.246094 7.445312 Z M 25.335938 12.0625 L 27.664062 13.132812 L 27.664062 10.171875 L 25.335938 9.101562 Z M 6.273438 26.148438 L 8.597656 25.082031 L 8.597656 22.121094 L 6.273438 23.1875 Z M 5.808594 20.414062 L 4.679688 20.933594 L 3.667969 21.398438 L 4.679688 21.863281 L 5.34375 22.171875 L 5.8125 22.382812 L 6.277344 22.171875 L 6.941406 21.863281 L 7.957031 21.398438 L 6.941406 20.933594 Z M 3.015625 25.082031 L 5.339844 26.148438 L 5.339844 23.1875 L 3.015625 22.121094 Z M 27.664062 6.582031 L 27.9375 6.457031 C 28.058594 6.402344 28.199219 6.402344 28.324219 6.457031 L 28.597656 6.582031 L 28.597656 3.722656 L 23.945312 3.722656 L 23.945312 4.65625 L 27.664062 4.65625 Z M 6.273438 27.171875 L 6 27.296875 C 5.984375 27.304688 5.972656 27.304688 5.957031 27.3125 C 5.941406 27.316406 5.933594 27.320312 5.921875 27.324219 C 5.886719 27.335938 5.84375 27.34375 5.808594 27.34375 C 5.765625 27.34375 5.730469 27.335938 5.691406 27.324219 C 5.679688 27.320312 5.671875 27.316406 5.660156 27.3125 C 5.640625 27.308594 5.628906 27.304688 5.613281 27.296875 L 5.339844 27.171875 L 5.339844 30.230469 L 9.988281 30.230469 L 9.988281 29.300781 L 6.269531 29.300781 L 6.269531 27.171875 Z M 6.273438 27.171875 " fill-opacity="1" fill-rule="nonzero"/></g></svg>