<svg xmlns="http://www.w3.org/2000/svg" xmlns:xlink="http://www.w3.org/1999/xlink" width="45" zoomAndPan="magnify" viewBox="0 0 33.75 33.749998" height="45" preserveAspectRatio="xMidYMid meet" version="1.0"><defs><clipPath id="11dfef1339"><path d="M 7 2.644531 L 15 2.644531 L 15 8 L 7 8 Z M 7 2.644531 " clip-rule="nonzero"/></clipPath><clipPath id="8d050f6aba"><path d="M 2.644531 9 L 14 9 L 14 21 L 2.644531 21 Z M 2.644531 9 " clip-rule="nonzero"/></clipPath><clipPath id="011a86b161"><path d="M 19 2.644531 L 28 2.644531 L 28 8 L 19 8 Z M 19 2.644531 " clip-rule="nonzero"/></clipPath><clipPath id="75ab8c469a"><path d="M 13 2.644531 L 22 2.644531 L 22 8 L 13 8 Z M 13 2.644531 " clip-rule="nonzero"/></clipPath><clipPath id="6bd492e949"><path d="M 13 11 L 30.933594 11 L 30.933594 19 L 13 19 Z M 13 11 " clip-rule="nonzero"/></clipPath><clipPath id="b0414ccc7d"><path d="M 6 23 L 10 23 L 10 30.933594 L 6 30.933594 Z M 6 23 " clip-rule="nonzero"/></clipPath></defs><g clip-path="url(#11dfef1339)"><path fill="#c4942e" d="M 14.777344 2.894531 C 11.816406 3.488281 9.136719 5.132812 7.269531 7.507812 L 12.417969 7.507812 C 13.011719 5.476562 13.824219 3.894531 14.777344 2.894531 " fill-opacity="1" fill-rule="nonzero"/></g><path fill="#c4942e" d="M 6.535156 20.949219 C 6.292969 20.890625 6.058594 20.820312 5.828125 20.734375 C 6.039062 21.175781 6.273438 21.601562 6.535156 22.019531 L 6.535156 20.949219 " fill-opacity="1" fill-rule="nonzero"/><g clip-path="url(#8d050f6aba)"><path fill="#c4942e" d="M 4.101562 14.800781 C 4.101562 12.652344 5.84375 10.910156 7.992188 10.910156 C 10.140625 10.910156 11.882812 12.652344 11.882812 14.800781 C 11.882812 16.949219 10.140625 18.691406 7.992188 18.691406 C 5.84375 18.691406 4.101562 16.949219 4.101562 14.800781 Z M 13.34375 14.800781 C 13.34375 11.851562 10.945312 9.453125 7.992188 9.453125 C 5.042969 9.453125 2.644531 11.851562 2.644531 14.800781 C 2.644531 17.753906 5.042969 20.152344 7.992188 20.152344 C 10.945312 20.152344 13.34375 17.753906 13.34375 14.800781 " fill-opacity="1" fill-rule="nonzero"/></g><path fill="#c4942e" d="M 12.160156 8.480469 L 7.992188 8.480469 C 9.457031 8.480469 10.804688 8.984375 11.875 9.824219 C 11.960938 9.355469 12.058594 8.910156 12.160156 8.480469 " fill-opacity="1" fill-rule="nonzero"/><path fill="#c4942e" d="M 7.507812 21.101562 L 7.507812 22.097656 L 8.480469 22.097656 L 8.480469 21.101562 C 8.316406 21.113281 8.15625 21.125 7.992188 21.125 C 7.828125 21.125 7.667969 21.113281 7.507812 21.101562 " fill-opacity="1" fill-rule="nonzero"/><g clip-path="url(#011a86b161)"><path fill="#c4942e" d="M 27.191406 7.507812 C 25.335938 5.136719 22.675781 3.488281 19.695312 2.894531 C 20.644531 3.898438 21.457031 5.476562 22.046875 7.507812 L 27.191406 7.507812 " fill-opacity="1" fill-rule="nonzero"/></g><path fill="#c4942e" d="M 22.691406 10.425781 L 28.898438 10.425781 C 28.613281 9.742188 28.277344 9.089844 27.886719 8.480469 L 22.304688 8.480469 C 22.453125 9.09375 22.582031 9.746094 22.691406 10.425781 " fill-opacity="1" fill-rule="nonzero"/><path fill="#c4942e" d="M 12.757812 10.425781 L 21.707031 10.425781 C 21.59375 9.742188 21.460938 9.09375 21.304688 8.480469 L 13.164062 8.480469 C 13.007812 9.09375 12.875 9.742188 12.757812 10.425781 " fill-opacity="1" fill-rule="nonzero"/><g clip-path="url(#75ab8c469a)"><path fill="#c4942e" d="M 21.03125 7.507812 C 20.113281 4.53125 18.703125 2.644531 17.234375 2.644531 C 15.769531 2.644531 14.355469 4.535156 13.4375 7.507812 L 21.03125 7.507812 " fill-opacity="1" fill-rule="nonzero"/></g><path fill="#c4942e" d="M 22.308594 22.097656 L 27.878906 22.097656 C 28.453125 21.199219 28.917969 20.222656 29.257812 19.179688 L 22.828125 19.179688 C 22.703125 20.214844 22.527344 21.195312 22.308594 22.097656 " fill-opacity="1" fill-rule="nonzero"/><path fill="#c4942e" d="M 13.441406 23.070312 C 14.359375 26.03125 15.765625 27.933594 17.234375 27.933594 C 18.714844 27.933594 20.117188 26.039062 21.03125 23.070312 L 13.441406 23.070312 " fill-opacity="1" fill-rule="nonzero"/><path fill="#c4942e" d="M 19.699219 27.679688 C 22.6875 27.085938 25.34375 25.433594 27.195312 23.070312 L 22.050781 23.070312 C 21.460938 25.089844 20.648438 26.679688 19.699219 27.679688 " fill-opacity="1" fill-rule="nonzero"/><g clip-path="url(#6bd492e949)"><path fill="#c4942e" d="M 29.828125 17.234375 L 28.496094 17.234375 L 28.019531 14.390625 C 28.007812 14.304688 27.863281 14.304688 27.847656 14.390625 L 27.375 17.234375 L 26.039062 17.234375 L 25.503906 12.421875 L 26.472656 12.316406 L 26.765625 14.960938 L 26.886719 14.226562 C 26.972656 13.714844 27.414062 13.34375 27.933594 13.34375 C 28.453125 13.34375 28.894531 13.714844 28.980469 14.230469 L 29.101562 14.960938 L 29.398438 12.316406 L 30.363281 12.421875 Z M 24.476562 17.234375 L 23.144531 17.234375 L 22.667969 14.390625 C 22.65625 14.304688 22.511719 14.304688 22.5 14.390625 L 22.023438 17.234375 L 20.691406 17.234375 L 20.15625 12.421875 L 21.121094 12.316406 L 21.414062 14.960938 L 21.535156 14.226562 C 21.625 13.714844 22.0625 13.34375 22.582031 13.34375 C 23.105469 13.34375 23.542969 13.714844 23.628906 14.230469 L 23.753906 14.960938 L 24.046875 12.316406 L 25.011719 12.421875 Z M 19.128906 17.234375 L 17.792969 17.234375 L 17.320312 14.390625 C 17.304688 14.304688 17.160156 14.304688 17.148438 14.390625 L 16.671875 17.234375 L 15.339844 17.234375 L 14.804688 12.421875 L 15.769531 12.316406 L 16.066406 14.960938 L 16.1875 14.226562 C 16.273438 13.714844 16.714844 13.34375 17.234375 13.34375 C 17.753906 13.34375 18.191406 13.714844 18.28125 14.230469 L 18.402344 14.960938 L 18.695312 12.316406 L 19.660156 12.421875 Z M 29.394531 11.398438 L 13.3125 11.398438 C 13.941406 12.382812 14.316406 13.546875 14.316406 14.800781 C 14.316406 16.054688 13.941406 17.222656 13.3125 18.207031 L 29.394531 18.207031 C 30.199219 18.207031 30.851562 17.554688 30.851562 16.746094 L 30.851562 12.855469 C 30.851562 12.050781 30.199219 11.398438 29.394531 11.398438 " fill-opacity="1" fill-rule="nonzero"/></g><path fill="#c4942e" d="M 21.847656 19.179688 L 12.617188 19.179688 C 12.753906 20.21875 12.9375 21.195312 13.167969 22.097656 L 21.300781 22.097656 C 21.53125 21.195312 21.714844 20.21875 21.847656 19.179688 " fill-opacity="1" fill-rule="nonzero"/><g clip-path="url(#b0414ccc7d)"><path fill="#c4942e" d="M 8.964844 23.070312 L 7.019531 23.070312 C 6.753906 23.070312 6.535156 23.289062 6.535156 23.554688 L 6.535156 29.394531 C 6.535156 30.199219 7.1875 30.851562 7.992188 30.851562 C 8.796875 30.851562 9.453125 30.199219 9.453125 29.394531 L 9.453125 23.554688 C 9.453125 23.289062 9.234375 23.070312 8.964844 23.070312 " fill-opacity="1" fill-rule="nonzero"/></g><path fill="#c4942e" d="M 10.335938 23.070312 C 10.386719 23.222656 10.425781 23.386719 10.425781 23.554688 L 10.425781 25.9375 C 11.765625 26.796875 13.242188 27.386719 14.789062 27.6875 C 13.832031 26.683594 13.011719 25.097656 12.417969 23.070312 L 10.335938 23.070312 " fill-opacity="1" fill-rule="nonzero"/><path fill="#c4942e" d="M 11.734375 19.886719 C 11.0625 20.382812 10.289062 20.75 9.453125 20.949219 L 9.453125 22.097656 L 12.160156 22.097656 C 11.988281 21.402344 11.847656 20.664062 11.734375 19.886719 " fill-opacity="1" fill-rule="nonzero"/><path fill="#c4942e" d="M 8.480469 14.316406 L 7.507812 14.316406 L 7.507812 15.289062 L 8.480469 15.289062 L 8.480469 14.316406 " fill-opacity="1" fill-rule="nonzero"/><path fill="#c4942e" d="M 10.425781 14.316406 L 9.453125 14.316406 L 9.453125 15.289062 L 10.425781 15.289062 L 10.425781 14.316406 " fill-opacity="1" fill-rule="nonzero"/><path fill="#c4942e" d="M 5.5625 15.289062 L 6.535156 15.289062 L 6.535156 14.316406 L 5.5625 14.316406 L 5.5625 15.289062 " fill-opacity="1" fill-rule="nonzero"/></svg>