<svg xmlns="http://www.w3.org/2000/svg" xmlns:xlink="http://www.w3.org/1999/xlink" width="45" zoomAndPan="magnify" viewBox="0 0 33.75 33.749998" height="45" preserveAspectRatio="xMidYMid meet" version="1.0"><defs><clipPath id="e250e9401c"><path d="M 2.777344 2.6875 L 31 2.6875 L 31 30.976562 L 2.777344 30.976562 Z M 2.777344 2.6875 " clip-rule="nonzero"/></clipPath></defs><g clip-path="url(#e250e9401c)"><path fill="#c4942e" d="M 10.402344 5.316406 L 12.941406 6.121094 C 13.496094 6.296875 14.105469 6.101562 14.449219 5.632812 L 16.144531 3.335938 C 16.402344 2.988281 16.808594 2.78125 17.242188 2.78125 C 17.675781 2.78125 18.082031 2.988281 18.339844 3.335938 L 20.035156 5.632812 C 20.382812 6.101562 20.988281 6.296875 21.542969 6.121094 L 24.265625 5.261719 C 24.675781 5.128906 25.128906 5.203125 25.476562 5.457031 C 25.828125 5.710938 26.039062 6.117188 26.039062 6.550781 L 26.0625 9.40625 C 26.066406 9.988281 26.441406 10.503906 26.996094 10.6875 L 29.703125 11.589844 C 30.113281 11.726562 30.433594 12.050781 30.566406 12.460938 C 30.703125 12.875 30.632812 13.324219 30.378906 13.679688 L 28.71875 16 C 28.378906 16.472656 28.378906 17.113281 28.71875 17.585938 L 30.378906 19.90625 C 30.632812 20.257812 30.703125 20.710938 30.566406 21.121094 C 30.433594 21.535156 30.113281 21.859375 29.703125 21.996094 L 26.996094 22.898438 C 26.441406 23.082031 26.066406 23.597656 26.0625 24.179688 L 26.039062 27.035156 C 26.039062 27.46875 25.828125 27.875 25.476562 28.128906 C 25.128906 28.382812 24.675781 28.457031 24.265625 28.324219 L 21.542969 27.460938 C 20.988281 27.285156 20.382812 27.484375 20.035156 27.953125 L 18.339844 30.25 C 18.082031 30.597656 17.675781 30.804688 17.242188 30.804688 C 16.808594 30.804688 16.402344 30.597656 16.144531 30.25 L 14.449219 27.953125 C 14.105469 27.484375 13.496094 27.285156 12.941406 27.460938 L 10.222656 28.324219 C 9.808594 28.457031 9.359375 28.382812 9.007812 28.128906 C 8.65625 27.875 8.449219 27.46875 8.445312 27.035156 L 8.425781 24.179688 C 8.417969 23.597656 8.042969 23.082031 7.492188 22.898438 L 4.785156 21.996094 C 4.371094 21.859375 4.050781 21.535156 3.917969 21.121094 C 3.785156 20.710938 3.851562 20.257812 4.105469 19.90625 L 5.765625 17.585938 C 6.105469 17.113281 6.105469 16.472656 5.765625 16 L 4.628906 14.410156 C 4.628906 14.410156 9.242188 14.398438 9.316406 14.378906 C 9.082031 15.140625 8.957031 15.953125 8.957031 16.792969 C 8.957031 21.355469 12.679688 25.078125 17.242188 25.078125 C 21.804688 25.078125 25.53125 21.355469 25.53125 16.792969 C 25.53125 12.230469 21.804688 8.503906 17.242188 8.503906 C 15.648438 8.503906 14.160156 8.960938 12.894531 9.742188 C 12.796875 9.070312 12.484375 8.441406 11.996094 7.953125 C 11.402344 7.359375 10.59375 7.023438 9.753906 7.023438 L 9.5 7.023438 C 9.972656 6.582031 10.296875 5.984375 10.402344 5.316406 Z M 12.925781 10.714844 C 14.144531 9.847656 15.636719 9.335938 17.242188 9.335938 C 21.351562 9.335938 24.699219 12.683594 24.699219 16.792969 C 24.699219 20.898438 21.351562 24.25 17.242188 24.25 C 13.136719 24.25 9.785156 20.898438 9.785156 16.792969 C 9.785156 15.960938 9.921875 15.160156 10.175781 14.410156 L 12.097656 14.410156 C 12.554688 14.410156 12.925781 14.039062 12.925781 13.582031 Z M 14.3125 20.976562 C 14.433594 20.976562 14.539062 20.933594 14.625 20.847656 C 14.710938 20.761719 14.753906 20.65625 14.753906 20.535156 L 14.738281 16 C 14.734375 15.757812 14.539062 15.558594 14.296875 15.558594 L 13.179688 15.5625 C 13.058594 15.5625 12.957031 15.605469 12.871094 15.691406 C 12.785156 15.777344 12.742188 15.882812 12.742188 16.003906 C 12.746094 17.515625 12.753906 19.03125 12.757812 20.542969 C 12.757812 20.785156 12.957031 20.980469 13.199219 20.980469 Z M 15.5 15.601562 C 15.542969 15.726562 15.582031 20.484375 15.582031 20.484375 C 15.691406 20.503906 15.78125 20.578125 15.828125 20.683594 C 15.910156 20.886719 16.113281 21.03125 16.347656 21.03125 L 20.402344 21.023438 C 20.792969 21.015625 21.128906 20.6875 21.132812 20.289062 C 21.132812 19.890625 20.78125 19.664062 20.59375 19.558594 C 21.207031 19.5625 21.546875 19.234375 21.546875 18.835938 C 21.550781 18.4375 21.21875 18.1875 21.019531 18.105469 C 21.640625 18.109375 21.980469 17.78125 21.980469 17.382812 C 21.984375 16.984375 21.753906 16.734375 21.382812 16.652344 C 21.9375 16.699219 22.277344 16.332031 22.277344 15.929688 C 22.28125 15.53125 22.105469 15.25 21.601562 15.207031 L 19.210938 15.210938 C 18.550781 15.203125 18.488281 15.21875 18.390625 15.132812 C 18.292969 15.042969 18.253906 14.917969 18.285156 14.792969 L 18.804688 12.585938 C 18.929688 12.066406 18.609375 11.539062 18.089844 11.414062 C 17.570312 11.285156 17.042969 11.609375 16.914062 12.128906 L 16.425781 14.148438 C 16.351562 14.445312 15.808594 15.042969 15.5 15.601562 Z M 4.980469 13.582031 L 2.792969 13.582031 L 2.792969 10.195312 C 2.792969 9.574219 3.039062 8.980469 3.480469 8.539062 C 3.917969 8.101562 4.515625 7.851562 5.136719 7.851562 L 6.128906 7.851562 L 7.445312 9.121094 L 8.757812 7.851562 L 9.753906 7.851562 C 10.375 7.851562 10.972656 8.101562 11.410156 8.539062 C 11.851562 8.980469 12.097656 9.574219 12.097656 10.195312 L 12.097656 13.582031 L 9.910156 13.582031 L 9.910156 11.097656 C 9.910156 10.871094 9.722656 10.683594 9.496094 10.683594 C 9.265625 10.683594 9.082031 10.871094 9.082031 11.097656 L 9.082031 13.582031 L 5.808594 13.582031 L 5.808594 11.097656 C 5.808594 10.871094 5.625 10.683594 5.394531 10.683594 C 5.167969 10.683594 4.980469 10.871094 4.980469 11.097656 Z M 7.445312 2.6875 C 8.640625 2.6875 9.609375 3.65625 9.609375 4.851562 C 9.609375 6.046875 8.640625 7.015625 7.445312 7.015625 C 6.25 7.015625 5.28125 6.046875 5.28125 4.851562 C 5.28125 3.65625 6.25 2.6875 7.445312 2.6875 Z M 7.445312 2.6875 " fill-opacity="1" fill-rule="evenodd"/></g></svg>