<svg xmlns="http://www.w3.org/2000/svg" xmlns:xlink="http://www.w3.org/1999/xlink" width="45" zoomAndPan="magnify" viewBox="0 0 33.75 33.749998" height="45" preserveAspectRatio="xMidYMid meet" version="1.0"><defs><clipPath id="f471d8c3f3"><path d="M 1.675781 3.957031 L 32 3.957031 L 32 25 L 1.675781 25 Z M 1.675781 3.957031 " clip-rule="nonzero"/></clipPath><clipPath id="24490282ec"><path d="M 10 26 L 23 26 L 23 29.269531 L 10 29.269531 Z M 10 26 " clip-rule="nonzero"/></clipPath></defs><g clip-path="url(#f471d8c3f3)"><path fill="#c4942e" d="M 3.800781 3.957031 L 29.699219 3.957031 C 30.863281 3.957031 31.816406 4.910156 31.816406 6.054688 L 31.816406 22.015625 C 31.816406 23.179688 30.863281 24.132812 29.699219 24.132812 L 3.800781 24.132812 C 2.636719 24.132812 1.683594 23.179688 1.683594 22.015625 L 1.683594 6.054688 C 1.683594 4.910156 2.636719 3.957031 3.800781 3.957031 Z M 29.699219 5.226562 L 3.800781 5.226562 C 3.324219 5.226562 2.953125 5.597656 2.953125 6.054688 L 2.953125 22.015625 C 2.953125 22.492188 3.324219 22.863281 3.800781 22.863281 L 29.699219 22.863281 C 30.160156 22.863281 30.546875 22.492188 30.546875 22.015625 L 30.546875 6.054688 C 30.546875 5.597656 30.160156 5.226562 29.699219 5.226562 Z M 29.699219 5.226562 " fill-opacity="1" fill-rule="evenodd"/></g><path fill="#c4942e" d="M 14.113281 23.53125 L 19.390625 23.53125 L 19.390625 26.90625 L 14.113281 26.90625 Z M 14.113281 23.53125 " fill-opacity="1" fill-rule="nonzero"/><g clip-path="url(#24490282ec)"><path fill="#c4942e" d="M 12.257812 26.304688 L 21.242188 26.304688 C 22.125 26.304688 22.851562 27.027344 22.851562 27.910156 L 22.851562 29.183594 C 22.851562 29.375 22.710938 29.535156 22.515625 29.535156 L 10.988281 29.535156 C 10.792969 29.535156 10.632812 29.375 10.632812 29.183594 C 10.632812 28.210938 10.492188 27.398438 11.109375 26.78125 C 11.410156 26.480469 11.816406 26.304688 12.257812 26.304688 Z M 12.257812 26.304688 " fill-opacity="1" fill-rule="nonzero"/></g><path fill="#c4942e" d="M 19.019531 8.421875 C 18.703125 8.105469 19.195312 7.609375 19.515625 7.945312 L 21.277344 9.710938 C 21.402344 9.832031 21.402344 10.0625 21.277344 10.1875 L 19.515625 11.953125 C 19.195312 12.269531 18.703125 11.792969 19.019531 11.457031 L 20.539062 9.941406 Z M 19.019531 8.421875 " fill-opacity="1" fill-rule="nonzero"/><path fill="#c4942e" d="M 13.988281 7.945312 C 14.304688 7.609375 14.800781 8.105469 14.464844 8.421875 L 12.964844 9.941406 L 14.464844 11.457031 C 14.800781 11.792969 14.304688 12.269531 13.988281 11.953125 L 12.222656 10.1875 C 12.082031 10.0625 12.082031 9.832031 12.222656 9.710938 Z M 13.988281 7.945312 " fill-opacity="1" fill-rule="nonzero"/><path fill="#c4942e" d="M 17.183594 8.492188 C 17.414062 8.105469 18.011719 8.4375 17.785156 8.828125 L 16.300781 11.40625 C 16.070312 11.792969 15.472656 11.457031 15.699219 11.050781 Z M 17.183594 8.492188 " fill-opacity="1" fill-rule="nonzero"/><path fill="#c4942e" d="M 5.992188 14.125 L 10.617188 14.125 C 11.179688 14.125 11.640625 14.582031 11.640625 15.148438 L 11.640625 17.832031 C 11.640625 18.394531 11.179688 18.855469 10.617188 18.855469 L 5.992188 18.855469 C 5.425781 18.855469 4.96875 18.394531 4.96875 17.832031 L 4.96875 15.148438 C 4.96875 14.582031 5.425781 14.125 5.992188 14.125 Z M 5.992188 14.125 " fill-opacity="1" fill-rule="nonzero"/><path fill="#c4942e" d="M 5.992188 20.25 C 5.53125 20.25 5.53125 19.5625 5.992188 19.5625 L 10.617188 19.5625 C 11.074219 19.5625 11.074219 20.25 10.617188 20.25 Z M 5.992188 20.25 " fill-opacity="1" fill-rule="nonzero"/><path fill="#c4942e" d="M 14.445312 14.125 L 19.054688 14.125 C 19.621094 14.125 20.097656 14.582031 20.097656 15.148438 L 20.097656 17.832031 C 20.097656 18.394531 19.621094 18.855469 19.054688 18.855469 L 14.445312 18.855469 C 13.863281 18.855469 13.40625 18.394531 13.40625 17.832031 L 13.40625 15.148438 C 13.40625 14.582031 13.863281 14.125 14.445312 14.125 Z M 14.445312 14.125 " fill-opacity="1" fill-rule="nonzero"/><path fill="#c4942e" d="M 14.429688 20.25 C 13.96875 20.25 13.96875 19.5625 14.429688 19.5625 L 19.074219 19.5625 C 19.515625 19.5625 19.515625 20.25 19.074219 20.25 Z M 14.429688 20.25 " fill-opacity="1" fill-rule="nonzero"/><path fill="#c4942e" d="M 22.886719 14.125 L 27.492188 14.125 C 28.058594 14.125 28.535156 14.582031 28.535156 15.148438 L 28.535156 17.832031 C 28.535156 18.394531 28.058594 18.855469 27.492188 18.855469 L 22.886719 18.855469 C 22.320312 18.855469 21.84375 18.394531 21.84375 17.832031 L 21.84375 15.148438 C 21.84375 14.582031 22.320312 14.125 22.886719 14.125 Z M 22.886719 14.125 " fill-opacity="1" fill-rule="nonzero"/><path fill="#c4942e" d="M 22.867188 20.25 C 22.410156 20.25 22.410156 19.5625 22.867188 19.5625 L 27.511719 19.5625 C 27.96875 19.5625 27.96875 20.25 27.511719 20.25 Z M 22.867188 20.25 " fill-opacity="1" fill-rule="nonzero"/></svg>