<svg xmlns="http://www.w3.org/2000/svg" xmlns:xlink="http://www.w3.org/1999/xlink" width="45" zoomAndPan="magnify" viewBox="0 0 33.75 33.749998" height="45" preserveAspectRatio="xMidYMid meet" version="1.0"><defs><clipPath id="3ce97ddc5e"><path d="M 1.273438 4.453125 L 32 4.453125 L 32 29 L 1.273438 29 Z M 1.273438 4.453125 " clip-rule="nonzero"/></clipPath><clipPath id="574e9e3b7c"><path d="M 1.273438 28 L 17 28 L 17 29.019531 L 1.273438 29.019531 Z M 1.273438 28 " clip-rule="nonzero"/></clipPath></defs><g clip-path="url(#3ce97ddc5e)"><path fill="#c4942e" d="M 30.714844 10.242188 C 29.441406 7.539062 27.296875 5.675781 24.675781 4.996094 C 22.652344 4.472656 20.519531 4.699219 18.507812 5.660156 L 14.964844 5.660156 C 14.832031 5.660156 14.722656 5.769531 14.722656 5.902344 C 14.722656 6.035156 14.832031 6.144531 14.964844 6.144531 L 17.617188 6.144531 C 16.445312 6.847656 15.371094 7.792969 14.464844 8.921875 L 1.515625 8.921875 C 1.382812 8.921875 1.273438 9.03125 1.273438 9.164062 C 1.273438 9.300781 1.382812 9.410156 1.515625 9.410156 L 14.085938 9.410156 C 13.464844 10.261719 12.9375 11.195312 12.519531 12.191406 L 11.207031 12.191406 C 11.074219 12.191406 10.964844 12.300781 10.964844 12.4375 C 10.964844 12.570312 11.074219 12.679688 11.207031 12.679688 L 12.328125 12.679688 C 12.144531 13.160156 11.980469 13.664062 11.847656 14.179688 C 11.738281 14.605469 11.648438 15.035156 11.578125 15.460938 L 1.515625 15.460938 C 1.382812 15.460938 1.273438 15.570312 1.273438 15.703125 C 1.273438 15.839844 1.382812 15.945312 1.515625 15.945312 L 11.507812 15.945312 C 11.234375 18.035156 11.429688 20.113281 12.078125 21.996094 L 1.515625 21.996094 C 1.382812 21.996094 1.273438 22.105469 1.273438 22.238281 C 1.273438 22.375 1.382812 22.484375 1.515625 22.484375 L 12.253906 22.484375 C 12.652344 23.507812 13.179688 24.441406 13.828125 25.265625 L 1.515625 25.265625 C 1.382812 25.265625 1.273438 25.375 1.273438 25.507812 C 1.273438 25.640625 1.382812 25.75 1.515625 25.75 L 14.242188 25.75 C 15.4375 27.078125 16.9375 28.007812 18.59375 28.4375 C 19.304688 28.621094 20.019531 28.710938 20.730469 28.710938 C 25.433594 28.710938 29.96875 24.863281 31.421875 19.25 C 32.230469 16.128906 31.980469 12.929688 30.714844 10.242188 Z M 19.199219 26.101562 C 17.394531 25.628906 15.898438 24.351562 14.949219 22.484375 L 15.511719 22.484375 C 15.648438 22.484375 15.757812 22.375 15.757812 22.238281 C 15.757812 22.105469 15.648438 21.996094 15.511719 21.996094 L 14.722656 21.996094 C 14.351562 21.140625 14.101562 20.207031 13.980469 19.214844 L 17.1875 19.214844 C 17.324219 19.214844 17.433594 19.105469 17.433594 18.972656 C 17.433594 18.835938 17.324219 18.730469 17.1875 18.730469 L 13.933594 18.730469 C 13.859375 17.816406 13.902344 16.882812 14.054688 15.945312 L 17.3125 15.945312 C 17.445312 15.945312 17.554688 15.835938 17.554688 15.703125 C 17.554688 15.570312 17.445312 15.460938 17.3125 15.460938 L 14.144531 15.460938 C 14.1875 15.238281 14.238281 15.019531 14.289062 14.8125 C 14.484375 14.066406 14.746094 13.347656 15.0625 12.679688 L 18.347656 12.679688 C 18.480469 12.679688 18.589844 12.570312 18.589844 12.4375 C 18.589844 12.300781 18.480469 12.191406 18.347656 12.191406 L 15.300781 12.191406 C 15.859375 11.125 16.558594 10.191406 17.382812 9.410156 L 20.527344 9.410156 C 20.664062 9.410156 20.769531 9.300781 20.769531 9.164062 C 20.769531 9.03125 20.664062 8.921875 20.527344 8.921875 L 17.933594 8.921875 C 19.355469 7.757812 20.960938 7.140625 22.550781 7.140625 C 23.058594 7.140625 23.570312 7.203125 24.066406 7.332031 C 26.019531 7.839844 27.605469 9.28125 28.535156 11.398438 C 29.472656 13.539062 29.632812 16.101562 28.980469 18.617188 C 27.636719 23.792969 23.25 27.148438 19.199219 26.101562 Z M 19.199219 26.101562 " fill-opacity="1" fill-rule="nonzero"/></g><path fill="#c4942e" d="M 10.667969 19.214844 C 10.800781 19.214844 10.910156 19.105469 10.910156 18.972656 C 10.910156 18.835938 10.800781 18.730469 10.667969 18.730469 L 5.824219 18.730469 C 5.6875 18.730469 5.582031 18.835938 5.582031 18.972656 C 5.582031 19.105469 5.6875 19.214844 5.824219 19.214844 Z M 10.667969 19.214844 " fill-opacity="1" fill-rule="nonzero"/><path fill="#c4942e" d="M 5.824219 6.144531 L 12.128906 6.144531 C 12.261719 6.144531 12.371094 6.035156 12.371094 5.902344 C 12.371094 5.769531 12.261719 5.660156 12.128906 5.660156 L 5.824219 5.660156 C 5.6875 5.660156 5.582031 5.769531 5.582031 5.902344 C 5.582031 6.035156 5.6875 6.144531 5.824219 6.144531 Z M 5.824219 6.144531 " fill-opacity="1" fill-rule="nonzero"/><g clip-path="url(#574e9e3b7c)"><path fill="#c4942e" d="M 16.589844 28.53125 L 1.515625 28.53125 C 1.382812 28.53125 1.273438 28.640625 1.273438 28.777344 C 1.273438 28.910156 1.382812 29.019531 1.515625 29.019531 L 16.589844 29.019531 C 16.726562 29.019531 16.835938 28.910156 16.835938 28.777344 C 16.835938 28.640625 16.726562 28.53125 16.589844 28.53125 Z M 16.589844 28.53125 " fill-opacity="1" fill-rule="nonzero"/></g><path fill="#c4942e" d="M 24.902344 16.296875 L 19.375 13.414062 C 19.269531 13.359375 19.132812 13.390625 19.066406 13.492188 C 18.996094 13.59375 19.011719 13.730469 19.101562 13.8125 L 22.28125 16.675781 L 19.929688 19.484375 C 19.851562 19.578125 19.855469 19.710938 19.9375 19.800781 C 19.984375 19.855469 20.050781 19.882812 20.117188 19.882812 C 20.164062 19.882812 20.210938 19.871094 20.253906 19.84375 L 24.925781 16.710938 C 24.996094 16.664062 25.035156 16.582031 25.03125 16.496094 C 25.027344 16.410156 24.976562 16.335938 24.902344 16.296875 Z M 24.902344 16.296875 " fill-opacity="1" fill-rule="nonzero"/></svg>