<svg xmlns="http://www.w3.org/2000/svg" xmlns:xlink="http://www.w3.org/1999/xlink" width="45" zoomAndPan="magnify" viewBox="0 0 33.75 33.749998" height="45" preserveAspectRatio="xMidYMid meet" version="1.0"><defs><clipPath id="6dcbc9b042"><path d="M 1.933594 5.15625 L 27 5.15625 L 27 22 L 1.933594 22 Z M 1.933594 5.15625 " clip-rule="nonzero"/></clipPath><clipPath id="3ff595d0d5"><path d="M 19 13 L 31.710938 13 L 31.710938 28.234375 L 19 28.234375 Z M 19 13 " clip-rule="nonzero"/></clipPath></defs><g clip-path="url(#6dcbc9b042)"><path fill="#c4942e" d="M 18.371094 19.773438 L 4.964844 19.773438 C 4.230469 19.773438 3.636719 19.179688 3.636719 18.445312 L 3.636719 8.179688 C 3.636719 7.457031 4.230469 6.855469 4.964844 6.855469 L 23.488281 6.855469 C 24.210938 6.855469 24.800781 7.457031 24.800781 8.179688 L 24.800781 12.320312 C 25.070312 12.167969 25.382812 12.089844 25.714844 12.089844 L 25.773438 12.089844 C 26.035156 12.097656 26.285156 12.148438 26.507812 12.246094 L 26.507812 8.179688 C 26.507812 6.515625 25.152344 5.160156 23.488281 5.160156 L 4.960938 5.160156 C 3.285156 5.160156 1.933594 6.515625 1.933594 8.179688 L 1.933594 18.449219 C 1.933594 20.113281 3.285156 21.476562 4.960938 21.476562 L 18.398438 21.476562 C 18.378906 21.265625 18.367188 21.066406 18.367188 20.855469 L 18.367188 19.773438 Z M 18.371094 19.773438 " fill-opacity="1" fill-rule="nonzero"/></g><path fill="#c4942e" d="M 5.644531 16.480469 L 5.644531 17.523438 C 5.644531 17.65625 5.753906 17.761719 5.886719 17.761719 L 12.964844 17.761719 C 13.09375 17.761719 13.203125 17.65625 13.203125 17.523438 L 13.203125 16.480469 C 13.203125 15.21875 12.179688 14.195312 10.921875 14.195312 L 7.929688 14.195312 C 6.664062 14.195312 5.644531 15.21875 5.644531 16.480469 Z M 5.644531 16.480469 " fill-opacity="1" fill-rule="nonzero"/><path fill="#c4942e" d="M 11.703125 11.15625 C 11.703125 9.898438 10.683594 8.875 9.421875 8.875 C 8.164062 8.875 7.140625 9.898438 7.140625 11.15625 C 7.140625 12.417969 8.164062 13.4375 9.421875 13.4375 C 10.683594 13.4375 11.703125 12.417969 11.703125 11.15625 Z M 11.703125 11.15625 " fill-opacity="1" fill-rule="nonzero"/><path fill="#c4942e" d="M 21.949219 8.925781 L 15.648438 8.925781 C 15.179688 8.925781 14.800781 9.308594 14.800781 9.773438 C 14.800781 10.242188 15.179688 10.625 15.648438 10.625 L 21.949219 10.625 C 22.417969 10.625 22.796875 10.246094 22.796875 9.773438 C 22.796875 9.308594 22.414062 8.925781 21.949219 8.925781 Z M 21.949219 8.925781 " fill-opacity="1" fill-rule="nonzero"/><path fill="#c4942e" d="M 21.945312 12.46875 L 15.644531 12.46875 C 15.179688 12.46875 14.796875 12.851562 14.796875 13.316406 C 14.796875 13.785156 15.179688 14.164062 15.644531 14.164062 L 21.945312 14.164062 C 22.414062 14.164062 22.796875 13.785156 22.796875 13.3125 C 22.796875 12.851562 22.414062 12.46875 21.945312 12.46875 Z M 21.945312 12.46875 " fill-opacity="1" fill-rule="nonzero"/><path fill="#c4942e" d="M 14.800781 16.851562 C 14.800781 17.324219 15.179688 17.703125 15.644531 17.703125 L 18.371094 17.703125 L 18.371094 17.011719 C 18.371094 16.652344 18.472656 16.300781 18.652344 16.007812 L 15.644531 16.007812 C 15.179688 16.011719 14.800781 16.390625 14.800781 16.851562 Z M 14.800781 16.851562 " fill-opacity="1" fill-rule="nonzero"/><g clip-path="url(#3ff595d0d5)"><path fill="#c4942e" d="M 31.148438 16.5625 C 27.425781 16.179688 26.257812 14.097656 26.136719 13.859375 L 26.132812 13.855469 C 26.058594 13.699219 25.898438 13.597656 25.71875 13.589844 L 25.714844 13.589844 C 25.535156 13.589844 25.378906 13.6875 25.300781 13.855469 C 25.285156 13.878906 24.992188 14.480469 24.199219 15.117188 C 23.195312 15.917969 21.875 16.402344 20.285156 16.5625 C 20.046875 16.589844 19.871094 16.785156 19.871094 17.019531 L 19.871094 20.855469 C 19.871094 21.867188 20.148438 22.875 20.695312 23.851562 C 21.144531 24.644531 21.769531 25.421875 22.558594 26.160156 C 23.832031 27.355469 25.132812 28.082031 25.5 28.277344 L 25.503906 28.277344 C 25.582031 28.316406 25.652344 28.335938 25.714844 28.335938 C 25.792969 28.335938 25.859375 28.320312 25.917969 28.285156 L 25.929688 28.273438 C 26.296875 28.082031 27.59375 27.355469 28.867188 26.15625 C 29.65625 25.417969 30.28125 24.640625 30.726562 23.847656 C 31.277344 22.871094 31.554688 21.863281 31.554688 20.855469 L 31.554688 17.007812 C 31.5625 16.785156 31.382812 16.585938 31.148438 16.5625 Z M 28.527344 20.121094 L 25.550781 23.097656 C 25.394531 23.25 25.1875 23.339844 24.976562 23.339844 C 24.769531 23.339844 24.558594 23.25 24.40625 23.097656 L 22.925781 21.617188 C 22.773438 21.464844 22.691406 21.261719 22.691406 21.046875 C 22.691406 20.832031 22.777344 20.625 22.925781 20.476562 C 23.078125 20.324219 23.28125 20.238281 23.496094 20.238281 C 23.710938 20.238281 23.917969 20.324219 24.066406 20.476562 L 24.976562 21.386719 L 27.386719 18.980469 C 27.539062 18.828125 27.742188 18.746094 27.957031 18.746094 C 28.175781 18.746094 28.378906 18.832031 28.527344 18.980469 C 28.679688 19.132812 28.761719 19.335938 28.761719 19.550781 C 28.761719 19.765625 28.679688 19.96875 28.527344 20.121094 Z M 28.527344 20.121094 " fill-opacity="1" fill-rule="nonzero"/></g></svg>