<svg xmlns="http://www.w3.org/2000/svg" xmlns:xlink="http://www.w3.org/1999/xlink" width="45" zoomAndPan="magnify" viewBox="0 0 33.75 33.749998" height="45" preserveAspectRatio="xMidYMid meet" version="1.0"><defs><clipPath id="55aec7c8ae"><path d="M 2.316406 4.023438 L 31.351562 4.023438 L 31.351562 29.335938 L 2.316406 29.335938 Z M 2.316406 4.023438 " clip-rule="nonzero"/></clipPath></defs><path fill="#c4942e" d="M 27.304688 21.722656 L 24.636719 24.394531 L 23.503906 23.265625 C 23.277344 23.039062 22.914062 23.039062 22.6875 23.265625 C 22.464844 23.488281 22.464844 23.855469 22.6875 24.078125 C 22.6875 24.078125 24.226562 25.617188 24.226562 25.621094 C 24.449219 25.84375 24.820312 25.84375 25.042969 25.621094 L 28.121094 22.539062 C 28.347656 22.316406 28.347656 21.949219 28.121094 21.722656 C 27.898438 21.5 27.53125 21.5 27.304688 21.722656 Z M 27.304688 21.722656 " fill-opacity="1" fill-rule="nonzero"/><g clip-path="url(#55aec7c8ae)"><path fill="#c4942e" d="M 27.714844 18.386719 L 27.714844 10.683594 C 27.714844 10.464844 27.589844 10.265625 27.394531 10.167969 L 15.273438 4.109375 C 15.113281 4.027344 14.921875 4.027344 14.757812 4.109375 L 11.046875 5.960938 C 10.761719 6.101562 10.644531 6.449219 10.789062 6.734375 C 10.929688 7.019531 11.277344 7.136719 11.5625 6.992188 L 15.015625 5.269531 L 18.632812 7.078125 L 7.800781 12.492188 L 4.1875 10.683594 L 7.441406 9.058594 C 7.726562 8.917969 7.839844 8.570312 7.699219 8.285156 C 7.558594 8 7.207031 7.886719 6.925781 8.027344 L 2.636719 10.167969 C 2.441406 10.265625 2.316406 10.464844 2.316406 10.683594 L 2.316406 22.804688 C 2.316406 23.023438 2.441406 23.222656 2.636719 23.324219 C 2.636719 23.324219 14.757812 29.382812 14.757812 29.382812 C 14.921875 29.464844 15.109375 29.460938 15.273438 29.382812 L 20.53125 26.75 C 21.554688 28.367188 23.355469 29.445312 25.40625 29.445312 C 28.589844 29.445312 31.175781 26.855469 31.175781 23.671875 C 31.175781 21.308594 29.75 19.277344 27.714844 18.386719 Z M 19.921875 7.722656 L 20.941406 8.230469 L 10.109375 13.648438 L 9.089844 13.136719 Z M 14.4375 27.933594 L 3.472656 22.449219 L 3.472656 11.617188 L 14.4375 17.101562 Z M 15.015625 16.101562 L 11.398438 14.292969 L 22.230469 8.875 L 25.847656 10.683594 Z M 20.015625 25.71875 L 15.59375 27.933594 L 15.59375 17.101562 L 26.558594 11.617188 L 26.558594 18.015625 C 26.1875 17.941406 25.800781 17.898438 25.40625 17.898438 C 22.222656 17.898438 19.632812 20.488281 19.632812 23.671875 C 19.632812 24.394531 19.773438 25.082031 20.015625 25.71875 Z M 25.40625 28.289062 C 22.859375 28.289062 20.789062 26.21875 20.789062 23.671875 C 20.789062 21.125 22.859375 19.054688 25.40625 19.054688 C 27.953125 19.054688 30.023438 21.125 30.023438 23.671875 C 30.023438 26.21875 27.953125 28.289062 25.40625 28.289062 Z M 25.40625 28.289062 " fill-opacity="1" fill-rule="nonzero"/></g><path fill="#c4942e" d="M 4.945312 21.878906 C 4.945312 21.878906 8.40625 23.609375 8.410156 23.609375 C 8.675781 23.746094 9.039062 23.644531 9.183594 23.351562 C 9.324219 23.066406 9.210938 22.722656 8.925781 22.578125 L 5.460938 20.847656 C 5.175781 20.707031 4.828125 20.820312 4.6875 21.105469 C 4.542969 21.390625 4.660156 21.738281 4.945312 21.878906 Z M 4.945312 21.878906 " fill-opacity="1" fill-rule="nonzero"/><path fill="#c4942e" d="M 4.945312 19.570312 C 4.945312 19.570312 7.253906 20.722656 7.253906 20.726562 C 7.523438 20.859375 7.882812 20.757812 8.027344 20.464844 C 8.171875 20.179688 8.054688 19.835938 7.769531 19.691406 L 5.460938 18.539062 C 5.175781 18.394531 4.828125 18.511719 4.6875 18.796875 C 4.542969 19.082031 4.660156 19.429688 4.945312 19.570312 Z M 4.945312 19.570312 " fill-opacity="1" fill-rule="nonzero"/><path fill="#c4942e" d="M 9.820312 7.511719 C 9.820312 7.667969 9.765625 7.804688 9.652344 7.917969 C 9.539062 8.03125 9.402344 8.085938 9.242188 8.085938 C 9.085938 8.085938 8.949219 8.03125 8.835938 7.917969 C 8.722656 7.804688 8.667969 7.667969 8.667969 7.511719 C 8.667969 7.351562 8.722656 7.214844 8.835938 7.101562 C 8.949219 6.988281 9.085938 6.933594 9.242188 6.933594 C 9.402344 6.933594 9.539062 6.988281 9.652344 7.101562 C 9.765625 7.214844 9.820312 7.351562 9.820312 7.511719 Z M 9.820312 7.511719 " fill-opacity="1" fill-rule="nonzero"/></svg>