<svg xmlns="http://www.w3.org/2000/svg" xmlns:xlink="http://www.w3.org/1999/xlink" width="45" zoomAndPan="magnify" viewBox="0 0 33.75 33.749998" height="45" preserveAspectRatio="xMidYMid meet" version="1.0"><defs><clipPath id="87b32e5088"><path d="M 3.351562 2.804688 L 29.40625 2.804688 L 29.40625 30.351562 L 3.351562 30.351562 Z M 3.351562 2.804688 " clip-rule="nonzero"/></clipPath></defs><g clip-path="url(#87b32e5088)"><path fill="#c4942e" d="M 26.644531 29.785156 L 28.898438 29.785156 C 29.144531 29.785156 29.347656 29.988281 29.347656 30.234375 C 29.347656 30.484375 29.144531 30.683594 28.898438 30.683594 L 3.796875 30.683594 C 3.550781 30.683594 3.347656 30.484375 3.347656 30.234375 C 3.347656 29.988281 3.550781 29.785156 3.796875 29.785156 L 6.050781 29.785156 L 6.050781 21.085938 C 6.585938 21.414062 7.382812 21.652344 8.28125 21.652344 C 9.183594 21.652344 9.980469 21.414062 10.515625 21.085938 L 10.515625 29.785156 L 14.113281 29.785156 L 14.113281 16.238281 C 14.652344 16.570312 15.445312 16.804688 16.347656 16.804688 C 17.246094 16.804688 18.042969 16.570312 18.582031 16.238281 L 18.582031 29.785156 L 22.175781 29.785156 L 22.175781 10.492188 C 22.714844 10.820312 23.511719 11.058594 24.410156 11.058594 C 25.3125 11.058594 26.105469 10.820312 26.644531 10.492188 Z M 24.738281 4.414062 C 19.222656 9.125 13.179688 12.101562 7.46875 14.027344 C 7.234375 14.105469 6.980469 13.980469 6.902344 13.742188 C 6.820312 13.507812 6.949219 13.253906 7.183594 13.175781 C 12.773438 11.289062 18.6875 8.382812 24.09375 3.78125 L 23.230469 3.828125 C 22.980469 3.839844 22.769531 3.652344 22.757812 3.402344 C 22.742188 3.15625 22.933594 2.945312 23.179688 2.929688 L 25.34375 2.816406 C 25.476562 2.808594 25.609375 2.863281 25.699219 2.960938 C 25.789062 3.0625 25.832031 3.199219 25.8125 3.332031 L 25.5 5.40625 C 25.460938 5.652344 25.234375 5.820312 24.988281 5.785156 C 24.742188 5.746094 24.574219 5.519531 24.609375 5.273438 Z M 8.28125 18.53125 C 9.515625 18.53125 10.515625 19.027344 10.515625 19.640625 C 10.515625 20.253906 9.515625 20.753906 8.28125 20.753906 C 7.050781 20.753906 6.050781 20.253906 6.050781 19.640625 C 6.050781 19.027344 7.050781 18.53125 8.28125 18.53125 Z M 16.347656 13.6875 C 17.578125 13.6875 18.582031 14.183594 18.582031 14.796875 C 18.582031 15.410156 17.578125 15.90625 16.347656 15.90625 C 15.113281 15.90625 14.113281 15.410156 14.113281 14.796875 C 14.113281 14.183594 15.113281 13.6875 16.347656 13.6875 Z M 24.410156 7.9375 C 25.644531 7.9375 26.644531 8.433594 26.644531 9.046875 C 26.644531 9.660156 25.644531 10.160156 24.410156 10.160156 C 23.175781 10.160156 22.175781 9.660156 22.175781 9.046875 C 22.175781 8.433594 23.175781 7.9375 24.410156 7.9375 Z M 24.410156 7.9375 " fill-opacity="1" fill-rule="evenodd"/></g></svg>