<svg xmlns="http://www.w3.org/2000/svg" xmlns:xlink="http://www.w3.org/1999/xlink" width="45" zoomAndPan="magnify" viewBox="0 0 33.75 33.749998" height="45" preserveAspectRatio="xMidYMid meet" version="1.0"><defs><clipPath id="9327033155"><path d="M 18.769531 17.070312 L 31.917969 17.070312 L 31.917969 30.476562 L 18.769531 30.476562 Z M 18.769531 17.070312 " clip-rule="nonzero"/></clipPath><clipPath id="37f08b8f32"><path d="M 1.394531 3 L 27 3 L 27 30.476562 L 1.394531 30.476562 Z M 1.394531 3 " clip-rule="nonzero"/></clipPath></defs><g clip-path="url(#9327033155)"><path fill="#c4942e" d="M 28.867188 22.75 L 24.996094 26.621094 C 24.761719 26.855469 24.453125 26.972656 24.140625 26.972656 C 23.832031 26.972656 23.523438 26.855469 23.285156 26.621094 L 21.386719 24.71875 C 20.914062 24.25 20.914062 23.484375 21.386719 23.011719 C 21.859375 22.539062 22.625 22.539062 23.097656 23.011719 L 24.140625 24.054688 L 27.15625 21.039062 C 27.628906 20.566406 28.394531 20.566406 28.867188 21.039062 C 29.339844 21.511719 29.339844 22.277344 28.867188 22.75 Z M 25.429688 17.167969 C 21.75 17.167969 18.769531 20.148438 18.769531 23.828125 C 18.769531 27.507812 21.75 30.492188 25.429688 30.492188 C 29.109375 30.492188 32.09375 27.507812 32.09375 23.828125 C 32.09375 20.148438 29.109375 17.167969 25.429688 17.167969 " fill-opacity="1" fill-rule="nonzero"/></g><g clip-path="url(#37f08b8f32)"><path fill="#c4942e" d="M 25.800781 7.96875 C 25.425781 7.644531 24.925781 7.496094 24.433594 7.566406 C 24.164062 7.601562 23.835938 7.632812 23.472656 7.632812 C 22.199219 7.632812 20.453125 7.277344 18.945312 5.71875 C 17.15625 3.875 15.550781 3.015625 13.890625 3.015625 C 12.230469 3.015625 10.625 3.875 8.839844 5.71875 C 6.898438 7.722656 4.5625 7.738281 3.347656 7.566406 C 2.855469 7.496094 2.359375 7.644531 1.984375 7.96875 C 1.609375 8.292969 1.394531 8.765625 1.394531 9.261719 L 1.394531 13.082031 C 1.394531 13.203125 1.472656 16.121094 2.960938 19.65625 C 4.339844 22.929688 7.234375 27.363281 13.21875 29.910156 C 13.433594 30 13.660156 30.042969 13.890625 30.042969 C 14.121094 30.042969 14.347656 30 14.566406 29.910156 C 15.878906 29.347656 17.042969 28.699219 18.074219 27.988281 C 17.800781 27.503906 17.570312 26.984375 17.390625 26.445312 C 16.378906 27.167969 15.226562 27.828125 13.917969 28.382812 C 13.902344 28.390625 13.882812 28.390625 13.867188 28.382812 C 9.496094 26.523438 6.347656 23.390625 4.511719 19.074219 C 3.128906 15.820312 3.050781 13.074219 3.050781 13.0625 L 3.050781 9.261719 C 3.050781 9.253906 3.050781 9.238281 3.070312 9.21875 C 3.085938 9.207031 3.097656 9.203125 3.105469 9.203125 L 3.117188 9.203125 C 4.644531 9.421875 7.574219 9.402344 10.03125 6.871094 C 11.460938 5.390625 12.726562 4.671875 13.890625 4.671875 C 14.472656 4.671875 15.082031 4.851562 15.722656 5.214844 C 16.363281 5.582031 17.039062 6.128906 17.753906 6.871094 C 20.207031 9.402344 23.136719 9.421875 24.664062 9.203125 C 24.675781 9.203125 24.691406 9.199219 24.714844 9.21875 C 24.734375 9.238281 24.734375 9.253906 24.734375 9.261719 L 24.734375 13.046875 C 24.734375 13.078125 24.703125 14.015625 24.402344 15.441406 C 24.738281 15.398438 25.082031 15.378906 25.429688 15.378906 C 25.65625 15.378906 25.882812 15.386719 26.105469 15.402344 C 26.363281 14.035156 26.386719 13.140625 26.386719 13.0625 L 26.386719 9.261719 C 26.386719 8.765625 26.175781 8.292969 25.800781 7.96875 " fill-opacity="1" fill-rule="nonzero"/></g><path fill="#c4942e" d="M 15.539062 16.519531 L 15.539062 19.382812 C 15.539062 20.292969 14.800781 21.03125 13.890625 21.03125 C 12.980469 21.03125 12.246094 20.292969 12.246094 19.382812 L 12.246094 16.519531 C 11.695312 16.050781 11.339844 15.363281 11.339844 14.582031 C 11.339844 13.171875 12.480469 12.03125 13.890625 12.03125 C 15.300781 12.03125 16.445312 13.171875 16.445312 14.582031 C 16.445312 15.363281 16.089844 16.050781 15.539062 16.519531 Z M 16.269531 8.40625 C 14.894531 6.992188 14.148438 6.839844 13.890625 6.839844 C 13.632812 6.839844 12.886719 6.992188 11.515625 8.40625 C 9.410156 10.582031 7.03125 11.285156 5.117188 11.429688 L 5.117188 13.117188 C 5.132812 13.375 5.28125 15.6875 6.417969 18.359375 C 7.921875 21.90625 10.433594 24.550781 13.890625 26.222656 C 15.078125 25.648438 16.105469 24.980469 16.992188 24.253906 C 16.984375 24.113281 16.976562 23.972656 16.976562 23.828125 C 16.976562 20.324219 19.125 17.308594 22.175781 16.03125 C 22.589844 14.460938 22.65625 13.320312 22.664062 13.109375 L 22.664062 11.429688 C 20.753906 11.285156 18.375 10.582031 16.269531 8.40625 " fill-opacity="1" fill-rule="nonzero"/></svg>