<svg xmlns="http://www.w3.org/2000/svg" xmlns:xlink="http://www.w3.org/1999/xlink" width="45" zoomAndPan="magnify" viewBox="0 0 33.75 33.749998" height="45" preserveAspectRatio="xMidYMid meet" version="1.0"><defs><clipPath id="49665252d7"><path d="M 5 4.125 L 31.597656 4.125 L 31.597656 29.4375 L 5 29.4375 Z M 5 4.125 " clip-rule="nonzero"/></clipPath><clipPath id="26640717ec"><path d="M 1.816406 10 L 15 10 L 15 24 L 1.816406 24 Z M 1.816406 10 " clip-rule="nonzero"/></clipPath><clipPath id="aea9613edd"><path d="M 1.816406 4.125 L 31.597656 4.125 L 31.597656 29.4375 L 1.816406 29.4375 Z M 1.816406 4.125 " clip-rule="nonzero"/></clipPath></defs><g clip-path="url(#49665252d7)"><path fill="#c4942e" d="M 31.5625 5.074219 L 27.828125 28.226562 C 27.730469 28.832031 27.210938 29.273438 26.597656 29.273438 L 8.492188 29.273438 L 26.421875 29.273438 C 25.738281 29.273438 25.183594 28.722656 25.183594 28.039062 L 25.183594 26.800781 L 8.890625 26.800781 L 9.484375 23.132812 L 11.28125 22.257812 C 13.371094 21.238281 14.699219 19.117188 14.699219 16.792969 L 14.699219 12.769531 C 13.378906 12.769531 12.195312 12.175781 11.402344 11.238281 L 12.433594 4.835938 C 12.492188 4.480469 12.800781 4.21875 13.164062 4.21875 L 30.835938 4.21875 C 31.289062 4.21875 31.636719 4.625 31.5625 5.074219 Z M 11.730469 19.398438 L 5.695312 19.398438 L 5.695312 13.894531 L 11.730469 13.894531 Z M 11.730469 19.398438 " fill-opacity="1" fill-rule="nonzero"/><path fill="#c4942e" d="M 26.421875 29.273438 L 6.960938 29.273438 C 6.277344 29.273438 5.722656 28.722656 5.722656 28.039062 L 5.722656 26.800781 L 25.183594 26.800781 L 25.183594 28.039062 C 25.183594 28.722656 25.738281 29.273438 26.421875 29.273438 Z M 30.835938 4.21875 L 13.164062 4.21875 C 12.800781 4.21875 12.492188 4.480469 12.433594 4.839844 L 12.105469 6.882812 L 20.667969 6.882812 C 20.996094 6.882812 21.265625 6.617188 21.265625 6.289062 C 21.265625 5.960938 21.53125 5.691406 21.859375 5.691406 L 31.464844 5.691406 L 31.5625 5.074219 C 31.636719 4.625 31.289062 4.21875 30.835938 4.21875 Z M 30.835938 4.21875 " fill-opacity="1" fill-rule="nonzero"/></g><path fill="#c4942e" d="M 28.027344 9.609375 L 27.5 12.289062 C 27.425781 12.667969 27.058594 12.976562 26.675781 12.976562 L 21.882812 12.976562 C 21.503906 12.976562 21.253906 12.667969 21.328125 12.289062 L 21.855469 9.609375 C 21.929688 9.230469 22.300781 8.921875 22.679688 8.921875 L 27.472656 8.921875 C 27.855469 8.921875 28.101562 9.230469 28.027344 9.609375 Z M 28.027344 9.609375 " fill-opacity="1" fill-rule="nonzero"/><g clip-path="url(#26640717ec)"><path fill="#c4942e" d="M 10.726562 10.144531 L 5.894531 10.144531 C 5.234375 11.6875 3.703125 12.769531 1.917969 12.769531 L 1.917969 16.792969 C 1.917969 19.117188 3.246094 21.238281 5.335938 22.257812 L 8.308594 23.707031 L 11.28125 22.257812 C 13.371094 21.238281 14.699219 19.117188 14.699219 16.792969 L 14.699219 12.769531 C 12.914062 12.769531 11.382812 11.6875 10.726562 10.144531 Z M 10.527344 15.808594 C 9.945312 16.390625 9.363281 16.972656 8.78125 17.554688 C 8.464844 17.871094 7.769531 18.566406 7.355469 18.984375 L 7.066406 18.6875 C 7.058594 18.671875 7.046875 18.660156 7.035156 18.652344 C 7.007812 18.621094 6.976562 18.59375 6.949219 18.566406 C 6.921875 18.542969 6.894531 18.515625 6.871094 18.492188 C 6.476562 18.117188 6.085938 17.742188 5.695312 17.367188 L 6.34375 16.714844 C 6.402344 16.769531 6.457031 16.820312 6.511719 16.875 C 6.792969 17.144531 7.074219 17.410156 7.355469 17.679688 C 7.378906 17.652344 7.40625 17.628906 7.433594 17.601562 C 8.015625 17.019531 8.59375 16.4375 9.175781 15.855469 C 9.542969 15.492188 9.90625 15.125 10.273438 14.761719 L 10.925781 15.410156 C 10.792969 15.542969 10.660156 15.675781 10.527344 15.808594 Z M 10.527344 15.808594 " fill-opacity="1" fill-rule="nonzero"/></g><g clip-path="url(#aea9613edd)"><path fill="#ffffff" d="M 13.28125 16.824219 L 13.28125 13.660156 L 13.191406 13.660156 C 11.902344 13.660156 10.746094 12.894531 10.242188 11.707031 L 10.214844 11.652344 L 6.402344 11.652344 L 6.378906 11.707031 C 5.871094 12.894531 4.714844 13.660156 3.425781 13.660156 L 3.335938 13.660156 L 3.335938 16.824219 C 3.335938 18.621094 4.378906 20.292969 5.996094 21.082031 L 8.308594 22.207031 L 10.621094 21.082031 C 12.238281 20.292969 13.28125 18.621094 13.28125 16.824219 Z M 8.308594 22.003906 L 6.078125 20.917969 C 4.523438 20.160156 3.519531 18.550781 3.519531 16.824219 L 3.519531 13.839844 C 4.824219 13.804688 5.988281 13.03125 6.523438 11.835938 L 10.09375 11.835938 C 10.628906 13.03125 11.792969 13.804688 13.097656 13.839844 L 13.097656 16.824219 C 13.097656 18.550781 12.09375 20.160156 10.539062 20.917969 Z M 21.238281 12.269531 C 21.199219 12.484375 21.242188 12.683594 21.367188 12.835938 C 21.492188 12.988281 21.671875 13.066406 21.882812 13.066406 L 26.679688 13.066406 C 27.097656 13.066406 27.507812 12.726562 27.59375 12.304688 L 28.117188 9.628906 C 28.160156 9.414062 28.113281 9.210938 27.988281 9.058594 C 27.867188 8.910156 27.683594 8.828125 27.472656 8.828125 L 22.679688 8.828125 C 22.257812 8.828125 21.847656 9.171875 21.765625 9.59375 Z M 22.679688 9.015625 L 27.472656 9.015625 C 27.628906 9.015625 27.757812 9.074219 27.847656 9.179688 C 27.9375 9.285156 27.96875 9.433594 27.9375 9.59375 L 27.410156 12.269531 C 27.34375 12.609375 27.015625 12.882812 26.675781 12.882812 L 21.882812 12.882812 C 21.730469 12.882812 21.597656 12.828125 21.511719 12.722656 C 21.421875 12.613281 21.386719 12.464844 21.417969 12.304688 L 21.945312 9.628906 C 22.011719 9.289062 22.339844 9.015625 22.679688 9.015625 Z M 16.867188 14.992188 L 26.636719 14.992188 L 26.636719 15.179688 L 16.867188 15.179688 Z M 16.867188 17.105469 L 26.289062 17.105469 L 26.289062 17.289062 L 16.867188 17.289062 Z M 16.867188 19.214844 L 25.941406 19.214844 L 25.941406 19.398438 L 16.867188 19.398438 Z M 15.457031 21.324219 L 25.59375 21.324219 L 25.59375 21.507812 L 15.457031 21.507812 Z M 12.789062 23.433594 L 25.246094 23.433594 L 25.246094 23.617188 L 12.789062 23.617188 Z M 21.023438 28.507812 L 9.339844 28.507812 L 9.339844 28.324219 L 21.023438 28.324219 Z M 8.554688 28.507812 L 7.625 28.507812 L 7.625 28.324219 L 8.554688 28.324219 Z M 31.667969 4.878906 L 31.640625 4.761719 C 31.640625 4.761719 31.640625 4.761719 31.640625 4.757812 C 31.636719 4.738281 31.628906 4.71875 31.625 4.699219 C 31.621094 4.695312 31.621094 4.691406 31.617188 4.683594 C 31.613281 4.664062 31.605469 4.648438 31.597656 4.628906 C 31.59375 4.625 31.59375 4.617188 31.589844 4.609375 C 31.578125 4.585938 31.566406 4.566406 31.554688 4.542969 C 31.546875 4.527344 31.535156 4.511719 31.527344 4.496094 C 31.523438 4.488281 31.515625 4.480469 31.511719 4.472656 C 31.5 4.457031 31.488281 4.441406 31.476562 4.425781 C 31.472656 4.421875 31.46875 4.417969 31.46875 4.414062 C 31.464844 4.414062 31.460938 4.410156 31.460938 4.410156 C 31.425781 4.367188 31.382812 4.328125 31.339844 4.292969 C 31.335938 4.292969 31.332031 4.289062 31.332031 4.289062 C 31.308594 4.273438 31.289062 4.257812 31.269531 4.246094 C 31.265625 4.242188 31.261719 4.242188 31.257812 4.238281 C 31.234375 4.226562 31.210938 4.210938 31.183594 4.199219 C 31.15625 4.1875 31.128906 4.175781 31.101562 4.167969 C 31.101562 4.167969 31.097656 4.167969 31.09375 4.164062 C 31.070312 4.15625 31.046875 4.152344 31.023438 4.144531 C 31.015625 4.144531 31.011719 4.144531 31.003906 4.140625 C 30.980469 4.136719 30.960938 4.132812 30.941406 4.132812 C 30.933594 4.128906 30.925781 4.128906 30.917969 4.128906 C 30.890625 4.128906 30.863281 4.125 30.835938 4.125 L 13.164062 4.125 C 13.136719 4.125 13.113281 4.125 13.089844 4.128906 C 13.078125 4.128906 13.070312 4.128906 13.058594 4.132812 C 13.046875 4.132812 13.03125 4.136719 13.019531 4.136719 C 13.003906 4.140625 12.992188 4.140625 12.980469 4.144531 C 12.972656 4.148438 12.960938 4.152344 12.949219 4.152344 C 12.933594 4.15625 12.921875 4.160156 12.910156 4.164062 C 12.898438 4.167969 12.890625 4.171875 12.878906 4.175781 C 12.867188 4.179688 12.855469 4.183594 12.839844 4.191406 C 12.832031 4.191406 12.824219 4.195312 12.816406 4.199219 C 12.800781 4.207031 12.789062 4.214844 12.773438 4.21875 C 12.769531 4.222656 12.761719 4.226562 12.753906 4.230469 C 12.742188 4.238281 12.726562 4.246094 12.714844 4.253906 C 12.707031 4.257812 12.703125 4.261719 12.695312 4.265625 C 12.683594 4.277344 12.667969 4.285156 12.65625 4.296875 C 12.652344 4.300781 12.644531 4.304688 12.640625 4.308594 C 12.628906 4.316406 12.617188 4.328125 12.601562 4.339844 C 12.597656 4.34375 12.59375 4.347656 12.589844 4.351562 C 12.578125 4.363281 12.566406 4.378906 12.550781 4.390625 C 12.550781 4.394531 12.546875 4.398438 12.542969 4.402344 C 12.53125 4.414062 12.519531 4.429688 12.507812 4.445312 C 12.503906 4.445312 12.503906 4.449219 12.5 4.453125 C 12.488281 4.46875 12.476562 4.484375 12.464844 4.5 C 12.464844 4.503906 12.460938 4.503906 12.460938 4.507812 C 12.449219 4.527344 12.441406 4.542969 12.429688 4.5625 C 12.429688 4.5625 12.429688 4.566406 12.429688 4.566406 C 12.417969 4.585938 12.410156 4.605469 12.398438 4.625 C 12.398438 4.628906 12.398438 4.628906 12.398438 4.628906 C 12.390625 4.648438 12.382812 4.671875 12.375 4.695312 C 12.367188 4.714844 12.359375 4.738281 12.355469 4.761719 L 12.328125 4.875 L 12.332031 4.875 L 11.34375 11.019531 C 11.128906 10.742188 10.949219 10.4375 10.808594 10.105469 L 10.785156 10.050781 L 5.832031 10.050781 L 5.808594 10.105469 C 5.140625 11.667969 3.617188 12.675781 1.917969 12.675781 L 1.824219 12.675781 L 1.824219 16.789062 C 1.824219 17.949219 2.148438 19.082031 2.765625 20.0625 C 3.378906 21.042969 4.253906 21.832031 5.292969 22.339844 L 8.308594 23.804688 L 9.363281 23.292969 L 8.8125 26.707031 L 5.628906 26.707031 L 5.628906 28.035156 C 5.628906 28.769531 6.226562 29.367188 6.960938 29.367188 L 26.597656 29.367188 C 27.257812 29.367188 27.816406 28.890625 27.921875 28.238281 L 31.542969 5.785156 L 31.65625 5.085938 C 31.660156 5.054688 31.664062 5.027344 31.664062 4.996094 C 31.667969 4.957031 31.664062 4.914062 31.660156 4.875 L 31.667969 4.875 Z M 31.382812 5.601562 L 21.859375 5.601562 C 21.480469 5.601562 21.171875 5.910156 21.171875 6.289062 C 21.171875 6.566406 20.945312 6.792969 20.667969 6.792969 L 12.210938 6.792969 L 12.519531 4.878906 L 31.476562 4.878906 C 31.480469 4.914062 31.480469 4.949219 31.480469 4.988281 C 31.480469 5.011719 31.476562 5.035156 31.472656 5.058594 Z M 8.308594 23.601562 L 5.375 22.175781 C 3.332031 21.179688 2.011719 19.066406 2.011719 16.792969 L 2.011719 12.859375 C 3.722656 12.824219 5.257812 11.804688 5.953125 10.234375 L 10.664062 10.234375 C 11.199219 11.4375 12.222656 12.316406 13.441406 12.679688 C 13.449219 12.679688 13.453125 12.683594 13.460938 12.683594 C 13.601562 12.726562 13.742188 12.757812 13.886719 12.785156 C 13.898438 12.789062 13.910156 12.789062 13.921875 12.792969 C 13.992188 12.804688 14.066406 12.816406 14.136719 12.824219 C 14.207031 12.835938 14.273438 12.839844 14.34375 12.847656 C 14.359375 12.847656 14.378906 12.847656 14.394531 12.851562 C 14.464844 12.855469 14.535156 12.859375 14.601562 12.859375 C 14.605469 12.859375 14.605469 12.859375 14.605469 12.859375 L 14.605469 16.792969 C 14.605469 18.496094 13.863281 20.109375 12.628906 21.234375 C 12.21875 21.605469 11.753906 21.925781 11.242188 22.175781 L 9.398438 23.070312 Z M 5.8125 28.039062 L 5.8125 26.890625 L 25.09375 26.890625 L 25.09375 28.039062 C 25.09375 28.136719 25.105469 28.230469 25.125 28.324219 L 22.527344 28.324219 L 22.527344 28.507812 L 25.179688 28.507812 C 25.289062 28.792969 25.488281 29.03125 25.746094 29.183594 L 6.960938 29.183594 C 6.328125 29.183594 5.8125 28.667969 5.8125 28.039062 Z M 27.738281 28.210938 C 27.648438 28.773438 27.167969 29.183594 26.597656 29.183594 L 26.421875 29.183594 C 25.789062 29.183594 25.277344 28.667969 25.277344 28.039062 L 25.277344 26.707031 L 9 26.707031 L 9.566406 23.195312 L 11.324219 22.339844 C 12.363281 21.832031 13.238281 21.046875 13.851562 20.0625 C 14.46875 19.082031 14.792969 17.949219 14.792969 16.792969 L 14.792969 12.679688 L 14.699219 12.679688 C 14.699219 12.679688 14.695312 12.679688 14.695312 12.679688 C 14.628906 12.679688 14.5625 12.675781 14.496094 12.671875 C 14.476562 12.671875 14.460938 12.671875 14.441406 12.667969 C 14.378906 12.664062 14.316406 12.660156 14.257812 12.65625 C 14.25 12.652344 14.242188 12.652344 14.238281 12.652344 C 14.167969 12.644531 14.097656 12.636719 14.03125 12.625 C 14.019531 12.625 14.007812 12.621094 13.992188 12.617188 C 13.929688 12.609375 13.867188 12.597656 13.800781 12.582031 C 13.796875 12.582031 13.792969 12.582031 13.789062 12.578125 C 13.71875 12.5625 13.648438 12.546875 13.578125 12.527344 C 13.574219 12.527344 13.570312 12.523438 13.5625 12.523438 C 12.769531 12.300781 12.050781 11.851562 11.5 11.210938 L 12.183594 6.976562 L 20.667969 6.976562 C 21.046875 6.976562 21.355469 6.667969 21.355469 6.289062 C 21.355469 6.011719 21.582031 5.785156 21.859375 5.785156 L 31.355469 5.785156 Z M 27.738281 28.210938 " fill-opacity="1" fill-rule="nonzero"/></g></svg>