<svg xmlns="http://www.w3.org/2000/svg" xmlns:xlink="http://www.w3.org/1999/xlink" width="45" zoomAndPan="magnify" viewBox="0 0 33.75 33.749998" height="45" preserveAspectRatio="xMidYMid meet" version="1.0"><defs><clipPath id="3c55bd9082"><path d="M 2.234375 2.234375 L 31.269531 2.234375 L 31.269531 31.269531 L 2.234375 31.269531 Z M 2.234375 2.234375 " clip-rule="nonzero"/></clipPath></defs><path fill="#c4942e" d="M 14.417969 15.316406 L 15.917969 16.484375 L 15.917969 12.675781 L 12.511719 12.675781 L 12.511719 16.484375 L 14.011719 15.316406 C 14.132812 15.226562 14.296875 15.226562 14.417969 15.316406 Z M 14.417969 15.316406 " fill-opacity="1" fill-rule="nonzero"/><path fill="#c4942e" d="M 25.050781 19.039062 C 25.042969 19.011719 25.039062 18.996094 25.019531 18.976562 C 24.996094 18.953125 24.976562 18.953125 24.945312 18.953125 L 24.480469 19 C 24.3125 19.019531 24.167969 18.910156 24.125 18.753906 C 24.117188 18.734375 24.113281 18.71875 24.105469 18.691406 C 23.96875 18.179688 23.695312 17.710938 23.308594 17.34375 C 23.1875 17.230469 23.175781 17.046875 23.273438 16.90625 L 23.550781 16.527344 C 23.566406 16.503906 23.574219 16.480469 23.566406 16.449219 C 23.5625 16.417969 23.550781 16.398438 23.519531 16.386719 L 22.832031 15.988281 C 22.8125 15.984375 22.804688 15.976562 22.789062 15.96875 L 22.78125 15.96875 C 22.777344 15.96875 22.761719 15.976562 22.75 15.976562 C 22.722656 15.988281 22.703125 16 22.691406 16.03125 L 22.503906 16.460938 C 22.4375 16.613281 22.265625 16.691406 22.109375 16.640625 C 21.601562 16.496094 21.0625 16.484375 20.542969 16.625 C 20.527344 16.628906 20.5 16.636719 20.484375 16.640625 C 20.324219 16.691406 20.15625 16.613281 20.089844 16.460938 L 19.902344 16.03125 C 19.890625 16 19.878906 15.988281 19.84375 15.976562 C 19.804688 15.964844 19.792969 15.96875 19.761719 15.984375 L 19.074219 16.382812 C 19.050781 16.398438 19.039062 16.414062 19.023438 16.441406 C 19.019531 16.472656 19.019531 16.492188 19.042969 16.519531 L 19.320312 16.902344 C 19.417969 17.035156 19.398438 17.214844 19.285156 17.335938 C 18.886719 17.71875 18.601562 18.207031 18.476562 18.746094 C 18.4375 18.90625 18.289062 19.011719 18.117188 18.996094 L 17.652344 18.945312 C 17.621094 18.941406 17.605469 18.953125 17.578125 18.972656 C 17.554688 18.996094 17.550781 19.007812 17.550781 19.042969 L 17.550781 19.84375 C 17.550781 19.871094 17.554688 19.890625 17.578125 19.914062 C 17.605469 19.9375 17.621094 19.9375 17.652344 19.9375 L 18.117188 19.890625 C 18.128906 19.890625 18.140625 19.882812 18.152344 19.882812 C 18.304688 19.882812 18.4375 19.988281 18.46875 20.136719 C 18.476562 20.15625 18.480469 20.179688 18.488281 20.199219 C 18.625 20.714844 18.898438 21.179688 19.285156 21.546875 C 19.40625 21.664062 19.417969 21.84375 19.320312 21.984375 L 19.042969 22.363281 C 19.023438 22.386719 19.019531 22.414062 19.023438 22.441406 C 19.03125 22.472656 19.042969 22.492188 19.074219 22.507812 L 19.761719 22.910156 C 19.78125 22.914062 19.792969 22.925781 19.8125 22.925781 C 19.824219 22.925781 19.828125 22.925781 19.84375 22.921875 C 19.871094 22.910156 19.890625 22.898438 19.902344 22.867188 L 20.089844 22.4375 C 20.15625 22.285156 20.324219 22.207031 20.484375 22.253906 C 20.992188 22.402344 21.53125 22.414062 22.050781 22.273438 C 22.066406 22.265625 22.085938 22.261719 22.109375 22.253906 C 22.265625 22.207031 22.4375 22.285156 22.503906 22.4375 L 22.691406 22.867188 C 22.703125 22.898438 22.714844 22.910156 22.75 22.921875 C 22.789062 22.933594 22.800781 22.925781 22.832031 22.914062 L 23.519531 22.515625 C 23.542969 22.496094 23.554688 22.480469 23.566406 22.449219 C 23.574219 22.417969 23.574219 22.402344 23.550781 22.371094 L 23.273438 21.988281 C 23.175781 21.855469 23.191406 21.675781 23.308594 21.554688 C 23.707031 21.171875 23.992188 20.683594 24.117188 20.144531 C 24.15625 19.988281 24.304688 19.878906 24.476562 19.894531 L 24.941406 19.945312 C 24.972656 19.949219 24.988281 19.9375 25.015625 19.921875 C 25.039062 19.894531 25.042969 19.882812 25.042969 19.847656 L 25.042969 19.066406 C 25.042969 19.0625 25.042969 19.054688 25.042969 19.050781 L 25.042969 19.03125 L 25.050781 19.03125 Z M 22.96875 19.894531 C 22.847656 20.34375 22.5625 20.71875 22.160156 20.949219 C 21.886719 21.105469 21.589844 21.179688 21.292969 21.179688 C 20.695312 21.179688 20.109375 20.871094 19.789062 20.3125 C 19.558594 19.910156 19.492188 19.449219 19.613281 18.996094 C 19.734375 18.546875 20.015625 18.171875 20.421875 17.941406 C 21.25 17.464844 22.316406 17.75 22.792969 18.578125 C 23.03125 18.984375 23.089844 19.449219 22.96875 19.894531 Z M 22.96875 19.894531 " fill-opacity="1" fill-rule="nonzero"/><path fill="#c4942e" d="M 21.292969 18.371094 C 21.113281 18.371094 20.925781 18.421875 20.753906 18.515625 C 20.507812 18.664062 20.332031 18.890625 20.253906 19.171875 C 20.179688 19.449219 20.21875 19.738281 20.363281 19.988281 C 20.660156 20.5 21.316406 20.683594 21.832031 20.378906 C 22.078125 20.234375 22.253906 20.003906 22.335938 19.726562 C 22.40625 19.449219 22.371094 19.160156 22.226562 18.910156 C 22.027344 18.566406 21.667969 18.371094 21.292969 18.371094 Z M 21.292969 18.371094 " fill-opacity="1" fill-rule="nonzero"/><path fill="#c4942e" d="M 24.089844 7.664062 L 22.132812 10.472656 L 22.792969 10.472656 C 22.976562 10.472656 23.121094 10.617188 23.121094 10.796875 L 23.121094 15.40625 C 23.132812 15.414062 23.144531 15.421875 23.15625 15.425781 L 23.847656 15.824219 C 24.035156 15.933594 24.160156 16.109375 24.210938 16.328125 C 24.257812 16.539062 24.210938 16.75 24.078125 16.933594 L 23.960938 17.089844 C 24.277344 17.453125 24.523438 17.871094 24.675781 18.328125 L 24.867188 18.3125 C 24.929688 18.304688 24.988281 18.304688 25.042969 18.3125 L 25.042969 10.8125 C 25.042969 10.628906 25.1875 10.484375 25.371094 10.484375 L 26.03125 10.484375 Z M 24.089844 7.664062 " fill-opacity="1" fill-rule="nonzero"/><path fill="#c4942e" d="M 20.5 23.121094 C 20.410156 23.320312 20.246094 23.464844 20.042969 23.53125 C 19.964844 23.554688 19.882812 23.566406 19.804688 23.566406 C 19.671875 23.566406 19.546875 23.53125 19.429688 23.464844 L 18.742188 23.066406 C 18.554688 22.957031 18.425781 22.78125 18.378906 22.5625 C 18.328125 22.351562 18.378906 22.140625 18.511719 21.964844 L 18.625 21.808594 C 18.3125 21.445312 18.0625 21.027344 17.914062 20.566406 L 17.71875 20.585938 C 17.5 20.609375 17.296875 20.542969 17.132812 20.398438 C 16.96875 20.253906 16.878906 20.054688 16.878906 19.835938 L 16.878906 19.050781 C 16.878906 18.832031 16.96875 18.632812 17.132812 18.488281 C 17.296875 18.339844 17.5 18.273438 17.71875 18.300781 L 17.914062 18.316406 C 18.0625 17.859375 18.304688 17.441406 18.625 17.078125 L 18.511719 16.921875 C 18.382812 16.746094 18.335938 16.527344 18.378906 16.316406 C 18.425781 16.105469 18.554688 15.921875 18.742188 15.8125 L 19.429688 15.414062 C 19.617188 15.304688 19.835938 15.28125 20.042969 15.355469 C 20.246094 15.421875 20.410156 15.566406 20.5 15.765625 L 20.578125 15.941406 C 20.707031 15.917969 20.832031 15.890625 20.96875 15.878906 L 20.96875 13.683594 C 20.96875 13.117188 20.507812 12.65625 19.9375 12.65625 L 16.574219 12.65625 L 16.574219 17.136719 C 16.574219 17.257812 16.503906 17.378906 16.386719 17.433594 C 16.273438 17.488281 16.140625 17.476562 16.042969 17.398438 L 14.210938 15.996094 L 12.378906 17.410156 C 12.316406 17.457031 12.246094 17.484375 12.179688 17.484375 C 12.128906 17.484375 12.074219 17.472656 12.03125 17.445312 C 11.917969 17.390625 11.84375 17.277344 11.84375 17.148438 L 11.84375 12.667969 L 8.480469 12.667969 C 7.914062 12.667969 7.453125 13.128906 7.453125 13.695312 L 7.453125 24.808594 C 7.453125 25.371094 7.914062 25.835938 8.480469 25.835938 L 19.933594 25.835938 C 20.496094 25.835938 20.960938 25.375 20.960938 24.808594 L 20.960938 23 C 20.832031 22.988281 20.699219 22.96875 20.574219 22.9375 Z M 9.980469 19.914062 L 12.878906 19.914062 C 13.0625 19.914062 13.207031 20.058594 13.207031 20.242188 C 13.207031 20.421875 13.0625 20.566406 12.878906 20.566406 L 9.980469 20.566406 C 9.800781 20.566406 9.65625 20.421875 9.65625 20.242188 C 9.65625 20.058594 9.800781 19.914062 9.980469 19.914062 Z M 9.980469 21.035156 L 12.878906 21.035156 C 13.0625 21.035156 13.207031 21.179688 13.207031 21.359375 C 13.207031 21.542969 13.0625 21.6875 12.878906 21.6875 L 9.980469 21.6875 C 9.800781 21.6875 9.65625 21.542969 9.65625 21.359375 C 9.65625 21.183594 9.800781 21.035156 9.980469 21.035156 Z M 15.285156 23.984375 C 15.285156 24.371094 14.972656 24.6875 14.585938 24.6875 L 9.191406 24.6875 C 8.800781 24.6875 8.488281 24.371094 8.488281 23.984375 L 8.488281 23.324219 C 8.488281 22.9375 8.800781 22.625 9.191406 22.625 L 14.585938 22.625 C 14.972656 22.625 15.285156 22.9375 15.285156 23.324219 Z M 15.285156 23.984375 " fill-opacity="1" fill-rule="nonzero"/><path fill="#c4942e" d="M 14.585938 23.277344 L 9.191406 23.277344 C 9.164062 23.277344 9.140625 23.296875 9.140625 23.324219 L 9.140625 23.984375 C 9.140625 24.007812 9.160156 24.035156 9.191406 24.035156 L 14.585938 24.035156 C 14.609375 24.035156 14.632812 24.015625 14.632812 23.984375 L 14.632812 23.324219 C 14.628906 23.300781 14.605469 23.277344 14.585938 23.277344 Z M 14.585938 23.277344 " fill-opacity="1" fill-rule="nonzero"/><g clip-path="url(#3c55bd9082)"><path fill="#c4942e" d="M 30.125 11.101562 C 29.394531 9.371094 28.347656 7.824219 27.015625 6.484375 C 25.683594 5.15625 24.128906 4.109375 22.402344 3.375 C 20.609375 2.621094 18.710938 2.234375 16.75 2.234375 C 14.792969 2.234375 12.890625 2.613281 11.101562 3.375 C 9.371094 4.109375 7.824219 5.15625 6.484375 6.484375 C 5.148438 7.816406 4.109375 9.371094 3.375 11.101562 C 2.621094 12.890625 2.234375 14.792969 2.234375 16.75 C 2.234375 18.710938 2.613281 20.609375 3.375 22.402344 C 4.109375 24.128906 5.15625 25.679688 6.484375 27.015625 C 7.816406 28.347656 9.371094 29.394531 11.101562 30.125 C 12.890625 30.882812 14.792969 31.269531 16.75 31.269531 C 18.710938 31.269531 20.609375 30.886719 22.402344 30.125 C 24.128906 29.394531 25.679688 28.347656 27.015625 27.015625 C 28.347656 25.683594 29.394531 24.128906 30.125 22.402344 C 30.882812 20.609375 31.269531 18.710938 31.269531 16.75 C 31.269531 14.792969 30.882812 12.890625 30.125 11.101562 Z M 30.722656 16.75 C 30.722656 24.457031 24.453125 30.730469 16.746094 30.730469 C 9.039062 30.730469 2.765625 24.457031 2.765625 16.75 C 2.765625 9.042969 9.039062 2.773438 16.746094 2.773438 C 24.457031 2.773438 30.722656 9.042969 30.722656 16.75 Z M 30.722656 16.75 " fill-opacity="1" fill-rule="nonzero"/></g></svg>