<svg xmlns="http://www.w3.org/2000/svg" xmlns:xlink="http://www.w3.org/1999/xlink" width="45" zoomAndPan="magnify" viewBox="0 0 33.75 33.749998" height="45" preserveAspectRatio="xMidYMid meet" version="1.0"><defs><clipPath id="9b338adaf4"><path d="M 14 2.550781 L 21 2.550781 L 21 10 L 14 10 Z M 14 2.550781 " clip-rule="nonzero"/></clipPath><clipPath id="fcb7757d85"><path d="M 2.1875 13 L 12 13 L 12 23 L 2.1875 23 Z M 2.1875 13 " clip-rule="nonzero"/></clipPath><clipPath id="6f34ad3317"><path d="M 23 13 L 31.222656 13 L 31.222656 22 L 23 22 Z M 23 13 " clip-rule="nonzero"/></clipPath><clipPath id="e9a895c30e"><path d="M 13 24 L 21 24 L 21 30.839844 L 13 30.839844 Z M 13 24 " clip-rule="nonzero"/></clipPath></defs><g clip-path="url(#9b338adaf4)"><path fill="#c4942e" d="M 15.664062 4.167969 C 15.664062 3.953125 15.703125 3.75 15.785156 3.550781 C 15.867188 3.355469 15.984375 3.179688 16.132812 3.027344 C 16.285156 2.878906 16.460938 2.761719 16.65625 2.679688 C 16.855469 2.597656 17.058594 2.558594 17.273438 2.558594 C 17.488281 2.558594 17.691406 2.597656 17.890625 2.679688 C 18.085938 2.761719 18.261719 2.878906 18.410156 3.027344 C 18.5625 3.179688 18.679688 3.355469 18.761719 3.550781 C 18.84375 3.75 18.882812 3.953125 18.882812 4.167969 C 18.882812 4.382812 18.84375 4.585938 18.761719 4.785156 C 18.679688 4.980469 18.5625 5.15625 18.410156 5.304688 C 18.261719 5.457031 18.085938 5.574219 17.890625 5.65625 C 17.691406 5.738281 17.488281 5.777344 17.273438 5.777344 C 17.058594 5.777344 16.855469 5.734375 16.65625 5.65625 C 16.460938 5.574219 16.285156 5.457031 16.136719 5.304688 C 15.984375 5.15625 15.867188 4.980469 15.785156 4.785156 C 15.703125 4.585938 15.664062 4.382812 15.664062 4.167969 Z M 14.019531 9.277344 C 14.050781 8.867188 14.152344 8.476562 14.332031 8.105469 C 14.511719 7.734375 14.75 7.40625 15.050781 7.128906 C 15.355469 6.847656 15.695312 6.632812 16.078125 6.480469 C 16.464844 6.332031 16.859375 6.253906 17.273438 6.253906 C 17.683594 6.253906 18.082031 6.332031 18.464844 6.480469 C 18.847656 6.632812 19.191406 6.847656 19.492188 7.128906 C 19.796875 7.40625 20.035156 7.734375 20.214844 8.105469 C 20.390625 8.476562 20.496094 8.867188 20.527344 9.277344 Z M 14.019531 9.277344 " fill-opacity="1" fill-rule="nonzero"/></g><g clip-path="url(#fcb7757d85)"><path fill="#c4942e" d="M 10.882812 16.710938 L 10.195312 16.710938 C 10.128906 16.507812 10.046875 16.308594 9.945312 16.121094 L 10.417969 15.3125 L 9.175781 14.070312 C 9.128906 14.023438 9.074219 14 9.007812 14 C 8.941406 14 8.886719 14.023438 8.839844 14.070312 L 8.355469 14.558594 C 8.164062 14.460938 7.964844 14.378906 7.761719 14.316406 L 7.761719 13.648438 C 7.761719 13.488281 7.683594 13.410156 7.523438 13.410156 L 5.765625 13.410156 C 5.609375 13.410156 5.527344 13.488281 5.527344 13.648438 L 5.527344 14.335938 C 5.324219 14.402344 5.128906 14.484375 4.941406 14.585938 L 4.46875 14.113281 C 4.355469 14 4.246094 14 4.132812 14.113281 L 2.890625 15.355469 C 2.777344 15.46875 2.777344 15.578125 2.890625 15.691406 L 3.378906 16.179688 C 3.28125 16.367188 3.203125 16.5625 3.140625 16.765625 L 2.46875 16.765625 C 2.3125 16.765625 2.230469 16.847656 2.230469 17.003906 L 2.230469 18.765625 C 2.230469 18.921875 2.3125 19.003906 2.46875 19.003906 L 3.160156 19.003906 C 3.222656 19.207031 3.304688 19.398438 3.40625 19.589844 L 2.933594 20.0625 C 2.820312 20.175781 2.820312 20.285156 2.933594 20.398438 L 4.175781 21.640625 C 4.285156 21.753906 4.398438 21.753906 4.511719 21.640625 L 5 21.152344 C 5.1875 21.25 5.386719 21.332031 5.589844 21.394531 L 5.589844 22.0625 C 5.589844 22.222656 5.667969 22.300781 5.828125 22.300781 L 7.582031 22.300781 C 7.742188 22.300781 7.820312 22.222656 7.820312 22.0625 L 7.820312 21.375 C 8.023438 21.308594 8.222656 21.226562 8.410156 21.125 L 8.878906 21.601562 C 8.925781 21.644531 8.984375 21.667969 9.050781 21.667969 C 9.113281 21.667969 9.171875 21.648438 9.21875 21.601562 L 10.460938 20.359375 C 10.570312 20.246094 10.570312 20.132812 10.460938 20.019531 L 9.972656 19.535156 C 10.074219 19.34375 10.152344 19.148438 10.214844 18.941406 L 10.882812 18.941406 C 11.042969 18.941406 11.121094 18.863281 11.121094 18.703125 L 11.121094 16.949219 C 11.121094 16.789062 11.042969 16.710938 10.882812 16.710938 Z M 6.675781 19.664062 C 6.433594 19.664062 6.203125 19.617188 5.984375 19.523438 C 5.761719 19.433594 5.566406 19.300781 5.398438 19.132812 C 5.226562 18.960938 5.097656 18.765625 5.003906 18.542969 C 4.914062 18.324219 4.867188 18.09375 4.867188 17.851562 C 4.867188 17.613281 4.914062 17.382812 5.007812 17.160156 C 5.097656 16.9375 5.230469 16.742188 5.398438 16.574219 C 5.570312 16.40625 5.765625 16.273438 5.988281 16.183594 C 6.210938 16.089844 6.441406 16.046875 6.679688 16.046875 C 6.917969 16.046875 7.152344 16.09375 7.371094 16.183594 C 7.59375 16.277344 7.789062 16.40625 7.957031 16.578125 C 8.128906 16.746094 8.257812 16.941406 8.351562 17.164062 C 8.441406 17.386719 8.488281 17.617188 8.488281 17.855469 C 8.484375 18.097656 8.441406 18.328125 8.347656 18.550781 C 8.253906 18.769531 8.125 18.964844 7.953125 19.136719 C 7.785156 19.304688 7.589844 19.433594 7.367188 19.527344 C 7.144531 19.617188 6.914062 19.664062 6.675781 19.664062 Z M 6.675781 19.664062 " fill-opacity="1" fill-rule="nonzero"/></g><g clip-path="url(#6f34ad3317)"><path fill="#c4942e" d="M 27.519531 13.765625 C 27.019531 13.765625 26.542969 13.859375 26.082031 14.050781 C 25.621094 14.242188 25.21875 14.511719 24.867188 14.863281 C 24.515625 15.214844 24.242188 15.621094 24.050781 16.082031 C 23.863281 16.539062 23.765625 17.019531 23.765625 17.515625 C 23.765625 18.011719 23.863281 18.492188 24.050781 18.953125 C 24.242188 19.410156 24.515625 19.816406 24.867188 20.167969 C 25.21875 20.519531 25.621094 20.792969 26.082031 20.980469 C 26.542969 21.171875 27.019531 21.265625 27.519531 21.265625 C 28.015625 21.265625 28.492188 21.171875 28.953125 20.980469 C 29.414062 20.792969 29.820312 20.519531 30.171875 20.167969 C 30.523438 19.816406 30.792969 19.410156 30.984375 18.953125 C 31.175781 18.492188 31.269531 18.011719 31.269531 17.515625 C 31.269531 17.019531 31.171875 16.539062 30.984375 16.082031 C 30.792969 15.621094 30.519531 15.214844 30.167969 14.863281 C 29.816406 14.511719 29.414062 14.242188 28.953125 14.050781 C 28.492188 13.859375 28.015625 13.765625 27.519531 13.765625 Z M 29.660156 16.542969 L 27.972656 19.125 C 27.875 19.273438 27.738281 19.375 27.566406 19.429688 C 27.394531 19.480469 27.226562 19.46875 27.0625 19.398438 L 25.613281 18.777344 C 25.46875 18.714844 25.425781 18.609375 25.488281 18.464844 L 25.886719 17.539062 C 25.914062 17.480469 25.957031 17.4375 26.019531 17.414062 C 26.078125 17.390625 26.140625 17.390625 26.199219 17.417969 L 27.074219 17.792969 L 28.421875 15.734375 C 28.507812 15.601562 28.617188 15.578125 28.75 15.664062 L 29.59375 16.214844 C 29.726562 16.300781 29.746094 16.410156 29.660156 16.542969 Z M 29.660156 16.542969 " fill-opacity="1" fill-rule="nonzero"/></g><g clip-path="url(#e9a895c30e)"><path fill="#c4942e" d="M 20.734375 24.457031 L 13.742188 24.457031 C 13.582031 24.457031 13.503906 24.535156 13.503906 24.695312 L 13.503906 30.722656 C 13.503906 30.882812 13.582031 30.960938 13.742188 30.960938 L 20.734375 30.960938 C 20.890625 30.960938 20.972656 30.882812 20.972656 30.722656 L 20.972656 24.695312 C 20.972656 24.535156 20.890625 24.457031 20.734375 24.457031 Z M 17.667969 29.417969 L 14.957031 29.417969 C 14.796875 29.417969 14.71875 29.335938 14.71875 29.179688 C 14.71875 29.019531 14.796875 28.941406 14.957031 28.941406 L 17.667969 28.941406 C 17.828125 28.941406 17.90625 29.019531 17.90625 29.179688 C 17.90625 29.335938 17.828125 29.417969 17.667969 29.417969 Z M 18.503906 27.949219 L 14.957031 27.949219 C 14.796875 27.949219 14.71875 27.867188 14.71875 27.710938 C 14.71875 27.550781 14.796875 27.472656 14.957031 27.472656 L 18.503906 27.472656 C 18.664062 27.472656 18.742188 27.550781 18.742188 27.710938 C 18.742188 27.867188 18.664062 27.949219 18.503906 27.949219 Z M 19.214844 26.351562 L 14.957031 26.351562 C 14.796875 26.351562 14.71875 26.273438 14.71875 26.113281 C 14.71875 25.953125 14.796875 25.875 14.957031 25.875 L 19.214844 25.875 C 19.371094 25.875 19.449219 25.953125 19.449219 26.113281 C 19.449219 26.273438 19.371094 26.351562 19.214844 26.351562 Z M 19.214844 26.351562 " fill-opacity="1" fill-rule="nonzero"/></g><path fill="#c4942e" d="M 27.074219 12.480469 L 25.265625 12.066406 C 25.113281 12.03125 25.015625 12.089844 24.980469 12.246094 C 24.945312 12.402344 25.003906 12.496094 25.160156 12.53125 L 27.464844 13.058594 C 27.515625 13.070312 27.5625 13.066406 27.613281 13.042969 C 27.613281 13.042969 27.617188 13.042969 27.621094 13.042969 C 27.628906 13.039062 27.632812 13.035156 27.636719 13.03125 C 27.652344 13.019531 27.667969 13.007812 27.683594 12.996094 C 27.691406 12.988281 27.699219 12.980469 27.703125 12.972656 C 27.722656 12.949219 27.734375 12.921875 27.746094 12.894531 C 27.746094 12.890625 27.75 12.886719 27.75 12.878906 L 28.285156 10.539062 C 28.324219 10.386719 28.261719 10.292969 28.109375 10.253906 C 27.953125 10.21875 27.859375 10.28125 27.824219 10.433594 L 27.429688 12.144531 C 26.789062 10.984375 25.976562 9.960938 24.992188 9.074219 C 24.007812 8.183594 22.90625 7.484375 21.683594 6.96875 C 21.539062 6.90625 21.433594 6.945312 21.371094 7.09375 C 21.308594 7.238281 21.351562 7.34375 21.5 7.40625 C 22.691406 7.910156 23.765625 8.597656 24.71875 9.46875 C 25.675781 10.339844 26.460938 11.34375 27.074219 12.480469 Z M 27.074219 12.480469 " fill-opacity="1" fill-rule="nonzero"/><path fill="#c4942e" d="M 12.800781 7.171875 C 12.800781 7.15625 12.796875 7.140625 12.792969 7.125 C 12.789062 7.117188 12.789062 7.105469 12.785156 7.097656 C 12.785156 7.09375 12.777344 7.089844 12.777344 7.082031 C 12.773438 7.078125 12.773438 7.070312 12.769531 7.0625 C 12.75 7.046875 12.734375 7.027344 12.71875 7.011719 C 12.691406 6.992188 12.667969 6.976562 12.636719 6.964844 C 12.632812 6.964844 12.625 6.960938 12.621094 6.957031 L 10.28125 6.421875 C 10.125 6.386719 10.03125 6.445312 9.996094 6.601562 C 9.960938 6.753906 10.019531 6.851562 10.171875 6.886719 L 11.835938 7.269531 C 9.71875 8.324219 8.0625 9.875 6.867188 11.917969 C 6.785156 12.054688 6.8125 12.164062 6.953125 12.242188 C 7.089844 12.324219 7.195312 12.292969 7.277344 12.15625 C 8.460938 10.132812 10.109375 8.613281 12.226562 7.605469 L 11.804688 9.441406 C 11.769531 9.597656 11.832031 9.691406 11.984375 9.726562 C 12.003906 9.730469 12.019531 9.734375 12.039062 9.734375 C 12.164062 9.734375 12.242188 9.671875 12.269531 9.550781 L 12.800781 7.242188 C 12.800781 7.21875 12.800781 7.195312 12.800781 7.171875 Z M 12.800781 7.171875 " fill-opacity="1" fill-rule="nonzero"/><path fill="#c4942e" d="M 12.085938 28.035156 C 10.203125 27.109375 8.695312 25.765625 7.558594 24 L 9.300781 24.398438 C 9.453125 24.433594 9.550781 24.375 9.585938 24.21875 C 9.621094 24.066406 9.5625 23.96875 9.40625 23.933594 L 7.113281 23.410156 L 7.109375 23.40625 L 7.101562 23.40625 C 7.09375 23.40625 7.082031 23.40625 7.074219 23.40625 C 7.054688 23.402344 7.035156 23.402344 7.015625 23.402344 C 6.992188 23.40625 6.964844 23.417969 6.941406 23.429688 C 6.941406 23.429688 6.9375 23.429688 6.933594 23.433594 L 6.929688 23.433594 C 6.929688 23.433594 6.925781 23.433594 6.921875 23.4375 C 6.867188 23.472656 6.832031 23.519531 6.816406 23.585938 L 6.28125 25.925781 C 6.246094 26.078125 6.304688 26.175781 6.457031 26.210938 C 6.476562 26.214844 6.496094 26.214844 6.511719 26.214844 C 6.636719 26.214844 6.714844 26.15625 6.742188 26.03125 L 7.152344 24.253906 C 8.335938 26.097656 9.910156 27.5 11.875 28.464844 C 12.015625 28.535156 12.125 28.5 12.195312 28.355469 C 12.265625 28.214844 12.226562 28.105469 12.085938 28.035156 Z M 12.085938 28.035156 " fill-opacity="1" fill-rule="nonzero"/><path fill="#c4942e" d="M 27.847656 22.144531 C 27.699219 22.082031 27.597656 22.125 27.535156 22.269531 C 26.585938 24.503906 25.074219 26.257812 23.003906 27.527344 L 23.410156 25.757812 C 23.445312 25.605469 23.386719 25.507812 23.230469 25.472656 C 23.078125 25.4375 22.980469 25.496094 22.945312 25.652344 L 22.417969 27.957031 C 22.417969 27.984375 22.417969 28.015625 22.414062 28.042969 C 22.417969 28.058594 22.421875 28.074219 22.429688 28.089844 C 22.433594 28.101562 22.4375 28.113281 22.441406 28.125 C 22.441406 28.128906 22.445312 28.128906 22.445312 28.132812 C 22.449219 28.132812 22.449219 28.136719 22.449219 28.136719 C 22.449219 28.140625 22.453125 28.144531 22.457031 28.148438 C 22.46875 28.164062 22.484375 28.183594 22.503906 28.195312 C 22.507812 28.199219 22.515625 28.203125 22.519531 28.207031 C 22.542969 28.222656 22.566406 28.234375 22.59375 28.242188 L 22.597656 28.242188 L 24.9375 28.78125 C 24.953125 28.785156 24.972656 28.785156 24.988281 28.785156 C 25.132812 28.785156 25.210938 28.714844 25.226562 28.574219 C 25.242188 28.433594 25.179688 28.347656 25.042969 28.316406 L 23.285156 27.914062 C 25.425781 26.589844 26.988281 24.769531 27.972656 22.453125 C 28.035156 22.308594 27.992188 22.203125 27.847656 22.144531 Z M 27.847656 22.144531 " fill-opacity="1" fill-rule="nonzero"/></svg>