<svg xmlns="http://www.w3.org/2000/svg" xmlns:xlink="http://www.w3.org/1999/xlink" width="45" zoomAndPan="magnify" viewBox="0 0 33.75 33.749998" height="45" preserveAspectRatio="xMidYMid meet" version="1.0"><defs><clipPath id="ed8d50e56f"><path d="M 7 19 L 23 19 L 23 26.441406 L 7 26.441406 Z M 7 19 " clip-rule="nonzero"/></clipPath><clipPath id="c927492d06"><path d="M 10 7.085938 L 25 7.085938 L 25 14 L 10 14 Z M 10 7.085938 " clip-rule="nonzero"/></clipPath><clipPath id="0c360dc19b"><path d="M 1.648438 16 L 4 16 L 4 19 L 1.648438 19 Z M 1.648438 16 " clip-rule="nonzero"/></clipPath></defs><path fill="#c4942e" d="M 23.917969 23.316406 L 23.402344 23.070312 L 23.386719 23.066406 L 23.378906 23.058594 L 21.546875 22.199219 L 23.699219 20.707031 Z M 23.917969 23.316406 " fill-opacity="1" fill-rule="nonzero"/><g clip-path="url(#ed8d50e56f)"><path fill="#c4942e" d="M 22.609375 23.539062 C 21.164062 25.125 19.207031 26.117188 17.050781 26.34375 C 12.703125 26.804688 8.683594 23.941406 7.636719 19.757812 C 7.730469 19.769531 7.828125 19.777344 7.925781 19.777344 C 8.136719 19.777344 8.34375 19.75 8.539062 19.699219 C 9.015625 21.460938 10.078125 22.996094 11.578125 24.058594 C 12.917969 25.011719 14.5 25.511719 16.125 25.511719 C 16.472656 25.511719 16.816406 25.488281 17.15625 25.445312 C 18.90625 25.21875 20.535156 24.40625 21.761719 23.148438 Z M 22.609375 23.539062 " fill-opacity="1" fill-rule="nonzero"/></g><path fill="#c4942e" d="M 9.605469 17.335938 C 9.605469 18.257812 8.851562 19.015625 7.925781 19.015625 C 7.003906 19.015625 6.246094 18.257812 6.246094 17.335938 C 6.246094 16.410156 7.003906 15.65625 7.925781 15.65625 C 8.851562 15.660156 9.605469 16.410156 9.605469 17.335938 Z M 9.605469 17.335938 " fill-opacity="1" fill-rule="nonzero"/><path fill="#c4942e" d="M 11.507812 10.847656 L 9.265625 12.214844 L 9.203125 9.597656 L 9.707031 9.875 L 11.210938 10.691406 L 11.21875 10.691406 Z M 11.507812 10.847656 " fill-opacity="1" fill-rule="nonzero"/><g clip-path="url(#c927492d06)"><path fill="#c4942e" d="M 24.820312 13.132812 C 24.78125 13.132812 24.738281 13.125 24.699219 13.125 C 24.429688 13.125 24.164062 13.167969 23.925781 13.25 C 22.699219 9.746094 19.105469 7.53125 15.394531 8.046875 C 13.878906 8.261719 12.480469 8.890625 11.335938 9.886719 L 10.519531 9.445312 C 11.867188 8.1875 13.597656 7.382812 15.433594 7.160156 C 19.609375 6.652344 23.542969 9.195312 24.820312 13.132812 Z M 24.820312 13.132812 " fill-opacity="1" fill-rule="nonzero"/></g><path fill="#c4942e" d="M 26.386719 15.566406 C 26.386719 15.789062 26.34375 16.003906 26.257812 16.210938 C 26.171875 16.414062 26.050781 16.597656 25.894531 16.753906 C 25.738281 16.910156 25.554688 17.035156 25.347656 17.117188 C 25.144531 17.203125 24.929688 17.246094 24.707031 17.246094 C 24.484375 17.246094 24.269531 17.203125 24.0625 17.117188 C 23.859375 17.035156 23.675781 16.910156 23.519531 16.753906 C 23.359375 16.597656 23.238281 16.414062 23.15625 16.210938 C 23.070312 16.003906 23.027344 15.789062 23.027344 15.566406 C 23.027344 15.34375 23.070312 15.128906 23.15625 14.925781 C 23.238281 14.71875 23.359375 14.535156 23.519531 14.378906 C 23.675781 14.222656 23.859375 14.101562 24.0625 14.015625 C 24.269531 13.929688 24.484375 13.886719 24.707031 13.886719 C 24.929688 13.886719 25.144531 13.929688 25.347656 14.015625 C 25.554688 14.101562 25.738281 14.222656 25.894531 14.378906 C 26.050781 14.535156 26.171875 14.71875 26.257812 14.925781 C 26.34375 15.128906 26.386719 15.34375 26.386719 15.566406 Z M 26.386719 15.566406 " fill-opacity="1" fill-rule="nonzero"/><path fill="#c4942e" d="M 29.621094 15.1875 L 29.621094 15.949219 L 27.109375 15.949219 C 27.128906 15.824219 27.140625 15.699219 27.140625 15.566406 C 27.140625 15.433594 27.128906 15.308594 27.109375 15.183594 L 29.621094 15.183594 Z M 29.621094 15.1875 " fill-opacity="1" fill-rule="nonzero"/><path fill="#c4942e" d="M 5.488281 17.335938 C 5.488281 17.464844 5.5 17.59375 5.519531 17.71875 L 3.875 17.71875 L 3.875 16.957031 L 5.519531 16.957031 C 5.5 17.082031 5.488281 17.207031 5.488281 17.335938 Z M 5.488281 17.335938 " fill-opacity="1" fill-rule="nonzero"/><g clip-path="url(#0c360dc19b)"><path fill="#c4942e" d="M 3.113281 17.320312 C 3.113281 17.328125 3.113281 17.328125 3.113281 17.335938 C 3.113281 17.339844 3.113281 17.339844 3.113281 17.347656 L 3.113281 18.175781 L 1.648438 17.335938 L 3.113281 16.492188 Z M 3.113281 17.320312 " fill-opacity="1" fill-rule="nonzero"/></g><path fill="#c4942e" d="M 31.847656 15.566406 L 30.382812 16.410156 L 30.382812 15.578125 C 30.382812 15.574219 30.382812 15.574219 30.382812 15.566406 C 30.382812 15.558594 30.382812 15.558594 30.382812 15.554688 L 30.382812 14.722656 Z M 31.847656 15.566406 " fill-opacity="1" fill-rule="nonzero"/><path fill="#c4942e" d="M 20.367188 16.511719 L 20.019531 16.511719 C 19.835938 16.511719 19.6875 16.382812 19.648438 16.207031 C 19.554688 15.769531 19.382812 15.351562 19.136719 14.976562 C 19.039062 14.824219 19.058594 14.621094 19.1875 14.496094 L 19.433594 14.25 L 19.410156 13.671875 L 18.832031 13.648438 L 18.585938 13.894531 C 18.460938 14.019531 18.257812 14.039062 18.105469 13.945312 C 17.730469 13.699219 17.3125 13.523438 16.875 13.433594 C 16.699219 13.394531 16.570312 13.238281 16.570312 13.0625 L 16.570312 12.710938 L 16.144531 12.320312 L 15.714844 12.710938 L 15.714844 13.0625 C 15.714844 13.246094 15.589844 13.394531 15.414062 13.433594 C 14.972656 13.523438 14.558594 13.699219 14.179688 13.945312 C 14.03125 14.042969 13.828125 14.023438 13.703125 13.894531 L 13.449219 13.648438 L 12.871094 13.671875 L 12.847656 14.25 L 13.097656 14.496094 C 13.226562 14.621094 13.242188 14.824219 13.148438 14.976562 C 12.898438 15.351562 12.726562 15.769531 12.640625 16.207031 C 12.601562 16.382812 12.445312 16.511719 12.269531 16.511719 L 11.917969 16.511719 L 11.527344 16.9375 L 11.917969 17.367188 L 12.269531 17.367188 C 12.449219 17.367188 12.601562 17.492188 12.640625 17.667969 C 12.734375 18.109375 12.902344 18.523438 13.148438 18.902344 C 13.25 19.050781 13.230469 19.253906 13.097656 19.378906 L 12.847656 19.632812 L 12.871094 20.210938 L 13.449219 20.234375 L 13.703125 19.984375 C 13.828125 19.855469 14.03125 19.839844 14.179688 19.933594 C 14.558594 20.183594 14.972656 20.355469 15.414062 20.441406 C 15.589844 20.480469 15.714844 20.636719 15.714844 20.8125 L 15.714844 21.164062 L 16.144531 21.554688 L 16.570312 21.164062 L 16.570312 20.8125 C 16.570312 20.632812 16.699219 20.480469 16.875 20.441406 C 17.3125 20.347656 17.730469 20.179688 18.105469 19.933594 C 18.257812 19.832031 18.460938 19.851562 18.585938 19.984375 L 18.832031 20.234375 L 19.410156 20.210938 L 19.433594 19.632812 L 19.1875 19.378906 C 19.0625 19.253906 19.039062 19.050781 19.136719 18.902344 C 19.382812 18.523438 19.558594 18.109375 19.648438 17.667969 C 19.6875 17.492188 19.84375 17.367188 20.019531 17.367188 L 20.371094 17.367188 L 20.761719 16.9375 Z M 16.136719 19.089844 C 14.949219 19.089844 13.984375 18.121094 13.984375 16.9375 C 13.984375 15.75 14.953125 14.785156 16.136719 14.785156 C 17.328125 14.785156 18.289062 15.75 18.289062 16.9375 C 18.296875 18.128906 17.328125 19.089844 16.136719 19.089844 Z M 16.136719 19.089844 " fill-opacity="1" fill-rule="nonzero"/><path fill="#c4942e" d="M 17.527344 16.9375 C 17.527344 17.121094 17.492188 17.300781 17.421875 17.46875 C 17.351562 17.640625 17.25 17.789062 17.121094 17.921875 C 16.992188 18.050781 16.839844 18.152344 16.667969 18.222656 C 16.5 18.292969 16.320312 18.328125 16.136719 18.328125 C 15.953125 18.328125 15.777344 18.292969 15.605469 18.222656 C 15.433594 18.152344 15.285156 18.050781 15.15625 17.921875 C 15.023438 17.789062 14.921875 17.640625 14.851562 17.46875 C 14.78125 17.300781 14.746094 17.121094 14.746094 16.9375 C 14.746094 16.753906 14.78125 16.578125 14.851562 16.40625 C 14.921875 16.234375 15.023438 16.085938 15.15625 15.957031 C 15.285156 15.824219 15.433594 15.722656 15.605469 15.652344 C 15.777344 15.582031 15.953125 15.546875 16.136719 15.546875 C 16.320312 15.546875 16.5 15.582031 16.667969 15.652344 C 16.839844 15.722656 16.992188 15.824219 17.121094 15.957031 C 17.25 16.085938 17.351562 16.234375 17.421875 16.40625 C 17.492188 16.578125 17.527344 16.753906 17.527344 16.9375 Z M 17.527344 16.9375 " fill-opacity="1" fill-rule="nonzero"/></svg>