<svg xmlns="http://www.w3.org/2000/svg" xmlns:xlink="http://www.w3.org/1999/xlink" width="45" zoomAndPan="magnify" viewBox="0 0 33.75 33.749998" height="45" preserveAspectRatio="xMidYMid meet" version="1.0"><defs><clipPath id="6e88f69b0c"><path d="M 3.40625 1.933594 L 30.207031 1.933594 L 30.207031 31.714844 L 3.40625 31.714844 Z M 3.40625 1.933594 " clip-rule="nonzero"/></clipPath></defs><g clip-path="url(#6e88f69b0c)"><path fill="#c4942e" d="M 27.285156 14.257812 C 26.316406 17.863281 25.023438 20.839844 23.445312 23.113281 C 20.296875 27.652344 17.777344 29.332031 16.777344 29.863281 C 15.78125 29.332031 13.261719 27.652344 10.109375 23.113281 C 8.53125 20.839844 7.242188 17.863281 6.269531 14.257812 C 5.550781 11.585938 5.203125 9.269531 5.066406 8.152344 C 9.921875 3.847656 16.292969 3.546875 16.777344 3.53125 C 17.007812 3.539062 18.683594 3.617188 20.890625 4.207031 C 22.964844 4.761719 25.9375 5.890625 28.492188 8.152344 C 28.351562 9.269531 28.007812 11.585938 27.285156 14.257812 Z M 29.800781 7.1875 C 24.246094 2.066406 16.777344 1.933594 16.777344 1.933594 C 16.777344 1.933594 9.3125 2.066406 3.753906 7.1875 C 3.523438 7.402344 3.40625 7.714844 3.441406 8.027344 C 3.683594 10.113281 4.851562 18.332031 8.800781 24.023438 C 12.414062 29.234375 15.320312 30.953125 16.363281 31.4375 C 16.625 31.558594 16.929688 31.558594 17.195312 31.4375 C 18.238281 30.953125 21.140625 29.234375 24.757812 24.023438 C 28.707031 18.332031 29.875 10.113281 30.113281 8.027344 C 30.148438 7.714844 30.035156 7.402344 29.800781 7.1875 " fill-opacity="1" fill-rule="nonzero"/></g><path fill="#c4942e" d="M 17.554688 18.304688 C 17.589844 18.464844 17.472656 18.613281 17.308594 18.613281 L 16.246094 18.613281 C 16.085938 18.613281 15.964844 18.464844 16 18.304688 L 16.40625 16.511719 C 16.125 16.375 15.933594 16.085938 15.933594 15.753906 C 15.933594 15.265625 16.34375 14.875 16.839844 14.910156 C 17.253906 14.9375 17.59375 15.273438 17.621094 15.6875 C 17.648438 16.050781 17.449219 16.367188 17.152344 16.511719 Z M 20.226562 12.113281 L 13.332031 12.113281 C 12.847656 12.113281 12.453125 12.503906 12.453125 12.988281 L 12.453125 19.191406 C 12.453125 19.675781 12.847656 20.070312 13.332031 20.070312 L 20.226562 20.070312 C 20.710938 20.070312 21.101562 19.675781 21.101562 19.191406 L 21.101562 12.988281 C 21.101562 12.503906 20.710938 12.113281 20.226562 12.113281 " fill-opacity="1" fill-rule="nonzero"/><path fill="#c4942e" d="M 14.667969 10.871094 C 14.667969 9.707031 15.617188 8.761719 16.777344 8.761719 C 17.941406 8.761719 18.886719 9.707031 18.886719 10.871094 L 18.886719 11.742188 L 19.863281 11.742188 L 19.863281 10.871094 C 19.863281 9.167969 18.476562 7.785156 16.777344 7.785156 C 15.078125 7.785156 13.695312 9.167969 13.695312 10.871094 L 13.695312 11.742188 L 14.667969 11.742188 L 14.667969 10.871094 " fill-opacity="1" fill-rule="nonzero"/><path fill="#c4942e" d="M 13.941406 20.800781 L 19.617188 20.800781 C 19.835938 20.800781 20.019531 20.644531 20.066406 20.4375 L 13.492188 20.4375 C 13.535156 20.644531 13.71875 20.800781 13.941406 20.800781 " fill-opacity="1" fill-rule="nonzero"/></svg>