<?xml version="1.0" encoding="UTF-8"?>
<svg id="Layer_1" data-name="Layer 1" xmlns="http://www.w3.org/2000/svg" xmlns:xlink="http://www.w3.org/1999/xlink" viewBox="0 0 56 56">
  <defs>
    <style>
      .cls-1 {
        fill: none;
      }

      .cls-2 {
        fill: #4fa4f4;
      }

      .cls-3 {
        clip-path: url(#clippath-1);
      }

      .cls-4 {
        clip-path: url(#clippath-3);
      }

      .cls-5 {
        clip-path: url(#clippath-2);
      }

      .cls-6 {
        clip-path: url(#clippath);
      }
    </style>
    <clipPath id="clippath">
      <rect class="cls-1" x=".918206" y="11.704691" width="52.739586" height="41.333336"/>
    </clipPath>
    <clipPath id="clippath-1">
      <rect class="cls-1" x="36.689042" y="9.173441" width="5.333332" height="3.864586"/>
    </clipPath>
    <clipPath id="clippath-2">
      <rect class="cls-1" x="28.68904" y="9.173441" width="8.000002" height="5.197918"/>
    </clipPath>
    <clipPath id="clippath-3">
      <rect class="cls-1" x="24.68904" y="9.173441" width="5.333334" height="3.864586"/>
    </clipPath>
  </defs>
  <path class="cls-2" d="M27.303623,26.7724c-.369792-1.677083-.578125-3.36979-.625-5.088542h-5.182292c.203125,2.385418,1.057292,4.5,2.572917,6.354167,1.036458-.53125,2.114583-.953125,3.234375-1.265625Z"/>
  <path class="cls-2" d="M25.418207,29.439066c1.114583.984375,2.369792,1.729167,3.770833,2.234375-.614583-.963542-1.088542-1.989583-1.4375-3.083333-.796875.223958-1.578125.505208-2.333333.848958Z"/>
  <path class="cls-2" d="M29.694249,28.194275c.885417,2.59375,2.177083,4.140625,3.385417,4.140625,1.203125,0,2.494792-1.546875,3.380208-4.140625-2.255208-.364583-4.510417-.364583-6.765625,0Z"/>
  <path class="cls-2" d="M37.553624,21.683858h-8.953125c.046875,1.588542.234375,3.161458.578125,4.713542,2.598958-.442708,5.197917-.442708,7.802084,0,.348958-1.552083.541667-3.125.572917-4.713542Z"/>
  <path class="cls-2" d="M38.329665,28.590108c-.348958,1.09375-.822917,2.119792-1.432292,3.083333,1.395833-.5,2.65625-1.244792,3.765625-2.234375-.755208-.34375-1.53125-.625-2.333333-.848958Z"/>
  <path class="cls-2" d="M44.631749,21.683858h-5.182292c-.046875,1.718751-.255208,3.411458-.625,5.088542,1.140625.302083,2.229167.723958,3.270833,1.265625,1.5-1.859375,2.34375-3.973958,2.536458-6.354167Z"/>
  <g class="cls-6">
    <path class="cls-2" d="M51.032791,20.741149h-4.479167c0,.885417-.083333,1.760417-.260417,2.630208-.171875.869792-.427083,1.708333-.765625,2.526042s-.755208,1.59375-1.244792,2.333333c-.489583.734375-1.052083,1.416667-1.677083,2.041667s-1.307292,1.182292-2.041667,1.677083c-.734375.489583-1.510417.90625-2.328125,1.244792s-1.661458.59375-2.526042.765625c-.869792.171875-1.744792.260417-2.630208.260417s-1.760417-.088542-2.630208-.260417-1.708333-.427083-2.526042-.765625-1.59375-.755208-2.333333-1.244792c-.734375-.494792-1.416667-1.052083-2.041667-1.677083s-1.182292-1.307292-1.677083-2.041667c-.489583-.739583-.90625-1.515625-1.244792-2.333333s-.593751-1.65625-.765625-2.526042c-.171875-.869792-.260417-1.744792-.260417-2.630208h-6.171874l-1.119793-5.651043c-.078125-.411457-.229167-.796874-.44271-1.156249-.21354-.359374-.484374-.671874-.80729-.9375s-.682292-.468749-1.072917-.609374c-.395833-.140626-.802082-.213543-1.218749-.208333H1.855706c-.260416,0-.479167.088541-.661459.276041-.1875.182292-.276041.406251-.276041.666667,0,.255208.088541.479167.276041.661459.182292.1875.401043.276041.661459.276041h6.911459c.411458.005208.776041.135417,1.093749.395833.322917.265625.520834.598958.598959,1l5.479167,27.468751c.109375.567708.317708,1.098958.614585,1.59375.296874.494792.671874.927083,1.114582,1.291667.447915.369792.942708.651042,1.489582.84375.541667.197917,1.104169.296875,1.677085.296875h2.885417c-.3125.307292-.552083.661458-.723958,1.0625s-.255208.822917-.260417,1.255208c-.005208.4375.078125.859375.244792,1.265625.161458.401042.401042.760417.708333,1.072917.307292.307292.661458.546875,1.067708.713542.401042.166667.822917.25,1.260417.25s.854167-.083333,1.260417-.25c.401042-.166667.755208-.40625,1.0625-.713542.3125-.3125.546875-.671875.713542-1.072917.161458-.40625.244792-.828125.239583-1.265625,0-.432292-.088542-.854167-.260417-1.255208-.166667-.401042-.411458-.755208-.723958-1.0625h9.359375c-.447917.411458-.75.911458-.921875,1.494792-.166667.583333-.171875,1.166667-.015625,1.75.15625.588542.453125,1.088542.890625,1.510417s.953125.697917,1.546875.833333c.34375.083333.697917.109375,1.052083.072917.354167-.03125.697917-.119792,1.026042-.265625.322917-.140625.619792-.333333.885417-.572917.260417-.239583.479167-.515625.65625-.828125.171875-.3125.291667-.645833.359375-.994792.0625-.354167.072917-.703125.020833-1.057292-.046875-.354167-.151042-.692708-.3125-1.010417-.15625-.317708-.364583-.604167-.619792-.859375h3.348958c.260417,0,.479167-.088542.666667-.276042.182292-.182292.276042-.401042.276042-.661458s-.09375-.484375-.276042-.666667c-.1875-.1875-.40625-.276042-.666667-.276042h-24.750001c-.359375,0-.708333-.0625-1.046875-.182292-.338543-.119792-.645833-.296875-.927083-.526042-.276042-.229167-.510417-.494792-.692708-.807292-.1875-.307292-.3125-.640625-.385418-.994792l-.52604-2.635417h29.890626c.630208,0,1.192708-.1875,1.692708-.572917.5-.380208.833333-.875.994792-1.484375l3.765625-13.984375c.088542-.390625.083333-.776042-.005208-1.166667-.09375-.390625-.260417-.739585-.510417-1.052082-.25-.312503-.557292-.557293-.916667-.729169-.359375-.171874-.739583-.260415-1.135417-.265624Z"/>
  </g>
  <g class="cls-3">
    <path class="cls-2" d="M40.709874,12.017191c-1.114583-.984374-2.369792-1.729167-3.765625-2.234374.609375.968749,1.083333,1.994792,1.432292,3.083333.796875-.223959,1.578125-.505208,2.333333-.848959Z"/>
  </g>
  <path class="cls-2" d="M39.449457,19.79844h5.182292c-.197917-2.36979-1.046875-4.479164-2.546875-6.333333-1.041667.531251-2.125.942709-3.260417,1.239584.375,1.677082.578125,3.375.625,5.093749Z"/>
  <path class="cls-2" d="M36.980707,15.105733c-1.291667.223958-2.59375.333333-3.901042.333333s-2.604167-.109375-3.890625-.333333c-.34375,1.552083-.536458,3.125-.578125,4.713543h8.953125c-.036458-1.588543-.229167-3.16146-.583333-4.713543Z"/>
  <g class="cls-5">
    <path class="cls-2" d="M36.459874,13.277608c-.885417-2.588543-2.177083-4.088543-3.380208-4.088543-1.208333,0-2.5,1.536459-3.385417,4.13021,1.119792.177083,2.25.265624,3.385417.270832,1.135417-.015624,2.260417-.11979,3.380208-.312499Z"/>
  </g>
  <g class="cls-4">
    <path class="cls-2" d="M29.261957,9.80365c-1.421875.489582-2.703125,1.229167-3.84375,2.213541.770833.348959,1.5625.625,2.385417.838541.354167-1.083333.838542-2.098958,1.458333-3.052082Z"/>
  </g>
  <path class="cls-2" d="M27.303623,14.704691c-1.130208-.302082-2.21875-.713541-3.260417-1.239584-1.5,1.854169-2.348958,3.963542-2.546875,6.333333h5.182292c.046875-1.718749.25-3.416667.625-5.093749Z"/>
</svg>