<?xml version="1.0" encoding="UTF-8"?>
<svg id="Layer_1" data-name="Layer 1" xmlns="http://www.w3.org/2000/svg" xmlns:xlink="http://www.w3.org/1999/xlink" viewBox="0 0 56 56">
  <defs>
    <style>
      .cls-1 {
        fill: none;
      }

      .cls-2 {
        fill: #4fa4f4;
      }

      .cls-3 {
        clip-path: url(#clippath-1);
      }

      .cls-4 {
        clip-path: url(#clippath);
      }
    </style>
    <clipPath id="clippath">
      <rect class="cls-1" x=".651041" y="14.666668" width="4.682292" height="8"/>
    </clipPath>
    <clipPath id="clippath-1">
      <rect class="cls-1" x="26.666668" y="36" width="26.666668" height="14.28125"/>
    </clipPath>
  </defs>
  <path class="cls-2" d="M26.906251,31.510418c.046875-.036458.088542-.067708.145833-.09375.182292-.114583.380208-.213542.572917-.307292.270833-.453125.625-.84375,1.036458-1.151042v-6.765625H2.270833v18.218751h23.619792c-.098958-.375-.192708-.760417-.260417-1.151042v-.020833c-.010417-.083333-.036458-.151042-.046875-.229167-.03125-.161458-.057292-.317708-.067708-.46875-.010417-.067708-.020833-.135417-.020833-.203125-.015625-.114583-.026042-.229167-.036458-.34375-.010417-.078125-.010417-.171875-.020833-.25v-.067708c-.010417-.088542-.010417-.182292-.010417-.260417v-.09375c0-.114583-.015625-.213542-.015625-.328125v-2.109375c-.010417-.036458-.020833-.067708-.03125-.114583-.010417-.057292-.036458-.114583-.046875-.182292-.010417-.03125-.010417-.057292-.020833-.088542-.015625-.036458-.015625-.072917-.026042-.114583v-.036458c-.010417-.046875-.010417-.078125-.020833-.125v-.020833c0-.036458-.010417-.067708-.010417-.114583,0-.026042,0-.036458-.010417-.057292,0-.046875-.015625-.104167-.015625-.151042v-.15625c0-1.083333.458333-2.088542,1.21875-2.817708.072917-.067708.140625-.135417.21875-.192708.057292-.046875.114583-.088542.182292-.135417-.010417-.020833.020833-.046875.057292-.067708ZM23.234376,37.286459H7.703126c-.406251,0-.75-.34375-.75-.75,0-.421875.343749-.755208.75-.755208h15.53125c.411458,0,.755208.333333.755208.755208s-.34375.75-.755208.75ZM23.234376,28.817709H7.703126c-.406251,0-.75-.338542-.75-.75s.343749-.75.75-.75h15.53125c.411458,0,.755208.338542.755208.75s-.34375.75-.755208.75Z"/>
  <g class="cls-4">
    <path class="cls-2" d="M5.197917,15.098959l-4.546876,1.21875,1.390625,5.197917,2.770833-.739583.385417-5.677084Z"/>
  </g>
  <path class="cls-2" d="M10.75,13.619792l-4.026041,1.067708-.375,5.677085,4.020833-1.072918.380208-5.671875Z"/>
  <path class="cls-2" d="M16.307292,12.125l-4.020833,1.083333-.390625,5.677082,4.026042-1.083333.385417-5.677082Z"/>
  <path class="cls-2" d="M21.859376,10.645834l-2.40625.635418-1.619792.43229-.375,5.677084,4.010417-1.083333.390625-5.661459Z"/>
  <path class="cls-2" d="M23.395834,10.223959v.010415l-.385417,5.661459,4.546875-1.208333-1.401042-5.203126-2.760417.739585Z"/>
  <g class="cls-3">
    <path class="cls-2" d="M26.869792,37.619793v.385417c0,.078125,0,.161458.015625.239583,0,.067708.010417.135417.010417.213542,0,.09375.010417.182292.020833.265625.010417.088542.010417.182292.026042.270833.020833.182292.041667.364583.067708.546875.010417.09375.03125.182292.041667.276042.036458.182292.072917.354167.104167.536458.020833.088542.046875.182292.057292.260417.114583.442708.239583.875.401042,1.3125.010417.020833.010417.041667.020833.057292,1.776042,4.838542,6.4375,8.307292,11.885417,8.307292,6.973959,0,12.661459-5.677084,12.661459-12.661459v-1.286458h-25.312501v1.276042Z"/>
  </g>
  <path class="cls-2" d="M51.875002,33.104168c-.026042-.03125-.046875-.057292-.067708-.088542-.036458-.036458-.057292-.067708-.09375-.104167l-.104167-.104167c-.03125-.03125-.067708-.067708-.114583-.098958-.020833-.026042-.052083-.046875-.078125-.072917-.03125-.020833-.067708-.041667-.104167-.067708-.03125-.020833-.052083-.041667-.088542-.057292-.036458-.020833-.067708-.041667-.104167-.057292-.020833-.010417-.041667-.020833-.067708-.03125-.03125-.010417-.057292-.036458-.088542-.046875-.036458-.010417-.067708-.03125-.104167-.046875-.020833-.010417-.057292-.020833-.078125-.03125-.140625-.057292-.286458-.104167-.4375-.135417-.03125-.015625-.078125-.015625-.109375-.026042-.026042-.010417-.057292-.010417-.083333-.010417-.03125,0-.078125-.010417-.114583-.010417-.041667,0-.088542-.010417-.135417-.010417h-.145833c-.239583,0-.489583.03125-.71875.088542-.307292.078125-.625-.03125-.807292-.296875-.494792-.682292-1.302083-1.09375-2.177083-1.09375-.458333,0-.911458.114583-1.302083.333333-.296875.15625-.661458.098958-.901042-.140625-.5-.510417-1.182292-.796875-1.911458-.796875-.317708,0-.630208.057292-.921875.161458-.046875.010417-.083333.020833-.125.03125-.255208.046875-.505208-.041667-.6875-.223958-.5-.546875-1.21875-.854167-1.96875-.854167-.84375,0-1.609375.364583-2.109375,1-.171875.21875-.442708.317708-.71875.276042-.145833-.026042-.307292-.036458-.46875-.036458-.557292,0-1.104167.171875-1.546875.479167-.067708.046875-.135417.078125-.208333.104167-.020833,0-.03125.010417-.052083.010417-.026042,0-.036458.010417-.057292.010417-.072917.010417-.151042.010417-.21875,0-.020833,0-.057292-.010417-.078125-.010417-.057292-.010417-.104167-.036458-.151042-.057292-.020833-.010417-.03125-.020833-.057292-.036458-.421875-.25-.895833-.385417-1.401042-.385417h-.229167c-.067708,0-.125.010417-.192708.020833-.041667.010417-.098958.010417-.145833.026042-.057292.010417-.114583.020833-.182292.041667-.036458.015625-.057292.015625-.09375.026042-.057292.020833-.114583.03125-.166667.057292-.026042.010417-.057292.020833-.083333.03125-.03125.015625-.067708.036458-.098958.046875-.057292.020833-.114583.057292-.161458.078125-.046875.026042-.09375.057292-.135417.083333-.046875.03125-.104167.067708-.151042.098958-.020833.015625-.046875.036458-.067708.057292-.020833.026042-.057292.046875-.078125.067708-.036458.026042-.057292.057292-.09375.083333l-.046875.046875-.098958.098958c-.026042.036458-.057292.067708-.083333.104167-.03125.03125-.052083.067708-.078125.114583-.010417.020833-.03125.046875-.046875.067708-.03125.046875-.067708.104167-.088542.145833-.010417.026042-.036458.057292-.046875.083333-.088542.166667-.239583.307292-.421875.364583-1.026042.354167-1.708333,1.286458-1.708333,2.3125v.088542h25.640626c.010417-.098958.020833-.192708.020833-.296875,0-.520833-.171875-1.010417-.46875-1.411458.026042.010417.026042,0,.015625,0Z"/>
  <path class="cls-2" d="M37.057293,19.682292l2.848958-1.515625-2.848958-1.526042v3.041667Z"/>
  <rect class="cls-1" x="20" y="4.375" width="35.348961" height="27.625"/>
  <path class="cls-2" d="M54.390627,4.401041H20.968749c-.52604,0-.958333.432292-.958333.958333v4.223959l2.453126-.661459c.010417,0,.03125-.010415.041667-.010415l3.979167-1.06771c.401042-.104165.807292.125.921875.531251l1.78125,6.656251c.052083.192707.020833.40104-.083333.572915-.098958.166667-.260417.291667-.453125.348958l-6.255209,1.677083h-.015625l-2.380208.635417v3.432292h9.411459c.411458,0,.755208.34375.755208.75v6.828125c.041667-.010417.078125-.020833.125-.020833.03125-.015625.067708-.015625.098958-.026042.015625,0,.036458-.010417.046875-.010417.036458,0,.067708-.010417.104167-.010417.046875-.010417.078125-.010417.125-.010417.078125-.010417.171875-.026042.25-.026042s.171875-.010417.25-.010417c.614583,0,1.21875.125,1.765625.390625.697917-.380208,1.494792-.552083,2.291667-.505208.776042-.796875,1.848958-1.25,3-1.25,1.010417,0,1.979167.364583,2.734375,1,.307292-.067708.635417-.114583.953125-.114583.947917,0,1.859375.317708,2.588542.880208.489583-.182292,1.005208-.286458,1.526042-.286458,1.1875,0,2.302083.489583,3.078125,1.34375.203125-.03125.411458-.046875.614583-.046875h.21875c.057292,0,.125.015625.182292.015625h.067708c.03125,0,.078125.010417.114583.010417h.03125c.026042,0,.046875.010417.057292.010417.114583.010417.21875.036458.317708.067708.036458.010417.057292.010417.083333.020833.010417,0,.03125.015625.046875.015625.041667.010417.088542.020833.125.03125.041667.010417.088542.026042.135417.046875.03125.010417.078125.036458.114583.046875.057292.020833.125.046875.182292.078125.057292.020833.125.057292.182292.078125.078125.036458.15625.083333.229167.125.041667.036458.098958.057292.145833.09375.036458.020833.078125.046875.114583.078125,0,0,.010417,0,.010417.010417.036458.026042.057292.036458.078125.057292.057292.036458.104167.083333.161458.114583.036458.036458.078125.057292.114583.09375.020833.020833.057292.046875.078125.067708.026042.020833.057292.046875.083333.078125.052083.046875.098958.104167.15625.161458.026042.020833.036458.03125.057292.057292h1.536458c.526042,0,.958333-.432292.958333-.958333V5.359375c.046875-.536457-.385417-.958333-.911458-.958333ZM37.677084,25.583334c-4.09375,0-7.421875-3.328125-7.421875-7.416667,0-4.093749,3.328125-7.421875,7.421875-7.421875,4.088542,0,7.416667,3.328126,7.416667,7.421875,0,4.088542-3.328125,7.416667-7.416667,7.416667Z"/>
  <path class="cls-2" d="M37.677084,12.239585c-3.260417,0-5.916667,2.656249-5.916667,5.916667,0,3.255207,2.65625,5.911457,5.916667,5.911457,3.255208,0,5.911459-2.65625,5.911459-5.911457.010417-3.260418-2.645833-5.916667-5.911459-5.916667ZM42.25521,18.166667c0,.270833-.145833.536458-.401042.661458l-5.182292,2.78125c-.114583.052083-.229167.088542-.354167.088542-.135417,0-.260417-.036458-.385417-.104167-.229167-.135417-.364583-.375001-.364583-.645832v-5.552085c0-.260418.135417-.510418.364583-.651042.229167-.135417.510417-.135417.739583-.020833l5.182292,2.78125c.239583.125.401042.375.401042.661458Z"/>
</svg>