<?xml version="1.0" encoding="UTF-8"?>
<svg id="Layer_1" data-name="Layer 1" xmlns="http://www.w3.org/2000/svg" xmlns:xlink="http://www.w3.org/1999/xlink" viewBox="0 0 56 56">
  <defs>
    <style>
      .cls-1 {
        fill: none;
      }

      .cls-2 {
        fill: #4fa4f4;
      }

      .cls-3 {
        clip-path: url(#clippath-1);
      }

      .cls-4 {
        clip-path: url(#clippath-3);
      }

      .cls-5 {
        clip-path: url(#clippath-4);
      }

      .cls-6 {
        clip-path: url(#clippath-2);
      }

      .cls-7 {
        clip-path: url(#clippath);
      }
    </style>
    <clipPath id="clippath">
      <rect class="cls-1" x="10.666667" y="49.333336" width="14.666667" height="4.369789"/>
    </clipPath>
    <clipPath id="clippath-1">
      <rect class="cls-1" x=".651041" y="22.666668" width="23.348959" height="26.666668"/>
    </clipPath>
    <clipPath id="clippath-2">
      <rect class="cls-1" x="32" y="22.666668" width="23.348961" height="26.666668"/>
    </clipPath>
    <clipPath id="clippath-3">
      <rect class="cls-1" x="30.666668" y="49.333336" width="14.666668" height="4.369789"/>
    </clipPath>
    <clipPath id="clippath-4">
      <rect class="cls-1" x="10.666667" y=".958332" width="34.666669" height="31.041668"/>
    </clipPath>
  </defs>
  <g class="cls-7">
    <path class="cls-2" d="M11.979167,49.963543h13.192709v3.770833h-13.192709v-3.770833Z"/>
  </g>
  <path class="cls-2" d="M6.598959,25.177084l1.901041,5.708334c.463541-.552083,1.057292-.947917,1.697917-1.192708l-2.562501-7.692709c-.24479-.744792-.781249-1.328125-1.489583-1.656251-.718751-.333333-1.510417-.348957-2.244792-.05729l-.197916.072917.635416,2.1875c1.052084.557292,1.875,1.479167,2.260418,2.630208Z"/>
  <g class="cls-3">
    <path class="cls-2" d="M13.864585,46.19271v1.885417h9.421874v-7.484375c0-.911458-.442708-1.770833-1.1875-2.296875l-9.223959-6.598959c-.932292-.661458-2.223959-.479167-2.932292.416667-.442708.546875-.572915,1.25-.406249,1.890625l.046874.151042.031251.088542c.130208.338542.359375.651042.656249.895833l7.005209,5.604167c.411458.322917.479167.916667.15104,1.317708-.322915.416667-.916667.484375-1.317707.151042l-7.015626-5.59375c-.677083-.557292-1.140624-1.28125-1.364583-2.072917l-2.921875-8.765625c-.265625-.791667-.859375-1.421875-1.609375-1.723958-.687501-.276042-1.442709-.276042-2.125,0l-.197917.072917,4.130208,14.03125c.161459.578125.5,1.067708.968751,1.432292l7.520833,5.854167c.239583.177083.369793.453125.369793.744792Z"/>
  </g>
  <g class="cls-6">
    <path class="cls-2" d="M54.927085,24.057292c-.682292-.276042-1.4375-.276042-2.125,0-.75.302083-1.34375.932292-1.609375,1.723958l-2.932292,8.78125c-.213542.78125-.677083,1.510417-1.354167,2.057292l-7.015625,5.59375c-.401042.333333-.994792.265625-1.317708-.151042-.328125-.401042-.260417-.994792.151042-1.317708l7.005209-5.604167c.291667-.239583.515625-.541667.645833-.880208.010417-.036458.020833-.072917.041667-.109375,0-.010417.036458-.104167.036458-.125v-.020833c.177083-.640625.046875-1.34375-.395833-1.890625-.71875-.895833-2-1.078125-2.932292-.416667l-9.223959,6.598959c-.744792.526042-1.1875,1.385417-1.1875,2.296875v7.484375h9.421875v-1.885417c0-.291667.130208-.567708.369792-.744792l7.520834-5.854167c.46875-.364583.807292-.854167.96875-1.432292l4.130208-14.03125-.197917-.072917Z"/>
  </g>
  <path class="cls-2" d="M47.500001,30.885418l1.901042-5.708334c.385417-1.151042,1.208333-2.072917,2.260417-2.640625l.635417-2.177083-.197917-.072917c-.734375-.291667-1.526042-.276043-2.244792.05729-.708333.328126-1.244792.91146-1.489583,1.666668l-2.5625,7.682292c.640625.244792,1.234375.640625,1.697917,1.192708Z"/>
  <g class="cls-4">
    <path class="cls-2" d="M30.828126,49.963543h13.192709v3.770833h-13.192709v-3.770833Z"/>
  </g>
  <g class="cls-5">
    <path class="cls-2" d="M44.963543,11.703125v-1.093751c0-5.338541-4.328125-9.651041-9.651042-9.651041h-.479167c-2.5625,0-5.015625,1.015625-6.822917,2.828125-1.8125-1.8125-4.270833-2.828125-6.822917-2.828125h-.479167c-5.338542,0-9.651042,4.322917-9.651042,9.651041v1.093751c0,2.760417,1.177083,5.380208,3.239583,7.21875l13.723959,12.192709,13.71875-12.192709c2.0625-1.828126,3.244792-4.458333,3.244792-7.21875h-.020833ZM33.656251,16.036459h-3.770833v3.770833h-3.770833v-3.770833h-3.770833v-3.770833h3.770833v-3.770833h3.770833v3.770833h3.770833v3.770833Z"/>
  </g>
</svg>