<?xml version="1.0" encoding="UTF-8"?>
<svg id="Layer_1" data-name="Layer 1" xmlns="http://www.w3.org/2000/svg" viewBox="0 0 56 56">
  <defs>
    <style>
      .cls-1 {
        fill: #4fa4f4;
        fill-rule: evenodd;
      }
    </style>
  </defs>
  <path class="cls-1" d="M27.929734,6.557292H10.153692V1.432291c0-.421876.343749-.765626.765626-.765626h23.453124c1.651042,0,3.041667,1.552083,3.041667,3.171875v5.546875c0,.416667.34375.75521.760417.75521h5.546875c1.619792,0,3.239583,1.447916,3.239583,3.114583v12.520834c-1.71875.114583-3.3125.6875-4.661458,1.598958v-6.447917c0-1.28125-.520833-2.427083-1.4375-3.3125l-9.619792-9.619793c-.890625-.916667-2.03125-1.437499-3.3125-1.437499ZM42.299526,51.932292h3.901042c.416667,0,.760417-.338542.760417-.760417v-6.4375c-1.71875-.114583-3.3125-.6875-4.661458-1.598958v8.796875ZM39.200568,8.359374h4.520833c.484375,0,.963542.078126,1.421875.218749l-6.161459-6.161458c.140625.458333.21875.932292.21875,1.421875v4.520833ZM36.757859,16.026041l-4.005208-4v4h4.005208ZM55.32036,35.255209c0,4.25-3.46875,7.713542-7.71875,7.713542-4.244792,0-7.713542-3.463542-7.713542-7.713542s3.46875-7.713542,7.713542-7.713542c4.25,0,7.71875,3.463542,7.71875,7.713542ZM52.221401,31.875c-.348958-.348958-.916667-.348958-1.265625,0l-4.75,4.755208-1.864583-2.59375c-.286458-.401042-.84375-.494792-1.244792-.208333s-.489583.84375-.203125,1.244792l2.46875,3.453125c.15625.213542.395833.348958.65625.369792h.072917c.234375,0,.463542-.09375.630208-.260417l5.5-5.5c.348958-.348958.348958-.911458,0-1.260417ZM38.106818,35.255209c0,2.427083.911458,4.645833,2.411458,6.322917v12.989584c0,.421875-.34375.765625-.765625.765625H4.4714c-.416667,0-.760416-.34375-.760416-.765625v-5.484375c.223957-.114583.437499-.276042.619791-.473958l12.583334-13.536459c.427083.552083.828125,1.130208,1.197917,1.729167-.13021.526042.005208,1.098958.416667,1.505208l1.171875,1.177083c.848958.848958,2.223958.848958,3.072917,0l4.28125-4.28125c.84375-.84375.84375-2.223958,0-3.067708l-1.177083-1.177083c-.40625-.411458-.984375-.546875-1.505208-.416667-2.708333-1.666667-5-3.958333-6.671875-6.666667.031249-.125.046875-.255208.046875-.390625,0-.421875-.161457-.817708-.458333-1.119792l-1.177083-1.171875c-.411458-.411458-.953125-.635415-1.536458-.635415-.578125,0-1.125.223957-1.536458.635415l-4.281249,4.28125c-.843751.84375-.843751,2.223958,0,3.067708l1.177082,1.177083c.296875.296875.697918.463542,1.119792.463542.130208,0,.260415-.015625.385415-.046875.59896.364583,1.177085.765625,1.734376,1.192708l-9.463541,8.796875V9.104167c0-.421875.343749-.765626.765624-.765626h23.453126c1.651042,0,3.041667,1.552084,3.041667,3.171875v5.541667c0,.416667.338542.760417.760417.760417h5.541667c1.625,0,3.244792,1.442708,3.244792,3.114583v8.005209c-1.5,1.677083-2.416667,3.895833-2.416667,6.322917h.005208ZM24.8464,17.958333c.489583,0,.890625-.40104.890625-.895833,0-.489583-.401042-.890625-.890625-.890625h-15.703126c-.489582,0-.890624.401042-.890624.890625,0,.494793.401042.895833.890624.895833h15.703126ZM32.122442,48.010417l-1.786458-3.088542c-.567708-.989583-1.552083-1.557292-2.692708-1.557292h-13.114584c-1.140625,0-2.125.567708-2.692707,1.557292l-1.786459,3.088542c-.343751.59375.088541,1.338542.776041,1.338542h20.520834c.6875,0,1.114583-.744792.776042-1.338542ZM35.966192,35.895834c0-.489583-.401042-.890625-.895833-.890625h-5.005208c-.494792,0-.895833.401042-.895833.890625,0,.494792.401042.895833.895833.895833h5.005208c.494792,0,.895833-.401042.895833-.895833ZM35.966192,29.619792c0-.494792-.401042-.890625-.895833-.890625h-5.677084c-.489583,0-.890625.395833-.890625.890625s.401042.890625.890625.890625h5.677084c.494792,0,.895833-.395833.895833-.890625ZM35.966192,23.34375c0-.494792-.401042-.895833-.895833-.895833h-12.453125c-.494792,0-.890625.401042-.890625.895833,0,.489583.395833.890625.890625.890625h12.453125c.494792,0,.895833-.401042.895833-.890625ZM27.643276,45.151042h-13.114584c-.494792,0-.90104.234375-1.145833.661458l-1.015625,1.75h17.437501l-1.015625-1.75c-.244792-.427083-.651042-.661458-1.145833-.661458ZM14.549525,32.484375L.851608,45.21875c-.223957.208333-.229167.552083-.015624.765625l1.421875,1.421875c.218749.21875.557291.208333.765624-.010417l12.734376-13.697917c-.385417-.421875-.786458-.822917-1.208333-1.213542ZM19.2839,35.317709l3.604167-3.604167c-2.526042-1.661458-4.692708-3.828125-6.354167-6.354167l-3.604167,3.604167c2.520833,1.661458,4.692708,3.828125,6.354167,6.354167ZM14.304734,22.453125l-4.281251,4.28125c-.151042.145833-.151042.395833,0,.546875l1.031251,1.03125,4.828125-4.828125-1.03125-1.03125c-.151042-.151042-.401042-.151042-.546875,0ZM21.513067,38.223959l4.28125-4.28125c.145833-.151042.145833-.401042,0-.546875l-1.03125-1.03125-4.833333,4.828125,1.036458,1.03125c.145833.145833.395833.145833.546875,0Z"/>
</svg>