<?xml version="1.0" encoding="UTF-8"?>
<svg id="Layer_1" data-name="Layer 1" xmlns="http://www.w3.org/2000/svg" viewBox="0 0 56 56">
  <defs>
    <style>
      .cls-1 {
        fill: #4fa4f4;
      }
    </style>
  </defs>
  <path class="cls-1" d="M27.765625,48.453126l-.640625.255208c.328125.015625.661458.026042.994792.026042,2.223958,0,4.421875-.354167,6.53125-1.052083.40625-.135417.84375.083333.979167.489583s-.088542.84375-.494792.979167c-2.265625.75-4.625,1.135417-7.015625,1.135417-.432292,0-.859375-.015625-1.291667-.041667l.614583.479167c.338542.265625.395833.75.135417,1.088542-.15625.197917-.385417.296875-.614583.296875-.166667,0-.333333-.052083-.473958-.161458l-2.6875-2.098958c-.28125-.119792-.479167-.395833-.479167-.71875v-.052083c.005208-.026042.005208-.052083.010417-.083333v-.020833l.015625-.078125c.005208-.005208.005208-.010417.005208-.015625.020833-.0625.041667-.119792.072917-.171875.005208-.005208.010417-.010417.010417-.020833.015625-.020833.03125-.036458.041667-.057292.005208-.005208.010417-.010417.015625-.020833.015625-.020833.036458-.041667.057292-.067708.005208,0,.010417-.005208.010417-.005208.020833-.020833.041667-.036458.0625-.052083.005208-.005208.010417-.010417.020833-.015625.020833-.015625.041667-.03125.0625-.041667.005208-.005208.010417-.005208.010417-.010417.03125-.015625.057292-.026042.088542-.041667l3.375-1.359375c.395833-.161458.848958.03125,1.010417.427083s-.03125.848958-.427083,1.010417ZM16.140624,28.729167v-1.458333c0-.838542.567708-1.567708,1.380208-1.770833l1.317708-.333333c.182292-.59375.421874-1.171875.71875-1.71875l-.703125-1.171875c-.427085-.723958-.3125-1.635415.276042-2.229167l1.036458-1.031249c.604167-.59896,1.494792-.708333,2.223958-.276043l1.171875.697917c.546875-.291667,1.125-.53125,1.71875-.708333l.338542-1.328125c.203125-.807292.932292-1.375,1.765625-1.375h1.458333c.838542,0,1.5625.567708,1.770833,1.375l.333333,1.328125c.598958.177083,1.171875.416667,1.723958.708333l1.171875-.697917c.713542-.427083,1.630208-.317708,2.223958.276043l1.03125,1.031249c.588542.593751.708333,1.505208.276042,2.223958l-.697917,1.177083c.291667.546875.53125,1.125.713542,1.71875l1.322917.333333c.8125.203125,1.380208.932292,1.380208,1.770833v1.458333c0,.838542-.567708,1.5625-1.380208,1.770833l-1.322917.333333c-.182292.59375-.421875,1.171875-.713542,1.71875l.697917,1.171875c.432292.723958.3125,1.635417-.276042,2.229167l-1.03125,1.03125c-.59375.59375-1.510417.703125-2.229167.270833l-1.166667-.692708c-.552083.291667-1.125.53125-1.723958.708333l-.333333,1.328125c-.208333.807292-.932292,1.375-1.770833,1.375h-1.458333c-.833333,0-1.5625-.567708-1.765625-1.375l-.338542-1.328125c-.59375-.177083-1.171875-.416667-1.71875-.708333l-1.171875.697917c-.729167.432292-1.619792.322917-2.223958-.270833l-1.036458-1.036458c-.588542-.59375-.703126-1.505208-.276042-2.223958l.703125-1.177083c-.296876-.552083-.536458-1.125-.71875-1.71875l-1.317708-.333333c-.8125-.203125-1.380208-.932292-1.380208-1.770833ZM28.119792,33.505208c3.03125,0,5.5-2.46875,5.5-5.505208s-2.46875-5.505208-5.5-5.505208c-3.036458,0-5.510417,2.46875-5.510417,5.505208s2.473958,5.505208,5.510417,5.505208ZM6.58854,33.765625c.093751.34375.406251.572917.75.572917.0625,0,.130208-.005208.197918-.026042.411458-.109375.661458-.536458.546874-.947917-.463541-1.744792-.697917-3.546875-.697917-5.364583,0-4.859375,1.713543-9.541667,4.781251-13.239584l-.156251.5625c-.109374.411458.13021.83854.546876.953125.067708.015625.135417.026042.203124.026042.338543,0,.651043-.22396.744793-.567708l.96354-3.510415.00521-.00521c.005208-.03125.010417-.0625.015626-.09375,0-.00521,0-.010417.005207-.015625,0-.026042,0-.052082.005208-.072918v-.031249c-.005208-.020833-.005208-.046875-.005208-.072915,0-.00521,0-.010418-.005207-.015626,0-.03125-.010418-.0625-.015626-.088543,0-.005207-.00521-.010415-.00521-.015624-.005207-.026043-.015624-.052083-.020831-.072917-.00521-.010417-.010418-.015624-.010418-.020833-.010418-.026042-.020833-.052083-.036458-.072917,0-.005207-.005208-.010417-.005208-.010417-.015625-.03125-.031249-.057293-.052085-.078124-.005207-.00521-.005207-.010418-.010415-.015626-.010415-.015625-.020833-.03125-.036458-.041667-.005208-.00521-.010417-.010417-.015624-.015625,0-.005208-.00521-.010415-.00521-.010415-.005208-.00521-.010417-.00521-.010417-.010418-.020833-.015625-.036458-.031249-.057292-.046875-.005208-.00521-.010415-.010417-.015625-.015625-.026042-.020833-.052083-.036458-.078124-.052082h-.00521c-.026042-.015626-.052083-.031251-.078124-.041667-.00521-.00521-.010418-.00521-.020836-.010417-.020831-.005208-.046874-.015626-.067707-.020833-.005208-.005208-.015626-.005208-.020833-.005208-.03125-.010418-.05729-.015626-.088542-.020833h-.015625c-.026042-.00521-.046875-.00521-.072917-.00521h-.03125c-.020833,0-.046875,0-.072917.00521h-.015625c-.031251.005208-.0625.010415-.093749.015625h-.00521l-3.520834.921874c-.411458.109375-.661458.53125-.552082.947917.104167.411458.531249.661458.942708.552083l.828125-.21354c-3.453125,4.015624-5.390625,9.177082-5.390625,14.526041,0,1.953125.255208,3.890625.755208,5.765625ZM.765624,43.65625v-3.385417c0-.291667.166667-.557292.421875-.692708l9.619792-4.932292c.21875-.114583.484375-.114583.708333,0l9.614584,4.932292c.260417.135417.421875.401042.421875.692708v3.385417c0,.270833-.140625.520833-.369792.661458-.125.078125-.265625.114583-.40625.114583-.11979,0-.239583-.026042-.354167-.083333l-.244793-.125v10.348959c0,.432292-.348957.776042-.77604.776042H2.916666c-.427083,0-.776041-.34375-.776041-.776042v-10.348959l-.244792.125c-.239583.119792-.526041.114583-.755208-.03125-.234375-.140625-.375-.390625-.375-.661458ZM18.625,43.427084l-7.463542-3.828125-7.468751,3.828125v10.375h2.119792v-8.046875c0-.427083.343751-.776042.776041-.776042h9.145834c.427083,0,.77604.348958.77604.776042v8.046875h2.114585v-10.375ZM16.270833,12.713541V1.427082c0-.432292.343751-.776041.770833-.776041h14.09375c.432292,0,.776042.343749.776042.776041v1.6875h4.104167c.244792,0,.46875.114584.614583.302084l3.171875,4.114583c.104167.135418.161458.302085.161458.473959v4.708333c0,.427085-.348958.776042-.776042.776042h-1.5c-.223958,1.19271-1.270833,2.098958-2.526042,2.098958s-2.307292-.906249-2.53125-2.098958h-7.692709c-.223958,1.19271-1.270833,2.098958-2.526042,2.098958s-2.307292-.906249-2.526043-2.098958h-2.843749c-.427082,0-.770833-.348957-.770833-.776042ZM36.182292,13.015626c0-.56771-.458333-1.026043-1.020833-1.026043s-1.026042.458333-1.026042,1.026043c0,.562497.458333,1.020831,1.026042,1.020831.5625,0,1.020833-.458333,1.020833-1.020831ZM31.911458,11.9375h.911458c.40625-.885417,1.302083-1.499999,2.338542-1.499999s1.927083.614582,2.338542,1.499999h.911458v-3.671874l-2.776042-3.598959h-3.723958v7.270833ZM23.4375,13.015626c0-.56771-.463542-1.026043-1.026042-1.026043-.567708,0-1.026042.458333-1.026042,1.026043,0,.562497.463542,1.020831,1.026042,1.020831s1.026042-.458333,1.026042-1.020831ZM41.989584,12.59375c4.359375,3.927083,6.859375,9.541667,6.859375,15.40625,0,.692708-.036458,1.380208-.104167,2.067708l-.260417-.703125c-.151042-.401042-.598958-.604167-1-.458333-.401042.151042-.604167.598958-.453125,1l1.270833,3.411458c.010417.026042.020833.057292.036458.083333.005208.010417.010417.015625.010417.020833.015625.020833.026042.041667.036458.0625.005208.005208.010417.010417.015625.020833.015625.020833.036458.046875.057292.067708l.010417.010417c.015625.015625.036458.036458.057292.052083l.015625.015625.0625.046875c.005208,0,.010417.005208.015625.005208.026042.020833.052083.036458.083333.046875,0,0,.005208,0,.005208.005208.026042.010417.052083.020833.078125.026042.010417.005208.020833.005208.026042.010417.010417.005208.020833.005208.03125.010417.010417,0,.020833,0,.03125.005208.010417,0,.015625.005208.020833.005208h.015625c.041667.005208.078125.010417.114583.010417h.005208c.036458,0,.072917-.005208.109375-.010417.010417,0,.020833-.005208.03125-.005208.036458-.005208.072917-.015625.109375-.026042l.005208-.005208c.036458-.010417.067708-.026042.098958-.041667.005208-.005208.015625-.010417.020833-.015625.036458-.015625.067708-.036458.09375-.057292l.005208-.005208c.03125-.020833.057292-.046875.078125-.072917.010417-.010417.015625-.015625.020833-.026042.010417-.005208.015625-.010417.020833-.015625l2.317708-2.8125c.276042-.328125.229167-.817708-.104167-1.088542-.328125-.270833-.817708-.229167-1.088542.104167l-.473958.572917c.078125-.770833.125-1.541667.125-2.317708,0-6.302084-2.6875-12.338543-7.375-16.557292-.317708-.286459-.807292-.260416-1.09375.057292-.286458.317708-.260417.807293.057292,1.09375ZM39.713542,40.604167c0-3.192708,2.598958-5.791667,5.791667-5.791667s5.791667,2.598958,5.791667,5.791667c0,1.994792-1.010417,3.755208-2.552083,4.796875,3.776042,1.338542,6.489584,4.942708,6.489584,9.171875,0,.432292-.34375.776042-.776042.776042h-17.906251c-.427083,0-.776042-.34375-.776042-.776042,0-4.229167,2.713542-7.833334,6.489584-9.171875-1.536458-1.041667-2.552083-2.802083-2.552083-4.796875ZM41.265625,40.604167c0,2.338542,1.901042,4.239583,4.239583,4.239583s4.239583-1.901042,4.239583-4.239583-1.901042-4.239583-4.239583-4.239583-4.239583,1.901042-4.239583,4.239583Z"/>
</svg>