<svg xmlns="http://www.w3.org/2000/svg" xmlns:xlink="http://www.w3.org/1999/xlink" width="45" zoomAndPan="magnify" viewBox="0 0 33.75 33.749998" height="45" preserveAspectRatio="xMidYMid meet" version="1.0"><defs><clipPath id="32c27335d8"><path d="M 1.59375 1.59375 L 32 1.59375 L 32 32 L 1.59375 32 Z M 1.59375 1.59375 " clip-rule="nonzero"/></clipPath></defs><g clip-path="url(#32c27335d8)"><path fill="#c4942e" d="M 16.675781 1.625 C 16.578125 1.632812 16.496094 1.664062 16.425781 1.707031 L 7.871094 7.246094 C 7.640625 7.398438 7.574219 7.710938 7.722656 7.941406 C 7.875 8.175781 8.183594 8.242188 8.417969 8.089844 L 8.648438 7.941406 L 8.648438 9.691406 C 10.257812 9.695312 11.738281 10.457031 12.660156 11.707031 L 18.753906 11.707031 C 19.03125 11.707031 19.238281 11.9375 19.238281 12.214844 L 19.238281 19.773438 L 18.226562 19.773438 L 18.226562 12.714844 L 13.253906 12.714844 C 13.828125 14.003906 13.789062 15.449219 13.324219 16.566406 C 12.558594 18.496094 10.730469 19.773438 8.640625 19.773438 L 2.09375 19.773438 C 1.816406 19.773438 1.59375 20 1.59375 20.277344 C 1.59375 20.554688 1.816406 20.78125 2.09375 20.78125 L 31.300781 20.78125 C 31.582031 20.78125 31.808594 20.554688 31.808594 20.277344 C 31.808594 19.996094 31.578125 19.773438 31.300781 19.773438 L 24.777344 19.773438 C 23.566406 19.765625 22.546875 18.902344 22.3125 17.761719 L 20.75 17.761719 C 20.472656 17.761719 20.246094 17.535156 20.246094 17.257812 C 20.246094 16.242188 20.246094 15.082031 20.246094 14.339844 C 20.261719 13.457031 20.984375 12.714844 21.878906 12.714844 L 22.453125 12.714844 L 23.824219 9.96875 C 23.914062 9.800781 24.085938 9.691406 24.273438 9.691406 L 24.78125 9.691406 L 24.78125 7.941406 L 25.011719 8.089844 C 25.246094 8.242188 25.554688 8.175781 25.707031 7.941406 C 25.859375 7.710938 25.792969 7.398438 25.558594 7.246094 L 16.96875 1.707031 C 16.886719 1.65625 16.789062 1.625 16.675781 1.625 Z M 29.304688 1.625 C 29.175781 1.632812 29.054688 1.6875 28.964844 1.777344 L 26.949219 3.789062 C 26.75 3.984375 26.75 4.304688 26.949219 4.503906 C 27.144531 4.703125 27.464844 4.703125 27.660156 4.503906 L 28.816406 3.351562 C 28.800781 4.660156 28.847656 6.011719 28.785156 7.300781 C 28.730469 7.886719 28.214844 8.179688 27.320312 8.179688 C 27.148438 8.179688 26.972656 8.179688 26.800781 8.179688 C 26.523438 8.183594 26.300781 8.40625 26.300781 8.683594 C 26.300781 8.960938 26.523438 9.1875 26.800781 9.1875 L 27.285156 9.1875 C 27.921875 9.1875 28.726562 9.074219 29.21875 8.574219 C 29.542969 8.253906 29.714844 7.855469 29.777344 7.457031 C 29.867188 6.101562 29.824219 4.785156 29.824219 3.34375 L 30.976562 4.503906 C 31.175781 4.699219 31.492188 4.699219 31.691406 4.503906 C 31.886719 4.304688 31.886719 3.984375 31.691406 3.789062 L 29.671875 1.777344 C 29.578125 1.675781 29.441406 1.625 29.304688 1.625 Z M 14.703125 5.660156 L 18.734375 5.660156 C 19.011719 5.660156 19.238281 5.882812 19.238281 6.164062 L 19.238281 10.195312 C 19.238281 10.472656 19.011719 10.699219 18.734375 10.699219 L 14.703125 10.699219 C 14.425781 10.699219 14.203125 10.472656 14.199219 10.195312 C 14.199219 8.847656 14.199219 7.511719 14.199219 6.164062 C 14.203125 5.882812 14.425781 5.660156 14.703125 5.660156 Z M 15.207031 6.667969 L 15.207031 7.679688 L 16.214844 7.679688 L 16.214844 6.667969 Z M 17.21875 6.667969 L 17.21875 7.679688 L 18.226562 7.679688 L 18.226562 6.667969 Z M 15.207031 8.6875 L 15.207031 9.691406 L 16.214844 9.691406 L 16.214844 8.6875 Z M 17.21875 8.6875 L 17.21875 9.691406 L 18.226562 9.691406 L 18.226562 8.6875 Z M 24.589844 10.699219 L 23.582031 12.714844 L 27.300781 12.714844 L 27.300781 10.699219 Z M 28.3125 10.699219 L 28.3125 12.714844 L 31.839844 12.714844 L 31.839844 10.699219 Z M 8.640625 10.699219 C 6.417969 10.699219 4.613281 12.507812 4.613281 14.734375 C 4.613281 16.960938 6.417969 18.765625 8.640625 18.765625 C 10.867188 18.765625 12.667969 16.960938 12.667969 14.734375 C 12.667969 12.507812 10.867188 10.699219 8.640625 10.699219 Z M 8.648438 11.707031 C 8.925781 11.707031 9.152344 11.933594 9.152344 12.21875 L 10.164062 12.21875 C 10.441406 12.21875 10.667969 12.445312 10.667969 12.722656 C 10.667969 13 10.441406 13.226562 10.164062 13.226562 L 9.152344 13.226562 L 9.152344 14.230469 C 9.984375 14.230469 10.667969 14.910156 10.667969 15.742188 C 10.667969 16.570312 9.984375 17.253906 9.152344 17.253906 C 9.152344 17.535156 8.925781 17.757812 8.648438 17.757812 C 8.367188 17.757812 8.144531 17.53125 8.144531 17.253906 L 7.144531 17.253906 C 6.863281 17.253906 6.640625 17.027344 6.640625 16.75 C 6.640625 16.472656 6.863281 16.246094 7.144531 16.246094 L 8.144531 16.246094 L 8.144531 15.238281 C 7.320312 15.238281 6.628906 14.558594 6.628906 13.730469 C 6.628906 12.898438 7.320312 12.21875 8.144531 12.21875 C 8.144531 11.9375 8.367188 11.707031 8.648438 11.707031 Z M 8.144531 13.226562 C 7.859375 13.226562 7.648438 13.445312 7.648438 13.730469 C 7.648438 14.011719 7.859375 14.230469 8.144531 14.230469 Z M 21.878906 13.726562 C 21.527344 13.726562 21.261719 13.992188 21.253906 14.359375 C 21.253906 14.96875 21.253906 15.890625 21.253906 16.75 L 22.3125 16.75 C 22.546875 15.605469 23.566406 14.734375 24.777344 14.734375 C 25.988281 14.734375 27.011719 15.605469 27.246094 16.75 L 31.839844 16.75 L 31.839844 13.726562 Z M 16.722656 14.734375 C 16.996094 14.734375 17.222656 14.960938 17.21875 15.238281 L 17.21875 15.742188 C 17.21875 16.019531 16.996094 16.242188 16.722656 16.246094 C 16.441406 16.246094 16.214844 16.019531 16.214844 15.742188 L 16.214844 15.238281 C 16.210938 14.960938 16.441406 14.734375 16.722656 14.734375 Z M 9.152344 15.238281 L 9.152344 16.246094 C 9.445312 16.246094 9.65625 16.03125 9.65625 15.742188 C 9.65625 15.453125 9.445312 15.238281 9.152344 15.238281 Z M 24.777344 15.734375 C 23.945312 15.734375 23.265625 16.414062 23.265625 17.25 C 23.265625 18.089844 23.945312 18.761719 24.777344 18.765625 C 25.617188 18.761719 26.292969 18.089844 26.292969 17.25 C 26.292969 16.414062 25.617188 15.734375 24.777344 15.734375 Z M 24.261719 21.816406 C 24.054688 21.820312 23.84375 21.851562 23.617188 21.914062 L 17.957031 23.511719 C 17.957031 23.527344 17.960938 23.539062 17.960938 23.554688 C 17.960938 24.523438 17.164062 25.316406 16.199219 25.320312 L 12.171875 25.332031 C 11.890625 25.332031 11.664062 25.105469 11.664062 24.828125 C 11.660156 24.550781 11.886719 24.324219 12.164062 24.324219 L 16.195312 24.3125 C 16.625 24.308594 16.953125 23.984375 16.953125 23.554688 C 16.953125 23.128906 16.625 22.800781 16.199219 22.800781 C 14.4375 22.804688 12.542969 22.828125 11.148438 22.824219 C 10.902344 22.824219 10.121094 23.144531 9.367188 23.515625 C 8.613281 23.886719 7.882812 24.3125 7.132812 24.3125 L 7.132812 31.367188 C 7.183594 31.367188 7.636719 31.398438 8.203125 31.445312 C 8.769531 31.492188 9.492188 31.558594 10.25 31.621094 C 11.757812 31.746094 13.375 31.875 14.183594 31.875 C 15.035156 31.875 16.011719 31.40625 17.152344 30.765625 C 18.292969 30.125 19.550781 29.277344 20.730469 28.4375 C 23.089844 26.753906 25.128906 25.074219 25.128906 25.074219 C 25.75 24.539062 26.148438 23.722656 25.882812 22.863281 C 25.726562 22.367188 25.316406 22.035156 24.894531 21.902344 C 24.671875 21.847656 24.464844 21.816406 24.261719 21.816406 Z M 2.09375 23.304688 C 1.816406 23.304688 1.59375 23.527344 1.59375 23.804688 L 1.59375 31.367188 C 1.59375 31.644531 1.816406 31.871094 2.09375 31.875 L 5.621094 31.875 C 5.902344 31.871094 6.125 31.644531 6.125 31.367188 L 6.125 23.804688 C 6.121094 23.527344 5.898438 23.304688 5.621094 23.304688 Z M 3.101562 24.3125 C 3.378906 24.3125 3.605469 24.535156 3.605469 24.816406 C 3.605469 25.09375 3.378906 25.320312 3.101562 25.320312 C 2.824219 25.320312 2.601562 25.09375 2.601562 24.816406 C 2.601562 24.535156 2.824219 24.3125 3.101562 24.3125 " fill-opacity="1" fill-rule="nonzero"/></g></svg>