<svg xmlns="http://www.w3.org/2000/svg" xmlns:xlink="http://www.w3.org/1999/xlink" width="45" zoomAndPan="magnify" viewBox="0 0 33.75 33.749998" height="45" preserveAspectRatio="xMidYMid meet" version="1.0"><defs><clipPath id="dabfb8222b"><path d="M 1.785156 1.785156 L 20 1.785156 L 20 31.566406 L 1.785156 31.566406 Z M 1.785156 1.785156 " clip-rule="nonzero"/></clipPath><clipPath id="9f436cc819"><path d="M 13 1.785156 L 31.566406 1.785156 L 31.566406 31.566406 L 13 31.566406 Z M 13 1.785156 " clip-rule="nonzero"/></clipPath></defs><g clip-path="url(#dabfb8222b)"><path fill="#c4942e" d="M 10.265625 27.714844 C 9.730469 27.714844 9.242188 27.929688 8.882812 28.273438 C 5.058594 25.671875 2.785156 21.394531 2.785156 16.746094 C 2.785156 9.046875 9.046875 2.785156 16.746094 2.785156 C 17.730469 2.785156 18.699219 2.882812 19.632812 3.082031 L 19.839844 2.105469 C 18.835938 1.890625 17.792969 1.785156 16.742188 1.785156 C 8.5 1.785156 1.785156 8.5 1.785156 16.746094 C 1.785156 21.746094 4.238281 26.339844 8.363281 29.128906 C 8.308594 29.3125 8.269531 29.507812 8.269531 29.710938 C 8.269531 30.8125 9.160156 31.707031 10.265625 31.707031 C 11.367188 31.707031 12.257812 30.8125 12.257812 29.710938 C 12.257812 28.609375 11.367188 27.714844 10.265625 27.714844 Z M 10.265625 27.714844 " fill-opacity="1" fill-rule="nonzero"/></g><g clip-path="url(#9f436cc819)"><path fill="#c4942e" d="M 25.128906 4.363281 C 25.183594 4.179688 25.222656 3.984375 25.222656 3.78125 C 25.222656 2.679688 24.332031 1.785156 23.230469 1.785156 C 22.125 1.785156 21.234375 2.679688 21.234375 3.78125 C 21.234375 4.882812 22.125 5.777344 23.230469 5.777344 C 23.761719 5.777344 24.25 5.5625 24.609375 5.21875 C 28.433594 7.820312 30.707031 12.097656 30.707031 16.746094 C 30.707031 24.445312 24.445312 30.707031 16.746094 30.707031 C 15.765625 30.707031 14.792969 30.609375 13.859375 30.410156 L 13.65625 31.386719 C 14.65625 31.601562 15.699219 31.707031 16.75 31.707031 C 25 31.707031 31.710938 24.992188 31.710938 16.746094 C 31.710938 11.746094 29.257812 7.152344 25.132812 4.363281 Z M 25.128906 4.363281 " fill-opacity="1" fill-rule="nonzero"/></g><path fill="#c4942e" d="M 19.738281 12.257812 C 19.738281 12.65625 19.664062 13.035156 19.511719 13.402344 C 19.359375 13.769531 19.140625 14.09375 18.863281 14.375 C 18.582031 14.65625 18.257812 14.871094 17.890625 15.023438 C 17.523438 15.175781 17.144531 15.25 16.746094 15.25 C 16.347656 15.25 15.96875 15.175781 15.601562 15.023438 C 15.234375 14.871094 14.910156 14.65625 14.628906 14.375 C 14.351562 14.09375 14.132812 13.769531 13.980469 13.402344 C 13.832031 13.035156 13.753906 12.65625 13.753906 12.257812 C 13.753906 11.863281 13.832031 11.480469 13.980469 11.113281 C 14.132812 10.746094 14.351562 10.421875 14.628906 10.144531 C 14.910156 9.863281 15.234375 9.644531 15.601562 9.496094 C 15.96875 9.34375 16.347656 9.265625 16.746094 9.265625 C 17.144531 9.265625 17.523438 9.34375 17.890625 9.496094 C 18.257812 9.644531 18.582031 9.863281 18.863281 10.144531 C 19.140625 10.421875 19.359375 10.746094 19.511719 11.113281 C 19.664062 11.480469 19.738281 11.863281 19.738281 12.257812 Z M 19.738281 12.257812 " fill-opacity="1" fill-rule="nonzero"/><path fill="#c4942e" d="M 14.90625 24.226562 L 21.734375 24.226562 C 22.007812 24.226562 22.230469 24 22.230469 23.726562 L 22.230469 17.742188 C 22.230469 16.367188 21.113281 15.25 19.738281 15.25 L 13.753906 15.25 C 12.941406 15.25 12.226562 15.644531 11.769531 16.246094 C 12.152344 16.246094 12.496094 16.472656 12.664062 16.820312 L 13.515625 18.636719 L 15.398438 18.925781 C 15.769531 18.980469 16.078125 19.238281 16.191406 19.59375 C 16.308594 19.949219 16.222656 20.339844 15.964844 20.605469 L 14.566406 22.03125 L 14.894531 24.0625 C 14.90625 24.117188 14.894531 24.167969 14.894531 24.222656 Z M 14.90625 24.226562 " fill-opacity="1" fill-rule="nonzero"/><path fill="#c4942e" d="M 12.835938 19.542969 L 11.757812 17.246094 L 10.683594 19.542969 L 8.269531 19.914062 L 10.015625 21.699219 L 9.601562 24.226562 L 11.757812 23.035156 L 13.917969 24.226562 L 13.503906 21.699219 L 15.25 19.914062 Z M 12.835938 19.542969 " fill-opacity="1" fill-rule="nonzero"/></svg>