<svg xmlns="http://www.w3.org/2000/svg" xmlns:xlink="http://www.w3.org/1999/xlink" width="45" zoomAndPan="magnify" viewBox="0 0 33.75 33.749998" height="45" preserveAspectRatio="xMidYMid meet" version="1.0"><defs><clipPath id="b9fd516e7f"><path d="M 2.300781 2.273438 L 17 2.273438 L 17 17 L 2.300781 17 Z M 2.300781 2.273438 " clip-rule="nonzero"/></clipPath><clipPath id="4bddce0e80"><path d="M 12 12 L 31.335938 12 L 31.335938 31.304688 L 12 31.304688 Z M 12 12 " clip-rule="nonzero"/></clipPath><clipPath id="4c119e20d2"><path d="M 13 2.273438 L 31.335938 2.273438 L 31.335938 17 L 13 17 Z M 13 2.273438 " clip-rule="nonzero"/></clipPath><clipPath id="f1ea3abf9e"><path d="M 2.300781 12 L 17 12 L 17 31.304688 L 2.300781 31.304688 Z M 2.300781 12 " clip-rule="nonzero"/></clipPath></defs><g clip-path="url(#b9fd516e7f)"><path fill="#c4942e" d="M 2.695312 6.242188 L 2.695312 4.074219 C 2.695312 3.851562 2.738281 3.640625 2.824219 3.433594 C 2.910156 3.226562 3.03125 3.046875 3.1875 2.890625 C 3.34375 2.734375 3.527344 2.613281 3.730469 2.527344 C 3.9375 2.441406 4.152344 2.398438 4.375 2.398438 L 14.890625 2.398438 C 15.113281 2.398438 15.328125 2.441406 15.53125 2.527344 C 15.738281 2.613281 15.917969 2.734375 16.074219 2.890625 C 16.234375 3.046875 16.355469 3.226562 16.4375 3.433594 C 16.523438 3.640625 16.566406 3.851562 16.566406 4.074219 L 16.566406 6.238281 C 16.578125 6.765625 16.519531 7.289062 16.386719 7.800781 L 16.140625 7.628906 C 15.972656 7.503906 15.796875 7.386719 15.617188 7.277344 C 15.238281 7.050781 14.828125 6.941406 14.386719 6.941406 C 13.71875 6.941406 13.144531 7.175781 12.667969 7.640625 C 12.191406 8.097656 11.945312 8.65625 11.933594 9.316406 C 11.929688 9.625 11.980469 9.921875 12.089844 10.210938 C 12.199219 10.5 12.359375 10.757812 12.566406 10.984375 C 12.773438 11.214844 13.015625 11.394531 13.292969 11.53125 C 13.570312 11.667969 13.863281 11.746094 14.167969 11.769531 L 14.410156 11.769531 C 14.855469 11.769531 15.269531 11.652344 15.648438 11.417969 C 15.8125 11.324219 15.980469 11.207031 16.136719 11.09375 L 16.414062 10.902344 C 16.542969 11.417969 16.605469 11.9375 16.59375 12.46875 L 16.566406 14.613281 C 16.566406 14.835938 16.523438 15.050781 16.4375 15.253906 C 16.355469 15.460938 16.234375 15.640625 16.074219 15.800781 C 15.917969 15.957031 15.738281 16.078125 15.53125 16.164062 C 15.328125 16.25 15.113281 16.289062 14.890625 16.289062 L 12.746094 16.289062 C 12.191406 16.304688 11.65625 16.230469 11.128906 16.0625 C 11.207031 15.917969 11.335938 15.726562 11.425781 15.59375 C 11.515625 15.457031 11.617188 15.3125 11.699219 15.179688 C 11.933594 14.796875 12.046875 14.382812 12.046875 13.9375 C 12.03125 13.625 11.960938 13.328125 11.832031 13.039062 C 11.703125 12.753906 11.527344 12.503906 11.300781 12.289062 C 11.074219 12.070312 10.816406 11.902344 10.527344 11.785156 C 10.234375 11.667969 9.933594 11.609375 9.621094 11.609375 L 9.488281 11.609375 C 9.066406 11.613281 8.675781 11.726562 8.316406 11.941406 C 7.953125 12.160156 7.671875 12.453125 7.472656 12.820312 C 7.269531 13.191406 7.175781 13.585938 7.1875 14.007812 C 7.203125 14.425781 7.320312 14.816406 7.542969 15.171875 C 7.621094 15.308594 7.714844 15.445312 7.808594 15.585938 C 7.90625 15.726562 8.035156 15.910156 8.113281 16.054688 C 7.585938 16.222656 7.046875 16.300781 6.496094 16.285156 L 4.363281 16.285156 C 4.140625 16.285156 3.925781 16.242188 3.722656 16.15625 C 3.515625 16.074219 3.335938 15.953125 3.175781 15.792969 C 3.019531 15.636719 2.898438 15.457031 2.8125 15.25 C 2.730469 15.042969 2.6875 14.832031 2.6875 14.609375 L 2.6875 12.457031 Z M 2.695312 6.242188 " fill-opacity="1" fill-rule="nonzero"/></g><g clip-path="url(#4bddce0e80)"><path fill="#c4942e" d="M 31.140625 27.371094 L 31.140625 29.523438 C 31.140625 29.746094 31.097656 29.960938 31.011719 30.164062 C 30.929688 30.371094 30.808594 30.550781 30.648438 30.707031 C 30.492188 30.867188 30.3125 30.988281 30.105469 31.070312 C 29.898438 31.15625 29.6875 31.199219 29.464844 31.199219 L 18.898438 31.199219 C 18.675781 31.199219 18.460938 31.15625 18.253906 31.070312 C 18.050781 30.988281 17.867188 30.867188 17.710938 30.707031 C 17.554688 30.550781 17.433594 30.371094 17.347656 30.164062 C 17.261719 29.960938 17.21875 29.746094 17.21875 29.523438 L 17.21875 27.34375 C 17.21875 26.300781 17.082031 24.550781 16.132812 24.550781 C 15.71875 24.605469 15.359375 24.773438 15.050781 25.054688 C 14.917969 25.148438 14.773438 25.253906 14.628906 25.335938 C 14.421875 25.460938 14.199219 25.523438 13.957031 25.527344 L 13.875 25.527344 C 13.707031 25.523438 13.546875 25.488281 13.394531 25.421875 C 13.238281 25.359375 13.101562 25.265625 12.984375 25.148438 C 12.867188 25.03125 12.773438 24.894531 12.707031 24.742188 C 12.640625 24.589844 12.605469 24.429688 12.597656 24.261719 C 12.59375 24.09375 12.621094 23.933594 12.675781 23.777344 C 12.734375 23.621094 12.816406 23.480469 12.925781 23.355469 C 13.039062 23.230469 13.167969 23.128906 13.316406 23.054688 C 13.464844 22.976562 13.625 22.933594 13.789062 22.917969 L 13.945312 22.917969 C 14.191406 22.921875 14.414062 22.988281 14.621094 23.121094 C 14.777344 23.214844 14.917969 23.316406 15.050781 23.414062 C 15.363281 23.699219 15.726562 23.871094 16.140625 23.925781 C 17.042969 23.925781 17.230469 22.402344 17.230469 21.128906 L 17.230469 18.960938 C 17.230469 18.738281 17.273438 18.527344 17.359375 18.320312 C 17.445312 18.113281 17.566406 17.933594 17.722656 17.777344 C 17.878906 17.621094 18.0625 17.496094 18.265625 17.414062 C 18.472656 17.328125 18.6875 17.285156 18.90625 17.285156 L 21.328125 17.285156 C 21.980469 17.285156 24.121094 17.203125 24.121094 16.105469 C 24.066406 15.667969 23.890625 15.285156 23.597656 14.957031 C 23.496094 14.816406 23.394531 14.671875 23.304688 14.519531 C 23.179688 14.316406 23.117188 14.09375 23.117188 13.855469 C 23.128906 13.691406 23.171875 13.53125 23.242188 13.382812 C 23.3125 13.234375 23.410156 13.105469 23.53125 12.992188 C 23.652344 12.878906 23.789062 12.792969 23.945312 12.734375 C 24.097656 12.675781 24.257812 12.644531 24.421875 12.648438 L 24.5 12.648438 C 24.664062 12.65625 24.816406 12.691406 24.964844 12.757812 C 25.113281 12.820312 25.246094 12.910156 25.359375 13.027344 C 25.472656 13.140625 25.5625 13.269531 25.628906 13.417969 C 25.691406 13.566406 25.730469 13.722656 25.738281 13.882812 C 25.738281 14.109375 25.675781 14.320312 25.550781 14.515625 C 25.480469 14.636719 25.390625 14.765625 25.304688 14.886719 C 25 15.242188 24.8125 15.648438 24.746094 16.113281 C 24.746094 17.171875 26.703125 17.289062 27.542969 17.289062 L 29.414062 17.289062 C 29.636719 17.289062 29.851562 17.332031 30.054688 17.417969 C 30.261719 17.503906 30.441406 17.625 30.597656 17.78125 C 30.757812 17.9375 30.878906 18.121094 30.960938 18.324219 C 31.046875 18.53125 31.089844 18.746094 31.089844 18.96875 L 31.089844 21.125 Z M 31.140625 27.371094 " fill-opacity="1" fill-rule="nonzero"/></g><g clip-path="url(#4c119e20d2)"><path fill="#c4942e" d="M 28.050781 2.285156 L 29.921875 2.285156 C 30.144531 2.285156 30.359375 2.328125 30.5625 2.414062 C 30.769531 2.5 30.949219 2.621094 31.109375 2.777344 C 31.265625 2.933594 31.386719 3.117188 31.472656 3.320312 C 31.554688 3.527344 31.597656 3.742188 31.597656 3.964844 L 31.597656 6.125 L 31.636719 12.375 L 31.636719 14.519531 C 31.636719 14.742188 31.59375 14.957031 31.511719 15.160156 C 31.425781 15.367188 31.304688 15.546875 31.148438 15.703125 C 30.988281 15.863281 30.808594 15.984375 30.601562 16.066406 C 30.398438 16.152344 30.183594 16.195312 29.960938 16.195312 L 27.777344 16.195312 C 27.226562 16.210938 26.6875 16.132812 26.160156 15.964844 C 26.238281 15.820312 26.375 15.632812 26.464844 15.496094 C 26.550781 15.363281 26.652344 15.21875 26.738281 15.082031 C 26.957031 14.714844 27.070312 14.316406 27.070312 13.886719 C 27.074219 13.457031 26.964844 13.058594 26.75 12.6875 C 26.53125 12.316406 26.234375 12.027344 25.859375 11.820312 C 25.484375 11.609375 25.082031 11.511719 24.652344 11.523438 L 24.519531 11.523438 C 24.097656 11.53125 23.710938 11.640625 23.351562 11.859375 C 22.988281 12.074219 22.710938 12.367188 22.507812 12.738281 C 22.308594 13.105469 22.210938 13.5 22.222656 13.917969 C 22.234375 14.339844 22.351562 14.726562 22.574219 15.082031 C 22.65625 15.222656 22.753906 15.363281 22.847656 15.503906 C 22.941406 15.640625 23.066406 15.828125 23.144531 15.972656 C 22.617188 16.140625 22.082031 16.214844 21.527344 16.203125 L 19.394531 16.203125 C 19.171875 16.203125 18.957031 16.160156 18.753906 16.074219 C 18.546875 15.988281 18.367188 15.867188 18.207031 15.710938 C 18.050781 15.554688 17.929688 15.371094 17.84375 15.167969 C 17.761719 14.960938 17.71875 14.746094 17.71875 14.523438 L 17.71875 12.34375 C 17.71875 11.300781 17.578125 9.550781 16.628906 9.550781 C 16.21875 9.605469 15.859375 9.769531 15.554688 10.046875 C 15.414062 10.148438 15.269531 10.25 15.125 10.339844 C 14.917969 10.464844 14.695312 10.527344 14.453125 10.53125 L 14.375 10.53125 C 14.203125 10.535156 14.035156 10.507812 13.871094 10.445312 C 13.710938 10.382812 13.566406 10.292969 13.441406 10.175781 C 13.3125 10.058594 13.214844 9.917969 13.144531 9.761719 C 13.070312 9.601562 13.03125 9.4375 13.027344 9.261719 C 13.023438 9.089844 13.050781 8.921875 13.109375 8.761719 C 13.171875 8.597656 13.261719 8.453125 13.378906 8.328125 C 13.5 8.199219 13.636719 8.101562 13.796875 8.03125 C 13.953125 7.957031 14.117188 7.917969 14.292969 7.914062 L 14.449219 7.914062 C 14.691406 7.917969 14.917969 7.984375 15.125 8.117188 C 15.277344 8.210938 15.414062 8.3125 15.550781 8.40625 C 15.859375 8.691406 16.222656 8.863281 16.640625 8.921875 C 17.539062 8.921875 17.730469 7.398438 17.730469 6.125 L 17.730469 3.964844 C 17.730469 3.742188 17.773438 3.527344 17.855469 3.320312 C 17.941406 3.117188 18.0625 2.933594 18.21875 2.777344 C 18.378906 2.621094 18.558594 2.5 18.765625 2.414062 C 18.96875 2.328125 19.183594 2.285156 19.40625 2.285156 Z M 28.050781 2.285156 " fill-opacity="1" fill-rule="nonzero"/></g><g clip-path="url(#f1ea3abf9e)"><path fill="#c4942e" d="M 2.300781 21.195312 L 2.300781 19.050781 C 2.300781 18.828125 2.34375 18.613281 2.429688 18.410156 C 2.511719 18.203125 2.632812 18.023438 2.792969 17.867188 C 2.949219 17.707031 3.128906 17.585938 3.335938 17.503906 C 3.539062 17.417969 3.753906 17.375 3.976562 17.375 L 6.40625 17.375 C 7.0625 17.375 9.203125 17.285156 9.203125 16.195312 C 9.144531 15.757812 8.96875 15.371094 8.675781 15.039062 C 8.574219 14.898438 8.46875 14.753906 8.386719 14.609375 C 8.257812 14.40625 8.195312 14.183594 8.195312 13.945312 C 8.207031 13.777344 8.25 13.621094 8.320312 13.472656 C 8.390625 13.320312 8.488281 13.191406 8.609375 13.078125 C 8.730469 12.964844 8.867188 12.878906 9.023438 12.820312 C 9.179688 12.757812 9.335938 12.730469 9.503906 12.730469 L 9.566406 12.730469 C 9.898438 12.75 10.1875 12.875 10.421875 13.113281 C 10.660156 13.351562 10.789062 13.636719 10.804688 13.972656 C 10.804688 14.191406 10.746094 14.394531 10.632812 14.582031 C 10.558594 14.703125 10.46875 14.828125 10.386719 14.957031 C 10.078125 15.308594 9.890625 15.714844 9.828125 16.179688 C 9.828125 17.242188 11.777344 17.359375 12.621094 17.359375 L 14.492188 17.359375 C 14.714844 17.359375 14.929688 17.402344 15.136719 17.484375 C 15.339844 17.570312 15.523438 17.691406 15.679688 17.847656 C 15.835938 18.007812 15.957031 18.1875 16.042969 18.394531 C 16.128906 18.597656 16.171875 18.8125 16.171875 19.035156 L 16.171875 21.191406 C 16.179688 21.722656 16.121094 22.242188 15.992188 22.757812 L 15.746094 22.582031 C 15.578125 22.464844 15.40625 22.335938 15.21875 22.230469 C 14.839844 22.003906 14.429688 21.894531 13.992188 21.894531 C 13.679688 21.898438 13.378906 21.957031 13.09375 22.074219 C 12.804688 22.191406 12.550781 22.359375 12.328125 22.574219 C 12.101562 22.792969 11.925781 23.039062 11.800781 23.324219 C 11.671875 23.605469 11.601562 23.902344 11.585938 24.214844 C 11.574219 24.523438 11.617188 24.828125 11.71875 25.121094 C 11.824219 25.414062 11.976562 25.675781 12.179688 25.910156 C 12.382812 26.144531 12.625 26.335938 12.898438 26.476562 C 13.175781 26.617188 13.46875 26.707031 13.777344 26.734375 L 14.035156 26.734375 C 14.480469 26.734375 14.894531 26.617188 15.277344 26.382812 C 15.4375 26.289062 15.601562 26.171875 15.757812 26.058594 L 16.042969 25.867188 C 16.167969 26.382812 16.230469 26.902344 16.21875 27.433594 L 16.191406 29.578125 C 16.191406 29.800781 16.148438 30.015625 16.066406 30.21875 C 15.980469 30.425781 15.859375 30.605469 15.703125 30.765625 C 15.542969 30.921875 15.363281 31.042969 15.15625 31.128906 C 14.953125 31.214844 14.738281 31.253906 14.515625 31.253906 L 3.976562 31.253906 C 3.753906 31.253906 3.539062 31.214844 3.335938 31.128906 C 3.128906 31.042969 2.949219 30.921875 2.792969 30.765625 C 2.632812 30.605469 2.511719 30.425781 2.429688 30.21875 C 2.34375 30.015625 2.300781 29.800781 2.300781 29.578125 Z M 2.300781 21.195312 " fill-opacity="1" fill-rule="nonzero"/></g></svg>