<svg xmlns="http://www.w3.org/2000/svg" xmlns:xlink="http://www.w3.org/1999/xlink" width="45" zoomAndPan="magnify" viewBox="0 0 33.75 33.749998" height="45" preserveAspectRatio="xMidYMid meet" version="1.0"><defs><clipPath id="90e7ccba19"><path d="M 2 1.207031 L 31.550781 1.207031 L 31.550781 32 L 2 32 Z M 2 1.207031 " clip-rule="nonzero"/></clipPath></defs><g clip-path="url(#90e7ccba19)"><path fill="#c4942e" d="M 17.050781 1.210938 C 16.816406 1.210938 16.578125 1.367188 16.578125 1.679688 L 16.578125 2.148438 C 16.578125 2.773438 17.519531 2.773438 17.519531 2.148438 L 17.519531 1.679688 C 17.519531 1.367188 17.285156 1.210938 17.050781 1.210938 Z M 14.6875 1.65625 C 14.667969 1.65625 14.652344 1.65625 14.636719 1.65625 C 14.414062 1.679688 14.210938 1.859375 14.214844 2.125 C 14.214844 2.253906 14.265625 2.375 14.359375 2.460938 L 14.824219 2.929688 C 15.269531 3.394531 15.953125 2.710938 15.492188 2.265625 L 15.019531 1.800781 C 14.925781 1.699219 14.804688 1.65625 14.6875 1.65625 Z M 19.398438 1.65625 C 19.289062 1.660156 19.171875 1.703125 19.066406 1.8125 C 19.066406 1.8125 18.601562 2.28125 18.601562 2.28125 C 18.511719 2.363281 18.460938 2.480469 18.457031 2.601562 C 18.441406 3.027344 18.964844 3.25 19.261719 2.945312 L 19.734375 2.472656 C 20.078125 2.140625 19.777344 1.675781 19.421875 1.660156 C 19.414062 1.65625 19.40625 1.65625 19.398438 1.65625 Z M 2.519531 1.6875 L 3.152344 3.371094 L 2.714844 4.992188 L 6.269531 6.375 L 4.816406 4.46875 L 5.402344 3.105469 Z M 31.585938 1.6875 L 28.699219 3.105469 L 29.285156 4.46875 L 27.832031 6.375 L 31.386719 4.992188 L 30.949219 3.371094 Z M 17.027344 4.023438 C 17.019531 4.023438 17.011719 4.023438 17.003906 4.023438 C 16.398438 4.101562 16.476562 4.964844 17.050781 4.960938 C 22.152344 4.960938 26.789062 8.046875 28.75 12.777344 C 30.707031 17.507812 29.621094 22.957031 26.003906 26.578125 C 22.386719 30.203125 16.9375 31.28125 12.207031 29.320312 C 7.476562 27.359375 4.390625 22.746094 4.390625 17.625 L 4.390625 15.753906 L 4.945312 16.492188 C 5.339844 16.988281 6.058594 16.417969 5.695312 15.925781 L 4.292969 14.058594 C 4.210938 13.949219 4.085938 13.871094 3.917969 13.871094 C 3.75 13.871094 3.625 13.949219 3.542969 14.058594 L 2.140625 15.925781 C 1.78125 16.441406 2.507812 16.988281 2.894531 16.492188 L 3.453125 15.746094 L 3.453125 17.625 C 3.453125 23.125 6.765625 28.082031 11.847656 30.1875 C 16.925781 32.292969 22.777344 31.128906 26.667969 27.238281 C 30.554688 23.351562 31.71875 17.5 29.617188 12.417969 C 27.511719 7.339844 22.550781 4.023438 17.050781 4.023438 C 17.042969 4.023438 17.035156 4.023438 17.027344 4.023438 Z M 15.058594 4.175781 C 15.03125 4.175781 15.003906 4.179688 14.980469 4.183594 C 14.753906 4.21875 14.53125 4.257812 14.3125 4.304688 C 13.675781 4.433594 13.914062 5.359375 14.5 5.222656 C 14.703125 5.179688 14.910156 5.144531 15.121094 5.109375 C 15.699219 5.011719 15.625 4.1875 15.058594 4.175781 Z M 12.546875 4.820312 C 12.488281 4.820312 12.429688 4.832031 12.375 4.851562 C 12.167969 4.925781 11.960938 5.011719 11.753906 5.097656 C 11.175781 5.34375 11.558594 6.207031 12.125 5.960938 C 12.3125 5.878906 12.503906 5.804688 12.699219 5.734375 C 13.195312 5.546875 13.058594 4.828125 12.546875 4.820312 Z M 10.226562 5.964844 C 10.21875 5.964844 10.210938 5.964844 10.203125 5.964844 C 10.128906 5.972656 10.058594 5.996094 9.996094 6.039062 C 9.808594 6.152344 9.625 6.269531 9.445312 6.390625 C 8.929688 6.75 9.445312 7.515625 9.972656 7.164062 C 10.140625 7.050781 10.308594 6.941406 10.484375 6.835938 C 10.902344 6.585938 10.699219 5.957031 10.226562 5.964844 Z M 8.226562 7.433594 C 8.214844 7.433594 8.203125 7.433594 8.1875 7.433594 C 8.082031 7.441406 7.984375 7.488281 7.90625 7.558594 C 7.746094 7.703125 7.589844 7.855469 7.4375 8.007812 C 7 8.449219 7.652344 9.121094 8.097656 8.671875 C 8.242188 8.53125 8.386719 8.390625 8.535156 8.253906 C 8.867188 7.964844 8.644531 7.4375 8.226562 7.433594 Z M 16.582031 7.792969 C 12.90625 8.011719 10.480469 10.816406 10.480469 14.289062 L 10.480469 14.339844 L 16.578125 14.339844 L 16.578125 12.875 C 16.453125 12.910156 16.285156 12.9375 16.113281 12.9375 C 15.082031 12.9375 14.234375 12.105469 14.234375 11.0625 C 14.234375 10.019531 15.082031 9.183594 16.113281 9.183594 C 16.285156 9.1875 16.425781 9.207031 16.578125 9.246094 Z M 17.515625 7.792969 L 17.519531 10.015625 C 17.519531 10.421875 17.039062 10.632812 16.738281 10.363281 C 16.566406 10.207031 16.34375 10.125 16.109375 10.125 C 15.589844 10.125 15.171875 10.546875 15.171875 11.0625 C 15.171875 11.574219 15.589844 12 16.113281 12 C 16.34375 12 16.566406 11.910156 16.738281 11.757812 C 17.039062 11.484375 17.519531 11.703125 17.519531 12.109375 L 17.519531 14.339844 L 19.289062 14.339844 C 19.691406 14.34375 19.90625 14.820312 19.636719 15.121094 C 19.480469 15.292969 19.394531 15.519531 19.394531 15.75 C 19.398438 16.269531 19.820312 16.6875 20.332031 16.6875 C 20.847656 16.6875 21.269531 16.269531 21.269531 15.746094 C 21.269531 15.515625 21.183594 15.292969 21.03125 15.121094 C 20.757812 14.820312 20.972656 14.339844 21.378906 14.339844 L 23.613281 14.339844 L 23.613281 14.289062 C 23.613281 10.816406 21.191406 8.015625 17.515625 7.792969 Z M 6.535156 9.296875 C 6.523438 9.296875 6.511719 9.296875 6.496094 9.296875 C 6.359375 9.308594 6.234375 9.378906 6.15625 9.492188 C 6.023438 9.664062 5.894531 9.84375 5.773438 10.023438 C 5.414062 10.535156 6.21875 11.074219 6.550781 10.546875 C 6.664062 10.378906 6.78125 10.214844 6.902344 10.050781 C 7.144531 9.738281 6.917969 9.300781 6.535156 9.296875 Z M 5.21875 11.457031 C 5.207031 11.457031 5.195312 11.457031 5.1875 11.460938 C 5.015625 11.46875 4.863281 11.574219 4.792969 11.730469 C 4.695312 11.929688 4.605469 12.128906 4.519531 12.332031 C 4.277344 12.914062 5.144531 13.273438 5.382812 12.699219 C 5.460938 12.507812 5.550781 12.324219 5.640625 12.136719 C 5.796875 11.824219 5.5625 11.457031 5.21875 11.457031 Z M 10.558594 15.277344 C 10.800781 16.820312 11.574219 17.964844 12.390625 18.964844 C 12.882812 19.5625 13.390625 20.109375 13.792969 20.667969 C 14.066406 21.046875 14.296875 21.441406 14.417969 21.875 C 14.515625 21.851562 14.601562 21.84375 14.707031 21.84375 L 16.582031 21.84375 L 16.582031 20.375 C 16.457031 20.414062 16.289062 20.4375 16.113281 20.441406 C 15.085938 20.441406 14.234375 19.605469 14.234375 18.5625 C 14.234375 17.519531 15.085938 16.6875 16.113281 16.6875 C 16.285156 16.6875 16.425781 16.710938 16.582031 16.75 L 16.582031 15.277344 Z M 17.519531 15.277344 L 17.519531 17.519531 C 17.519531 17.921875 17.039062 18.132812 16.738281 17.863281 C 16.566406 17.710938 16.34375 17.625 16.109375 17.625 C 15.589844 17.625 15.171875 18.050781 15.171875 18.5625 C 15.171875 19.078125 15.589844 19.5 16.113281 19.5 C 16.34375 19.5 16.566406 19.414062 16.738281 19.257812 C 17.039062 18.988281 17.519531 19.203125 17.519531 19.609375 L 17.519531 21.84375 L 19.390625 21.84375 C 19.496094 21.84375 19.585938 21.855469 19.683594 21.875 C 19.804688 21.445312 20.039062 21.046875 20.3125 20.664062 C 20.714844 20.109375 21.222656 19.5625 21.710938 18.960938 C 22.527344 17.964844 23.300781 16.820312 23.539062 15.277344 L 22.148438 15.277344 C 22.183594 15.40625 22.210938 15.574219 22.210938 15.746094 C 22.210938 16.777344 21.378906 17.625 20.335938 17.625 C 19.289062 17.625 18.457031 16.777344 18.457031 15.746094 C 18.457031 15.574219 18.480469 15.433594 18.519531 15.277344 Z M 14.9375 22.78125 C 14.550781 22.78125 14.234375 23.09375 14.234375 23.484375 C 14.234375 23.875 14.550781 24.1875 14.9375 24.1875 C 14.550781 24.1875 14.234375 24.503906 14.234375 24.890625 C 14.234375 25.28125 14.550781 25.59375 14.9375 25.59375 L 15.40625 25.59375 C 15.019531 25.59375 14.703125 25.910156 14.703125 26.296875 C 14.703125 26.6875 15.019531 27.003906 15.40625 27.003906 L 15.640625 27.003906 L 15.640625 27.472656 C 15.640625 27.730469 15.851562 27.941406 16.109375 27.941406 L 17.988281 27.941406 C 18.246094 27.941406 18.457031 27.730469 18.457031 27.472656 L 18.457031 27.003906 L 18.691406 27.003906 C 19.078125 27.003906 19.394531 26.6875 19.394531 26.296875 C 19.394531 25.910156 19.078125 25.59375 18.691406 25.59375 L 19.160156 25.59375 C 19.546875 25.59375 19.863281 25.28125 19.863281 24.890625 C 19.863281 24.503906 19.546875 24.1875 19.160156 24.1875 C 19.546875 24.1875 19.863281 23.875 19.863281 23.484375 C 19.863281 23.09375 19.546875 22.78125 19.160156 22.78125 Z M 14.9375 22.78125 " fill-opacity="1" fill-rule="nonzero"/></g></svg>