<svg xmlns="http://www.w3.org/2000/svg" xmlns:xlink="http://www.w3.org/1999/xlink" width="45" zoomAndPan="magnify" viewBox="0 0 33.75 33.749998" height="45" preserveAspectRatio="xMidYMid meet" version="1.0"><defs><clipPath id="998bdf7521"><path d="M 2.625 1.101562 L 30.917969 1.101562 L 30.917969 32.367188 L 2.625 32.367188 Z M 2.625 1.101562 " clip-rule="nonzero"/></clipPath></defs><g clip-path="url(#998bdf7521)"><path fill="#c4942e" d="M 4.472656 11.96875 C 4.296875 11.921875 4.121094 11.851562 3.957031 11.757812 C 2.964844 11.183594 2.625 9.914062 3.195312 8.921875 C 3.769531 7.933594 5.039062 7.589844 6.03125 8.164062 C 6.195312 8.261719 6.34375 8.375 6.472656 8.503906 L 14.746094 3.730469 C 14.695312 3.554688 14.667969 3.367188 14.667969 3.175781 C 14.667969 2.03125 15.597656 1.101562 16.746094 1.101562 C 17.890625 1.101562 18.820312 2.03125 18.820312 3.175781 C 18.820312 3.367188 18.792969 3.554688 18.746094 3.730469 L 27.015625 8.503906 C 27.144531 8.375 27.292969 8.261719 27.457031 8.164062 C 28.449219 7.589844 29.71875 7.933594 30.292969 8.921875 C 30.863281 9.914062 30.523438 11.183594 29.53125 11.757812 C 29.367188 11.851562 29.195312 11.921875 29.015625 11.96875 L 29.015625 21.523438 C 29.195312 21.566406 29.367188 21.636719 29.53125 21.734375 C 30.523438 22.304688 30.863281 23.574219 30.292969 24.566406 C 29.71875 25.558594 28.449219 25.898438 27.457031 25.328125 C 27.292969 25.230469 27.144531 25.117188 27.015625 24.984375 L 18.746094 29.761719 C 18.792969 29.9375 18.820312 30.125 18.820312 30.316406 C 18.820312 31.460938 17.890625 32.390625 16.746094 32.390625 C 15.597656 32.390625 14.667969 31.460938 14.667969 30.316406 C 14.667969 30.125 14.695312 29.9375 14.746094 29.761719 L 6.472656 24.984375 C 6.34375 25.117188 6.195312 25.230469 6.03125 25.328125 C 5.039062 25.898438 3.769531 25.558594 3.195312 24.566406 C 2.625 23.574219 2.964844 22.304688 3.957031 21.734375 C 4.121094 21.636719 4.296875 21.566406 4.472656 21.523438 Z M 9.3125 13.058594 L 6.472656 11.417969 C 6.203125 11.6875 5.871094 11.875 5.515625 11.96875 L 5.515625 21.523438 C 5.871094 21.617188 6.203125 21.804688 6.472656 22.074219 L 9.3125 20.433594 C 9.46875 20.746094 9.644531 21.046875 9.835938 21.335938 L 6.992188 22.976562 C 7.09375 23.34375 7.089844 23.726562 6.992188 24.082031 L 15.265625 28.859375 C 15.527344 28.597656 15.855469 28.402344 16.222656 28.304688 L 16.222656 25.027344 C 16.394531 25.039062 16.570312 25.046875 16.746094 25.046875 C 16.917969 25.046875 17.09375 25.039062 17.265625 25.027344 L 17.265625 28.304688 C 17.632812 28.402344 17.964844 28.597656 18.222656 28.859375 L 26.496094 24.082031 C 26.398438 23.726562 26.394531 23.34375 26.496094 22.976562 L 23.652344 21.335938 C 23.84375 21.046875 24.019531 20.746094 24.175781 20.433594 L 27.015625 22.074219 C 27.285156 21.804688 27.617188 21.617188 27.972656 21.523438 L 27.972656 11.96875 C 27.617188 11.875 27.285156 11.6875 27.015625 11.417969 L 24.175781 13.058594 C 24.019531 12.746094 23.84375 12.445312 23.652344 12.15625 L 26.496094 10.511719 C 26.394531 10.148438 26.398438 9.765625 26.496094 9.410156 L 18.222656 4.632812 C 17.964844 4.894531 17.632812 5.089844 17.265625 5.183594 L 17.265625 8.460938 C 17.09375 8.453125 16.917969 8.445312 16.746094 8.445312 C 16.570312 8.445312 16.394531 8.453125 16.222656 8.460938 L 16.222656 5.183594 C 15.855469 5.089844 15.527344 4.894531 15.265625 4.632812 L 6.992188 9.410156 C 7.089844 9.765625 7.09375 10.148438 6.992188 10.511719 L 9.835938 12.15625 C 9.644531 12.445312 9.46875 12.746094 9.3125 13.058594 Z M 16.746094 24.003906 C 12.75 24.003906 9.488281 20.742188 9.488281 16.746094 C 9.488281 12.75 12.75 9.488281 16.746094 9.488281 C 20.742188 9.488281 24 12.75 24 16.746094 C 24 20.742188 20.742188 24.003906 16.746094 24.003906 Z M 16.746094 22.808594 C 20.082031 22.808594 22.808594 20.082031 22.808594 16.746094 C 22.808594 13.40625 20.082031 10.683594 16.746094 10.683594 C 13.40625 10.683594 10.683594 13.40625 10.683594 16.746094 C 10.683594 20.082031 13.40625 22.808594 16.746094 22.808594 Z M 16.746094 21.765625 C 13.980469 21.765625 11.726562 19.507812 11.726562 16.746094 C 11.726562 13.980469 13.980469 11.726562 16.746094 11.726562 C 19.507812 11.726562 21.765625 13.980469 21.765625 16.746094 C 21.765625 19.507812 19.507812 21.765625 16.746094 21.765625 Z M 12.988281 14.878906 L 12.988281 18.613281 C 12.988281 18.800781 13.085938 18.972656 13.246094 19.066406 L 16.484375 20.933594 C 16.5625 20.980469 16.652344 21.003906 16.746094 21.003906 C 16.835938 21.003906 16.925781 20.980469 17.003906 20.933594 L 20.242188 19.066406 C 20.402344 18.972656 20.5 18.800781 20.5 18.613281 L 20.5 14.878906 C 20.503906 14.785156 20.476562 14.695312 20.433594 14.617188 C 20.386719 14.535156 20.320312 14.472656 20.242188 14.425781 L 17.003906 12.558594 C 16.84375 12.464844 16.644531 12.464844 16.484375 12.558594 L 13.246094 14.425781 C 13.167969 14.472656 13.101562 14.535156 13.058594 14.617188 C 13.011719 14.695312 12.988281 14.785156 12.988281 14.878906 Z M 18.9375 14.878906 L 16.746094 16.144531 L 14.550781 14.878906 L 16.746094 13.609375 Z M 17.265625 19.578125 L 17.265625 17.046875 L 19.457031 15.78125 L 19.457031 18.3125 Z M 14.03125 15.78125 L 16.222656 17.046875 L 16.222656 19.578125 L 14.03125 18.3125 Z M 14.03125 15.78125 " fill-opacity="1" fill-rule="evenodd"/></g></svg>