<svg xmlns="http://www.w3.org/2000/svg" xmlns:xlink="http://www.w3.org/1999/xlink" width="45" zoomAndPan="magnify" viewBox="0 0 33.75 33.749998" height="45" preserveAspectRatio="xMidYMid meet" version="1.0"><defs><clipPath id="7cd86aa307"><path d="M 1.054688 2.722656 L 32.320312 2.722656 L 32.320312 31 L 1.054688 31 Z M 1.054688 2.722656 " clip-rule="nonzero"/></clipPath></defs><g clip-path="url(#7cd86aa307)"><path fill="#c4942e" d="M 29.933594 8.199219 C 28.394531 7.410156 26.359375 6.976562 24.199219 6.976562 C 22.039062 6.976562 20.003906 7.410156 18.464844 8.199219 C 16.847656 9.027344 15.960938 10.15625 15.960938 11.378906 L 15.960938 14.449219 C 15.960938 14.945312 16.113281 15.425781 16.398438 15.878906 C 16.105469 16.335938 15.960938 16.820312 15.960938 17.316406 L 15.960938 20.382812 C 15.960938 20.890625 16.117188 21.382812 16.417969 21.84375 C 16.113281 22.316406 15.960938 22.808594 15.960938 23.316406 L 15.960938 26.386719 C 15.964844 27.605469 16.859375 28.730469 18.472656 29.554688 C 20.011719 30.34375 22.042969 30.773438 24.199219 30.773438 C 26.355469 30.773438 28.386719 30.34375 29.925781 29.554688 C 31.539062 28.730469 32.429688 27.605469 32.4375 26.382812 L 32.4375 23.316406 C 32.4375 22.808594 32.285156 22.3125 31.980469 21.84375 C 32.277344 21.382812 32.433594 20.890625 32.4375 20.382812 L 32.4375 17.316406 C 32.4375 16.820312 32.289062 16.335938 32 15.878906 C 32.285156 15.425781 32.433594 14.945312 32.4375 14.445312 L 32.4375 11.378906 C 32.4375 10.15625 31.546875 9.027344 29.933594 8.199219 Z M 29.59375 25.839844 C 28.160156 26.574219 26.242188 26.980469 24.199219 26.980469 C 22.152344 26.980469 20.238281 26.574219 18.800781 25.839844 C 17.445312 25.144531 16.699219 24.246094 16.699219 23.316406 C 16.699219 23.027344 16.769531 22.738281 16.914062 22.457031 C 17.316406 22.863281 17.839844 23.230469 18.472656 23.554688 C 20.011719 24.339844 22.042969 24.773438 24.199219 24.773438 C 26.355469 24.773438 28.386719 24.339844 29.925781 23.554688 C 30.558594 23.230469 31.082031 22.863281 31.480469 22.457031 C 31.625 22.738281 31.699219 23.027344 31.699219 23.316406 C 31.699219 24.246094 30.953125 25.144531 29.59375 25.839844 Z M 31.699219 17.328125 C 31.6875 19.308594 28.257812 20.980469 24.199219 20.980469 C 22.152344 20.980469 20.238281 20.574219 18.800781 19.839844 C 17.449219 19.144531 16.703125 18.253906 16.699219 17.328125 L 16.699219 17.316406 C 16.699219 17.042969 16.765625 16.769531 16.894531 16.5 C 17.296875 16.914062 17.828125 17.289062 18.472656 17.621094 C 20.011719 18.40625 22.042969 18.835938 24.199219 18.835938 C 26.355469 18.835938 28.386719 18.40625 29.925781 17.621094 C 30.570312 17.289062 31.097656 16.914062 31.503906 16.5 C 31.632812 16.769531 31.699219 17.042969 31.699219 17.316406 Z M 31.699219 11.390625 C 31.695312 12.316406 30.945312 13.210938 29.59375 13.902344 C 28.160156 14.636719 26.242188 15.042969 24.199219 15.042969 C 22.152344 15.042969 20.238281 14.636719 18.800781 13.902344 C 17.449219 13.210938 16.703125 12.316406 16.699219 11.390625 L 16.699219 11.378906 C 16.699219 10.449219 17.445312 9.550781 18.800781 8.855469 C 20.238281 8.121094 22.152344 7.714844 24.199219 7.714844 C 26.242188 7.714844 28.160156 8.121094 29.59375 8.855469 C 30.953125 9.550781 31.699219 10.449219 31.699219 11.378906 Z M 29.722656 11.378906 C 29.722656 12.945312 26.875 13.789062 24.199219 13.789062 C 21.519531 13.789062 18.675781 12.945312 18.675781 11.378906 C 18.675781 9.8125 21.519531 8.96875 24.199219 8.96875 C 26.875 8.96875 29.722656 9.8125 29.722656 11.378906 Z M 13.730469 2.71875 L 5.078125 2.71875 C 4.492188 2.71875 4.015625 3.195312 4.015625 3.785156 L 4.015625 15.003906 L 1.542969 18.421875 C 1.125 18.996094 1.058594 19.691406 1.351562 20.335938 L 4.554688 27.328125 L 3.796875 30.316406 C 3.769531 30.425781 3.792969 30.542969 3.863281 30.632812 C 3.933594 30.722656 4.039062 30.773438 4.15625 30.773438 L 11.253906 30.773438 C 11.457031 30.773438 11.625 30.609375 11.625 30.40625 L 11.625 27.207031 C 11.644531 26.707031 11.722656 26.222656 11.804688 25.707031 C 12.035156 24.285156 12.273438 22.816406 11.214844 21.03125 L 13.730469 21.03125 C 14.316406 21.03125 14.796875 20.554688 14.796875 19.96875 L 14.796875 3.785156 C 14.796875 3.195312 14.316406 2.71875 13.730469 2.71875 Z M 9.40625 5.71875 C 9.957031 5.71875 10.402344 6.167969 10.402344 6.71875 C 10.402344 7.265625 9.957031 7.714844 9.40625 7.714844 C 8.855469 7.714844 8.40625 7.265625 8.40625 6.71875 C 8.40625 6.167969 8.855469 5.71875 9.40625 5.71875 Z M 4.753906 5.140625 L 4.753906 3.785156 C 4.753906 3.605469 4.898438 3.457031 5.078125 3.457031 L 7.183594 3.457031 C 7.015625 4.71875 6.015625 5.722656 4.753906 5.886719 Z M 4.753906 18.609375 L 4.753906 17.863281 C 6.015625 18.03125 7.015625 19.03125 7.183594 20.292969 L 4.753906 20.292969 Z M 11.074219 25.589844 C 10.992188 26.101562 10.90625 26.636719 10.886719 27.183594 C 10.886719 27.191406 10.882812 27.195312 10.882812 27.199219 L 10.882812 30.035156 L 4.628906 30.035156 L 5.304688 27.382812 C 5.324219 27.300781 5.316406 27.214844 5.28125 27.136719 L 2.023438 20.027344 C 1.84375 19.632812 1.882812 19.207031 2.140625 18.851562 L 4.015625 16.261719 L 4.015625 20.664062 C 4.015625 20.867188 4.179688 21.03125 4.382812 21.03125 L 7.191406 21.03125 L 6.507812 21.902344 C 6.382812 22.0625 6.410156 22.292969 6.570312 22.417969 C 6.636719 22.472656 6.71875 22.5 6.796875 22.5 C 6.90625 22.5 7.015625 22.449219 7.089844 22.355469 L 8.242188 20.890625 C 8.246094 20.886719 8.25 20.878906 8.253906 20.875 C 8.253906 20.871094 8.253906 20.871094 8.257812 20.871094 C 8.257812 20.871094 8.257812 20.867188 8.257812 20.867188 C 8.269531 20.851562 8.277344 20.835938 8.285156 20.820312 C 8.289062 20.8125 8.292969 20.808594 8.292969 20.800781 C 8.296875 20.800781 8.296875 20.800781 8.296875 20.796875 C 8.296875 20.789062 8.300781 20.78125 8.304688 20.777344 C 8.304688 20.769531 8.304688 20.765625 8.308594 20.761719 C 8.308594 20.753906 8.3125 20.746094 8.3125 20.738281 C 8.3125 20.734375 8.316406 20.730469 8.316406 20.726562 C 8.316406 20.71875 8.316406 20.710938 8.320312 20.699219 C 8.320312 20.699219 8.320312 20.695312 8.320312 20.695312 C 8.320312 20.695312 8.320312 20.691406 8.320312 20.691406 C 8.320312 20.6875 8.320312 20.683594 8.320312 20.679688 C 8.320312 20.671875 8.320312 20.667969 8.320312 20.660156 L 8.320312 17.226562 C 8.320312 16.722656 8.734375 16.308594 9.238281 16.308594 C 9.746094 16.308594 10.160156 16.722656 10.160156 17.226562 L 10.160156 20.664062 C 10.160156 20.675781 10.160156 20.691406 10.160156 20.707031 C 10.164062 20.714844 10.164062 20.722656 10.164062 20.730469 C 10.164062 20.734375 10.167969 20.742188 10.167969 20.746094 C 10.171875 20.765625 10.179688 20.785156 10.1875 20.804688 C 10.1875 20.808594 10.191406 20.8125 10.191406 20.820312 C 10.195312 20.824219 10.199219 20.828125 10.199219 20.835938 C 10.210938 20.851562 10.21875 20.867188 10.230469 20.878906 C 11.546875 22.6875 11.316406 24.097656 11.074219 25.589844 Z M 11.367188 12.914062 C 11.367188 13.117188 11.203125 13.28125 11 13.28125 C 10.796875 13.28125 10.628906 13.117188 10.628906 12.914062 L 10.628906 12.246094 L 9.773438 12.246094 L 9.773438 12.429688 C 9.773438 13.074219 9.253906 13.597656 8.609375 13.597656 C 7.964844 13.597656 7.441406 13.074219 7.441406 12.429688 L 7.441406 12.246094 L 7.183594 12.246094 C 6.980469 12.246094 6.8125 12.078125 6.8125 11.875 C 6.8125 11.671875 6.980469 11.503906 7.183594 11.503906 L 7.441406 11.503906 L 7.441406 10.691406 C 7.441406 10.488281 7.609375 10.320312 7.8125 10.320312 C 8.015625 10.320312 8.183594 10.488281 8.183594 10.691406 L 8.183594 11.503906 L 9.035156 11.503906 L 9.035156 11.320312 C 9.035156 10.675781 9.558594 10.152344 10.203125 10.152344 C 10.84375 10.152344 11.367188 10.675781 11.367188 11.320312 L 11.367188 11.503906 L 11.628906 11.503906 C 11.832031 11.503906 12 11.671875 12 11.875 C 12 12.078125 11.832031 12.246094 11.628906 12.246094 L 11.367188 12.246094 Z M 14.058594 18.609375 L 14.058594 19.96875 C 14.058594 20.148438 13.910156 20.292969 13.730469 20.292969 L 11.628906 20.292969 C 11.792969 19.03125 12.796875 18.03125 14.058594 17.863281 Z M 14.058594 5.140625 L 14.058594 5.886719 C 12.796875 5.722656 11.792969 4.71875 11.628906 3.457031 L 13.730469 3.457031 C 13.910156 3.457031 14.058594 3.605469 14.058594 3.785156 Z M 8.183594 12.242188 L 9.035156 12.242188 L 9.035156 12.429688 C 9.035156 12.667969 8.84375 12.859375 8.609375 12.859375 C 8.375 12.859375 8.183594 12.667969 8.183594 12.429688 Z M 10.628906 11.320312 L 10.628906 11.503906 L 9.773438 11.503906 L 9.773438 11.320312 C 9.773438 11.089844 9.96875 10.890625 10.203125 10.890625 C 10.433594 10.890625 10.628906 11.089844 10.628906 11.320312 Z M 10.628906 11.320312 " fill-opacity="1" fill-rule="nonzero"/></g></svg>