<svg xmlns="http://www.w3.org/2000/svg" xmlns:xlink="http://www.w3.org/1999/xlink" width="45" zoomAndPan="magnify" viewBox="0 0 33.75 33.749998" height="45" preserveAspectRatio="xMidYMid meet" version="1.0"><defs><clipPath id="ddaf52437b"><path d="M 0.96875 0.96875 L 32.234375 0.96875 L 32.234375 32.234375 L 0.96875 32.234375 Z M 0.96875 0.96875 " clip-rule="nonzero"/></clipPath></defs><g clip-path="url(#ddaf52437b)"><path fill="#030429" d="M 16.746094 25.65625 C 11.835938 25.65625 7.835938 21.660156 7.835938 16.746094 C 7.835938 11.832031 11.835938 7.832031 16.746094 7.832031 C 21.660156 7.832031 25.65625 11.832031 25.65625 16.746094 C 25.65625 21.660156 21.660156 25.65625 16.746094 25.65625 Z M 32.195312 14.558594 L 28.816406 13.386719 C 28.542969 12.417969 28.15625 11.484375 27.660156 10.601562 L 29.222656 7.371094 C 29.3125 7.183594 29.273438 6.957031 29.125 6.808594 L 26.6875 4.371094 C 26.539062 4.222656 26.316406 4.183594 26.121094 4.269531 L 22.898438 5.835938 C 22.023438 5.339844 21.089844 4.957031 20.113281 4.6875 L 18.9375 1.296875 C 18.867188 1.101562 18.679688 0.96875 18.472656 0.96875 L 15.027344 0.96875 C 14.8125 0.96875 14.625 1.101562 14.558594 1.296875 L 13.386719 4.679688 C 12.414062 4.953125 11.476562 5.335938 10.597656 5.835938 L 7.371094 4.269531 C 7.183594 4.179688 6.957031 4.222656 6.8125 4.371094 L 4.371094 6.808594 C 4.222656 6.957031 4.183594 7.183594 4.277344 7.371094 L 5.839844 10.601562 C 5.335938 11.484375 4.953125 12.417969 4.6875 13.386719 L 1.296875 14.558594 C 1.101562 14.625 0.96875 14.8125 0.96875 15.023438 L 0.96875 18.46875 C 0.96875 18.679688 1.101562 18.867188 1.296875 18.9375 L 4.6875 20.113281 C 4.957031 21.085938 5.347656 22.015625 5.847656 22.890625 L 4.277344 26.121094 C 4.179688 26.308594 4.222656 26.535156 4.371094 26.683594 L 6.8125 29.125 C 6.960938 29.269531 7.183594 29.3125 7.371094 29.21875 L 10.601562 27.648438 C 11.472656 28.152344 12.40625 28.542969 13.386719 28.808594 L 14.558594 32.195312 C 14.625 32.390625 14.8125 32.527344 15.027344 32.527344 L 18.472656 32.527344 C 18.679688 32.527344 18.867188 32.390625 18.9375 32.195312 L 20.113281 28.808594 C 21.085938 28.539062 22.015625 28.148438 22.890625 27.65625 L 26.121094 29.21875 C 26.316406 29.3125 26.539062 29.269531 26.6875 29.125 L 29.125 26.683594 C 29.273438 26.535156 29.3125 26.308594 29.222656 26.121094 L 27.648438 22.890625 C 28.148438 22.015625 28.539062 21.085938 28.808594 20.113281 L 32.195312 18.9375 C 32.394531 18.867188 32.527344 18.679688 32.527344 18.46875 L 32.527344 15.023438 C 32.527344 14.8125 32.394531 14.625 32.195312 14.558594 " fill-opacity="1" fill-rule="nonzero"/></g><path fill="#030429" d="M 12.140625 21.796875 C 11.886719 21.796875 11.679688 21.589844 11.679688 21.332031 C 11.679688 21.074219 11.886719 20.867188 12.140625 20.867188 C 12.394531 20.867188 12.601562 21.074219 12.601562 21.332031 C 12.601562 21.589844 12.394531 21.796875 12.140625 21.796875 Z M 22.457031 13.453125 C 22.4375 13.367188 22.371094 13.296875 22.285156 13.269531 C 22.199219 13.246094 22.105469 13.269531 22.042969 13.335938 L 20.613281 14.765625 L 18.796875 14.695312 L 18.730469 12.875 L 20.160156 11.445312 C 20.21875 11.386719 20.242188 11.292969 20.21875 11.207031 C 20.195312 11.121094 20.132812 11.058594 20.042969 11.03125 C 18.957031 10.773438 17.789062 11.109375 16.992188 11.898438 C 16.023438 12.871094 15.777344 14.308594 16.332031 15.535156 L 11.289062 20.582031 C 10.816406 21.046875 10.851562 21.777344 11.285156 22.207031 C 11.726562 22.648438 12.464844 22.65625 12.914062 22.207031 L 17.960938 17.15625 C 19.191406 17.710938 20.640625 17.460938 21.59375 16.496094 C 22.398438 15.691406 22.71875 14.554688 22.457031 13.453125 " fill-opacity="1" fill-rule="nonzero"/></svg>