<svg xmlns="http://www.w3.org/2000/svg" xmlns:xlink="http://www.w3.org/1999/xlink" width="45" zoomAndPan="magnify" viewBox="0 0 33.75 33.749998" height="45" preserveAspectRatio="xMidYMid meet" version="1.0"><defs><clipPath id="6d87741889"><path d="M 1.636719 1.636719 L 32 1.636719 L 32 21 L 1.636719 21 Z M 1.636719 1.636719 " clip-rule="nonzero"/></clipPath><clipPath id="962ed847fd"><path d="M 1.636719 21 L 11 21 L 11 26 L 1.636719 26 Z M 1.636719 21 " clip-rule="nonzero"/></clipPath><clipPath id="81be6dca27"><path d="M 1.636719 28 L 11 28 L 11 32 L 1.636719 32 Z M 1.636719 28 " clip-rule="nonzero"/></clipPath><clipPath id="fcc92fd288"><path d="M 1.636719 26 L 11 26 L 11 30 L 1.636719 30 Z M 1.636719 26 " clip-rule="nonzero"/></clipPath><clipPath id="da6b40b0b5"><path d="M 1.636719 23 L 11 23 L 11 28 L 1.636719 28 Z M 1.636719 23 " clip-rule="nonzero"/></clipPath></defs><g clip-path="url(#6d87741889)"><path fill="#ffffff" d="M 11.972656 10.859375 L 12.414062 10.546875 C 12.648438 10.382812 12.925781 10.296875 13.210938 10.296875 L 21.234375 10.296875 L 27.476562 4.054688 L 26.496094 3.070312 L 31.839844 1.636719 L 30.40625 6.980469 L 29.421875 6 L 22.78125 12.640625 C 22.523438 12.902344 22.171875 13.050781 21.804688 13.050781 L 13.640625 13.050781 L 3.242188 20.070312 L 1.660156 17.820312 Z M 11.972656 10.859375 " fill-opacity="1" fill-rule="evenodd"/></g><g clip-path="url(#962ed847fd)"><path fill="#ffffff" d="M 10.570312 23.28125 C 10.570312 23.511719 10.457031 23.730469 10.230469 23.945312 C 10.007812 24.15625 9.6875 24.34375 9.273438 24.503906 C 8.859375 24.667969 8.378906 24.789062 7.835938 24.878906 C 7.296875 24.964844 6.730469 25.011719 6.144531 25.011719 C 5.558594 25.011719 4.992188 24.964844 4.449219 24.878906 C 3.90625 24.789062 3.429688 24.667969 3.015625 24.503906 C 2.597656 24.34375 2.28125 24.15625 2.054688 23.945312 C 1.832031 23.730469 1.71875 23.511719 1.71875 23.28125 C 1.71875 23.054688 1.832031 22.832031 2.054688 22.621094 C 2.28125 22.410156 2.597656 22.222656 3.015625 22.0625 C 3.429688 21.898438 3.90625 21.773438 4.449219 21.6875 C 4.992188 21.601562 5.558594 21.554688 6.144531 21.554688 C 6.730469 21.554688 7.296875 21.601562 7.835938 21.6875 C 8.378906 21.773438 8.859375 21.898438 9.273438 22.0625 C 9.6875 22.222656 10.007812 22.410156 10.230469 22.621094 C 10.457031 22.832031 10.570312 23.054688 10.570312 23.28125 Z M 10.570312 23.28125 " fill-opacity="1" fill-rule="nonzero"/></g><g clip-path="url(#81be6dca27)"><path fill="#ffffff" d="M 6.144531 30.105469 C 3.710938 30.105469 1.734375 29.339844 1.71875 28.390625 L 1.71875 30.132812 C 1.71875 31.085938 3.699219 31.859375 6.144531 31.859375 C 8.589844 31.859375 10.570312 31.085938 10.570312 30.132812 L 10.570312 28.40625 C 10.53125 29.347656 8.566406 30.105469 6.144531 30.105469 Z M 6.144531 30.105469 " fill-opacity="1" fill-rule="evenodd"/></g><g clip-path="url(#fcc92fd288)"><path fill="#ffffff" d="M 6.144531 27.8125 C 3.710938 27.8125 1.738281 27.046875 1.71875 26.113281 L 1.71875 27.839844 C 1.71875 27.84375 1.71875 27.847656 1.71875 27.851562 C 1.734375 28.800781 3.710938 29.566406 6.144531 29.566406 C 8.566406 29.566406 10.53125 28.808594 10.570312 27.867188 C 10.570312 27.859375 10.570312 27.847656 10.570312 27.839844 L 10.570312 26.113281 C 10.550781 27.046875 8.574219 27.8125 6.144531 27.8125 Z M 6.144531 27.8125 " fill-opacity="1" fill-rule="evenodd"/></g><g clip-path="url(#da6b40b0b5)"><path fill="#ffffff" d="M 6.144531 25.546875 C 3.75 25.546875 1.800781 24.808594 1.722656 23.882812 L 1.71875 25.5625 C 1.71875 25.566406 1.71875 25.570312 1.71875 25.574219 C 1.738281 26.507812 3.710938 27.273438 6.144531 27.273438 C 8.574219 27.273438 10.550781 26.507812 10.570312 25.574219 C 10.570312 25.570312 10.570312 25.566406 10.570312 25.5625 L 10.566406 23.882812 C 10.484375 24.808594 8.535156 25.546875 6.144531 25.546875 Z M 6.144531 25.546875 " fill-opacity="1" fill-rule="evenodd"/></g><path fill="#ffffff" d="M 16.75 19.265625 C 14.304688 19.265625 12.324219 20.039062 12.324219 20.992188 C 12.324219 21.945312 14.304688 22.71875 16.75 22.71875 C 19.191406 22.71875 21.175781 21.945312 21.175781 20.992188 C 21.175781 20.039062 19.191406 19.265625 16.75 19.265625 Z M 16.75 19.265625 " fill-opacity="1" fill-rule="evenodd"/><path fill="#ffffff" d="M 12.324219 21.527344 L 12.324219 23.257812 C 12.324219 23.265625 12.324219 23.273438 12.324219 23.28125 C 12.324219 23.28125 12.324219 23.285156 12.324219 23.285156 C 12.359375 24.226562 14.328125 24.984375 16.75 24.984375 C 19.167969 24.984375 21.136719 24.222656 21.171875 23.28125 C 21.171875 23.273438 21.175781 23.265625 21.175781 23.257812 L 21.175781 21.527344 C 21.175781 22.484375 19.191406 23.257812 16.75 23.257812 C 14.304688 23.257812 12.324219 22.484375 12.324219 21.527344 Z M 12.324219 21.527344 " fill-opacity="1" fill-rule="evenodd"/><path fill="#ffffff" d="M 12.324219 23.820312 L 12.324219 25.546875 C 12.324219 25.558594 12.324219 25.566406 12.324219 25.574219 C 12.390625 27.800781 21.105469 27.800781 21.171875 25.574219 C 21.175781 25.566406 21.175781 25.558594 21.175781 25.546875 L 21.171875 23.820312 C 21.15625 24.230469 20.777344 24.601562 20.160156 24.894531 C 19.347656 25.277344 18.121094 25.519531 16.75 25.519531 C 15.378906 25.519531 14.152344 25.277344 13.34375 24.898438 C 13.339844 24.898438 13.339844 24.894531 13.339844 24.894531 C 12.71875 24.605469 12.339844 24.230469 12.324219 23.820312 Z M 12.324219 23.820312 " fill-opacity="1" fill-rule="evenodd"/><path fill="#ffffff" d="M 21.171875 26.113281 C 21.105469 28.339844 12.390625 28.339844 12.324219 26.113281 L 12.324219 27.839844 C 12.324219 27.847656 12.324219 27.859375 12.324219 27.867188 C 12.359375 28.808594 14.328125 29.566406 16.75 29.566406 C 19.167969 29.566406 21.136719 28.808594 21.171875 27.867188 C 21.171875 27.859375 21.175781 27.847656 21.175781 27.839844 Z M 21.171875 26.113281 " fill-opacity="1" fill-rule="evenodd"/><path fill="#ffffff" d="M 16.75 30.105469 C 14.328125 30.105469 12.359375 29.347656 12.324219 28.40625 L 12.324219 30.132812 C 12.324219 31.085938 14.304688 31.859375 16.75 31.859375 C 19.191406 31.859375 21.175781 31.085938 21.175781 30.132812 L 21.171875 28.40625 C 21.136719 29.347656 19.167969 30.105469 16.75 30.105469 Z M 16.75 30.105469 " fill-opacity="1" fill-rule="evenodd"/><path fill="#ffffff" d="M 22.925781 28.40625 L 22.925781 30.132812 C 22.925781 31.085938 24.910156 31.859375 27.351562 31.859375 C 29.796875 31.859375 31.777344 31.085938 31.777344 30.132812 L 31.777344 28.40625 C 31.777344 29.359375 29.796875 30.132812 27.351562 30.132812 C 24.910156 30.132812 22.925781 29.359375 22.925781 28.40625 Z M 22.925781 28.40625 " fill-opacity="1" fill-rule="evenodd"/><path fill="#ffffff" d="M 22.925781 26.140625 L 22.925781 27.867188 C 22.925781 28.820312 24.910156 29.59375 27.351562 29.59375 C 29.796875 29.59375 31.777344 28.820312 31.777344 27.867188 L 31.777344 26.140625 C 31.777344 27.09375 29.796875 27.867188 27.351562 27.867188 C 24.910156 27.867188 22.925781 27.09375 22.925781 26.140625 Z M 22.925781 26.140625 " fill-opacity="1" fill-rule="evenodd"/><path fill="#ffffff" d="M 22.925781 16.460938 C 22.925781 17.414062 24.910156 18.1875 27.351562 18.1875 C 29.796875 18.1875 31.777344 17.414062 31.777344 16.460938 C 31.777344 15.507812 29.796875 14.734375 27.351562 14.734375 C 24.910156 14.734375 22.925781 15.507812 22.925781 16.460938 Z M 22.925781 16.460938 " fill-opacity="1" fill-rule="evenodd"/><path fill="#ffffff" d="M 22.925781 18.753906 C 22.964844 19.695312 24.933594 20.453125 27.351562 20.453125 C 29.773438 20.453125 31.742188 19.695312 31.777344 18.753906 C 31.777344 18.746094 31.777344 18.734375 31.777344 18.726562 L 31.777344 17 C 31.777344 17.953125 29.796875 18.726562 27.351562 18.726562 C 24.910156 18.726562 22.925781 17.953125 22.925781 17 L 22.925781 18.726562 C 22.925781 18.734375 22.925781 18.746094 22.925781 18.753906 Z M 22.925781 18.753906 " fill-opacity="1" fill-rule="evenodd"/><path fill="#ffffff" d="M 22.925781 21.046875 C 22.964844 21.988281 24.933594 22.746094 27.351562 22.746094 C 29.773438 22.746094 31.742188 21.988281 31.777344 21.046875 C 31.777344 21.035156 31.777344 21.027344 31.777344 21.019531 L 31.777344 19.292969 C 31.742188 20.234375 29.773438 20.992188 27.351562 20.992188 C 24.933594 20.992188 22.964844 20.234375 22.929688 19.292969 L 22.925781 21.019531 C 22.925781 21.027344 22.925781 21.035156 22.925781 21.046875 Z M 22.925781 21.046875 " fill-opacity="1" fill-rule="evenodd"/><path fill="#ffffff" d="M 22.925781 21.582031 L 22.925781 23.308594 C 22.925781 24.265625 24.910156 25.039062 27.351562 25.039062 C 29.796875 25.039062 31.777344 24.265625 31.777344 23.308594 L 31.777344 21.582031 C 31.742188 22.523438 29.773438 23.28125 27.351562 23.28125 C 24.933594 23.28125 22.964844 22.523438 22.925781 21.582031 Z M 22.925781 21.582031 " fill-opacity="1" fill-rule="evenodd"/><path fill="#ffffff" d="M 22.925781 23.847656 L 22.925781 25.601562 C 22.925781 26.554688 24.910156 27.328125 27.351562 27.328125 C 29.796875 27.328125 31.777344 26.554688 31.777344 25.601562 L 31.777344 23.847656 C 31.777344 24.800781 29.796875 25.574219 27.351562 25.574219 C 24.910156 25.574219 22.925781 24.800781 22.925781 23.847656 Z M 22.925781 23.847656 " fill-opacity="1" fill-rule="evenodd"/></svg>