<svg xmlns="http://www.w3.org/2000/svg" xmlns:xlink="http://www.w3.org/1999/xlink" width="45" zoomAndPan="magnify" viewBox="0 0 33.75 33.749998" height="45" preserveAspectRatio="xMidYMid meet" version="1.0"><defs><clipPath id="722599d84e"><path d="M 1.589844 1.742188 L 32 1.742188 L 32 31.519531 L 1.589844 31.519531 Z M 1.589844 1.742188 " clip-rule="nonzero"/></clipPath></defs><g clip-path="url(#722599d84e)"><path fill="#2f7cee" d="M 11.332031 13.53125 C 11.46875 13.53125 11.582031 13.640625 11.582031 13.777344 L 11.582031 16.125 C 11.46875 16.167969 11.359375 16.207031 11.246094 16.242188 C 11.195312 16.257812 11.136719 16.273438 11.082031 16.289062 L 11.082031 13.777344 C 11.082031 13.640625 11.195312 13.53125 11.332031 13.53125 Z M 6.449219 13.777344 L 6.449219 16.125 C 6.558594 16.167969 6.667969 16.207031 6.78125 16.242188 C 6.835938 16.257812 6.890625 16.273438 6.945312 16.289062 L 6.945312 13.777344 C 6.945312 13.640625 6.832031 13.53125 6.695312 13.53125 C 6.558594 13.53125 6.449219 13.640625 6.449219 13.777344 Z M 1.59375 9.160156 C 1.59375 5.070312 4.921875 1.738281 9.015625 1.738281 C 13.105469 1.738281 16.4375 5.070312 16.4375 9.160156 C 16.4375 10.375 16.140625 11.546875 15.59375 12.59375 C 14.699219 12.832031 13.910156 13.347656 13.332031 14.039062 L 13.332031 13.632812 C 13.332031 11.855469 11.878906 10.402344 10.101562 10.402344 L 7.925781 10.402344 C 6.152344 10.402344 4.699219 11.855469 4.699219 13.632812 L 4.699219 15.199219 C 2.75 13.804688 1.59375 11.5625 1.59375 9.160156 Z M 6.765625 6.25 C 6.765625 7.492188 7.773438 9.179688 9.015625 9.179688 C 10.257812 9.179688 11.261719 7.492188 11.261719 6.25 C 11.261719 5.007812 10.257812 4.003906 9.015625 4.003906 C 7.773438 4.003906 6.765625 5.007812 6.765625 6.25 Z M 18.769531 5.800781 C 22.609375 6.496094 25.796875 9.167969 27.21875 12.714844 L 25.394531 12.628906 L 29.09375 16.113281 L 30.894531 11.363281 L 29.070312 12.335938 C 28.414062 10.558594 27.378906 8.945312 26.011719 7.585938 C 24.113281 5.695312 21.722656 4.445312 19.101562 3.96875 C 18.59375 3.878906 18.109375 4.214844 18.015625 4.71875 C 17.925781 5.226562 18.261719 5.710938 18.769531 5.800781 Z M 14.726562 27.984375 C 10.882812 27.289062 7.699219 24.617188 6.277344 21.074219 L 8.101562 21.15625 L 4.402344 17.675781 L 2.597656 22.425781 L 4.421875 21.453125 C 5.078125 23.226562 6.113281 24.84375 7.480469 26.203125 C 9.378906 28.09375 11.769531 29.34375 14.394531 29.820312 C 14.902344 29.910156 15.386719 29.574219 15.476562 29.066406 C 15.566406 28.5625 15.230469 28.078125 14.726562 27.984375 Z M 31.902344 24.625 C 31.902344 27.027344 30.742188 29.269531 28.796875 30.664062 L 28.796875 29.097656 C 28.796875 27.320312 27.34375 25.867188 25.566406 25.867188 L 23.390625 25.867188 C 21.617188 25.867188 20.164062 27.320312 20.164062 29.097656 L 20.164062 30.664062 C 18.214844 29.269531 17.058594 27.027344 17.058594 24.625 C 17.058594 23.390625 17.363281 22.222656 17.898438 21.195312 C 19.429688 20.785156 20.636719 19.578125 21.046875 18.046875 C 22.074219 17.507812 23.242188 17.203125 24.480469 17.203125 C 28.570312 17.203125 31.902344 20.535156 31.902344 24.625 Z M 26.726562 21.714844 C 26.726562 20.472656 25.71875 19.46875 24.480469 19.46875 C 23.238281 19.46875 22.230469 20.472656 22.230469 21.714844 C 22.230469 22.957031 23.238281 24.644531 24.480469 24.644531 C 25.71875 24.644531 26.726562 22.957031 26.726562 21.714844 Z M 26.796875 28.996094 C 26.660156 28.996094 26.546875 29.105469 26.546875 29.242188 L 26.546875 31.753906 C 26.601562 31.738281 26.65625 31.722656 26.710938 31.707031 C 26.824219 31.671875 26.933594 31.632812 27.046875 31.589844 L 27.046875 29.242188 C 27.046875 29.105469 26.933594 28.996094 26.796875 28.996094 Z M 22.160156 28.996094 C 22.023438 28.996094 21.914062 29.105469 21.914062 29.242188 L 21.914062 31.589844 C 22.023438 31.632812 22.132812 31.671875 22.246094 31.707031 C 22.300781 31.722656 22.355469 31.738281 22.410156 31.753906 L 22.410156 29.242188 C 22.410156 29.105469 22.296875 28.996094 22.160156 28.996094 Z M 16.746094 20.789062 C 14.597656 20.789062 12.851562 19.042969 12.851562 16.894531 C 12.851562 14.746094 14.597656 13 16.746094 13 C 18.894531 13 20.640625 14.746094 20.640625 16.894531 C 20.640625 19.042969 18.894531 20.789062 16.746094 20.789062 Z M 16.152344 15.832031 C 16.152344 15.503906 16.417969 15.234375 16.746094 15.234375 C 17.074219 15.234375 17.34375 15.503906 17.34375 15.832031 C 17.34375 16.089844 17.550781 16.296875 17.808594 16.296875 C 18.066406 16.296875 18.273438 16.089844 18.273438 15.832031 C 18.273438 15.152344 17.828125 14.574219 17.210938 14.378906 L 17.210938 14.140625 C 17.210938 13.882812 17.003906 13.675781 16.746094 13.675781 C 16.488281 13.675781 16.28125 13.882812 16.28125 14.140625 L 16.28125 14.378906 C 15.664062 14.574219 15.21875 15.152344 15.21875 15.832031 C 15.21875 16.675781 15.902344 17.359375 16.746094 17.359375 C 17.074219 17.359375 17.34375 17.628906 17.34375 17.957031 C 17.34375 18.285156 17.074219 18.550781 16.746094 18.550781 C 16.417969 18.550781 16.152344 18.285156 16.152344 17.957031 C 16.152344 17.699219 15.941406 17.488281 15.683594 17.488281 C 15.425781 17.488281 15.21875 17.699219 15.21875 17.957031 C 15.21875 18.636719 15.664062 19.214844 16.28125 19.410156 L 16.28125 19.648438 C 16.28125 19.90625 16.488281 20.113281 16.746094 20.113281 C 17.003906 20.113281 17.210938 19.90625 17.210938 19.648438 L 17.210938 19.410156 C 17.828125 19.214844 18.273438 18.636719 18.273438 17.957031 C 18.273438 17.113281 17.589844 16.429688 16.746094 16.429688 C 16.417969 16.429688 16.152344 16.160156 16.152344 15.832031 Z M 16.152344 15.832031 " fill-opacity="1" fill-rule="nonzero"/></g></svg>