<svg xmlns="http://www.w3.org/2000/svg" xmlns:xlink="http://www.w3.org/1999/xlink" width="45" zoomAndPan="magnify" viewBox="0 0 33.75 33.749998" height="45" preserveAspectRatio="xMidYMid meet" version="1.0"><defs><clipPath id="bf9b6b57df"><path d="M 1.5625 14 L 6 14 L 6 19 L 1.5625 19 Z M 1.5625 14 " clip-rule="nonzero"/></clipPath><clipPath id="2231cdb55d"><path d="M 14 1.5625 L 19 1.5625 L 19 6 L 14 6 Z M 14 1.5625 " clip-rule="nonzero"/></clipPath></defs><path fill="#2f7cee" d="M 18.375 15.121094 L 16.207031 15.121094 L 16.207031 16.207031 L 18.375 16.207031 C 18.675781 16.207031 18.917969 15.964844 18.917969 15.664062 C 18.917969 15.367188 18.675781 15.121094 18.375 15.121094 " fill-opacity="1" fill-rule="nonzero"/><path fill="#2f7cee" d="M 16.75 27.597656 C 15.550781 27.597656 14.582031 28.570312 14.582031 29.765625 C 14.582031 30.964844 15.550781 31.9375 16.75 31.9375 C 17.945312 31.9375 18.917969 30.964844 18.917969 29.765625 C 18.917969 28.570312 17.945312 27.597656 16.75 27.597656 " fill-opacity="1" fill-rule="nonzero"/><path fill="#2f7cee" d="M 18.375 17.292969 L 16.207031 17.292969 L 16.207031 18.375 L 18.375 18.375 C 18.675781 18.375 18.917969 18.132812 18.917969 17.835938 C 18.917969 17.535156 18.675781 17.292969 18.375 17.292969 " fill-opacity="1" fill-rule="nonzero"/><g clip-path="url(#bf9b6b57df)"><path fill="#2f7cee" d="M 3.734375 14.582031 C 2.535156 14.582031 1.5625 15.550781 1.5625 16.75 C 1.5625 17.945312 2.535156 18.917969 3.734375 18.917969 C 4.929688 18.917969 5.902344 17.945312 5.902344 16.75 C 5.902344 15.550781 4.929688 14.582031 3.734375 14.582031 " fill-opacity="1" fill-rule="nonzero"/></g><g clip-path="url(#2231cdb55d)"><path fill="#2f7cee" d="M 16.75 5.902344 C 17.945312 5.902344 18.917969 4.929688 18.917969 3.734375 C 18.917969 2.535156 17.945312 1.5625 16.75 1.5625 C 15.550781 1.5625 14.582031 2.535156 14.582031 3.734375 C 14.582031 4.929688 15.550781 5.902344 16.75 5.902344 " fill-opacity="1" fill-rule="nonzero"/></g><path fill="#2f7cee" d="M 16.75 22.171875 C 13.757812 22.171875 11.324219 19.742188 11.324219 16.75 C 11.324219 13.757812 13.757812 11.324219 16.75 11.324219 C 19.742188 11.324219 22.171875 13.757812 22.171875 16.75 C 22.171875 19.742188 19.742188 22.171875 16.75 22.171875 Z M 16.75 10.242188 C 13.160156 10.242188 10.242188 13.160156 10.242188 16.75 C 10.242188 20.339844 13.160156 23.257812 16.75 23.257812 C 20.339844 23.257812 23.257812 20.339844 23.257812 16.75 C 23.257812 13.160156 20.339844 10.242188 16.75 10.242188 " fill-opacity="1" fill-rule="nonzero"/><path fill="#2f7cee" d="M 29.765625 14.582031 C 28.570312 14.582031 27.597656 15.550781 27.597656 16.75 C 27.597656 17.945312 28.570312 18.917969 29.765625 18.917969 C 30.964844 18.917969 31.9375 17.945312 31.9375 16.75 C 31.9375 15.550781 30.964844 14.582031 29.765625 14.582031 " fill-opacity="1" fill-rule="nonzero"/><path fill="#2f7cee" d="M 18.375 19.460938 L 18.375 20.546875 L 17.292969 20.546875 L 17.292969 19.460938 L 16.207031 19.460938 L 16.207031 20.546875 L 15.121094 20.546875 L 15.121094 19.460938 L 14.039062 19.460938 L 14.039062 18.375 L 15.121094 18.375 L 15.121094 15.121094 L 14.039062 15.121094 L 14.039062 14.039062 L 15.121094 14.039062 L 15.121094 12.953125 L 16.207031 12.953125 L 16.207031 14.039062 L 17.292969 14.039062 L 17.292969 12.953125 L 18.375 12.953125 L 18.375 14.039062 C 19.273438 14.039062 20.003906 14.765625 20.003906 15.664062 C 20.003906 16.082031 19.839844 16.460938 19.582031 16.75 C 19.839844 17.039062 20.003906 17.417969 20.003906 17.835938 C 20.003906 18.734375 19.273438 19.460938 18.375 19.460938 Z M 16.75 12.410156 C 14.359375 12.410156 12.410156 14.359375 12.410156 16.75 C 12.410156 19.140625 14.359375 21.089844 16.75 21.089844 C 19.140625 21.089844 21.089844 19.140625 21.089844 16.75 C 21.089844 14.359375 19.140625 12.410156 16.75 12.410156 " fill-opacity="1" fill-rule="nonzero"/><path fill="#2f7cee" d="M 7.53125 8.296875 L 10.398438 11.167969 L 11.167969 10.398438 L 8.296875 7.53125 L 9.15625 7.53125 L 9.15625 6.445312 L 6.445312 6.445312 L 6.445312 9.15625 L 7.53125 9.15625 L 7.53125 8.296875 " fill-opacity="1" fill-rule="nonzero"/><path fill="#2f7cee" d="M 23.097656 11.167969 L 25.96875 8.296875 L 25.96875 9.15625 L 27.054688 9.15625 L 27.054688 6.445312 L 24.34375 6.445312 L 24.34375 7.53125 L 25.203125 7.53125 L 22.332031 10.398438 L 23.097656 11.167969 " fill-opacity="1" fill-rule="nonzero"/><path fill="#2f7cee" d="M 10.398438 22.332031 L 7.53125 25.203125 L 7.53125 24.34375 L 6.445312 24.34375 L 6.445312 27.054688 L 9.15625 27.054688 L 9.15625 25.96875 L 8.296875 25.96875 L 11.167969 23.097656 L 10.398438 22.332031 " fill-opacity="1" fill-rule="nonzero"/><path fill="#2f7cee" d="M 25.96875 25.203125 L 23.097656 22.332031 L 22.332031 23.097656 L 25.203125 25.96875 L 24.34375 25.96875 L 24.34375 27.054688 L 27.054688 27.054688 L 27.054688 24.34375 L 25.96875 24.34375 L 25.96875 25.203125 " fill-opacity="1" fill-rule="nonzero"/><path fill="#2f7cee" d="M 4.816406 5.902344 C 5.417969 5.902344 5.902344 5.417969 5.902344 4.816406 C 5.902344 4.21875 5.417969 3.734375 4.816406 3.734375 C 4.21875 3.734375 3.734375 4.21875 3.734375 4.816406 C 3.734375 5.417969 4.21875 5.902344 4.816406 5.902344 " fill-opacity="1" fill-rule="nonzero"/><path fill="#2f7cee" d="M 4.816406 27.597656 C 4.21875 27.597656 3.734375 28.082031 3.734375 28.683594 C 3.734375 29.28125 4.21875 29.765625 4.816406 29.765625 C 5.417969 29.765625 5.902344 29.28125 5.902344 28.683594 C 5.902344 28.082031 5.417969 27.597656 4.816406 27.597656 " fill-opacity="1" fill-rule="nonzero"/><path fill="#2f7cee" d="M 28.683594 27.597656 C 28.082031 27.597656 27.597656 28.082031 27.597656 28.683594 C 27.597656 29.28125 28.082031 29.765625 28.683594 29.765625 C 29.28125 29.765625 29.765625 29.28125 29.765625 28.683594 C 29.765625 28.082031 29.28125 27.597656 28.683594 27.597656 " fill-opacity="1" fill-rule="nonzero"/><path fill="#2f7cee" d="M 28.683594 5.902344 C 29.28125 5.902344 29.765625 5.417969 29.765625 4.816406 C 29.765625 4.21875 29.28125 3.734375 28.683594 3.734375 C 28.082031 3.734375 27.597656 4.21875 27.597656 4.816406 C 27.597656 5.417969 28.082031 5.902344 28.683594 5.902344 " fill-opacity="1" fill-rule="nonzero"/><path fill="#2f7cee" d="M 14.738281 7.6875 L 15.507812 8.457031 L 16.207031 7.753906 L 16.207031 9.699219 L 17.292969 9.699219 L 17.292969 7.753906 L 17.992188 8.457031 L 18.761719 7.6875 L 17.132812 6.0625 C 17.027344 5.957031 16.890625 5.902344 16.75 5.902344 C 16.609375 5.902344 16.472656 5.957031 16.367188 6.0625 L 14.738281 7.6875 " fill-opacity="1" fill-rule="nonzero"/><path fill="#2f7cee" d="M 18.761719 25.8125 L 17.992188 25.042969 L 17.292969 25.746094 L 17.292969 23.800781 L 16.207031 23.800781 L 16.207031 25.746094 L 15.507812 25.042969 L 14.738281 25.8125 L 16.367188 27.4375 C 16.472656 27.542969 16.609375 27.597656 16.75 27.597656 C 16.890625 27.597656 17.027344 27.542969 17.132812 27.4375 L 18.761719 25.8125 " fill-opacity="1" fill-rule="nonzero"/><path fill="#2f7cee" d="M 8.457031 17.992188 L 7.753906 17.292969 L 9.699219 17.292969 L 9.699219 16.207031 L 7.753906 16.207031 L 8.457031 15.507812 L 7.6875 14.738281 L 6.0625 16.367188 C 5.957031 16.472656 5.902344 16.609375 5.902344 16.75 C 5.902344 16.890625 5.957031 17.027344 6.0625 17.132812 L 7.6875 18.761719 L 8.457031 17.992188 " fill-opacity="1" fill-rule="nonzero"/><path fill="#2f7cee" d="M 25.8125 14.738281 L 25.042969 15.507812 L 25.746094 16.207031 L 23.800781 16.207031 L 23.800781 17.292969 L 25.746094 17.292969 L 25.042969 17.992188 L 25.8125 18.761719 L 27.4375 17.132812 C 27.542969 17.027344 27.597656 16.890625 27.597656 16.75 C 27.597656 16.609375 27.542969 16.472656 27.4375 16.367188 L 25.8125 14.738281 " fill-opacity="1" fill-rule="nonzero"/></svg>