<svg xmlns="http://www.w3.org/2000/svg" xmlns:xlink="http://www.w3.org/1999/xlink" width="45" zoomAndPan="magnify" viewBox="0 0 33.75 33.749998" height="45" preserveAspectRatio="xMidYMid meet" version="1.0"><defs><clipPath id="464621e1e5"><path d="M 10 28 L 15 28 L 15 32.769531 L 10 32.769531 Z M 10 28 " clip-rule="nonzero"/></clipPath><clipPath id="4990db16bd"><path d="M 27 28 L 30.804688 28 L 30.804688 32.769531 L 27 32.769531 Z M 27 28 " clip-rule="nonzero"/></clipPath></defs><path fill="#ffffff" d="M 15.242188 30.3125 C 15.269531 30.480469 15.285156 30.65625 15.285156 30.835938 C 15.285156 31.011719 15.269531 31.1875 15.242188 31.359375 L 26.144531 31.359375 C 26.113281 31.1875 26.097656 31.011719 26.097656 30.835938 C 26.097656 30.65625 26.113281 30.480469 26.144531 30.3125 Z M 15.242188 30.3125 " fill-opacity="1" fill-rule="nonzero"/><path fill="#ffffff" d="M 5.550781 23.9375 C 5.550781 22.238281 6.214844 20.636719 7.417969 19.433594 C 7.785156 19.066406 8.191406 18.75 8.628906 18.484375 C 8.625 18.457031 8.625 18.429688 8.625 18.402344 L 8.625 17.292969 C 7.90625 17.652344 7.25 18.121094 6.679688 18.691406 C 5.277344 20.09375 4.507812 21.957031 4.507812 23.9375 C 4.507812 25.5625 5.019531 27.105469 5.992188 28.394531 C 6.851562 29.535156 8.039062 30.417969 9.375 30.90625 C 9.371094 30.882812 9.371094 30.859375 9.371094 30.835938 C 9.371094 30.488281 9.433594 30.160156 9.542969 29.851562 C 7.132812 28.890625 5.550781 26.578125 5.550781 23.9375 Z M 5.550781 23.9375 " fill-opacity="1" fill-rule="nonzero"/><path fill="#ffffff" d="M 28.53125 10.148438 C 28.53125 11.851562 27.867188 13.449219 26.664062 14.65625 C 26.296875 15.023438 25.890625 15.339844 25.453125 15.605469 C 25.457031 15.632812 25.457031 15.660156 25.457031 15.6875 L 25.457031 16.792969 C 26.179688 16.4375 26.832031 15.96875 27.40625 15.394531 C 28.804688 13.992188 29.578125 12.128906 29.578125 10.148438 C 29.578125 8.527344 29.0625 6.984375 28.089844 5.691406 C 27.230469 4.550781 26.042969 3.671875 24.710938 3.183594 C 24.710938 3.207031 24.710938 3.230469 24.710938 3.253906 C 24.710938 3.597656 24.648438 3.929688 24.539062 4.238281 C 26.949219 5.199219 28.53125 7.511719 28.53125 10.148438 Z M 28.53125 10.148438 " fill-opacity="1" fill-rule="nonzero"/><path fill="#ffffff" d="M 5.761719 1.488281 C 5.996094 1.585938 6.199219 1.722656 6.378906 1.902344 C 6.558594 2.082031 6.695312 2.289062 6.792969 2.523438 C 6.890625 2.757812 6.941406 3 6.941406 3.253906 C 6.941406 3.507812 6.890625 3.75 6.792969 3.984375 C 6.695312 4.21875 6.558594 4.425781 6.378906 4.605469 C 6.199219 4.785156 5.996094 4.921875 5.761719 5.019531 C 5.527344 5.117188 5.28125 5.164062 5.027344 5.164062 C 4.777344 5.164062 4.53125 5.117188 4.296875 5.019531 C 4.0625 4.921875 3.859375 4.785156 3.679688 4.605469 C 3.5 4.425781 3.363281 4.21875 3.265625 3.984375 C 3.167969 3.75 3.117188 3.507812 3.117188 3.253906 C 3.117188 3 3.167969 2.757812 3.265625 2.523438 C 3.363281 2.289062 3.5 2.082031 3.679688 1.902344 C 3.859375 1.722656 4.0625 1.585938 4.296875 1.488281 C 4.53125 1.390625 4.777344 1.34375 5.027344 1.34375 C 5.28125 1.34375 5.527344 1.390625 5.761719 1.488281 Z M 5.761719 1.488281 " fill-opacity="1" fill-rule="nonzero"/><path fill="#ffffff" d="M 18.84375 3.777344 C 18.8125 3.605469 18.796875 3.433594 18.796875 3.253906 C 18.796875 3.074219 18.8125 2.902344 18.84375 2.730469 L 7.941406 2.730469 C 7.96875 2.902344 7.984375 3.074219 7.984375 3.253906 C 7.984375 3.433594 7.96875 3.605469 7.941406 3.777344 Z M 18.84375 3.777344 " fill-opacity="1" fill-rule="nonzero"/><path fill="#ffffff" d="M 21.753906 5.164062 C 22.730469 5.164062 23.539062 4.425781 23.648438 3.476562 C 23.660156 3.402344 23.664062 3.328125 23.664062 3.253906 C 23.664062 2.199219 22.804688 1.34375 21.753906 1.34375 C 20.699219 1.34375 19.84375 2.199219 19.84375 3.253906 C 19.84375 4.308594 20.699219 5.164062 21.753906 5.164062 Z M 21.753906 5.164062 " fill-opacity="1" fill-rule="nonzero"/><g clip-path="url(#464621e1e5)"><path fill="#ffffff" d="M 12.328125 28.925781 C 11.351562 28.925781 10.542969 29.664062 10.433594 30.613281 C 10.425781 30.683594 10.417969 30.757812 10.417969 30.835938 C 10.417969 31.886719 11.277344 32.746094 12.328125 32.746094 C 13.382812 32.746094 14.238281 31.886719 14.238281 30.835938 C 14.238281 29.78125 13.382812 28.925781 12.328125 28.925781 Z M 12.328125 28.925781 " fill-opacity="1" fill-rule="nonzero"/></g><g clip-path="url(#4990db16bd)"><path fill="#ffffff" d="M 30.964844 30.835938 C 30.964844 31.085938 30.914062 31.332031 30.816406 31.566406 C 30.722656 31.800781 30.582031 32.007812 30.402344 32.183594 C 30.226562 32.363281 30.019531 32.503906 29.785156 32.597656 C 29.550781 32.695312 29.308594 32.746094 29.054688 32.746094 C 28.800781 32.746094 28.554688 32.695312 28.324219 32.597656 C 28.089844 32.503906 27.882812 32.363281 27.703125 32.183594 C 27.523438 32.007812 27.386719 31.800781 27.289062 31.566406 C 27.191406 31.332031 27.144531 31.085938 27.144531 30.835938 C 27.144531 30.582031 27.191406 30.335938 27.289062 30.101562 C 27.386719 29.871094 27.523438 29.664062 27.703125 29.484375 C 27.882812 29.304688 28.089844 29.167969 28.324219 29.070312 C 28.554688 28.972656 28.800781 28.925781 29.054688 28.925781 C 29.308594 28.925781 29.550781 28.972656 29.785156 29.070312 C 30.019531 29.167969 30.226562 29.304688 30.402344 29.484375 C 30.582031 29.664062 30.722656 29.871094 30.816406 30.101562 C 30.914062 30.335938 30.964844 30.582031 30.964844 30.835938 Z M 30.964844 30.835938 " fill-opacity="1" fill-rule="nonzero"/></g><path fill="#ffffff" d="M 11.160156 18.292969 C 11.3125 19.015625 11.59375 19.699219 12 20.320312 C 12.132812 20.527344 12.105469 20.800781 11.929688 20.972656 L 11.238281 21.664062 L 12.421875 22.847656 L 13.109375 22.15625 C 13.285156 21.980469 13.558594 21.953125 13.765625 22.085938 C 14.386719 22.492188 15.070312 22.773438 15.792969 22.925781 C 16.035156 22.976562 16.207031 23.191406 16.207031 23.4375 L 16.207031 24.414062 L 17.875 24.414062 L 17.875 23.4375 C 17.875 23.191406 18.050781 22.976562 18.289062 22.925781 C 19.015625 22.773438 19.695312 22.492188 20.316406 22.085938 C 20.523438 21.953125 20.796875 21.980469 20.972656 22.15625 L 21.664062 22.847656 L 22.84375 21.664062 L 22.152344 20.972656 C 21.976562 20.800781 21.949219 20.527344 22.082031 20.320312 C 22.488281 19.699219 22.769531 19.015625 22.921875 18.292969 C 22.972656 18.050781 23.1875 17.878906 23.433594 17.878906 L 24.410156 17.878906 L 24.410156 16.210938 L 23.433594 16.210938 C 23.1875 16.210938 22.972656 16.035156 22.921875 15.792969 C 22.769531 15.070312 22.488281 14.390625 22.082031 13.769531 C 21.949219 13.5625 21.976562 13.289062 22.152344 13.113281 L 22.84375 12.421875 L 21.664062 11.242188 L 20.972656 11.933594 C 20.796875 12.109375 20.523438 12.136719 20.316406 12 C 19.695312 11.597656 19.015625 11.316406 18.289062 11.164062 C 18.050781 11.113281 17.875 10.898438 17.875 10.648438 L 17.875 9.675781 L 16.207031 9.675781 L 16.207031 10.648438 C 16.207031 10.898438 16.035156 11.113281 15.792969 11.164062 C 15.070312 11.316406 14.386719 11.597656 13.765625 12 C 13.558594 12.136719 13.285156 12.109375 13.109375 11.933594 L 12.421875 11.242188 L 11.238281 12.421875 L 11.929688 13.113281 C 12.105469 13.289062 12.132812 13.5625 12 13.769531 C 11.59375 14.390625 11.3125 15.070312 11.160156 15.792969 C 11.109375 16.035156 10.894531 16.210938 10.648438 16.210938 L 9.671875 16.210938 L 9.671875 17.878906 L 10.648438 17.878906 C 10.894531 17.878906 11.109375 18.050781 11.160156 18.292969 Z M 17.042969 11.996094 C 19.824219 11.996094 22.089844 14.261719 22.089844 17.042969 C 22.089844 19.828125 19.824219 22.089844 17.042969 22.089844 C 14.257812 22.089844 11.996094 19.828125 11.996094 17.042969 C 11.996094 14.261719 14.257812 11.996094 17.042969 11.996094 Z M 17.042969 11.996094 " fill-opacity="1" fill-rule="nonzero"/><path fill="#ffffff" d="M 22.703125 23.289062 L 25.085938 25.671875 C 25.246094 25.832031 25.507812 25.832031 25.667969 25.671875 C 25.832031 25.511719 25.832031 25.25 25.667969 25.089844 L 23.285156 22.703125 Z M 22.703125 23.289062 " fill-opacity="1" fill-rule="nonzero"/><path fill="#ffffff" d="M 17.042969 21.042969 C 19.246094 21.042969 21.042969 19.25 21.042969 17.042969 C 21.042969 14.839844 19.246094 13.042969 17.042969 13.042969 C 14.835938 13.042969 13.042969 14.839844 13.042969 17.042969 C 13.042969 19.25 14.835938 21.042969 17.042969 21.042969 Z M 14.972656 17.0625 C 15.175781 16.859375 15.507812 16.859375 15.710938 17.0625 L 16.214844 17.566406 L 18.371094 15.410156 C 18.574219 15.207031 18.90625 15.207031 19.113281 15.410156 C 19.316406 15.613281 19.316406 15.945312 19.113281 16.152344 L 16.585938 18.675781 C 16.484375 18.78125 16.347656 18.832031 16.214844 18.832031 C 16.082031 18.832031 15.945312 18.78125 15.84375 18.675781 L 14.972656 17.804688 C 14.765625 17.597656 14.765625 17.269531 14.972656 17.0625 Z M 14.972656 17.0625 " fill-opacity="1" fill-rule="nonzero"/></svg>