<svg xmlns="http://www.w3.org/2000/svg" xmlns:xlink="http://www.w3.org/1999/xlink" width="45" zoomAndPan="magnify" viewBox="0 0 33.75 33.749998" height="45" preserveAspectRatio="xMidYMid meet" version="1.0"><defs><clipPath id="92b32c44cc"><path d="M 6.539062 1 L 26.640625 1 L 26.640625 32.242188 L 6.539062 32.242188 Z M 6.539062 1 " clip-rule="nonzero"/></clipPath></defs><g clip-path="url(#92b32c44cc)"><path fill="#030429" d="M 20.136719 15.457031 C 20.289062 15.480469 20.441406 15.507812 20.601562 15.527344 C 20.507812 15.617188 20.421875 15.703125 20.332031 15.789062 C 20.042969 16.085938 19.734375 16.367188 19.414062 16.628906 C 19.175781 16.804688 19.007812 17.03125 18.921875 17.316406 C 18.832031 17.597656 18.835938 17.878906 18.933594 18.160156 C 19.019531 18.523438 19.082031 18.894531 19.148438 19.320312 C 19.171875 19.4375 19.1875 19.558594 19.210938 19.6875 C 19.082031 19.621094 18.953125 19.554688 18.828125 19.492188 C 18.402344 19.273438 17.992188 19.0625 17.605469 18.847656 C 17.425781 18.730469 17.230469 18.667969 17.015625 18.667969 C 16.800781 18.667969 16.605469 18.726562 16.425781 18.839844 C 16.035156 19.066406 15.625 19.277344 15.191406 19.5 C 15.070312 19.554688 14.953125 19.613281 14.832031 19.679688 C 14.847656 19.546875 14.871094 19.417969 14.894531 19.289062 C 14.980469 18.769531 15.070312 18.269531 15.113281 17.777344 C 15.144531 17.472656 15.0625 17.199219 14.871094 16.960938 C 14.519531 16.582031 14.152344 16.246094 13.722656 15.851562 C 13.613281 15.746094 13.503906 15.648438 13.386719 15.539062 C 13.550781 15.511719 13.707031 15.484375 13.863281 15.460938 C 14.382812 15.371094 14.824219 15.300781 15.277344 15.25 C 15.492188 15.234375 15.683594 15.164062 15.851562 15.035156 C 16.023438 14.910156 16.148438 14.746094 16.222656 14.546875 C 16.417969 14.132812 16.621094 13.71875 16.84375 13.273438 L 17.007812 12.9375 C 17.070312 13.058594 17.132812 13.175781 17.191406 13.289062 C 17.414062 13.722656 17.625 14.125 17.804688 14.539062 C 17.878906 14.738281 18 14.90625 18.167969 15.03125 C 18.339844 15.160156 18.527344 15.234375 18.742188 15.25 C 19.195312 15.308594 19.628906 15.375 20.136719 15.457031 Z M 12.058594 8.660156 L 8.507812 12.226562 C 8.390625 12.335938 8.265625 12.433594 8.128906 12.515625 C 8.160156 12.605469 8.214844 12.6875 8.285156 12.753906 C 8.398438 12.871094 8.539062 12.933594 8.703125 12.941406 C 8.890625 12.945312 9.050781 12.886719 9.183594 12.753906 L 12.617188 9.308594 C 12.542969 9.253906 12.472656 9.195312 12.40625 9.132812 C 12.265625 8.992188 12.152344 8.835938 12.058594 8.660156 Z M 7.632812 11.347656 L 12.121094 6.851562 C 12.195312 6.710938 12.292969 6.585938 12.402344 6.476562 C 12.769531 6.105469 13.207031 5.921875 13.726562 5.925781 L 18.929688 5.921875 C 19.09375 5.925781 19.238281 5.980469 19.359375 6.09375 C 19.558594 6.285156 19.609375 6.511719 19.503906 6.769531 C 19.398438 7.027344 19.207031 7.15625 18.929688 7.15625 L 13.726562 7.160156 C 13.550781 7.160156 13.402344 7.222656 13.28125 7.347656 C 13.152344 7.472656 13.089844 7.625 13.089844 7.804688 L 13.089844 7.851562 C 13.101562 8.007812 13.164062 8.144531 13.28125 8.253906 L 13.3125 8.285156 C 13.429688 8.390625 13.570312 8.441406 13.726562 8.441406 L 21.265625 8.425781 C 21.460938 8.453125 21.628906 8.394531 21.769531 8.257812 L 25.640625 4.371094 L 25.636719 1.050781 L 22.828125 1.050781 L 22.042969 1.878906 C 21.957031 1.972656 21.855469 2.03125 21.734375 2.0625 L 13.222656 4.21875 C 13.042969 4.285156 12.875 4.378906 12.726562 4.5 C 12.503906 4.675781 12.292969 4.867188 12.097656 5.074219 L 6.726562 10.449219 C 6.601562 10.574219 6.539062 10.722656 6.539062 10.898438 C 6.542969 11.074219 6.605469 11.226562 6.730469 11.351562 C 6.84375 11.46875 6.984375 11.53125 7.148438 11.539062 C 7.335938 11.546875 7.5 11.484375 7.632812 11.347656 Z M 26.347656 21.976562 C 26.160156 21.96875 25.996094 22.03125 25.863281 22.167969 L 21.375 26.664062 C 21.300781 26.800781 21.207031 26.925781 21.09375 27.039062 C 20.730469 27.40625 20.289062 27.589844 19.769531 27.585938 L 14.566406 27.59375 C 14.402344 27.589844 14.261719 27.53125 14.140625 27.421875 C 13.9375 27.230469 13.886719 27.003906 13.992188 26.742188 C 14.097656 26.484375 14.289062 26.355469 14.566406 26.355469 L 19.769531 26.351562 C 19.945312 26.355469 20.09375 26.292969 20.214844 26.164062 C 20.34375 26.042969 20.410156 25.890625 20.40625 25.710938 L 20.40625 25.664062 C 20.394531 25.503906 20.332031 25.371094 20.21875 25.257812 L 20.1875 25.230469 C 20.066406 25.125 19.929688 25.074219 19.769531 25.074219 L 12.230469 25.085938 C 12.128906 25.078125 12.03125 25.089844 11.9375 25.121094 C 11.859375 25.15625 11.789062 25.199219 11.726562 25.257812 L 7.855469 29.144531 L 7.859375 32.464844 L 10.664062 32.464844 L 11.453125 31.636719 C 11.539062 31.542969 11.640625 31.480469 11.765625 31.453125 L 20.273438 29.296875 C 20.457031 29.230469 20.621094 29.136719 20.769531 29.015625 C 20.996094 28.839844 21.207031 28.648438 21.402344 28.441406 L 26.769531 23.066406 C 26.894531 22.941406 26.957031 22.792969 26.957031 22.617188 L 26.957031 22.574219 C 26.945312 22.414062 26.882812 22.277344 26.765625 22.164062 C 26.652344 22.046875 26.511719 21.984375 26.347656 21.976562 Z M 21.4375 24.855469 L 24.988281 21.289062 C 25.105469 21.179688 25.230469 21.082031 25.371094 21 C 25.335938 20.910156 25.285156 20.828125 25.214844 20.761719 C 25.097656 20.644531 24.957031 20.582031 24.792969 20.578125 C 24.605469 20.566406 24.445312 20.628906 24.308594 20.761719 L 20.878906 24.207031 C 20.953125 24.261719 21.023438 24.320312 21.089844 24.382812 C 21.230469 24.523438 21.34375 24.679688 21.4375 24.855469 Z M 21.4375 24.855469 " fill-opacity="1" fill-rule="nonzero"/></g></svg>