<svg xmlns="http://www.w3.org/2000/svg" xmlns:xlink="http://www.w3.org/1999/xlink" width="45" zoomAndPan="magnify" viewBox="0 0 33.75 33.749998" height="45" preserveAspectRatio="xMidYMid meet" version="1.0"><defs><clipPath id="0eba8a08bb"><path d="M 19 20 L 32.460938 20 L 32.460938 32.460938 L 19 32.460938 Z M 19 20 " clip-rule="nonzero"/></clipPath><clipPath id="ce3502e351"><path d="M 1.191406 1.191406 L 32.460938 1.191406 L 32.460938 32.460938 L 1.191406 32.460938 Z M 1.191406 1.191406 " clip-rule="nonzero"/></clipPath><clipPath id="300c33f6e5"><path d="M 12 3.511719 L 19 3.511719 L 19 7 L 12 7 Z M 12 3.511719 " clip-rule="nonzero"/></clipPath><clipPath id="f86de16415"><path d="M 12 25 L 16 25 L 16 30.3125 L 12 30.3125 Z M 12 25 " clip-rule="nonzero"/></clipPath><clipPath id="c70d55d4da"><path d="M 15 25 L 19 25 L 19 30.3125 L 15 30.3125 Z M 15 25 " clip-rule="nonzero"/></clipPath><clipPath id="44523160b3"><path d="M 1.59375 6 L 12 6 L 12 28 L 1.59375 28 Z M 1.59375 6 " clip-rule="nonzero"/></clipPath></defs><path fill="#ffffff" d="M 22.617188 12.402344 C 22.617188 12.796875 22.578125 13.1875 22.5 13.578125 C 22.425781 13.964844 22.308594 14.339844 22.160156 14.707031 C 22.007812 15.074219 21.820312 15.417969 21.601562 15.75 C 21.382812 16.078125 21.132812 16.382812 20.851562 16.660156 C 20.574219 16.941406 20.269531 17.191406 19.941406 17.410156 C 19.609375 17.628906 19.261719 17.816406 18.898438 17.96875 C 18.53125 18.117188 18.15625 18.234375 17.769531 18.308594 C 17.378906 18.386719 16.988281 18.425781 16.59375 18.425781 C 16.195312 18.425781 15.804688 18.386719 15.417969 18.308594 C 15.03125 18.234375 14.652344 18.117188 14.289062 17.96875 C 13.921875 17.816406 13.574219 17.628906 13.246094 17.410156 C 12.917969 17.191406 12.613281 16.941406 12.332031 16.660156 C 12.054688 16.382812 11.804688 16.078125 11.582031 15.75 C 11.363281 15.417969 11.179688 15.074219 11.027344 14.707031 C 10.875 14.339844 10.761719 13.964844 10.683594 13.578125 C 10.605469 13.1875 10.566406 12.796875 10.566406 12.402344 C 10.566406 12.007812 10.605469 11.613281 10.683594 11.226562 C 10.761719 10.839844 10.875 10.460938 11.027344 10.097656 C 11.179688 9.730469 11.363281 9.382812 11.582031 9.054688 C 11.804688 8.726562 12.054688 8.421875 12.332031 8.140625 C 12.613281 7.863281 12.917969 7.613281 13.246094 7.394531 C 13.574219 7.171875 13.921875 6.988281 14.289062 6.835938 C 14.652344 6.683594 15.03125 6.570312 15.417969 6.492188 C 15.804688 6.414062 16.195312 6.378906 16.59375 6.378906 C 16.988281 6.378906 17.378906 6.414062 17.769531 6.492188 C 18.15625 6.570312 18.53125 6.683594 18.898438 6.835938 C 19.261719 6.988281 19.609375 7.171875 19.941406 7.394531 C 20.269531 7.613281 20.574219 7.863281 20.851562 8.140625 C 21.132812 8.421875 21.382812 8.726562 21.601562 9.054688 C 21.820312 9.382812 22.007812 9.730469 22.160156 10.097656 C 22.308594 10.460938 22.425781 10.839844 22.5 11.226562 C 22.578125 11.613281 22.617188 12.007812 22.617188 12.402344 Z M 22.617188 12.402344 " fill-opacity="1" fill-rule="nonzero"/><g clip-path="url(#0eba8a08bb)"><path fill="#ffffff" d="M 31.390625 24.285156 L 28.183594 23.75 L 26.683594 20.863281 C 26.410156 20.34375 25.558594 20.34375 25.289062 20.863281 L 23.789062 23.75 C 23.789062 23.75 20.585938 24.285156 20.582031 24.285156 C 19.980469 24.382812 19.703125 25.15625 20.148438 25.609375 L 22.433594 27.929688 C 22.433594 27.929688 21.949219 31.132812 21.949219 31.144531 C 21.855469 31.757812 22.519531 32.242188 23.078125 31.964844 L 25.984375 30.507812 C 25.984375 30.507812 28.886719 31.960938 28.894531 31.964844 C 29.453125 32.242188 30.117188 31.761719 30.023438 31.144531 L 29.539062 27.929688 C 29.539062 27.929688 31.808594 25.621094 31.820312 25.609375 C 32.257812 25.167969 32 24.386719 31.390625 24.285156 Z M 31.390625 24.285156 " fill-opacity="1" fill-rule="nonzero"/></g><g clip-path="url(#ce3502e351)"><path fill="#ffffff" d="M 18.46875 24.324219 C 18.742188 23.488281 19.453125 22.878906 20.324219 22.730469 L 22.753906 22.335938 C 22.753906 22.335938 23.652344 20.605469 23.652344 20.605469 C 22.78125 20.167969 21.75 19.996094 20.785156 19.996094 C 20.785156 19.996094 12.40625 19.996094 12.402344 19.996094 C 9.425781 19.996094 6.359375 22.085938 5.613281 25.078125 C 3.726562 22.660156 2.710938 19.695312 2.710938 16.59375 C 2.710938 8.933594 8.933594 2.710938 16.59375 2.710938 C 24.25 2.710938 30.476562 8.933594 30.476562 16.59375 C 30.476562 18.605469 30.046875 20.554688 29.226562 22.335938 L 30.832031 22.597656 C 31.628906 20.71875 32.046875 18.6875 32.046875 16.59375 C 32.046875 8.074219 25.109375 1.140625 16.59375 1.140625 C 8.074219 1.140625 1.140625 8.074219 1.140625 16.59375 C 1.140625 20.65625 2.710938 24.503906 5.558594 27.40625 C 8.492188 30.402344 12.414062 32.046875 16.59375 32.046875 C 17.890625 32.046875 19.171875 31.890625 20.394531 31.585938 C 20.355469 31.367188 20.363281 31.136719 20.394531 30.90625 L 20.761719 28.472656 L 19.035156 26.714844 C 18.40625 26.085938 18.195312 25.171875 18.46875 24.324219 Z M 18.46875 24.324219 " fill-opacity="1" fill-rule="nonzero"/></g><g clip-path="url(#300c33f6e5)"><path fill="#c4942e" d="M 18.261719 5.167969 L 15.402344 3.515625 L 12.539062 5.167969 L 15.402344 6.820312 Z M 18.261719 5.167969 " fill-opacity="1" fill-rule="nonzero"/></g><path fill="#c4942e" d="M 15.179688 7.203125 L 12.296875 5.539062 L 12.296875 8.894531 L 15.179688 10.558594 Z M 15.179688 7.203125 " fill-opacity="1" fill-rule="nonzero"/><path fill="#c4942e" d="M 18.507812 5.539062 L 15.621094 7.203125 L 15.621094 10.558594 L 18.507812 8.894531 Z M 18.507812 5.539062 " fill-opacity="1" fill-rule="nonzero"/><path fill="#c4942e" d="M 15.402344 23.105469 L 12.539062 24.757812 L 15.402344 26.410156 L 18.261719 24.757812 Z M 15.402344 23.105469 " fill-opacity="1" fill-rule="nonzero"/><g clip-path="url(#f86de16415)"><path fill="#c4942e" d="M 12.296875 28.484375 L 15.179688 30.148438 L 15.179688 26.792969 L 12.296875 25.128906 Z M 12.296875 28.484375 " fill-opacity="1" fill-rule="nonzero"/></g><g clip-path="url(#c70d55d4da)"><path fill="#c4942e" d="M 15.621094 30.148438 L 18.507812 28.484375 L 18.507812 25.128906 L 15.621094 26.792969 Z M 15.621094 30.148438 " fill-opacity="1" fill-rule="nonzero"/></g><g clip-path="url(#44523160b3)"><path fill="#c4942e" d="M 10.136719 25.578125 C 9.835938 25.578125 9.578125 25.691406 9.375 25.914062 L 2.210938 21.777344 L 2.210938 12.621094 L 9.433594 8.449219 C 9.554688 8.5625 9.699219 8.644531 9.859375 8.6875 C 10.019531 8.734375 10.183594 8.738281 10.347656 8.707031 C 10.511719 8.671875 10.65625 8.605469 10.789062 8.5 C 10.917969 8.394531 11.019531 8.265625 11.085938 8.113281 C 11.15625 7.960938 11.1875 7.800781 11.179688 7.636719 C 11.167969 7.46875 11.125 7.3125 11.039062 7.167969 C 10.957031 7.023438 10.84375 6.90625 10.703125 6.8125 C 10.5625 6.722656 10.410156 6.667969 10.242188 6.652344 C 10.078125 6.636719 9.917969 6.65625 9.761719 6.71875 C 9.605469 6.78125 9.472656 6.871094 9.359375 7 C 9.25 7.125 9.171875 7.265625 9.132812 7.429688 C 9.089844 7.589844 9.089844 7.753906 9.125 7.917969 L 1.59375 12.265625 L 1.59375 22.132812 L 9.109375 26.472656 C 9.101562 26.519531 9.101562 26.570312 9.101562 26.617188 C 9.101562 26.753906 9.125 26.886719 9.179688 27.015625 C 9.230469 27.140625 9.304688 27.253906 9.402344 27.351562 C 9.5 27.449219 9.613281 27.523438 9.742188 27.578125 C 9.867188 27.628906 10 27.65625 10.136719 27.65625 C 10.273438 27.65625 10.40625 27.628906 10.535156 27.578125 C 10.660156 27.523438 10.773438 27.449219 10.871094 27.351562 C 10.96875 27.253906 11.042969 27.140625 11.097656 27.015625 C 11.148438 26.886719 11.175781 26.753906 11.175781 26.617188 C 11.175781 26.480469 11.148438 26.347656 11.097656 26.21875 C 11.042969 26.09375 10.96875 25.980469 10.871094 25.882812 C 10.773438 25.785156 10.660156 25.710938 10.535156 25.660156 C 10.40625 25.605469 10.273438 25.578125 10.136719 25.578125 Z M 10.136719 25.578125 " fill-opacity="1" fill-rule="nonzero"/></g><path fill="#c4942e" d="M 12.992188 14.933594 L 10.128906 13.28125 L 7.269531 14.933594 L 10.128906 16.585938 Z M 12.992188 14.933594 " fill-opacity="1" fill-rule="nonzero"/><path fill="#c4942e" d="M 13.234375 15.304688 L 10.351562 16.96875 L 10.351562 20.324219 L 13.234375 18.660156 Z M 13.234375 15.304688 " fill-opacity="1" fill-rule="nonzero"/><path fill="#c4942e" d="M 7.023438 18.660156 L 9.910156 20.324219 L 9.910156 16.96875 L 7.023438 15.304688 Z M 7.023438 18.660156 " fill-opacity="1" fill-rule="nonzero"/><path fill="#c4942e" d="M 31.664062 9.339844 L 28.800781 7.6875 L 25.941406 9.339844 L 28.800781 10.992188 Z M 31.664062 9.339844 " fill-opacity="1" fill-rule="nonzero"/><path fill="#c4942e" d="M 29.023438 14.730469 L 31.90625 13.066406 L 31.90625 9.710938 L 29.023438 11.375 Z M 29.023438 14.730469 " fill-opacity="1" fill-rule="nonzero"/><path fill="#c4942e" d="M 25.695312 13.066406 L 28.578125 14.730469 L 28.578125 11.375 L 25.695312 9.710938 Z M 25.695312 13.066406 " fill-opacity="1" fill-rule="nonzero"/><path fill="#c4942e" d="M 28.800781 20.105469 L 25.941406 21.757812 L 28.800781 23.410156 L 31.664062 21.757812 Z M 28.800781 20.105469 " fill-opacity="1" fill-rule="nonzero"/><path fill="#c4942e" d="M 29.023438 27.148438 L 31.90625 25.484375 L 31.90625 22.128906 L 29.023438 23.792969 Z M 29.023438 27.148438 " fill-opacity="1" fill-rule="nonzero"/><path fill="#c4942e" d="M 25.695312 25.484375 L 28.578125 27.148438 L 28.578125 23.792969 L 25.695312 22.128906 Z M 25.695312 25.484375 " fill-opacity="1" fill-rule="nonzero"/><path fill="#c4942e" d="M 23.628906 13.738281 C 23.773438 13.738281 23.914062 13.707031 24.046875 13.652344 C 24.179688 13.59375 24.292969 13.511719 24.390625 13.40625 C 24.492188 13.300781 24.5625 13.179688 24.613281 13.042969 C 24.660156 12.90625 24.679688 12.765625 24.667969 12.621094 C 24.65625 12.476562 24.617188 12.34375 24.550781 12.214844 C 24.484375 12.085938 24.394531 11.976562 24.28125 11.886719 C 24.167969 11.796875 24.039062 11.734375 23.902344 11.695312 C 23.761719 11.660156 23.621094 11.652344 23.476562 11.671875 C 23.335938 11.691406 23.203125 11.742188 23.078125 11.820312 C 22.957031 11.894531 22.855469 11.992188 22.773438 12.113281 C 22.691406 12.230469 22.636719 12.363281 22.609375 12.503906 C 22.585938 12.644531 22.585938 12.789062 22.617188 12.929688 L 16.097656 16.691406 C 15.890625 16.503906 15.648438 16.410156 15.367188 16.417969 C 15.085938 16.425781 14.847656 16.53125 14.648438 16.730469 C 14.453125 16.933594 14.355469 17.175781 14.355469 17.457031 C 14.355469 17.738281 14.453125 17.976562 14.648438 18.179688 C 14.847656 18.382812 15.085938 18.484375 15.367188 18.492188 C 15.648438 18.5 15.890625 18.410156 16.097656 18.21875 L 22.617188 21.980469 C 22.582031 22.144531 22.582031 22.308594 22.625 22.46875 C 22.667969 22.628906 22.742188 22.773438 22.855469 22.898438 C 22.964844 23.023438 23.097656 23.117188 23.253906 23.179688 C 23.410156 23.238281 23.570312 23.261719 23.734375 23.242188 C 23.902344 23.226562 24.054688 23.171875 24.195312 23.082031 C 24.335938 22.992188 24.445312 22.875 24.53125 22.730469 C 24.613281 22.585938 24.660156 22.429688 24.667969 22.261719 C 24.675781 22.097656 24.648438 21.9375 24.578125 21.785156 C 24.507812 21.632812 24.410156 21.503906 24.28125 21.398438 C 24.148438 21.296875 24.003906 21.226562 23.839844 21.195312 C 23.675781 21.160156 23.511719 21.164062 23.351562 21.210938 C 23.191406 21.253906 23.050781 21.335938 22.925781 21.449219 L 16.40625 17.683594 C 16.441406 17.53125 16.441406 17.378906 16.40625 17.226562 L 22.925781 13.460938 C 23.125 13.644531 23.359375 13.738281 23.628906 13.738281 Z M 23.628906 13.738281 " fill-opacity="1" fill-rule="nonzero"/></svg>