<svg xmlns="http://www.w3.org/2000/svg" xmlns:xlink="http://www.w3.org/1999/xlink" width="45" zoomAndPan="magnify" viewBox="0 0 33.75 33.749998" height="45" preserveAspectRatio="xMidYMid meet" version="1.0"><defs><clipPath id="44b6d36081"><path d="M 3 1.6875 L 31 1.6875 L 31 31.46875 L 3 31.46875 Z M 3 1.6875 " clip-rule="nonzero"/></clipPath></defs><g clip-path="url(#44b6d36081)"><path fill="#ffffff" d="M 30.101562 6.085938 C 30.042969 5.566406 29.613281 5.179688 29.09375 5.179688 C 25.066406 5.191406 20.972656 4.042969 17.3125 1.832031 C 16.992188 1.640625 16.59375 1.640625 16.273438 1.832031 C 12.613281 4.042969 8.539062 5.199219 4.484375 5.179688 C 3.972656 5.179688 3.542969 5.566406 3.484375 6.085938 C 2.429688 15.683594 5.441406 27.917969 16.792969 31.804688 C 28.144531 27.917969 31.15625 15.683594 30.101562 6.085938 Z M 22.382812 21.765625 C 22.382812 22.320312 21.941406 22.769531 21.386719 22.769531 L 12.199219 22.769531 C 11.652344 22.769531 11.203125 22.320312 11.203125 21.765625 L 11.203125 12.90625 C 11.203125 12.351562 11.652344 11.902344 12.199219 11.902344 C 12.210938 11.902344 12.613281 11.910156 12.59375 11.890625 C 12.773438 6.347656 20.800781 6.347656 20.980469 11.890625 L 20.980469 11.902344 L 21.386719 11.902344 C 21.941406 11.902344 22.382812 12.351562 22.382812 12.90625 Z M 22.382812 21.765625 " fill-opacity="1" fill-rule="nonzero"/></g><path fill="#ffffff" d="M 13.207031 20.765625 L 20.378906 20.765625 L 20.378906 13.90625 L 13.207031 13.90625 Z M 15.785156 16.550781 C 15.785156 15.996094 16.238281 15.542969 16.792969 15.542969 C 17.347656 15.542969 17.800781 15.996094 17.800781 16.550781 L 17.800781 18.921875 C 17.800781 19.46875 17.347656 19.917969 16.792969 19.917969 C 16.238281 19.917969 15.785156 19.46875 15.785156 18.921875 Z M 15.785156 16.550781 " fill-opacity="1" fill-rule="nonzero"/><path fill="#ffffff" d="M 18.96875 11.890625 C 18.890625 9.011719 14.675781 9.011719 14.601562 11.890625 C 14.570312 11.929688 18.96875 11.871094 18.96875 11.890625 Z M 18.96875 11.890625 " fill-opacity="1" fill-rule="nonzero"/></svg>