<svg xmlns="http://www.w3.org/2000/svg" xmlns:xlink="http://www.w3.org/1999/xlink" width="45" zoomAndPan="magnify" viewBox="0 0 33.75 33.749998" height="45" preserveAspectRatio="xMidYMid meet" version="1.0"><defs><clipPath id="f0dc2f1d1d"><path d="M 28 13 L 32.460938 13 L 32.460938 17 L 28 17 Z M 28 13 " clip-rule="nonzero"/></clipPath><clipPath id="25d3418a49"><path d="M 28 17 L 32.460938 17 L 32.460938 21 L 28 21 Z M 28 17 " clip-rule="nonzero"/></clipPath><clipPath id="94a0fbb431"><path d="M 17 28 L 21 28 L 21 32.460938 L 17 32.460938 Z M 17 28 " clip-rule="nonzero"/></clipPath><clipPath id="d957f0c476"><path d="M 13 28 L 17 28 L 17 32.460938 L 13 32.460938 Z M 13 28 " clip-rule="nonzero"/></clipPath><clipPath id="04d7b1a2aa"><path d="M 1.191406 20 L 7 20 L 7 25 L 1.191406 25 Z M 1.191406 20 " clip-rule="nonzero"/></clipPath><clipPath id="cf564ff27d"><path d="M 1.191406 17 L 5 17 L 5 21 L 1.191406 21 Z M 1.191406 17 " clip-rule="nonzero"/></clipPath><clipPath id="0fc9984012"><path d="M 1.191406 13 L 5 13 L 5 17 L 1.191406 17 Z M 1.191406 13 " clip-rule="nonzero"/></clipPath><clipPath id="c330ddd0f3"><path d="M 1.191406 9 L 7 9 L 7 14 L 1.191406 14 Z M 1.191406 9 " clip-rule="nonzero"/></clipPath><clipPath id="58c5d3c339"><path d="M 13 1.191406 L 17 1.191406 L 17 5 L 13 5 Z M 13 1.191406 " clip-rule="nonzero"/></clipPath><clipPath id="c2f50f2cd2"><path d="M 9 1.191406 L 14 1.191406 L 14 7 L 9 7 Z M 9 1.191406 " clip-rule="nonzero"/></clipPath><clipPath id="508728d263"><path d="M 17 1.191406 L 21 1.191406 L 21 5 L 17 5 Z M 17 1.191406 " clip-rule="nonzero"/></clipPath><clipPath id="f3ca6f4f61"><path d="M 20 1.191406 L 25 1.191406 L 25 7 L 20 7 Z M 20 1.191406 " clip-rule="nonzero"/></clipPath></defs><path fill="#2f7cee" d="M 16.746094 21.761719 L 21.117188 19.289062 L 21.117188 14.210938 L 16.746094 11.734375 L 12.382812 14.210938 L 12.382812 19.289062 Z M 16.746094 21.761719 " fill-opacity="1" fill-rule="evenodd"/><path fill="#2f7cee" d="M 21.75 14.027344 L 21.75 19.464844 C 21.75 19.582031 21.683594 19.6875 21.585938 19.746094 L 16.902344 22.402344 C 16.855469 22.429688 16.804688 22.445312 16.746094 22.445312 C 16.695312 22.445312 16.636719 22.429688 16.59375 22.402344 L 11.914062 19.746094 C 11.816406 19.6875 11.75 19.582031 11.75 19.464844 L 11.75 14.027344 C 11.75 13.917969 11.816406 13.808594 11.914062 13.753906 L 16.59375 11.097656 C 16.6875 11.039062 16.8125 11.039062 16.902344 11.097656 L 21.585938 13.753906 C 21.683594 13.808594 21.75 13.917969 21.75 14.027344 Z M 13.050781 23.121094 L 16.746094 25.238281 L 20.449219 23.121094 L 24.089844 20.996094 L 24.089844 12.503906 L 20.449219 10.378906 L 16.746094 8.253906 L 13.050781 10.378906 L 9.410156 12.503906 L 9.410156 20.996094 Z M 22.882812 13.523438 C 22.832031 13.523438 22.777344 13.507812 22.726562 13.480469 L 19.632812 11.707031 L 16.589844 9.933594 C 16.4375 9.847656 16.386719 9.652344 16.472656 9.503906 C 16.566406 9.351562 16.761719 9.300781 16.910156 9.386719 L 19.949219 11.160156 L 23.042969 12.933594 C 23.191406 13.019531 23.25 13.214844 23.164062 13.367188 C 23.097656 13.464844 23 13.523438 22.882812 13.523438 Z M 10.773438 20.019531 L 13.867188 21.785156 L 16.910156 23.558594 C 17.0625 23.652344 17.113281 23.84375 17.027344 23.996094 C 16.960938 24.097656 16.859375 24.148438 16.746094 24.148438 C 16.695312 24.148438 16.636719 24.140625 16.589844 24.105469 L 13.550781 22.339844 L 10.457031 20.566406 C 10.308594 20.480469 10.25 20.285156 10.335938 20.132812 C 10.421875 19.984375 10.617188 19.933594 10.773438 20.019531 Z M 10.773438 20.019531 " fill-opacity="1" fill-rule="evenodd"/><path fill="#2f7cee" d="M 24.722656 12.324219 L 24.722656 21.175781 C 24.722656 21.289062 24.664062 21.390625 24.5625 21.449219 L 20.765625 23.664062 L 16.902344 25.875 C 16.859375 25.90625 16.804688 25.917969 16.746094 25.917969 C 16.695312 25.917969 16.636719 25.90625 16.59375 25.875 L 12.734375 23.664062 L 8.9375 21.449219 C 8.835938 21.390625 8.777344 21.289062 8.777344 21.175781 L 8.777344 12.324219 C 8.777344 12.210938 8.835938 12.101562 8.9375 12.042969 L 12.734375 9.832031 L 16.59375 7.617188 C 16.6875 7.566406 16.8125 7.566406 16.902344 7.617188 L 20.765625 9.832031 L 24.5625 12.042969 C 24.664062 12.101562 24.722656 12.210938 24.722656 12.324219 Z M 5.175781 16.746094 C 5.175781 23.132812 10.363281 28.324219 16.746094 28.324219 C 23.132812 28.324219 28.324219 23.132812 28.324219 16.746094 C 28.324219 10.363281 23.132812 5.175781 16.746094 5.175781 C 10.363281 5.175781 5.175781 10.363281 5.175781 16.746094 Z M 5.175781 16.746094 " fill-opacity="1" fill-rule="evenodd"/><path fill="#2f7cee" d="M 27.492188 10.925781 C 27.894531 11.671875 28.21875 12.453125 28.460938 13.273438 L 31.691406 12.402344 C 31.375 11.304688 30.929688 10.25 30.382812 9.257812 Z M 27.492188 10.925781 " fill-opacity="1" fill-rule="evenodd"/><g clip-path="url(#f0dc2f1d1d)"><path fill="#2f7cee" d="M 31.855469 13.019531 L 28.625 13.882812 C 28.820312 14.707031 28.933594 15.5625 28.957031 16.429688 L 32.308594 16.429688 C 32.285156 15.261719 32.128906 14.113281 31.855469 13.019531 Z M 31.855469 13.019531 " fill-opacity="1" fill-rule="evenodd"/></g><path fill="#2f7cee" d="M 31.691406 21.089844 L 28.460938 20.226562 C 28.21875 21.046875 27.894531 21.828125 27.492188 22.574219 L 30.382812 24.238281 C 30.929688 23.25 31.367188 22.195312 31.691406 21.089844 Z M 31.691406 21.089844 " fill-opacity="1" fill-rule="evenodd"/><g clip-path="url(#25d3418a49)"><path fill="#2f7cee" d="M 28.625 19.617188 L 31.855469 20.480469 C 32.128906 19.378906 32.285156 18.238281 32.308594 17.0625 L 28.957031 17.0625 C 28.933594 17.9375 28.820312 18.792969 28.625 19.617188 Z M 28.625 19.617188 " fill-opacity="1" fill-rule="evenodd"/></g><path fill="#2f7cee" d="M 30.070312 24.785156 L 27.167969 23.128906 C 26.730469 23.84375 26.207031 24.535156 25.605469 25.160156 L 27.964844 27.519531 C 28.761719 26.695312 29.472656 25.777344 30.070312 24.785156 Z M 30.070312 24.785156 " fill-opacity="1" fill-rule="evenodd"/><path fill="#2f7cee" d="M 27.519531 27.964844 L 25.160156 25.605469 C 24.535156 26.207031 23.851562 26.730469 23.128906 27.167969 L 24.785156 30.070312 C 25.777344 29.472656 26.695312 28.761719 27.519531 27.964844 Z M 27.519531 27.964844 " fill-opacity="1" fill-rule="evenodd"/><path fill="#2f7cee" d="M 24.238281 30.382812 L 22.574219 27.492188 C 21.828125 27.894531 21.046875 28.21875 20.226562 28.460938 L 21.089844 31.691406 C 22.195312 31.375 23.25 30.929688 24.238281 30.382812 Z M 24.238281 30.382812 " fill-opacity="1" fill-rule="evenodd"/><g clip-path="url(#94a0fbb431)"><path fill="#2f7cee" d="M 20.480469 31.855469 L 19.617188 28.617188 C 18.792969 28.820312 17.9375 28.933594 17.070312 28.957031 L 17.070312 32.308594 C 18.238281 32.285156 19.378906 32.128906 20.480469 31.855469 Z M 20.480469 31.855469 " fill-opacity="1" fill-rule="evenodd"/></g><g clip-path="url(#d957f0c476)"><path fill="#2f7cee" d="M 16.429688 32.308594 L 16.429688 28.957031 C 15.5625 28.933594 14.707031 28.820312 13.882812 28.617188 L 13.019531 31.855469 C 14.117188 32.128906 15.261719 32.28125 16.429688 32.308594 Z M 16.429688 32.308594 " fill-opacity="1" fill-rule="evenodd"/></g><path fill="#2f7cee" d="M 12.410156 31.691406 L 13.273438 28.460938 C 12.453125 28.21875 11.664062 27.894531 10.917969 27.484375 L 9.214844 30.363281 C 10.214844 30.914062 11.285156 31.367188 12.410156 31.691406 Z M 12.410156 31.691406 " fill-opacity="1" fill-rule="evenodd"/><path fill="#2f7cee" d="M 8.671875 30.039062 L 10.371094 27.167969 C 9.648438 26.722656 8.964844 26.207031 8.339844 25.605469 L 5.980469 27.964844 C 6.796875 28.753906 7.695312 29.453125 8.671875 30.039062 Z M 8.671875 30.039062 " fill-opacity="1" fill-rule="evenodd"/><path fill="#2f7cee" d="M 5.535156 27.519531 L 7.886719 25.160156 C 7.292969 24.527344 6.769531 23.84375 6.324219 23.128906 L 3.429688 24.785156 C 4.027344 25.777344 4.738281 26.695312 5.535156 27.519531 Z M 5.535156 27.519531 " fill-opacity="1" fill-rule="evenodd"/><g clip-path="url(#04d7b1a2aa)"><path fill="#2f7cee" d="M 3.113281 24.238281 L 6.007812 22.574219 C 5.605469 21.828125 5.28125 21.046875 5.039062 20.226562 L 1.800781 21.089844 C 2.125 22.195312 2.570312 23.25 3.113281 24.238281 Z M 3.113281 24.238281 " fill-opacity="1" fill-rule="evenodd"/></g><g clip-path="url(#cf564ff27d)"><path fill="#2f7cee" d="M 1.644531 20.480469 L 4.875 19.617188 C 4.679688 18.792969 4.566406 17.9375 4.542969 17.0625 L 1.191406 17.0625 C 1.210938 18.238281 1.371094 19.378906 1.644531 20.480469 Z M 1.644531 20.480469 " fill-opacity="1" fill-rule="evenodd"/></g><g clip-path="url(#0fc9984012)"><path fill="#2f7cee" d="M 1.191406 16.429688 L 4.542969 16.429688 C 4.566406 15.5625 4.679688 14.707031 4.875 13.882812 L 1.644531 13.019531 C 1.371094 14.117188 1.210938 15.261719 1.191406 16.429688 Z M 1.191406 16.429688 " fill-opacity="1" fill-rule="evenodd"/></g><g clip-path="url(#c330ddd0f3)"><path fill="#2f7cee" d="M 1.808594 12.410156 L 5.039062 13.273438 C 5.28125 12.453125 5.605469 11.671875 6.007812 10.925781 L 3.113281 9.257812 C 2.570312 10.25 2.125 11.304688 1.808594 12.410156 Z M 1.808594 12.410156 " fill-opacity="1" fill-rule="evenodd"/><path fill="#2f7cee" d="M 1.808594 12.410156 L 5.039062 13.273438 C 5.28125 12.453125 5.605469 11.671875 6.007812 10.925781 L 3.113281 9.257812 C 2.570312 10.25 2.125 11.304688 1.808594 12.410156 Z M 1.808594 12.410156 " fill-opacity="1" fill-rule="evenodd"/></g><path fill="#2f7cee" d="M 16.746094 5.175781 C 10.363281 5.175781 5.175781 10.363281 5.175781 16.746094 C 5.175781 23.132812 10.363281 28.324219 16.746094 28.324219 C 23.132812 28.324219 28.324219 23.132812 28.324219 16.746094 C 28.324219 10.363281 23.132812 5.175781 16.746094 5.175781 Z M 8.777344 21.175781 L 8.777344 12.324219 C 8.777344 12.210938 8.835938 12.101562 8.9375 12.042969 L 12.734375 9.832031 L 16.59375 7.617188 C 16.6875 7.566406 16.8125 7.566406 16.902344 7.617188 L 20.765625 9.832031 L 24.5625 12.042969 C 24.664062 12.101562 24.722656 12.210938 24.722656 12.324219 L 24.722656 21.175781 C 24.722656 21.289062 24.664062 21.390625 24.5625 21.449219 L 20.765625 23.664062 L 16.902344 25.875 C 16.859375 25.90625 16.804688 25.917969 16.746094 25.917969 C 16.695312 25.917969 16.636719 25.90625 16.59375 25.875 L 12.734375 23.664062 L 8.9375 21.449219 C 8.835938 21.390625 8.777344 21.289062 8.777344 21.175781 Z M 8.777344 21.175781 " fill-opacity="1" fill-rule="evenodd"/><g clip-path="url(#58c5d3c339)"><path fill="#2f7cee" d="M 13.019531 1.644531 L 13.882812 4.875 C 14.707031 4.679688 15.5625 4.566406 16.429688 4.542969 L 16.429688 1.191406 C 15.261719 1.210938 14.117188 1.371094 13.019531 1.644531 Z M 13.019531 1.644531 " fill-opacity="1" fill-rule="evenodd"/></g><g clip-path="url(#c2f50f2cd2)"><path fill="#2f7cee" d="M 13.273438 5.039062 L 12.410156 1.808594 C 11.285156 2.132812 10.214844 2.582031 9.214844 3.136719 L 10.917969 6.015625 C 11.664062 5.605469 12.453125 5.28125 13.273438 5.039062 Z M 13.273438 5.039062 " fill-opacity="1" fill-rule="evenodd"/></g><path fill="#2f7cee" d="M 10.371094 6.332031 L 8.671875 3.460938 C 7.695312 4.046875 6.796875 4.746094 5.980469 5.535156 L 8.339844 7.886719 C 8.964844 7.292969 9.648438 6.777344 10.371094 6.332031 Z M 10.371094 6.332031 " fill-opacity="1" fill-rule="evenodd"/><path fill="#2f7cee" d="M 7.886719 8.339844 L 5.535156 5.980469 C 4.738281 6.804688 4.027344 7.722656 3.429688 8.714844 L 6.324219 10.371094 C 6.769531 9.648438 7.292969 8.964844 7.886719 8.339844 Z M 7.886719 8.339844 " fill-opacity="1" fill-rule="evenodd"/><g clip-path="url(#508728d263)"><path fill="#2f7cee" d="M 17.070312 1.191406 L 17.070312 4.542969 C 17.9375 4.566406 18.792969 4.679688 19.617188 4.875 L 20.480469 1.644531 C 19.378906 1.371094 18.238281 1.210938 17.070312 1.191406 Z M 17.070312 1.191406 " fill-opacity="1" fill-rule="evenodd"/></g><g clip-path="url(#f3ca6f4f61)"><path fill="#2f7cee" d="M 21.089844 1.808594 L 20.226562 5.039062 C 21.046875 5.28125 21.828125 5.605469 22.574219 6.007812 L 24.238281 3.113281 C 23.25 2.570312 22.195312 2.125 21.089844 1.808594 Z M 21.089844 1.808594 " fill-opacity="1" fill-rule="evenodd"/></g><path fill="#2f7cee" d="M 24.785156 3.429688 L 23.128906 6.324219 C 23.851562 6.769531 24.535156 7.292969 25.160156 7.886719 L 27.519531 5.527344 C 26.695312 4.738281 25.777344 4.027344 24.785156 3.429688 Z M 24.785156 3.429688 " fill-opacity="1" fill-rule="evenodd"/><path fill="#2f7cee" d="M 27.964844 5.980469 L 25.605469 8.339844 C 26.207031 8.964844 26.730469 9.648438 27.167969 10.371094 L 30.070312 8.714844 C 29.472656 7.722656 28.761719 6.804688 27.964844 5.980469 Z M 27.964844 5.980469 " fill-opacity="1" fill-rule="evenodd"/></svg>