<svg xmlns="http://www.w3.org/2000/svg" xmlns:xlink="http://www.w3.org/1999/xlink" width="45" zoomAndPan="magnify" viewBox="0 0 33.75 33.749998" height="45" preserveAspectRatio="xMidYMid meet" version="1.0"><defs><clipPath id="d06a02d94a"><path d="M 22 23 L 31 23 L 31 32.421875 L 22 32.421875 Z M 22 23 " clip-rule="nonzero"/></clipPath><clipPath id="87e1383690"><path d="M 3 1.152344 L 12 1.152344 L 12 10 L 3 10 Z M 3 1.152344 " clip-rule="nonzero"/></clipPath><clipPath id="2d50548a70"><path d="M 2.207031 10 L 5 10 L 5 13 L 2.207031 13 Z M 2.207031 10 " clip-rule="nonzero"/></clipPath><clipPath id="2270891001"><path d="M 17 2 L 31.242188 2 L 31.242188 17 L 17 17 Z M 17 2 " clip-rule="nonzero"/></clipPath><clipPath id="2822dd4c11"><path d="M 2.207031 21 L 13 21 L 13 32 L 2.207031 32 Z M 2.207031 21 " clip-rule="nonzero"/></clipPath></defs><g clip-path="url(#d06a02d94a)"><path fill="#c4942e" d="M 30.4375 23.96875 L 30.4375 31.8125 C 30.4375 32.101562 30.203125 32.335938 29.914062 32.335938 L 22.5625 32.335938 C 22.273438 32.335938 22.039062 32.101562 22.039062 31.8125 C 22.039062 31.523438 22.273438 31.289062 22.5625 31.289062 L 29.390625 31.289062 L 29.390625 23.96875 Z M 30.4375 23.96875 " fill-opacity="1" fill-rule="nonzero"/></g><path fill="#c4942e" d="M 30.90625 22.921875 L 28.921875 22.921875 L 29.914062 21.203125 Z M 30.90625 22.921875 " fill-opacity="1" fill-rule="nonzero"/><g clip-path="url(#87e1383690)"><path fill="#c4942e" d="M 11.457031 1.683594 C 11.457031 1.972656 11.222656 2.207031 10.933594 2.207031 L 4.105469 2.207031 L 4.105469 9.527344 L 3.058594 9.527344 L 3.058594 1.683594 C 3.058594 1.394531 3.292969 1.160156 3.582031 1.160156 L 10.933594 1.160156 C 11.222656 1.160156 11.457031 1.394531 11.457031 1.683594 Z M 11.457031 1.683594 " fill-opacity="1" fill-rule="nonzero"/></g><g clip-path="url(#2d50548a70)"><path fill="#c4942e" d="M 4.574219 10.574219 L 3.582031 12.292969 L 2.589844 10.574219 Z M 4.574219 10.574219 " fill-opacity="1" fill-rule="nonzero"/></g><path fill="#c4942e" d="M 18.101562 14.421875 L 18.152344 14.476562 C 17.128906 14.757812 15.984375 14.90625 14.792969 14.90625 C 12.914062 14.90625 11.15625 14.539062 9.839844 13.867188 C 8.65625 13.261719 7.976562 12.46875 7.976562 11.683594 C 7.976562 10.902344 8.65625 10.105469 9.839844 9.503906 C 11.15625 8.832031 12.914062 8.460938 14.792969 8.460938 C 15.28125 8.460938 15.757812 8.488281 16.226562 8.535156 L 16.226562 9.898438 C 16.226562 10.375 16.613281 10.757812 17.085938 10.757812 L 18.402344 10.757812 C 18.542969 11.292969 18.753906 11.800781 19.03125 12.277344 L 18.101562 13.207031 C 17.9375 13.371094 17.847656 13.585938 17.847656 13.816406 C 17.847656 14.046875 17.9375 14.261719 18.101562 14.421875 Z M 18.101562 14.421875 " fill-opacity="1" fill-rule="nonzero"/><path fill="#c4942e" d="M 21.609375 14.671875 L 21.609375 16.273438 C 21.597656 17.082031 20.90625 17.707031 20.324219 18.09375 C 19.027344 18.953125 16.957031 19.46875 14.792969 19.46875 C 12.625 19.46875 10.558594 18.953125 9.257812 18.09375 C 8.675781 17.703125 7.976562 17.070312 7.976562 16.246094 C 7.976562 16.234375 7.976562 16.222656 7.976562 16.210938 L 7.976562 13.84375 C 9.324219 15.117188 11.84375 15.957031 14.792969 15.957031 C 16.296875 15.957031 17.738281 15.734375 18.988281 15.3125 L 19.070312 15.394531 C 19.234375 15.558594 19.449219 15.644531 19.679688 15.644531 C 19.910156 15.644531 20.125 15.558594 20.285156 15.394531 L 21.21875 14.460938 C 21.347656 14.539062 21.476562 14.609375 21.609375 14.671875 Z M 21.609375 14.671875 " fill-opacity="1" fill-rule="nonzero"/><g clip-path="url(#2270891001)"><path fill="#c4942e" d="M 30.011719 8.714844 C 29.609375 8.714844 29.265625 8.445312 29.175781 8.050781 C 29.050781 7.53125 28.84375 7.03125 28.5625 6.574219 C 28.351562 6.234375 28.402344 5.796875 28.683594 5.515625 L 29.585938 4.609375 L 28.882812 3.90625 L 27.980469 4.808594 C 27.695312 5.09375 27.261719 5.144531 26.917969 4.933594 C 26.460938 4.648438 25.964844 4.445312 25.441406 4.320312 C 25.050781 4.226562 24.777344 3.882812 24.777344 3.484375 L 24.777344 2.207031 L 23.785156 2.207031 L 23.785156 3.484375 C 23.785156 3.882812 23.511719 4.226562 23.121094 4.320312 C 22.597656 4.445312 22.101562 4.648438 21.640625 4.933594 C 21.300781 5.144531 20.867188 5.09375 20.582031 4.8125 L 19.679688 3.90625 L 18.972656 4.609375 L 19.878906 5.515625 C 20.160156 5.796875 20.210938 6.234375 20 6.574219 C 19.71875 7.03125 19.511719 7.53125 19.386719 8.054688 C 19.296875 8.445312 18.953125 8.714844 18.550781 8.714844 L 17.46875 8.714844 C 17.453125 8.714844 17.441406 8.714844 17.425781 8.714844 L 17.273438 8.714844 L 17.273438 9.710938 L 18.550781 9.710938 C 18.953125 9.710938 19.296875 9.984375 19.386719 10.375 C 19.511719 10.898438 19.71875 11.394531 20 11.851562 C 20.210938 12.195312 20.160156 12.628906 19.878906 12.914062 L 18.972656 13.816406 L 19.484375 14.324219 L 19.511719 14.355469 L 19.679688 14.519531 L 20.582031 13.617188 C 20.863281 13.335938 21.300781 13.285156 21.640625 13.492188 C 21.855469 13.628906 22.082031 13.742188 22.3125 13.84375 C 22.328125 13.847656 22.34375 13.851562 22.355469 13.859375 C 22.359375 13.859375 22.359375 13.863281 22.363281 13.863281 C 22.609375 13.964844 22.859375 14.046875 23.121094 14.105469 C 23.511719 14.199219 23.785156 14.542969 23.785156 14.941406 L 23.785156 16.21875 L 24.777344 16.21875 L 24.777344 14.941406 C 24.777344 14.542969 25.050781 14.199219 25.441406 14.105469 C 25.964844 13.984375 26.460938 13.777344 26.921875 13.492188 C 27.261719 13.28125 27.699219 13.332031 27.980469 13.617188 L 28.882812 14.519531 L 29.585938 13.816406 L 28.683594 12.914062 C 28.402344 12.628906 28.351562 12.195312 28.5625 11.851562 C 28.84375 11.394531 29.050781 10.894531 29.175781 10.375 C 29.265625 9.984375 29.609375 9.710938 30.011719 9.710938 L 31.289062 9.710938 L 31.289062 8.714844 Z M 24.28125 12.972656 C 22.207031 12.972656 20.523438 11.285156 20.523438 9.214844 C 20.523438 7.140625 22.207031 5.453125 24.28125 5.453125 C 26.355469 5.453125 28.042969 7.140625 28.042969 9.214844 C 28.042969 11.285156 26.355469 12.972656 24.28125 12.972656 Z M 24.28125 12.972656 " fill-opacity="1" fill-rule="nonzero"/></g><path fill="#c4942e" d="M 26.992188 9.214844 C 26.992188 10.710938 25.777344 11.925781 24.28125 11.925781 C 22.785156 11.925781 21.570312 10.710938 21.570312 9.214844 C 21.570312 7.71875 22.785156 6.5 24.28125 6.5 C 25.777344 6.5 26.992188 7.71875 26.992188 9.214844 Z M 26.992188 9.214844 " fill-opacity="1" fill-rule="nonzero"/><g clip-path="url(#2822dd4c11)"><path fill="#c4942e" d="M 11.660156 25.902344 C 11.296875 25.902344 10.984375 25.65625 10.902344 25.304688 C 10.816406 24.9375 10.671875 24.585938 10.476562 24.261719 C 10.472656 24.253906 10.464844 24.242188 10.457031 24.230469 C 10.265625 23.921875 10.3125 23.527344 10.566406 23.273438 L 11.15625 22.683594 L 10.808594 22.339844 L 10.222656 22.925781 C 9.964844 23.183594 9.570312 23.226562 9.265625 23.039062 C 8.933594 22.832031 8.570312 22.683594 8.191406 22.59375 C 7.839844 22.507812 7.59375 22.199219 7.59375 21.835938 L 7.59375 21.007812 L 7.101562 21.007812 L 7.101562 21.835938 C 7.101562 22.199219 6.855469 22.507812 6.503906 22.59375 C 6.125 22.683594 5.761719 22.832031 5.429688 23.039062 C 5.125 23.226562 4.730469 23.183594 4.472656 22.925781 L 3.886719 22.339844 L 3.539062 22.683594 L 4.128906 23.273438 C 4.382812 23.527344 4.429688 23.921875 4.238281 24.230469 C 4.03125 24.5625 3.882812 24.925781 3.792969 25.304688 C 3.710938 25.65625 3.398438 25.902344 3.039062 25.902344 L 2.207031 25.902344 L 2.207031 26.390625 L 3.039062 26.390625 C 3.398438 26.390625 3.710938 26.636719 3.792969 26.992188 C 3.882812 27.371094 4.03125 27.730469 4.238281 28.0625 C 4.429688 28.371094 4.382812 28.765625 4.128906 29.023438 L 3.539062 29.609375 L 3.886719 29.957031 L 4.472656 29.367188 C 4.726562 29.113281 5.121094 29.066406 5.429688 29.257812 C 5.761719 29.460938 6.125 29.613281 6.503906 29.703125 C 6.855469 29.785156 7.101562 30.09375 7.101562 30.457031 L 7.101562 31.289062 L 7.59375 31.289062 L 7.59375 30.457031 C 7.59375 30.09375 7.839844 29.785156 8.191406 29.703125 C 8.570312 29.613281 8.929688 29.460938 9.265625 29.257812 C 9.574219 29.066406 9.96875 29.113281 10.222656 29.367188 L 10.808594 29.957031 L 11.15625 29.609375 L 10.566406 29.023438 C 10.3125 28.765625 10.265625 28.371094 10.457031 28.0625 C 10.664062 27.730469 10.8125 27.371094 10.902344 26.988281 C 10.984375 26.636719 11.296875 26.390625 11.660156 26.390625 L 12.488281 26.390625 L 12.488281 25.902344 Z M 7.347656 29.105469 C 5.71875 29.105469 4.390625 27.777344 4.390625 26.148438 C 4.390625 24.515625 5.71875 23.1875 7.347656 23.1875 C 8.980469 23.1875 10.304688 24.515625 10.304688 26.148438 C 10.304688 27.777344 8.980469 29.105469 7.347656 29.105469 Z M 7.347656 29.105469 " fill-opacity="1" fill-rule="nonzero"/></g><path fill="#c4942e" d="M 21.609375 18.414062 L 21.609375 20.824219 C 21.601562 21.457031 21.144531 22.105469 20.324219 22.652344 C 19.023438 23.515625 16.953125 24.03125 14.792969 24.03125 C 13.699219 24.03125 12.632812 23.902344 11.667969 23.65625 L 12.089844 23.234375 C 12.390625 22.929688 12.390625 22.4375 12.089844 22.136719 L 11.359375 21.40625 C 11.210938 21.257812 11.015625 21.179688 10.808594 21.179688 C 10.601562 21.179688 10.40625 21.257812 10.261719 21.40625 L 9.632812 22.035156 C 9.316406 21.863281 8.984375 21.726562 8.640625 21.625 L 8.640625 20.734375 C 8.640625 20.34375 8.351562 20.019531 7.976562 19.964844 L 7.976562 18.414062 C 8.179688 18.605469 8.417969 18.789062 8.679688 18.964844 C 10.164062 19.949219 12.394531 20.515625 14.792969 20.515625 C 17.191406 20.515625 19.421875 19.949219 20.90625 18.964844 C 21.167969 18.789062 21.40625 18.605469 21.609375 18.414062 Z M 21.609375 18.414062 " fill-opacity="1" fill-rule="nonzero"/><path fill="#c4942e" d="M 21.609375 22.972656 L 21.609375 25.363281 C 21.609375 26.148438 20.929688 26.941406 19.746094 27.546875 C 18.429688 28.21875 16.671875 28.589844 14.792969 28.589844 C 13.664062 28.589844 12.566406 28.453125 11.582031 28.195312 C 11.699219 27.949219 11.792969 27.699219 11.867188 27.4375 L 12.761719 27.4375 C 13.1875 27.4375 13.535156 27.089844 13.535156 26.664062 L 13.535156 25.628906 C 13.535156 25.367188 13.402344 25.132812 13.199219 24.992188 C 13.722656 25.046875 14.253906 25.078125 14.792969 25.078125 C 17.1875 25.078125 19.414062 24.511719 20.902344 23.523438 C 21.167969 23.347656 21.40625 23.164062 21.609375 22.972656 Z M 21.609375 22.972656 " fill-opacity="1" fill-rule="nonzero"/><path fill="#c4942e" d="M 9.257812 26.148438 C 9.257812 26.402344 9.210938 26.644531 9.113281 26.878906 C 9.015625 27.113281 8.878906 27.320312 8.699219 27.496094 C 8.519531 27.675781 8.3125 27.816406 8.078125 27.910156 C 7.84375 28.007812 7.601562 28.058594 7.347656 28.058594 C 7.09375 28.058594 6.851562 28.007812 6.617188 27.910156 C 6.382812 27.816406 6.175781 27.675781 5.996094 27.496094 C 5.816406 27.320312 5.679688 27.113281 5.582031 26.878906 C 5.484375 26.644531 5.4375 26.402344 5.4375 26.148438 C 5.4375 25.894531 5.484375 25.648438 5.582031 25.417969 C 5.679688 25.183594 5.816406 24.976562 5.996094 24.796875 C 6.175781 24.617188 6.382812 24.480469 6.617188 24.382812 C 6.851562 24.285156 7.09375 24.238281 7.347656 24.238281 C 7.601562 24.238281 7.84375 24.285156 8.078125 24.382812 C 8.3125 24.480469 8.519531 24.617188 8.699219 24.796875 C 8.878906 24.976562 9.015625 25.183594 9.113281 25.417969 C 9.210938 25.648438 9.257812 25.894531 9.257812 26.148438 Z M 9.257812 26.148438 " fill-opacity="1" fill-rule="nonzero"/></svg>