<svg xmlns="http://www.w3.org/2000/svg" xmlns:xlink="http://www.w3.org/1999/xlink" width="45" zoomAndPan="magnify" viewBox="0 0 33.75 33.749998" height="45" preserveAspectRatio="xMidYMid meet" version="1.0"><defs><clipPath id="6a9929166e"><path d="M 25.160156 1.3125 L 30.429688 1.3125 L 30.429688 7 L 25.160156 7 Z M 25.160156 1.3125 " clip-rule="nonzero"/></clipPath><clipPath id="3e55a38b88"><path d="M 2.886719 13 L 12 13 L 12 23 L 2.886719 23 Z M 2.886719 13 " clip-rule="nonzero"/></clipPath><clipPath id="0100ca8f2e"><path d="M 13 21 L 22 21 L 22 31.835938 L 13 31.835938 Z M 13 21 " clip-rule="nonzero"/></clipPath><clipPath id="c62b093e6e"><path d="M 3.507812 22.886719 L 12.546875 22.886719 L 12.546875 31.835938 L 3.507812 31.835938 Z M 3.507812 22.886719 " clip-rule="nonzero"/></clipPath></defs><g clip-path="url(#6a9929166e)"><path fill="#c4942e" d="M 28.003906 2 C 27.199219 2.277344 26.433594 2.585938 25.699219 2.921875 C 25.523438 3.003906 25.351562 3.085938 25.179688 3.167969 L 29.59375 6.945312 C 29.648438 6.761719 29.703125 6.578125 29.753906 6.394531 C 29.972656 5.617188 30.160156 4.8125 30.3125 3.972656 C 30.453125 3.128906 30.574219 2.265625 30.589844 1.3125 C 29.652344 1.476562 28.816406 1.726562 28.003906 2 " fill-opacity="1" fill-rule="nonzero"/></g><path fill="#c4942e" d="M 25.222656 10.941406 C 24.4375 11.855469 23.058594 11.960938 22.144531 11.179688 C 21.226562 10.394531 21.121094 9.015625 21.902344 8.101562 C 22.6875 7.1875 24.066406 7.078125 24.984375 7.863281 C 25.898438 8.648438 26.003906 10.023438 25.222656 10.941406 Z M 21.609375 5.21875 C 19.082031 6.917969 16.902344 8.921875 14.988281 11.144531 C 13.078125 13.375 11.433594 15.832031 10.140625 18.589844 C 9.980469 18.933594 9.824219 19.285156 9.671875 19.640625 C 9.527344 19.996094 9.378906 20.355469 9.242188 20.722656 C 9.152344 20.964844 9.066406 21.210938 8.980469 21.460938 L 14.011719 25.769531 C 14.242188 25.644531 14.476562 25.519531 14.703125 25.394531 C 15.046875 25.203125 15.371094 25 15.707031 24.804688 C 16.03125 24.601562 16.355469 24.390625 16.671875 24.179688 C 19.195312 22.480469 21.371094 20.476562 23.277344 18.242188 C 25.183594 16.007812 26.824219 13.546875 28.113281 10.789062 C 28.578125 9.796875 28.992188 8.765625 29.355469 7.683594 L 24.484375 3.515625 C 23.472656 4.039062 22.515625 4.609375 21.609375 5.21875 " fill-opacity="1" fill-rule="nonzero"/><g clip-path="url(#3e55a38b88)"><path fill="#c4942e" d="M 8.878906 19.558594 L 8.96875 19.339844 C 9.117188 18.996094 9.273438 18.640625 9.445312 18.269531 C 10.160156 16.742188 11.007812 15.261719 11.972656 13.832031 L 8.667969 13.664062 L 2.898438 22.578125 L 8.613281 20.230469 C 8.703125 20 8.792969 19.777344 8.878906 19.558594 " fill-opacity="1" fill-rule="nonzero"/></g><g clip-path="url(#0100ca8f2e)"><path fill="#c4942e" d="M 17.097656 24.8125 C 16.75 25.042969 16.429688 25.253906 16.109375 25.453125 L 15.90625 25.574219 C 15.707031 25.695312 15.496094 25.820312 15.285156 25.941406 L 13.84375 31.945312 L 21.765625 24.878906 L 21.089844 21.632812 C 19.824219 22.8125 18.492188 23.875 17.097656 24.8125 " fill-opacity="1" fill-rule="nonzero"/></g><g clip-path="url(#c62b093e6e)"><path fill="#c4942e" d="M 9.566406 29.105469 C 9.816406 28.945312 10.320312 28.351562 10.816406 27.445312 C 9.273438 27.445312 7.613281 28.109375 6.726562 29.253906 C 7.167969 27.945312 6.65625 26.492188 8.835938 25.335938 C 7.734375 25.152344 7.066406 25.25 6.324219 25.671875 C 6.714844 24.988281 6.964844 23.550781 8.789062 22.941406 C 5.746094 23.238281 4.871094 27.136719 3.882812 27.996094 C 5.148438 28.160156 5.238281 26.902344 6.660156 26.652344 C 3.992188 28.117188 4.699219 31.363281 3.53125 32.132812 C 6.679688 32.652344 7.03125 29.179688 8.875 28.804688 C 7.253906 29.667969 7.433594 31.042969 7.285156 31.648438 C 7.996094 30.457031 11.820312 30.175781 12.5 26.355469 C 12.117188 27.449219 10.617188 29.152344 9.566406 29.105469 " fill-opacity="1" fill-rule="nonzero"/></g></svg>