<svg xmlns="http://www.w3.org/2000/svg" xmlns:xlink="http://www.w3.org/1999/xlink" width="45" zoomAndPan="magnify" viewBox="0 0 33.75 33.749998" height="45" preserveAspectRatio="xMidYMid meet" version="1.0"><defs><clipPath id="9ecde779f3"><path d="M 2.511719 19 L 30 19 L 30 31.621094 L 2.511719 31.621094 Z M 2.511719 19 " clip-rule="nonzero"/></clipPath><clipPath id="d2cf4d179f"><path d="M 22 13 L 30.804688 13 L 30.804688 23 L 22 23 Z M 22 13 " clip-rule="nonzero"/></clipPath><clipPath id="1855f24307"><path d="M 19 1.839844 L 29 1.839844 L 29 11 L 19 11 Z M 19 1.839844 " clip-rule="nonzero"/></clipPath></defs><g clip-path="url(#9ecde779f3)"><path fill="#ffffff" d="M 29.769531 25.328125 C 29.519531 24.828125 29.019531 24.484375 28.457031 24.484375 L 23.613281 24.421875 C 23.582031 24.546875 23.550781 24.640625 23.488281 24.765625 C 23.019531 26.015625 21.738281 26.734375 20.421875 26.609375 L 20.234375 26.578125 C 18.453125 26.390625 16.703125 26.046875 14.984375 25.546875 L 13.609375 25.140625 C 13.390625 25.078125 13.203125 24.921875 13.109375 24.734375 C 13.015625 24.546875 12.984375 24.296875 13.046875 24.078125 C 13.109375 23.859375 13.265625 23.671875 13.453125 23.578125 C 13.640625 23.484375 13.890625 23.453125 14.109375 23.515625 L 15.546875 23.921875 C 17.109375 24.359375 18.703125 24.703125 20.328125 24.859375 L 20.644531 24.890625 C 21.207031 24.953125 21.769531 24.609375 21.957031 24.078125 C 22.082031 23.765625 22.082031 23.421875 21.925781 23.109375 C 21.769531 22.796875 21.519531 22.546875 21.207031 22.453125 L 14.171875 19.859375 C 13.390625 19.578125 12.546875 19.546875 11.765625 19.796875 L 3.292969 22.796875 C 2.761719 22.984375 2.511719 23.609375 2.761719 24.140625 L 5.355469 29.144531 C 5.574219 29.582031 6.074219 29.769531 6.546875 29.613281 L 8.578125 28.863281 C 8.890625 28.738281 9.265625 28.769531 9.578125 28.894531 L 14.765625 31.175781 C 15.765625 31.613281 16.890625 31.644531 17.921875 31.269531 L 28.925781 27.328125 C 29.332031 27.171875 29.644531 26.890625 29.800781 26.484375 C 29.957031 26.140625 29.925781 25.703125 29.769531 25.328125 Z M 29.769531 25.328125 " fill-opacity="1" fill-rule="nonzero"/></g><g clip-path="url(#d2cf4d179f)"><path fill="#ffffff" d="M 29.894531 16.484375 L 27.613281 16.484375 L 27.613281 14.203125 C 27.613281 13.605469 27.113281 13.105469 26.519531 13.105469 C 25.925781 13.105469 25.425781 13.605469 25.425781 14.203125 L 25.425781 16.484375 L 23.144531 16.484375 C 22.550781 16.484375 22.050781 16.984375 22.050781 17.578125 C 22.050781 18.171875 22.550781 18.671875 23.144531 18.671875 L 25.425781 18.671875 L 25.425781 20.953125 C 25.425781 21.546875 25.925781 22.046875 26.519531 22.046875 C 27.113281 22.046875 27.613281 21.546875 27.613281 20.953125 L 27.613281 18.671875 L 29.894531 18.671875 C 30.488281 18.671875 30.988281 18.171875 30.988281 17.578125 C 30.988281 16.984375 30.488281 16.484375 29.894531 16.484375 Z M 29.894531 16.484375 " fill-opacity="1" fill-rule="nonzero"/></g><path fill="#ffffff" d="M 20.390625 12.449219 L 18.109375 12.449219 L 18.109375 10.167969 C 18.109375 9.574219 17.609375 9.074219 17.015625 9.074219 C 16.421875 9.074219 15.921875 9.574219 15.921875 10.167969 L 15.921875 12.449219 L 13.640625 12.449219 C 13.046875 12.449219 12.546875 12.949219 12.546875 13.542969 C 12.546875 14.140625 13.046875 14.640625 13.640625 14.640625 L 15.921875 14.640625 L 15.921875 16.921875 C 15.921875 17.515625 16.421875 18.015625 17.015625 18.015625 C 17.609375 18.015625 18.109375 17.515625 18.109375 16.921875 L 18.109375 14.640625 L 20.390625 14.640625 C 20.988281 14.640625 21.488281 14.140625 21.488281 13.542969 C 21.488281 12.949219 20.988281 12.449219 20.390625 12.449219 Z M 20.390625 12.449219 " fill-opacity="1" fill-rule="nonzero"/><g clip-path="url(#1855f24307)"><path fill="#ffffff" d="M 27.832031 5.230469 L 25.550781 5.230469 L 25.550781 2.949219 C 25.550781 2.355469 25.050781 1.855469 24.457031 1.855469 C 23.863281 1.855469 23.363281 2.355469 23.363281 2.949219 L 23.363281 5.230469 L 21.082031 5.230469 C 20.484375 5.230469 19.984375 5.730469 19.984375 6.324219 C 19.984375 6.917969 20.484375 7.417969 21.082031 7.417969 L 23.363281 7.417969 L 23.363281 9.699219 C 23.363281 10.292969 23.863281 10.792969 24.457031 10.792969 C 25.050781 10.792969 25.550781 10.292969 25.550781 9.699219 L 25.550781 7.417969 L 27.832031 7.417969 C 28.425781 7.417969 28.925781 6.917969 28.925781 6.324219 C 28.925781 5.730469 28.425781 5.230469 27.832031 5.230469 Z M 27.832031 5.230469 " fill-opacity="1" fill-rule="nonzero"/></g></svg>