<svg xmlns="http://www.w3.org/2000/svg" xmlns:xlink="http://www.w3.org/1999/xlink" width="45" zoomAndPan="magnify" viewBox="0 0 33.75 33.749998" height="45" preserveAspectRatio="xMidYMid meet" version="1.0"><defs><clipPath id="b3529bfdc2"><path d="M 4.753906 2.097656 L 28.574219 2.097656 L 28.574219 31.132812 L 4.753906 31.132812 Z M 4.753906 2.097656 " clip-rule="nonzero"/></clipPath></defs><g clip-path="url(#b3529bfdc2)"><path fill="#030429" d="M 11.511719 24.382812 C 11.984375 24.636719 12.265625 25.027344 12.363281 25.554688 C 12.757812 25.5 13.125 25.574219 13.464844 25.785156 C 13.804688 25.996094 14.039062 26.289062 14.164062 26.671875 C 14.367188 26.613281 14.578125 26.597656 14.785156 26.621094 C 14.996094 26.644531 15.195312 26.707031 15.382812 26.808594 C 15.570312 26.90625 15.730469 27.039062 15.867188 27.199219 C 16.003906 27.363281 16.105469 27.542969 16.175781 27.746094 C 16.488281 27.660156 16.796875 27.667969 17.109375 27.761719 C 17.417969 27.859375 17.675781 28.035156 17.886719 28.28125 C 18.574219 28.671875 19.257812 29.070312 19.949219 29.449219 C 20.105469 29.53125 20.269531 29.546875 20.441406 29.492188 C 20.609375 29.441406 20.738281 29.335938 20.820312 29.179688 C 20.90625 29.023438 20.921875 28.863281 20.875 28.691406 C 20.824219 28.519531 20.722656 28.390625 20.570312 28.304688 C 19.597656 27.757812 18.628906 27.203125 17.660156 26.65625 C 17.539062 26.59375 17.460938 26.496094 17.425781 26.363281 C 17.386719 26.234375 17.402344 26.109375 17.46875 25.992188 C 17.535156 25.875 17.632812 25.796875 17.765625 25.761719 C 17.894531 25.722656 18.019531 25.738281 18.136719 25.808594 L 21.710938 27.816406 C 21.867188 27.902344 22.03125 27.917969 22.203125 27.863281 C 22.375 27.8125 22.503906 27.707031 22.585938 27.550781 C 22.671875 27.390625 22.6875 27.226562 22.636719 27.054688 C 22.585938 26.882812 22.484375 26.753906 22.328125 26.667969 C 21.421875 26.160156 20.511719 25.652344 19.609375 25.136719 C 19.492188 25.070312 19.414062 24.972656 19.378906 24.839844 C 19.34375 24.710938 19.359375 24.585938 19.425781 24.46875 C 19.492188 24.351562 19.59375 24.273438 19.722656 24.238281 C 19.855469 24.203125 19.980469 24.222656 20.09375 24.289062 C 20.996094 24.804688 21.898438 25.3125 22.804688 25.820312 C 23.121094 26 23.507812 25.867188 23.6875 25.554688 C 23.773438 25.398438 23.789062 25.230469 23.738281 25.058594 C 23.683594 24.886719 23.582031 24.757812 23.421875 24.671875 L 19.484375 22.425781 C 18.84375 22.058594 17.976562 22.410156 17.070312 22.777344 C 15.175781 23.546875 13.703125 23.960938 12.25 22.09375 C 12.011719 21.808594 12.113281 21.355469 12.429688 21.171875 C 12.949219 20.871094 13.453125 20.539062 13.933594 20.179688 C 14.386719 19.84375 14.808594 19.476562 15.207031 19.078125 C 15.371094 18.910156 15.535156 18.757812 15.695312 18.617188 C 14.890625 18.3125 14.171875 18.480469 13.503906 18.636719 C 12.691406 18.828125 11.941406 19.003906 11.121094 18.550781 L 11.09375 18.535156 L 8.90625 23.484375 C 9.402344 23.710938 9.558594 24.128906 9.65625 24.578125 C 9.917969 24.359375 10.214844 24.234375 10.554688 24.199219 C 10.890625 24.164062 11.210938 24.222656 11.511719 24.382812 Z M 20.003906 12.898438 C 19.609375 13.507812 19.050781 13.828125 18.324219 13.859375 L 18.992188 15.414062 L 19.992188 13.804688 L 21.851562 14.183594 L 20.898438 11.96875 C 20.308594 12.21875 20.359375 12.355469 20.003906 12.898438 Z M 14.671875 7.976562 C 14.574219 7.882812 14.527344 7.765625 14.527344 7.628906 C 14.523438 7.492188 14.574219 7.378906 14.667969 7.28125 C 14.765625 7.1875 14.878906 7.136719 15.015625 7.140625 C 15.152344 7.140625 15.269531 7.1875 15.363281 7.285156 L 16.042969 7.964844 L 18.144531 6.054688 C 18.246094 5.96875 18.363281 5.929688 18.496094 5.9375 C 18.628906 5.945312 18.738281 5.996094 18.828125 6.09375 C 18.917969 6.191406 18.960938 6.308594 18.953125 6.441406 C 18.949219 6.574219 18.898438 6.6875 18.800781 6.777344 L 16.375 8.980469 C 16.277344 9.078125 16.164062 9.125 16.027344 9.125 C 15.890625 9.128906 15.777344 9.078125 15.679688 8.984375 Z M 17.429688 2.402344 C 18.503906 3.207031 18.261719 3.117188 19.601562 3.191406 C 19.855469 3.203125 20.078125 3.292969 20.273438 3.457031 C 20.46875 3.617188 20.59375 3.824219 20.648438 4.074219 C 20.957031 5.378906 20.828125 5.15625 21.804688 6.070312 C 21.992188 6.246094 22.105469 6.457031 22.152344 6.707031 C 22.195312 6.957031 22.160156 7.195312 22.042969 7.421875 C 21.4375 8.617188 21.480469 8.363281 21.640625 9.695312 C 21.675781 9.945312 21.625 10.183594 21.5 10.402344 C 21.371094 10.625 21.191406 10.785156 20.957031 10.882812 C 19.75 11.398438 19.875 11.3125 19.1875 12.367188 C 19.050781 12.578125 18.863281 12.730469 18.625 12.816406 C 18.382812 12.902344 18.144531 12.910156 17.902344 12.832031 C 16.617188 12.445312 16.875 12.445312 15.59375 12.832031 C 15.347656 12.910156 15.109375 12.902344 14.867188 12.816406 C 14.628906 12.730469 14.441406 12.578125 14.304688 12.367188 C 13.570312 11.242188 13.769531 11.410156 12.535156 10.882812 C 12.300781 10.785156 12.121094 10.625 11.992188 10.402344 C 11.867188 10.183594 11.816406 9.949219 11.851562 9.695312 C 12.011719 8.363281 12.054688 8.617188 11.449219 7.421875 C 11.332031 7.195312 11.296875 6.957031 11.339844 6.707031 C 11.386719 6.457031 11.5 6.246094 11.6875 6.074219 C 12.664062 5.15625 12.535156 5.378906 12.84375 4.074219 C 12.898438 3.824219 13.023438 3.617188 13.21875 3.457031 C 13.414062 3.292969 13.636719 3.203125 13.890625 3.191406 C 15.230469 3.117188 14.988281 3.207031 16.0625 2.402344 C 16.261719 2.25 16.492188 2.171875 16.746094 2.171875 C 17 2.171875 17.230469 2.25 17.429688 2.402344 Z M 16.746094 4.328125 C 16.320312 4.328125 15.914062 4.410156 15.519531 4.570312 C 15.128906 4.734375 14.785156 4.964844 14.484375 5.265625 C 14.183594 5.566406 13.953125 5.910156 13.789062 6.304688 C 13.628906 6.695312 13.546875 7.105469 13.546875 7.527344 C 13.546875 7.953125 13.628906 8.359375 13.789062 8.753906 C 13.953125 9.144531 14.183594 9.492188 14.484375 9.789062 C 14.785156 10.089844 15.128906 10.320312 15.519531 10.484375 C 15.914062 10.644531 16.320312 10.726562 16.746094 10.726562 C 17.167969 10.726562 17.578125 10.644531 17.96875 10.484375 C 18.363281 10.320312 18.707031 10.089844 19.007812 9.789062 C 19.308594 9.492188 19.539062 9.144531 19.703125 8.753906 C 19.863281 8.359375 19.945312 7.953125 19.945312 7.527344 C 19.945312 7.105469 19.863281 6.695312 19.703125 6.304688 C 19.539062 5.910156 19.308594 5.566406 19.007812 5.265625 C 18.707031 4.964844 18.363281 4.734375 17.96875 4.570312 C 17.578125 4.410156 17.167969 4.328125 16.746094 4.328125 Z M 11.640625 14.683594 L 13.507812 14.359375 L 14.460938 16 L 15.460938 13.851562 C 15.070312 13.890625 14.695312 13.824219 14.339844 13.652344 C 13.984375 13.480469 13.699219 13.230469 13.488281 12.898438 C 13.3125 12.636719 13.121094 12.195312 12.851562 12.078125 L 11.636719 14.683594 Z M 10.414062 27.75 C 10.160156 27.9375 9.917969 27.910156 9.652344 27.789062 C 9.5 27.699219 9.398438 27.566406 9.347656 27.398438 C 9.296875 27.230469 9.308594 27.066406 9.382812 26.90625 C 9.636719 26.503906 9.890625 25.953125 10.121094 25.523438 C 10.210938 25.359375 10.339844 25.25 10.511719 25.195312 C 10.6875 25.136719 10.855469 25.148438 11.023438 25.226562 C 11.1875 25.304688 11.304688 25.429688 11.371094 25.597656 C 11.433594 25.769531 11.433594 25.941406 11.363281 26.109375 Z M 13.265625 27.324219 L 12.207031 29.375 C 12.109375 29.535156 11.972656 29.640625 11.792969 29.691406 C 11.613281 29.742188 11.441406 29.71875 11.277344 29.628906 C 11.113281 29.539062 11.003906 29.402344 10.953125 29.222656 C 10.898438 29.042969 10.917969 28.871094 11.003906 28.707031 C 11.378906 28.007812 11.78125 27.332031 12.175781 26.648438 C 12.425781 26.460938 12.683594 26.445312 12.953125 26.613281 C 13.21875 26.777344 13.324219 27.015625 13.265625 27.324219 Z M 14.347656 30.175781 C 14.253906 30.296875 14.136719 30.375 13.992188 30.414062 C 13.847656 30.457031 13.707031 30.449219 13.566406 30.398438 C 13.425781 30.34375 13.316406 30.257812 13.234375 30.132812 C 13.152344 30.003906 13.117188 29.867188 13.125 29.71875 L 14.128906 27.777344 C 14.234375 27.671875 14.363281 27.613281 14.507812 27.589844 C 14.65625 27.570312 14.796875 27.597656 14.925781 27.667969 C 15.058594 27.738281 15.15625 27.839844 15.21875 27.972656 C 15.285156 28.105469 15.300781 28.246094 15.273438 28.394531 Z M 16.523438 30.96875 C 16.445312 31.113281 16.332031 31.214844 16.183594 31.277344 C 16.03125 31.339844 15.878906 31.347656 15.722656 31.304688 C 15.566406 31.257812 15.441406 31.167969 15.351562 31.03125 C 15.257812 30.898438 15.21875 30.75 15.234375 30.585938 L 16.136719 28.847656 C 16.261719 28.734375 16.40625 28.671875 16.574219 28.660156 C 16.742188 28.652344 16.894531 28.699219 17.027344 28.800781 C 17.160156 28.902344 17.246094 29.035156 17.28125 29.199219 C 17.316406 29.367188 17.296875 29.523438 17.214844 29.671875 Z M 18.617188 29.816406 C 18.957031 30.007812 19.195312 30.308594 18.949219 30.753906 C 18.863281 30.910156 18.738281 31.015625 18.566406 31.066406 C 18.398438 31.117188 18.238281 31.101562 18.078125 31.023438 C 17.964844 30.957031 17.828125 30.878906 17.710938 30.8125 L 18.074219 30.128906 C 18.160156 29.964844 18.21875 29.792969 18.25 29.609375 Z M 13.285156 21.796875 C 13.714844 21.53125 14.125 21.253906 14.519531 20.957031 C 15.007812 20.59375 15.464844 20.195312 15.898438 19.765625 C 17.890625 17.75 19.273438 18.300781 20.414062 18.753906 C 21.203125 19.066406 21.902344 19.347656 22.667969 19.023438 L 24.605469 24.027344 L 24.3125 24.148438 L 24.292969 24.128906 C 24.179688 24.007812 24.050781 23.90625 23.902344 23.824219 L 19.964844 21.578125 C 18.914062 20.980469 17.832031 21.417969 16.703125 21.875 C 15.546875 22.339844 14.335938 22.832031 13.285156 21.796875 Z M 8.082031 15.769531 C 8.160156 15.597656 8.285156 15.476562 8.464844 15.40625 C 8.644531 15.335938 8.820312 15.339844 8.992188 15.417969 L 10.378906 16.03125 C 10.550781 16.109375 10.671875 16.234375 10.742188 16.414062 C 10.8125 16.589844 10.808594 16.765625 10.730469 16.941406 L 7.550781 24.132812 C 7.472656 24.308594 7.347656 24.429688 7.167969 24.5 C 6.992188 24.566406 6.816406 24.5625 6.640625 24.488281 L 5.253906 23.875 C 5.082031 23.796875 4.960938 23.667969 4.890625 23.492188 C 4.824219 23.3125 4.828125 23.136719 4.902344 22.964844 Z M 25.757812 16.28125 L 28.601562 23.613281 C 28.667969 23.792969 28.664062 23.96875 28.585938 24.140625 C 28.511719 24.316406 28.382812 24.4375 28.207031 24.507812 L 26.792969 25.054688 C 26.617188 25.125 26.441406 25.117188 26.265625 25.042969 C 26.089844 24.964844 25.96875 24.835938 25.898438 24.660156 L 23.058594 17.328125 C 22.988281 17.152344 22.992188 16.972656 23.070312 16.800781 C 23.148438 16.625 23.273438 16.503906 23.453125 16.433594 L 24.863281 15.886719 C 25.042969 15.820312 25.21875 15.824219 25.390625 15.898438 C 25.566406 15.976562 25.6875 16.105469 25.757812 16.28125 Z M 24.675781 17.023438 C 24.542969 17.023438 24.433594 17.066406 24.339844 17.160156 C 24.25 17.25 24.203125 17.363281 24.203125 17.492188 C 24.203125 17.621094 24.25 17.734375 24.339844 17.824219 C 24.433594 17.917969 24.542969 17.960938 24.675781 17.960938 C 24.804688 17.960938 24.914062 17.917969 25.007812 17.824219 C 25.097656 17.734375 25.144531 17.621094 25.144531 17.492188 C 25.144531 17.363281 25.097656 17.25 25.007812 17.160156 C 24.914062 17.066406 24.804688 17.023438 24.675781 17.023438 Z M 9.128906 16.558594 C 9 16.554688 8.886719 16.59375 8.792969 16.683594 C 8.695312 16.769531 8.644531 16.878906 8.636719 17.007812 C 8.632812 17.136719 8.671875 17.25 8.761719 17.347656 C 8.847656 17.441406 8.957031 17.492188 9.085938 17.5 C 9.214844 17.507812 9.328125 17.464844 9.425781 17.378906 C 9.519531 17.289062 9.574219 17.183594 9.578125 17.050781 C 9.585938 16.921875 9.542969 16.808594 9.457031 16.714844 C 9.367188 16.617188 9.261719 16.566406 9.128906 16.5625 Z M 9.128906 16.558594 " fill-opacity="1" fill-rule="evenodd"/></g></svg>