<svg xmlns="http://www.w3.org/2000/svg" xmlns:xlink="http://www.w3.org/1999/xlink" width="45" zoomAndPan="magnify" viewBox="0 0 33.75 33.749998" height="45" preserveAspectRatio="xMidYMid meet" version="1.0"><defs><clipPath id="c5fdcfab56"><path d="M 1.945312 2.367188 L 31.722656 2.367188 L 31.722656 31.402344 L 1.945312 31.402344 Z M 1.945312 2.367188 " clip-rule="nonzero"/></clipPath></defs><g clip-path="url(#c5fdcfab56)"><path fill="#ffffff" d="M 31.546875 21.183594 L 31.546875 26.4375 L 26.277344 29.097656 L 26.277344 23.84375 Z M 26.148438 18.917969 L 26.148438 21.175781 C 26.148438 21.519531 25.875 21.800781 25.535156 21.820312 C 25.535156 21.808594 25.535156 21.796875 25.535156 21.785156 L 25.535156 10.113281 C 25.535156 9.753906 25.246094 9.464844 24.890625 9.464844 L 15.625 9.464844 C 15.613281 9.464844 15.605469 9.46875 15.59375 9.46875 C 15.609375 9.125 15.890625 8.855469 16.238281 8.855469 L 19.785156 8.855469 C 19.410156 7.234375 17.960938 6.042969 16.238281 6.042969 C 14.230469 6.042969 12.59375 7.675781 12.59375 9.6875 C 12.59375 11.695312 14.230469 13.328125 16.238281 13.328125 C 17.875 13.328125 19.257812 12.246094 19.71875 10.757812 L 20.292969 10.757812 C 19.820312 12.554688 18.179688 13.882812 16.238281 13.882812 C 13.921875 13.882812 12.042969 12 12.042969 9.6875 C 12.042969 7.371094 13.921875 5.488281 16.238281 5.488281 C 18.265625 5.488281 19.964844 6.925781 20.351562 8.855469 L 21.75 8.855469 C 21.679688 8.363281 21.542969 7.886719 21.339844 7.429688 C 21.300781 7.339844 21.3125 7.234375 21.371094 7.15625 L 22.382812 5.789062 C 22.105469 5.34375 21.773438 4.933594 21.402344 4.558594 L 19.847656 5.242188 C 19.753906 5.285156 19.648438 5.273438 19.570312 5.210938 C 18.992188 4.78125 18.351562 4.472656 17.65625 4.289062 C 17.5625 4.265625 17.484375 4.191406 17.460938 4.09375 L 17.023438 2.449219 C 16.503906 2.394531 15.972656 2.394531 15.453125 2.449219 L 15.015625 4.09375 C 14.988281 4.191406 14.914062 4.265625 14.816406 4.289062 C 14.125 4.472656 13.480469 4.78125 12.90625 5.210938 C 12.824219 5.273438 12.71875 5.285156 12.628906 5.242188 L 11.070312 4.558594 C 10.699219 4.933594 10.371094 5.34375 10.089844 5.789062 L 11.101562 7.15625 C 11.164062 7.234375 11.175781 7.339844 11.132812 7.429688 C 10.84375 8.085938 10.6875 8.78125 10.664062 9.5 C 10.660156 9.601562 10.601562 9.691406 10.515625 9.738281 L 9.007812 10.53125 C 9.070312 11.050781 9.183594 11.566406 9.355469 12.0625 L 11.058594 12.121094 C 11.15625 12.125 11.246094 12.179688 11.292969 12.269531 C 11.625 12.90625 12.074219 13.464844 12.617188 13.929688 C 12.695312 13.992188 12.730469 14.09375 12.710938 14.191406 L 12.390625 15.863281 C 12.835938 16.144531 13.308594 16.371094 13.804688 16.546875 L 14.914062 15.253906 C 14.976562 15.179688 15.078125 15.144531 15.175781 15.160156 C 15.878906 15.296875 16.601562 15.296875 17.300781 15.160156 C 17.398438 15.144531 17.496094 15.179688 17.5625 15.253906 L 18.671875 16.546875 C 19.164062 16.371094 19.636719 16.144531 20.085938 15.863281 L 19.765625 14.191406 C 19.746094 14.09375 19.78125 13.992188 19.855469 13.929688 C 20.402344 13.460938 20.847656 12.902344 21.179688 12.269531 C 21.226562 12.183594 21.316406 12.125 21.417969 12.121094 L 23.117188 12.0625 C 23.265625 11.636719 23.371094 11.203125 23.4375 10.757812 L 24.246094 10.757812 L 24.246094 19.515625 L 20.449219 20.925781 L 20.449219 23.726562 L 22.886719 23.726562 C 23.242188 23.726562 23.53125 24.015625 23.53125 24.371094 C 23.53125 24.714844 23.261719 24.996094 22.921875 25.015625 C 22.925781 25.003906 22.925781 24.988281 22.925781 24.976562 C 22.925781 24.621094 22.636719 24.332031 22.28125 24.332031 L 8.566406 24.332031 C 8.554688 24.332031 8.542969 24.332031 8.53125 24.335938 C 8.550781 23.996094 8.828125 23.726562 9.171875 23.726562 L 12.777344 23.726562 C 12.527344 21.960938 11.007812 20.601562 9.171875 20.601562 C 7.164062 20.601562 5.53125 22.234375 5.53125 24.242188 C 5.53125 26.25 7.164062 27.886719 9.171875 27.886719 C 10.703125 27.886719 12.007812 26.957031 12.546875 25.621094 L 13.136719 25.621094 C 12.925781 26.234375 12.570312 26.792969 12.09375 27.253906 C 11.308594 28.019531 10.269531 28.4375 9.171875 28.4375 C 6.859375 28.4375 4.976562 26.554688 4.976562 24.242188 C 4.976562 21.929688 6.859375 20.046875 9.171875 20.046875 C 11.3125 20.046875 13.082031 21.65625 13.335938 23.726562 L 14.726562 23.726562 C 14.671875 23.125 14.519531 22.542969 14.277344 21.988281 C 14.234375 21.898438 14.246094 21.792969 14.308594 21.710938 L 15.320312 20.34375 C 15.039062 19.902344 14.710938 19.492188 14.339844 19.117188 L 12.78125 19.800781 C 12.691406 19.839844 12.585938 19.828125 12.503906 19.769531 C 11.929688 19.339844 11.285156 19.03125 10.59375 18.847656 C 10.496094 18.824219 10.421875 18.746094 10.394531 18.652344 L 9.957031 17.007812 C 9.433594 16.953125 8.910156 16.953125 8.386719 17.007812 L 7.949219 18.652344 C 7.925781 18.746094 7.847656 18.824219 7.753906 18.847656 C 7.058594 19.03125 6.417969 19.339844 5.839844 19.769531 C 5.761719 19.828125 5.65625 19.839844 5.5625 19.800781 L 4.003906 19.117188 C 3.636719 19.492188 3.304688 19.902344 3.027344 20.34375 L 4.039062 21.710938 C 4.097656 21.792969 4.109375 21.898438 4.070312 21.988281 C 3.78125 22.644531 3.621094 23.339844 3.597656 24.058594 C 3.59375 24.15625 3.539062 24.25 3.449219 24.292969 L 1.945312 25.085938 C 2.003906 25.609375 2.121094 26.125 2.292969 26.617188 L 3.992188 26.679688 C 4.09375 26.683594 4.183594 26.738281 4.230469 26.828125 C 4.5625 27.460938 5.007812 28.019531 5.554688 28.488281 C 5.628906 28.550781 5.664062 28.652344 5.644531 28.75 L 5.324219 30.421875 C 5.773438 30.699219 6.246094 30.929688 6.738281 31.105469 L 7.847656 29.808594 C 7.914062 29.734375 8.011719 29.699219 8.109375 29.71875 C 8.808594 29.855469 9.535156 29.855469 10.234375 29.71875 C 10.25 29.714844 10.269531 29.714844 10.285156 29.714844 C 10.367188 29.714844 10.445312 29.75 10.496094 29.808594 L 11.605469 31.105469 C 12.097656 30.929688 12.574219 30.699219 13.019531 30.421875 L 12.699219 28.75 C 12.679688 28.652344 12.714844 28.550781 12.792969 28.488281 C 13.339844 28.019531 13.785156 27.460938 14.117188 26.828125 C 14.160156 26.738281 14.25 26.683594 14.351562 26.679688 L 16.054688 26.617188 C 16.167969 26.292969 16.253906 25.960938 16.320312 25.621094 L 20.449219 25.621094 L 20.449219 26.4375 L 25.722656 29.097656 L 25.722656 23.671875 C 25.722656 23.566406 25.78125 23.472656 25.875 23.425781 L 31.132812 20.773438 Z M 26.148438 18.917969 " fill-opacity="1" fill-rule="nonzero"/></g></svg>