<svg xmlns="http://www.w3.org/2000/svg" xmlns:xlink="http://www.w3.org/1999/xlink" width="45" zoomAndPan="magnify" viewBox="0 0 33.75 33.749998" height="45" preserveAspectRatio="xMidYMid meet" version="1.0"><defs><clipPath id="5558052e35"><path d="M 1.726562 5.625 L 31.507812 5.625 L 31.507812 30.195312 L 1.726562 30.195312 Z M 1.726562 5.625 " clip-rule="nonzero"/></clipPath></defs><g clip-path="url(#5558052e35)"><path fill="#ffffff" d="M 27.339844 22.402344 L 23.503906 17.882812 C 23.351562 17.703125 23.480469 17.425781 23.714844 17.425781 L 25.503906 17.425781 L 25.503906 8.777344 C 25.503906 8.46875 25.753906 8.21875 26.058594 8.21875 L 29.042969 8.21875 C 29.351562 8.21875 29.601562 8.46875 29.601562 8.777344 L 29.601562 17.425781 L 31.386719 17.425781 C 31.625 17.425781 31.753906 17.703125 31.601562 17.882812 L 27.765625 22.402344 C 27.652344 22.53125 27.449219 22.53125 27.339844 22.402344 Z M 16.746094 8.171875 C 19.839844 8.171875 22.351562 10.683594 22.351562 13.777344 C 22.351562 16.875 19.839844 19.382812 16.746094 19.382812 C 13.648438 19.382812 11.140625 16.875 11.140625 13.777344 C 11.140625 10.683594 13.648438 8.171875 16.746094 8.171875 Z M 18.464844 12.285156 C 18.21875 11.703125 17.753906 11.367188 17.242188 11.238281 L 17.242188 11.070312 C 17.242188 10.792969 17.019531 10.570312 16.746094 10.570312 C 16.46875 10.570312 16.246094 10.792969 16.246094 11.070312 L 16.246094 11.246094 C 15.523438 11.433594 14.980469 12.011719 15.019531 12.792969 C 15.0625 13.726562 15.855469 14.117188 16.667969 14.253906 C 17.007812 14.308594 17.566406 14.421875 17.617188 14.839844 C 17.621094 14.867188 17.621094 14.882812 17.621094 14.890625 C 17.628906 15.21875 17.191406 15.34375 16.933594 15.375 C 16.875 15.382812 16.828125 15.386719 16.789062 15.386719 C 16.398438 15.394531 15.957031 15.226562 15.855469 14.8125 C 15.789062 14.546875 15.519531 14.382812 15.253906 14.449219 C 14.988281 14.511719 14.824219 14.78125 14.890625 15.046875 C 15.058594 15.722656 15.589844 16.167969 16.246094 16.320312 L 16.246094 16.488281 C 16.246094 16.761719 16.46875 16.984375 16.746094 16.984375 C 17.019531 16.984375 17.242188 16.761719 17.242188 16.488281 L 17.242188 16.328125 C 17.980469 16.179688 18.632812 15.6875 18.613281 14.867188 C 18.613281 14.808594 18.609375 14.761719 18.605469 14.722656 C 18.488281 13.769531 17.667969 13.410156 16.828125 13.273438 C 16.539062 13.226562 16.027344 13.117188 16.011719 12.746094 C 15.996094 12.429688 16.273438 12.246094 16.554688 12.191406 C 16.960938 12.109375 17.378906 12.269531 17.546875 12.671875 C 17.652344 12.921875 17.945312 13.042969 18.199219 12.9375 C 18.449219 12.828125 18.570312 12.539062 18.464844 12.285156 Z M 16.746094 9 C 14.105469 9 11.96875 11.140625 11.96875 13.777344 C 11.96875 16.417969 14.105469 18.554688 16.746094 18.554688 C 19.382812 18.554688 21.523438 16.417969 21.523438 13.777344 C 21.523438 11.140625 19.382812 9 16.746094 9 Z M 16.746094 9.996094 C 14.65625 9.996094 12.960938 11.6875 12.960938 13.777344 C 12.960938 15.867188 14.65625 17.5625 16.746094 17.5625 C 18.835938 17.5625 20.527344 15.867188 20.527344 13.777344 C 20.527344 11.6875 18.835938 9.996094 16.746094 9.996094 Z M 16.382812 29.917969 C 16.570312 30.144531 16.917969 30.144531 17.109375 29.917969 L 23.679688 22.179688 C 23.941406 21.871094 23.722656 21.394531 23.316406 21.394531 L 20.253906 21.394531 L 20.253906 19.367188 C 19.238281 20.007812 18.035156 20.378906 16.746094 20.378906 C 15.457031 20.378906 14.25 20.007812 13.234375 19.367188 L 13.234375 21.394531 L 10.175781 21.394531 C 9.765625 21.394531 9.546875 21.871094 9.8125 22.179688 Z M 13.234375 8.1875 C 14.25 7.546875 15.457031 7.175781 16.746094 7.175781 C 18.035156 7.175781 19.238281 7.546875 20.253906 8.1875 L 20.253906 6.578125 C 20.253906 6.050781 19.828125 5.625 19.300781 5.625 L 14.191406 5.625 C 13.664062 5.625 13.234375 6.050781 13.234375 6.578125 Z M 5.726562 22.402344 L 1.890625 17.882812 C 1.738281 17.703125 1.863281 17.425781 2.101562 17.425781 L 3.890625 17.425781 L 3.890625 8.777344 C 3.890625 8.46875 4.140625 8.21875 4.445312 8.21875 L 7.429688 8.21875 C 7.738281 8.21875 7.988281 8.46875 7.988281 8.777344 L 7.988281 17.425781 L 9.773438 17.425781 C 10.011719 17.425781 10.140625 17.703125 9.984375 17.882812 L 6.152344 22.402344 C 6.039062 22.53125 5.835938 22.53125 5.726562 22.402344 Z M 5.726562 22.402344 " fill-opacity="1" fill-rule="evenodd"/></g></svg>