<svg xmlns="http://www.w3.org/2000/svg" xmlns:xlink="http://www.w3.org/1999/xlink" width="45" zoomAndPan="magnify" viewBox="0 0 33.75 33.749998" height="45" preserveAspectRatio="xMidYMid meet" version="1.0"><defs><clipPath id="be005ec68a"><path d="M 11 2.234375 L 26 2.234375 L 26 31.269531 L 11 31.269531 Z M 11 2.234375 " clip-rule="nonzero"/></clipPath></defs><g clip-path="url(#be005ec68a)"><path fill="#c4942e" d="M 14.085938 31.269531 C 13.730469 31.269531 13.371094 31.132812 13.117188 30.859375 L 11.414062 29.105469 C 10.90625 28.578125 10.921875 27.726562 11.449219 27.199219 L 13.203125 25.5 C 13.457031 25.261719 13.796875 25.125 14.136719 25.125 C 14.511719 25.125 14.851562 25.261719 15.109375 25.53125 C 15.347656 25.769531 15.464844 26.078125 15.5 26.382812 C 19.363281 25.226562 22.339844 21.957031 23.125 18.011719 C 24.179688 17.875 25.167969 17.464844 26 16.871094 C 25.796875 19.796875 24.640625 22.605469 22.699219 24.835938 C 20.742188 27.066406 18.121094 28.613281 15.246094 29.226562 C 15.382812 29.449219 15.449219 29.6875 15.449219 29.941406 C 15.433594 30.316406 15.296875 30.636719 15.039062 30.894531 C 14.785156 31.148438 14.445312 31.269531 14.085938 31.269531 Z M 18.34375 6.691406 C 16.570312 5.550781 14.496094 4.941406 12.386719 4.941406 C 11.652344 4.941406 11.039062 4.328125 11.039062 3.59375 C 11.039062 2.847656 11.652344 2.234375 12.386719 2.234375 C 15.617188 2.234375 18.699219 3.355469 21.152344 5.417969 C 20.113281 5.601562 19.140625 6.0625 18.34375 6.691406 Z M 18.34375 6.691406 " fill-opacity="1" fill-rule="evenodd"/></g><path fill="#c4942e" d="M 12.964844 23.710938 C 11.109375 23.609375 9.40625 22.859375 8.097656 21.703125 L 9.390625 20.394531 C 10.359375 21.242188 11.601562 21.789062 12.964844 21.890625 Z M 7.449219 21.058594 C 6.277344 19.746094 5.527344 18.042969 5.425781 16.171875 L 7.261719 16.171875 C 7.363281 17.535156 7.910156 18.777344 8.742188 19.761719 Z M 5.425781 15.269531 C 5.527344 13.398438 6.277344 11.714844 7.449219 10.402344 L 8.742188 11.695312 C 7.910156 12.667969 7.363281 13.910156 7.261719 15.269531 Z M 8.097656 9.757812 C 9.40625 8.582031 11.109375 7.832031 12.964844 7.730469 L 12.964844 9.570312 C 11.601562 9.671875 10.359375 10.214844 9.390625 11.050781 Z M 13.882812 7.730469 C 14.886719 7.78125 15.875 8.035156 16.792969 8.460938 C 16.488281 8.972656 16.25 9.550781 16.09375 10.148438 C 15.398438 9.824219 14.648438 9.621094 13.882812 9.570312 Z M 21.117188 17.960938 C 20.777344 19.117188 20.179688 20.171875 19.378906 21.039062 L 18.105469 19.761719 C 18.683594 19.082031 19.125 18.265625 19.378906 17.363281 C 19.90625 17.652344 20.503906 17.839844 21.117188 17.960938 Z M 18.75 21.6875 C 17.421875 22.859375 15.722656 23.609375 13.882812 23.710938 L 13.882812 21.890625 C 15.246094 21.789062 16.488281 21.242188 17.457031 20.410156 Z M 16.011719 18.84375 C 15.910156 18.84375 15.789062 18.792969 15.703125 18.707031 L 14.613281 17.636719 C 14.273438 17.855469 13.867188 17.976562 13.421875 17.976562 C 12.179688 17.976562 11.175781 16.972656 11.175781 15.730469 C 11.175781 14.65625 11.910156 13.773438 12.894531 13.535156 L 12.894531 12.035156 C 12.894531 11.78125 13.101562 11.578125 13.355469 11.578125 C 13.609375 11.578125 13.816406 11.78125 13.816406 12.035156 L 13.816406 13.5 C 14.871094 13.6875 15.671875 14.605469 15.671875 15.730469 C 15.671875 16.207031 15.535156 16.648438 15.277344 17.007812 L 16.332031 18.0625 C 16.519531 18.25 16.519531 18.539062 16.332031 18.707031 C 16.25 18.792969 16.128906 18.84375 16.011719 18.84375 Z M 13.421875 14.386719 C 13.40625 14.386719 13.390625 14.386719 13.371094 14.386719 C 12.65625 14.417969 12.078125 14.996094 12.078125 15.730469 C 12.078125 16.460938 12.675781 17.074219 13.421875 17.074219 C 14.171875 17.074219 14.769531 16.460938 14.769531 15.730469 C 14.769531 14.980469 14.171875 14.386719 13.421875 14.386719 Z M 17.132812 19.472656 C 17.132812 19.457031 17.132812 19.457031 17.152344 19.457031 C 17.152344 19.441406 17.167969 19.441406 17.167969 19.421875 C 17.847656 18.742188 18.34375 17.855469 18.5625 16.871094 C 16.964844 15.710938 15.910156 13.824219 15.910156 11.695312 C 15.910156 11.492188 15.910156 11.289062 15.925781 11.082031 C 15.160156 10.675781 14.308594 10.453125 13.421875 10.453125 C 10.511719 10.453125 8.148438 12.820312 8.148438 15.730469 C 8.148438 18.621094 10.511719 20.988281 13.421875 20.988281 C 14.871094 20.988281 16.179688 20.410156 17.132812 19.472656 Z M 17.132812 19.472656 " fill-opacity="1" fill-rule="evenodd"/><path fill="#c4942e" d="M 22.273438 17.5 C 19.074219 17.5 16.46875 14.894531 16.46875 11.695312 C 16.46875 8.496094 19.074219 5.894531 22.273438 5.894531 C 25.472656 5.894531 28.078125 8.496094 28.078125 11.695312 C 28.078125 14.894531 25.472656 17.5 22.273438 17.5 Z M 21.8125 15.050781 C 20.980469 14.84375 20.351562 14.078125 20.351562 13.175781 C 20.351562 12.921875 20.554688 12.71875 20.792969 12.71875 C 21.046875 12.71875 21.253906 12.921875 21.253906 13.175781 C 21.253906 13.738281 21.710938 14.199219 22.273438 14.199219 C 22.835938 14.199219 23.292969 13.738281 23.292969 13.175781 C 23.292969 12.445312 22.953125 12.324219 22.171875 12.140625 C 21.441406 11.96875 20.351562 11.695312 20.351562 10.214844 C 20.351562 9.3125 20.980469 8.546875 21.8125 8.34375 L 21.8125 7.933594 C 21.8125 7.679688 22.019531 7.476562 22.273438 7.476562 C 22.527344 7.476562 22.734375 7.679688 22.734375 7.933594 L 22.734375 8.34375 C 23.585938 8.546875 24.214844 9.3125 24.214844 10.214844 C 24.214844 10.472656 24.007812 10.675781 23.753906 10.675781 C 23.5 10.675781 23.292969 10.472656 23.292969 10.214844 C 23.292969 9.652344 22.835938 9.195312 22.273438 9.195312 C 21.710938 9.195312 21.253906 9.652344 21.253906 10.214844 C 21.253906 10.949219 21.59375 11.066406 22.375 11.253906 C 23.109375 11.425781 24.214844 11.695312 24.214844 13.175781 C 24.214844 14.078125 23.585938 14.84375 22.734375 15.050781 L 22.734375 15.457031 C 22.734375 15.710938 22.527344 15.917969 22.273438 15.917969 C 22.019531 15.917969 21.8125 15.710938 21.8125 15.457031 Z M 21.8125 15.050781 " fill-opacity="1" fill-rule="evenodd"/></svg>