<svg xmlns="http://www.w3.org/2000/svg" xmlns:xlink="http://www.w3.org/1999/xlink" width="45" zoomAndPan="magnify" viewBox="0 0 33.75 33.749998" height="45" preserveAspectRatio="xMidYMid meet" version="1.0"><defs><clipPath id="13cf4786ce"><path d="M 2.714844 2.464844 L 31 2.464844 L 31 30.753906 L 2.714844 30.753906 Z M 2.714844 2.464844 " clip-rule="nonzero"/></clipPath></defs><g clip-path="url(#13cf4786ce)"><path fill="#c4942e" d="M 28.957031 21.78125 C 29.136719 21.886719 29.199219 22.117188 29.09375 22.300781 C 28.992188 22.480469 28.757812 22.542969 28.578125 22.4375 L 26.160156 21.042969 C 25.980469 20.941406 25.917969 20.707031 26.023438 20.527344 C 26.125 20.34375 26.355469 20.28125 26.539062 20.386719 Z M 18.035156 29.394531 L 14.867188 29.394531 L 14.867188 30.171875 C 14.867188 30.398438 14.957031 30.601562 15.101562 30.75 L 15.117188 30.765625 C 15.269531 30.917969 15.476562 31.015625 15.710938 31.015625 L 17.789062 31.015625 C 18.019531 31.015625 18.230469 30.917969 18.382812 30.765625 C 18.535156 30.613281 18.628906 30.402344 18.628906 30.171875 L 18.628906 29.394531 Z M 20.847656 26.523438 L 12.648438 26.523438 L 12.648438 27.269531 C 12.664062 27.597656 12.785156 27.902344 12.980469 28.148438 C 13.171875 28.382812 13.4375 28.558594 13.742188 28.640625 L 14.421875 28.640625 C 14.441406 28.636719 14.464844 28.632812 14.488281 28.632812 L 19.007812 28.632812 C 19.03125 28.632812 19.054688 28.636719 19.078125 28.640625 L 19.753906 28.640625 C 20.0625 28.558594 20.324219 28.382812 20.515625 28.148438 C 20.710938 27.90625 20.832031 27.609375 20.847656 27.285156 Z M 20.847656 23.726562 L 12.648438 23.726562 L 12.648438 25.765625 L 20.847656 25.765625 L 20.847656 23.800781 C 20.847656 23.777344 20.847656 23.75 20.847656 23.726562 Z M 18.601562 13.527344 C 18.464844 13.527344 18.394531 13.492188 18.265625 13.425781 L 18.238281 13.410156 C 18.199219 13.394531 18.152344 13.371094 18.089844 13.339844 C 17.957031 13.28125 17.871094 13.257812 17.804688 13.238281 C 17.527344 13.15625 17.441406 13.128906 17.351562 12.804688 L 17.292969 12.582031 C 17.253906 12.429688 17.203125 12.234375 17.164062 12.09375 L 16.332031 12.09375 L 16.265625 12.359375 C 16.195312 12.640625 16.132812 12.917969 16.03125 13.039062 L 16.003906 13.066406 C 15.894531 13.175781 15.699219 13.242188 15.53125 13.300781 L 15.511719 13.304688 C 15.460938 13.324219 15.410156 13.339844 15.390625 13.347656 C 15.324219 13.378906 15.253906 13.414062 15.203125 13.441406 L 15.179688 13.449219 C 15.113281 13.484375 15.066406 13.507812 14.996094 13.519531 C 14.816406 13.558594 14.753906 13.523438 14.601562 13.433594 L 14.515625 13.382812 C 14.382812 13.304688 14.136719 13.164062 13.964844 13.066406 L 13.390625 13.644531 L 13.480469 13.804688 C 13.542969 13.914062 13.605469 14.023438 13.636719 14.078125 L 13.714844 14.222656 C 13.800781 14.367188 13.839844 14.4375 13.84375 14.582031 C 13.84375 14.714844 13.808594 14.78125 13.746094 14.90625 C 13.726562 14.941406 13.703125 14.992188 13.65625 15.089844 C 13.597656 15.222656 13.574219 15.3125 13.554688 15.375 C 13.472656 15.65625 13.445312 15.742188 13.125 15.828125 L 12.890625 15.890625 C 12.734375 15.929688 12.546875 15.980469 12.402344 16.019531 L 12.40625 16.851562 C 12.511719 16.878906 12.636719 16.910156 12.757812 16.941406 C 12.929688 16.984375 13.085938 17.019531 13.183594 17.054688 L 13.207031 17.0625 C 13.449219 17.15625 13.496094 17.296875 13.570312 17.535156 C 13.589844 17.597656 13.613281 17.679688 13.65625 17.777344 C 13.695312 17.863281 13.726562 17.917969 13.746094 17.960938 L 13.753906 17.980469 C 13.816406 18.097656 13.847656 18.167969 13.84375 18.296875 C 13.839844 18.4375 13.796875 18.511719 13.707031 18.660156 C 13.6875 18.6875 13.667969 18.722656 13.621094 18.808594 L 13.527344 18.964844 C 13.480469 19.042969 13.425781 19.132812 13.378906 19.214844 L 13.964844 19.800781 C 14.046875 19.753906 14.128906 19.703125 14.207031 19.65625 C 14.320312 19.589844 14.390625 19.546875 14.445312 19.515625 C 14.621094 19.40625 14.703125 19.351562 14.847656 19.339844 C 15.007812 19.324219 15.085938 19.363281 15.234375 19.441406 C 15.285156 19.46875 15.359375 19.507812 15.464844 19.550781 C 15.484375 19.558594 15.523438 19.570312 15.566406 19.585938 C 15.714844 19.628906 15.886719 19.683594 16.003906 19.796875 L 16.027344 19.824219 C 16.039062 19.835938 16.046875 19.847656 16.054688 19.863281 L 16.0625 19.875 C 16.144531 20.011719 16.207031 20.257812 16.265625 20.511719 L 16.332031 20.777344 L 16.710938 20.777344 C 16.722656 20.777344 16.738281 20.773438 16.75 20.773438 C 16.761719 20.773438 16.773438 20.777344 16.78125 20.777344 L 17.164062 20.777344 L 17.230469 20.507812 C 17.296875 20.226562 17.363281 19.953125 17.464844 19.828125 L 17.492188 19.796875 C 17.609375 19.683594 17.78125 19.628906 17.933594 19.582031 C 17.976562 19.570312 18.023438 19.554688 18.046875 19.546875 L 18.0625 19.539062 C 18.132812 19.507812 18.199219 19.472656 18.25 19.445312 L 18.277344 19.433594 C 18.421875 19.363281 18.503906 19.324219 18.660156 19.339844 C 18.804688 19.355469 18.898438 19.414062 19.089844 19.535156 C 19.132812 19.558594 19.183594 19.589844 19.304688 19.660156 L 19.53125 19.796875 L 20.117188 19.214844 L 19.988281 19.003906 C 19.945312 18.933594 19.90625 18.867188 19.863281 18.789062 L 19.78125 18.640625 C 19.695312 18.496094 19.652344 18.425781 19.652344 18.285156 C 19.648438 18.152344 19.683594 18.089844 19.75 17.964844 C 19.769531 17.921875 19.800781 17.867188 19.839844 17.777344 C 19.898438 17.644531 19.925781 17.554688 19.941406 17.492188 C 20.023438 17.214844 20.050781 17.125 20.375 17.039062 L 20.625 16.972656 C 20.773438 16.933594 20.953125 16.886719 21.09375 16.847656 L 21.089844 16.015625 L 20.78125 15.9375 C 20.683594 15.914062 20.597656 15.890625 20.546875 15.875 L 20.480469 15.859375 C 20.421875 15.84375 20.359375 15.828125 20.3125 15.8125 C 20.054688 15.722656 20.035156 15.664062 19.972656 15.449219 L 19.957031 15.40625 C 19.871094 15.125 19.796875 14.992188 19.753906 14.914062 C 19.703125 14.820312 19.667969 14.761719 19.65625 14.652344 C 19.636719 14.472656 19.6875 14.386719 19.820312 14.15625 C 19.917969 13.984375 20.011719 13.8125 20.105469 13.640625 L 19.53125 13.070312 C 19.351562 13.171875 19.171875 13.277344 18.992188 13.382812 C 18.828125 13.480469 18.753906 13.523438 18.601562 13.527344 Z M 16.75 14.320312 C 17.917969 14.320312 18.863281 15.265625 18.863281 16.433594 C 18.863281 17.601562 17.917969 18.550781 16.75 18.550781 C 15.582031 18.550781 14.632812 17.601562 14.632812 16.433594 C 14.632812 15.265625 15.582031 14.320312 16.75 14.320312 Z M 17.128906 8.996094 C 19.015625 9.09375 20.714844 9.898438 21.964844 11.148438 C 23.300781 12.484375 24.125 14.328125 24.125 16.367188 C 24.125 17.390625 23.917969 18.367188 23.539062 19.253906 C 23.148438 20.175781 22.574219 21.003906 21.863281 21.6875 L 21.851562 21.695312 C 21.523438 22.027344 21.273438 22.363281 21.105469 22.707031 C 21.0625 22.792969 21.027344 22.878906 20.996094 22.964844 L 17.121094 22.964844 C 17.125 22.941406 17.128906 22.917969 17.128906 22.890625 L 17.128906 21.535156 L 17.4375 21.53125 C 17.578125 21.53125 17.703125 21.453125 17.769531 21.339844 C 17.847656 21.195312 17.910156 20.933594 17.972656 20.683594 C 18.007812 20.523438 18.035156 20.378906 18.046875 20.328125 C 18.070312 20.324219 18.105469 20.324219 18.15625 20.308594 C 18.226562 20.285156 18.296875 20.265625 18.351562 20.242188 L 18.371094 20.230469 C 18.476562 20.183594 18.542969 20.148438 18.59375 20.125 L 18.609375 20.113281 C 18.625 20.128906 18.644531 20.148438 18.695312 20.179688 L 18.980469 20.351562 C 19.128906 20.441406 19.355469 20.582031 19.507812 20.625 C 19.648438 20.664062 19.796875 20.617188 19.890625 20.515625 L 20.839844 19.5625 C 20.941406 19.460938 20.976562 19.320312 20.941406 19.191406 C 20.894531 19.035156 20.753906 18.804688 20.636719 18.609375 C 20.589844 18.527344 20.542969 18.453125 20.53125 18.425781 L 20.441406 18.273438 C 20.46875 18.222656 20.5 18.160156 20.535156 18.082031 C 20.597656 17.9375 20.632812 17.828125 20.660156 17.746094 L 20.8125 17.707031 C 21.113281 17.628906 21.523438 17.523438 21.648438 17.460938 C 21.789062 17.386719 21.863281 17.238281 21.851562 17.089844 L 21.847656 15.746094 C 21.847656 15.601562 21.765625 15.472656 21.648438 15.410156 C 21.515625 15.339844 21.207031 15.261719 20.964844 15.199219 C 20.882812 15.179688 20.808594 15.160156 20.753906 15.144531 L 20.664062 15.121094 C 20.558594 14.804688 20.472656 14.644531 20.417969 14.542969 C 20.425781 14.554688 20.449219 14.582031 20.476562 14.535156 C 20.625 14.277344 20.765625 14.015625 20.90625 13.753906 C 20.988281 13.605469 20.957031 13.421875 20.839844 13.304688 L 19.878906 12.339844 C 19.765625 12.226562 19.59375 12.199219 19.457031 12.261719 C 19.296875 12.324219 18.996094 12.5 18.820312 12.601562 C 18.75 12.644531 18.675781 12.6875 18.605469 12.730469 C 18.597656 12.734375 18.59375 12.738281 18.589844 12.742188 L 18.582031 12.738281 C 18.53125 12.710938 18.472656 12.683594 18.398438 12.648438 C 18.25 12.582031 18.144531 12.546875 18.0625 12.523438 L 18.027344 12.394531 C 17.949219 12.089844 17.835938 11.648438 17.769531 11.527344 C 17.699219 11.402344 17.570312 11.332031 17.4375 11.332031 L 17.128906 11.332031 Z M 13.425781 7.9375 C 13.675781 7.625 14.054688 7.398438 14.5 7.335938 L 14.53125 7.332031 C 14.980469 7.277344 15.410156 7.398438 15.746094 7.640625 C 16.070312 7.875 16.300781 8.222656 16.367188 8.632812 L 16.367188 11.332031 L 16.058594 11.332031 C 15.898438 11.332031 15.761719 11.433594 15.703125 11.574219 C 15.640625 11.71875 15.582031 11.953125 15.527344 12.183594 C 15.488281 12.347656 15.464844 12.492188 15.449219 12.539062 C 15.417969 12.550781 15.359375 12.554688 15.289062 12.578125 L 15.269531 12.585938 C 15.199219 12.609375 15.132812 12.632812 15.082031 12.65625 C 15.003906 12.691406 14.949219 12.714844 14.910156 12.734375 L 14.898438 12.726562 C 14.667969 12.59375 14.140625 12.285156 13.992188 12.242188 C 13.847656 12.203125 13.703125 12.25 13.609375 12.351562 L 12.65625 13.304688 C 12.53125 13.425781 12.511719 13.617188 12.59375 13.761719 C 12.675781 13.921875 12.746094 14.050781 12.820312 14.179688 C 12.855469 14.242188 12.894531 14.304688 12.964844 14.4375 L 13.054688 14.59375 C 13.027344 14.648438 12.992188 14.714844 12.960938 14.785156 C 12.898438 14.929688 12.863281 15.039062 12.839844 15.121094 L 12.699219 15.15625 C 12.394531 15.234375 11.972656 15.34375 11.847656 15.40625 C 11.710938 15.480469 11.632812 15.628906 11.644531 15.777344 L 11.648438 17.121094 C 11.648438 17.265625 11.730469 17.394531 11.851562 17.457031 C 11.996094 17.535156 12.304688 17.609375 12.578125 17.675781 C 12.691406 17.707031 12.796875 17.730469 12.867188 17.75 L 12.851562 17.757812 C 12.847656 17.757812 12.84375 17.757812 12.84375 17.757812 C 12.871094 17.84375 12.902344 17.949219 12.960938 18.082031 C 12.996094 18.160156 13.027344 18.222656 13.054688 18.273438 L 12.960938 18.433594 L 12.949219 18.457031 L 12.875 18.578125 C 12.757812 18.773438 12.601562 19.039062 12.558594 19.191406 C 12.519531 19.328125 12.5625 19.46875 12.65625 19.5625 L 13.617188 20.527344 C 13.71875 20.628906 13.863281 20.660156 13.992188 20.625 C 14.128906 20.585938 14.359375 20.449219 14.511719 20.359375 L 14.589844 20.3125 C 14.683594 20.257812 14.773438 20.203125 14.84375 20.160156 C 14.871094 20.140625 14.882812 20.128906 14.890625 20.117188 C 14.957031 20.152344 15.042969 20.195312 15.167969 20.25 C 15.214844 20.269531 15.277344 20.289062 15.34375 20.308594 C 15.390625 20.324219 15.429688 20.324219 15.453125 20.328125 C 15.464844 20.378906 15.488281 20.523438 15.527344 20.6875 C 15.589844 20.941406 15.652344 21.203125 15.726562 21.339844 C 15.796875 21.46875 15.933594 21.539062 16.070312 21.535156 L 16.367188 21.535156 L 16.367188 22.828125 C 16.351562 22.871094 16.332031 22.914062 16.308594 22.960938 L 16.308594 22.964844 L 12.414062 22.964844 C 12.269531 22.855469 12.136719 22.726562 12.019531 22.582031 C 11.882812 22.414062 11.773438 22.226562 11.691406 22.023438 C 11.65625 21.929688 11.625 21.835938 11.601562 21.738281 C 11.597656 21.726562 11.597656 21.714844 11.59375 21.703125 C 11.566406 21.585938 11.550781 21.464844 11.546875 21.347656 C 11.535156 21.109375 11.5625 20.875 11.625 20.652344 C 11.683594 20.453125 11.566406 20.242188 11.367188 20.183594 C 11.164062 20.128906 10.957031 20.242188 10.898438 20.445312 C 10.816406 20.734375 10.777344 21.039062 10.785156 21.339844 C 10.636719 21.289062 10.496094 21.21875 10.371094 21.132812 C 10.101562 20.945312 9.894531 20.683594 9.757812 20.386719 C 9.617188 20.089844 9.554688 19.753906 9.574219 19.421875 C 9.585938 19.199219 9.636719 18.976562 9.730469 18.769531 C 9.757812 18.78125 9.785156 18.789062 9.8125 18.800781 C 10.058594 18.890625 10.316406 18.953125 10.582031 18.984375 C 10.789062 19.007812 10.976562 18.855469 11 18.648438 C 11.023438 18.441406 10.875 18.25 10.667969 18.226562 C 10.464844 18.203125 10.265625 18.15625 10.074219 18.085938 C 9.96875 18.050781 9.867188 18.003906 9.769531 17.953125 C 9.757812 17.945312 9.75 17.941406 9.738281 17.933594 C 9.667969 17.898438 9.601562 17.859375 9.539062 17.816406 C 9.171875 17.570312 8.894531 17.242188 8.714844 16.871094 C 8.539062 16.5 8.464844 16.085938 8.507812 15.667969 C 8.554688 15.25 8.71875 14.859375 8.972656 14.53125 C 9.167969 14.277344 9.417969 14.058594 9.710938 13.894531 C 9.882812 14.128906 10.089844 14.34375 10.328125 14.527344 C 10.492188 14.65625 10.730469 14.625 10.859375 14.460938 C 10.988281 14.296875 10.957031 14.058594 10.792969 13.929688 C 10.539062 13.730469 10.332031 13.492188 10.171875 13.222656 L 10.167969 13.214844 L 10.164062 13.210938 C 10.105469 13.113281 10.054688 13.011719 10.011719 12.90625 C 9.855469 12.519531 9.796875 12.09375 9.859375 11.660156 C 9.9375 11.105469 10.207031 10.613281 10.601562 10.234375 C 11 9.855469 11.527344 9.597656 12.117188 9.519531 C 12.398438 9.480469 12.679688 9.488281 12.953125 9.535156 C 13.234375 9.585938 13.5 9.671875 13.742188 9.796875 C 13.929688 9.894531 14.15625 9.820312 14.253906 9.632812 C 14.347656 9.445312 14.273438 9.21875 14.085938 9.125 C 13.777344 8.964844 13.445312 8.851562 13.097656 8.789062 C 13.117188 8.472656 13.234375 8.179688 13.425781 7.9375 Z M 4.921875 22.4375 C 4.738281 22.542969 4.507812 22.480469 4.402344 22.300781 C 4.296875 22.121094 4.359375 21.886719 4.539062 21.78125 L 6.957031 20.386719 C 7.136719 20.28125 7.371094 20.34375 7.476562 20.523438 C 7.582031 20.707031 7.519531 20.9375 7.335938 21.042969 Z M 3.09375 15.640625 C 2.882812 15.640625 2.714844 15.46875 2.714844 15.257812 C 2.714844 15.050781 2.882812 14.878906 3.09375 14.878906 L 5.882812 14.878906 C 6.09375 14.878906 6.265625 15.050781 6.265625 15.257812 C 6.265625 15.46875 6.09375 15.640625 5.882812 15.640625 Z M 5.363281 9.210938 C 5.179688 9.105469 5.117188 8.875 5.222656 8.691406 C 5.324219 8.511719 5.558594 8.449219 5.738281 8.554688 L 8.15625 9.949219 C 8.335938 10.050781 8.398438 10.285156 8.296875 10.464844 C 8.191406 10.648438 7.960938 10.710938 7.777344 10.605469 Z M 9.667969 4.773438 L 11.21875 7.09375 C 11.335938 7.265625 11.570312 7.3125 11.746094 7.199219 C 11.917969 7.082031 11.964844 6.84375 11.847656 6.671875 L 10.300781 4.351562 C 10.183594 4.175781 9.945312 4.132812 9.773438 4.246094 C 9.597656 4.363281 9.550781 4.597656 9.667969 4.773438 Z M 16.367188 2.871094 C 16.367188 2.660156 16.539062 2.492188 16.75 2.492188 C 16.957031 2.492188 17.128906 2.660156 17.128906 2.871094 L 17.128906 5.660156 C 17.128906 5.871094 16.957031 6.042969 16.75 6.042969 C 16.539062 6.042969 16.367188 5.871094 16.367188 5.660156 Z M 23.199219 4.351562 C 23.316406 4.175781 23.550781 4.132812 23.722656 4.246094 C 23.898438 4.363281 23.945312 4.597656 23.828125 4.773438 L 22.277344 7.09375 C 22.160156 7.265625 21.925781 7.3125 21.753906 7.199219 C 21.578125 7.082031 21.53125 6.84375 21.648438 6.671875 Z M 27.757812 8.554688 C 27.941406 8.449219 28.171875 8.511719 28.277344 8.691406 C 28.378906 8.875 28.316406 9.105469 28.136719 9.210938 L 25.71875 10.605469 C 25.539062 10.710938 25.304688 10.648438 25.203125 10.464844 C 25.097656 10.285156 25.160156 10.050781 25.34375 9.949219 Z M 30.402344 14.878906 C 30.613281 14.878906 30.785156 15.050781 30.785156 15.257812 C 30.785156 15.46875 30.613281 15.640625 30.402344 15.640625 L 27.613281 15.640625 C 27.402344 15.640625 27.234375 15.46875 27.234375 15.257812 C 27.234375 15.050781 27.402344 14.878906 27.613281 14.878906 Z M 30.402344 14.878906 " fill-opacity="1" fill-rule="evenodd"/></g></svg>