<svg xmlns="http://www.w3.org/2000/svg" xmlns:xlink="http://www.w3.org/1999/xlink" width="45" zoomAndPan="magnify" viewBox="0 0 33.75 33.749998" height="45" preserveAspectRatio="xMidYMid meet" version="1.0"><defs><clipPath id="9638c1cd34"><path d="M 28 2.160156 L 30 2.160156 L 30 5 L 28 5 Z M 28 2.160156 " clip-rule="nonzero"/></clipPath><clipPath id="8aebae9e10"><path d="M 29 4 L 31.195312 4 L 31.195312 5 L 29 5 Z M 29 4 " clip-rule="nonzero"/></clipPath><clipPath id="2b3686525c"><path d="M 18 21 L 28 21 L 28 31.195312 L 18 31.195312 Z M 18 21 " clip-rule="nonzero"/></clipPath><clipPath id="cf3b05b8fd"><path d="M 2.160156 2.160156 L 20 2.160156 L 20 30 L 2.160156 30 Z M 2.160156 2.160156 " clip-rule="nonzero"/></clipPath></defs><g clip-path="url(#9638c1cd34)"><path fill="#c4942e" d="M 28.761719 2.160156 C 28.566406 2.160156 28.410156 2.316406 28.410156 2.511719 L 28.410156 3.832031 C 28.410156 4.023438 28.566406 4.183594 28.761719 4.183594 C 28.957031 4.183594 29.113281 4.023438 29.113281 3.832031 L 29.113281 2.511719 C 29.113281 2.316406 28.957031 2.160156 28.761719 2.160156 Z M 28.761719 2.160156 " fill-opacity="1" fill-rule="nonzero"/></g><path fill="#c4942e" d="M 24.390625 5.734375 C 24.585938 5.734375 24.746094 5.574219 24.746094 5.378906 L 24.746094 4.066406 C 24.746094 3.871094 24.585938 3.714844 24.390625 3.714844 C 24.199219 3.714844 24.039062 3.871094 24.039062 4.066406 L 24.039062 5.386719 C 24.039062 5.574219 24.199219 5.734375 24.390625 5.734375 Z M 24.390625 5.734375 " fill-opacity="1" fill-rule="nonzero"/><path fill="#c4942e" d="M 22.324219 6.488281 L 23.644531 6.488281 C 23.839844 6.488281 23.996094 6.328125 23.996094 6.132812 C 23.996094 5.941406 23.839844 5.78125 23.644531 5.78125 L 22.324219 5.78125 C 22.132812 5.78125 21.972656 5.941406 21.972656 6.132812 C 21.972656 6.328125 22.132812 6.488281 22.324219 6.488281 Z M 22.324219 6.488281 " fill-opacity="1" fill-rule="nonzero"/><path fill="#c4942e" d="M 28.015625 4.226562 L 26.695312 4.226562 C 26.5 4.226562 26.34375 4.382812 26.34375 4.578125 C 26.34375 4.773438 26.5 4.929688 26.695312 4.929688 L 28.015625 4.929688 C 28.210938 4.929688 28.367188 4.773438 28.367188 4.578125 C 28.367188 4.382812 28.210938 4.226562 28.015625 4.226562 Z M 28.015625 4.226562 " fill-opacity="1" fill-rule="nonzero"/><g clip-path="url(#8aebae9e10)"><path fill="#c4942e" d="M 30.828125 4.226562 L 29.511719 4.226562 C 29.316406 4.226562 29.15625 4.382812 29.15625 4.578125 C 29.15625 4.773438 29.316406 4.929688 29.511719 4.929688 L 30.828125 4.929688 C 31.023438 4.929688 31.179688 4.773438 31.179688 4.578125 C 31.179688 4.382812 31.023438 4.226562 30.828125 4.226562 Z M 30.828125 4.226562 " fill-opacity="1" fill-rule="nonzero"/></g><path fill="#c4942e" d="M 24.390625 8.554688 C 24.585938 8.554688 24.746094 8.394531 24.746094 8.199219 L 24.746094 6.882812 C 24.746094 6.6875 24.585938 6.527344 24.390625 6.527344 C 24.199219 6.527344 24.039062 6.6875 24.039062 6.882812 L 24.039062 8.199219 C 24.039062 8.394531 24.199219 8.554688 24.390625 8.554688 Z M 24.390625 8.554688 " fill-opacity="1" fill-rule="nonzero"/><path fill="#c4942e" d="M 25.140625 6.488281 L 26.457031 6.488281 C 26.652344 6.488281 26.8125 6.328125 26.8125 6.132812 C 26.8125 5.941406 26.652344 5.78125 26.457031 5.78125 L 25.140625 5.78125 C 24.945312 5.78125 24.789062 5.941406 24.789062 6.132812 C 24.789062 6.328125 24.945312 6.488281 25.140625 6.488281 Z M 25.140625 6.488281 " fill-opacity="1" fill-rule="nonzero"/><path fill="#c4942e" d="M 28.761719 4.972656 C 28.566406 4.972656 28.410156 5.132812 28.410156 5.324219 L 28.410156 6.644531 C 28.410156 6.839844 28.566406 6.996094 28.761719 6.996094 C 28.957031 6.996094 29.113281 6.839844 29.113281 6.644531 L 29.113281 5.324219 C 29.113281 5.132812 28.957031 4.972656 28.761719 4.972656 Z M 28.761719 4.972656 " fill-opacity="1" fill-rule="nonzero"/><g clip-path="url(#2b3686525c)"><path fill="#c4942e" d="M 22.746094 21.839844 C 20.136719 21.839844 18.015625 23.96875 18.015625 26.585938 C 18.015625 29.207031 20.136719 31.332031 22.746094 31.332031 C 25.351562 31.332031 27.472656 29.207031 27.472656 26.585938 C 27.472656 23.96875 25.359375 21.839844 22.746094 21.839844 Z M 22.746094 31.113281 C 20.253906 31.113281 18.230469 29.085938 18.230469 26.585938 C 18.230469 24.089844 20.253906 22.058594 22.746094 22.058594 C 25.238281 22.058594 27.261719 24.089844 27.261719 26.585938 C 27.261719 29.085938 25.238281 31.113281 22.746094 31.113281 Z M 22.746094 31.113281 " fill-opacity="1" fill-rule="nonzero"/></g><path fill="#c4942e" d="M 22.746094 22.761719 C 20.640625 22.761719 18.933594 24.476562 18.933594 26.585938 C 18.933594 28.695312 20.640625 30.410156 22.746094 30.410156 C 24.847656 30.410156 26.554688 28.695312 26.554688 26.585938 C 26.554688 24.476562 24.847656 22.761719 22.746094 22.761719 Z M 24.597656 26.574219 C 24.597656 26.636719 24.582031 26.695312 24.550781 26.75 L 23.019531 29.402344 C 22.957031 29.511719 22.84375 29.578125 22.714844 29.578125 C 22.585938 29.578125 22.472656 29.511719 22.410156 29.402344 L 20.878906 26.75 C 20.847656 26.695312 20.832031 26.636719 20.832031 26.574219 L 20.832031 26.566406 C 20.832031 26.5625 20.832031 26.554688 20.832031 26.550781 C 20.832031 26.496094 20.847656 26.433594 20.878906 26.386719 L 22.410156 23.734375 C 22.472656 23.625 22.585938 23.558594 22.714844 23.558594 C 22.84375 23.558594 22.957031 23.625 23.019531 23.734375 L 24.550781 26.386719 C 24.582031 26.433594 24.59375 26.496094 24.597656 26.550781 C 24.597656 26.554688 24.597656 26.5625 24.597656 26.574219 Z M 24.597656 26.574219 " fill-opacity="1" fill-rule="nonzero"/><g clip-path="url(#cf3b05b8fd)"><path fill="#c4942e" d="M 19.042969 22.605469 L 19.042969 2.839844 L 2.3125 2.839844 L 2.3125 29.316406 L 18.046875 29.316406 C 17.578125 28.511719 17.316406 27.582031 17.316406 26.585938 C 17.316406 25.019531 17.980469 23.601562 19.042969 22.605469 Z M 5.1875 4.863281 C 5.1875 4.667969 5.34375 4.511719 5.539062 4.511719 L 15.824219 4.511719 C 16.015625 4.511719 16.175781 4.667969 16.175781 4.863281 L 16.175781 9.09375 C 16.175781 9.289062 16.015625 9.445312 15.824219 9.445312 L 5.53125 9.445312 C 5.335938 9.445312 5.179688 9.289062 5.179688 9.09375 L 5.179688 4.863281 Z M 3.160156 11.585938 L 10.675781 11.585938 C 10.867188 11.585938 11.027344 11.742188 11.027344 11.9375 C 11.027344 12.132812 10.867188 12.292969 10.675781 12.292969 L 3.160156 12.292969 C 2.96875 12.292969 2.808594 12.132812 2.808594 11.9375 C 2.816406 11.742188 2.96875 11.585938 3.160156 11.585938 Z M 3.160156 14.503906 L 18.191406 14.503906 C 18.386719 14.503906 18.546875 14.660156 18.546875 14.855469 C 18.546875 15.050781 18.386719 15.207031 18.191406 15.207031 L 3.160156 15.207031 C 2.96875 15.207031 2.808594 15.050781 2.808594 14.855469 C 2.816406 14.660156 2.96875 14.503906 3.160156 14.503906 Z M 3.160156 16.042969 L 18.191406 16.042969 C 18.386719 16.042969 18.546875 16.199219 18.546875 16.394531 C 18.546875 16.589844 18.386719 16.746094 18.191406 16.746094 L 3.160156 16.746094 C 2.96875 16.746094 2.808594 16.589844 2.808594 16.394531 C 2.816406 16.191406 2.96875 16.042969 3.160156 16.042969 Z M 3.160156 17.574219 L 18.191406 17.574219 C 18.386719 17.574219 18.546875 17.730469 18.546875 17.925781 C 18.546875 18.121094 18.386719 18.277344 18.191406 18.277344 L 3.160156 18.277344 C 2.96875 18.277344 2.808594 18.121094 2.808594 17.925781 C 2.816406 17.726562 2.96875 17.574219 3.160156 17.574219 Z M 3.160156 19.105469 L 18.191406 19.105469 C 18.386719 19.105469 18.546875 19.261719 18.546875 19.457031 C 18.546875 19.652344 18.386719 19.808594 18.191406 19.808594 L 3.160156 19.808594 C 2.96875 19.808594 2.808594 19.652344 2.808594 19.457031 C 2.816406 19.257812 2.96875 19.105469 3.160156 19.105469 Z M 3.160156 20.636719 L 18.191406 20.636719 C 18.386719 20.636719 18.546875 20.792969 18.546875 20.988281 C 18.546875 21.183594 18.386719 21.339844 18.191406 21.339844 L 3.160156 21.339844 C 2.96875 21.339844 2.808594 21.183594 2.808594 20.988281 C 2.816406 20.792969 2.96875 20.636719 3.160156 20.636719 Z M 2.816406 22.515625 C 2.816406 22.320312 2.972656 22.160156 3.167969 22.160156 L 18.199219 22.160156 C 18.394531 22.160156 18.550781 22.320312 18.550781 22.515625 C 18.550781 22.527344 18.550781 22.539062 18.550781 22.550781 C 18.550781 22.5625 18.550781 22.574219 18.550781 22.585938 C 18.550781 22.78125 18.394531 22.941406 18.199219 22.941406 L 3.160156 22.941406 C 2.96875 22.941406 2.808594 22.78125 2.808594 22.585938 C 2.808594 22.574219 2.808594 22.5625 2.808594 22.550781 C 2.816406 22.539062 2.816406 22.527344 2.816406 22.515625 Z M 2.816406 24.117188 C 2.816406 23.925781 2.972656 23.765625 3.167969 23.765625 L 10.679688 23.765625 C 10.875 23.765625 11.03125 23.925781 11.03125 24.117188 C 11.03125 24.3125 10.875 24.472656 10.679688 24.472656 L 3.160156 24.472656 C 2.96875 24.472656 2.816406 24.3125 2.816406 24.117188 Z M 17.015625 28.210938 C 16.929688 28.386719 16.722656 28.457031 16.546875 28.375 L 15.457031 27.855469 C 15.445312 27.851562 15.433594 27.851562 15.421875 27.855469 C 15.410156 27.863281 15.402344 27.867188 15.398438 27.882812 C 15.300781 28.195312 15.015625 28.402344 14.6875 28.402344 L 12.621094 28.402344 C 12.503906 28.417969 12.386719 28.421875 12.285156 28.421875 C 11.816406 28.421875 11.496094 28.300781 11.28125 28.125 C 10.773438 28.085938 10.339844 27.976562 10.253906 27.949219 C 10.066406 27.894531 9.957031 27.703125 10.011719 27.515625 C 10.066406 27.328125 10.253906 27.21875 10.441406 27.273438 C 10.558594 27.304688 10.703125 27.339844 10.855469 27.363281 C 10.8125 27.078125 10.867188 26.78125 11.019531 26.519531 C 11.234375 26.15625 11.609375 25.910156 12.03125 25.855469 C 12.441406 25.808594 12.765625 25.886719 12.976562 26.101562 C 13.183594 26.308594 13.269531 26.605469 13.226562 26.988281 C 13.195312 27.265625 13.085938 27.503906 12.898438 27.6875 L 14.679688 27.6875 C 14.699219 27.6875 14.714844 27.675781 14.722656 27.65625 C 14.78125 27.449219 14.933594 27.28125 15.136719 27.195312 C 15.332031 27.109375 15.554688 27.109375 15.753906 27.199219 L 16.84375 27.71875 C 17.019531 27.828125 17.09375 28.03125 17.015625 28.210938 Z M 17.015625 28.210938 " fill-opacity="1" fill-rule="nonzero"/></g><path fill="#c4942e" d="M 12.261719 26.5625 C 12.21875 26.5625 12.167969 26.5625 12.121094 26.574219 C 11.914062 26.597656 11.730469 26.71875 11.628906 26.898438 C 11.574219 26.988281 11.496094 27.175781 11.585938 27.40625 C 11.59375 27.417969 11.597656 27.429688 11.605469 27.449219 C 11.894531 27.445312 12.167969 27.402344 12.339844 27.285156 C 12.457031 27.207031 12.515625 27.097656 12.535156 26.9375 C 12.550781 26.789062 12.535156 26.671875 12.492188 26.625 C 12.457031 26.582031 12.371094 26.5625 12.261719 26.5625 Z M 12.261719 26.5625 " fill-opacity="1" fill-rule="nonzero"/><path fill="#c4942e" d="M 5.886719 5.210938 L 15.46875 5.210938 L 15.46875 8.742188 L 5.886719 8.742188 Z M 5.886719 5.210938 " fill-opacity="1" fill-rule="nonzero"/><path fill="#c4942e" d="M 21.796875 26.210938 L 23.644531 26.210938 L 22.722656 24.609375 Z M 21.796875 26.210938 " fill-opacity="1" fill-rule="nonzero"/><path fill="#c4942e" d="M 22.722656 28.519531 L 23.644531 26.921875 L 21.796875 26.921875 Z M 22.722656 28.519531 " fill-opacity="1" fill-rule="nonzero"/><path fill="#c4942e" d="M 25.011719 15.566406 C 25.140625 15.957031 25.503906 16.234375 25.9375 16.234375 C 26.476562 16.234375 26.910156 15.796875 26.910156 15.257812 C 26.910156 14.714844 26.472656 14.277344 25.9375 14.277344 C 25.535156 14.277344 25.1875 14.523438 25.035156 14.875 C 25.011719 14.867188 24.988281 14.867188 24.957031 14.867188 L 19.742188 14.867188 L 19.742188 15.566406 L 24.957031 15.566406 C 24.976562 15.574219 24.996094 15.574219 25.011719 15.566406 Z M 25.011719 15.566406 " fill-opacity="1" fill-rule="nonzero"/><path fill="#c4942e" d="M 22.804688 18.660156 C 22.804688 18.679688 22.804688 18.691406 22.8125 18.710938 C 22.449219 18.847656 22.191406 19.207031 22.191406 19.621094 C 22.191406 20.164062 22.628906 20.601562 23.164062 20.601562 C 23.707031 20.601562 24.136719 20.164062 24.136719 19.621094 C 24.136719 19.203125 23.875 18.84375 23.503906 18.703125 C 23.503906 18.691406 23.503906 18.671875 23.503906 18.660156 L 23.503906 16.964844 C 23.503906 16.769531 23.347656 16.613281 23.152344 16.613281 L 19.742188 16.613281 L 19.742188 17.3125 L 22.800781 17.3125 L 22.800781 18.660156 Z M 22.804688 18.660156 " fill-opacity="1" fill-rule="nonzero"/><path fill="#c4942e" d="M 23.503906 13.386719 L 23.503906 11.375 C 23.503906 11.320312 23.492188 11.269531 23.476562 11.226562 C 23.859375 11.101562 24.136719 10.734375 24.136719 10.304688 C 24.136719 9.761719 23.699219 9.324219 23.164062 9.324219 C 22.628906 9.324219 22.191406 9.761719 22.191406 10.304688 C 22.191406 10.730469 22.464844 11.085938 22.84375 11.226562 C 22.816406 11.269531 22.8125 11.324219 22.8125 11.375 L 22.8125 13.03125 L 19.753906 13.03125 L 19.753906 13.730469 L 23.164062 13.730469 C 23.347656 13.730469 23.503906 13.578125 23.503906 13.386719 Z M 23.503906 13.386719 " fill-opacity="1" fill-rule="nonzero"/></svg>