<svg xmlns="http://www.w3.org/2000/svg" xmlns:xlink="http://www.w3.org/1999/xlink" width="45" zoomAndPan="magnify" viewBox="0 0 33.75 33.749998" height="45" preserveAspectRatio="xMidYMid meet" version="1.0"><defs><clipPath id="fcc4af005f"><path d="M 2 5 L 26 5 L 26 29.863281 L 2 29.863281 Z M 2 5 " clip-rule="nonzero"/></clipPath><clipPath id="3419200b59"><path d="M 20 3.804688 L 32 3.804688 L 32 16 L 20 16 Z M 20 3.804688 " clip-rule="nonzero"/></clipPath></defs><g clip-path="url(#fcc4af005f)"><path fill="#ffffff" d="M 25.9375 16.074219 C 24.710938 22.238281 20.878906 26.902344 14.441406 30.058594 C 14.300781 30.128906 14.152344 30.128906 14.011719 30.058594 C 5.460938 25.863281 1.503906 19.011719 2.144531 9.507812 C 2.15625 9.351562 2.230469 9.222656 2.359375 9.136719 C 8.429688 5.0625 14.5 4.113281 20.566406 6.292969 C 20.035156 7.242188 19.730469 8.339844 19.730469 9.507812 C 19.730469 13.015625 22.476562 15.882812 25.9375 16.074219 Z M 17.40625 13.980469 L 17.40625 12.164062 C 17.40625 10.414062 15.976562 8.984375 14.226562 8.984375 C 12.476562 8.984375 11.046875 10.414062 11.046875 12.164062 L 11.046875 13.980469 C 11.984375 13.453125 13.070312 13.148438 14.226562 13.148438 C 15.382812 13.148438 16.464844 13.453125 17.40625 13.980469 Z M 19.035156 15.277344 L 19.035156 12.164062 C 19.035156 9.519531 16.871094 7.355469 14.226562 7.355469 C 11.582031 7.355469 9.417969 9.519531 9.417969 12.164062 L 9.417969 15.277344 C 8.367188 16.433594 7.726562 17.964844 7.726562 19.648438 C 7.726562 23.238281 10.636719 26.148438 14.226562 26.148438 C 17.816406 26.148438 20.726562 23.238281 20.726562 19.648438 C 20.726562 17.964844 20.085938 16.433594 19.035156 15.277344 Z M 15.125 19.390625 C 15.445312 19.128906 15.652344 18.730469 15.652344 18.285156 C 15.652344 17.5 15.011719 16.859375 14.226562 16.859375 C 13.4375 16.859375 12.800781 17.5 12.800781 18.285156 C 12.800781 18.730469 13.007812 19.128906 13.328125 19.390625 C 13.394531 19.445312 13.425781 19.527344 13.410156 19.609375 L 12.972656 22.164062 C 12.960938 22.234375 12.980469 22.300781 13.027344 22.355469 C 13.074219 22.410156 13.132812 22.4375 13.207031 22.4375 L 15.246094 22.4375 C 15.316406 22.4375 15.378906 22.410156 15.425781 22.355469 C 15.472656 22.300781 15.488281 22.234375 15.476562 22.164062 L 15.042969 19.609375 C 15.027344 19.527344 15.058594 19.445312 15.125 19.390625 Z M 15.125 19.390625 " fill-opacity="1" fill-rule="evenodd"/></g><g clip-path="url(#3419200b59)"><path fill="#ffffff" d="M 26.304688 15.210938 C 29.457031 15.210938 32.011719 12.65625 32.011719 9.507812 C 32.011719 6.355469 29.457031 3.800781 26.304688 3.800781 C 23.15625 3.800781 20.601562 6.355469 20.601562 9.507812 C 20.601562 12.65625 23.15625 15.210938 26.304688 15.210938 Z M 26.085938 12.257812 Z M 27.6875 10.328125 L 26.234375 12.121094 C 26.191406 12.171875 26.140625 12.21875 26.085938 12.261719 C 25.734375 12.546875 25.210938 12.492188 24.925781 12.140625 L 22.960938 9.726562 C 22.675781 9.375 22.730469 8.847656 23.082031 8.5625 C 23.433594 8.277344 23.960938 8.332031 24.246094 8.683594 L 25.570312 10.316406 L 26.40625 9.289062 L 26.914062 8.664062 L 26.914062 8.660156 L 28.367188 6.871094 C 28.652344 6.519531 29.179688 6.464844 29.53125 6.753906 C 29.882812 7.039062 29.9375 7.5625 29.648438 7.914062 L 28.195312 9.703125 Z M 27.6875 10.328125 " fill-opacity="1" fill-rule="evenodd"/></g></svg>