<svg xmlns="http://www.w3.org/2000/svg" xmlns:xlink="http://www.w3.org/1999/xlink" width="45" zoomAndPan="magnify" viewBox="0 0 33.75 33.749998" height="45" preserveAspectRatio="xMidYMid meet" version="1.0"><defs><clipPath id="b51acf1aa8"><path d="M 2.242188 1.859375 L 31 1.859375 L 31 31.640625 L 2.242188 31.640625 Z M 2.242188 1.859375 " clip-rule="nonzero"/></clipPath></defs><g clip-path="url(#b51acf1aa8)"><path fill="#c4942e" d="M 18.203125 6.425781 C 19.636719 6.421875 20.976562 6.769531 22.230469 7.460938 L 14.078125 11.40625 C 13.488281 11.664062 13.03125 12.21875 12.832031 12.792969 C 12.675781 13.25 12.65625 13.714844 12.777344 14.183594 C 12.898438 14.65625 13.140625 15.050781 13.503906 15.375 C 13.867188 15.699219 14.289062 15.894531 14.769531 15.960938 C 15.25 16.027344 15.710938 15.957031 16.148438 15.746094 L 20.316406 13.730469 C 20.519531 13.632812 20.730469 13.578125 20.953125 13.566406 C 21.175781 13.550781 21.394531 13.582031 21.605469 13.65625 C 21.816406 13.730469 22.003906 13.839844 22.171875 13.988281 C 22.339844 14.136719 22.46875 14.3125 22.566406 14.511719 C 22.664062 14.714844 22.71875 14.925781 22.734375 15.148438 C 22.746094 15.371094 22.714844 15.589844 22.640625 15.800781 C 22.566406 16.011719 22.457031 16.199219 22.308594 16.367188 C 22.160156 16.535156 21.984375 16.664062 21.785156 16.761719 L 12.816406 21.097656 C 11.015625 19.546875 9.875 17.3125 9.875 14.75 C 9.875 14.203125 9.929688 13.660156 10.035156 13.125 C 10.144531 12.589844 10.300781 12.070312 10.511719 11.5625 C 10.71875 11.058594 10.976562 10.578125 11.28125 10.125 C 11.582031 9.667969 11.929688 9.25 12.316406 8.863281 C 12.703125 8.476562 13.121094 8.132812 13.578125 7.828125 C 14.03125 7.523438 14.511719 7.265625 15.015625 7.058594 C 15.523438 6.847656 16.042969 6.691406 16.578125 6.585938 C 17.113281 6.476562 17.65625 6.425781 18.203125 6.425781 Z M 20.871094 1.871094 C 21.164062 1.871094 21.414062 1.96875 21.625 2.171875 C 21.835938 2.371094 21.949219 2.617188 21.964844 2.90625 C 21.980469 3.195312 21.894531 3.453125 21.703125 3.675781 C 21.515625 3.894531 21.277344 4.019531 20.988281 4.050781 C 20.699219 4.082031 20.4375 4.007812 20.207031 3.832031 C 19.976562 3.65625 19.835938 3.421875 19.792969 3.136719 C 18.414062 2.945312 17.042969 3 15.683594 3.300781 C 14.324219 3.597656 13.054688 4.125 11.882812 4.875 C 11.800781 4.929688 11.710938 4.945312 11.613281 4.921875 C 11.515625 4.902344 11.4375 4.851562 11.386719 4.765625 C 11.332031 4.683594 11.316406 4.59375 11.335938 4.496094 C 11.359375 4.398438 11.410156 4.320312 11.496094 4.269531 C 12.742188 3.46875 14.09375 2.910156 15.542969 2.59375 C 16.992188 2.277344 18.453125 2.21875 19.921875 2.425781 C 20.128906 2.054688 20.449219 1.871094 20.871094 1.871094 Z M 6.15625 14.703125 C 6.300781 14.703125 6.4375 14.734375 6.574219 14.789062 C 6.707031 14.84375 6.824219 14.921875 6.925781 15.023438 C 7.03125 15.128906 7.109375 15.246094 7.164062 15.378906 C 7.21875 15.511719 7.246094 15.652344 7.246094 15.796875 C 7.246094 15.941406 7.21875 16.082031 7.164062 16.214844 C 7.109375 16.347656 7.03125 16.46875 6.925781 16.570312 C 6.824219 16.671875 6.707031 16.75 6.574219 16.804688 C 6.441406 16.863281 6.300781 16.890625 6.15625 16.890625 C 6.011719 16.890625 5.871094 16.863281 5.738281 16.804688 C 5.601562 16.75 5.484375 16.671875 5.382812 16.570312 C 5.28125 16.46875 5.203125 16.347656 5.144531 16.214844 C 5.089844 16.082031 5.0625 15.941406 5.0625 15.796875 C 5.0625 15.652344 5.089844 15.511719 5.144531 15.378906 C 5.203125 15.246094 5.28125 15.128906 5.382812 15.023438 C 5.484375 14.921875 5.601562 14.84375 5.738281 14.789062 C 5.871094 14.734375 6.011719 14.703125 6.15625 14.703125 Z M 10.601562 7.292969 L 9.847656 6.539062 L 10.601562 5.785156 C 10.671875 5.714844 10.710938 5.628906 10.710938 5.53125 C 10.710938 5.429688 10.675781 5.34375 10.605469 5.269531 C 10.535156 5.199219 10.449219 5.164062 10.347656 5.164062 C 10.246094 5.167969 10.160156 5.203125 10.089844 5.273438 L 9.335938 6.027344 L 8.582031 5.273438 C 8.511719 5.203125 8.425781 5.167969 8.328125 5.164062 C 8.226562 5.164062 8.140625 5.199219 8.066406 5.269531 C 7.996094 5.34375 7.960938 5.429688 7.960938 5.53125 C 7.964844 5.628906 8 5.714844 8.074219 5.785156 L 8.824219 6.539062 L 8.074219 7.292969 C 8 7.363281 7.964844 7.449219 7.960938 7.550781 C 7.960938 7.652344 7.996094 7.738281 8.066406 7.808594 C 8.140625 7.878906 8.226562 7.914062 8.328125 7.914062 C 8.425781 7.914062 8.511719 7.875 8.582031 7.804688 L 9.335938 7.050781 L 10.089844 7.804688 C 10.160156 7.875 10.246094 7.914062 10.347656 7.914062 C 10.449219 7.914062 10.535156 7.878906 10.605469 7.808594 C 10.675781 7.738281 10.710938 7.652344 10.710938 7.550781 C 10.710938 7.449219 10.671875 7.363281 10.601562 7.292969 Z M 23.027344 7.078125 L 25.679688 5.796875 L 24.78125 3.941406 L 29.605469 4.296875 L 26.886719 8.296875 L 25.992188 6.445312 L 23.796875 7.503906 Z M 7.777344 20.128906 C 7.824219 20.21875 7.832031 20.3125 7.800781 20.40625 C 7.773438 20.503906 7.710938 20.574219 7.625 20.617188 C 7.535156 20.664062 7.441406 20.671875 7.347656 20.640625 C 7.253906 20.609375 7.183594 20.550781 7.136719 20.460938 C 6.757812 19.726562 6.453125 18.964844 6.230469 18.171875 C 6.199219 18.074219 6.210938 17.984375 6.261719 17.894531 C 6.308594 17.808594 6.378906 17.75 6.476562 17.722656 C 6.574219 17.695312 6.664062 17.707031 6.75 17.753906 C 6.839844 17.804688 6.894531 17.875 6.921875 17.972656 C 7.136719 18.71875 7.421875 19.441406 7.777344 20.128906 Z M 6.53125 13.617188 C 6.519531 13.714844 6.476562 13.796875 6.402344 13.859375 C 6.324219 13.921875 6.238281 13.949219 6.136719 13.941406 C 6.039062 13.929688 5.957031 13.886719 5.894531 13.8125 C 5.832031 13.734375 5.804688 13.648438 5.8125 13.546875 C 5.980469 11.8125 6.492188 10.179688 7.347656 8.660156 C 7.394531 8.570312 7.464844 8.515625 7.5625 8.484375 C 7.660156 8.457031 7.753906 8.46875 7.839844 8.519531 C 7.925781 8.566406 7.984375 8.640625 8.011719 8.738281 C 8.039062 8.832031 8.027344 8.925781 7.976562 9.011719 C 7.167969 10.445312 6.6875 11.980469 6.53125 13.617188 Z M 28.824219 9.777344 C 28.78125 9.683594 28.777344 9.59375 28.808594 9.5 C 28.84375 9.40625 28.90625 9.335938 28.996094 9.292969 C 29.085938 9.25 29.179688 9.246094 29.273438 9.28125 C 29.367188 9.316406 29.433594 9.378906 29.476562 9.472656 C 29.75 10.058594 29.976562 10.660156 30.160156 11.28125 C 30.339844 11.902344 30.46875 12.535156 30.550781 13.175781 C 30.632812 13.816406 30.664062 14.460938 30.648438 15.109375 C 30.628906 15.757812 30.558594 16.398438 30.441406 17.035156 C 30.324219 17.667969 30.15625 18.292969 29.941406 18.902344 C 29.726562 19.511719 29.464844 20.101562 29.15625 20.671875 C 28.847656 21.242188 28.496094 21.78125 28.105469 22.296875 C 27.714844 22.8125 27.285156 23.292969 26.816406 23.742188 C 26.746094 23.808594 26.660156 23.84375 26.558594 23.839844 C 26.460938 23.839844 26.375 23.800781 26.308594 23.730469 C 26.238281 23.660156 26.203125 23.574219 26.207031 23.472656 C 26.207031 23.375 26.246094 23.289062 26.316406 23.222656 C 26.757812 22.800781 27.160156 22.347656 27.53125 21.859375 C 27.902344 21.375 28.230469 20.867188 28.519531 20.328125 C 28.808594 19.792969 29.054688 19.238281 29.257812 18.664062 C 29.460938 18.089844 29.621094 17.5 29.730469 16.902344 C 29.84375 16.300781 29.90625 15.699219 29.925781 15.089844 C 29.941406 14.480469 29.914062 13.871094 29.835938 13.265625 C 29.757812 12.664062 29.636719 12.066406 29.464844 11.480469 C 29.296875 10.898438 29.082031 10.328125 28.824219 9.777344 Z M 7.769531 21.757812 L 9.652344 22.628906 L 12.113281 21.4375 L 12.574219 21.84375 L 12.667969 21.972656 L 10.015625 23.253906 L 9.667969 25.6875 L 4.144531 28.359375 L 4.917969 25.351562 L 2.242188 24.429688 Z M 12.710938 23.457031 C 12.53125 23.457031 12.355469 23.492188 12.183594 23.5625 C 12.015625 23.632812 11.867188 23.734375 11.738281 23.863281 C 11.609375 23.992188 11.507812 24.140625 11.4375 24.308594 C 11.367188 24.480469 11.332031 24.65625 11.332031 24.839844 C 11.332031 25.023438 11.367188 25.199219 11.4375 25.367188 C 11.507812 25.535156 11.609375 25.683594 11.738281 25.8125 C 11.867188 25.945312 12.015625 26.042969 12.183594 26.113281 C 12.355469 26.183594 12.53125 26.21875 12.710938 26.21875 L 23.691406 26.21875 C 23.875 26.21875 24.050781 26.183594 24.21875 26.113281 C 24.390625 26.042969 24.539062 25.945312 24.667969 25.8125 C 24.796875 25.683594 24.898438 25.535156 24.96875 25.367188 C 25.035156 25.199219 25.070312 25.023438 25.070312 24.839844 C 25.070312 24.65625 25.035156 24.480469 24.96875 24.308594 C 24.898438 24.140625 24.796875 23.992188 24.667969 23.863281 C 24.539062 23.734375 24.390625 23.632812 24.21875 23.5625 C 24.050781 23.492188 23.875 23.457031 23.691406 23.457031 Z M 20.832031 29.699219 C 20.753906 29.988281 20.632812 30.261719 20.46875 30.511719 C 20.300781 30.761719 20.097656 30.976562 19.863281 31.160156 C 19.625 31.34375 19.363281 31.484375 19.078125 31.578125 C 18.792969 31.675781 18.503906 31.726562 18.203125 31.726562 C 17.902344 31.726562 17.609375 31.675781 17.328125 31.578125 C 17.042969 31.484375 16.78125 31.34375 16.542969 31.160156 C 16.304688 30.976562 16.105469 30.761719 15.9375 30.511719 C 15.773438 30.261719 15.652344 29.988281 15.574219 29.699219 C 15.710938 29.71875 15.851562 29.730469 15.988281 29.730469 L 20.417969 29.730469 C 20.554688 29.730469 20.695312 29.71875 20.832031 29.699219 Z M 21.707031 10.117188 L 21.238281 10.589844 L 20.765625 10.117188 C 20.695312 10.050781 20.609375 10.015625 20.511719 10.019531 C 20.414062 10.019531 20.328125 10.054688 20.257812 10.125 C 20.191406 10.191406 20.15625 10.277344 20.152344 10.375 C 20.152344 10.472656 20.1875 10.558594 20.253906 10.628906 L 20.726562 11.101562 L 20.253906 11.574219 C 20.183594 11.644531 20.144531 11.726562 20.144531 11.828125 C 20.144531 11.929688 20.179688 12.015625 20.25 12.085938 C 20.324219 12.160156 20.410156 12.195312 20.507812 12.195312 C 20.609375 12.191406 20.695312 12.15625 20.765625 12.082031 L 21.238281 11.613281 L 21.707031 12.082031 C 21.777344 12.15625 21.863281 12.191406 21.964844 12.195312 C 22.066406 12.195312 22.152344 12.160156 22.222656 12.085938 C 22.296875 12.015625 22.332031 11.929688 22.328125 11.828125 C 22.328125 11.726562 22.292969 11.644531 22.21875 11.574219 L 21.75 11.101562 L 22.21875 10.628906 C 22.292969 10.558594 22.328125 10.472656 22.328125 10.371094 C 22.332031 10.273438 22.296875 10.1875 22.222656 10.113281 C 22.152344 10.042969 22.066406 10.007812 21.964844 10.007812 C 21.863281 10.007812 21.777344 10.046875 21.707031 10.117188 Z M 20.105469 19.75 C 19.914062 19.75 19.726562 19.785156 19.550781 19.859375 C 19.371094 19.933594 19.214844 20.039062 19.078125 20.175781 C 18.941406 20.308594 18.835938 20.46875 18.761719 20.644531 C 18.6875 20.824219 18.652344 21.007812 18.652344 21.203125 C 18.652344 22.492188 20.21875 23.144531 21.132812 22.230469 C 22.046875 21.316406 21.394531 19.75 20.105469 19.75 Z M 20.621094 20.683594 C 20.480469 20.542969 20.308594 20.46875 20.105469 20.46875 C 19.902344 20.46875 19.730469 20.542969 19.589844 20.683594 C 19.445312 20.828125 19.375 21 19.375 21.203125 C 19.375 21.402344 19.445312 21.574219 19.589844 21.71875 C 19.730469 21.863281 19.902344 21.933594 20.105469 21.933594 C 20.308594 21.933594 20.480469 21.863281 20.621094 21.71875 C 20.765625 21.574219 20.835938 21.402344 20.835938 21.203125 C 20.835938 21 20.765625 20.828125 20.621094 20.683594 Z M 14.640625 16.996094 L 14.167969 17.464844 L 13.699219 16.996094 C 13.628906 16.921875 13.542969 16.886719 13.441406 16.886719 C 13.339844 16.886719 13.253906 16.921875 13.183594 16.992188 C 13.113281 17.0625 13.078125 17.148438 13.078125 17.25 C 13.078125 17.351562 13.113281 17.433594 13.1875 17.503906 L 13.660156 17.976562 L 13.1875 18.449219 C 13.113281 18.519531 13.078125 18.605469 13.078125 18.707031 C 13.074219 18.804688 13.109375 18.890625 13.183594 18.964844 C 13.253906 19.035156 13.339844 19.070312 13.441406 19.070312 C 13.542969 19.070312 13.628906 19.03125 13.699219 18.960938 L 14.167969 18.488281 L 14.640625 18.960938 C 14.710938 19.03125 14.796875 19.070312 14.898438 19.070312 C 14.996094 19.070312 15.085938 19.035156 15.15625 18.964844 C 15.226562 18.890625 15.261719 18.804688 15.261719 18.707031 C 15.261719 18.605469 15.222656 18.519531 15.152344 18.449219 L 14.679688 17.976562 L 15.152344 17.503906 C 15.21875 17.433594 15.253906 17.351562 15.253906 17.25 C 15.253906 17.152344 15.21875 17.070312 15.148438 17 C 15.078125 16.929688 14.992188 16.894531 14.894531 16.894531 C 14.796875 16.890625 14.710938 16.925781 14.640625 16.996094 Z M 22.953125 7.914062 L 14.367188 12.066406 C 14.167969 12.160156 13.996094 12.292969 13.847656 12.457031 C 13.699219 12.625 13.589844 12.8125 13.515625 13.023438 C 13.441406 13.230469 13.410156 13.445312 13.421875 13.667969 C 13.433594 13.890625 13.488281 14.101562 13.582031 14.300781 C 13.679688 14.503906 13.808594 14.679688 13.972656 14.828125 C 14.136719 14.976562 14.324219 15.089844 14.53125 15.164062 C 14.742188 15.238281 14.957031 15.273438 15.179688 15.261719 C 15.402344 15.253906 15.613281 15.199219 15.8125 15.105469 C 15.828125 15.097656 15.84375 15.09375 15.859375 15.085938 L 19.980469 13.09375 C 20.554688 12.789062 21.269531 12.777344 21.839844 12.976562 C 22.300781 13.136719 22.675781 13.414062 22.96875 13.800781 C 23.261719 14.1875 23.421875 14.625 23.449219 15.109375 C 23.476562 15.59375 23.367188 16.046875 23.121094 16.464844 C 22.875 16.882812 22.535156 17.199219 22.097656 17.410156 L 13.324219 21.652344 C 13.558594 21.980469 13.710938 22.339844 13.789062 22.734375 L 22.617188 22.734375 C 22.75 22.070312 23.074219 21.523438 23.597656 21.09375 C 27.753906 17.550781 27.4375 11.035156 22.953125 7.914062 Z M 22.558594 26.941406 C 22.546875 27.21875 22.488281 27.484375 22.371094 27.738281 C 22.257812 27.988281 22.101562 28.210938 21.902344 28.40625 C 21.703125 28.597656 21.476562 28.746094 21.21875 28.851562 C 20.960938 28.953125 20.695312 29.007812 20.417969 29.007812 L 15.988281 29.007812 C 15.710938 29.007812 15.445312 28.953125 15.1875 28.851562 C 14.929688 28.746094 14.703125 28.597656 14.503906 28.40625 C 14.300781 28.210938 14.144531 27.988281 14.03125 27.738281 C 13.917969 27.484375 13.855469 27.21875 13.84375 26.941406 Z M 22.558594 26.941406 " fill-opacity="1" fill-rule="evenodd"/></g></svg>