<svg xmlns="http://www.w3.org/2000/svg" xmlns:xlink="http://www.w3.org/1999/xlink" width="45" zoomAndPan="magnify" viewBox="0 0 33.75 33.749998" height="45" preserveAspectRatio="xMidYMid meet" version="1.0"><defs><clipPath id="ebe3672f2d"><path d="M 9 18 L 22 18 L 22 31.523438 L 9 31.523438 Z M 9 18 " clip-rule="nonzero"/></clipPath><clipPath id="dece362fb3"><path d="M 2.011719 9.191406 L 15 9.191406 L 15 22 L 2.011719 22 Z M 2.011719 9.191406 " clip-rule="nonzero"/></clipPath><clipPath id="5730614cd2"><path d="M 18 11 L 31.792969 11 L 31.792969 25 L 18 25 Z M 18 11 " clip-rule="nonzero"/></clipPath><clipPath id="9d54f0bea2"><path d="M 15.421875 2.226562 L 31.800781 2.226562 L 31.800781 11.90625 L 15.421875 11.90625 Z M 15.421875 2.226562 " clip-rule="nonzero"/></clipPath></defs><g clip-path="url(#ebe3672f2d)"><path fill="#030429" d="M 15.640625 28.796875 C 13.511719 28.796875 11.777344 27.0625 11.777344 24.933594 C 11.777344 22.800781 13.511719 21.070312 15.640625 21.070312 C 17.773438 21.070312 19.503906 22.800781 19.503906 24.933594 C 19.503906 27.0625 17.773438 28.796875 15.640625 28.796875 Z M 21.691406 22.746094 L 20.019531 22.902344 C 19.898438 22.640625 19.753906 22.390625 19.589844 22.15625 L 20.5625 20.789062 C 20.328125 20.507812 20.066406 20.25 19.789062 20.011719 L 18.417969 20.984375 C 18.183594 20.820312 17.933594 20.675781 17.671875 20.554688 L 17.832031 18.882812 C 17.488281 18.761719 17.136719 18.664062 16.773438 18.597656 L 16.074219 20.125 C 15.929688 20.113281 15.789062 20.101562 15.640625 20.101562 C 15.496094 20.101562 15.351562 20.113281 15.210938 20.125 L 14.511719 18.597656 C 14.148438 18.664062 13.792969 18.761719 13.453125 18.882812 L 13.613281 20.554688 C 13.347656 20.675781 13.097656 20.820312 12.863281 20.984375 L 11.496094 20.011719 C 11.214844 20.25 10.957031 20.507812 10.722656 20.789062 L 11.695312 22.15625 C 11.527344 22.390625 11.386719 22.640625 11.265625 22.902344 L 9.59375 22.746094 C 9.46875 23.085938 9.371094 23.4375 9.308594 23.804688 L 10.835938 24.5 C 10.820312 24.644531 10.8125 24.785156 10.8125 24.933594 C 10.8125 25.078125 10.820312 25.222656 10.835938 25.363281 L 9.308594 26.0625 C 9.371094 26.425781 9.46875 26.78125 9.59375 27.121094 L 11.265625 26.960938 C 11.386719 27.226562 11.527344 27.476562 11.695312 27.710938 L 10.722656 29.078125 C 10.957031 29.359375 11.214844 29.617188 11.496094 29.851562 L 12.863281 28.878906 C 13.097656 29.046875 13.347656 29.1875 13.613281 29.3125 L 13.453125 30.980469 C 13.792969 31.105469 14.148438 31.203125 14.511719 31.265625 L 15.210938 29.742188 C 15.351562 29.753906 15.496094 29.761719 15.640625 29.761719 C 15.789062 29.761719 15.929688 29.753906 16.074219 29.742188 L 16.773438 31.265625 C 17.136719 31.203125 17.488281 31.105469 17.832031 30.980469 L 17.671875 29.3125 C 17.933594 29.1875 18.183594 29.046875 18.417969 28.878906 L 19.789062 29.851562 C 20.066406 29.617188 20.328125 29.359375 20.5625 29.078125 L 19.589844 27.710938 C 19.753906 27.476562 19.898438 27.226562 20.019531 26.960938 L 21.691406 27.121094 C 21.8125 26.78125 21.910156 26.425781 21.976562 26.0625 L 20.449219 25.363281 C 20.460938 25.222656 20.472656 25.078125 20.472656 24.933594 C 20.472656 24.785156 20.460938 24.644531 20.449219 24.5 L 21.976562 23.804688 C 21.910156 23.4375 21.8125 23.085938 21.691406 22.746094 " fill-opacity="1" fill-rule="nonzero"/></g><path fill="#030429" d="M 15.640625 26.863281 C 14.578125 26.863281 13.710938 26 13.710938 24.933594 C 13.710938 23.867188 14.578125 23 15.640625 23 C 16.707031 23 17.574219 23.867188 17.574219 24.933594 C 17.574219 26 16.707031 26.863281 15.640625 26.863281 Z M 15.640625 21.714844 C 13.867188 21.714844 12.421875 23.15625 12.421875 24.933594 C 12.421875 26.707031 13.867188 28.152344 15.640625 28.152344 C 17.417969 28.152344 18.863281 26.707031 18.863281 24.933594 C 18.863281 23.15625 17.417969 21.714844 15.640625 21.714844 " fill-opacity="1" fill-rule="nonzero"/><g clip-path="url(#dece362fb3)"><path fill="#030429" d="M 8.347656 19.390625 C 6.214844 19.390625 4.484375 17.65625 4.484375 15.527344 C 4.484375 13.398438 6.214844 11.664062 8.347656 11.664062 C 10.476562 11.664062 12.210938 13.398438 12.210938 15.527344 C 12.210938 17.65625 10.476562 19.390625 8.347656 19.390625 Z M 10.535156 21.574219 L 10.375 19.90625 C 10.640625 19.78125 10.890625 19.640625 11.125 19.472656 L 12.492188 20.449219 C 12.773438 20.210938 13.03125 19.953125 13.265625 19.671875 L 12.292969 18.304688 C 12.460938 18.070312 12.601562 17.820312 12.726562 17.558594 L 14.394531 17.714844 C 14.519531 17.375 14.617188 17.019531 14.679688 16.65625 L 13.15625 15.957031 C 13.167969 15.816406 13.175781 15.671875 13.175781 15.527344 C 13.175781 15.382812 13.167969 15.238281 13.15625 15.09375 L 14.679688 14.398438 C 14.617188 14.03125 14.519531 13.679688 14.394531 13.339844 L 12.726562 13.496094 C 12.601562 13.234375 12.460938 12.984375 12.292969 12.75 L 13.265625 11.382812 C 13.03125 11.101562 12.773438 10.84375 12.492188 10.605469 L 11.125 11.578125 C 10.890625 11.414062 10.640625 11.269531 10.375 11.148438 L 10.535156 9.476562 C 10.195312 9.355469 9.839844 9.257812 9.476562 9.191406 L 8.777344 10.71875 C 8.636719 10.707031 8.492188 10.695312 8.347656 10.695312 C 8.203125 10.695312 8.058594 10.707031 7.914062 10.71875 L 7.21875 9.191406 C 6.851562 9.257812 6.5 9.355469 6.160156 9.476562 L 6.316406 11.148438 C 6.054688 11.269531 5.804688 11.414062 5.570312 11.578125 L 4.203125 10.605469 C 3.921875 10.84375 3.664062 11.101562 3.425781 11.382812 L 4.398438 12.75 C 4.234375 12.984375 4.089844 13.234375 3.96875 13.496094 L 2.296875 13.339844 C 2.175781 13.679688 2.078125 14.03125 2.011719 14.398438 L 3.539062 15.09375 C 3.527344 15.238281 3.515625 15.382812 3.515625 15.527344 C 3.515625 15.671875 3.527344 15.816406 3.539062 15.957031 L 2.011719 16.65625 C 2.078125 17.019531 2.175781 17.375 2.296875 17.714844 L 3.96875 17.558594 C 4.089844 17.820312 4.234375 18.070312 4.398438 18.304688 L 3.425781 19.671875 C 3.664062 19.953125 3.921875 20.210938 4.203125 20.449219 L 5.570312 19.472656 C 5.804688 19.640625 6.054688 19.78125 6.316406 19.90625 L 6.160156 21.574219 C 6.5 21.699219 6.851562 21.796875 7.21875 21.859375 L 7.914062 20.335938 C 8.058594 20.347656 8.203125 20.355469 8.347656 20.355469 C 8.492188 20.355469 8.636719 20.347656 8.777344 20.335938 L 9.476562 21.859375 C 9.839844 21.796875 10.195312 21.699219 10.535156 21.574219 " fill-opacity="1" fill-rule="nonzero"/></g><path fill="#030429" d="M 8.347656 16.816406 C 7.636719 16.816406 7.058594 16.238281 7.058594 15.527344 C 7.058594 14.816406 7.636719 14.238281 8.347656 14.238281 C 9.058594 14.238281 9.636719 14.816406 9.636719 15.527344 C 9.636719 16.238281 9.058594 16.816406 8.347656 16.816406 Z M 8.347656 13.59375 C 7.28125 13.59375 6.414062 14.460938 6.414062 15.527344 C 6.414062 16.59375 7.28125 17.457031 8.347656 17.457031 C 9.414062 17.457031 10.277344 16.59375 10.277344 15.527344 C 10.277344 14.460938 9.414062 13.59375 8.347656 13.59375 " fill-opacity="1" fill-rule="nonzero"/><g clip-path="url(#5730614cd2)"><path fill="#030429" d="M 25.144531 21.535156 C 23.015625 21.535156 21.28125 19.804688 21.28125 17.671875 C 21.28125 15.542969 23.015625 13.808594 25.144531 13.808594 C 27.273438 13.808594 29.007812 15.542969 29.007812 17.671875 C 29.007812 19.804688 27.273438 21.535156 25.144531 21.535156 Z M 29.972656 17.671875 C 29.972656 17.527344 29.964844 17.382812 29.953125 17.242188 L 31.480469 16.542969 C 31.414062 16.179688 31.316406 15.824219 31.191406 15.484375 L 29.523438 15.644531 C 29.402344 15.378906 29.257812 15.128906 29.09375 14.894531 L 30.066406 13.527344 C 29.828125 13.246094 29.570312 12.988281 29.289062 12.753906 L 27.921875 13.726562 C 27.6875 13.558594 27.4375 13.417969 27.175781 13.292969 L 27.332031 11.625 C 26.992188 11.5 26.640625 11.402344 26.273438 11.339844 L 25.578125 12.863281 C 25.433594 12.851562 25.289062 12.84375 25.144531 12.84375 C 25 12.84375 24.855469 12.851562 24.710938 12.863281 L 24.015625 11.339844 C 23.648438 11.402344 23.296875 11.5 22.957031 11.625 L 23.113281 13.292969 C 22.851562 13.417969 22.601562 13.558594 22.367188 13.726562 L 21 12.753906 C 20.71875 12.988281 20.460938 13.246094 20.222656 13.527344 L 21.195312 14.894531 C 21.03125 15.128906 20.890625 15.378906 20.765625 15.644531 L 19.097656 15.484375 C 18.972656 15.824219 18.875 16.179688 18.8125 16.542969 L 20.335938 17.242188 C 20.324219 17.382812 20.316406 17.527344 20.316406 17.671875 C 20.316406 17.816406 20.324219 17.960938 20.335938 18.105469 L 18.8125 18.800781 C 18.875 19.167969 18.972656 19.519531 19.097656 19.859375 L 20.765625 19.703125 C 20.886719 19.964844 21.03125 20.214844 21.195312 20.449219 L 20.222656 21.816406 C 20.460938 22.097656 20.71875 22.355469 21 22.59375 L 22.367188 21.621094 C 22.601562 21.785156 22.851562 21.929688 23.113281 22.050781 L 22.957031 23.722656 C 23.296875 23.84375 23.648438 23.941406 24.015625 24.007812 L 24.710938 22.480469 C 24.855469 22.492188 25 22.503906 25.144531 22.503906 C 25.289062 22.503906 25.433594 22.492188 25.578125 22.480469 L 26.273438 24.007812 C 26.640625 23.941406 26.992188 23.84375 27.332031 23.722656 L 27.175781 22.050781 C 27.4375 21.929688 27.6875 21.785156 27.921875 21.621094 L 29.289062 22.59375 C 29.570312 22.355469 29.828125 22.097656 30.066406 21.816406 L 29.09375 20.449219 C 29.257812 20.214844 29.402344 19.964844 29.523438 19.703125 L 31.191406 19.859375 C 31.316406 19.519531 31.414062 19.167969 31.480469 18.800781 L 29.953125 18.105469 C 29.964844 17.960938 29.972656 17.816406 29.972656 17.671875 " fill-opacity="1" fill-rule="nonzero"/></g><path fill="#030429" d="M 25.144531 18.960938 C 24.433594 18.960938 23.855469 18.382812 23.855469 17.671875 C 23.855469 16.960938 24.433594 16.382812 25.144531 16.382812 C 25.855469 16.382812 26.433594 16.960938 26.433594 17.671875 C 26.433594 18.382812 25.855469 18.960938 25.144531 18.960938 Z M 25.144531 15.097656 C 23.722656 15.097656 22.570312 16.253906 22.570312 17.671875 C 22.570312 19.09375 23.722656 20.25 25.144531 20.25 C 26.566406 20.25 27.71875 19.09375 27.71875 17.671875 C 27.71875 16.253906 26.566406 15.097656 25.144531 15.097656 " fill-opacity="1" fill-rule="nonzero"/><g clip-path="url(#9d54f0bea2)"><path fill="#030429" d="M 26.664062 2.226562 L 28.507812 4.070312 L 24.589844 7.984375 L 21.378906 4.773438 L 15.429688 10.722656 L 16.566406 11.859375 L 21.378906 7.042969 L 24.589844 10.253906 L 29.640625 5.203125 L 31.480469 7.042969 L 31.480469 2.226562 Z M 26.664062 2.226562 " fill-opacity="1" fill-rule="nonzero"/></g></svg>