<svg xmlns="http://www.w3.org/2000/svg" xmlns:xlink="http://www.w3.org/1999/xlink" width="45" zoomAndPan="magnify" viewBox="0 0 33.75 33.749998" height="45" preserveAspectRatio="xMidYMid meet" version="1.0"><defs><clipPath id="86d6c63e22"><path d="M 25 4.488281 L 31.597656 4.488281 L 31.597656 21 L 25 21 Z M 25 4.488281 " clip-rule="nonzero"/></clipPath><clipPath id="bc0fea6063"><path d="M 1.816406 4.488281 L 21 4.488281 L 21 29.054688 L 1.816406 29.054688 Z M 1.816406 4.488281 " clip-rule="nonzero"/></clipPath></defs><path fill="#ffffff" d="M 14.082031 15.148438 L 17.28125 15.148438 L 17.28125 20.480469 L 14.082031 20.480469 Z M 14.082031 15.148438 " fill-opacity="1" fill-rule="nonzero"/><path fill="#ffffff" d="M 18.347656 13.015625 L 21.546875 13.015625 L 21.546875 20.480469 L 18.347656 20.480469 Z M 18.347656 13.015625 " fill-opacity="1" fill-rule="nonzero"/><path fill="#ffffff" d="M 22.613281 10.882812 L 25.8125 10.882812 L 25.8125 20.480469 L 22.613281 20.480469 Z M 22.613281 10.882812 " fill-opacity="1" fill-rule="nonzero"/><g clip-path="url(#86d6c63e22)"><path fill="#ffffff" d="M 26.875 20.480469 L 30.074219 20.480469 L 30.074219 8.75 L 31.675781 8.75 L 28.476562 4.488281 L 25.277344 8.75 L 26.875 8.75 Z M 26.875 20.480469 " fill-opacity="1" fill-rule="nonzero"/></g><g clip-path="url(#bc0fea6063)"><path fill="#ffffff" d="M 1.820312 19.34375 C 2.140625 20.867188 2.726562 22.277344 3.582031 23.578125 C 3.832031 23.375 4.109375 23.222656 4.417969 23.125 C 4.722656 23.027344 5.039062 22.984375 5.359375 23.003906 C 5.683594 23.019531 5.988281 23.09375 6.285156 23.226562 C 6.578125 23.355469 6.839844 23.535156 7.066406 23.761719 C 7.296875 23.992188 7.476562 24.253906 7.605469 24.546875 C 7.738281 24.839844 7.8125 25.148438 7.828125 25.46875 C 7.847656 25.792969 7.804688 26.105469 7.707031 26.414062 C 7.605469 26.71875 7.457031 27 7.253906 27.25 C 8.554688 28.105469 9.964844 28.691406 11.488281 29.007812 C 11.523438 28.6875 11.613281 28.386719 11.761719 28.101562 C 11.90625 27.816406 12.101562 27.566406 12.339844 27.351562 C 12.582031 27.136719 12.851562 26.972656 13.152344 26.855469 C 13.449219 26.742188 13.761719 26.683594 14.082031 26.683594 C 14.40625 26.683594 14.714844 26.742188 15.015625 26.855469 C 15.316406 26.972656 15.585938 27.136719 15.824219 27.351562 C 16.0625 27.566406 16.257812 27.816406 16.40625 28.101562 C 16.550781 28.386719 16.644531 28.6875 16.679688 29.007812 C 18.203125 28.691406 19.613281 28.105469 20.910156 27.25 C 20.722656 27.019531 20.578125 26.761719 20.480469 26.480469 C 20.378906 26.199219 20.328125 25.910156 20.328125 25.609375 C 20.328125 25.3125 20.378906 25.023438 20.480469 24.742188 C 20.578125 24.460938 20.722656 24.203125 20.910156 23.972656 L 18.246094 21.597656 C 17.941406 21.863281 17.613281 22.09375 17.261719 22.296875 C 16.914062 22.496094 16.546875 22.664062 16.164062 22.792969 C 15.785156 22.925781 15.394531 23.019531 14.992188 23.078125 C 14.59375 23.136719 14.191406 23.15625 13.789062 23.136719 C 13.386719 23.121094 12.988281 23.0625 12.597656 22.972656 C 12.203125 22.878906 11.824219 22.75 11.453125 22.582031 C 11.085938 22.417969 10.738281 22.21875 10.40625 21.988281 C 10.078125 21.757812 9.769531 21.496094 9.488281 21.207031 C 9.207031 20.917969 8.957031 20.601562 8.734375 20.265625 C 8.511719 19.929688 8.324219 19.574219 8.167969 19.203125 C 8.015625 18.828125 7.894531 18.445312 7.8125 18.050781 C 7.730469 17.65625 7.6875 17.253906 7.679688 16.851562 C 7.675781 16.449219 7.707031 16.046875 7.773438 15.648438 C 7.84375 15.253906 7.949219 14.863281 8.09375 14.488281 C 8.234375 14.109375 8.410156 13.75 8.621094 13.40625 C 8.832031 13.0625 9.074219 12.738281 9.347656 12.441406 C 9.617188 12.144531 9.914062 11.871094 10.238281 11.628906 C 10.5625 11.386719 10.902344 11.179688 11.265625 11 C 11.628906 10.824219 12.003906 10.683594 12.394531 10.574219 C 12.785156 10.46875 13.179688 10.402344 13.582031 10.371094 C 13.984375 10.339844 14.386719 10.34375 14.789062 10.390625 C 15.1875 10.433594 15.582031 10.515625 15.96875 10.636719 C 16.351562 10.757812 16.722656 10.910156 17.082031 11.101562 C 17.4375 11.289062 17.773438 11.511719 18.085938 11.761719 L 20.75 9.273438 C 20.453125 8.804688 20.320312 8.289062 20.351562 7.734375 C 20.382812 7.175781 20.574219 6.679688 20.921875 6.246094 C 19.621094 5.390625 18.203125 4.804688 16.679688 4.488281 C 16.644531 4.804688 16.550781 5.109375 16.40625 5.394531 C 16.257812 5.679688 16.0625 5.929688 15.824219 6.144531 C 15.585938 6.359375 15.316406 6.523438 15.015625 6.636719 C 14.714844 6.753906 14.40625 6.8125 14.082031 6.8125 C 13.761719 6.8125 13.449219 6.753906 13.152344 6.636719 C 12.851562 6.523438 12.582031 6.359375 12.339844 6.144531 C 12.101562 5.929688 11.90625 5.679688 11.761719 5.394531 C 11.613281 5.109375 11.523438 4.804688 11.488281 4.488281 C 9.964844 4.804688 8.554688 5.390625 7.253906 6.246094 C 7.457031 6.496094 7.605469 6.777344 7.707031 7.082031 C 7.804688 7.390625 7.847656 7.703125 7.828125 8.023438 C 7.8125 8.347656 7.738281 8.65625 7.605469 8.949219 C 7.476562 9.242188 7.296875 9.503906 7.066406 9.734375 C 6.839844 9.960938 6.578125 10.140625 6.285156 10.269531 C 5.988281 10.402344 5.683594 10.476562 5.359375 10.492188 C 5.039062 10.511719 4.722656 10.46875 4.417969 10.371094 C 4.109375 10.273438 3.832031 10.121094 3.582031 9.917969 C 2.726562 11.21875 2.140625 12.628906 1.820312 14.152344 C 2.140625 14.1875 2.445312 14.277344 2.730469 14.425781 C 3.015625 14.574219 3.265625 14.765625 3.480469 15.007812 C 3.695312 15.246094 3.859375 15.515625 3.972656 15.816406 C 4.089844 16.117188 4.144531 16.425781 4.144531 16.746094 C 4.144531 17.070312 4.089844 17.378906 3.972656 17.679688 C 3.859375 17.980469 3.695312 18.25 3.480469 18.488281 C 3.265625 18.730469 3.015625 18.921875 2.730469 19.070312 C 2.445312 19.21875 2.140625 19.308594 1.820312 19.34375 Z M 1.820312 19.34375 " fill-opacity="1" fill-rule="nonzero"/></g></svg>