<svg xmlns="http://www.w3.org/2000/svg" xmlns:xlink="http://www.w3.org/1999/xlink" width="45" zoomAndPan="magnify" viewBox="0 0 33.75 33.749998" height="45" preserveAspectRatio="xMidYMid meet" version="1.0"><defs><clipPath id="84da26dfd9"><path d="M 2.027344 11 L 9 11 L 9 20 L 2.027344 20 Z M 2.027344 11 " clip-rule="nonzero"/></clipPath><clipPath id="ee64508e5c"><path d="M 24 11 L 31.808594 11 L 31.808594 20 L 24 20 Z M 24 11 " clip-rule="nonzero"/></clipPath><clipPath id="4286e9cef0"><path d="M 3 15 L 30 15 L 30 28.613281 L 3 28.613281 Z M 3 15 " clip-rule="nonzero"/></clipPath><clipPath id="ea92549720"><path d="M 9 4.789062 L 24 4.789062 L 24 13 L 9 13 Z M 9 4.789062 " clip-rule="nonzero"/></clipPath></defs><g clip-path="url(#84da26dfd9)"><path fill="#ffffff" d="M 5.492188 18.390625 C 5.628906 18.296875 5.722656 18.160156 5.722656 18 L 5.722656 16.390625 C 5.722656 16.230469 5.628906 16.070312 5.492188 16 L 4.34375 15.335938 L 4.34375 12.601562 L 8.707031 12.601562 L 8.707031 11.683594 L 3.882812 11.683594 C 3.632812 11.683594 3.425781 11.886719 3.425781 12.140625 L 3.425781 15.335938 L 2.277344 16 C 2.136719 16.09375 2.046875 16.230469 2.046875 16.390625 L 2.046875 18 C 2.046875 18.160156 2.136719 18.320312 2.277344 18.390625 L 3.65625 19.195312 C 3.792969 19.261719 3.976562 19.285156 4.113281 19.195312 Z M 5.492188 18.390625 " fill-opacity="1" fill-rule="nonzero"/></g><g clip-path="url(#ee64508e5c)"><path fill="#ffffff" d="M 31.222656 16 L 30.074219 15.335938 L 30.074219 12.140625 C 30.074219 11.886719 29.867188 11.683594 29.617188 11.683594 L 24.792969 11.683594 L 24.792969 12.601562 L 29.15625 12.601562 L 29.15625 15.335938 L 28.007812 16 C 27.871094 16.09375 27.777344 16.230469 27.777344 16.390625 L 27.777344 18 C 27.777344 18.160156 27.871094 18.320312 28.007812 18.390625 L 29.386719 19.195312 C 29.523438 19.285156 29.707031 19.261719 29.84375 19.195312 L 31.222656 18.390625 C 31.363281 18.296875 31.453125 18.160156 31.453125 18 L 31.453125 16.390625 C 31.453125 16.230469 31.363281 16.070312 31.222656 16 Z M 31.222656 16 " fill-opacity="1" fill-rule="nonzero"/></g><g clip-path="url(#4286e9cef0)"><path fill="#ffffff" d="M 29.386719 25.421875 L 28.238281 24.753906 L 28.238281 22.25 C 28.238281 21.996094 28.03125 21.789062 27.777344 21.789062 L 17.210938 21.789062 L 17.210938 19.492188 C 21.253906 19.445312 23.871094 18.207031 23.871094 16.277344 L 23.871094 15.21875 C 22.515625 16.230469 20.128906 16.804688 17.046875 16.804688 C 13.742188 16.804688 11.074219 16.160156 9.628906 15.105469 L 9.628906 16.277344 C 9.628906 18.070312 12.339844 19.355469 16.289062 19.46875 L 16.289062 21.789062 L 5.722656 21.789062 C 5.46875 21.789062 5.261719 21.996094 5.261719 22.25 L 5.261719 24.753906 L 4.113281 25.421875 C 3.976562 25.511719 3.882812 25.648438 3.882812 25.8125 L 3.882812 27.417969 C 3.882812 27.582031 3.976562 27.742188 4.113281 27.808594 C 4.113281 27.808594 5.492188 28.613281 5.492188 28.613281 C 5.628906 28.707031 5.8125 28.707031 5.953125 28.613281 L 7.332031 27.808594 C 7.46875 27.71875 7.558594 27.582031 7.558594 27.417969 L 7.558594 25.8125 C 7.558594 25.648438 7.46875 25.488281 7.332031 25.421875 L 6.183594 24.753906 L 6.183594 22.710938 L 16.289062 22.710938 L 16.289062 24.753906 L 15.140625 25.421875 C 15.003906 25.511719 14.910156 25.648438 14.910156 25.8125 L 14.910156 27.417969 C 14.910156 27.582031 15.003906 27.742188 15.140625 27.808594 L 16.519531 28.613281 C 16.65625 28.707031 16.84375 28.707031 16.980469 28.613281 L 18.359375 27.808594 C 18.496094 27.71875 18.589844 27.582031 18.589844 27.417969 L 18.589844 25.8125 C 18.589844 25.648438 18.496094 25.488281 18.359375 25.421875 L 17.210938 24.753906 L 17.210938 22.710938 L 27.320312 22.710938 L 27.320312 24.753906 L 26.167969 25.421875 C 26.03125 25.511719 25.941406 25.648438 25.941406 25.8125 L 25.941406 27.417969 C 25.941406 27.582031 26.03125 27.742188 26.167969 27.808594 L 27.546875 28.613281 C 27.6875 28.707031 27.871094 28.707031 28.007812 28.613281 L 29.386719 27.808594 C 29.523438 27.71875 29.617188 27.582031 29.617188 27.417969 L 29.617188 25.8125 C 29.617188 25.648438 29.523438 25.488281 29.386719 25.421875 Z M 29.386719 25.421875 " fill-opacity="1" fill-rule="nonzero"/></g><path fill="#ffffff" d="M 17.046875 15.910156 C 20.792969 15.910156 23.113281 15.011719 23.871094 13.933594 L 23.871094 11.429688 C 22.515625 12.441406 20.128906 13.015625 17.046875 13.015625 C 13.742188 13.015625 11.074219 12.371094 9.628906 11.3125 L 9.628906 13.839844 C 10.476562 14.921875 13.144531 15.910156 17.046875 15.910156 Z M 17.046875 15.910156 " fill-opacity="1" fill-rule="nonzero"/><g clip-path="url(#ea92549720)"><path fill="#ffffff" d="M 17.046875 12.09375 C 20.792969 12.09375 23.113281 11.199219 23.871094 10.121094 L 23.871094 7.316406 C 23.871094 5.753906 21.230469 4.789062 17.003906 4.789062 C 13.328125 4.789062 9.628906 5.570312 9.628906 7.316406 L 9.628906 10.027344 C 10.476562 11.128906 13.144531 12.09375 17.046875 12.09375 Z M 17.003906 5.707031 C 21.117188 5.707031 22.953125 6.648438 22.953125 7.316406 C 22.953125 7.984375 21.117188 8.925781 17.003906 8.925781 C 12.5 8.925781 10.546875 7.867188 10.546875 7.316406 C 10.546875 6.765625 12.5 5.707031 17.003906 5.707031 Z M 17.003906 5.707031 " fill-opacity="1" fill-rule="nonzero"/></g></svg>