<svg xmlns="http://www.w3.org/2000/svg" xmlns:xlink="http://www.w3.org/1999/xlink" width="45" zoomAndPan="magnify" viewBox="0 0 33.75 33.749998" height="45" preserveAspectRatio="xMidYMid meet" version="1.0"><defs><clipPath id="1b5f6e31e8"><path d="M 1.136719 5.453125 L 32.40625 5.453125 L 32.40625 27.785156 L 1.136719 27.785156 Z M 1.136719 5.453125 " clip-rule="nonzero"/></clipPath></defs><g clip-path="url(#1b5f6e31e8)"><path fill="#2f7cee" d="M 30.277344 5.464844 C 29.128906 5.464844 28.195312 6.402344 28.195312 7.546875 C 28.195312 8.125 28.4375 8.652344 28.816406 9.03125 L 21.96875 19.835938 C 21.746094 19.75 21.503906 19.707031 21.25 19.707031 C 20.484375 19.707031 19.8125 20.128906 19.453125 20.75 L 14.308594 19.097656 C 14.320312 19.035156 14.320312 18.972656 14.320312 18.898438 C 14.320312 17.75 13.382812 16.816406 12.238281 16.816406 C 11.089844 16.816406 10.152344 17.75 10.152344 18.898438 C 10.152344 19.222656 10.226562 19.527344 10.363281 19.800781 L 4.546875 24.347656 C 4.1875 24.042969 3.726562 23.863281 3.222656 23.863281 C 2.074219 23.863281 1.136719 24.800781 1.136719 25.945312 C 1.136719 27.09375 2.074219 28.027344 3.222656 28.027344 C 4.367188 28.027344 5.304688 27.09375 5.304688 25.945312 C 5.304688 25.621094 5.230469 25.316406 5.09375 25.042969 L 10.910156 20.496094 C 11.269531 20.800781 11.730469 20.980469 12.238281 20.980469 C 13.003906 20.980469 13.675781 20.558594 14.035156 19.9375 L 19.179688 21.589844 C 19.167969 21.652344 19.167969 21.71875 19.167969 21.789062 C 19.167969 22.9375 20.105469 23.875 21.25 23.875 C 22.398438 23.875 23.335938 22.9375 23.335938 21.789062 C 23.335938 21.210938 23.09375 20.6875 22.714844 20.308594 L 29.5625 9.503906 C 29.78125 9.589844 30.023438 9.628906 30.277344 9.628906 C 31.425781 9.628906 32.359375 8.695312 32.359375 7.546875 C 32.359375 6.390625 31.425781 5.464844 30.277344 5.464844 Z M 30.277344 5.464844 " fill-opacity="1" fill-rule="nonzero"/></g></svg>