<svg xmlns="http://www.w3.org/2000/svg" xmlns:xlink="http://www.w3.org/1999/xlink" width="45" zoomAndPan="magnify" viewBox="0 0 33.75 33.749998" height="45" preserveAspectRatio="xMidYMid meet" version="1.0"><defs><clipPath id="ef1f08dfcf"><path d="M 7 1.804688 L 21 1.804688 L 21 15 L 7 15 Z M 7 1.804688 " clip-rule="nonzero"/></clipPath><clipPath id="fc56882d1e"><path d="M 4.039062 15 L 25 15 L 25 28 L 4.039062 28 Z M 4.039062 15 " clip-rule="nonzero"/></clipPath><clipPath id="3f5a7f6b5e"><path d="M 19 21 L 29.351562 21 L 29.351562 31.585938 L 19 31.585938 Z M 19 21 " clip-rule="nonzero"/></clipPath></defs><g clip-path="url(#ef1f08dfcf)"><path fill="#ffffff" d="M 14.453125 1.808594 C 16.238281 1.808594 17.847656 2.542969 19.023438 3.699219 C 20.195312 4.871094 20.914062 6.480469 20.914062 8.265625 C 20.914062 10.050781 20.195312 11.679688 19.023438 12.835938 C 17.847656 14.007812 16.238281 14.726562 14.453125 14.726562 C 12.667969 14.726562 11.058594 14.007812 9.882812 12.835938 C 8.730469 11.679688 7.996094 10.050781 7.996094 8.265625 C 7.996094 6.480469 8.730469 4.871094 9.882812 3.699219 C 11.058594 2.542969 12.667969 1.808594 14.453125 1.808594 Z M 14.453125 1.808594 " fill-opacity="1" fill-rule="nonzero"/></g><g clip-path="url(#fc56882d1e)"><path fill="#ffffff" d="M 24.886719 20.941406 C 24.867188 20.398438 24.816406 19.871094 24.640625 19.292969 C 24.292969 18.175781 23.589844 17.210938 22.664062 16.527344 C 21.769531 15.863281 20.648438 15.480469 19.460938 15.480469 L 18.410156 15.480469 C 18.304688 15.480469 18.21875 15.511719 18.128906 15.582031 C 17.078125 16.476562 15.765625 16.929688 14.453125 16.929688 C 13.15625 16.929688 11.84375 16.492188 10.796875 15.601562 C 10.726562 15.53125 10.621094 15.480469 10.515625 15.480469 L 9.464844 15.480469 C 7.960938 15.480469 6.609375 16.089844 5.632812 17.070312 C 4.632812 18.050781 4.039062 19.417969 4.039062 20.90625 L 4.039062 26.683594 C 4.039062 26.890625 4.214844 27.085938 4.441406 27.085938 L 18.707031 27.085938 C 18.691406 26.960938 18.691406 26.839844 18.691406 26.714844 C 18.691406 25.175781 19.300781 23.707031 20.386719 22.621094 C 21.472656 21.535156 22.945312 20.921875 24.484375 20.921875 C 24.625 20.921875 24.746094 20.941406 24.886719 20.941406 Z M 14.453125 19.644531 C 14.769531 19.644531 15.011719 19.890625 15.011719 20.203125 C 15.011719 20.519531 14.769531 20.765625 14.453125 20.765625 C 14.15625 20.765625 13.894531 20.519531 13.894531 20.203125 C 13.894531 19.890625 14.15625 19.644531 14.453125 19.644531 Z M 14.453125 21.710938 C 14.769531 21.710938 15.011719 21.957031 15.011719 22.269531 C 15.011719 22.566406 14.769531 22.832031 14.453125 22.832031 C 14.15625 22.832031 13.894531 22.566406 13.894531 22.269531 C 13.894531 21.957031 14.15625 21.710938 14.453125 21.710938 Z M 14.453125 23.757812 C 14.769531 23.757812 15.011719 24.019531 15.011719 24.320312 C 15.011719 24.632812 14.769531 24.878906 14.453125 24.878906 C 14.15625 24.878906 13.894531 24.632812 13.894531 24.320312 C 13.894531 24.019531 14.15625 23.757812 14.453125 23.757812 Z M 14.453125 23.757812 " fill-opacity="1" fill-rule="nonzero"/></g><g clip-path="url(#3f5a7f6b5e)"><path fill="#ffffff" d="M 22.875 29.449219 Z M 22.503906 27.277344 L 21.316406 25.980469 C 21.15625 25.824219 21.175781 25.5625 21.332031 25.402344 C 21.402344 25.351562 21.472656 25.316406 21.558594 25.296875 L 23.257812 24.964844 L 24.132812 23.425781 L 24.117188 23.425781 C 24.238281 23.234375 24.484375 23.164062 24.675781 23.269531 C 24.765625 23.320312 24.816406 23.375 24.851562 23.460938 L 25.710938 24.964844 L 27.425781 25.316406 C 27.652344 25.351562 27.792969 25.578125 27.738281 25.789062 C 27.722656 25.875 27.6875 25.964844 27.617188 26.015625 L 26.460938 27.277344 L 26.65625 29.027344 C 26.6875 29.253906 26.515625 29.464844 26.304688 29.484375 C 26.21875 29.5 26.128906 29.484375 26.058594 29.449219 L 24.484375 28.730469 L 22.875 29.449219 C 22.664062 29.550781 22.4375 29.449219 22.332031 29.253906 C 22.296875 29.167969 22.296875 29.078125 22.3125 29.011719 Z M 29.457031 26.714844 C 29.457031 25.4375 28.964844 24.179688 28.003906 23.199219 C 27.023438 22.234375 25.746094 21.746094 24.484375 21.746094 C 23.207031 21.746094 21.929688 22.234375 20.964844 23.199219 C 19.984375 24.179688 19.511719 25.4375 19.511719 26.714844 C 19.511719 27.996094 19.984375 29.253906 20.964844 30.234375 C 21.929688 31.199219 23.207031 31.6875 24.484375 31.6875 C 25.746094 31.6875 27.023438 31.199219 28.003906 30.234375 C 28.964844 29.253906 29.457031 27.996094 29.457031 26.714844 Z M 29.457031 26.714844 " fill-opacity="1" fill-rule="evenodd"/></g><path fill="#ffffff" d="M 24.640625 27.90625 Z M 22.402344 25.964844 L 23.207031 26.839844 C 23.292969 26.925781 23.347656 27.050781 23.328125 27.1875 L 23.1875 28.414062 L 24.292969 27.90625 C 24.394531 27.855469 24.535156 27.855469 24.640625 27.90625 L 25.761719 28.414062 L 25.640625 27.207031 C 25.605469 27.101562 25.640625 26.960938 25.726562 26.875 L 26.566406 25.964844 L 25.394531 25.71875 C 25.273438 25.703125 25.148438 25.632812 25.078125 25.527344 L 24.484375 24.457031 L 23.886719 25.492188 C 23.835938 25.613281 23.730469 25.683594 23.609375 25.71875 Z M 22.402344 25.964844 " fill-opacity="1" fill-rule="evenodd"/></svg>