<svg xmlns="http://www.w3.org/2000/svg" xmlns:xlink="http://www.w3.org/1999/xlink" width="45" zoomAndPan="magnify" viewBox="0 0 33.75 33.749998" height="45" preserveAspectRatio="xMidYMid meet" version="1.0">
  <defs>
    <clipPath id="2c080e6ec5">
      <path d="M 15 2.792969 L 18 2.792969 L 18 6 L 15 6 Z M 15 2.792969 " clip-rule="nonzero"/>
    </clipPath>
  </defs>
  <g clip-path="url(#2c080e6ec5)">
    <path fill="#F4CC6F" d="M 17.878906 3.921875 C 17.878906 4.070312 17.851562 4.214844 17.792969 4.351562 C 17.738281 4.488281 17.65625 4.609375 17.550781 4.714844 C 17.445312 4.820312 17.324219 4.902344 17.183594 4.960938 C 17.046875 5.019531 16.902344 5.046875 16.753906 5.046875 C 16.605469 5.046875 16.460938 5.019531 16.324219 4.960938 C 16.183594 4.902344 16.0625 4.820312 15.957031 4.714844 C 15.851562 4.609375 15.769531 4.488281 15.714844 4.351562 C 15.65625 4.214844 15.628906 4.070312 15.628906 3.921875 C 15.628906 3.769531 15.65625 3.628906 15.714844 3.488281 C 15.769531 3.351562 15.851562 3.230469 15.957031 3.125 C 16.0625 3.019531 16.183594 2.9375 16.324219 2.878906 C 16.460938 2.824219 16.605469 2.792969 16.753906 2.792969 C 16.902344 2.792969 17.046875 2.824219 17.183594 2.878906 C 17.324219 2.9375 17.445312 3.019531 17.550781 3.125 C 17.65625 3.230469 17.738281 3.351562 17.792969 3.488281 C 17.851562 3.628906 17.878906 3.769531 17.878906 3.921875 Z M 17.878906 3.921875 " fill-opacity="1" fill-rule="nonzero"/>
  </g>
  <circle cx="16.875" cy="16.875" r="12" fill="none" stroke="#F4CC6F" stroke-width="2"/>
  <circle cx="10" cy="12" r="3" fill="#F4CC6F"/>
  <circle cx="24" cy="12" r="3" fill="#F4CC6F"/>
  <circle cx="16.875" cy="8" r="3" fill="#F4CC6F"/>
  <path d="M 8 20 Q 16.875 25 26 20" stroke="#F4CC6F" stroke-width="2" fill="none"/>
  <path d="M 12 24 Q 16.875 27 22 24" stroke="#F4CC6F" stroke-width="2" fill="none"/>
</svg>