<svg xmlns="http://www.w3.org/2000/svg" xmlns:xlink="http://www.w3.org/1999/xlink" width="45" zoomAndPan="magnify" viewBox="0 0 33.75 33.749998" height="45" preserveAspectRatio="xMidYMid meet" version="1.0"><defs><clipPath id="d387acca64"><path d="M 1 4 L 32.832031 4 L 32.832031 29.851562 L 1 29.851562 Z M 1 4 " clip-rule="nonzero"/></clipPath></defs><g clip-path="url(#d387acca64)"><path fill="#030429" d="M 15.523438 26.613281 C 15.621094 26.722656 15.699219 26.847656 15.753906 26.984375 C 15.808594 27.125 15.832031 27.269531 15.832031 27.417969 C 15.828125 27.566406 15.800781 27.707031 15.742188 27.84375 C 15.6875 27.984375 15.609375 28.105469 15.503906 28.210938 C 15.128906 28.628906 14.730469 29.023438 14.308594 29.394531 C 14.105469 29.539062 13.886719 29.652344 13.65625 29.738281 C 13.40625 29.757812 13.175781 29.710938 12.957031 29.589844 C 12.742188 29.472656 12.574219 29.304688 12.457031 29.082031 C 12.34375 28.890625 12.296875 28.683594 12.3125 28.460938 C 12.332031 28.238281 12.414062 28.039062 12.558594 27.871094 C 12.984375 27.375 13.445312 26.914062 13.9375 26.488281 C 14.050781 26.390625 14.179688 26.320312 14.320312 26.273438 C 14.460938 26.226562 14.609375 26.210938 14.757812 26.222656 C 14.90625 26.234375 15.046875 26.273438 15.179688 26.339844 C 15.3125 26.410156 15.425781 26.5 15.523438 26.613281 Z M 7.875 19.097656 C 7.773438 18.875 7.621094 18.699219 7.417969 18.566406 C 7.214844 18.433594 6.992188 18.363281 6.75 18.355469 C 6.496094 18.441406 6.257812 18.5625 6.035156 18.710938 C 5.59375 19.097656 5.175781 19.511719 4.785156 19.949219 C 4.679688 20.0625 4.601562 20.1875 4.542969 20.328125 C 4.488281 20.46875 4.464844 20.617188 4.46875 20.769531 C 4.472656 20.921875 4.507812 21.066406 4.570312 21.207031 C 4.632812 21.34375 4.722656 21.464844 4.832031 21.570312 C 4.9375 21.675781 5.058594 21.757812 5.195312 21.816406 C 5.332031 21.875 5.476562 21.90625 5.625 21.910156 C 5.773438 21.914062 5.917969 21.890625 6.058594 21.839844 C 6.195312 21.785156 6.320312 21.707031 6.429688 21.605469 C 6.875 21.203125 7.300781 20.78125 7.703125 20.335938 C 7.863281 20.167969 7.960938 19.972656 7.992188 19.742188 C 8.023438 19.515625 7.988281 19.300781 7.875 19.09375 Z M 10.230469 21.332031 C 10.117188 21.230469 9.992188 21.152344 9.847656 21.097656 C 9.707031 21.042969 9.5625 21.015625 9.410156 21.019531 C 9.257812 21.019531 9.109375 21.050781 8.96875 21.109375 C 8.828125 21.164062 8.703125 21.246094 8.59375 21.351562 C 8.179688 21.730469 7.789062 22.128906 7.414062 22.546875 C 7.277344 22.738281 7.171875 22.941406 7.089844 23.164062 C 7.0625 23.417969 7.109375 23.65625 7.230469 23.878906 C 7.351562 24.105469 7.527344 24.273438 7.757812 24.386719 C 7.964844 24.5 8.1875 24.542969 8.421875 24.511719 C 8.660156 24.480469 8.863281 24.386719 9.035156 24.222656 C 9.46875 23.828125 9.890625 23.417969 10.285156 22.984375 C 10.394531 22.871094 10.476562 22.746094 10.535156 22.597656 C 10.589844 22.453125 10.617188 22.300781 10.609375 22.148438 C 10.605469 21.992188 10.570312 21.839844 10.503906 21.699219 C 10.4375 21.558594 10.347656 21.4375 10.230469 21.332031 Z M 13.230469 24.964844 C 13.183594 24.324219 12.980469 23.9375 12.515625 23.726562 C 12.296875 23.621094 12.066406 23.589844 11.824219 23.632812 C 11.585938 23.675781 11.382812 23.785156 11.214844 23.960938 C 10.820312 24.324219 10.445312 24.707031 10.078125 25.09375 C 9.960938 25.203125 9.871094 25.328125 9.808594 25.472656 C 9.742188 25.621094 9.710938 25.773438 9.707031 25.929688 C 9.703125 26.089844 9.734375 26.242188 9.792969 26.390625 C 9.851562 26.535156 9.9375 26.667969 10.050781 26.777344 C 10.164062 26.890625 10.292969 26.976562 10.441406 27.035156 C 10.589844 27.09375 10.742188 27.125 10.902344 27.121094 C 11.058594 27.121094 11.210938 27.089844 11.359375 27.023438 C 11.503906 26.960938 11.632812 26.875 11.742188 26.757812 C 12.128906 26.410156 12.496094 26.039062 12.84375 25.648438 C 13 25.433594 13.128906 25.207031 13.230469 24.960938 Z M 30.859375 8.027344 C 30.625 7.6875 30.363281 7.371094 30.078125 7.074219 C 29.792969 6.765625 29.484375 6.484375 29.160156 6.222656 C 28.730469 5.894531 28.269531 5.617188 27.777344 5.394531 C 26.4375 4.769531 25.023438 4.433594 23.542969 4.390625 C 22.027344 4.425781 20.609375 4.808594 19.28125 5.535156 C 18.226562 6.160156 17.292969 6.929688 16.476562 7.84375 C 15.242188 9.085938 13.992188 10.308594 12.761719 11.550781 C 12.59375 11.707031 12.464844 11.894531 12.382812 12.105469 C 12.296875 12.320312 12.261719 12.542969 12.277344 12.769531 C 12.292969 13 12.355469 13.214844 12.46875 13.414062 C 12.578125 13.613281 12.730469 13.78125 12.917969 13.914062 C 13.214844 14.132812 13.542969 14.230469 13.914062 14.203125 C 14.28125 14.179688 14.59375 14.039062 14.859375 13.785156 C 15.433594 13.242188 18.339844 10.414062 19.171875 9.574219 C 23.550781 13.914062 26.757812 17.117188 27.527344 17.90625 C 28.066406 18.457031 28.558594 18.96875 28.558594 18.96875 C 28.90625 19.332031 29.257812 19.703125 29.625 20.085938 C 29.871094 19.773438 30.148438 19.460938 30.417969 19.132812 C 30.691406 18.804688 30.941406 18.464844 31.175781 18.109375 C 31.980469 16.828125 32.453125 15.429688 32.59375 13.921875 C 32.695312 12.265625 32.351562 10.703125 31.566406 9.238281 C 31.355469 8.820312 31.121094 8.414062 30.859375 8.027344 Z M 19.171875 11.433594 C 17.960938 12.613281 16.085938 14.453125 15.617188 14.863281 C 15.34375 15.089844 15.042969 15.257812 14.707031 15.371094 C 14.375 15.484375 14.03125 15.535156 13.675781 15.519531 C 13.324219 15.503906 12.984375 15.429688 12.660156 15.289062 C 12.335938 15.148438 12.046875 14.953125 11.796875 14.707031 C 11.542969 14.460938 11.34375 14.175781 11.199219 13.855469 C 11.050781 13.53125 10.96875 13.195312 10.949219 12.84375 C 10.929688 12.488281 10.976562 12.144531 11.085938 11.808594 C 11.195312 11.472656 11.363281 11.167969 11.589844 10.898438 C 11.957031 10.457031 12.375 10.0625 12.785156 9.65625 C 13.796875 8.636719 14.8125 7.625 15.855469 6.589844 C 15.285156 6.074219 14.660156 5.648438 13.976562 5.300781 C 13.292969 4.957031 12.574219 4.703125 11.824219 4.550781 C 11.074219 4.394531 10.320312 4.339844 9.554688 4.382812 C 8.789062 4.429688 8.046875 4.574219 7.320312 4.816406 C 3.675781 6.054688 1.5625 8.65625 1.132812 12.492188 C 0.984375 13.738281 1.109375 14.960938 1.503906 16.152344 C 1.902344 17.34375 2.535156 18.398438 3.402344 19.308594 C 3.992188 18.765625 4.535156 18.257812 5.089844 17.761719 C 5.234375 17.625 5.394531 17.507812 5.566406 17.410156 C 5.738281 17.308594 5.917969 17.230469 6.109375 17.175781 C 6.300781 17.121094 6.496094 17.089844 6.695312 17.082031 C 6.890625 17.070312 7.089844 17.085938 7.285156 17.125 C 7.480469 17.164062 7.667969 17.226562 7.847656 17.308594 C 8.027344 17.390625 8.195312 17.496094 8.351562 17.621094 C 8.503906 17.742188 8.644531 17.886719 8.765625 18.042969 C 8.886719 18.199219 8.988281 18.367188 9.070312 18.550781 C 9.207031 18.914062 9.3125 19.285156 9.390625 19.667969 C 10.960938 19.804688 11.816406 20.6875 11.957031 22.269531 C 13.570312 22.414062 14.4375 23.289062 14.570312 24.867188 C 14.613281 24.882812 14.660156 24.894531 14.707031 24.898438 C 14.898438 24.90625 15.089844 24.933594 15.273438 24.980469 C 15.460938 25.027344 15.636719 25.097656 15.808594 25.1875 C 15.980469 25.277344 16.136719 25.382812 16.28125 25.507812 C 16.425781 25.632812 16.558594 25.773438 16.671875 25.929688 C 16.785156 26.082031 16.878906 26.25 16.953125 26.425781 C 17.03125 26.601562 17.085938 26.785156 17.117188 26.972656 C 17.152344 27.164062 17.164062 27.355469 17.15625 27.546875 C 17.144531 27.738281 17.113281 27.925781 17.0625 28.109375 C 17.035156 28.226562 17.058594 28.328125 17.132812 28.421875 C 17.597656 28.898438 18.0625 29.378906 18.558594 29.820312 C 18.765625 29.984375 19.003906 30.066406 19.269531 30.0625 C 19.535156 30.0625 19.769531 29.976562 19.972656 29.808594 C 20.117188 29.699219 20.226562 29.5625 20.308594 29.402344 C 20.390625 29.242188 20.433594 29.070312 20.433594 28.890625 C 20.4375 28.710938 20.402344 28.539062 20.328125 28.375 C 20.25 28.214844 20.144531 28.074219 20.007812 27.960938 C 18.832031 26.785156 17.65625 25.617188 16.484375 24.445312 C 16.429688 24.390625 16.382812 24.335938 16.34375 24.273438 L 14.304688 22.234375 C 14.183594 22.109375 14.121094 21.957031 14.125 21.785156 C 14.125 21.609375 14.1875 21.460938 14.3125 21.335938 C 14.433594 21.210938 14.582031 21.148438 14.757812 21.148438 C 14.933594 21.148438 15.082031 21.207031 15.210938 21.328125 L 17.257812 23.378906 C 17.316406 23.417969 17.367188 23.460938 17.417969 23.507812 C 17.785156 23.855469 18.15625 24.207031 18.519531 24.5625 C 19.363281 25.398438 20.195312 26.246094 21.050781 27.074219 C 21.167969 27.191406 21.300781 27.285156 21.457031 27.347656 C 21.609375 27.40625 21.769531 27.4375 21.9375 27.429688 C 22.101562 27.421875 22.257812 27.382812 22.410156 27.3125 C 22.558594 27.238281 22.683594 27.136719 22.792969 27.011719 C 22.890625 26.890625 22.960938 26.757812 23.007812 26.609375 C 23.054688 26.460938 23.070312 26.308594 23.058594 26.152344 C 23.046875 26 23.007812 25.851562 22.9375 25.710938 C 22.867188 25.574219 22.773438 25.453125 22.660156 25.347656 C 21.464844 24.144531 20.253906 22.949219 19.054688 21.75 C 18.480469 21.175781 17.898438 20.609375 17.34375 20.023438 C 17.207031 19.902344 17.140625 19.75 17.140625 19.570312 C 17.136719 19.386719 17.203125 19.234375 17.335938 19.109375 C 17.460938 18.984375 17.613281 18.917969 17.792969 18.914062 C 17.972656 18.914062 18.128906 18.972656 18.257812 19.09375 C 18.339844 19.164062 18.414062 19.234375 18.484375 19.308594 C 20.1875 21.003906 21.886719 22.707031 23.601562 24.390625 C 23.789062 24.574219 24.007812 24.703125 24.261719 24.777344 C 24.511719 24.839844 24.753906 24.820312 24.992188 24.71875 C 25.230469 24.613281 25.410156 24.449219 25.535156 24.222656 C 25.664062 23.992188 25.710938 23.746094 25.675781 23.484375 C 25.640625 23.222656 25.527344 23 25.339844 22.8125 C 24.035156 21.496094 22.71875 20.1875 21.40625 18.878906 C 20.9375 18.410156 20.457031 17.945312 19.992188 17.464844 C 19.851562 17.34375 19.773438 17.1875 19.761719 17 C 19.75 16.816406 19.808594 16.652344 19.933594 16.511719 C 20.070312 16.375 20.238281 16.308594 20.429688 16.3125 C 20.625 16.3125 20.789062 16.382812 20.921875 16.523438 C 20.980469 16.574219 21.03125 16.632812 21.089844 16.6875 C 22.78125 18.375 24.472656 20.0625 26.167969 21.75 C 26.335938 21.941406 26.542969 22.074219 26.785156 22.144531 C 27.03125 22.21875 27.273438 22.214844 27.519531 22.144531 L 27.550781 22.132812 C 27.648438 22.09375 27.738281 22.042969 27.820312 21.980469 C 27.902344 21.917969 27.976562 21.847656 28.039062 21.765625 C 28.105469 21.6875 28.15625 21.597656 28.199219 21.503906 C 28.238281 21.410156 28.265625 21.308594 28.28125 21.207031 C 28.300781 21.105469 28.300781 21.003906 28.289062 20.902344 C 28.28125 20.796875 28.253906 20.699219 28.21875 20.601562 C 28.183594 20.503906 28.132812 20.414062 28.074219 20.332031 C 28.011719 20.246094 27.941406 20.171875 27.863281 20.105469 C 25.945312 18.1875 21.621094 13.871094 19.171875 11.433594 Z M 19.171875 11.433594 " fill-opacity="1" fill-rule="nonzero"/></g></svg>