<svg xmlns="http://www.w3.org/2000/svg" xmlns:xlink="http://www.w3.org/1999/xlink" width="45" zoomAndPan="magnify" viewBox="0 0 33.75 33.749998" height="45" preserveAspectRatio="xMidYMid meet" version="1.0"><defs><clipPath id="0700efc6dc"><path d="M 8 9 L 26 9 L 26 30.359375 L 8 30.359375 Z M 8 9 " clip-rule="nonzero"/></clipPath><clipPath id="963d887390"><path d="M 16 2.8125 L 18 2.8125 L 18 7 L 16 7 Z M 16 2.8125 " clip-rule="nonzero"/></clipPath><clipPath id="f3b7eba215"><path d="M 28 17 L 31.742188 17 L 31.742188 19 L 28 19 Z M 28 17 " clip-rule="nonzero"/></clipPath><clipPath id="77df4b6e70"><path d="M 1.964844 17 L 6 17 L 6 19 L 1.964844 19 Z M 1.964844 17 " clip-rule="nonzero"/></clipPath></defs><path fill="#2f7cee" d="M 22.675781 15.140625 C 22.828125 14.796875 22.828125 14.457031 22.675781 14.113281 C 22.554688 13.867188 22.375 13.6875 22.128906 13.566406 C 21.929688 13.554688 21.738281 13.597656 21.5625 13.691406 C 21.320312 13.820312 21.140625 14.007812 21.03125 14.261719 C 21 14.335938 20.949219 14.386719 20.875 14.417969 C 20.800781 14.449219 20.726562 14.449219 20.65625 14.414062 C 20.582031 14.382812 20.53125 14.332031 20.503906 14.253906 C 20.476562 14.179688 20.476562 14.105469 20.511719 14.035156 C 20.675781 13.660156 20.941406 13.378906 21.300781 13.1875 C 21.457031 13.109375 21.617188 13.054688 21.789062 13.027344 C 21.5625 12.5625 21.214844 12.21875 20.75 11.996094 C 20.1875 11.742188 19.613281 11.722656 19.035156 11.9375 C 18.902344 11.988281 18.792969 11.957031 18.707031 11.84375 C 18.613281 11.714844 18.496094 11.613281 18.351562 11.539062 C 18.210938 11.464844 18.058594 11.421875 17.902344 11.417969 C 17.742188 11.414062 17.585938 11.445312 17.441406 11.507812 C 17.296875 11.574219 17.171875 11.667969 17.066406 11.792969 C 16.96875 11.910156 16.851562 11.933594 16.714844 11.855469 C 16.582031 11.789062 16.445312 11.785156 16.304688 11.851562 C 16.183594 11.917969 16.109375 12.023438 16.078125 12.160156 C 16.058594 12.253906 16.007812 12.324219 15.917969 12.363281 C 15.828125 12.402344 15.742188 12.398438 15.65625 12.347656 C 15.386719 12.179688 15.09375 12.097656 14.777344 12.097656 C 14.460938 12.101562 14.167969 12.1875 13.902344 12.359375 C 13.480469 12.660156 13.25 13.070312 13.207031 13.585938 C 13.199219 13.695312 13.144531 13.773438 13.042969 13.820312 C 12.640625 14 12.417969 14.308594 12.371094 14.746094 C 12.351562 15.078125 12.457031 15.363281 12.679688 15.601562 C 12.765625 15.691406 12.785156 15.796875 12.734375 15.910156 C 12.683594 16.023438 12.648438 16.136719 12.628906 16.257812 C 12.605469 16.378906 12.597656 16.503906 12.605469 16.625 C 12.613281 16.75 12.636719 16.867188 12.675781 16.984375 C 12.710938 17.101562 12.761719 17.214844 12.824219 17.320312 C 12.890625 17.425781 12.964844 17.519531 13.054688 17.605469 C 13.140625 17.691406 13.238281 17.769531 13.34375 17.832031 C 13.449219 17.894531 13.558594 17.945312 13.675781 17.980469 C 13.796875 18.015625 13.914062 18.039062 14.039062 18.042969 C 14.222656 18 14.375 17.902344 14.488281 17.75 C 14.605469 17.597656 14.65625 17.425781 14.648438 17.234375 C 14.644531 17.15625 14.667969 17.089844 14.722656 17.03125 C 14.773438 16.972656 14.839844 16.945312 14.917969 16.941406 L 14.929688 16.941406 C 15.007812 16.941406 15.070312 16.96875 15.125 17.019531 C 15.179688 17.074219 15.210938 17.136719 15.214844 17.214844 C 15.226562 17.507812 15.148438 17.777344 14.988281 18.023438 C 14.832031 18.253906 14.628906 18.417969 14.375 18.523438 C 14.445312 18.890625 14.65625 19.136719 15.011719 19.257812 C 15.367188 19.382812 15.683594 19.320312 15.964844 19.070312 C 16.054688 18.996094 16.152344 18.980469 16.257812 19.023438 C 16.664062 19.191406 17.085938 19.265625 17.523438 19.242188 C 18.117188 19.21875 18.65625 19.035156 19.140625 18.699219 C 19.222656 18.640625 19.308594 18.632812 19.402344 18.664062 C 20.15625 18.941406 20.71875 19.441406 21.082031 20.160156 C 21.257812 20.523438 21.355469 20.90625 21.371094 21.3125 L 22.335938 21.3125 C 22.21875 20.492188 21.894531 19.769531 21.363281 19.136719 C 21.308594 19.070312 21.285156 18.996094 21.300781 18.910156 C 21.3125 18.828125 21.355469 18.761719 21.425781 18.714844 C 21.828125 18.453125 22.027344 18.082031 22.027344 17.601562 C 22.023438 17.503906 22.0625 17.425781 22.144531 17.371094 C 22.460938 17.144531 22.667969 16.84375 22.765625 16.46875 C 22.867188 16.09375 22.835938 15.730469 22.675781 15.378906 C 22.636719 15.296875 22.640625 15.21875 22.675781 15.140625 Z M 16.054688 14.582031 C 16.03125 14.65625 15.988281 14.714844 15.917969 14.75 C 15.851562 14.789062 15.777344 14.796875 15.703125 14.773438 C 15.574219 14.734375 15.445312 14.738281 15.320312 14.78125 C 15.117188 14.875 14.988281 15.03125 14.929688 15.246094 C 14.894531 15.390625 14.804688 15.460938 14.65625 15.460938 C 14.632812 15.460938 14.609375 15.457031 14.585938 15.453125 C 14.511719 15.433594 14.453125 15.390625 14.414062 15.324219 C 14.371094 15.257812 14.363281 15.183594 14.382812 15.109375 C 14.484375 14.703125 14.730469 14.414062 15.117188 14.253906 C 15.363281 14.164062 15.609375 14.15625 15.859375 14.230469 C 15.9375 14.253906 15.992188 14.296875 16.03125 14.367188 C 16.070312 14.433594 16.078125 14.507812 16.054688 14.582031 Z M 17.910156 17.136719 C 17.832031 17.136719 17.765625 17.109375 17.707031 17.054688 C 17.652344 17 17.625 16.933594 17.625 16.855469 C 17.625 16.570312 17.53125 16.324219 17.335938 16.117188 C 17.1875 15.964844 17.011719 15.871094 16.804688 15.824219 C 16.726562 15.8125 16.664062 15.769531 16.621094 15.703125 C 16.574219 15.640625 16.5625 15.566406 16.578125 15.488281 C 16.59375 15.410156 16.636719 15.351562 16.703125 15.308594 C 16.769531 15.265625 16.84375 15.253906 16.921875 15.273438 C 17.242188 15.339844 17.515625 15.488281 17.742188 15.726562 C 18.042969 16.042969 18.195312 16.421875 18.191406 16.859375 C 18.191406 16.933594 18.164062 17 18.109375 17.054688 C 18.050781 17.109375 17.988281 17.136719 17.910156 17.136719 Z M 18.539062 14.199219 C 18.613281 14.179688 18.6875 14.1875 18.753906 14.222656 C 18.824219 14.261719 18.867188 14.320312 18.890625 14.394531 C 18.957031 14.640625 19.089844 14.84375 19.289062 15.003906 C 19.488281 15.164062 19.714844 15.253906 19.972656 15.269531 C 20.050781 15.269531 20.117188 15.300781 20.167969 15.359375 C 20.222656 15.414062 20.25 15.484375 20.246094 15.5625 C 20.242188 15.640625 20.214844 15.703125 20.15625 15.757812 C 20.101562 15.8125 20.03125 15.835938 19.953125 15.835938 L 19.9375 15.835938 C 19.5625 15.8125 19.226562 15.683594 18.9375 15.449219 C 18.644531 15.210938 18.445312 14.914062 18.34375 14.550781 C 18.324219 14.476562 18.332031 14.40625 18.367188 14.335938 C 18.40625 14.265625 18.464844 14.222656 18.539062 14.199219 Z M 20.628906 17.144531 C 20.519531 17.503906 20.308594 17.789062 19.996094 17.996094 C 19.746094 18.15625 19.472656 18.234375 19.179688 18.230469 C 18.984375 18.230469 18.796875 18.199219 18.617188 18.136719 C 18.539062 18.109375 18.484375 18.0625 18.449219 17.988281 C 18.417969 17.917969 18.414062 17.84375 18.441406 17.769531 C 18.46875 17.695312 18.519531 17.640625 18.59375 17.609375 C 18.664062 17.574219 18.738281 17.574219 18.8125 17.605469 C 19.117188 17.710938 19.410156 17.683594 19.6875 17.519531 C 19.886719 17.386719 20.015625 17.210938 20.085938 16.984375 C 20.105469 16.910156 20.152344 16.851562 20.222656 16.816406 C 20.289062 16.777344 20.363281 16.769531 20.4375 16.792969 C 20.511719 16.816406 20.570312 16.859375 20.605469 16.929688 C 20.644531 17 20.652344 17.070312 20.628906 17.144531 Z M 20.628906 17.144531 " fill-opacity="1" fill-rule="nonzero"/><g clip-path="url(#0700efc6dc)"><path fill="#2f7cee" d="M 17.695312 9.25 C 17.1875 9.246094 16.6875 9.292969 16.1875 9.390625 C 15.691406 9.484375 15.207031 9.625 14.738281 9.816406 C 14.265625 10.007812 13.820312 10.242188 13.398438 10.519531 C 12.972656 10.796875 12.582031 11.113281 12.21875 11.46875 C 11.859375 11.824219 11.535156 12.210938 11.25 12.632812 C 10.964844 13.050781 10.722656 13.492188 10.523438 13.960938 C 10.324219 14.425781 10.175781 14.90625 10.070312 15.402344 C 9.96875 15.898438 9.914062 16.402344 9.910156 16.90625 C 9.910156 17.121094 9.917969 17.332031 9.9375 17.539062 C 9.988281 18.179688 9.835938 18.773438 9.492188 19.3125 L 8.050781 21.574219 C 8.015625 21.632812 8.007812 21.691406 8.027344 21.757812 C 8.046875 21.824219 8.089844 21.867188 8.152344 21.894531 L 9.277344 22.347656 C 9.394531 22.394531 9.457031 22.480469 9.457031 22.609375 L 9.457031 23.722656 C 9.457031 23.757812 9.46875 23.785156 9.496094 23.808594 L 9.84375 24.101562 C 9.921875 24.171875 9.984375 24.253906 10.027344 24.351562 C 10.066406 24.449219 10.085938 24.546875 10.082031 24.652344 C 10.078125 24.757812 10.046875 24.859375 9.996094 24.949219 C 9.945312 25.042969 9.878906 25.121094 9.792969 25.179688 C 9.714844 25.238281 9.707031 25.273438 9.707031 25.292969 C 9.703125 25.328125 9.71875 25.359375 9.746094 25.382812 L 10.089844 25.679688 C 10.25 25.816406 10.332031 25.988281 10.332031 26.195312 L 10.332031 27.59375 C 10.328125 27.839844 10.414062 28.050781 10.582031 28.226562 C 10.75 28.402344 10.957031 28.492188 11.203125 28.496094 C 11.871094 28.515625 12.539062 28.484375 13.207031 28.40625 C 13.652344 28.351562 14.105469 28.277344 14.546875 28.179688 C 14.878906 28.070312 15.207031 27.949219 15.523438 27.816406 C 15.992188 27.621094 16.453125 27.394531 16.894531 27.140625 C 16.964844 27.105469 17.035156 27.097656 17.109375 27.121094 C 17.183594 27.140625 17.238281 27.183594 17.273438 27.253906 C 17.3125 27.320312 17.324219 27.390625 17.304688 27.464844 C 17.285156 27.539062 17.242188 27.59375 17.175781 27.632812 C 16.710938 27.898438 16.234375 28.132812 15.742188 28.339844 C 15.472656 28.453125 15.1875 28.554688 14.902344 28.652344 L 14.871094 30.5625 L 23.882812 30.5625 C 23.609375 30.148438 23.390625 29.710938 23.226562 29.246094 C 22.828125 28.144531 22.808594 27.027344 23.132812 25.121094 C 23.246094 24.464844 23.382812 23.796875 23.550781 23.132812 C 23.78125 22.207031 24.125 21.328125 24.578125 20.488281 C 25.179688 19.371094 25.480469 18.179688 25.480469 16.910156 C 25.476562 16.402344 25.421875 15.902344 25.316406 15.40625 C 25.214844 14.910156 25.0625 14.425781 24.867188 13.960938 C 24.667969 13.492188 24.425781 13.050781 24.140625 12.632812 C 23.855469 12.214844 23.53125 11.824219 23.171875 11.46875 C 22.808594 11.113281 22.417969 10.796875 21.992188 10.519531 C 21.570312 10.242188 21.125 10.007812 20.652344 9.816406 C 20.183594 9.625 19.699219 9.484375 19.203125 9.390625 C 18.703125 9.292969 18.203125 9.246094 17.695312 9.25 Z M 22.179688 27.804688 C 22.195312 27.882812 22.179688 27.953125 22.136719 28.019531 C 22.09375 28.082031 22.03125 28.121094 21.957031 28.136719 C 21.9375 28.140625 21.917969 28.144531 21.898438 28.144531 C 21.746094 28.144531 21.652344 28.066406 21.621094 27.917969 C 21.375 26.671875 21.375 25.429688 21.621094 24.1875 C 21.636719 24.113281 21.679688 24.054688 21.742188 24.011719 C 21.808594 23.96875 21.878906 23.957031 21.953125 23.96875 C 22.027344 23.984375 22.089844 24.023438 22.132812 24.089844 C 22.175781 24.152344 22.191406 24.222656 22.175781 24.296875 C 21.945312 25.46875 21.945312 26.640625 22.175781 27.808594 Z M 23.3125 16.621094 C 23.191406 17.070312 22.949219 17.445312 22.585938 17.742188 C 22.550781 18.242188 22.347656 18.664062 21.976562 19 C 22.183594 19.277344 22.359375 19.574219 22.5 19.886719 C 22.746094 20.421875 22.890625 20.984375 22.933594 21.570312 C 22.941406 21.652344 22.917969 21.726562 22.859375 21.785156 C 22.804688 21.847656 22.734375 21.875 22.652344 21.875 L 21.085938 21.875 C 21.003906 21.875 20.9375 21.847656 20.878906 21.789062 C 20.824219 21.730469 20.800781 21.660156 20.804688 21.578125 C 20.828125 21.167969 20.753906 20.777344 20.578125 20.40625 C 20.304688 19.871094 19.890625 19.484375 19.339844 19.25 C 18.792969 19.59375 18.199219 19.78125 17.550781 19.808594 C 17.089844 19.824219 16.640625 19.757812 16.203125 19.605469 C 16.097656 19.679688 15.980469 19.738281 15.859375 19.785156 C 15.738281 19.828125 15.609375 19.855469 15.480469 19.871094 C 15.351562 19.882812 15.222656 19.878906 15.09375 19.859375 C 14.964844 19.839844 14.839844 19.804688 14.722656 19.753906 C 14.601562 19.703125 14.488281 19.636719 14.386719 19.558594 C 14.285156 19.480469 14.191406 19.386719 14.113281 19.285156 C 14.03125 19.183594 13.964844 19.070312 13.914062 18.953125 C 13.859375 18.832031 13.824219 18.710938 13.800781 18.582031 C 13.496094 18.535156 13.21875 18.425781 12.960938 18.253906 C 12.703125 18.085938 12.496094 17.867188 12.335938 17.601562 C 12.179688 17.339844 12.082031 17.054688 12.050781 16.746094 C 12.019531 16.441406 12.054688 16.140625 12.15625 15.851562 C 12.003906 15.660156 11.902344 15.445312 11.847656 15.210938 C 11.789062 14.972656 11.785156 14.734375 11.835938 14.496094 C 11.886719 14.257812 11.980469 14.042969 12.125 13.847656 C 12.273438 13.652344 12.449219 13.496094 12.664062 13.378906 C 12.757812 12.75 13.066406 12.253906 13.585938 11.890625 C 13.894531 11.6875 14.230469 11.570312 14.597656 11.539062 C 14.96875 11.507812 15.320312 11.566406 15.660156 11.710938 C 15.753906 11.554688 15.886719 11.429688 16.050781 11.347656 C 16.285156 11.226562 16.53125 11.203125 16.785156 11.28125 C 16.941406 11.136719 17.117188 11.027344 17.3125 10.953125 C 17.507812 10.878906 17.710938 10.847656 17.921875 10.851562 C 18.132812 10.859375 18.332031 10.902344 18.523438 10.988281 C 18.71875 11.074219 18.886719 11.195312 19.03125 11.34375 C 19.371094 11.242188 19.71875 11.203125 20.074219 11.234375 C 20.429688 11.265625 20.765625 11.363281 21.085938 11.523438 C 21.402344 11.6875 21.679688 11.902344 21.914062 12.171875 C 22.144531 12.441406 22.320312 12.746094 22.4375 13.082031 C 22.773438 13.265625 23.023438 13.527344 23.191406 13.871094 C 23.402344 14.324219 23.417969 14.789062 23.242188 15.257812 C 23.414062 15.703125 23.4375 16.160156 23.3125 16.621094 Z M 23.3125 16.621094 " fill-opacity="1" fill-rule="nonzero"/></g><g clip-path="url(#963d887390)"><path fill="#2f7cee" d="M 16.148438 3.539062 L 16.148438 5.730469 C 16.148438 5.898438 16.207031 6.039062 16.324219 6.15625 C 16.441406 6.273438 16.582031 6.332031 16.75 6.332031 C 16.914062 6.332031 17.054688 6.273438 17.171875 6.15625 C 17.289062 6.039062 17.347656 5.898438 17.347656 5.730469 L 17.347656 3.539062 C 17.347656 3.375 17.289062 3.230469 17.171875 3.113281 C 17.054688 3 16.914062 2.941406 16.75 2.941406 C 16.582031 2.941406 16.441406 3 16.324219 3.113281 C 16.207031 3.230469 16.148438 3.375 16.148438 3.539062 Z M 16.148438 3.539062 " fill-opacity="1" fill-rule="nonzero"/></g><path fill="#2f7cee" d="M 26.773438 7.09375 C 26.609375 7.09375 26.46875 7.152344 26.351562 7.269531 L 24.800781 8.820312 C 24.683594 8.9375 24.625 9.078125 24.625 9.242188 C 24.625 9.410156 24.683594 9.550781 24.800781 9.667969 C 24.917969 9.78125 25.0625 9.839844 25.226562 9.839844 C 25.390625 9.839844 25.53125 9.78125 25.648438 9.664062 L 27.199219 8.113281 C 27.386719 7.925781 27.429688 7.710938 27.328125 7.464844 C 27.226562 7.21875 27.042969 7.097656 26.777344 7.09375 Z M 26.773438 7.09375 " fill-opacity="1" fill-rule="nonzero"/><g clip-path="url(#f3b7eba215)"><path fill="#2f7cee" d="M 30.929688 17.121094 L 28.734375 17.121094 C 28.570312 17.121094 28.429688 17.179688 28.3125 17.292969 C 28.195312 17.410156 28.136719 17.550781 28.136719 17.71875 C 28.136719 17.882812 28.195312 18.023438 28.3125 18.140625 C 28.429688 18.257812 28.570312 18.316406 28.734375 18.316406 L 30.929688 18.316406 C 31.09375 18.316406 31.234375 18.257812 31.351562 18.140625 C 31.46875 18.023438 31.527344 17.882812 31.527344 17.71875 C 31.527344 17.550781 31.46875 17.410156 31.351562 17.292969 C 31.234375 17.179688 31.09375 17.121094 30.929688 17.121094 Z M 30.929688 17.121094 " fill-opacity="1" fill-rule="nonzero"/></g><path fill="#2f7cee" d="M 8.695312 9.667969 C 8.8125 9.550781 8.871094 9.410156 8.871094 9.246094 C 8.871094 9.078125 8.8125 8.9375 8.695312 8.820312 L 7.144531 7.269531 C 7.027344 7.152344 6.886719 7.09375 6.722656 7.09375 C 6.554688 7.09375 6.414062 7.152344 6.296875 7.269531 C 6.179688 7.386719 6.125 7.527344 6.125 7.695312 C 6.125 7.859375 6.179688 8 6.296875 8.117188 L 7.847656 9.667969 C 7.964844 9.785156 8.109375 9.84375 8.273438 9.84375 C 8.4375 9.84375 8.578125 9.785156 8.695312 9.667969 Z M 8.695312 9.667969 " fill-opacity="1" fill-rule="nonzero"/><g clip-path="url(#77df4b6e70)"><path fill="#2f7cee" d="M 4.761719 17.121094 L 2.570312 17.121094 C 2.402344 17.121094 2.261719 17.179688 2.144531 17.292969 C 2.027344 17.410156 1.96875 17.550781 1.96875 17.71875 C 1.96875 17.882812 2.027344 18.023438 2.144531 18.140625 C 2.261719 18.257812 2.402344 18.316406 2.570312 18.316406 L 4.761719 18.316406 C 4.925781 18.316406 5.070312 18.257812 5.1875 18.140625 C 5.300781 18.023438 5.359375 17.882812 5.359375 17.71875 C 5.359375 17.550781 5.300781 17.410156 5.1875 17.292969 C 5.070312 17.179688 4.925781 17.121094 4.761719 17.121094 Z M 4.761719 17.121094 " fill-opacity="1" fill-rule="nonzero"/></g></svg>