<svg xmlns="http://www.w3.org/2000/svg" xmlns:xlink="http://www.w3.org/1999/xlink" width="45" zoomAndPan="magnify" viewBox="0 0 33.75 33.749998" height="45" preserveAspectRatio="xMidYMid meet" version="1.0"><defs><clipPath id="abccf9787b"><path d="M 1.933594 3.351562 L 30 3.351562 L 30 30.152344 L 1.933594 30.152344 Z M 1.933594 3.351562 " clip-rule="nonzero"/></clipPath><clipPath id="ad4658e8a9"><path d="M 17 16 L 31.714844 16 L 31.714844 30.152344 L 17 30.152344 Z M 17 16 " clip-rule="nonzero"/></clipPath></defs><g clip-path="url(#abccf9787b)"><path fill="#ffffff" d="M 21.160156 24.511719 C 20.589844 24.511719 20.03125 24.402344 19.503906 24.1875 C 19.191406 24.0625 18.894531 23.902344 18.625 23.707031 C 17.667969 24.148438 16.609375 24.394531 15.488281 24.394531 C 11.351562 24.394531 7.996094 21.039062 7.996094 16.902344 C 7.996094 12.765625 11.351562 9.410156 15.488281 9.410156 C 19.34375 9.410156 22.519531 12.320312 22.933594 16.066406 C 23.433594 16.285156 23.886719 16.59375 24.277344 16.984375 C 24.875 17.585938 25.289062 18.335938 25.46875 19.160156 C 25.609375 19.8125 25.601562 20.488281 25.449219 21.136719 L 25.816406 21.503906 L 28.453125 21.550781 C 28.769531 20.375 28.726562 20.535156 29.039062 19.359375 L 26.457031 17.921875 C 26.457031 17.007812 26.457031 16.796875 26.457031 15.878906 L 29.039062 14.445312 C 28.726562 13.269531 28.769531 13.429688 28.453125 12.253906 L 25.5 12.300781 C 25.039062 11.507812 24.9375 11.324219 24.476562 10.53125 L 25.996094 8 C 25.136719 7.136719 25.253906 7.253906 24.390625 6.394531 L 21.859375 7.914062 C 21.066406 7.453125 20.882812 7.351562 20.089844 6.890625 L 20.136719 3.9375 C 18.960938 3.621094 19.121094 3.664062 17.945312 3.351562 L 16.511719 5.933594 C 15.59375 5.933594 15.382812 5.933594 14.464844 5.933594 L 13.03125 3.351562 C 11.855469 3.664062 12.015625 3.621094 10.839844 3.9375 L 10.890625 6.890625 C 10.09375 7.351562 9.914062 7.453125 9.117188 7.914062 L 6.585938 6.394531 C 5.722656 7.253906 5.839844 7.136719 4.980469 8 L 6.5 10.53125 C 6.042969 11.324219 5.9375 11.507812 5.476562 12.304688 L 2.523438 12.253906 C 2.207031 13.429688 2.25 13.269531 1.9375 14.445312 L 4.519531 15.878906 C 4.519531 16.796875 4.519531 17.007812 4.519531 17.925781 L 1.9375 19.359375 C 2.25 20.535156 2.207031 20.375 2.523438 21.550781 L 5.476562 21.5 C 5.9375 22.296875 6.042969 22.476562 6.5 23.273438 L 4.980469 25.804688 C 5.839844 26.667969 5.722656 26.550781 6.585938 27.410156 L 9.117188 25.890625 C 9.914062 26.347656 10.09375 26.453125 10.890625 26.914062 L 10.839844 29.867188 C 12.015625 30.183594 11.855469 30.140625 13.03125 30.453125 L 14.464844 27.871094 C 15.382812 27.871094 15.59375 27.871094 16.511719 27.871094 L 17.945312 30.453125 C 19.121094 30.140625 18.960938 30.183594 20.136719 29.867188 L 20.089844 26.914062 C 20.882812 26.453125 21.0625 26.347656 21.859375 25.890625 L 24.390625 27.410156 C 24.5625 27.238281 24.695312 27.105469 24.804688 26.996094 L 22.195312 24.390625 C 21.859375 24.472656 21.511719 24.511719 21.160156 24.511719 Z M 21.160156 24.511719 " fill-opacity="1" fill-rule="nonzero"/></g><g clip-path="url(#ad4658e8a9)"><path fill="#ffffff" d="M 30.929688 27.59375 L 24.671875 21.335938 C 25.128906 20.03125 24.835938 18.519531 23.792969 17.472656 C 22.683594 16.363281 21.046875 16.101562 19.691406 16.6875 L 22.070312 19.066406 L 20.125 21.011719 L 17.746094 18.632812 C 17.160156 19.988281 17.421875 21.625 18.53125 22.734375 C 19.578125 23.777344 21.085938 24.070312 22.394531 23.613281 L 28.652344 29.871094 C 29.28125 30.5 30.300781 30.5 30.929688 29.871094 C 31.558594 29.242188 31.558594 28.222656 30.929688 27.59375 Z M 30.929688 27.59375 " fill-opacity="1" fill-rule="nonzero"/></g><path fill="#ffffff" d="M 10.824219 19.921875 L 10.824219 15.402344 L 11.851562 15.402344 L 11.851562 14.101562 L 10.824219 14.101562 L 10.824219 12.847656 L 10.066406 12.847656 L 10.066406 14.101562 L 9.039062 14.101562 L 9.039062 15.402344 L 10.066406 15.402344 L 10.066406 19.921875 Z M 10.824219 19.921875 " fill-opacity="1" fill-rule="nonzero"/><path fill="#ffffff" d="M 13.40625 19.921875 L 13.40625 18.855469 L 14.433594 18.855469 L 14.433594 17.554688 L 13.40625 17.554688 L 13.40625 12.847656 L 12.648438 12.847656 L 12.648438 17.554688 L 11.621094 17.554688 L 11.621094 18.855469 L 12.648438 18.855469 L 12.648438 19.921875 Z M 13.40625 19.921875 " fill-opacity="1" fill-rule="nonzero"/><path fill="#ffffff" d="M 16 19.921875 L 16 16.269531 L 17.027344 16.269531 L 17.027344 14.96875 L 16 14.96875 L 16 12.847656 L 15.242188 12.847656 L 15.242188 14.96875 L 14.214844 14.96875 L 14.214844 16.269531 L 15.242188 16.269531 L 15.242188 19.921875 Z M 16 19.921875 " fill-opacity="1" fill-rule="nonzero"/></svg>