<svg xmlns="http://www.w3.org/2000/svg" xmlns:xlink="http://www.w3.org/1999/xlink" width="45" zoomAndPan="magnify" viewBox="0 0 33.75 33.749998" height="45" preserveAspectRatio="xMidYMid meet" version="1.0"><defs><clipPath id="83740ddda9"><path d="M 1.675781 2.371094 L 32 2.371094 L 32 31.40625 L 1.675781 31.40625 Z M 1.675781 2.371094 " clip-rule="nonzero"/></clipPath></defs><g clip-path="url(#83740ddda9)"><path fill="#ecc366" d="M 27.148438 6.203125 C 27.859375 6.203125 28.445312 5.621094 28.445312 4.90625 C 28.445312 4.191406 27.859375 3.609375 27.148438 3.609375 C 26.433594 3.609375 25.851562 4.191406 25.851562 4.90625 C 25.851562 5.621094 26.433594 6.203125 27.148438 6.203125 Z M 6.304688 25.367188 C 7.015625 25.367188 7.601562 24.785156 7.601562 24.070312 C 7.601562 23.355469 7.015625 22.773438 6.304688 22.773438 C 5.585938 22.773438 5.007812 23.355469 5.007812 24.070312 C 5.007812 24.785156 5.585938 25.367188 6.304688 25.367188 Z M 28.082031 6.648438 L 26.21875 6.648438 C 25.167969 6.648438 24.3125 7.59375 24.3125 8.757812 L 24.3125 9.726562 C 23.648438 9.023438 23.234375 8.078125 23.234375 7.035156 C 23.234375 4.878906 24.992188 3.125 27.148438 3.125 C 29.304688 3.125 31.058594 4.878906 31.058594 7.035156 C 31.058594 8.078125 30.648438 9.023438 29.984375 9.726562 L 29.984375 8.757812 C 29.984375 7.59375 29.132812 6.648438 28.082031 6.648438 Z M 26.773438 11.679688 C 24.378906 11.488281 22.488281 9.480469 22.488281 7.035156 C 22.488281 4.464844 24.578125 2.375 27.148438 2.375 C 29.71875 2.375 31.808594 4.464844 31.808594 7.035156 C 31.808594 9.480469 29.917969 11.488281 27.523438 11.679688 L 27.523438 13.09375 C 27.523438 13.863281 26.898438 14.484375 26.132812 14.484375 L 24.738281 14.484375 C 24.929688 15.179688 25.03125 15.90625 25.03125 16.660156 C 25.03125 17.007812 25.007812 17.347656 24.96875 17.683594 L 25.335938 17.570312 C 25.320312 17.144531 25.472656 16.738281 25.761719 16.429688 C 26.050781 16.117188 26.449219 15.933594 26.875 15.917969 C 27.300781 15.902344 27.710938 16.054688 28.023438 16.347656 C 28.335938 16.636719 28.519531 17.035156 28.535156 17.460938 C 28.550781 17.886719 28.398438 18.292969 28.105469 18.609375 C 27.816406 18.921875 27.417969 19.101562 26.992188 19.117188 C 26.972656 19.117188 26.953125 19.117188 26.933594 19.117188 C 26.335938 19.117188 25.808594 18.785156 25.535156 18.292969 L 24.820312 18.511719 C 24.648438 19.261719 24.375 19.96875 24.015625 20.625 L 27.402344 21.402344 C 27.664062 20.914062 28.167969 20.570312 28.757812 20.550781 C 29.644531 20.519531 30.386719 21.210938 30.417969 22.09375 C 30.449219 22.972656 29.757812 23.71875 28.875 23.75 C 28.855469 23.75 28.835938 23.75 28.816406 23.75 C 28.410156 23.75 28.027344 23.601562 27.726562 23.324219 C 27.414062 23.03125 27.234375 22.636719 27.21875 22.207031 C 27.21875 22.183594 27.21875 22.15625 27.21875 22.128906 L 23.601562 21.300781 C 23.273438 21.785156 22.894531 22.234375 22.472656 22.640625 L 27.960938 27.746094 C 28.207031 27.570312 28.507812 27.460938 28.828125 27.449219 C 29.710938 27.417969 30.453125 28.109375 30.488281 28.992188 C 30.503906 29.417969 30.351562 29.828125 30.058594 30.140625 C 29.769531 30.453125 29.375 30.632812 28.949219 30.648438 C 28.925781 30.648438 28.90625 30.648438 28.886719 30.648438 C 28.480469 30.648438 28.097656 30.5 27.800781 30.222656 C 27.484375 29.929688 27.304688 29.535156 27.289062 29.105469 C 27.277344 28.820312 27.34375 28.550781 27.46875 28.3125 L 21.902344 23.136719 C 21.542969 23.421875 21.15625 23.679688 20.75 23.90625 L 21.988281 27.929688 C 22.84375 27.929688 23.554688 28.609375 23.585938 29.472656 C 23.601562 29.902344 23.449219 30.308594 23.160156 30.621094 C 22.867188 30.933594 22.472656 31.117188 22.042969 31.128906 C 22.027344 31.132812 22.007812 31.132812 21.984375 31.132812 C 21.132812 31.132812 20.417969 30.453125 20.390625 29.589844 C 20.371094 29.160156 20.523438 28.753906 20.816406 28.441406 C 20.945312 28.304688 21.09375 28.191406 21.257812 28.105469 L 20.070312 24.242188 C 19.574219 24.460938 19.050781 24.628906 18.515625 24.746094 L 18.058594 26.738281 C 18.542969 26.996094 18.878906 27.5 18.898438 28.089844 C 18.933594 28.96875 18.242188 29.714844 17.359375 29.746094 C 17.335938 29.746094 17.320312 29.746094 17.300781 29.746094 C 16.894531 29.746094 16.507812 29.597656 16.210938 29.320312 C 15.894531 29.027344 15.714844 28.632812 15.699219 28.203125 C 15.667969 27.324219 16.359375 26.578125 17.238281 26.546875 C 17.269531 26.546875 17.300781 26.546875 17.328125 26.546875 L 17.710938 24.882812 C 17.398438 24.917969 17.078125 24.9375 16.753906 24.9375 C 13.21875 24.9375 10.195312 22.710938 9.011719 19.585938 L 7.375 19.585938 C 7.019531 19.585938 6.734375 19.871094 6.734375 20.226562 L 6.734375 21.640625 C 9.128906 21.832031 11.019531 23.839844 11.019531 26.285156 C 11.019531 28.855469 8.925781 30.945312 6.359375 30.945312 C 3.789062 30.945312 1.695312 28.855469 1.695312 26.285156 C 1.695312 23.839844 3.589844 21.832031 5.984375 21.640625 L 5.984375 20.226562 C 5.984375 19.460938 6.605469 18.835938 7.375 18.835938 L 8.765625 18.835938 C 8.578125 18.140625 8.476562 17.414062 8.476562 16.660156 C 8.476562 16.371094 8.492188 16.085938 8.519531 15.804688 L 7.050781 16.199219 C 7.050781 16.226562 7.054688 16.257812 7.054688 16.289062 C 7.054688 17.171875 6.335938 17.886719 5.453125 17.886719 C 4.570312 17.886719 3.855469 17.171875 3.855469 16.289062 C 3.855469 15.40625 4.570312 14.6875 5.453125 14.6875 C 6.042969 14.6875 6.558594 15.007812 6.835938 15.480469 L 8.644531 14.996094 C 8.761719 14.425781 8.9375 13.875 9.167969 13.355469 L 5.351562 12.332031 C 5.09375 12.875 4.542969 13.253906 3.902344 13.253906 C 3.019531 13.253906 2.300781 12.539062 2.300781 11.65625 C 2.300781 10.773438 3.019531 10.054688 3.902344 10.054688 C 4.761719 10.054688 5.46875 10.742188 5.5 11.597656 L 9.503906 12.667969 C 9.734375 12.257812 9.996094 11.867188 10.289062 11.5 L 4.921875 6.132812 C 4.6875 6.265625 4.417969 6.339844 4.132812 6.339844 C 3.25 6.339844 2.53125 5.625 2.53125 4.742188 C 2.53125 3.859375 3.25 3.140625 4.132812 3.140625 C 5.015625 3.140625 5.730469 3.859375 5.730469 4.742188 C 5.730469 5.066406 5.636719 5.367188 5.46875 5.621094 L 10.78125 10.933594 C 11.179688 10.523438 11.617188 10.148438 12.089844 9.824219 L 11.109375 6.160156 C 11.082031 6.160156 11.054688 6.160156 11.03125 6.160156 C 10.148438 6.160156 9.429688 5.441406 9.429688 4.558594 C 9.429688 3.675781 10.148438 2.960938 11.03125 2.960938 C 11.910156 2.960938 12.628906 3.675781 12.628906 4.558594 C 12.628906 5.152344 12.304688 5.667969 11.828125 5.945312 L 12.757812 9.414062 C 13.378906 9.070312 14.046875 8.804688 14.753906 8.628906 L 15 7.703125 C 14.480469 7.4375 14.125 6.898438 14.125 6.273438 C 14.125 5.390625 14.84375 4.671875 15.726562 4.671875 C 16.609375 4.671875 17.324219 5.390625 17.324219 6.273438 C 17.324219 7.15625 16.609375 7.871094 15.730469 7.875 L 15.570312 8.46875 C 15.957031 8.414062 16.351562 8.382812 16.753906 8.382812 C 20.285156 8.382812 23.3125 10.613281 24.496094 13.738281 L 26.132812 13.738281 C 26.484375 13.738281 26.773438 13.449219 26.773438 13.097656 Z M 10.269531 26.285156 C 10.269531 27.324219 9.859375 28.273438 9.195312 28.976562 L 9.195312 28.007812 C 9.195312 26.84375 8.34375 25.894531 7.292969 25.894531 L 5.429688 25.894531 C 4.378906 25.894531 3.523438 26.84375 3.523438 28.007812 L 3.523438 28.976562 C 2.859375 28.273438 2.449219 27.324219 2.449219 26.285156 C 2.449219 24.128906 4.203125 22.375 6.359375 22.375 C 8.515625 22.375 10.269531 24.128906 10.269531 26.285156 Z M 15.285156 13.957031 L 14.53125 13.816406 C 14.3125 13.773438 14.085938 13.707031 13.890625 13.597656 L 13.859375 13.582031 L 14.15625 13.148438 L 12.261719 11.84375 L 9.261719 16.207031 L 11.152344 17.511719 L 11.378906 17.1875 C 11.503906 17.375 11.652344 17.554688 11.8125 17.71875 L 11.972656 17.886719 L 11.921875 17.960938 C 11.660156 18.332031 11.75 18.855469 12.125 19.117188 C 12.207031 19.171875 12.296875 19.214844 12.390625 19.238281 C 12.3125 19.394531 12.289062 19.574219 12.320312 19.75 C 12.359375 19.964844 12.480469 20.15625 12.664062 20.28125 C 12.84375 20.40625 13.066406 20.453125 13.28125 20.417969 C 13.410156 20.394531 13.527344 20.339844 13.632812 20.265625 C 13.691406 20.355469 13.765625 20.433594 13.859375 20.5 C 14.089844 20.664062 14.382812 20.6875 14.632812 20.589844 C 14.691406 20.71875 14.785156 20.835938 14.90625 20.921875 C 15.089844 21.050781 15.3125 21.097656 15.527344 21.058594 C 15.746094 21.019531 15.9375 20.898438 16.0625 20.714844 L 16.117188 20.636719 L 17.058594 21.230469 C 17.257812 21.355469 17.5 21.394531 17.730469 21.34375 C 17.964844 21.289062 18.164062 21.148438 18.292969 20.945312 C 18.359375 20.835938 18.402344 20.714844 18.417969 20.589844 C 18.558594 20.632812 18.710938 20.636719 18.855469 20.605469 C 19.089844 20.554688 19.292969 20.414062 19.421875 20.214844 L 19.425781 20.207031 L 19.429688 20.203125 C 19.503906 20.078125 19.546875 19.941406 19.554688 19.800781 C 19.664062 19.816406 19.773438 19.8125 19.878906 19.789062 C 20.109375 19.738281 20.308594 19.597656 20.433594 19.402344 L 20.441406 19.394531 L 20.445312 19.386719 C 20.542969 19.226562 20.585938 19.042969 20.574219 18.855469 C 20.839844 18.832031 21.089844 18.6875 21.242188 18.449219 C 21.375 18.246094 21.417969 18 21.359375 17.761719 C 21.347656 17.710938 21.328125 17.660156 21.308594 17.609375 C 21.585938 17.511719 21.839844 17.351562 22.058594 17.152344 L 22.070312 17.144531 L 22.351562 17.554688 L 24.246094 16.25 L 21.242188 11.886719 L 19.347656 13.191406 L 19.660156 13.648438 C 19.234375 13.691406 18.804688 13.644531 18.414062 13.449219 C 18.085938 13.28125 17.742188 13.269531 17.382812 13.347656 C 16.667969 13.507812 15.972656 13.703125 15.285156 13.957031 Z M 23.34375 16.082031 L 21.078125 12.792969 L 20.253906 13.359375 L 22.519531 16.648438 Z M 10.988281 16.605469 L 13.253906 13.316406 L 12.429688 12.75 L 10.164062 16.039062 Z M 12.746094 18.539062 L 13.28125 17.773438 C 13.316406 17.71875 13.3125 17.667969 13.308594 17.636719 C 13.304688 17.609375 13.285156 17.558594 13.234375 17.523438 C 13.183594 17.488281 13.128906 17.488281 13.101562 17.496094 C 13.074219 17.5 13.023438 17.515625 12.988281 17.566406 L 12.453125 18.332031 C 12.398438 18.414062 12.417969 18.527344 12.496094 18.582031 C 12.578125 18.636719 12.691406 18.617188 12.746094 18.539062 Z M 13.28125 19.703125 L 14.558594 17.871094 C 14.59375 17.820312 14.59375 17.765625 14.585938 17.738281 C 14.582031 17.710938 14.566406 17.660156 14.511719 17.621094 C 14.476562 17.597656 14.441406 17.589844 14.414062 17.589844 C 14.402344 17.589844 14.390625 17.59375 14.378906 17.59375 C 14.355469 17.597656 14.300781 17.613281 14.265625 17.667969 L 13.363281 18.964844 C 13.363281 18.964844 13.363281 18.964844 13.359375 18.964844 L 12.992188 19.5 C 12.957031 19.550781 12.957031 19.605469 12.960938 19.632812 C 12.96875 19.660156 12.984375 19.710938 13.035156 19.746094 C 13.085938 19.785156 13.140625 19.78125 13.167969 19.777344 C 13.195312 19.769531 13.246094 19.753906 13.28125 19.703125 Z M 14.480469 19.921875 L 15.179688 18.914062 C 15.234375 18.835938 15.214844 18.722656 15.136719 18.667969 C 15.082031 18.632812 15.027344 18.632812 15.003906 18.640625 C 14.976562 18.644531 14.921875 18.660156 14.886719 18.710938 L 14.1875 19.71875 C 14.128906 19.796875 14.152344 19.910156 14.230469 19.964844 C 14.308594 20.019531 14.421875 20 14.480469 19.921875 Z M 15.972656 19.621094 C 15.964844 19.59375 15.949219 19.542969 15.898438 19.503906 C 15.847656 19.46875 15.792969 19.472656 15.765625 19.476562 C 15.738281 19.480469 15.6875 19.496094 15.648438 19.550781 L 15.238281 20.140625 C 15.183594 20.222656 15.203125 20.335938 15.28125 20.390625 C 15.335938 20.425781 15.386719 20.421875 15.414062 20.417969 C 15.445312 20.414062 15.496094 20.398438 15.53125 20.347656 L 15.941406 19.753906 C 15.980469 19.703125 15.976562 19.648438 15.972656 19.621094 Z M 20.625 17.765625 L 17.210938 15.617188 L 16.503906 15.570312 C 15.433594 16.691406 14.472656 16.484375 13.855469 16.105469 C 13.746094 16.039062 13.671875 15.9375 13.644531 15.8125 C 13.621094 15.6875 13.644531 15.5625 13.714844 15.460938 L 14.371094 14.503906 C 14.382812 14.488281 14.394531 14.46875 14.40625 14.453125 C 14.128906 14.402344 13.835938 14.3125 13.574219 14.171875 L 11.839844 16.695312 C 11.953125 16.886719 12.097656 17.078125 12.28125 17.269531 L 12.371094 17.140625 C 12.511719 16.9375 12.722656 16.800781 12.96875 16.757812 C 13.214844 16.714844 13.460938 16.769531 13.664062 16.910156 C 13.722656 16.949219 13.773438 17 13.824219 17.050781 C 13.941406 16.953125 14.089844 16.886719 14.246094 16.855469 C 14.492188 16.8125 14.738281 16.867188 14.941406 17.007812 C 15.144531 17.148438 15.28125 17.359375 15.324219 17.605469 C 15.34375 17.714844 15.34375 17.828125 15.324219 17.933594 C 15.40625 17.960938 15.488281 18 15.558594 18.054688 C 15.765625 18.195312 15.898438 18.40625 15.945312 18.652344 C 15.949219 18.679688 15.953125 18.710938 15.957031 18.738281 C 16.089844 18.761719 16.214844 18.8125 16.324219 18.890625 C 16.53125 19.03125 16.664062 19.246094 16.707031 19.488281 C 16.75 19.722656 16.703125 19.957031 16.574219 20.15625 L 17.40625 20.679688 C 17.460938 20.714844 17.523438 20.726562 17.589844 20.710938 C 17.652344 20.695312 17.707031 20.65625 17.738281 20.605469 C 17.773438 20.550781 17.785156 20.484375 17.769531 20.421875 C 17.753906 20.359375 17.714844 20.304688 17.664062 20.273438 L 17.667969 20.261719 L 17.066406 19.871094 C 16.894531 19.757812 16.847656 19.527344 16.957031 19.351562 C 17.074219 19.179688 17.300781 19.128906 17.476562 19.242188 L 18.542969 19.941406 C 18.613281 19.984375 18.683594 19.976562 18.714844 19.96875 C 18.78125 19.957031 18.839844 19.917969 18.875 19.859375 C 18.90625 19.808594 18.917969 19.742188 18.902344 19.679688 C 18.890625 19.617188 18.851562 19.5625 18.796875 19.527344 C 18.785156 19.519531 18.773438 19.511719 18.765625 19.503906 L 17.460938 18.675781 C 17.289062 18.5625 17.238281 18.332031 17.347656 18.160156 C 17.457031 17.984375 17.691406 17.933594 17.863281 18.042969 L 19.558594 19.125 C 19.613281 19.15625 19.675781 19.167969 19.738281 19.152344 C 19.800781 19.140625 19.855469 19.101562 19.890625 19.046875 C 19.925781 18.992188 19.933594 18.929688 19.921875 18.863281 C 19.90625 18.800781 19.867188 18.75 19.816406 18.714844 L 17.863281 17.484375 C 17.683594 17.371094 17.632812 17.140625 17.746094 16.964844 C 17.855469 16.789062 18.085938 16.738281 18.257812 16.847656 L 20.367188 18.175781 C 20.476562 18.242188 20.628906 18.207031 20.699219 18.097656 C 20.734375 18.042969 20.742188 17.980469 20.730469 17.917969 C 20.714844 17.855469 20.679688 17.800781 20.625 17.765625 Z M 21.625 16.671875 L 19.96875 14.265625 C 19.28125 14.375 18.660156 14.296875 18.128906 14.03125 C 17.953125 13.945312 17.769531 13.929688 17.527344 13.984375 C 16.753906 14.15625 16.125 14.339844 15.492188 14.578125 C 15.242188 14.667969 15.097656 14.773438 14.988281 14.929688 L 14.527344 15.601562 C 14.890625 15.722656 15.378906 15.683594 16.007812 15.003906 C 16.128906 14.875 16.300781 14.804688 16.476562 14.816406 L 17.355469 14.875 C 17.417969 14.882812 17.480469 14.902344 17.53125 14.933594 L 20.898438 17.054688 C 21.164062 16.996094 21.414062 16.863281 21.625 16.671875 Z M 21.625 16.671875 " fill-opacity="1" fill-rule="evenodd"/></g></svg>