<svg xmlns="http://www.w3.org/2000/svg" xmlns:xlink="http://www.w3.org/1999/xlink" width="45" zoomAndPan="magnify" viewBox="0 0 33.75 33.749998" height="45" preserveAspectRatio="xMidYMid meet" version="1.0"><defs><clipPath id="03094af129"><path d="M 6.804688 2.234375 L 26.90625 2.234375 L 26.90625 31.269531 L 6.804688 31.269531 Z M 6.804688 2.234375 " clip-rule="nonzero"/></clipPath></defs><path fill="#ffffff" d="M 24.328125 12.1875 C 24.328125 8.019531 20.941406 4.628906 16.773438 4.628906 C 12.605469 4.628906 9.21875 8.019531 9.21875 12.1875 C 9.21875 16.355469 12.605469 19.738281 16.773438 19.738281 C 20.941406 19.738281 24.328125 16.347656 24.328125 12.1875 Z M 9.753906 12.1875 C 9.753906 8.3125 12.898438 5.164062 16.773438 5.164062 C 20.644531 5.164062 23.789062 8.3125 23.789062 12.1875 C 23.789062 16.058594 20.644531 19.203125 16.773438 19.203125 C 12.898438 19.203125 9.753906 16.054688 9.753906 12.1875 Z M 9.753906 12.1875 " fill-opacity="1" fill-rule="nonzero"/><g clip-path="url(#03094af129)"><path fill="#ffffff" d="M 12.089844 31.234375 C 12.128906 31.253906 12.171875 31.261719 12.210938 31.261719 C 12.269531 31.261719 12.328125 31.242188 12.375 31.203125 L 16.773438 27.769531 L 21.175781 31.203125 C 21.257812 31.269531 21.371094 31.277344 21.460938 31.234375 C 21.550781 31.1875 21.609375 31.097656 21.609375 30.996094 L 21.609375 20.871094 C 24.652344 19.167969 26.722656 15.914062 26.722656 12.1875 C 26.722656 6.703125 22.257812 2.238281 16.773438 2.238281 C 11.289062 2.238281 6.824219 6.703125 6.824219 12.1875 C 6.824219 15.914062 8.894531 19.167969 11.941406 20.871094 L 11.941406 30.996094 C 11.941406 31.097656 12 31.1875 12.089844 31.234375 Z M 21.074219 30.445312 L 16.9375 27.21875 C 16.84375 27.144531 16.710938 27.144531 16.613281 27.21875 L 12.476562 30.445312 L 12.476562 21.144531 C 13.777344 21.769531 15.230469 22.128906 16.773438 22.128906 C 18.316406 22.128906 19.769531 21.769531 21.074219 21.136719 Z M 7.359375 12.1875 C 7.359375 6.996094 11.582031 2.773438 16.773438 2.773438 C 21.964844 2.773438 26.183594 6.996094 26.183594 12.1875 C 26.183594 15.753906 24.1875 18.867188 21.246094 20.464844 C 21.242188 20.464844 21.230469 20.46875 21.21875 20.472656 C 19.894531 21.1875 18.378906 21.59375 16.773438 21.59375 C 15.167969 21.59375 13.660156 21.191406 12.335938 20.480469 C 12.328125 20.472656 12.3125 20.464844 12.292969 20.457031 C 9.359375 18.867188 7.359375 15.753906 7.359375 12.1875 Z M 7.359375 12.1875 " fill-opacity="1" fill-rule="nonzero"/></g><path fill="#ffffff" d="M 19.269531 15.941406 C 19.308594 15.964844 19.351562 15.972656 19.394531 15.972656 C 19.445312 15.972656 19.5 15.957031 19.546875 15.925781 C 19.632812 15.863281 19.671875 15.765625 19.65625 15.664062 L 19.179688 12.886719 L 21.199219 10.917969 C 21.269531 10.847656 21.292969 10.742188 21.261719 10.644531 C 21.234375 10.546875 21.148438 10.476562 21.046875 10.460938 L 18.261719 10.058594 L 17.015625 7.53125 C 16.921875 7.347656 16.625 7.347656 16.53125 7.53125 L 15.285156 10.058594 L 12.5 10.460938 C 12.398438 10.476562 12.3125 10.546875 12.285156 10.644531 C 12.253906 10.742188 12.277344 10.847656 12.347656 10.917969 L 14.367188 12.886719 L 13.890625 15.664062 C 13.875 15.765625 13.914062 15.863281 14 15.925781 C 14.078125 15.984375 14.191406 15.988281 14.277344 15.941406 L 16.773438 14.636719 Z M 19.269531 15.941406 " fill-opacity="1" fill-rule="nonzero"/><path fill="#ffffff" d="M 13.664062 22.6875 C 13.515625 22.6875 13.394531 22.808594 13.394531 22.953125 L 13.394531 25.199219 C 13.394531 25.347656 13.515625 25.46875 13.664062 25.46875 C 13.808594 25.46875 13.929688 25.347656 13.929688 25.199219 L 13.929688 22.953125 C 13.929688 22.808594 13.808594 22.6875 13.664062 22.6875 Z M 13.664062 22.6875 " fill-opacity="1" fill-rule="nonzero"/><path fill="#ffffff" d="M 13.855469 26.5 C 13.828125 26.472656 13.792969 26.453125 13.761719 26.441406 C 13.699219 26.414062 13.625 26.414062 13.558594 26.441406 C 13.527344 26.453125 13.496094 26.472656 13.472656 26.5 C 13.425781 26.550781 13.394531 26.617188 13.394531 26.6875 C 13.394531 26.757812 13.421875 26.828125 13.472656 26.875 C 13.523438 26.929688 13.589844 26.957031 13.660156 26.957031 C 13.699219 26.957031 13.730469 26.949219 13.761719 26.933594 C 13.792969 26.925781 13.828125 26.902344 13.855469 26.875 C 13.875 26.847656 13.898438 26.820312 13.914062 26.789062 C 13.921875 26.757812 13.929688 26.726562 13.929688 26.6875 C 13.929688 26.652344 13.921875 26.617188 13.90625 26.585938 C 13.894531 26.554688 13.875 26.523438 13.851562 26.5 Z M 13.855469 26.5 " fill-opacity="1" fill-rule="nonzero"/></svg>