<svg xmlns="http://www.w3.org/2000/svg" xmlns:xlink="http://www.w3.org/1999/xlink" width="45" zoomAndPan="magnify" viewBox="0 0 33.75 33.749998" height="45" preserveAspectRatio="xMidYMid meet" version="1.0"><defs><clipPath id="d00a01991a"><path d="M 2.269531 3 L 24 3 L 24 23 L 2.269531 23 Z M 2.269531 3 " clip-rule="nonzero"/></clipPath><clipPath id="8644423858"><path d="M 29 21 L 31.304688 21 L 31.304688 24 L 29 24 Z M 29 21 " clip-rule="nonzero"/></clipPath></defs><path fill="#2f7cee" d="M 16.433594 13.128906 L 11.234375 10.03125 L 11.234375 16.222656 Z M 16.433594 13.128906 " fill-opacity="1" fill-rule="nonzero"/><g clip-path="url(#d00a01991a)"><path fill="#2f7cee" d="M 4.339844 3.648438 C 3.195312 3.648438 2.269531 4.574219 2.269531 5.71875 L 2.269531 20.539062 C 2.269531 21.679688 3.195312 22.605469 4.339844 22.605469 L 16.402344 22.605469 L 16.402344 20.882812 C 16.402344 19.359375 17.636719 18.125 19.160156 18.125 L 21.21875 18.125 C 21.390625 18.125 21.558594 18.105469 21.722656 18.066406 L 23.984375 17.5 L 23.984375 5.71875 C 23.984375 4.574219 23.058594 3.648438 21.917969 3.648438 Z M 9.855469 10.03125 C 9.855469 8.960938 11.019531 8.300781 11.9375 8.847656 L 17.140625 11.945312 C 18.035156 12.476562 18.035156 13.777344 17.140625 14.3125 L 11.9375 17.410156 C 11.019531 17.957031 9.855469 17.292969 9.855469 16.222656 Z M 9.855469 10.03125 " fill-opacity="1" fill-rule="evenodd"/></g><path fill="#2f7cee" d="M 17.78125 23.640625 L 17.78125 20.882812 C 17.78125 20.121094 18.398438 19.503906 19.160156 19.503906 L 20.882812 19.503906 L 20.882812 25.019531 L 19.160156 25.019531 C 18.398438 25.019531 17.78125 24.402344 17.78125 23.640625 Z M 17.78125 23.640625 " fill-opacity="1" fill-rule="nonzero"/><g clip-path="url(#8644423858)"><path fill="#2f7cee" d="M 29.15625 23.640625 L 29.15625 21.226562 L 30.019531 21.226562 C 30.683594 21.226562 31.222656 21.769531 31.222656 22.433594 C 31.222656 23.101562 30.683594 23.640625 30.019531 23.640625 Z M 29.15625 23.640625 " fill-opacity="1" fill-rule="nonzero"/></g><path fill="#2f7cee" d="M 22.261719 19.351562 L 25.710938 18.492188 L 25.710938 17.78125 C 25.710938 17.210938 26.171875 16.746094 26.742188 16.746094 C 27.3125 16.746094 27.777344 17.210938 27.777344 17.78125 L 27.777344 26.539062 L 27.769531 26.535156 C 27.699219 27.042969 27.269531 27.433594 26.742188 27.433594 C 26.171875 27.433594 25.710938 26.96875 25.710938 26.398438 L 25.710938 25.996094 C 24.566406 25.691406 22.261719 25.09375 22.261719 25.09375 Z M 22.261719 19.351562 " fill-opacity="1" fill-rule="nonzero"/><path fill="#2f7cee" d="M 20.882812 26.398438 L 18.816406 26.398438 L 18.816406 29.15625 C 18.816406 29.535156 19.125 29.84375 19.503906 29.84375 L 20.882812 29.84375 Z M 20.882812 26.398438 " fill-opacity="1" fill-rule="nonzero"/></svg>