<svg xmlns="http://www.w3.org/2000/svg" xmlns:xlink="http://www.w3.org/1999/xlink" width="45" zoomAndPan="magnify" viewBox="0 0 33.75 33.749998" height="45" preserveAspectRatio="xMidYMid meet" version="1.0"><defs><clipPath id="5cb38593f7"><path d="M 2.503906 1.828125 L 26 1.828125 L 26 31.605469 L 2.503906 31.605469 Z M 2.503906 1.828125 " clip-rule="nonzero"/></clipPath><clipPath id="9735eb3ad0"><path d="M 12 10 L 30.796875 10 L 30.796875 30 L 12 30 Z M 12 10 " clip-rule="nonzero"/></clipPath><clipPath id="19c74f81e1"><path d="M 12 19 L 30.796875 19 L 30.796875 21 L 12 21 Z M 12 19 " clip-rule="nonzero"/></clipPath></defs><g clip-path="url(#5cb38593f7)"><path fill="#ecc566" d="M 14.132812 31.664062 C 13.929688 31.664062 13.726562 31.589844 13.5625 31.445312 L 9.339844 27.625 C 5 23.703125 2.511719 18.097656 2.511719 12.246094 L 2.511719 6.691406 C 2.511719 6.453125 2.609375 6.226562 2.789062 6.0625 C 2.964844 5.902344 3.199219 5.820312 3.4375 5.84375 C 7.164062 6.171875 10.472656 4.953125 13.558594 2.125 C 13.882812 1.828125 14.382812 1.828125 14.710938 2.125 C 17.796875 4.953125 21.105469 6.171875 24.832031 5.84375 C 25.066406 5.824219 25.304688 5.902344 25.480469 6.0625 C 25.65625 6.226562 25.757812 6.453125 25.757812 6.691406 L 25.757812 9.375 C 25.757812 9.847656 25.375 10.226562 24.90625 10.226562 C 24.433594 10.226562 24.050781 9.847656 24.050781 9.375 L 24.050781 7.59375 C 20.472656 7.6875 17.140625 6.441406 14.132812 3.894531 C 11.128906 6.441406 7.796875 7.683594 4.21875 7.59375 L 4.21875 12.246094 C 4.21875 17.617188 6.5 22.761719 10.484375 26.359375 L 14.132812 29.660156 L 15.265625 28.640625 C 15.617188 28.324219 16.15625 28.351562 16.472656 28.699219 C 16.785156 29.050781 16.757812 29.589844 16.410156 29.90625 L 14.707031 31.445312 C 14.542969 31.589844 14.339844 31.664062 14.136719 31.664062 Z M 14.132812 31.664062 " fill-opacity="1" fill-rule="nonzero"/></g><g clip-path="url(#9735eb3ad0)"><path fill="#ecc566" d="M 21.738281 29.109375 C 16.636719 29.109375 12.488281 24.957031 12.488281 19.859375 C 12.488281 14.757812 16.636719 10.609375 21.738281 10.609375 C 26.835938 10.609375 30.988281 14.757812 30.988281 19.859375 C 30.988281 24.957031 26.835938 29.109375 21.738281 29.109375 Z M 21.738281 12.316406 C 17.578125 12.316406 14.195312 15.699219 14.195312 19.859375 C 14.195312 24.019531 17.578125 27.402344 21.738281 27.402344 C 25.898438 27.402344 29.28125 24.019531 29.28125 19.859375 C 29.28125 15.699219 25.898438 12.316406 21.738281 12.316406 Z M 21.738281 12.316406 " fill-opacity="1" fill-rule="nonzero"/></g><path fill="#ecc566" d="M 21.738281 29.109375 C 18.792969 29.109375 16.488281 25.046875 16.488281 19.859375 C 16.488281 14.671875 18.792969 10.609375 21.738281 10.609375 C 24.683594 10.609375 26.988281 14.671875 26.988281 19.859375 C 26.988281 25.046875 24.683594 29.109375 21.738281 29.109375 Z M 21.738281 12.316406 C 20.0625 12.316406 18.195312 15.414062 18.195312 19.859375 C 18.195312 24.304688 20.0625 27.402344 21.738281 27.402344 C 23.414062 27.402344 25.28125 24.304688 25.28125 19.859375 C 25.28125 15.414062 23.414062 12.316406 21.738281 12.316406 Z M 21.738281 12.316406 " fill-opacity="1" fill-rule="nonzero"/><path fill="#ecc566" d="M 21.738281 29.109375 C 21.265625 29.109375 20.886719 28.726562 20.886719 28.253906 L 20.886719 12.035156 C 20.886719 11.566406 21.265625 11.183594 21.738281 11.183594 C 22.207031 11.183594 22.589844 11.566406 22.589844 12.035156 L 22.589844 28.253906 C 22.589844 28.726562 22.207031 29.109375 21.738281 29.109375 Z M 21.738281 29.109375 " fill-opacity="1" fill-rule="nonzero"/><g clip-path="url(#19c74f81e1)"><path fill="#ecc566" d="M 29.847656 21 L 13.628906 21 C 13.15625 21 12.773438 20.617188 12.773438 20.144531 C 12.773438 19.675781 13.15625 19.292969 13.628906 19.292969 L 29.847656 19.292969 C 30.320312 19.292969 30.699219 19.675781 30.699219 20.144531 C 30.699219 20.617188 30.320312 21 29.847656 21 Z M 29.847656 21 " fill-opacity="1" fill-rule="nonzero"/></g><path fill="#ecc566" d="M 28.667969 25.328125 L 14.808594 25.328125 C 14.335938 25.328125 13.957031 24.949219 13.957031 24.476562 C 13.957031 24.003906 14.335938 23.625 14.808594 23.625 L 28.667969 23.625 C 29.140625 23.625 29.519531 24.003906 29.519531 24.476562 C 29.519531 24.949219 29.136719 25.328125 28.667969 25.328125 Z M 28.667969 25.328125 " fill-opacity="1" fill-rule="nonzero"/><path fill="#ecc566" d="M 28.667969 16.667969 L 14.808594 16.667969 C 14.335938 16.667969 13.957031 16.285156 13.957031 15.8125 C 13.957031 15.34375 14.335938 14.960938 14.808594 14.960938 L 28.667969 14.960938 C 29.140625 14.960938 29.519531 15.34375 29.519531 15.8125 C 29.519531 16.285156 29.136719 16.667969 28.667969 16.667969 Z M 28.667969 16.667969 " fill-opacity="1" fill-rule="nonzero"/></svg>