<svg xmlns="http://www.w3.org/2000/svg" xmlns:xlink="http://www.w3.org/1999/xlink" width="45" zoomAndPan="magnify" viewBox="0 0 33.75 33.749998" height="45" preserveAspectRatio="xMidYMid meet" version="1.0"><defs><clipPath id="e05dc8e8b1"><path d="M 2.175781 2 L 31.210938 2 L 31.210938 31.773438 L 2.175781 31.773438 Z M 2.175781 2 " clip-rule="nonzero"/></clipPath></defs><g clip-path="url(#e05dc8e8b1)"><path fill="#2f7cee" d="M 27.398438 12.855469 C 25.238281 12.855469 23.488281 14.609375 23.488281 16.769531 C 23.488281 17.460938 23.667969 18.140625 24.015625 18.738281 C 24.0625 18.808594 24.074219 18.898438 24.039062 18.984375 L 23.082031 21.421875 C 23.058594 21.484375 23.117188 21.539062 23.175781 21.507812 L 25.5 20.335938 C 25.574219 20.289062 25.667969 20.28125 25.75 20.320312 C 28.3125 21.515625 31.3125 19.652344 31.3125 16.769531 C 31.3125 14.609375 29.558594 12.855469 27.398438 12.855469 Z M 16.746094 14.773438 C 14.769531 14.773438 13.164062 16.375 13.164062 18.351562 C 13.164062 20.328125 14.769531 21.929688 16.746094 21.929688 C 18.71875 21.929688 20.320312 20.328125 20.320312 18.351562 C 20.320312 16.375 18.71875 14.773438 16.746094 14.773438 Z M 21.78125 24.195312 L 11.703125 24.195312 C 11.050781 24.328125 10.433594 24.648438 10.160156 25.292969 C 9.867188 25.976562 10.054688 26.78125 10.382812 27.421875 C 10.933594 28.511719 11.859375 29.453125 12.992188 30.121094 C 15.324219 31.492188 18.160156 31.492188 20.492188 30.121094 C 21.628906 29.453125 22.554688 28.511719 23.105469 27.421875 C 23.839844 25.972656 23.511719 24.546875 21.78125 24.195312 Z M 18.671875 5.164062 C 19.253906 5.503906 19.253906 6.34375 18.671875 6.683594 L 16.320312 8.039062 C 15.738281 8.375 15.007812 7.957031 15.007812 7.28125 L 15.007812 4.570312 C 15.007812 3.894531 15.738281 3.472656 16.324219 3.808594 Z M 18.402344 5.628906 L 16.054688 4.273438 C 15.828125 4.140625 15.542969 4.304688 15.542969 4.570312 L 15.542969 7.28125 C 15.542969 7.546875 15.828125 7.707031 16.054688 7.574219 L 18.402344 6.21875 C 18.621094 6.09375 18.632812 5.75 18.402344 5.628906 Z M 16.746094 2.011719 C 14.582031 2.011719 12.832031 3.761719 12.832031 5.925781 C 12.832031 8.085938 14.582031 9.835938 16.746094 9.835938 C 18.90625 9.835938 20.65625 8.085938 20.65625 5.925781 C 20.65625 3.761719 18.90625 2.011719 16.746094 2.011719 Z M 5.097656 21.109375 L 5.097656 24.492188 C 5.097656 26.648438 6.867188 28.417969 9.023438 28.417969 L 10.351562 28.417969 C 10.019531 27.933594 9.726562 27.390625 9.582031 26.820312 L 9.023438 26.820312 C 7.742188 26.820312 6.695312 25.773438 6.695312 24.492188 L 6.695312 21.179688 C 6.160156 21.253906 5.621094 21.230469 5.097656 21.109375 Z M 9.023438 6.722656 L 12.363281 6.722656 C 12.269531 6.195312 12.269531 5.652344 12.363281 5.125 L 9.023438 5.125 C 6.863281 5.125 5.097656 6.894531 5.097656 9.050781 L 5.097656 12.429688 C 5.617188 12.3125 6.160156 12.289062 6.695312 12.363281 L 6.695312 9.050781 C 6.695312 7.769531 7.742188 6.722656 9.023438 6.722656 Z M 28.390625 21.109375 C 27.867188 21.230469 27.328125 21.253906 26.792969 21.179688 L 26.792969 24.492188 C 26.792969 25.773438 25.746094 26.820312 24.464844 26.820312 L 23.90625 26.820312 C 23.757812 27.390625 23.46875 27.933594 23.132812 28.417969 L 24.464844 28.417969 C 26.621094 28.417969 28.386719 26.648438 28.386719 24.492188 L 28.386719 21.109375 Z M 27.398438 12.320312 C 27.738281 12.320312 28.070312 12.359375 28.390625 12.429688 L 28.390625 9.050781 C 28.390625 6.890625 26.621094 5.125 24.464844 5.125 L 21.121094 5.125 C 21.21875 5.652344 21.21875 6.195312 21.121094 6.722656 L 24.464844 6.722656 C 25.746094 6.722656 26.796875 7.769531 26.796875 9.050781 L 26.796875 12.363281 C 26.992188 12.332031 27.195312 12.320312 27.398438 12.320312 Z M 27.398438 16.355469 C 27.628906 16.355469 27.816406 16.542969 27.816406 16.769531 C 27.816406 17 27.628906 17.1875 27.398438 17.1875 C 27.171875 17.1875 26.984375 17 26.984375 16.769531 C 26.984375 16.542969 27.171875 16.355469 27.398438 16.355469 Z M 29.511719 16.355469 C 29.742188 16.355469 29.925781 16.542969 29.925781 16.769531 C 29.925781 17 29.742188 17.1875 29.511719 17.1875 C 29.28125 17.1875 29.097656 17 29.097656 16.769531 C 29.097656 16.542969 29.28125 16.355469 29.511719 16.355469 Z M 25.285156 16.355469 C 25.515625 16.355469 25.703125 16.542969 25.703125 16.769531 C 25.703125 17 25.515625 17.1875 25.285156 17.1875 C 25.058594 17.1875 24.871094 17 24.871094 16.769531 C 24.871094 16.542969 25.058594 16.355469 25.285156 16.355469 Z M 3.679688 16.59375 C 3.679688 16.867188 3.902344 17.09375 4.179688 17.09375 L 4.789062 17.097656 L 4.789062 16.097656 L 4.179688 16.097656 C 3.910156 16.09375 3.679688 16.320312 3.679688 16.59375 Z M 5.507812 18.710938 C 5.609375 19.046875 5.097656 19.199219 4.996094 18.863281 L 4.625 17.632812 L 4.175781 17.628906 C 3.605469 17.628906 3.140625 17.160156 3.144531 16.589844 C 3.148438 16.019531 3.613281 15.558594 4.183594 15.5625 L 5.019531 15.566406 L 7.917969 14.664062 C 8.097656 14.609375 8.277344 14.75 8.265625 14.9375 L 8.25 18.300781 C 8.25 18.484375 8.0625 18.613281 7.894531 18.550781 L 5.203125 17.695312 Z M 5.324219 17.167969 L 7.71875 17.933594 L 7.730469 15.285156 L 5.328125 16.035156 Z M 6.089844 12.855469 C 3.925781 12.855469 2.175781 14.609375 2.175781 16.769531 C 2.175781 18.933594 3.925781 20.683594 6.089844 20.683594 C 8.25 20.683594 10 18.933594 10 16.769531 C 10 14.609375 8.25 12.855469 6.089844 12.855469 Z M 6.089844 12.855469 " fill-opacity="1" fill-rule="nonzero"/></g></svg>