<svg xmlns="http://www.w3.org/2000/svg" xmlns:xlink="http://www.w3.org/1999/xlink" width="45" zoomAndPan="magnify" viewBox="0 0 33.75 33.749998" height="45" preserveAspectRatio="xMidYMid meet" version="1.0"><defs><clipPath id="84a31f6749"><path d="M 1.152344 1.152344 L 32.421875 1.152344 L 32.421875 32.421875 L 1.152344 32.421875 Z M 1.152344 1.152344 " clip-rule="nonzero"/></clipPath></defs><path fill="#c4942e" d="M 19.140625 16.765625 C 19.140625 17.082031 19.078125 17.390625 18.957031 17.683594 C 18.835938 17.976562 18.664062 18.234375 18.441406 18.457031 C 18.214844 18.683594 17.957031 18.855469 17.664062 18.976562 C 17.371094 19.097656 17.066406 19.160156 16.746094 19.160156 C 16.429688 19.160156 16.125 19.097656 15.832031 18.976562 C 15.539062 18.855469 15.28125 18.683594 15.054688 18.457031 C 14.832031 18.234375 14.65625 17.976562 14.535156 17.683594 C 14.414062 17.390625 14.355469 17.082031 14.355469 16.765625 C 14.355469 16.449219 14.414062 16.144531 14.535156 15.851562 C 14.65625 15.558594 14.832031 15.296875 15.054688 15.074219 C 15.28125 14.847656 15.539062 14.675781 15.832031 14.554688 C 16.125 14.433594 16.429688 14.371094 16.746094 14.371094 C 17.066406 14.371094 17.371094 14.433594 17.664062 14.554688 C 17.957031 14.675781 18.214844 14.847656 18.441406 15.074219 C 18.664062 15.296875 18.835938 15.558594 18.957031 15.851562 C 19.078125 16.144531 19.140625 16.449219 19.140625 16.765625 Z M 19.140625 16.765625 " fill-opacity="1" fill-rule="nonzero"/><g clip-path="url(#84a31f6749)"><path fill="#c4942e" d="M 32.339844 16.207031 L 28.789062 16.207031 C 28.488281 10.035156 23.476562 5.023438 17.308594 4.761719 L 17.308594 1.171875 L 16.1875 1.171875 L 16.1875 4.726562 C 10.015625 5.023438 5.003906 10.035156 4.742188 16.207031 L 1.152344 16.207031 L 1.152344 17.328125 L 4.707031 17.328125 C 5.003906 23.496094 10.015625 28.507812 16.1875 28.769531 L 16.1875 32.320312 L 17.308594 32.320312 L 17.308594 28.769531 C 23.476562 28.507812 28.488281 23.496094 28.75 17.328125 L 32.304688 17.328125 Z M 27.253906 16.207031 L 25.085938 16.207031 C 24.824219 12.015625 21.460938 8.6875 17.269531 8.390625 L 17.269531 6.222656 C 22.65625 6.519531 26.992188 10.859375 27.253906 16.207031 Z M 24.078125 17.328125 C 23.816406 20.917969 20.9375 23.796875 17.308594 24.09375 L 17.308594 23.125 L 16.1875 23.125 L 16.1875 24.09375 C 12.597656 23.832031 9.71875 20.953125 9.417969 17.328125 L 10.390625 17.328125 L 10.390625 16.207031 L 9.417969 16.207031 C 9.679688 12.617188 12.558594 9.734375 16.1875 9.4375 L 16.1875 10.410156 L 17.308594 10.410156 L 17.308594 9.4375 C 20.898438 9.699219 23.777344 12.578125 24.078125 16.207031 L 23.105469 16.207031 L 23.105469 17.328125 Z M 16.1875 6.257812 L 16.1875 8.425781 C 12 8.6875 8.671875 12.054688 8.371094 16.242188 L 6.203125 16.242188 C 6.5 10.859375 10.839844 6.519531 16.1875 6.257812 Z M 6.238281 17.328125 L 8.410156 17.328125 C 8.671875 21.515625 12.035156 24.84375 16.222656 25.140625 L 16.222656 27.3125 C 10.839844 27.011719 6.5 22.675781 6.238281 17.328125 Z M 17.308594 27.273438 L 17.308594 25.105469 C 21.496094 24.84375 24.824219 21.476562 25.125 17.289062 L 27.292969 17.289062 C 26.992188 22.675781 22.65625 27.011719 17.308594 27.273438 Z M 17.308594 27.273438 " fill-opacity="1" fill-rule="nonzero"/></g></svg>