<svg xmlns="http://www.w3.org/2000/svg" xmlns:xlink="http://www.w3.org/1999/xlink" width="45" zoomAndPan="magnify" viewBox="0 0 33.75 33.749998" height="45" preserveAspectRatio="xMidYMid meet" version="1.0"><defs><clipPath id="9604e1e4c3"><path d="M 2.242188 5.019531 L 31.277344 5.019531 L 31.277344 28.839844 L 2.242188 28.839844 Z M 2.242188 5.019531 " clip-rule="nonzero"/></clipPath></defs><g clip-path="url(#9604e1e4c3)"><path fill="#2f7cee" d="M 30.863281 20.203125 C 30.558594 17.902344 30.023438 15.542969 28.855469 13.9375 C 28.089844 12.890625 27.066406 12.164062 25.664062 11.875 C 23.6875 11.472656 20.933594 11.9375 19.375 13.253906 C 18.425781 14.058594 17.847656 15.132812 17.480469 16.375 C 17.472656 16.398438 17.453125 16.417969 17.425781 16.417969 L 16.082031 16.417969 C 16.054688 16.417969 16.03125 16.398438 16.023438 16.375 C 15.65625 15.132812 15.078125 14.058594 14.128906 13.253906 C 12.570312 11.9375 9.820312 11.472656 7.839844 11.875 C 4.445312 12.570312 3.34375 15.890625 2.792969 19.183594 C 2.441406 21.277344 2.308594 23.523438 2.261719 25.394531 C 2.246094 26.03125 2.460938 26.582031 2.90625 27.035156 C 3.347656 27.492188 3.894531 27.722656 4.53125 27.722656 L 12.6875 27.722656 C 13.574219 27.707031 14.566406 27.652344 15.195312 27.285156 C 15.203125 27.277344 15.214844 27.277344 15.226562 27.277344 L 19.605469 27.277344 C 19.628906 27.277344 19.644531 27.265625 19.65625 27.25 C 19.667969 27.234375 19.671875 27.214844 19.664062 27.195312 C 19.035156 25.492188 20.289062 23.625 22.15625 23.625 C 22.554688 23.625 22.945312 23.714844 23.300781 23.886719 C 23.308594 23.890625 23.320312 23.890625 23.332031 23.890625 L 26.234375 23.644531 C 26.296875 23.640625 26.339844 23.589844 26.332031 23.527344 L 25.988281 20.273438 L 26.003906 20.273438 L 25.804688 18.402344 C 25.78125 18.15625 25.960938 17.933594 26.207031 17.90625 C 26.457031 17.882812 26.679688 18.0625 26.703125 18.3125 L 26.90625 20.21875 C 26.910156 20.25 26.933594 20.273438 26.964844 20.273438 L 30.804688 20.273438 C 30.824219 20.273438 30.839844 20.265625 30.851562 20.253906 C 30.863281 20.238281 30.867188 20.222656 30.863281 20.203125 Z M 16.046875 26.269531 C 16.574219 24.835938 14.910156 23.339844 13.117188 24.730469 C 12.976562 24.839844 12.84375 24.953125 12.714844 25.070312 C 12.699219 25.082031 12.675781 25.089844 12.65625 25.082031 L 12 24.886719 C 11.996094 24.886719 11.992188 24.886719 11.988281 24.886719 L 7.648438 24.511719 C 6.824219 24.441406 6.214844 23.714844 6.304688 22.886719 L 6.851562 17.695312 C 6.878906 17.445312 7.097656 17.265625 7.347656 17.289062 C 7.59375 17.316406 7.777344 17.539062 7.75 17.785156 L 7.203125 22.976562 C 7.167969 23.296875 7.394531 23.582031 7.722656 23.609375 L 11.363281 23.921875 L 11.363281 23.925781 L 12.277344 24 C 12.304688 24.003906 12.328125 23.988281 12.339844 23.964844 L 14.976562 17.378906 C 14.988281 17.355469 15.007812 17.34375 15.035156 17.34375 C 16.84375 17.34375 18.652344 17.34375 20.464844 17.34375 C 20.484375 17.34375 20.5 17.351562 20.511719 17.371094 C 20.523438 17.386719 20.527344 17.40625 20.519531 17.425781 L 16.957031 26.3125 C 16.949219 26.335938 16.925781 26.351562 16.902344 26.351562 L 16.101562 26.351562 C 16.082031 26.351562 16.066406 26.339844 16.054688 26.324219 C 16.042969 26.308594 16.039062 26.289062 16.046875 26.269531 Z M 10.46875 5.015625 C 12.09375 5.015625 13.40625 6.332031 13.40625 7.953125 C 13.40625 9.578125 12.09375 10.890625 10.46875 10.890625 C 8.847656 10.890625 7.53125 9.578125 7.53125 7.953125 C 7.53125 6.332031 8.847656 5.015625 10.46875 5.015625 Z M 23.105469 5.015625 C 21.484375 5.015625 20.167969 6.332031 20.167969 7.953125 C 20.167969 9.578125 21.484375 10.890625 23.105469 10.890625 C 24.730469 10.890625 26.042969 9.578125 26.042969 7.953125 C 26.042969 6.332031 24.730469 5.015625 23.105469 5.015625 Z M 23.144531 27.722656 C 23.128906 27.722656 23.121094 27.726562 23.109375 27.730469 C 21.972656 28.480469 20.421875 27.671875 20.421875 26.28125 C 20.421875 25.320312 21.199219 24.542969 22.15625 24.542969 C 22.503906 24.542969 22.824219 24.644531 23.09375 24.820312 C 23.105469 24.828125 23.117188 24.828125 23.132812 24.828125 L 26.3125 24.558594 C 26.886719 24.511719 27.304688 24.003906 27.246094 23.429688 L 27.015625 21.257812 C 27.011719 21.242188 27.019531 21.222656 27.03125 21.210938 C 27.042969 21.199219 27.058594 21.191406 27.074219 21.191406 L 30.929688 21.191406 C 30.957031 21.191406 30.984375 21.214844 30.988281 21.246094 C 31.140625 22.691406 31.210938 24.128906 31.242188 25.394531 C 31.257812 26.03125 31.042969 26.582031 30.597656 27.035156 C 30.15625 27.492188 29.609375 27.722656 28.972656 27.722656 Z M 23.144531 27.722656 " fill-opacity="1" fill-rule="evenodd"/></g></svg>