<svg xmlns="http://www.w3.org/2000/svg" xmlns:xlink="http://www.w3.org/1999/xlink" width="45" zoomAndPan="magnify" viewBox="0 0 33.75 33.749998" height="45" preserveAspectRatio="xMidYMid meet" version="1.0"><defs><clipPath id="23b3fe9fe5"><path d="M 2 4.082031 L 31.269531 4.082031 L 31.269531 29.394531 L 2 29.394531 Z M 2 4.082031 " clip-rule="nonzero"/></clipPath></defs><g clip-path="url(#23b3fe9fe5)"><path fill="#c4942e" d="M 22.015625 7.292969 C 20 5.8125 17.59375 5.03125 15.089844 5.03125 C 5.90625 5.03125 0.425781 15.082031 5.035156 22.769531 C 5.167969 22.988281 5.097656 23.277344 4.875 23.410156 C 4.652344 23.542969 4.367188 23.46875 4.234375 23.246094 C -0.746094 14.945312 5.167969 4.09375 15.089844 4.09375 C 17.722656 4.09375 20.277344 4.90625 22.417969 6.429688 L 22.207031 5.683594 C 22.136719 5.433594 22.28125 5.175781 22.527344 5.105469 C 22.777344 5.03125 23.035156 5.175781 23.109375 5.425781 L 23.722656 7.589844 C 23.8125 7.894531 23.570312 8.195312 23.257812 8.183594 L 21.042969 8.265625 C 20.785156 8.273438 20.570312 8.070312 20.558594 7.8125 C 20.550781 7.554688 20.753906 7.339844 21.011719 7.328125 Z M 29.167969 6.851562 C 29.101562 7.101562 28.84375 7.25 28.59375 7.183594 C 28.34375 7.117188 28.195312 6.859375 28.261719 6.609375 L 28.449219 5.914062 C 28.515625 5.664062 28.773438 5.515625 29.023438 5.585938 C 29.273438 5.652344 29.421875 5.90625 29.355469 6.15625 Z M 30.417969 8.296875 C 30.195312 8.425781 29.910156 8.347656 29.777344 8.125 C 29.648438 7.902344 29.726562 7.613281 29.949219 7.484375 L 30.570312 7.125 C 30.796875 6.996094 31.082031 7.074219 31.210938 7.296875 C 31.339844 7.519531 31.265625 7.804688 31.039062 7.9375 Z M 31.183594 9.484375 C 31.433594 9.550781 31.582031 9.808594 31.515625 10.058594 C 31.449219 10.308594 31.191406 10.457031 30.941406 10.390625 L 30.246094 10.207031 C 29.996094 10.136719 29.847656 9.882812 29.914062 9.632812 C 29.980469 9.382812 30.238281 9.234375 30.488281 9.300781 Z M 22.84375 10.113281 L 21.273438 11.019531 C 20.453125 11.492188 20.167969 12.550781 20.644531 13.371094 C 21.117188 14.195312 22.175781 14.476562 22.996094 14.003906 L 24.566406 13.097656 Z M 23.519531 9.410156 L 25.492188 12.824219 C 26.289062 12.640625 27.097656 12.589844 27.898438 12.585938 L 24.898438 7.390625 C 24.492188 8.078125 24.050781 8.789062 23.519531 9.410156 Z M 25.4375 6.457031 L 28.992188 12.609375 C 29.046875 12.613281 29.097656 12.613281 29.152344 12.617188 C 29.566406 12.632812 29.832031 12.191406 29.628906 11.832031 L 28.566406 10 L 28.609375 9.972656 C 29.097656 9.691406 29.265625 9.070312 28.984375 8.582031 C 28.703125 8.097656 28.078125 7.929688 27.59375 8.210938 L 27.550781 8.234375 L 26.433594 6.304688 C 26.234375 5.957031 25.734375 5.953125 25.53125 6.296875 C 25.5 6.351562 25.46875 6.402344 25.4375 6.457031 Z M 26.136719 15.820312 L 25.851562 15.988281 C 25.398438 16.246094 24.816406 16.09375 24.558594 15.640625 L 23.925781 14.550781 L 24.964844 13.953125 C 24.988281 13.941406 25.015625 13.933594 25.042969 13.925781 Z M 11.320312 16.429688 L 13.742188 14.542969 L 16.125 15.316406 C 16.300781 15.371094 16.480469 15.320312 16.601562 15.199219 L 18.421875 13.363281 C 18.496094 13.460938 18.609375 13.53125 18.742188 13.546875 C 19 13.574219 19.230469 13.386719 19.257812 13.132812 L 19.351562 12.308594 C 19.402344 12.011719 19.152344 11.734375 18.847656 11.761719 L 17.996094 11.835938 C 17.738281 11.859375 17.546875 12.085938 17.566406 12.34375 C 17.582031 12.492188 17.660156 12.613281 17.769531 12.691406 L 16.140625 14.335938 L 13.792969 13.578125 C 13.652344 13.53125 13.488281 13.554688 13.363281 13.652344 L 10.742188 15.691406 C 10.539062 15.851562 10.503906 16.144531 10.664062 16.347656 C 10.824219 16.550781 11.117188 16.589844 11.320312 16.429688 Z M 10.621094 17.746094 C 10.457031 17.746094 10.328125 17.875 10.328125 18.039062 L 10.328125 20.207031 C 10.328125 20.367188 10.457031 20.5 10.621094 20.5 L 11.445312 20.5 C 11.605469 20.5 11.738281 20.367188 11.738281 20.207031 L 11.738281 18.039062 C 11.738281 17.875 11.605469 17.746094 11.445312 17.746094 Z M 18.476562 14.734375 C 18.316406 14.734375 18.183594 14.867188 18.183594 15.027344 L 18.183594 20.207031 C 18.183594 20.367188 18.316406 20.5 18.476562 20.5 L 19.300781 20.5 C 19.460938 20.5 19.59375 20.367188 19.59375 20.207031 L 19.59375 15.027344 C 19.59375 14.867188 19.460938 14.734375 19.300781 14.734375 Z M 15.855469 16.585938 C 15.695312 16.585938 15.5625 16.71875 15.5625 16.878906 C 15.5625 18.210938 15.5625 18.875 15.5625 20.207031 C 15.5625 20.367188 15.695312 20.5 15.855469 20.5 C 16.132812 20.5 16.40625 20.5 16.679688 20.5 C 16.84375 20.5 16.972656 20.367188 16.972656 20.207031 C 16.972656 18.875 16.972656 18.210938 16.972656 16.878906 C 16.972656 16.71875 16.84375 16.585938 16.679688 16.585938 C 16.40625 16.585938 16.132812 16.585938 15.855469 16.585938 Z M 13.238281 16 C 13.078125 16 12.945312 16.128906 12.945312 16.292969 L 12.945312 20.207031 C 12.945312 20.367188 13.078125 20.5 13.238281 20.5 L 14.0625 20.5 C 14.222656 20.5 14.355469 20.367188 14.355469 20.207031 L 14.355469 16.292969 C 14.355469 16.128906 14.222656 16 14.0625 16 Z M 17.0625 8.488281 L 16.429688 6.847656 L 13.75 6.847656 L 13.121094 8.488281 C 12.246094 8.695312 11.410156 9.042969 10.644531 9.511719 L 9.039062 8.796875 L 7.144531 10.695312 L 7.855469 12.300781 C 7.386719 13.066406 7.039062 13.902344 6.832031 14.777344 L 5.191406 15.40625 L 5.191406 18.085938 L 6.832031 18.71875 C 7.039062 19.59375 7.386719 20.429688 7.855469 21.195312 L 7.144531 22.800781 L 9.039062 24.695312 L 10.644531 23.980469 C 11.410156 24.453125 12.246094 24.800781 13.121094 25.007812 L 13.75 26.648438 L 16.433594 26.648438 L 17.0625 25.007812 C 17.9375 24.800781 18.773438 24.453125 19.539062 23.980469 L 21.144531 24.695312 L 23.039062 22.800781 L 22.328125 21.191406 C 22.796875 20.429688 23.144531 19.59375 23.351562 18.71875 L 24.992188 18.085938 L 24.992188 17.011719 C 24.484375 16.90625 24.023438 16.59375 23.746094 16.109375 L 23.097656 14.992188 C 22.75 15.128906 22.382812 15.183594 22.023438 15.167969 C 22.140625 15.675781 22.199219 16.203125 22.199219 16.746094 C 22.199219 20.671875 19.019531 23.855469 15.089844 23.855469 C 11.164062 23.855469 7.984375 20.671875 7.984375 16.746094 C 7.984375 12.820312 11.164062 9.636719 15.089844 9.636719 C 16.867188 9.636719 18.492188 10.289062 19.734375 11.367188 C 19.960938 10.894531 20.320312 10.484375 20.804688 10.207031 L 21.914062 9.566406 L 21.144531 8.796875 L 19.539062 9.511719 C 18.773438 9.042969 17.9375 8.695312 17.0625 8.488281 Z M 7.976562 27.8125 L 7.765625 27.066406 C 9.90625 28.589844 12.460938 29.402344 15.089844 29.402344 C 23.433594 29.402344 29.417969 21.5 27.335938 13.535156 C 27.015625 13.550781 26.699219 13.574219 26.386719 13.617188 C 28.433594 21.015625 22.882812 28.464844 15.089844 28.464844 C 12.589844 28.464844 10.183594 27.679688 8.167969 26.199219 L 9.171875 26.164062 C 9.429688 26.15625 9.632812 25.9375 9.625 25.679688 C 9.613281 25.421875 9.398438 25.222656 9.140625 25.230469 L 6.925781 25.308594 C 6.613281 25.296875 6.371094 25.597656 6.457031 25.90625 L 7.074219 28.066406 C 7.148438 28.316406 7.40625 28.460938 7.65625 28.390625 C 7.902344 28.320312 8.046875 28.0625 7.976562 27.8125 Z M 7.976562 27.8125 " fill-opacity="1" fill-rule="evenodd"/></g></svg>