<svg xmlns="http://www.w3.org/2000/svg" xmlns:xlink="http://www.w3.org/1999/xlink" width="45" zoomAndPan="magnify" viewBox="0 0 33.75 33.749998" height="45" preserveAspectRatio="xMidYMid meet" version="1.0"><defs><clipPath id="40c5065d7b"><path d="M 3.089844 3.089844 L 30.636719 3.089844 L 30.636719 30.636719 L 3.089844 30.636719 Z M 3.089844 3.089844 " clip-rule="nonzero"/></clipPath></defs><g clip-path="url(#40c5065d7b)"><path fill="#c4942e" d="M 5.296875 11.378906 C 5.265625 12.550781 3.542969 12.550781 3.511719 11.378906 C 3.542969 10.203125 5.265625 10.203125 5.296875 11.378906 Z M 11.53125 3.355469 C 10.359375 3.386719 10.359375 5.109375 11.53125 5.140625 C 12.707031 5.109375 12.707031 3.386719 11.53125 3.355469 Z M 4.402344 21.179688 C 3.230469 21.210938 3.230469 22.933594 4.402344 22.960938 C 5.578125 22.933594 5.578125 21.210938 4.402344 21.179688 Z M 11.53125 28.308594 C 10.359375 28.339844 10.359375 30.0625 11.53125 30.089844 C 12.707031 30.0625 12.707031 28.339844 11.53125 28.308594 Z M 28.464844 11.378906 C 28.496094 12.550781 30.21875 12.550781 30.246094 11.378906 C 30.21875 10.203125 28.492188 10.203125 28.464844 11.378906 Z M 21.335938 4.25 C 21.367188 5.421875 23.089844 5.421875 23.117188 4.25 C 23.089844 3.074219 21.363281 3.074219 21.335938 4.25 Z M 28.464844 22.070312 C 28.496094 23.246094 30.21875 23.246094 30.246094 22.070312 C 30.21875 20.894531 28.492188 20.894531 28.464844 22.070312 Z M 21.335938 29.199219 C 21.367188 30.375 23.089844 30.375 23.117188 29.199219 C 23.089844 28.023438 21.363281 28.023438 21.335938 29.199219 Z M 20.890625 4.25 C 20.890625 4.003906 20.691406 3.800781 20.445312 3.800781 L 13.316406 3.800781 C 13.070312 3.800781 12.871094 4.003906 12.871094 4.25 C 12.871094 4.492188 13.070312 4.695312 13.316406 4.695312 L 20.445312 4.695312 C 20.691406 4.695312 20.890625 4.492188 20.890625 4.25 Z M 28.335938 10.355469 C 28.507812 10.179688 28.507812 9.898438 28.335938 9.726562 L 23.878906 5.269531 C 23.703125 5.09375 23.421875 5.09375 23.25 5.269531 C 23.074219 5.445312 23.074219 5.726562 23.25 5.898438 L 27.703125 10.355469 C 27.878906 10.53125 28.160156 10.53125 28.335938 10.355469 Z M 29.800781 20.289062 L 29.800781 13.160156 C 29.800781 12.914062 29.601562 12.714844 29.355469 12.714844 C 29.109375 12.714844 28.910156 12.914062 28.910156 13.160156 L 28.910156 20.289062 C 28.917969 20.871094 29.792969 20.875 29.800781 20.289062 Z M 23.878906 28.179688 L 28.335938 23.722656 C 28.507812 23.546875 28.507812 23.265625 28.335938 23.09375 C 28.160156 22.917969 27.878906 22.917969 27.703125 23.09375 L 23.25 27.546875 C 22.839844 27.960938 23.464844 28.589844 23.878906 28.179688 Z M 20.890625 29.199219 C 20.890625 28.953125 20.691406 28.753906 20.445312 28.753906 L 13.316406 28.753906 C 13.070312 28.753906 12.871094 28.953125 12.871094 29.199219 C 12.871094 29.445312 13.070312 29.644531 13.316406 29.644531 L 20.445312 29.644531 C 20.691406 29.644531 20.890625 29.445312 20.890625 29.199219 Z M 10.511719 28.179688 C 10.6875 28.003906 10.6875 27.722656 10.511719 27.546875 L 6.054688 23.09375 C 5.882812 22.917969 5.601562 22.917969 5.425781 23.09375 C 5.25 23.265625 5.25 23.546875 5.425781 23.722656 L 9.882812 28.179688 C 10.054688 28.351562 10.335938 28.351562 10.511719 28.179688 Z M 4.847656 20.289062 L 4.847656 13.160156 C 4.847656 12.914062 4.648438 12.714844 4.402344 12.714844 C 4.15625 12.714844 3.957031 12.914062 3.957031 13.160156 L 3.957031 20.289062 C 3.96875 20.871094 4.839844 20.875 4.847656 20.289062 Z M 6.054688 10.355469 L 10.511719 5.898438 C 10.6875 5.726562 10.6875 5.445312 10.511719 5.269531 C 10.335938 5.09375 10.054688 5.09375 9.882812 5.269531 L 5.425781 9.726562 C 5.015625 10.136719 5.640625 10.765625 6.054688 10.355469 Z M 11.449219 23.554688 C 14 23.554688 14.867188 22.054688 14.890625 19.585938 C 14.855469 18.238281 14.941406 17.097656 13.679688 16.472656 C 14.710938 16.070312 14.828125 15.207031 14.859375 14.082031 C 14.859375 11.828125 13.78125 10.703125 11.628906 10.703125 C 10.507812 10.703125 9.675781 10.976562 9.132812 11.523438 C 8.511719 12.085938 8.230469 13.375 8.324219 14.523438 L 10.949219 14.523438 C 10.945312 14.234375 10.949219 14.054688 11 13.714844 C 11.066406 13.300781 11.136719 13.023438 11.640625 13.035156 C 12.054688 13.035156 12.261719 13.394531 12.261719 14.113281 C 12.261719 15.019531 11.789062 15.375 10.90625 15.378906 L 10.90625 17.652344 C 11.761719 17.527344 12.242188 18.058594 12.230469 19.277344 C 12.207031 19.910156 12.3125 20.507812 12.03125 20.988281 C 11.828125 21.34375 11.117188 21.246094 10.992188 20.890625 C 10.761719 20.472656 10.867188 19.195312 10.84375 18.671875 L 8.246094 18.671875 C 8.164062 21.265625 8.320312 23.574219 11.449219 23.554688 Z M 18.238281 23.40625 L 18.238281 21.253906 L 15.65625 21.253906 L 15.65625 23.40625 Z M 22.28125 23.527344 C 24.484375 23.53125 25.65625 22.234375 25.644531 20.027344 L 25.644531 14.304688 C 25.644531 12.007812 24.617188 10.613281 22.28125 10.613281 C 19.957031 10.613281 18.933594 12.015625 18.929688 14.304688 L 18.929688 20.027344 C 18.917969 22.210938 20.09375 23.535156 22.28125 23.527344 Z M 22.28125 21.195312 C 21.855469 21.195312 21.660156 20.71875 21.660156 20.324219 L 21.660156 14.066406 C 21.695312 13.488281 21.648438 12.96875 22.28125 12.945312 C 22.910156 12.96875 22.882812 13.488281 22.914062 14.066406 L 22.914062 20.324219 C 22.921875 20.722656 22.703125 21.195312 22.28125 21.195312 Z M 22.28125 21.195312 " fill-opacity="1" fill-rule="nonzero"/></g></svg>