<svg xmlns="http://www.w3.org/2000/svg" xmlns:xlink="http://www.w3.org/1999/xlink" width="45" zoomAndPan="magnify" viewBox="0 0 33.75 33.749998" height="45" preserveAspectRatio="xMidYMid meet" version="1.0"><defs><clipPath id="a82ecca44b"><path d="M 2.792969 2.792969 L 31 2.792969 L 31 31 L 2.792969 31 Z M 2.792969 2.792969 " clip-rule="nonzero"/></clipPath></defs><g clip-path="url(#a82ecca44b)"><path fill="#ffffff" d="M 2.839844 25.59375 C 2.84375 25.609375 2.847656 25.625 2.855469 25.640625 C 2.863281 25.65625 2.867188 25.667969 2.878906 25.675781 C 2.890625 25.691406 2.90625 25.707031 2.914062 25.71875 L 2.929688 25.734375 L 9.761719 30.6875 C 9.769531 30.695312 9.773438 30.6875 9.777344 30.695312 C 9.820312 30.71875 9.867188 30.742188 9.917969 30.742188 C 9.96875 30.742188 10.011719 30.71875 10.050781 30.695312 C 10.058594 30.6875 10.0625 30.695312 10.066406 30.6875 L 16.75 25.839844 L 23.433594 30.6875 C 23.441406 30.695312 23.445312 30.6875 23.449219 30.695312 C 23.492188 30.71875 23.53125 30.742188 23.582031 30.742188 C 23.636719 30.742188 23.679688 30.71875 23.722656 30.695312 C 23.726562 30.6875 23.734375 30.695312 23.738281 30.6875 L 30.570312 25.734375 L 30.585938 25.71875 C 30.597656 25.707031 30.613281 25.691406 30.621094 25.675781 C 30.632812 25.667969 30.636719 25.65625 30.648438 25.640625 C 30.652344 25.625 30.660156 25.609375 30.664062 25.59375 C 30.667969 25.578125 30.675781 25.5625 30.675781 25.542969 C 30.675781 25.539062 30.679688 25.53125 30.679688 25.523438 L 30.679688 19.253906 C 30.679688 19.214844 30.667969 19.175781 30.652344 19.148438 C 30.648438 19.136719 30.636719 19.132812 30.632812 19.121094 C 30.617188 19.09375 30.601562 19.074219 30.582031 19.058594 C 30.578125 19.054688 30.578125 19.050781 30.570312 19.050781 L 23.839844 14.164062 L 23.839844 8.027344 C 23.839844 7.988281 23.832031 7.953125 23.816406 7.917969 C 23.808594 7.90625 23.804688 7.902344 23.800781 7.890625 C 23.785156 7.871094 23.769531 7.851562 23.75 7.835938 C 23.742188 7.832031 23.742188 7.824219 23.738281 7.820312 L 16.898438 2.863281 C 16.8125 2.796875 16.6875 2.796875 16.601562 2.863281 L 9.761719 7.820312 C 9.757812 7.824219 9.757812 7.832031 9.753906 7.835938 C 9.734375 7.851562 9.71875 7.871094 9.703125 7.890625 C 9.695312 7.902344 9.691406 7.90625 9.6875 7.917969 C 9.671875 7.953125 9.660156 7.988281 9.660156 8.027344 L 9.660156 14.164062 L 2.929688 19.050781 C 2.925781 19.050781 2.925781 19.054688 2.921875 19.058594 C 2.898438 19.074219 2.882812 19.09375 2.867188 19.121094 C 2.863281 19.132812 2.851562 19.136719 2.847656 19.148438 C 2.832031 19.175781 2.824219 19.214844 2.824219 19.253906 L 2.824219 25.523438 C 2.824219 25.53125 2.828125 25.539062 2.828125 25.542969 C 2.828125 25.5625 2.832031 25.578125 2.839844 25.59375 Z M 23.328125 29.980469 L 17.007812 25.394531 L 17.007812 19.757812 L 23.328125 24.339844 Z M 29.984375 19.253906 L 23.582031 23.890625 L 17.1875 19.253906 L 23.582031 14.617188 Z M 16.75 3.386719 L 23.148438 8.027344 L 16.75 12.667969 L 10.355469 8.027344 Z M 10.175781 8.535156 L 16.492188 13.117188 L 16.492188 18.75 L 15.660156 18.144531 L 10.175781 14.164062 Z M 9.917969 14.617188 L 16.3125 19.253906 L 9.917969 23.890625 L 3.515625 19.253906 Z M 3.335938 19.757812 L 9.660156 24.339844 L 9.660156 29.980469 L 3.335938 25.394531 Z M 3.335938 19.757812 " fill-opacity="1" fill-rule="nonzero"/></g><path fill="#ffffff" d="M 10.121094 15.539062 C 10.039062 15.421875 9.875 15.398438 9.761719 15.484375 L 6.65625 17.769531 C 6.539062 17.851562 6.515625 18.015625 6.601562 18.128906 C 6.652344 18.195312 6.730469 18.234375 6.808594 18.234375 C 6.859375 18.234375 6.914062 18.21875 6.960938 18.183594 L 10.066406 15.898438 C 10.183594 15.8125 10.207031 15.652344 10.121094 15.539062 Z M 10.121094 15.539062 " fill-opacity="1" fill-rule="nonzero"/><path fill="#ffffff" d="M 5.578125 18.5625 L 5.128906 18.890625 C 5.015625 18.976562 4.992188 19.136719 5.074219 19.25 C 5.125 19.320312 5.203125 19.355469 5.28125 19.355469 C 5.335938 19.355469 5.390625 19.339844 5.433594 19.304688 L 5.882812 18.972656 C 6 18.890625 6.023438 18.730469 5.9375 18.613281 C 5.855469 18.5 5.691406 18.476562 5.578125 18.5625 Z M 5.578125 18.5625 " fill-opacity="1" fill-rule="nonzero"/><path fill="#ffffff" d="M 17.101562 4.320312 C 17.019531 4.207031 16.855469 4.183594 16.742188 4.265625 L 13.636719 6.554688 C 13.519531 6.636719 13.496094 6.796875 13.582031 6.914062 C 13.632812 6.980469 13.710938 7.019531 13.789062 7.019531 C 13.839844 7.019531 13.894531 7 13.941406 6.96875 L 17.046875 4.683594 C 17.164062 4.597656 17.1875 4.4375 17.101562 4.324219 Z M 17.101562 4.320312 " fill-opacity="1" fill-rule="nonzero"/><path fill="#ffffff" d="M 12.558594 7.34375 L 12.109375 7.675781 C 11.996094 7.761719 11.96875 7.921875 12.054688 8.035156 C 12.105469 8.101562 12.183594 8.140625 12.261719 8.140625 C 12.316406 8.140625 12.367188 8.125 12.414062 8.089844 L 12.863281 7.757812 C 12.976562 7.675781 13.003906 7.515625 12.917969 7.398438 C 12.832031 7.285156 12.671875 7.261719 12.558594 7.34375 Z M 12.558594 7.34375 " fill-opacity="1" fill-rule="nonzero"/><path fill="#ffffff" d="M 25.113281 21.640625 C 25.164062 21.640625 25.21875 21.625 25.265625 21.589844 L 28.371094 19.304688 C 28.488281 19.222656 28.511719 19.058594 28.425781 18.945312 C 28.34375 18.832031 28.179688 18.808594 28.066406 18.890625 L 24.960938 21.175781 C 24.84375 21.261719 24.820312 21.421875 24.90625 21.535156 C 24.957031 21.605469 25.035156 21.640625 25.113281 21.640625 Z M 25.113281 21.640625 " fill-opacity="1" fill-rule="nonzero"/><path fill="#ffffff" d="M 23.378906 22.660156 C 23.429688 22.726562 23.507812 22.765625 23.585938 22.765625 C 23.640625 22.765625 23.691406 22.746094 23.738281 22.714844 L 24.1875 22.382812 C 24.300781 22.300781 24.328125 22.136719 24.242188 22.023438 C 24.15625 21.910156 23.996094 21.886719 23.882812 21.96875 L 23.433594 22.300781 C 23.320312 22.382812 23.292969 22.542969 23.378906 22.660156 Z M 23.378906 22.660156 " fill-opacity="1" fill-rule="nonzero"/></svg>