<svg xmlns="http://www.w3.org/2000/svg" xmlns:xlink="http://www.w3.org/1999/xlink" width="45" zoomAndPan="magnify" viewBox="0 0 33.75 33.749998" height="45" preserveAspectRatio="xMidYMid meet" version="1.0"><defs><clipPath id="86f0025214"><path d="M 14.183594 15.007812 L 29.0625 15.007812 L 29.0625 28.132812 L 14.183594 28.132812 Z M 14.183594 15.007812 " clip-rule="nonzero"/></clipPath><clipPath id="2b38c417e3"><path d="M 18 5 L 21.308594 5 L 21.308594 9 L 18 9 Z M 18 5 " clip-rule="nonzero"/></clipPath><clipPath id="05e7fd2b37"><path d="M 19 8 L 21.308594 8 L 21.308594 11 L 19 11 Z M 19 8 " clip-rule="nonzero"/></clipPath><clipPath id="16cae3520e"><path d="M 18 13 L 21.308594 13 L 21.308594 17 L 18 17 Z M 18 13 " clip-rule="nonzero"/></clipPath><clipPath id="63e687fa21"><path d="M 19 11 L 21.308594 11 L 21.308594 14 L 19 14 Z M 19 11 " clip-rule="nonzero"/></clipPath><clipPath id="1dcd1cc06b"><path d="M 13 18 L 17 18 L 17 21.351562 L 13 21.351562 Z M 13 18 " clip-rule="nonzero"/></clipPath><clipPath id="5494b80f21"><path d="M 11 19 L 14 19 L 14 21.351562 L 11 21.351562 Z M 11 19 " clip-rule="nonzero"/></clipPath><clipPath id="bf18cbb297"><path d="M 8 19 L 11 19 L 11 21.351562 L 8 21.351562 Z M 8 19 " clip-rule="nonzero"/></clipPath><clipPath id="b0b33c176f"><path d="M 5 18 L 9 18 L 9 21.351562 L 5 21.351562 Z M 5 18 " clip-rule="nonzero"/></clipPath><clipPath id="414ab5b77a"><path d="M 0.308594 13 L 4 13 L 4 17 L 0.308594 17 Z M 0.308594 13 " clip-rule="nonzero"/></clipPath><clipPath id="1bdc42bbeb"><path d="M 0.308594 11 L 3 11 L 3 14 L 0.308594 14 Z M 0.308594 11 " clip-rule="nonzero"/></clipPath><clipPath id="bf88c03584"><path d="M 0.308594 8 L 3 8 L 3 11 L 0.308594 11 Z M 0.308594 8 " clip-rule="nonzero"/></clipPath><clipPath id="1e96699111"><path d="M 0.308594 5 L 4 5 L 4 9 L 0.308594 9 Z M 0.308594 5 " clip-rule="nonzero"/></clipPath><clipPath id="89ce47facb"><path d="M 8 0.351562 L 11 0.351562 L 11 3 L 8 3 Z M 8 0.351562 " clip-rule="nonzero"/></clipPath><clipPath id="7ab9929162"><path d="M 5 0.351562 L 9 0.351562 L 9 4 L 5 4 Z M 5 0.351562 " clip-rule="nonzero"/></clipPath><clipPath id="be6032b308"><path d="M 11 0.351562 L 14 0.351562 L 14 3 L 11 3 Z M 11 0.351562 " clip-rule="nonzero"/></clipPath><clipPath id="2e4bb5904b"><path d="M 13 0.351562 L 17 0.351562 L 17 4 L 13 4 Z M 13 0.351562 " clip-rule="nonzero"/></clipPath><clipPath id="29df4086ab"><rect x="0" width="30" y="0" height="29"/></clipPath></defs><g transform="matrix(1, 0, 0, 1, 2, 3)"><g clip-path="url(#29df4086ab)"><g clip-path="url(#86f0025214)"><path fill="#2f7cee" d="M 19.519531 25.496094 L 20.9375 27.34375 C 21.066406 27.507812 21.046875 27.746094 20.890625 27.890625 L 20.398438 28.332031 C 20.3125 28.410156 20.207031 28.445312 20.089844 28.4375 C 19.972656 28.425781 19.875 28.371094 19.804688 28.277344 L 18.230469 26.238281 Z M 27.3125 20.757812 L 28.757812 20.757812 C 28.988281 20.757812 29.175781 20.566406 29.175781 20.335938 C 29.175781 20.105469 28.988281 19.917969 28.757812 19.917969 L 27.308594 19.917969 C 27.078125 19.917969 26.890625 20.109375 26.890625 20.339844 C 26.890625 20.570312 27.082031 20.757812 27.3125 20.757812 Z M 25.59375 16.949219 L 26.316406 15.695312 C 26.433594 15.496094 26.367188 15.238281 26.164062 15.121094 C 25.964844 15.003906 25.707031 15.074219 25.59375 15.273438 L 24.867188 16.527344 C 24.753906 16.726562 24.820312 16.984375 25.019531 17.101562 C 25.222656 17.214844 25.480469 17.148438 25.59375 16.949219 Z M 27.269531 18.449219 L 28.457031 17.761719 C 28.65625 17.644531 28.726562 17.386719 28.609375 17.1875 C 28.492188 16.984375 28.234375 16.917969 28.035156 17.03125 L 26.847656 17.71875 C 26.644531 17.835938 26.574219 18.09375 26.691406 18.292969 C 26.808594 18.496094 27.066406 18.566406 27.269531 18.449219 Z M 25.398438 20.335938 L 26.800781 22.761719 C 27.0625 23.21875 26.90625 23.804688 26.449219 24.070312 C 26.027344 24.316406 25.484375 24.195312 25.203125 23.804688 C 23.652344 23.570312 21.628906 23.824219 19.621094 24.605469 L 17.691406 21.261719 C 19.375 19.914062 20.605469 18.300781 21.179688 16.839844 C 20.976562 16.398438 21.140625 15.863281 21.570312 15.617188 C 22.027344 15.351562 22.613281 15.511719 22.878906 15.964844 L 24.277344 18.394531 C 24.316406 18.363281 24.359375 18.332031 24.40625 18.308594 C 24.945312 17.996094 25.640625 18.179688 25.953125 18.722656 C 26.265625 19.261719 26.078125 19.957031 25.539062 20.269531 C 25.492188 20.292969 25.445312 20.316406 25.398438 20.335938 Z M 19.136719 24.960938 L 17.113281 21.457031 L 15.503906 22.382812 C 14.527344 22.949219 14.1875 24.210938 14.753906 25.1875 C 15.316406 26.164062 16.578125 26.503906 17.554688 25.9375 L 19.164062 25.011719 Z M 19.136719 24.960938 " fill-opacity="1" fill-rule="evenodd"/></g><path fill="#2f7cee" d="M 10.992188 14.480469 L 13.992188 12.777344 L 13.992188 9.292969 L 10.992188 7.59375 L 7.992188 9.292969 L 7.992188 12.777344 Z M 10.992188 14.480469 " fill-opacity="1" fill-rule="evenodd"/><path fill="#2f7cee" d="M 14.425781 9.164062 L 14.425781 12.902344 C 14.425781 12.980469 14.382812 13.054688 14.3125 13.09375 L 11.097656 14.917969 C 11.066406 14.9375 11.03125 14.945312 10.992188 14.945312 C 10.957031 14.945312 10.917969 14.9375 10.886719 14.917969 L 7.671875 13.09375 C 7.605469 13.054688 7.558594 12.980469 7.558594 12.902344 L 7.558594 9.164062 C 7.558594 9.089844 7.605469 9.015625 7.671875 8.976562 L 10.886719 7.152344 C 10.949219 7.113281 11.035156 7.113281 11.097656 7.152344 L 14.3125 8.976562 C 14.382812 9.015625 14.425781 9.089844 14.425781 9.164062 Z M 8.453125 15.410156 L 10.992188 16.863281 L 13.535156 15.410156 L 16.035156 13.953125 L 16.035156 8.121094 L 13.535156 6.660156 L 10.992188 5.199219 L 8.453125 6.660156 L 5.953125 8.121094 L 5.953125 13.953125 Z M 15.207031 8.820312 C 15.171875 8.820312 15.132812 8.808594 15.097656 8.789062 L 12.972656 7.570312 L 10.882812 6.355469 C 10.777344 6.296875 10.742188 6.164062 10.804688 6.058594 C 10.867188 5.957031 11 5.921875 11.105469 5.980469 L 13.1875 7.199219 L 15.3125 8.414062 C 15.417969 8.472656 15.457031 8.609375 15.398438 8.710938 C 15.351562 8.78125 15.285156 8.820312 15.207031 8.820312 Z M 6.890625 13.28125 L 9.015625 14.492188 L 11.105469 15.710938 C 11.207031 15.773438 11.242188 15.910156 11.183594 16.011719 C 11.136719 16.082031 11.070312 16.117188 10.992188 16.117188 C 10.957031 16.117188 10.917969 16.109375 10.882812 16.085938 L 8.796875 14.875 L 6.671875 13.65625 C 6.570312 13.597656 6.527344 13.464844 6.589844 13.359375 C 6.648438 13.257812 6.78125 13.222656 6.890625 13.28125 Z M 6.890625 13.28125 " fill-opacity="1" fill-rule="evenodd"/><path fill="#2f7cee" d="M 16.46875 7.996094 L 16.46875 14.074219 C 16.46875 14.152344 16.429688 14.222656 16.359375 14.261719 L 13.75 15.785156 L 11.097656 17.304688 C 11.070312 17.324219 11.03125 17.332031 10.992188 17.332031 C 10.957031 17.332031 10.917969 17.324219 10.886719 17.304688 L 8.234375 15.785156 L 5.628906 14.261719 C 5.558594 14.222656 5.519531 14.152344 5.519531 14.074219 L 5.519531 7.996094 C 5.519531 7.917969 5.558594 7.84375 5.628906 7.804688 L 8.234375 6.285156 L 10.886719 4.761719 C 10.949219 4.726562 11.035156 4.726562 11.097656 4.761719 L 13.75 6.285156 L 16.359375 7.804688 C 16.429688 7.84375 16.46875 7.917969 16.46875 7.996094 Z M 3.042969 11.03125 C 3.042969 15.421875 6.609375 18.984375 10.992188 18.984375 C 15.378906 18.984375 18.941406 15.421875 18.941406 11.03125 C 18.941406 6.648438 15.378906 3.085938 10.992188 3.085938 C 6.609375 3.085938 3.042969 6.648438 3.042969 11.03125 Z M 3.042969 11.03125 " fill-opacity="1" fill-rule="evenodd"/><g clip-path="url(#2b38c417e3)"><path fill="#2f7cee" d="M 18.371094 7.035156 C 18.644531 7.546875 18.867188 8.085938 19.035156 8.648438 L 21.253906 8.050781 C 21.039062 7.296875 20.730469 6.570312 20.355469 5.890625 Z M 18.371094 7.035156 " fill-opacity="1" fill-rule="evenodd"/></g><g clip-path="url(#05e7fd2b37)"><path fill="#2f7cee" d="M 21.367188 8.472656 L 19.148438 9.066406 C 19.28125 9.632812 19.359375 10.21875 19.375 10.816406 L 21.679688 10.816406 C 21.664062 10.011719 21.554688 9.222656 21.367188 8.472656 Z M 21.367188 8.472656 " fill-opacity="1" fill-rule="evenodd"/></g><g clip-path="url(#16cae3520e)"><path fill="#2f7cee" d="M 21.253906 14.015625 L 19.035156 13.421875 C 18.867188 13.984375 18.644531 14.523438 18.371094 15.035156 L 20.355469 16.179688 C 20.730469 15.5 21.03125 14.773438 21.253906 14.015625 Z M 21.253906 14.015625 " fill-opacity="1" fill-rule="evenodd"/></g><g clip-path="url(#63e687fa21)"><path fill="#2f7cee" d="M 19.148438 13.003906 L 21.367188 13.597656 C 21.554688 12.84375 21.664062 12.058594 21.679688 11.25 L 19.375 11.25 C 19.359375 11.851562 19.28125 12.4375 19.148438 13.003906 Z M 19.148438 13.003906 " fill-opacity="1" fill-rule="evenodd"/></g><path fill="#2f7cee" d="M 20.140625 16.554688 L 18.148438 15.414062 C 17.847656 15.910156 17.488281 16.382812 17.074219 16.808594 L 18.695312 18.433594 C 19.242188 17.867188 19.730469 17.234375 20.140625 16.554688 Z M 20.140625 16.554688 " fill-opacity="1" fill-rule="evenodd"/><path fill="#2f7cee" d="M 18.390625 18.738281 L 16.769531 17.117188 C 16.339844 17.53125 15.871094 17.890625 15.371094 18.191406 L 16.511719 20.183594 C 17.191406 19.773438 17.824219 19.285156 18.390625 18.738281 Z M 18.390625 18.738281 " fill-opacity="1" fill-rule="evenodd"/><g clip-path="url(#1dcd1cc06b)"><path fill="#2f7cee" d="M 16.136719 20.398438 L 14.992188 18.414062 C 14.480469 18.6875 13.945312 18.910156 13.382812 19.078125 L 13.972656 21.296875 C 14.730469 21.078125 15.457031 20.773438 16.136719 20.398438 Z M 16.136719 20.398438 " fill-opacity="1" fill-rule="evenodd"/></g><g clip-path="url(#5494b80f21)"><path fill="#2f7cee" d="M 13.554688 21.410156 L 12.960938 19.1875 C 12.394531 19.324219 11.808594 19.402344 11.210938 19.417969 L 11.210938 21.71875 C 12.015625 21.707031 12.800781 21.597656 13.554688 21.410156 Z M 13.554688 21.410156 " fill-opacity="1" fill-rule="evenodd"/></g><g clip-path="url(#bf18cbb297)"><path fill="#2f7cee" d="M 10.773438 21.71875 L 10.773438 19.417969 C 10.175781 19.402344 9.589844 19.324219 9.023438 19.1875 L 8.433594 21.410156 C 9.1875 21.597656 9.96875 21.699219 10.773438 21.71875 Z M 10.773438 21.71875 " fill-opacity="1" fill-rule="evenodd"/></g><g clip-path="url(#b0b33c176f)"><path fill="#2f7cee" d="M 8.011719 21.296875 L 8.605469 19.078125 C 8.042969 18.910156 7.5 18.6875 6.988281 18.40625 L 5.820312 20.382812 C 6.503906 20.765625 7.238281 21.074219 8.011719 21.296875 Z M 8.011719 21.296875 " fill-opacity="1" fill-rule="evenodd"/></g><path fill="#2f7cee" d="M 5.445312 20.164062 L 6.613281 18.191406 C 6.113281 17.886719 5.648438 17.53125 5.21875 17.117188 L 3.597656 18.738281 C 4.15625 19.28125 4.773438 19.757812 5.445312 20.164062 Z M 5.445312 20.164062 " fill-opacity="1" fill-rule="evenodd"/><path fill="#2f7cee" d="M 3.289062 18.433594 L 4.90625 16.808594 C 4.5 16.375 4.136719 15.910156 3.832031 15.414062 L 1.847656 16.554688 C 2.253906 17.234375 2.742188 17.867188 3.289062 18.433594 Z M 3.289062 18.433594 " fill-opacity="1" fill-rule="evenodd"/><g clip-path="url(#414ab5b77a)"><path fill="#2f7cee" d="M 1.628906 16.179688 L 3.617188 15.035156 C 3.339844 14.523438 3.117188 13.984375 2.949219 13.421875 L 0.726562 14.015625 C 0.949219 14.773438 1.253906 15.5 1.628906 16.179688 Z M 1.628906 16.179688 " fill-opacity="1" fill-rule="evenodd"/></g><g clip-path="url(#1bdc42bbeb)"><path fill="#2f7cee" d="M 0.617188 13.597656 L 2.835938 13.003906 C 2.703125 12.4375 2.625 11.851562 2.609375 11.25 L 0.308594 11.25 C 0.324219 12.058594 0.429688 12.84375 0.617188 13.597656 Z M 0.617188 13.597656 " fill-opacity="1" fill-rule="evenodd"/></g><g clip-path="url(#bf88c03584)"><path fill="#2f7cee" d="M 0.308594 10.816406 L 2.609375 10.816406 C 2.625 10.21875 2.703125 9.632812 2.835938 9.066406 L 0.617188 8.472656 C 0.429688 9.230469 0.324219 10.011719 0.308594 10.816406 Z M 0.308594 10.816406 " fill-opacity="1" fill-rule="evenodd"/></g><g clip-path="url(#1e96699111)"><path fill="#2f7cee" d="M 0.730469 8.054688 L 2.949219 8.648438 C 3.117188 8.085938 3.339844 7.546875 3.617188 7.035156 L 1.628906 5.890625 C 1.253906 6.570312 0.949219 7.296875 0.730469 8.054688 Z M 0.730469 8.054688 " fill-opacity="1" fill-rule="evenodd"/><path fill="#2f7cee" d="M 0.730469 8.054688 L 2.949219 8.648438 C 3.117188 8.085938 3.339844 7.546875 3.617188 7.035156 L 1.628906 5.890625 C 1.253906 6.570312 0.949219 7.296875 0.730469 8.054688 Z M 0.730469 8.054688 " fill-opacity="1" fill-rule="evenodd"/></g><path fill="#2f7cee" d="M 10.992188 3.085938 C 6.609375 3.085938 3.042969 6.648438 3.042969 11.03125 C 3.042969 15.421875 6.609375 18.984375 10.992188 18.984375 C 15.378906 18.984375 18.941406 15.421875 18.941406 11.03125 C 18.941406 6.648438 15.378906 3.085938 10.992188 3.085938 Z M 5.519531 14.074219 L 5.519531 7.996094 C 5.519531 7.917969 5.558594 7.84375 5.628906 7.804688 L 8.234375 6.285156 L 10.886719 4.761719 C 10.949219 4.726562 11.035156 4.726562 11.097656 4.761719 L 13.75 6.285156 L 16.359375 7.804688 C 16.429688 7.84375 16.46875 7.917969 16.46875 7.996094 L 16.46875 14.074219 C 16.46875 14.152344 16.429688 14.222656 16.359375 14.261719 L 13.75 15.785156 L 11.097656 17.304688 C 11.070312 17.324219 11.03125 17.332031 10.992188 17.332031 C 10.957031 17.332031 10.917969 17.324219 10.886719 17.304688 L 8.234375 15.785156 L 5.628906 14.261719 C 5.558594 14.222656 5.519531 14.152344 5.519531 14.074219 Z M 5.519531 14.074219 " fill-opacity="1" fill-rule="evenodd"/><g clip-path="url(#89ce47facb)"><path fill="#2f7cee" d="M 8.433594 0.660156 L 9.023438 2.878906 C 9.589844 2.746094 10.175781 2.667969 10.773438 2.652344 L 10.773438 0.351562 C 9.96875 0.363281 9.1875 0.472656 8.433594 0.660156 Z M 8.433594 0.660156 " fill-opacity="1" fill-rule="evenodd"/></g><g clip-path="url(#7ab9929162)"><path fill="#2f7cee" d="M 8.605469 2.992188 L 8.011719 0.773438 C 7.238281 0.996094 6.503906 1.304688 5.820312 1.6875 L 6.988281 3.664062 C 7.5 3.382812 8.042969 3.160156 8.605469 2.992188 Z M 8.605469 2.992188 " fill-opacity="1" fill-rule="evenodd"/></g><path fill="#2f7cee" d="M 6.613281 3.878906 L 5.445312 1.90625 C 4.773438 2.3125 4.15625 2.789062 3.597656 3.332031 L 5.21875 4.949219 C 5.648438 4.539062 6.113281 4.183594 6.613281 3.878906 Z M 6.613281 3.878906 " fill-opacity="1" fill-rule="evenodd"/><path fill="#2f7cee" d="M 4.90625 5.261719 L 3.289062 3.636719 C 2.742188 4.207031 2.253906 4.835938 1.847656 5.515625 L 3.832031 6.65625 C 4.136719 6.15625 4.5 5.6875 4.90625 5.261719 Z M 4.90625 5.261719 " fill-opacity="1" fill-rule="evenodd"/><g clip-path="url(#be6032b308)"><path fill="#2f7cee" d="M 11.210938 0.351562 L 11.210938 2.652344 C 11.808594 2.667969 12.394531 2.746094 12.960938 2.878906 L 13.554688 0.660156 C 12.800781 0.472656 12.015625 0.363281 11.210938 0.351562 Z M 11.210938 0.351562 " fill-opacity="1" fill-rule="evenodd"/></g><g clip-path="url(#2e4bb5904b)"><path fill="#2f7cee" d="M 13.972656 0.773438 L 13.382812 2.992188 C 13.945312 3.160156 14.480469 3.382812 14.992188 3.65625 L 16.136719 1.671875 C 15.457031 1.296875 14.730469 0.992188 13.972656 0.773438 Z M 13.972656 0.773438 " fill-opacity="1" fill-rule="evenodd"/></g><path fill="#2f7cee" d="M 16.511719 1.886719 L 15.371094 3.875 C 15.871094 4.179688 16.339844 4.539062 16.769531 4.949219 L 18.390625 3.328125 C 17.824219 2.785156 17.191406 2.296875 16.511719 1.886719 Z M 16.511719 1.886719 " fill-opacity="1" fill-rule="evenodd"/><path fill="#2f7cee" d="M 18.695312 3.636719 L 17.074219 5.261719 C 17.488281 5.6875 17.847656 6.15625 18.148438 6.65625 L 20.140625 5.515625 C 19.730469 4.835938 19.242188 4.207031 18.695312 3.636719 Z M 18.695312 3.636719 " fill-opacity="1" fill-rule="evenodd"/></g></g></svg>