<svg xmlns="http://www.w3.org/2000/svg" xmlns:xlink="http://www.w3.org/1999/xlink" width="45" zoomAndPan="magnify" viewBox="0 0 33.75 33.749998" height="45" preserveAspectRatio="xMidYMid meet" version="1.0"><defs><clipPath id="78e4d16603"><path d="M 22 3.351562 L 27 3.351562 L 27 10 L 22 10 Z M 22 3.351562 " clip-rule="nonzero"/></clipPath><clipPath id="934a301bd7"><path d="M 25 13 L 32.863281 13 L 32.863281 16 L 25 16 Z M 25 13 " clip-rule="nonzero"/></clipPath></defs><path fill="#2f7cee" d="M 24.28125 11.964844 C 23.742188 11.988281 23.507812 11.210938 23.984375 10.9375 C 23.984375 10.9375 30.722656 6.789062 30.722656 6.789062 C 31.34375 6.417969 31.921875 7.335938 31.304688 7.730469 C 31.304688 7.730469 24.570312 11.882812 24.570312 11.882812 C 24.480469 11.9375 24.378906 11.964844 24.28125 11.964844 Z M 24.28125 11.964844 " fill-opacity="1" fill-rule="nonzero"/><g clip-path="url(#78e4d16603)"><path fill="#2f7cee" d="M 22.578125 9.035156 C 22.132812 9.046875 21.851562 8.492188 22.136719 8.140625 C 22.136719 8.140625 25.367188 3.925781 25.367188 3.925781 C 25.8125 3.355469 26.6875 4.019531 26.25 4.601562 C 26.25 4.601562 23.019531 8.820312 23.019531 8.820312 C 22.910156 8.964844 22.75 9.035156 22.582031 9.035156 Z M 22.578125 9.035156 " fill-opacity="1" fill-rule="nonzero"/></g><g clip-path="url(#934a301bd7)"><path fill="#2f7cee" d="M 25.984375 15.101562 C 25.3125 15.101562 25.230469 14.101562 25.898438 13.996094 C 25.898438 13.996094 31.78125 13.125 31.78125 13.125 C 32.503906 13.03125 32.664062 14.101562 31.941406 14.222656 C 31.941406 14.222656 26.0625 15.09375 26.0625 15.09375 C 26.035156 15.09375 26.003906 15.101562 25.976562 15.101562 Z M 25.984375 15.101562 " fill-opacity="1" fill-rule="nonzero"/></g><path fill="#2f7cee" d="M 19.253906 15.488281 C 20.535156 15.1875 21.988281 15.242188 23.230469 15.636719 L 18.144531 6.609375 C 17.765625 5.945312 16.921875 5.707031 16.25 6.082031 L 15.707031 6.390625 C 15.054688 6.742188 14.804688 7.636719 15.179688 8.28125 C 15.179688 8.28125 19.246094 15.492188 19.246094 15.492188 Z M 19.253906 15.488281 " fill-opacity="1" fill-rule="nonzero"/><path fill="#2f7cee" d="M 19.601562 21.335938 C 19.601562 21.917969 19.792969 22.074219 20.402344 22.289062 L 20.402344 20.257812 C 19.9375 20.441406 19.601562 20.851562 19.601562 21.335938 Z M 19.601562 21.335938 " fill-opacity="1" fill-rule="nonzero"/><path fill="#2f7cee" d="M 21.511719 25.878906 C 22.480469 25.519531 22.671875 24.144531 21.511719 23.847656 Z M 21.511719 25.878906 " fill-opacity="1" fill-rule="nonzero"/><path fill="#2f7cee" d="M 20.957031 16.402344 C 17.277344 16.402344 14.289062 19.394531 14.289062 23.074219 C 14.652344 31.921875 27.257812 31.917969 27.625 23.074219 C 27.625 19.394531 24.636719 16.402344 20.957031 16.402344 Z M 21.523438 22.683594 C 22.277344 22.933594 23.421875 23.3125 23.421875 24.808594 C 23.421875 25.898438 22.605469 26.800781 21.511719 27.035156 C 21.566406 27.855469 20.347656 27.855469 20.402344 27.035156 C 19.3125 26.800781 18.492188 25.890625 18.492188 24.808594 C 18.492188 24.503906 18.742188 24.253906 19.046875 24.253906 C 19.351562 24.253906 19.601562 24.503906 19.601562 24.808594 C 19.601562 25.285156 19.929688 25.695312 20.402344 25.886719 L 20.402344 23.464844 C 19.546875 23.171875 18.503906 22.878906 18.492188 21.335938 C 18.492188 20.25 19.308594 19.34375 20.402344 19.109375 C 20.347656 18.289062 21.566406 18.289062 21.511719 19.109375 C 22.597656 19.34375 23.421875 20.253906 23.421875 21.335938 C 23.421875 21.640625 23.171875 21.890625 22.863281 21.890625 C 22.558594 21.890625 22.308594 21.640625 22.308594 21.335938 C 22.308594 20.859375 21.984375 20.449219 21.511719 20.257812 L 21.511719 22.679688 C 21.511719 22.679688 21.515625 22.679688 21.523438 22.679688 Z M 21.523438 22.683594 " fill-opacity="1" fill-rule="nonzero"/><path fill="#2f7cee" d="M 18.164062 15.820312 L 14.621094 9.527344 C 12.628906 12.121094 10.1875 14.382812 7.507812 16.21875 L 11.445312 23.21875 C 12.023438 22.957031 12.613281 22.710938 13.207031 22.484375 C 13.4375 19.4375 15.425781 16.878906 18.164062 15.820312 Z M 18.164062 15.820312 " fill-opacity="1" fill-rule="nonzero"/><path fill="#2f7cee" d="M 9.683594 24.171875 L 10.949219 23.457031 L 7.035156 16.519531 L 3.019531 18.785156 C 1.460938 19.621094 0.871094 21.734375 1.769531 23.253906 C 1.769531 23.253906 2.453125 24.472656 2.453125 24.472656 C 3.019531 25.496094 4.152344 26.152344 5.320312 26.144531 C 6.398438 26.234375 7.800781 25.179688 8.710938 24.714844 L 10.308594 27.550781 C 10.460938 27.820312 10.804688 27.910156 11.0625 27.761719 C 11.332031 27.609375 11.425781 27.273438 11.273438 27.007812 L 9.675781 24.171875 Z M 9.683594 24.171875 " fill-opacity="1" fill-rule="nonzero"/></svg>