<svg xmlns="http://www.w3.org/2000/svg" xmlns:xlink="http://www.w3.org/1999/xlink" width="45" zoomAndPan="magnify" viewBox="0 0 33.75 33.749998" height="45" preserveAspectRatio="xMidYMid meet" version="1.0"><defs><clipPath id="f74f9cfcc6"><path d="M 15 2.644531 L 30.933594 2.644531 L 30.933594 20 L 15 20 Z M 15 2.644531 " clip-rule="nonzero"/></clipPath><clipPath id="19f478acdc"><path d="M 2.644531 6 L 12 6 L 12 20 L 2.644531 20 Z M 2.644531 6 " clip-rule="nonzero"/></clipPath><clipPath id="50ae752291"><path d="M 2.644531 20 L 30.933594 20 L 30.933594 24 L 2.644531 24 Z M 2.644531 20 " clip-rule="nonzero"/></clipPath><clipPath id="92a77bae4b"><path d="M 5 23 L 25 23 L 25 30.933594 L 5 30.933594 Z M 5 23 " clip-rule="nonzero"/></clipPath><clipPath id="ee382a92e0"><path d="M 25 24 L 30.933594 24 L 30.933594 30.933594 L 25 30.933594 Z M 25 24 " clip-rule="nonzero"/></clipPath></defs><path fill="#c4942e" d="M 16.242188 10.199219 C 16.242188 9.308594 16.457031 8.46875 16.832031 7.722656 L 15.5625 6.671875 L 8.488281 6.671875 L 12.40625 10.199219 L 16.242188 10.199219 " fill-opacity="1" fill-rule="nonzero"/><path fill="#c4942e" d="M 7.679688 12.214844 L 6.671875 12.214844 L 6.671875 13.726562 L 7.679688 13.726562 L 7.679688 12.214844 " fill-opacity="1" fill-rule="nonzero"/><path fill="#c4942e" d="M 15.542969 17.449219 L 16.242188 16.980469 L 16.242188 11.207031 L 12.71875 11.207031 L 12.71875 19.769531 L 14.929688 19.769531 C 14.808594 19.527344 14.734375 19.253906 14.734375 18.960938 C 14.734375 18.351562 15.035156 17.789062 15.542969 17.449219 " fill-opacity="1" fill-rule="nonzero"/><path fill="#c4942e" d="M 8.183594 19.769531 L 8.183594 16.746094 L 6.167969 16.746094 L 6.167969 19.769531 L 8.183594 19.769531 " fill-opacity="1" fill-rule="nonzero"/><g clip-path="url(#f74f9cfcc6)"><path fill="#c4942e" d="M 22.539062 9.695312 L 22.792969 9.695312 L 22.792969 8.6875 L 23.800781 8.6875 L 23.800781 9.695312 L 25.3125 9.695312 L 25.3125 10.703125 L 22.539062 10.703125 C 22.125 10.703125 21.785156 11.042969 21.785156 11.457031 C 21.785156 11.875 22.125 12.214844 22.539062 12.214844 L 24.050781 12.214844 C 25.023438 12.214844 25.816406 13.003906 25.816406 13.976562 C 25.816406 14.949219 25.023438 15.738281 24.050781 15.738281 L 23.800781 15.738281 L 23.800781 16.746094 L 22.792969 16.746094 L 22.792969 15.738281 L 21.28125 15.738281 L 21.28125 14.734375 L 24.050781 14.734375 C 24.46875 14.734375 24.808594 14.394531 24.808594 13.976562 C 24.808594 13.558594 24.46875 13.222656 24.050781 13.222656 L 22.539062 13.222656 C 21.566406 13.222656 20.777344 12.429688 20.777344 11.457031 C 20.777344 10.484375 21.566406 9.695312 22.539062 9.695312 Z M 15.738281 18.960938 C 15.738281 19.40625 16.101562 19.769531 16.546875 19.769531 L 30.042969 19.769531 C 30.488281 19.769531 30.851562 19.40625 30.851562 18.960938 C 30.851562 18.691406 30.71875 18.4375 30.492188 18.289062 L 29.566406 17.671875 C 29.425781 17.578125 29.339844 17.421875 29.339844 17.25 L 29.339844 10.199219 C 29.339844 7.699219 27.304688 5.664062 24.808594 5.664062 C 24.632812 5.664062 24.46875 5.574219 24.378906 5.425781 C 24.289062 5.277344 24.277344 5.09375 24.355469 4.933594 L 25.503906 2.644531 L 21.089844 2.644531 L 22.234375 4.933594 C 22.3125 5.09375 22.304688 5.277344 22.214844 5.425781 C 22.121094 5.574219 21.960938 5.664062 21.785156 5.664062 C 19.285156 5.664062 17.25 7.699219 17.25 10.199219 L 17.25 17.25 C 17.25 17.421875 17.167969 17.578125 17.027344 17.671875 L 16.101562 18.289062 C 15.875 18.4375 15.738281 18.691406 15.738281 18.960938 " fill-opacity="1" fill-rule="nonzero"/></g><g clip-path="url(#19f478acdc)"><path fill="#c4942e" d="M 5.664062 11.710938 C 5.664062 11.433594 5.890625 11.207031 6.167969 11.207031 L 8.183594 11.207031 C 8.460938 11.207031 8.6875 11.433594 8.6875 11.710938 L 8.6875 14.230469 C 8.6875 14.507812 8.460938 14.734375 8.183594 14.734375 L 6.167969 14.734375 C 5.890625 14.734375 5.664062 14.507812 5.664062 14.230469 Z M 5.160156 16.242188 C 5.160156 15.964844 5.386719 15.738281 5.664062 15.738281 L 8.6875 15.738281 C 8.964844 15.738281 9.191406 15.964844 9.191406 16.242188 L 9.191406 19.769531 L 11.710938 19.769531 L 11.710938 10.925781 L 7.175781 6.847656 L 2.644531 10.925781 L 2.644531 19.769531 L 5.160156 19.769531 L 5.160156 16.242188 " fill-opacity="1" fill-rule="nonzero"/></g><g clip-path="url(#50ae752291)"><path fill="#c4942e" d="M 30.816406 20.777344 L 2.679688 20.777344 C 2.925781 22.484375 4.394531 23.800781 6.167969 23.800781 L 13.726562 23.800781 L 17.476562 23.789062 C 19.820312 22.511719 22.59375 22.519531 24.929688 23.800781 L 27.324219 23.800781 C 29.097656 23.800781 30.570312 22.484375 30.816406 20.777344 " fill-opacity="1" fill-rule="nonzero"/></g><g clip-path="url(#92a77bae4b)"><path fill="#c4942e" d="M 17.957031 24.675781 L 17.828125 24.746094 C 17.753906 24.785156 17.671875 24.808594 17.585938 24.808594 L 13.726562 24.808594 C 13.171875 24.808594 12.71875 25.257812 12.71875 25.816406 C 12.71875 26.371094 13.171875 26.820312 13.726562 26.820312 L 17.753906 26.820312 C 18.03125 26.820312 18.257812 27.046875 18.257812 27.324219 C 18.257812 27.601562 18.03125 27.828125 17.753906 27.828125 L 12.71875 27.828125 C 12.644531 27.828125 12.574219 27.8125 12.507812 27.785156 L 6.777344 25.160156 C 6.628906 25.089844 6.464844 25.054688 6.304688 25.054688 C 6.085938 25.054688 5.867188 25.117188 5.675781 25.242188 C 5.355469 25.457031 5.160156 25.8125 5.160156 26.199219 L 5.160156 26.308594 C 5.160156 26.742188 5.402344 27.136719 5.792969 27.328125 L 11.667969 30.265625 C 12.433594 30.648438 13.289062 30.851562 14.144531 30.851562 L 24.304688 30.851562 L 24.304688 24.601562 C 22.300781 23.566406 19.949219 23.589844 17.957031 24.675781 " fill-opacity="1" fill-rule="nonzero"/></g><g clip-path="url(#ee382a92e0)"><path fill="#c4942e" d="M 28.332031 28.835938 C 28.332031 29.390625 27.878906 29.84375 27.324219 29.84375 C 26.769531 29.84375 26.316406 29.390625 26.316406 28.835938 C 26.316406 28.28125 26.769531 27.828125 27.324219 27.828125 C 27.878906 27.828125 28.332031 28.28125 28.332031 28.835938 Z M 25.3125 24.808594 L 25.3125 30.851562 L 30.851562 30.851562 L 30.851562 24.808594 L 25.3125 24.808594 " fill-opacity="1" fill-rule="nonzero"/></g><path fill="#c4942e" d="M 8.429688 24.808594 L 11.78125 26.34375 C 11.734375 26.175781 11.710938 25.996094 11.710938 25.816406 C 11.710938 25.445312 11.816406 25.105469 11.988281 24.808594 L 8.429688 24.808594 " fill-opacity="1" fill-rule="nonzero"/></svg>