<svg xmlns="http://www.w3.org/2000/svg" xmlns:xlink="http://www.w3.org/1999/xlink" width="45" zoomAndPan="magnify" viewBox="0 0 33.75 33.749998" height="45" preserveAspectRatio="xMidYMid meet" version="1.0"><defs><clipPath id="5ea88e12ec"><path d="M 5.148438 21 L 13 21 L 13 24 L 5.148438 24 Z M 5.148438 21 " clip-rule="nonzero"/></clipPath><clipPath id="6ab06868b3"><path d="M 21 21 L 28.230469 21 L 28.230469 24 L 21 24 Z M 21 21 " clip-rule="nonzero"/></clipPath><clipPath id="1716956090"><path d="M 5.148438 23 L 13 23 L 13 26 L 5.148438 26 Z M 5.148438 23 " clip-rule="nonzero"/></clipPath><clipPath id="bc8fa9faaa"><path d="M 21 23 L 28.230469 23 L 28.230469 26 L 21 26 Z M 21 23 " clip-rule="nonzero"/></clipPath><clipPath id="f63b37b3f5"><path d="M 5.148438 26 L 13 26 L 13 28 L 5.148438 28 Z M 5.148438 26 " clip-rule="nonzero"/></clipPath><clipPath id="d088e3756c"><path d="M 21 26 L 28.230469 26 L 28.230469 28 L 21 28 Z M 21 26 " clip-rule="nonzero"/></clipPath><clipPath id="515157f556"><path d="M 5.148438 28 L 13 28 L 13 31 L 5.148438 31 Z M 5.148438 28 " clip-rule="nonzero"/></clipPath><clipPath id="530bc9ed41"><path d="M 21 28 L 28.230469 28 L 28.230469 31 L 21 31 Z M 21 28 " clip-rule="nonzero"/></clipPath><clipPath id="3ffa393f3d"><path d="M 5.148438 30 L 13 30 L 13 32.550781 L 5.148438 32.550781 Z M 5.148438 30 " clip-rule="nonzero"/></clipPath><clipPath id="887add6ace"><path d="M 21 30 L 28.230469 30 L 28.230469 32.550781 L 21 32.550781 Z M 21 30 " clip-rule="nonzero"/></clipPath><clipPath id="f5a2a77b7a"><path d="M 12 21 L 21 21 L 21 32.550781 L 12 32.550781 Z M 12 21 " clip-rule="nonzero"/></clipPath><clipPath id="2d311a38ec"><path d="M 14 1.285156 L 19 1.285156 L 19 9 L 14 9 Z M 14 1.285156 " clip-rule="nonzero"/></clipPath><clipPath id="e67309fd6d"><path d="M 20 1.285156 L 25 1.285156 L 25 9 L 20 9 Z M 20 1.285156 " clip-rule="nonzero"/></clipPath><clipPath id="455bbc5bac"><path d="M 9 1.285156 L 14 1.285156 L 14 9 L 9 9 Z M 9 1.285156 " clip-rule="nonzero"/></clipPath><clipPath id="1fd624ff84"><path d="M 5.148438 15 L 13 15 L 13 22 L 5.148438 22 Z M 5.148438 15 " clip-rule="nonzero"/></clipPath></defs><g clip-path="url(#5ea88e12ec)"><path fill="#ecc466" d="M 5.703125 21.730469 L 12.328125 21.730469 L 12.328125 23.386719 L 5.703125 23.386719 C 5.550781 23.386719 5.421875 23.332031 5.3125 23.226562 C 5.203125 23.117188 5.148438 22.988281 5.148438 22.835938 L 5.148438 22.28125 C 5.148438 22.128906 5.203125 22 5.3125 21.890625 C 5.421875 21.785156 5.550781 21.730469 5.703125 21.730469 Z M 5.703125 21.730469 " fill-opacity="1" fill-rule="nonzero"/></g><g clip-path="url(#6ab06868b3)"><path fill="#ecc466" d="M 28.347656 22.28125 L 28.347656 22.835938 C 28.347656 22.988281 28.292969 23.117188 28.183594 23.226562 C 28.074219 23.332031 27.945312 23.386719 27.792969 23.386719 L 21.167969 23.386719 L 21.167969 21.730469 L 27.792969 21.730469 C 27.945312 21.730469 28.074219 21.785156 28.183594 21.890625 C 28.292969 22 28.347656 22.128906 28.347656 22.28125 Z M 28.347656 22.28125 " fill-opacity="1" fill-rule="nonzero"/></g><g clip-path="url(#1716956090)"><path fill="#ecc466" d="M 5.703125 23.9375 L 12.328125 23.9375 L 12.328125 25.597656 L 5.703125 25.597656 C 5.550781 25.597656 5.421875 25.542969 5.3125 25.433594 C 5.203125 25.328125 5.148438 25.195312 5.148438 25.042969 L 5.148438 24.492188 C 5.148438 24.339844 5.203125 24.207031 5.3125 24.101562 C 5.421875 23.992188 5.550781 23.9375 5.703125 23.9375 Z M 5.703125 23.9375 " fill-opacity="1" fill-rule="nonzero"/></g><g clip-path="url(#bc8fa9faaa)"><path fill="#ecc466" d="M 28.347656 24.492188 L 28.347656 25.042969 C 28.347656 25.195312 28.292969 25.328125 28.183594 25.433594 C 28.074219 25.542969 27.945312 25.597656 27.792969 25.597656 L 21.167969 25.597656 L 21.167969 23.9375 L 27.792969 23.9375 C 27.945312 23.9375 28.074219 23.992188 28.183594 24.101562 C 28.292969 24.207031 28.347656 24.339844 28.347656 24.492188 Z M 28.347656 24.492188 " fill-opacity="1" fill-rule="nonzero"/></g><g clip-path="url(#f63b37b3f5)"><path fill="#ecc466" d="M 5.703125 26.148438 L 12.328125 26.148438 L 12.328125 27.804688 L 5.703125 27.804688 C 5.550781 27.804688 5.421875 27.75 5.3125 27.644531 C 5.203125 27.535156 5.148438 27.40625 5.148438 27.253906 L 5.148438 26.699219 C 5.148438 26.546875 5.203125 26.417969 5.3125 26.308594 C 5.421875 26.203125 5.550781 26.148438 5.703125 26.148438 Z M 5.703125 26.148438 " fill-opacity="1" fill-rule="nonzero"/></g><g clip-path="url(#d088e3756c)"><path fill="#ecc466" d="M 28.347656 26.699219 L 28.347656 27.253906 C 28.347656 27.40625 28.292969 27.535156 28.183594 27.644531 C 28.074219 27.75 27.945312 27.804688 27.792969 27.804688 L 21.167969 27.804688 L 21.167969 26.148438 L 27.792969 26.148438 C 27.945312 26.148438 28.074219 26.203125 28.183594 26.308594 C 28.292969 26.417969 28.347656 26.546875 28.347656 26.699219 Z M 28.347656 26.699219 " fill-opacity="1" fill-rule="nonzero"/></g><g clip-path="url(#515157f556)"><path fill="#ecc466" d="M 5.703125 28.355469 L 12.328125 28.355469 L 12.328125 30.015625 L 5.703125 30.015625 C 5.550781 30.015625 5.421875 29.960938 5.3125 29.851562 C 5.203125 29.746094 5.148438 29.613281 5.148438 29.460938 L 5.148438 28.910156 C 5.148438 28.757812 5.203125 28.625 5.3125 28.519531 C 5.421875 28.410156 5.550781 28.355469 5.703125 28.355469 Z M 5.703125 28.355469 " fill-opacity="1" fill-rule="nonzero"/></g><g clip-path="url(#530bc9ed41)"><path fill="#ecc466" d="M 28.347656 28.910156 L 28.347656 29.460938 C 28.347656 29.613281 28.292969 29.746094 28.183594 29.851562 C 28.074219 29.960938 27.945312 30.015625 27.792969 30.015625 L 21.167969 30.015625 L 21.167969 28.355469 L 27.792969 28.355469 C 27.945312 28.355469 28.074219 28.410156 28.183594 28.519531 C 28.292969 28.625 28.347656 28.757812 28.347656 28.910156 Z M 28.347656 28.910156 " fill-opacity="1" fill-rule="nonzero"/></g><g clip-path="url(#3ffa393f3d)"><path fill="#ecc466" d="M 5.703125 30.566406 L 12.328125 30.566406 L 12.328125 32.222656 L 5.703125 32.222656 C 5.550781 32.222656 5.421875 32.167969 5.3125 32.0625 C 5.203125 31.953125 5.148438 31.824219 5.148438 31.671875 L 5.148438 31.117188 C 5.148438 30.964844 5.203125 30.835938 5.3125 30.726562 C 5.421875 30.621094 5.550781 30.566406 5.703125 30.566406 Z M 5.703125 30.566406 " fill-opacity="1" fill-rule="nonzero"/></g><g clip-path="url(#887add6ace)"><path fill="#ecc466" d="M 28.347656 31.117188 L 28.347656 31.671875 C 28.347656 31.824219 28.292969 31.953125 28.183594 32.0625 C 28.074219 32.167969 27.945312 32.222656 27.792969 32.222656 L 21.167969 32.222656 L 21.167969 30.566406 L 27.792969 30.566406 C 27.945312 30.566406 28.074219 30.621094 28.183594 30.726562 C 28.292969 30.835938 28.347656 30.964844 28.347656 31.117188 Z M 28.347656 31.117188 " fill-opacity="1" fill-rule="nonzero"/></g><path fill="#ecc466" d="M 16.96875 26.691406 L 16.96875 26.101562 L 17.625 26.101562 L 17.625 25.519531 L 16.96875 25.519531 L 16.96875 25.226562 L 16.527344 25.226562 L 16.527344 25.523438 C 16.300781 25.539062 16.109375 25.632812 15.953125 25.800781 C 15.800781 25.96875 15.722656 26.164062 15.722656 26.394531 C 15.722656 26.621094 15.800781 26.816406 15.953125 26.984375 C 16.109375 27.152344 16.300781 27.246094 16.527344 27.265625 L 16.527344 27.851562 L 15.875 27.851562 L 15.875 28.433594 L 16.527344 28.433594 L 16.527344 28.722656 L 16.96875 28.722656 L 16.96875 28.429688 C 17.191406 28.410156 17.382812 28.3125 17.53125 28.148438 C 17.683594 27.980469 17.761719 27.785156 17.761719 27.558594 C 17.761719 27.335938 17.683594 27.136719 17.53125 26.972656 C 17.382812 26.804688 17.191406 26.710938 16.96875 26.691406 Z M 16.53125 26.679688 C 16.367188 26.65625 16.296875 26.558594 16.3125 26.394531 C 16.300781 26.324219 16.320312 26.261719 16.363281 26.207031 C 16.40625 26.152344 16.460938 26.121094 16.53125 26.113281 Z M 16.96875 27.847656 L 16.96875 27.277344 C 17.039062 27.285156 17.09375 27.320312 17.136719 27.371094 C 17.179688 27.425781 17.199219 27.488281 17.191406 27.558594 C 17.203125 27.722656 17.128906 27.816406 16.96875 27.84375 Z M 16.96875 27.847656 " fill-opacity="1" fill-rule="nonzero"/><g clip-path="url(#f5a2a77b7a)"><path fill="#ecc466" d="M 12.882812 21.730469 L 12.882812 32.222656 L 20.613281 32.222656 L 20.613281 21.730469 Z M 16.746094 29.601562 C 16.398438 29.601562 16.066406 29.535156 15.746094 29.398438 C 15.421875 29.265625 15.140625 29.078125 14.894531 28.832031 C 14.648438 28.585938 14.457031 28.300781 14.324219 27.980469 C 14.191406 27.660156 14.125 27.324219 14.125 26.976562 C 14.125 26.628906 14.191406 26.292969 14.324219 25.972656 C 14.457031 25.652344 14.648438 25.367188 14.894531 25.121094 C 15.140625 24.875 15.421875 24.6875 15.746094 24.554688 C 16.066406 24.417969 16.398438 24.351562 16.746094 24.351562 C 17.097656 24.351562 17.429688 24.417969 17.75 24.554688 C 18.074219 24.6875 18.355469 24.875 18.601562 25.121094 C 18.847656 25.367188 19.039062 25.652344 19.171875 25.972656 C 19.304688 26.292969 19.371094 26.628906 19.371094 26.976562 C 19.371094 27.324219 19.304688 27.660156 19.171875 27.980469 C 19.039062 28.300781 18.847656 28.585938 18.601562 28.832031 C 18.355469 29.078125 18.074219 29.265625 17.75 29.398438 C 17.429688 29.53125 17.097656 29.597656 16.746094 29.601562 Z M 16.746094 29.601562 " fill-opacity="1" fill-rule="nonzero"/></g><g clip-path="url(#2d311a38ec)"><path fill="#ecc466" d="M 18.914062 4.898438 L 17.046875 1.453125 C 16.984375 1.335938 16.882812 1.273438 16.746094 1.273438 C 16.613281 1.273438 16.511719 1.335938 16.449219 1.453125 L 14.582031 4.898438 C 14.550781 4.953125 14.539062 5.007812 14.539062 5.070312 C 14.539062 5.128906 14.558594 5.1875 14.585938 5.238281 C 14.617188 5.289062 14.660156 5.332031 14.710938 5.359375 C 14.765625 5.390625 14.820312 5.40625 14.882812 5.40625 L 15.808594 5.40625 L 15.808594 8.46875 L 17.6875 8.46875 L 17.6875 5.40625 L 18.613281 5.40625 C 18.675781 5.40625 18.730469 5.390625 18.785156 5.359375 C 18.835938 5.332031 18.878906 5.289062 18.910156 5.238281 C 18.9375 5.1875 18.957031 5.128906 18.957031 5.070312 C 18.957031 5.007812 18.945312 4.953125 18.914062 4.898438 Z M 18.914062 4.898438 " fill-opacity="1" fill-rule="nonzero"/></g><g clip-path="url(#e67309fd6d)"><path fill="#ecc466" d="M 24.4375 4.898438 L 22.570312 1.453125 C 22.507812 1.335938 22.40625 1.273438 22.269531 1.273438 C 22.136719 1.273438 22.035156 1.335938 21.96875 1.453125 L 20.105469 4.898438 C 20.074219 4.953125 20.0625 5.007812 20.0625 5.070312 C 20.0625 5.128906 20.078125 5.1875 20.109375 5.238281 C 20.140625 5.289062 20.183594 5.332031 20.234375 5.359375 C 20.289062 5.390625 20.34375 5.40625 20.402344 5.40625 L 21.332031 5.40625 L 21.332031 8.46875 L 23.210938 8.46875 L 23.210938 5.40625 L 24.136719 5.40625 C 24.199219 5.40625 24.253906 5.390625 24.304688 5.359375 C 24.359375 5.332031 24.398438 5.289062 24.429688 5.238281 C 24.460938 5.1875 24.476562 5.128906 24.480469 5.070312 C 24.480469 5.007812 24.464844 4.953125 24.4375 4.898438 Z M 24.4375 4.898438 " fill-opacity="1" fill-rule="nonzero"/></g><g clip-path="url(#455bbc5bac)"><path fill="#ecc466" d="M 13.390625 4.898438 L 11.527344 1.453125 C 11.460938 1.335938 11.359375 1.273438 11.226562 1.273438 C 11.089844 1.273438 10.988281 1.335938 10.925781 1.453125 L 9.058594 4.898438 C 9.03125 4.953125 9.015625 5.007812 9.015625 5.070312 C 9.019531 5.128906 9.035156 5.1875 9.066406 5.238281 C 9.097656 5.289062 9.136719 5.332031 9.191406 5.359375 C 9.242188 5.390625 9.296875 5.40625 9.359375 5.40625 L 10.285156 5.40625 L 10.285156 8.46875 L 12.164062 8.46875 L 12.164062 5.40625 L 13.09375 5.40625 C 13.152344 5.40625 13.207031 5.390625 13.261719 5.359375 C 13.3125 5.332031 13.355469 5.289062 13.386719 5.238281 C 13.417969 5.1875 13.433594 5.128906 13.433594 5.070312 C 13.433594 5.007812 13.421875 4.953125 13.390625 4.898438 Z M 13.390625 4.898438 " fill-opacity="1" fill-rule="nonzero"/></g><path fill="#ecc466" d="M 23.375 20.0625 L 27.792969 20.0625 L 27.792969 21.167969 L 23.375 21.167969 Z M 23.375 20.0625 " fill-opacity="1" fill-rule="nonzero"/><path fill="#ecc466" d="M 23.375 18.40625 L 27.792969 18.40625 L 27.792969 19.511719 L 23.375 19.511719 Z M 23.375 18.40625 " fill-opacity="1" fill-rule="nonzero"/><path fill="#ecc466" d="M 23.375 16.75 L 27.792969 16.75 L 27.792969 17.855469 L 23.375 17.855469 Z M 23.375 16.75 " fill-opacity="1" fill-rule="nonzero"/><path fill="#ecc466" d="M 23.375 15.09375 L 27.792969 15.09375 L 27.792969 16.195312 L 23.375 16.195312 Z M 23.375 15.09375 " fill-opacity="1" fill-rule="nonzero"/><path fill="#ecc466" d="M 23.375 13.433594 L 27.792969 13.433594 L 27.792969 14.539062 L 23.375 14.539062 Z M 23.375 13.433594 " fill-opacity="1" fill-rule="nonzero"/><path fill="#ecc466" d="M 23.375 11.777344 L 27.792969 11.777344 L 27.792969 12.882812 L 23.375 12.882812 Z M 23.375 11.777344 " fill-opacity="1" fill-rule="nonzero"/><path fill="#ecc466" d="M 23.375 10.121094 L 27.792969 10.121094 L 27.792969 11.226562 L 23.375 11.226562 Z M 23.375 10.121094 " fill-opacity="1" fill-rule="nonzero"/><path fill="#ecc466" d="M 18.40625 20.0625 L 22.824219 20.0625 L 22.824219 21.167969 L 18.40625 21.167969 Z M 18.40625 20.0625 " fill-opacity="1" fill-rule="nonzero"/><path fill="#ecc466" d="M 18.40625 18.40625 L 22.824219 18.40625 L 22.824219 19.511719 L 18.40625 19.511719 Z M 18.40625 18.40625 " fill-opacity="1" fill-rule="nonzero"/><path fill="#ecc466" d="M 18.40625 16.75 L 22.824219 16.75 L 22.824219 17.855469 L 18.40625 17.855469 Z M 18.40625 16.75 " fill-opacity="1" fill-rule="nonzero"/><path fill="#ecc466" d="M 13.433594 20.0625 L 17.851562 20.0625 L 17.851562 21.167969 L 13.433594 21.167969 Z M 13.433594 20.0625 " fill-opacity="1" fill-rule="nonzero"/><path fill="#ecc466" d="M 13.433594 18.40625 L 17.851562 18.40625 L 17.851562 19.511719 L 13.433594 19.511719 Z M 13.433594 18.40625 " fill-opacity="1" fill-rule="nonzero"/><path fill="#ecc466" d="M 13.433594 16.75 L 17.851562 16.75 L 17.851562 17.855469 L 13.433594 17.855469 Z M 13.433594 16.75 " fill-opacity="1" fill-rule="nonzero"/><path fill="#ecc466" d="M 18.40625 15.09375 L 22.824219 15.09375 L 22.824219 16.195312 L 18.40625 16.195312 Z M 18.40625 15.09375 " fill-opacity="1" fill-rule="nonzero"/><path fill="#ecc466" d="M 13.433594 15.09375 L 17.851562 15.09375 L 17.851562 16.195312 L 13.433594 16.195312 Z M 13.433594 15.09375 " fill-opacity="1" fill-rule="nonzero"/><path fill="#ecc466" d="M 17.898438 10.867188 L 17.898438 11.464844 C 17.726562 11.4375 17.652344 11.335938 17.667969 11.164062 C 17.660156 11.09375 17.675781 11.027344 17.722656 10.96875 C 17.765625 10.910156 17.824219 10.875 17.898438 10.867188 Z M 17.898438 10.867188 " fill-opacity="1" fill-rule="nonzero"/><path fill="#ecc466" d="M 18.589844 12.390625 C 18.605469 12.5625 18.53125 12.664062 18.359375 12.691406 L 18.359375 12.09375 C 18.429688 12.105469 18.488281 12.136719 18.535156 12.195312 C 18.578125 12.253906 18.597656 12.316406 18.589844 12.390625 Z M 18.589844 12.390625 " fill-opacity="1" fill-rule="nonzero"/><path fill="#ecc466" d="M 18.128906 9.015625 C 17.761719 9.015625 17.410156 9.085938 17.070312 9.226562 C 16.734375 9.367188 16.433594 9.566406 16.175781 9.824219 C 15.917969 10.085938 15.71875 10.382812 15.578125 10.722656 C 15.4375 11.058594 15.367188 11.414062 15.367188 11.777344 C 15.367188 12.144531 15.4375 12.496094 15.578125 12.835938 C 15.71875 13.171875 15.917969 13.472656 16.175781 13.730469 C 16.433594 13.988281 16.734375 14.191406 17.070312 14.328125 C 17.410156 14.46875 17.761719 14.539062 18.128906 14.539062 C 18.496094 14.539062 18.847656 14.46875 19.183594 14.328125 C 19.523438 14.191406 19.824219 13.988281 20.082031 13.730469 C 20.339844 13.472656 20.539062 13.171875 20.679688 12.835938 C 20.820312 12.496094 20.890625 12.144531 20.890625 11.777344 C 20.890625 11.414062 20.820312 11.058594 20.679688 10.722656 C 20.539062 10.382812 20.339844 10.085938 20.082031 9.828125 C 19.820312 9.566406 19.523438 9.367188 19.183594 9.226562 C 18.847656 9.089844 18.496094 9.019531 18.128906 9.015625 Z M 18.359375 13.308594 L 18.359375 13.621094 L 17.898438 13.621094 L 17.898438 13.3125 L 17.207031 13.3125 L 17.207031 12.699219 L 17.898438 12.699219 L 17.898438 12.082031 C 17.660156 12.0625 17.460938 11.964844 17.296875 11.789062 C 17.132812 11.613281 17.054688 11.402344 17.054688 11.164062 C 17.054688 10.925781 17.132812 10.71875 17.296875 10.539062 C 17.460938 10.363281 17.660156 10.265625 17.898438 10.246094 L 17.898438 9.9375 L 18.359375 9.9375 L 18.359375 10.246094 L 19.050781 10.246094 L 19.050781 10.859375 L 18.359375 10.859375 L 18.359375 11.476562 C 18.597656 11.496094 18.796875 11.59375 18.960938 11.769531 C 19.121094 11.945312 19.203125 12.152344 19.203125 12.390625 C 19.203125 12.628906 19.121094 12.839844 18.960938 13.015625 C 18.796875 13.191406 18.597656 13.289062 18.359375 13.308594 Z M 18.359375 13.308594 " fill-opacity="1" fill-rule="nonzero"/><path fill="#ecc466" d="M 12.476562 13.960938 C 11.816406 14.253906 11.289062 14.699219 10.890625 15.304688 C 10.574219 15.128906 10.238281 15.042969 9.878906 15.042969 C 9.835938 15.042969 9.796875 15.042969 9.75 15.046875 C 9.667969 15.054688 9.585938 15.0625 9.5 15.078125 C 9.46875 15.082031 9.433594 15.085938 9.398438 15.09375 C 9.332031 14.304688 9.558594 13.609375 10.078125 13.011719 L 10.269531 14.085938 L 11.152344 13.265625 L 11.214844 14.148438 Z M 12.476562 13.960938 " fill-opacity="1" fill-rule="nonzero"/><path fill="#ecc466" d="M 9.480469 18.425781 L 9.480469 18.910156 C 9.617188 18.886719 9.679688 18.804688 9.664062 18.664062 C 9.683594 18.523438 9.621094 18.445312 9.480469 18.425781 Z M 9.480469 18.425781 " fill-opacity="1" fill-rule="nonzero"/><g clip-path="url(#1fd624ff84)"><path fill="#ecc466" d="M 12.5625 18.828125 C 12.179688 18.167969 11.921875 17.464844 11.78125 16.71875 C 11.730469 16.492188 11.644531 16.28125 11.515625 16.085938 C 11.390625 15.894531 11.234375 15.726562 11.050781 15.585938 C 10.867188 15.445312 10.664062 15.34375 10.441406 15.273438 C 10.21875 15.207031 9.992188 15.179688 9.761719 15.191406 C 9.679688 15.195312 9.601562 15.207031 9.523438 15.222656 C 7.757812 15.410156 5.925781 18.566406 5.925781 18.566406 L 5.902344 18.605469 C 5.789062 18.796875 5.726562 19.003906 5.707031 19.226562 C 5.6875 19.449219 5.71875 19.664062 5.796875 19.871094 C 5.878906 20.078125 5.996094 20.257812 6.160156 20.414062 C 6.320312 20.566406 6.503906 20.675781 6.71875 20.746094 C 8.285156 21.160156 9.875 21.253906 11.480469 21.03125 C 12.59375 20.855469 12.859375 20.257812 12.882812 19.757812 C 12.886719 19.410156 12.78125 19.101562 12.5625 18.828125 Z M 9.480469 19.410156 L 9.480469 19.664062 L 9.105469 19.664062 L 9.105469 19.414062 L 8.546875 19.414062 L 8.546875 18.917969 L 9.105469 18.917969 L 9.105469 18.414062 C 8.914062 18.398438 8.75 18.320312 8.621094 18.175781 C 8.488281 18.035156 8.421875 17.867188 8.421875 17.671875 C 8.421875 17.476562 8.488281 17.308594 8.621094 17.167969 C 8.75 17.023438 8.914062 16.945312 9.105469 16.929688 L 9.105469 16.675781 L 9.480469 16.675781 L 9.480469 16.925781 L 10.039062 16.925781 L 10.039062 17.421875 L 9.480469 17.421875 L 9.480469 17.921875 C 9.671875 17.941406 9.835938 18.019531 9.964844 18.164062 C 10.097656 18.304688 10.160156 18.472656 10.160156 18.667969 C 10.160156 18.859375 10.097656 19.027344 9.964844 19.171875 C 9.835938 19.316406 9.671875 19.394531 9.480469 19.410156 Z M 9.480469 19.410156 " fill-opacity="1" fill-rule="nonzero"/></g><path fill="#ecc466" d="M 8.917969 17.671875 C 8.90625 17.808594 8.96875 17.890625 9.105469 17.914062 L 9.105469 17.429688 C 8.964844 17.449219 8.902344 17.527344 8.917969 17.671875 Z M 8.917969 17.671875 " fill-opacity="1" fill-rule="nonzero"/></svg>