<svg xmlns="http://www.w3.org/2000/svg" xmlns:xlink="http://www.w3.org/1999/xlink" width="45" zoomAndPan="magnify" viewBox="0 0 33.75 33.749998" height="45" preserveAspectRatio="xMidYMid meet" version="1.0"><defs><clipPath id="5b2872c846"><path d="M 1.675781 11 L 12 11 L 12 22 L 1.675781 22 Z M 1.675781 11 " clip-rule="nonzero"/></clipPath><clipPath id="b8c5619e07"><path d="M 24.394531 16.074219 L 30.671875 16.074219 L 30.671875 24.828125 L 24.394531 24.828125 Z M 24.394531 16.074219 " clip-rule="nonzero"/></clipPath></defs><g clip-path="url(#5b2872c846)"><path fill="#2f7cee" d="M 5.496094 14.242188 C 5.496094 13.738281 6.070312 13.480469 6.488281 13.480469 C 7.5 13.480469 8.335938 14.085938 8.335938 15.152344 L 10.941406 15.152344 L 10.941406 11.535156 L 8.464844 11.535156 L 8.320312 12.746094 C 7.742188 11.664062 6.519531 11.273438 5.308594 11.273438 C 3.894531 11.273438 1.875 12.242188 1.875 14.375 C 1.875 18.050781 7.410156 17.574219 7.410156 18.699219 C 7.410156 19.304688 6.691406 19.417969 6.1875 19.417969 C 5.582031 19.390625 4.371094 19.1875 4.371094 17.976562 L 1.691406 17.976562 L 1.691406 21.609375 L 4.210938 21.609375 L 4.371094 20.5 C 4.917969 21.148438 5.925781 21.824219 7.382812 21.824219 C 9.097656 21.824219 11.203125 21.019531 11.203125 18.769531 C 11.203125 15.382812 5.496094 15.730469 5.496094 14.242188 " fill-opacity="1" fill-rule="nonzero"/></g><path fill="#2f7cee" d="M 11.921875 13.4375 L 12.832031 13.4375 L 12.832031 19.691406 L 11.921875 19.691406 L 11.921875 21.609375 L 20.613281 21.609375 L 20.613281 18.351562 L 18.121094 18.351562 L 18.121094 19.691406 L 15.816406 19.691406 L 15.816406 17.34375 L 18.554688 17.34375 L 18.554688 15.425781 L 15.816406 15.425781 L 15.816406 13.4375 L 18.121094 13.4375 L 18.121094 14.71875 L 20.613281 14.71875 L 20.613281 11.535156 L 11.921875 11.535156 L 11.921875 13.4375 " fill-opacity="1" fill-rule="nonzero"/><path fill="#2f7cee" d="M 27.996094 16.339844 C 27.996094 15.515625 27.328125 14.847656 26.503906 14.847656 C 25.679688 14.847656 25.011719 15.515625 25.011719 16.339844 C 25.011719 16.773438 25.195312 17.160156 25.484375 17.433594 L 25.484375 16.808594 C 25.484375 16.78125 25.488281 16.757812 25.488281 16.730469 C 25.441406 16.609375 25.414062 16.480469 25.414062 16.339844 C 25.414062 15.742188 25.902344 15.253906 26.503906 15.253906 C 27.105469 15.253906 27.59375 15.742188 27.59375 16.339844 C 27.59375 16.480469 27.566406 16.609375 27.519531 16.730469 C 27.519531 16.757812 27.523438 16.78125 27.523438 16.808594 L 27.523438 17.433594 C 27.8125 17.160156 27.996094 16.773438 27.996094 16.339844 " fill-opacity="1" fill-rule="nonzero"/><path fill="#2f7cee" d="M 28.097656 18.328125 C 28.234375 18.375 28.359375 18.453125 28.460938 18.550781 C 29.070312 18.007812 29.457031 17.21875 29.457031 16.339844 C 29.457031 14.710938 28.132812 13.386719 26.503906 13.386719 C 24.871094 13.386719 23.550781 14.710938 23.550781 16.339844 C 23.550781 17.613281 24.355469 18.699219 25.484375 19.113281 L 25.484375 18.675781 C 24.585938 18.28125 23.957031 17.382812 23.957031 16.339844 C 23.957031 14.9375 25.097656 13.792969 26.503906 13.792969 C 27.910156 13.792969 29.050781 14.9375 29.050781 16.339844 C 29.050781 17.144531 28.679688 17.859375 28.097656 18.328125 " fill-opacity="1" fill-rule="nonzero"/><path fill="#2f7cee" d="M 26.507812 11 C 23.578125 11 21.203125 13.375 21.203125 16.304688 C 21.203125 18.382812 22.402344 20.183594 24.140625 21.050781 C 24.140625 21.042969 24.136719 21.03125 24.136719 21.019531 C 24.109375 20.910156 24.074219 20.789062 24.035156 20.660156 C 23.921875 20.273438 23.808594 19.882812 23.859375 19.53125 C 22.929688 18.765625 22.335938 17.605469 22.335938 16.304688 C 22.335938 14 24.203125 12.132812 26.507812 12.132812 C 28.8125 12.132812 30.679688 14 30.679688 16.304688 C 30.679688 17.304688 30.328125 18.222656 29.742188 18.941406 C 29.847656 19.035156 29.941406 19.144531 30.007812 19.269531 C 30.027344 19.269531 30.046875 19.269531 30.066406 19.269531 C 30.324219 19.269531 30.558594 19.351562 30.75 19.492188 C 31.417969 18.605469 31.8125 17.5 31.8125 16.304688 C 31.8125 13.375 29.4375 11 26.507812 11 " fill-opacity="1" fill-rule="nonzero"/><g clip-path="url(#b8c5619e07)"><path fill="#2f7cee" d="M 30.066406 19.832031 C 29.855469 19.832031 29.714844 19.929688 29.601562 20.085938 L 29.601562 19.886719 C 29.601562 19.496094 29.3125 19.21875 28.957031 19.21875 C 28.714844 19.21875 28.507812 19.34375 28.398438 19.542969 L 28.398438 19.355469 C 28.398438 18.953125 28.097656 18.667969 27.734375 18.667969 C 27.453125 18.667969 27.214844 18.832031 27.117188 19.089844 L 27.117188 16.808594 C 27.117188 16.40625 26.84375 16.078125 26.503906 16.078125 C 26.164062 16.078125 25.890625 16.40625 25.890625 16.808594 L 25.890625 20.804688 C 25.804688 20.550781 25.726562 20.328125 25.664062 20.171875 C 25.445312 19.605469 25.023438 19.257812 24.679688 19.332031 C 24.160156 19.441406 24.535156 20.265625 24.683594 20.890625 C 24.808594 21.40625 25.078125 22.382812 25.171875 22.621094 C 25.335938 23.03125 25.515625 23.382812 25.691406 23.621094 C 26.242188 24.464844 27.101562 24.828125 28.042969 24.828125 C 29.1875 24.828125 30.644531 24.15625 30.644531 22.132812 C 30.644531 22.117188 30.644531 22.101562 30.644531 22.085938 L 30.644531 20.460938 C 30.644531 20.09375 30.410156 19.832031 30.066406 19.832031 " fill-opacity="1" fill-rule="nonzero"/></g></svg>