<svg xmlns="http://www.w3.org/2000/svg" xmlns:xlink="http://www.w3.org/1999/xlink" width="45" zoomAndPan="magnify" viewBox="0 0 33.75 33.749998" height="45" preserveAspectRatio="xMidYMid meet" version="1.0"><defs><clipPath id="3e6589bcfa"><path d="M 1.917969 2 L 31.695312 2 L 31.695312 31.695312 L 1.917969 31.695312 Z M 1.917969 2 " clip-rule="nonzero"/></clipPath></defs><g clip-path="url(#3e6589bcfa)"><path fill="#c4942e" d="M 29.035156 19.882812 C 26.273438 19.882812 24.890625 23.226562 26.839844 25.179688 C 27.199219 25.539062 27.199219 26.121094 26.839844 26.484375 L 24.859375 28.464844 C 24.5 28.824219 23.914062 28.824219 23.554688 28.464844 C 21.605469 26.511719 18.257812 27.898438 18.257812 30.660156 C 18.257812 31.167969 17.847656 31.582031 17.339844 31.582031 L 14.535156 31.582031 C 14.027344 31.582031 13.613281 31.167969 13.613281 30.660156 C 13.613281 27.894531 10.273438 26.511719 8.316406 28.464844 C 7.957031 28.824219 7.375 28.824219 7.015625 28.464844 L 5.03125 26.484375 C 4.671875 26.121094 4.671875 25.539062 5.03125 25.179688 C 6.984375 23.226562 5.597656 19.882812 2.839844 19.882812 C 2.328125 19.882812 1.917969 19.472656 1.917969 18.960938 L 1.917969 16.160156 C 1.917969 15.648438 2.328125 15.238281 2.839844 15.238281 C 5.597656 15.238281 6.984375 11.894531 5.03125 9.941406 C 4.671875 9.582031 4.671875 8.996094 5.03125 8.636719 L 7.015625 6.65625 C 7.375 6.296875 7.957031 6.296875 8.316406 6.65625 C 10.269531 8.609375 13.613281 7.222656 13.613281 4.460938 C 13.613281 3.953125 14.027344 3.539062 14.535156 3.539062 L 17.339844 3.539062 C 17.847656 3.539062 18.257812 3.953125 18.257812 4.460938 C 18.257812 4.90625 18.347656 5.3125 18.5 5.679688 L 9.5625 8.074219 C 9.054688 8.210938 8.765625 8.746094 8.9375 9.246094 C 9.28125 10.253906 9.71875 10.71875 10.238281 10.898438 C 10.550781 11.003906 10.859375 11 11.183594 10.945312 L 10.757812 13.253906 C 9.785156 14.421875 9.199219 15.921875 9.199219 17.558594 C 9.199219 21.148438 12.003906 24.082031 15.542969 24.285156 C 15.523438 24.378906 15.511719 24.476562 15.511719 24.574219 L 15.511719 25.53125 C 15.511719 25.769531 15.703125 25.960938 15.941406 25.960938 L 21.347656 25.960938 C 21.585938 25.960938 21.777344 25.769531 21.777344 25.53125 L 21.777344 24.574219 C 21.777344 23.941406 21.34375 23.390625 20.734375 23.234375 C 20.667969 22.96875 20.609375 22.710938 20.5625 22.457031 C 21.863281 21.230469 22.671875 19.488281 22.671875 17.558594 C 22.671875 17.261719 22.652344 16.96875 22.617188 16.679688 L 24.59375 15.644531 C 25.371094 15.234375 25.882812 14.554688 26.054688 13.691406 L 26.144531 13.25 C 26.574219 14.367188 27.625 15.238281 29.035156 15.238281 C 29.542969 15.238281 29.957031 15.648438 29.957031 16.160156 L 29.957031 18.960938 C 29.957031 19.472656 29.542969 19.882812 29.035156 19.882812 Z M 21.070312 11.457031 L 19.539062 11.867188 C 20.21875 12.296875 20.816406 12.847656 21.300781 13.484375 L 21.414062 13.417969 C 21.679688 13.261719 21.816406 12.996094 21.792969 12.691406 L 21.738281 11.929688 C 21.710938 11.59375 21.398438 11.371094 21.070312 11.457031 Z M 27.242188 2.417969 C 26.742188 2.550781 26.445312 3.070312 26.578125 3.566406 L 28.269531 9.875 C 28.402344 10.375 28.917969 10.671875 29.417969 10.539062 L 30.78125 10.175781 C 31.277344 10.039062 31.578125 9.523438 31.445312 9.023438 L 29.753906 2.71875 C 29.621094 2.21875 29.101562 1.921875 28.605469 2.054688 Z M 15.507812 10.121094 C 15.625 9.914062 15.886719 9.84375 16.09375 9.960938 C 16.296875 10.082031 16.367188 10.34375 16.25 10.546875 L 14.925781 12.84375 C 14.714844 13.207031 14.667969 13.578125 14.777344 13.980469 L 15.945312 18.339844 C 16.027344 18.65625 16.359375 18.816406 16.660156 18.691406 C 17.46875 18.359375 17.609375 17.949219 17.386719 17.113281 L 16.675781 14.46875 C 16.578125 14.097656 16.628906 13.730469 16.820312 13.402344 L 17.621094 12.046875 C 17.875 11.613281 18.261719 11.320312 18.75 11.1875 L 20.847656 10.625 C 21.691406 10.398438 22.53125 10.996094 22.59375 11.871094 L 22.652344 12.632812 C 22.699219 13.261719 22.394531 13.839844 21.847656 14.160156 L 20.542969 14.921875 C 19.988281 15.242188 19.328125 15.707031 19.523438 16.441406 C 19.605469 16.738281 19.695312 16.972656 19.8125 17.066406 C 19.921875 17.152344 20.140625 17 20.246094 16.953125 L 24.195312 14.882812 C 24.742188 14.59375 25.089844 14.128906 25.214844 13.523438 L 25.902344 10.097656 C 26.011719 9.546875 26.425781 9.148438 26.96875 9.011719 L 27.132812 8.972656 L 25.953125 4.574219 L 19.339844 6.34375 C 19.167969 6.390625 19.03125 6.460938 18.894531 6.566406 L 13.792969 10.589844 C 13.453125 10.855469 13.265625 11.203125 13.230469 11.632812 L 12.839844 16.167969 C 12.808594 16.511719 13.089844 16.785156 13.429688 16.742188 C 13.84375 16.695312 14.289062 16.519531 14.457031 16.109375 L 13.945312 14.203125 C 13.777344 13.582031 13.859375 12.972656 14.179688 12.417969 Z M 16.375 25.101562 L 20.914062 25.101562 L 20.914062 24.574219 C 20.914062 24.289062 20.679688 24.050781 20.390625 24.050781 L 16.898438 24.050781 C 16.609375 24.050781 16.375 24.289062 16.375 24.574219 Z M 18.648438 16.46875 C 18.46875 16.46875 18.296875 16.5 18.128906 16.566406 L 18.21875 16.890625 C 18.421875 17.65625 18.414062 18.425781 17.804688 18.996094 C 18.042969 19.171875 18.34375 19.273438 18.644531 19.273438 C 19.390625 19.273438 20.007812 18.6875 20.042969 17.945312 C 19.1875 18.074219 18.769531 17.175781 18.648438 16.46875 Z M 19.421875 19.996094 C 18.921875 20.179688 18.367188 20.179688 17.867188 19.996094 C 17.824219 21.085938 17.699219 22.128906 17.449219 23.1875 L 19.839844 23.1875 C 19.589844 22.128906 19.464844 21.085938 19.421875 19.996094 Z M 16.988281 6.976562 L 9.785156 8.90625 C 9.753906 8.914062 9.742188 8.941406 9.75 8.972656 C 9.992188 9.683594 10.246094 9.988281 10.515625 10.082031 C 10.753906 10.164062 11.066406 10.101562 11.425781 10.011719 C 11.511719 9.800781 11.613281 9.605469 11.734375 9.425781 C 11.867188 9.230469 12.132812 9.175781 12.328125 9.308594 C 12.527344 9.441406 12.578125 9.707031 12.449219 9.90625 C 12.253906 10.195312 12.136719 10.515625 12.074219 10.855469 L 11.375 14.644531 C 11.367188 14.671875 11.386719 14.703125 11.417969 14.703125 C 11.625 14.722656 11.835938 14.730469 11.980469 14.679688 C 12.046875 14.65625 12.097656 14.605469 12.117188 14.507812 L 12.371094 11.5625 C 12.425781 10.894531 12.734375 10.328125 13.257812 9.914062 Z M 16.988281 6.976562 " fill-opacity="1" fill-rule="evenodd"/></g></svg>