<svg xmlns="http://www.w3.org/2000/svg" xmlns:xlink="http://www.w3.org/1999/xlink" width="45" zoomAndPan="magnify" viewBox="0 0 33.75 33.749998" height="45" preserveAspectRatio="xMidYMid meet" version="1.0"><defs><clipPath id="c4a354f4e9"><path d="M 11 4.335938 L 22 4.335938 L 22 28.902344 L 11 28.902344 Z M 11 4.335938 " clip-rule="nonzero"/></clipPath><clipPath id="0c3682917f"><path d="M 1.835938 10 L 14 10 L 14 28.902344 L 1.835938 28.902344 Z M 1.835938 10 " clip-rule="nonzero"/></clipPath><clipPath id="3c7f82e1f1"><path d="M 20 10 L 31.617188 10 L 31.617188 28.902344 L 20 28.902344 Z M 20 10 " clip-rule="nonzero"/></clipPath></defs><g clip-path="url(#c4a354f4e9)"><path fill="#030429" d="M 19.664062 12.144531 L 21.257812 12.144531 L 16.75 4.335938 L 12.242188 12.144531 L 13.835938 12.144531 L 13.835938 25.859375 L 11.914062 29.160156 L 21.585938 29.160156 L 19.664062 25.859375 Z M 19.664062 12.144531 " fill-opacity="1" fill-rule="nonzero"/></g><g clip-path="url(#0c3682917f)"><path fill="#030429" d="M 12.113281 16.460938 L 13.355469 16.460938 L 9.867188 10.417969 L 6.378906 16.460938 L 7.625 16.460938 L 7.625 25.859375 L 1.84375 29.160156 L 9.109375 29.160156 L 12.113281 25.859375 Z M 12.113281 16.460938 " fill-opacity="1" fill-rule="nonzero"/></g><g clip-path="url(#3c7f82e1f1)"><path fill="#030429" d="M 25.875 25.859375 L 25.875 16.460938 L 27.121094 16.460938 L 23.632812 10.417969 L 20.144531 16.460938 L 21.386719 16.460938 L 21.386719 25.859375 L 24.390625 29.160156 L 31.65625 29.160156 Z M 25.875 25.859375 " fill-opacity="1" fill-rule="nonzero"/></g></svg>