<svg xmlns="http://www.w3.org/2000/svg" xmlns:xlink="http://www.w3.org/1999/xlink" width="45" zoomAndPan="magnify" viewBox="0 0 33.75 33.749998" height="45" preserveAspectRatio="xMidYMid meet" version="1.0"><defs><clipPath id="7627bc740a"><path d="M 6.847656 26 L 10 26 L 10 32.320312 L 6.847656 32.320312 Z M 6.847656 26 " clip-rule="nonzero"/></clipPath><clipPath id="5af5e7f86e"><path d="M 22 26 L 26.949219 26 L 26.949219 32.320312 L 22 32.320312 Z M 22 26 " clip-rule="nonzero"/></clipPath><clipPath id="4d5a3101ff"><path d="M 6.847656 13 L 26.949219 13 L 26.949219 32.320312 L 6.847656 32.320312 Z M 6.847656 13 " clip-rule="nonzero"/></clipPath><clipPath id="eb8cf3e043"><path d="M 24 13 L 26.949219 13 L 26.949219 17 L 24 17 Z M 24 13 " clip-rule="nonzero"/></clipPath><clipPath id="3d613a1013"><path d="M 9 1.050781 L 25 1.050781 L 25 13 L 9 13 Z M 9 1.050781 " clip-rule="nonzero"/></clipPath></defs><g clip-path="url(#7627bc740a)"><path fill="#ecc266" d="M 8.285156 28.191406 C 7.886719 27.207031 7.230469 26.789062 6.847656 26.621094 L 6.847656 30.347656 C 6.847656 31.5 7.785156 32.433594 8.933594 32.433594 L 9.808594 32.433594 C 9.132812 31.742188 8.921875 30.746094 8.714844 29.773438 C 8.601562 29.234375 8.484375 28.675781 8.285156 28.191406 Z M 8.285156 28.191406 " fill-opacity="1" fill-rule="nonzero"/></g><g clip-path="url(#5af5e7f86e)"><path fill="#ecc266" d="M 22.007812 32.433594 L 24.546875 32.433594 C 25.699219 32.433594 26.636719 31.5 26.636719 30.347656 L 26.636719 29.75 C 26.261719 30.378906 25.828125 30.917969 25.320312 31.367188 C 25.269531 31.410156 25.210938 31.433594 25.148438 31.433594 C 25.078125 31.433594 25.007812 31.402344 24.957031 31.347656 C 24.863281 31.242188 24.871094 31.078125 24.976562 30.984375 C 25.660156 30.375 26.203125 29.601562 26.636719 28.621094 L 26.636719 26.492188 C 25.777344 28.777344 24.179688 30.828125 22.007812 32.433594 Z M 22.007812 32.433594 " fill-opacity="1" fill-rule="nonzero"/></g><g clip-path="url(#4d5a3101ff)"><path fill="#ecc266" d="M 23.761719 13.0625 L 22.449219 13.0625 C 22.820312 13.519531 23.164062 14.046875 23.507812 14.679688 C 23.578125 14.804688 23.53125 14.960938 23.40625 15.03125 C 23.367188 15.050781 23.324219 15.0625 23.285156 15.0625 C 23.191406 15.0625 23.105469 15.011719 23.058594 14.925781 C 22.640625 14.164062 22.230469 13.566406 21.769531 13.0625 L 13.492188 13.0625 C 11.632812 14.5625 10.734375 16.539062 10.828125 18.9375 C 10.832031 19.078125 10.722656 19.199219 10.578125 19.203125 C 10.578125 19.203125 10.574219 19.203125 10.570312 19.203125 C 10.433594 19.203125 10.320312 19.09375 10.3125 18.957031 C 10.222656 16.59375 11.03125 14.617188 12.707031 13.0625 L 9.863281 13.0625 C 10.183594 13.398438 10.433594 13.796875 10.605469 14.257812 C 10.652344 14.390625 10.585938 14.539062 10.453125 14.589844 C 10.421875 14.601562 10.394531 14.605469 10.363281 14.605469 C 10.257812 14.605469 10.160156 14.542969 10.121094 14.4375 C 9.910156 13.863281 9.554688 13.402344 9.078125 13.0625 L 8.933594 13.0625 C 8.257812 13.0625 7.660156 13.386719 7.277344 13.886719 C 7.890625 14.019531 8.40625 14.386719 8.804688 14.988281 C 8.882812 15.105469 8.851562 15.265625 8.734375 15.34375 C 8.6875 15.375 8.640625 15.386719 8.589844 15.386719 C 8.507812 15.386719 8.425781 15.347656 8.375 15.273438 C 8.015625 14.726562 7.566406 14.429688 7.003906 14.359375 C 6.902344 14.601562 6.847656 14.871094 6.847656 15.148438 L 6.847656 16.445312 C 7.394531 16.558594 7.886719 16.828125 8.3125 17.257812 C 8.410156 17.355469 8.410156 17.519531 8.308594 17.621094 C 8.261719 17.671875 8.195312 17.695312 8.128906 17.695312 C 8.0625 17.695312 7.996094 17.667969 7.945312 17.617188 C 7.617188 17.289062 7.253906 17.078125 6.847656 16.972656 L 6.847656 18.371094 L 8.222656 18.566406 C 8.359375 18.589844 8.460938 18.71875 8.4375 18.859375 C 8.421875 18.988281 8.3125 19.082031 8.183594 19.082031 C 8.171875 19.082031 8.160156 19.078125 8.148438 19.078125 L 6.847656 18.890625 L 6.847656 19.5625 C 8.429688 19.8125 9.730469 20.925781 10.722656 22.882812 C 10.785156 23.011719 10.734375 23.164062 10.609375 23.230469 C 10.570312 23.25 10.53125 23.257812 10.492188 23.257812 C 10.398438 23.257812 10.308594 23.207031 10.261719 23.117188 C 9.371094 21.347656 8.222656 20.332031 6.847656 20.082031 L 6.847656 21.523438 C 7.746094 21.855469 8.425781 22.546875 8.863281 23.59375 C 8.917969 23.722656 8.855469 23.875 8.726562 23.929688 C 8.695312 23.945312 8.660156 23.949219 8.625 23.949219 C 8.527344 23.949219 8.429688 23.890625 8.390625 23.792969 C 8.035156 22.945312 7.527344 22.378906 6.847656 22.074219 L 6.847656 23.699219 C 7.171875 23.921875 7.550781 24.023438 8.007812 23.996094 C 8.148438 23.988281 8.273438 24.09375 8.28125 24.238281 C 8.289062 24.378906 8.179688 24.5 8.039062 24.507812 C 7.980469 24.511719 7.921875 24.515625 7.863281 24.515625 C 7.492188 24.515625 7.152344 24.441406 6.847656 24.296875 L 6.847656 25.164062 C 7.480469 25.203125 8.019531 25.136719 8.480469 24.945312 C 8.613281 24.894531 8.765625 24.957031 8.816406 25.085938 C 8.871094 25.21875 8.808594 25.367188 8.675781 25.421875 C 8.234375 25.605469 7.738281 25.695312 7.171875 25.695312 C 7.066406 25.695312 6.957031 25.691406 6.847656 25.683594 L 6.847656 26.070312 C 7.269531 26.214844 8.222656 26.671875 8.761719 28 C 8.976562 28.527344 9.101562 29.105469 9.21875 29.667969 C 9.460938 30.8125 9.691406 31.890625 10.640625 32.4375 L 11.785156 32.4375 C 9.8125 30.589844 8.957031 28.078125 9.253906 24.953125 C 9.269531 24.8125 9.394531 24.703125 9.535156 24.722656 C 9.675781 24.738281 9.78125 24.863281 9.765625 25.003906 C 9.460938 28.21875 10.378906 30.648438 12.5625 32.433594 L 13.84375 32.433594 C 11.742188 30.320312 10.605469 27.714844 10.464844 24.675781 C 10.457031 24.535156 10.566406 24.414062 10.710938 24.40625 C 10.851562 24.402344 10.972656 24.511719 10.976562 24.652344 C 11.121094 27.734375 12.335938 30.351562 14.585938 32.433594 L 17.730469 32.433594 C 17.460938 32.050781 17.148438 31.433594 17.148438 30.640625 C 17.148438 29.8125 17.558594 28.925781 18.035156 27.898438 C 18.761719 26.328125 19.667969 24.367188 19.667969 21.585938 C 19.667969 18.832031 18.355469 16.59375 16.742188 16.59375 C 16.085938 16.59375 15.441406 16.980469 14.921875 17.683594 C 14.839844 17.800781 14.679688 17.824219 14.5625 17.738281 C 14.449219 17.65625 14.425781 17.496094 14.507812 17.378906 C 15.128906 16.542969 15.917969 16.078125 16.742188 16.078125 C 18.640625 16.078125 20.183594 18.550781 20.183594 21.585938 C 20.183594 24.480469 19.25 26.496094 18.5 28.117188 C 18.03125 29.128906 17.660156 29.925781 17.660156 30.640625 C 17.660156 31.574219 18.203125 32.234375 18.390625 32.433594 L 19.140625 32.433594 C 19.796875 30.824219 20.621094 29.882812 21.421875 28.96875 C 21.53125 28.84375 21.640625 28.722656 21.75 28.597656 C 21.84375 28.488281 22.003906 28.476562 22.113281 28.570312 C 22.21875 28.660156 22.230469 28.824219 22.140625 28.933594 C 22.03125 29.058594 21.921875 29.183594 21.808594 29.308594 C 21.070312 30.152344 20.308594 31.019531 19.695312 32.433594 L 21.113281 32.433594 C 24.054688 30.46875 26.015625 27.703125 26.636719 24.636719 L 26.636719 19.605469 C 25.132812 19.160156 24.441406 17.734375 23.710938 16.226562 C 23.648438 16.097656 23.699219 15.941406 23.828125 15.878906 C 23.957031 15.816406 24.109375 15.867188 24.171875 15.996094 L 24.175781 16.003906 C 24.851562 17.40625 25.445312 18.632812 26.636719 19.0625 L 26.636719 16.921875 C 24.972656 16.238281 24.003906 14.9375 23.761719 13.0625 Z M 16.835938 13.4375 C 17.628906 13.304688 18.457031 13.34375 19.238281 13.554688 C 19.375 13.59375 19.453125 13.734375 19.417969 13.871094 C 19.386719 13.984375 19.285156 14.0625 19.167969 14.0625 C 19.148438 14.0625 19.125 14.058594 19.101562 14.050781 C 18.394531 13.859375 17.644531 13.824219 16.921875 13.945312 C 16.78125 13.96875 16.648438 13.875 16.625 13.734375 C 16.601562 13.59375 16.695312 13.460938 16.835938 13.4375 Z M 8.808594 18.574219 C 8.324219 15.988281 9.476562 14.925781 9.527344 14.882812 C 9.632812 14.789062 9.792969 14.796875 9.886719 14.902344 C 9.984375 15.011719 9.972656 15.171875 9.867188 15.265625 C 9.824219 15.308594 8.890625 16.207031 9.316406 18.480469 C 9.339844 18.617188 9.25 18.753906 9.109375 18.777344 C 9.09375 18.78125 9.078125 18.785156 9.0625 18.785156 C 8.941406 18.785156 8.832031 18.695312 8.808594 18.574219 Z M 12.128906 24.820312 C 11.988281 24.820312 11.871094 24.707031 11.871094 24.5625 C 11.871094 24 11.785156 23.609375 11.570312 23.207031 C 11.167969 22.445312 10.695312 21.890625 10.242188 21.355469 C 9.769531 20.796875 9.324219 20.273438 8.984375 19.566406 C 8.921875 19.4375 8.976562 19.285156 9.101562 19.222656 C 9.230469 19.160156 9.382812 19.214844 9.445312 19.34375 C 9.757812 19.992188 10.183594 20.492188 10.632812 21.023438 C 11.105469 21.578125 11.597656 22.15625 12.027344 22.964844 C 12.277344 23.441406 12.386719 23.917969 12.386719 24.5625 C 12.386719 24.707031 12.269531 24.820312 12.128906 24.820312 Z M 11.433594 20.613281 C 11.433594 20.472656 11.550781 20.359375 11.691406 20.359375 C 11.832031 20.359375 11.949219 20.472656 11.949219 20.613281 C 11.949219 21.109375 12.214844 21.589844 12.554688 22.199219 C 12.921875 22.863281 13.382812 23.6875 13.648438 24.832031 C 13.679688 24.96875 13.59375 25.109375 13.457031 25.140625 C 13.4375 25.144531 13.417969 25.148438 13.398438 25.148438 C 13.28125 25.148438 13.175781 25.066406 13.148438 24.949219 C 12.898438 23.875 12.476562 23.117188 12.105469 22.449219 C 11.746094 21.800781 11.433594 21.242188 11.433594 20.613281 Z M 14.328125 30.773438 C 14.28125 30.8125 14.226562 30.828125 14.171875 30.828125 C 14.09375 30.828125 14.019531 30.792969 13.96875 30.730469 C 13.046875 29.546875 12.824219 28.050781 12.613281 26.605469 C 12.585938 26.410156 12.554688 26.214844 12.527344 26.019531 C 12.503906 25.878906 12.597656 25.746094 12.738281 25.726562 C 12.878906 25.703125 13.011719 25.796875 13.035156 25.9375 C 13.0625 26.136719 13.09375 26.332031 13.121094 26.53125 C 13.324219 27.910156 13.535156 29.335938 14.375 30.414062 C 14.460938 30.527344 14.441406 30.6875 14.328125 30.773438 Z M 16.628906 31.457031 C 16.621094 31.59375 16.507812 31.699219 16.371094 31.699219 C 16.367188 31.699219 16.363281 31.699219 16.355469 31.699219 C 16.214844 31.691406 16.105469 31.570312 16.113281 31.429688 C 16.191406 30.085938 15.523438 29.160156 14.820312 28.175781 C 14.300781 27.453125 13.761719 26.707031 13.511719 25.765625 C 13.476562 25.628906 13.558594 25.488281 13.695312 25.449219 C 13.832031 25.414062 13.972656 25.496094 14.007812 25.632812 C 14.234375 26.484375 14.722656 27.160156 15.238281 27.878906 C 15.964844 28.886719 16.714844 29.933594 16.628906 31.457031 Z M 15.980469 26.390625 L 15.980469 22.871094 C 15.980469 22.59375 15.839844 22.339844 15.605469 22.191406 C 14.953125 21.773438 14.546875 21.007812 14.652344 20.152344 C 14.769531 19.203125 15.546875 18.433594 16.496094 18.328125 C 17.769531 18.183594 18.847656 19.175781 18.847656 20.417969 C 18.847656 21.167969 18.453125 21.824219 17.863281 22.199219 C 17.632812 22.34375 17.5 22.597656 17.5 22.871094 L 17.5 24.632812 C 18.101562 24.070312 18.464844 23.386719 18.59375 22.542969 C 18.613281 22.402344 18.746094 22.308594 18.886719 22.328125 C 19.027344 22.351562 19.121094 22.480469 19.101562 22.621094 C 18.941406 23.652344 18.457031 24.511719 17.664062 25.175781 C 17.617188 25.214844 17.558594 25.234375 17.5 25.234375 L 17.5 27.058594 C 17.5 27.492188 17.136719 27.839844 16.699219 27.816406 C 16.289062 27.796875 15.980469 27.429688 15.980469 27.015625 L 15.980469 26.976562 C 15.929688 26.976562 15.875 26.960938 15.828125 26.929688 C 14.910156 26.25 14.214844 25.324219 13.828125 24.25 C 13.777344 24.113281 13.847656 23.96875 13.980469 23.917969 C 14.117188 23.871094 14.261719 23.941406 14.3125 24.074219 C 14.644531 24.992188 15.21875 25.789062 15.980469 26.390625 Z M 14.910156 16.023438 C 13.921875 17.140625 13.621094 18.253906 13.476562 19.578125 C 13.363281 20.640625 13.566406 21.945312 14.035156 23.15625 C 14.085938 23.289062 14.023438 23.4375 13.890625 23.488281 C 13.859375 23.5 13.828125 23.507812 13.796875 23.507812 C 13.695312 23.507812 13.597656 23.445312 13.558594 23.34375 C 13.058594 22.058594 12.84375 20.664062 12.964844 19.523438 C 13.121094 18.101562 13.445312 16.902344 14.523438 15.683594 C 14.617188 15.578125 14.78125 15.566406 14.886719 15.660156 C 14.992188 15.753906 15.003906 15.917969 14.910156 16.023438 Z M 11.945312 19.589844 C 11.925781 19.71875 11.816406 19.808594 11.691406 19.808594 C 11.679688 19.808594 11.664062 19.808594 11.652344 19.804688 C 11.511719 19.785156 11.414062 19.652344 11.4375 19.515625 C 11.824219 16.949219 13.367188 14.78125 15.472656 13.847656 C 15.601562 13.792969 15.753906 13.851562 15.8125 13.980469 C 15.871094 14.109375 15.808594 14.261719 15.679688 14.320312 C 13.734375 15.179688 12.304688 17.199219 11.945312 19.589844 Z M 19.105469 30.753906 C 19.105469 30.898438 18.988281 31.011719 18.847656 31.011719 C 18.703125 31.011719 18.589844 30.898438 18.589844 30.753906 C 18.589844 29.398438 19.066406 28.28125 19.570312 27.101562 C 20.15625 25.730469 20.816406 24.179688 20.816406 21.957031 C 20.816406 18.132812 19.125 15.253906 16.878906 15.253906 C 16.488281 15.253906 16.101562 15.339844 15.730469 15.507812 C 15.601562 15.570312 15.449219 15.511719 15.390625 15.382812 C 15.332031 15.253906 15.390625 15.101562 15.519531 15.042969 C 15.957031 14.839844 16.414062 14.738281 16.878906 14.738281 C 19.417969 14.738281 21.332031 17.839844 21.332031 21.957031 C 21.332031 24.285156 20.648438 25.886719 20.042969 27.300781 C 19.539062 28.480469 19.105469 29.5 19.105469 30.753906 Z M 19.992188 15.605469 C 19.882812 15.515625 19.871094 15.351562 19.964844 15.242188 C 20.054688 15.136719 20.21875 15.125 20.324219 15.214844 C 20.433594 15.304688 22.9375 17.492188 22.9375 21.777344 C 22.9375 22.820312 22.839844 23.808594 22.648438 24.71875 C 22.621094 24.839844 22.515625 24.921875 22.398438 24.921875 C 22.378906 24.921875 22.363281 24.921875 22.34375 24.917969 C 22.203125 24.886719 22.117188 24.75 22.144531 24.609375 C 22.332031 23.738281 22.425781 22.785156 22.425781 21.777344 C 22.425781 17.742188 20.015625 15.628906 19.992188 15.605469 Z M 22.183594 26.300781 C 21.75 27.429688 21.285156 27.964844 21.265625 27.988281 C 21.214844 28.046875 21.144531 28.074219 21.074219 28.074219 C 21.015625 28.074219 20.953125 28.054688 20.90625 28.011719 C 20.796875 27.917969 20.789062 27.757812 20.882812 27.648438 C 20.886719 27.644531 21.308594 27.152344 21.707031 26.117188 C 21.757812 25.984375 21.90625 25.917969 22.039062 25.96875 C 22.171875 26.019531 22.234375 26.167969 22.183594 26.300781 Z M 24.894531 19.585938 C 24.875 19.445312 24.972656 19.316406 25.113281 19.296875 C 25.253906 19.277344 25.382812 19.378906 25.402344 19.519531 C 25.421875 19.664062 25.878906 23.167969 25.179688 26.039062 C 24.46875 28.945312 21.890625 31.144531 21.78125 31.238281 C 21.734375 31.277344 21.675781 31.296875 21.617188 31.296875 C 21.542969 31.296875 21.472656 31.265625 21.421875 31.207031 C 21.328125 31.097656 21.34375 30.9375 21.453125 30.84375 C 21.476562 30.824219 24.007812 28.65625 24.679688 25.917969 C 25.355469 23.144531 24.898438 19.621094 24.894531 19.585938 Z M 24.53125 21.464844 C 24.53125 23.765625 24.226562 25.46875 23.574219 26.832031 C 23.53125 26.921875 23.441406 26.976562 23.34375 26.976562 C 23.308594 26.976562 23.269531 26.96875 23.234375 26.953125 C 23.105469 26.890625 23.050781 26.738281 23.113281 26.609375 C 23.730469 25.320312 24.015625 23.683594 24.015625 21.464844 C 24.015625 16.703125 20 14.4375 19.960938 14.414062 C 19.835938 14.34375 19.792969 14.1875 19.859375 14.0625 C 19.929688 13.941406 20.085938 13.894531 20.207031 13.960938 C 20.25 13.988281 24.53125 16.394531 24.53125 21.464844 Z M 24.53125 21.464844 " fill-opacity="1" fill-rule="nonzero"/></g><g clip-path="url(#eb8cf3e043)"><path fill="#ecc266" d="M 24.546875 13.0625 L 24.277344 13.0625 C 24.5 14.652344 25.277344 15.738281 26.636719 16.363281 L 26.636719 15.148438 C 26.636719 14 25.699219 13.0625 24.546875 13.0625 Z M 24.546875 13.0625 " fill-opacity="1" fill-rule="nonzero"/></g><g clip-path="url(#3d613a1013)"><path fill="#ecc266" d="M 10.671875 8.421875 C 10.671875 5.074219 13.394531 2.351562 16.742188 2.351562 C 20.085938 2.351562 22.8125 5.074219 22.8125 8.421875 L 22.8125 12.546875 L 24.289062 12.546875 L 24.289062 8.613281 C 24.289062 4.453125 20.902344 1.066406 16.742188 1.066406 C 12.578125 1.066406 9.191406 4.453125 9.191406 8.613281 L 9.191406 12.546875 L 10.671875 12.546875 Z M 10.671875 8.421875 " fill-opacity="1" fill-rule="nonzero"/></g></svg>