<?xml version="1.0" encoding="UTF-8"?>
<svg id="Layer_1" data-name="Layer 1" xmlns="http://www.w3.org/2000/svg" viewBox="0 0 56 56">
  <defs>
    <style>
      .cls-1 {
        fill: none;
      }

      .cls-2 {
        fill: #4fa4f4;
      }
    </style>
  </defs>
  <path class="cls-2" d="M12.380209,28.166668v9.15625c0,2.703125,6.453125,5.71875,15.708334,5.71875s15.708334-3.015625,15.708334-5.71875v-10.604167l-17.401042,7.744792-14.015625-6.296875"/>
  <rect class="cls-1" x=".651041" y="9.401039" width="54.697919" height="35.932297"/>
  <path class="cls-2" d="M32.020834,21.927084c-.385417,0-.692708-.3125-.692708-.697917,0-.380208.307292-.692708.692708-.692708h17.677084c-.083333.130208-.135417.28646-.135417.453126v.937499h-17.541667ZM55.343752,42.489585c-.75-6.255209-3.192708-9.182292-4.083333-10.0625v-11.437499c0-.166667-.052083-.322918-.135417-.453126-.151042-.239583-.411458-.395833-.713542-.395833-.046875,0-.088542.005208-.130208.015626l-23.911459-10.739585L.651041,20.864585l25.750001,11.562499,23.161459-10.307292v10.307292c-.890625.880208-3.333333,3.807292-4.083333,10.0625,0,.020833,0,.046875-.005208.072917,0,.125.010417.802083.645833,1.458333.807292.833333,2.25,1.260417,4.291667,1.260417s3.484375-.427083,4.291667-1.260417c.635417-.65625.645833-1.333333.645833-1.458333-.005208-.026042-.005208-.052083-.005208-.072917"/>
</svg>