<?xml version="1.0" encoding="UTF-8"?>
<svg id="Layer_1" data-name="Layer 1" xmlns="http://www.w3.org/2000/svg" xmlns:xlink="http://www.w3.org/1999/xlink" viewBox="0 0 56 56">
  <defs>
    <style>
      .cls-1 {
        fill: none;
      }

      .cls-2 {
        fill: #4fa4f4;
      }

      .cls-3 {
        clip-path: url(#clippath-1);
      }

      .cls-4 {
        clip-path: url(#clippath-2);
      }

      .cls-5 {
        clip-path: url(#clippath);
      }
    </style>
    <clipPath id="clippath">
      <rect class="cls-1" x="9.333334" y="22.666668" width="46.015627" height="20"/>
    </clipPath>
    <clipPath id="clippath-1">
      <rect class="cls-1" x=".651041" y="22.666668" width="11.348959" height="21.708332"/>
    </clipPath>
    <clipPath id="clippath-2">
      <rect class="cls-1" x="22.666668" y="10.1875" width="28" height="13.8125"/>
    </clipPath>
  </defs>
  <g class="cls-5">
    <path class="cls-2" d="M55.062502,25.026042c-.203125-.484375-.546875-.901042-.979167-1.197917-.4375-.296875-.947917-.46875-1.473958-.484375-.526042-.026042-1.046875.109375-1.5.375l-10.296875,6.182292c-.65625.927083-1.651042,1.567708-2.770833,1.770833l-10.807292,1.963542c-.270833.052083-.546875-.010417-.770833-.166667-.229167-.15625-.380208-.390625-.427083-.661458-.052083-.265625.010417-.546875.166667-.770833s.390625-.375.661458-.427083l10.8125-1.963542c.588542-.125,1.109375-.46875,1.447917-.96875.333333-.494792.463542-1.109375.354167-1.697917-.104167-.59375-.442708-1.119792-.932292-1.46875-.489583-.34375-1.098958-.484375-1.692708-.390625-2.526042.338542-7.505209,1.833333-9.994792.963542l-4.932292-1.317708c-.963542-.255208-1.973958-.296875-2.953125-.119792l-8.625,1.572917,2.473959,13.588542,2.05729-.375c1.083333-.197917,2.203125-.125,3.260417.208333l5.890625,1.848958c1.838542.578125,3.776042.755208,5.682292.515625,1.911458-.239583,3.744792-.885417,5.380208-1.901042l19.062501-11.776042c.583333-.421875.979167-1.052083,1.098958-1.765625.083333-.520833.020833-1.052083-.1875-1.536458h-.005208Z"/>
  </g>
  <g class="cls-3">
    <path class="cls-2" d="M7.906251,24.317709c-.046876-.265625-.203125-.505208-.427084-.65625-.223959-.15625-.505208-.21875-.770833-.166667l-6.057292,1.098958,3.614584,19.890626,6.0625-1.104167c.265624-.046875.505208-.203125.661459-.427083.156249-.223958.218749-.5.166667-.770833l-3.250001-17.864584Z"/>
  </g>
  <g class="cls-4">
    <path class="cls-2" d="M49.744793,10.203126h-25.864584v13.135416h25.864584v-13.135416ZM36.812501,20.322919c-1.958333,0-3.552083-1.593751-3.552083-3.552085s1.59375-3.552085,3.552083-3.552085c1.963542,0,3.552083,1.593751,3.552083,3.552085,0,1.963542-1.588542,3.552085-3.552083,3.552085Z"/>
  </g>
  <path class="cls-2" d="M38.062501,16.802083c-.135417-.098957-.286458-.177082-.453125-.229164-.130208-.03646-.260417-.072918-.390625-.104169v-1.536457c.078125.010417.15625.03125.229167.057293.166667.05729.333333.140624.5.260415l.421875-.588542c-.223958-.151043-.453125-.265625-.6875-.33854-.15625-.052085-.307292-.078126-.463542-.093751v-.578125h-.703125v.59375c-.322917.052083-.588542.16146-.78125.338542-.270833.25-.411458.625-.411458,1.130208,0,.291667.046875.520833.140625.69271.088542.171874.208333.302082.359375.395831.151042.088543.3125.151043.489583.197918.067708.015625.135417.026042.203125.041667v1.5625c-.130208-.026042-.255208-.0625-.369792-.119792-.203125-.09896-.385417-.25-.552083-.453124l-.473958.572915c.151042.161458.317708.296875.489583.406249.171875.104169.359375.187503.557292.239585.114583.031251.229167.052082.348958.0625v.578125h.703125v-.583333c.364583-.046876.65625-.161458.864583-.338543.28125-.24479.421875-.604164.421875-1.093749v-.005208c0-.276043-.041667-.494792-.119792-.666667-.078125-.171874-.1875-.302083-.322917-.401043ZM36.515626,16.276042c-.119792-.046875-.229167-.104167-.3125-.182293-.098958-.098957-.145833-.239582-.145833-.43229,0-.255207.072917-.44271.223958-.56771.0625-.052082.145833-.093749.234375-.11979v1.302083ZM37.776043,17.864585c0,.255207-.083333.447915-.244792.578124-.083333.067707-.1875.114583-.3125.145833v-1.385417c.026042.010417.057292.015624.083333.026042.145833.046875.255208.119792.34375.213542.083333.098958.130208.234374.130208.416667v.00521Z"/>
</svg>