<?xml version="1.0" encoding="UTF-8"?>
<svg id="Layer_1" data-name="Layer 1" xmlns="http://www.w3.org/2000/svg" xmlns:xlink="http://www.w3.org/1999/xlink" viewBox="0 0 56 56">
  <defs>
    <style>
      .cls-1 {
        fill: none;
      }

      .cls-2 {
        fill: #4fa4f4;
        fill-rule: evenodd;
      }

      .cls-3 {
        clip-path: url(#clippath);
      }
    </style>
    <clipPath id="clippath">
      <rect class="cls-1" x=".651041" y="6.015625" width="54.697919" height="42.979168"/>
    </clipPath>
  </defs>
  <g class="cls-3">
    <path class="cls-2" d="M28.000001,48.666668H.651041v-.572917h5.302084v-.755208c0-.5625.031249-.796875.114582-.921875.072918-.114583.208333-.192708.390626-.21875.260416-.046875.281251-.067708.322917-.348958.020832-.161458.031249-4.536458.020832-9.723959-.020832-9.359375-.020832-9.421875-.166667-9.442709-.078124-.015625-.213542-.041667-.302083-.057292-.088541-.020833-.208333-.130208-.270833-.244792-.078126-.15625-.109374-.447917-.109374-1.130208,0-.625.031249-.953125.088541-1.010417.0625-.0625.703126-.083333,2.442708-.083333,1.854167,0,2.348959-.020833,2.328126-.088542-.015625-.052083-.145833-.098958-.286459-.114583-.140625-.010417-.302082-.072917-.364582-.140625-.072918-.083333-.114585-.296875-.125-.682292-.010418-.307292.015624-.588542.05729-.630208.036458-.041667.677084-.333333,1.421876-.645833.74479-.317708,1.776042-.744792,2.286457-.953125.515626-.213542,1.531251-.630208,2.260418-.932293.729167-.302082,1.697915-.708333,2.151042-.90104.453125-.192708,1.083333-.453124,1.395833-.578124.317707-.125.703125-.281251.859374-.354169.16146-.072915.72396-.30729,1.25521-.52604s1.114583-.463542,1.296875-.541667c.317708-.145833.328125-.15625.421875-.625.052083-.265626.223958-.739583.375-1.046875.203125-.401042.427083-.708333.776042-1.052085.270833-.270831.666667-.583333.880208-.692707l.390625-.203124.041667-.640626c.026042-.354167.046875-1.15625.046875-1.78125v-1.135416l.229167-.140626c.130208-.078126.421875-.161459.645833-.1875.375-.041667.416667-.0625.416667-.213541,0-.104167.083333-.229167.213542-.328126l.213542-.161459v-1.333333c0-.942708.026042-1.359374.088542-1.421874.046875-.046874.15625-.083333.25-.083333.088542,0,.192708.0625.234375.140626.041667.078125.072917.68229.072917,1.458333,0,1.25.010417,1.322915.140625,1.359374.083333.020833.166667.130208.203125.276041.03125.135418.109375.25.161458.255208.057292.00521.265625.036458.458333.057292.25.036459.411458.109375.552083.25l.208333.208333v3.343751l.505208.322917c.28125.177083.697917.515625.921875.760417.223958.239583.5.59375.609375.78646.109375.192707.260417.52604.333333.739582s.135417.468751.135417.572915c.005208.09896.03125.22396.0625.276043.03125.046875,1.296875.609375,2.8125,1.239583,1.515625.635417,3.432292,1.4375,4.260417,1.786458.828125.343751,2.484375,1.041667,3.6875,1.541667s2.276042.958333,2.385417,1.015625c.1875.09375.197917.119792.197917.65625,0,.369792-.036458.604167-.109375.703125-.057292.083333-.21875.171875-.354167.197917-.140625.026042-.255208.078125-.255208.119792s.880208.067708,2.28125.067708c2.098958,0,2.291667.010417,2.401042.125.067708.078125.104167.21875.088542.34375-.010417.114583-.026042.552083-.03125.96875-.005208.510417-.041667.796875-.104167.890625-.057292.078125-.229167.151042-.411458.171875l-.317708.041667-.015625,9.723959-.020833,9.723959.317708.046875c.171875.026042.369792.109375.442708.1875.104167.119792.125.260417.114583.838542-.005208.385417.015625.739583.046875.786458.041667.067708.6875.09375,2.666667.109375l2.614583.015625.020833.270833.020833.265625h-27.348959ZM8.682293,48.093751h2.083333l-.041667-1.25-1.973958-.020833c-1.083333-.010417-2.005208.005208-2.052083.036458-.046876.03125-.088543.260417-.098958.520833-.010418.255208-.010418.520833-.00521.588542.00521.119792.156251.125,2.088543.125ZM14.088542,48.093751h2.69271v-.609375c0-.520833.020831-.630208.15104-.760417.083333-.083333.15625-.260417.166667-.411458.010417-.140625.005208-.333333-.015625-.421875l-.031251-.161458h-5.630207l-.03646.34375c-.015624.1875-.02604.614583-.015624.947917s.020833.713542.026042.84375l.005208.229167h2.6875ZM27.958334,48.093751h10.536459v-.859375h-21.072917v.859375h10.536459ZM41.869793,48.093751h2.723958l-.020833-1.161458-.020833-1.166667-2.848958-.015625-2.848958-.020833v.432292c0,.333333.03125.458333.145833.572917.119792.119792.140625.239583.140625.75v.609375h2.729167ZM47.281251,48.093751h2.114583l-.041667-1.25h-4.15625l-.03125,1.25h2.114583ZM28.005209,46.588543l9.703125.005208v-.864583h-19.411459l-.026042.401042c-.010418.21875-.010418.411458.005208.427083.015625.015625,4.395833.03125,9.729167.03125ZM9.109375,46.16146h1.645834v-.364583c0-.286458.036458-.395833.177083-.536458.140626-.140625.25-.177083.536457-.177083h.364585v-.338542c0-.197917.046875-.411458.109375-.505208.0625-.088542.203125-.203125.3125-.260417l.197917-.104167.046875-6.723959c.026042-3.697917.067708-7.177084.093749-7.729167l.041667-1-.312497-.145833c-.208333-.09375-.354169-.223958-.437503-.395833-.078124-.15625-.125-.411458-.125-.697917v-.447917h-4.302082v19.427084h1.651041ZM46.802085,46.16146c1.25,0,1.651042-.020833,1.671875-.088542.015625-.052083.036458-4.421875.052083-9.713542l.026042-9.625-2.177083.015625-2.177083.020833-.041667.552083c-.03125.453125-.072917.588542-.208333.734375-.09375.104167-.28125.223958-.416667.270833l-.25.088542.046875.505208c.020833.276042.0625,3.755208.088542,7.729167l.046875,7.229167.151042.057292c.083333.03125.229167.140625.322917.239583.119792.130208.182292.302083.208333.546875l.03125.359375h.296875c.166667,0,.369792.052083.453125.109375s.192708.223958.239583.364583c.041667.135417.0625.333333.036458.427083l-.041667.177083h1.640625ZM14.166667,45.083335h1.682292v-.171875c0-.09375-.020833-.223958-.046876-.286458-.036457-.098958-.25-.114583-1.677082-.114583h-1.630208l-.036458.234375c-.020833.130208-.020833.255208-.005208.286458.020833.03125.791667.052083,1.713542.052083ZM21.151042,45.083335h1.729167l-.020833-.265625-.026042-.270833h-3.364585l-.02604.270833-.020833.265625h1.729167ZM25.453126,45.083335h.286458v-1.953125c-.005208-1.072917-.026042-1.984375-.057292-2.03125-.026042-.041667-.098958-.09375-.15625-.114583-.0625-.020833-.166667-.010417-.234375.026042-.114583.0625-.125.234375-.125,2.072917v2h.286458ZM27.994793,45.083335h1.692708l-.020833-.265625-.020833-.270833h-3.296875l-.020833.270833-.026042.265625h1.692708ZM30.505209,45.083335h.25v-2.03125c0-1.786458-.015625-2.041667-.109375-2.078125-.0625-.026042-.177083-.010417-.255208.026042-.130208.072917-.135417.177083-.135417,2.083333v2h.25ZM34.838543,45.083335h1.723958v-.161458c0-.09375-.041667-.223958-.088542-.291667-.083333-.109375-.25-.119792-1.703125-.104167l-1.614583.020833-.020833.270833-.020833.265625h1.723958ZM41.796876,45.083335h1.723958l-.020833-.265625-.020833-.270833-1.65625-.020833-1.661458-.015625-.041667.161458c-.026042.088542-.041667.21875-.046875.286458,0,.119792.130208.125,1.723958.125ZM10.583334,44.50521c-.4375,0-.833333-.020833-.880208-.041667-.072918-.026042-.093751-.552083-.093751-2.291667v-2.25l.989585.020833.984374.015625.015625,2.1875c.020833,1.994792.010417,2.192708-.098958,2.276042-.083333.0625-.385415.088542-.916667.083333ZM45.369793,44.494793c-.703125.015625-.921875,0-.984375-.078125-.0625-.072917-.078125-.708333-.067708-2.28125l.020833-2.177083.989583-.015625.984375-.020833-.020833,2.276042-.015625,2.276042-.90625.020833ZM14.078125,43.864585h1.052083v-4.895833c0-2.692708-.020833-6.161459-.046875-7.703125l-.046875-2.807292h-1.81771l-.046874,1.375c-.026042.760417-.072917,4.229167-.098957,7.708334l-.046876,6.322917h1.052083ZM21.145834,43.864585h1.098958l-.046875-5.25c-.020833-2.885417-.0625-6.354167-.088542-7.703125l-.052083-2.453125h-1.817707l-.046876,2.020833c-.026042,1.114583-.067708,4.583333-.09375,7.708334l-.046876,5.677084h1.093751ZM27.958334,43.864585h1.098958l-.046875-5.963542c-.026042-3.28125-.067708-6.75-.09375-7.708334l-.046875-1.739583-.901042.020833-.90625.015625-.041667,1.791667c-.026042.989583-.067708,4.447917-.098958,7.6875l-.057292,5.895834h1.09375ZM34.807293,43.864585h1.0625l-.046875-6.359375c-.03125-3.5-.072917-6.96875-.098958-7.703125l-.041667-1.34375h-1.755208l-.041667.515625c-.026042.286458-.067708,3.755208-.09375,7.708334l-.046875,7.182292h1.0625ZM41.833335,43.864585h1.057292l-.046875-7.145834c-.026042-3.932292-.067708-7.401042-.09375-7.708334l-.046875-.552083h-1.75l-.046875.515625c-.020833.286458-.0625,3.755208-.088542,7.708334l-.046875,7.182292h1.0625ZM10.630208,35.536459c-.723957.015625-.958333,0-.984374-.072917-.020833-.052083-.026041-1.317708-.015626-2.8125l.015626-2.723958h1.9375v5.588542l-.953126.020833ZM45.38021,35.536459c-.494792.005208-.9375-.010417-.989583-.041667-.067708-.046875-.083333-.65625-.072917-2.8125l.020833-2.755208h1.9375v5.588542l-.895833.020833ZM14.125,27.812501c1.281251,0,1.515625-.020833,1.614585-.119792.083333-.083333.109374-.21875.093749-.515625l-.020833-.40625h-3.369792l-.020833.40625c-.015624.296875.010417.432292.09375.515625.09896.098958.328124.119792,1.609375.119792ZM21.104167,27.807292c.833333,0,1.5625-.03125,1.625-.067708.072917-.046875.104167-.197917.104167-.515625v-.453125h-3.364585l-.02604.416667c-.010417.25.015625.463542.0625.520833.06771.083333.380207.104167,1.598958.098958ZM27.989584,27.812501c1.088542,0,1.541667-.026042,1.604167-.088542.052083-.046875.088542-.28125.088542-.536458v-.453125l-1.697917.015625-1.697917.020833.015625.432292c.010417.234375.057292.46875.098958.515625.052083.067708.463542.09375,1.588542.09375ZM34.802084,27.807292c.828125,0,1.546875-.020833,1.59375-.052083s.09375-.260417.109375-.520833l.020833-.463542-1.598958-.015625c-.880208-.005208-1.645833.005208-1.703125.026042-.072917.03125-.104167.161458-.104167.447917,0,.223958.041667.447917.088542.494792.0625.0625.515625.088542,1.59375.083333ZM41.84896,27.807292l1.520833.005208.109375-.177083c.078125-.109375.109375-.291667.09375-.515625l-.020833-.348958h-3.442708v.453125c0,.317708.03125.46875.109375.515625.057292.036458.791667.067708,1.630208.067708ZM9.015626,26.072917l2.348959-.020833v-1.213542h-4.729169l-.020832.526042c-.010417.296875-.00521.578125.015624.630208.031251.078125.463542.09375,2.385418.078125ZM28.031251,26.088542h15.984375v-2.145833H12.046875v2.145833h15.984375ZM46.979168,26.088542h2.328125l.03125-.588542c.015625-.328125.010417-.614583-.015625-.645833s-1.078125-.046875-2.338542-.036458l-2.286458.020833-.041667,1.25h2.322917ZM11.182292,23.296876c.442708,0,.604167-.041667,1.276042-.333333.427082-.182292,1.046875-.442708,1.380208-.578125.33854-.140625.947917-.390625,1.364583-.557292.41146-.166667.864583-.359375,1-.421875.140624-.0625,1.125-.473958,2.1875-.911458,1.067708-.44271,2.24479-.927083,2.614583-1.083333.375-.15625,1.3125-.541667,2.083333-.859376.765625-.317707,1.572917-.65104,1.791667-.739582.213542-.088542.828125-.348958,1.359375-.572915.53125-.22396,1.15625-.484376,1.385417-.578126s.46875-.151043.536458-.125c.067708.020833.526042.213542,1.015625.421875.494792.208333,1.416667.593749,2.046875.859375.630208.260417,1.515625.63021,1.96875.817707.453125.187503,2.307292.963543,4.119792,1.718751,1.817708.760418,3.671875,1.536458,4.125,1.723958s1.276042.541667,1.828125.78125c.916667.395833,1.046875.432292,1.515625.4375.348958,0,.520833-.03125.541667-.09375.020833-.046875.015625-.140625,0-.208333-.015625-.072917-.317708-.234375-.755208-.416667-.401042-.166667-1.359375-.567708-2.130208-.895833-.765625-.328125-1.833333-.78125-2.364583-1.00521-.53125-.223957-1.130208-.468749-1.322917-.546874-.197917-.078126-.567708-.234375-.828125-.348957-.255208-.114585-1.239583-.531251-2.182292-.921876-.947917-.390626-2.770833-1.151042-4.052083-1.692708s-2.604167-1.098958-2.932292-1.234375c-.375-.15104-.677083-.234374-.791667-.213543-.098958.020836-1.083333.41146-2.1875.875-1.104167.463543-2.458333,1.026043-3.010417,1.25521s-1.713543.708333-2.583333,1.067708c-.864583.364585-2.109374.880208-2.760417,1.151042-.651042.270833-2.421875,1.010417-3.942708,1.640625-2.734375,1.140625-2.755208,1.151042-2.781249,1.369792l-.020836.21875h.50521ZM27.947917,23.296876c7.96875,0,14.489584-.026042,14.489584-.057292s-1.213542-.572917-2.703125-1.197917-3.010417-1.265625-3.385417-1.421875c-.375-.151043-.973958-.401043-1.328125-.552083-.354167-.145833-1.354167-.5625-2.223958-.921875-.864583-.359375-1.6875-.708333-1.828125-.770833-.135417-.0625-.75-.322918-1.359375-.578125-.609375-.255208-1.21875-.494793-1.34375-.541667-.197917-.067708-.302083-.052083-.645833.08854-.229167.093751-1.104167.458333-1.953125.807293-.848958.348958-2.171875.895833-2.9375,1.213543-.770833.317707-1.656249.687497-1.973958.812497-.3125.13021-1.265624.531251-2.114583.885418-.84375.354167-2.328125.973958-3.296876,1.375-.96354.401042-1.786457.755208-1.822915.791667-.041667.041667,5.744792.067708,14.427084.067708ZM28.114584,22.479167c-.28125.020833-.520833-.010417-.786458-.104167-.208333-.072917-.494792-.229167-.640625-.348958-.151042-.119792-.364583-.364583-.479167-.552083-.171875-.27604-.213542-.432292-.239583-.885417-.020833-.447917,0-.619793.119792-.890624.078125-.187503.276042-.484376.442708-.66146.171875-.1875.432292-.375.630208-.447917.208333-.083333.520833-.130208.833333-.130208.40625,0,.583333.036458.911458.197918.229167.114582.510417.322915.630208.468749s.28125.432292.359375.640625.145833.526042.145833.697917c0,.177083-.072917.5-.15625.723958-.088542.239583-.265625.520833-.4375.6875-.15625.161458-.427083.354167-.609375.432292-.177083.078125-.505208.15625-.723958.171875ZM24.046876,16.630209c.020833,0,.541667-.213542,1.166667-.479167.625-.260417,1.390625-.583333,1.708333-.71875.3125-.135417.708333-.296876.875-.354167l.302083-.109376,1.859375.796876c1.020833.432293,1.880208.791667,1.901042.791667.026042,0,.041667-.0625.041667-.135417s-.114583-.369793-.260417-.66146c-.182292-.359374-.416667-.677082-.734375-.99479-.286458-.286458-.640625-.552083-.901042-.677083-.239583-.114583-.59375-.25-.791667-.302083s-.71875-.09375-1.182292-.09375c-.484375,0-1.010417.046876-1.28125.109374-.255208.057293-.651042.208333-.885417.333333-.239583.125-.614583.41146-.838542.63021s-.489583.546875-.588542.729167c-.104167.18229-.239583.484375-.302083.671875s-.114583.369792-.114583.401042c0,.036458.010417.0625.026042.0625ZM26.869792,13.140625c.1875-.03125.708333-.057292,1.161458-.057292s.963542.020833,1.130208.052082l.302083.057293v-1.421875c0-1.010418-.020833-1.447916-.083333-1.505208-.0625-.0625-.453125-.088543-1.307292-.088543-.671875,0-1.296875.020835-1.385417.046876-.161458.041667-.161458.046874-.161458,1.505208v1.468751l.34375-.057293ZM27.088542,12.828125c-.072917,0-.151042-.041667-.171875-.09375-.020833-.046875-.026042-.541667-.015625-1.088542l.020833-1h.427083l.020833.989582c.015625.671876-.005208,1.026043-.0625,1.093751-.041667.057292-.140625.098958-.21875.098958ZM27.942709,12.828125c-.072917,0-.145833-.041667-.166667-.09375-.020833-.046875-.026042-.541667-.015625-1.088542.020833-.994792.020833-1,.192708-1.026041.09375-.015626.197917.020833.229167.072916.036458.052083.0625.515625.0625,1.03125,0,.630208-.026042.963542-.083333,1.020833-.046875.046875-.145833.083333-.21875.083333ZM28.822918,12.828125c-.067708,0-.140625-.020833-.171875-.046874-.026042-.026043-.046875-.510418-.046875-1.078126,0-.885417.015625-1.036458.119792-1.072917.0625-.026041.166667-.010415.234375.026043.09375.062498.114583.244791.135417,1.026041.010417.635417-.010417.979167-.0625,1.046875-.046875.057292-.140625.098958-.208333.098958Z"/>
  </g>
</svg>