<?xml version="1.0" encoding="UTF-8"?>
<svg id="Layer_1" data-name="Layer 1" xmlns="http://www.w3.org/2000/svg" viewBox="0 0 56 56">
  <defs>
    <style>
      .cls-1 {
        fill: #4fa4f4;
      }
    </style>
  </defs>
  <path class="cls-1" d="M47.648438,41.514193h.421875c.619792,0,1.125-.5,1.125-1.119792s-.505208-1.119792-1.125-1.119792h-.421875v-18.791668c2.322917-2.36979,2.869792-6.442707,1.651042-9.541666l-2.609375-6.651042-.46875-1.1875c-1.296875-3.302083-5.921875-1.880208-5.921875-1.880208-.708333.135416-1.114583.890625-.84375,1.557292l1.505208,3.703124.921875,2.411458L4.898437,23.352734l1.203124,3.067708,2.197917-.859375v8.598959h-.552083v1.932292h.552083v6.807292h-1.703126v3.536458h6.630208v-3.536458h-1.697915v-6.807292h.546875v-1.932292h-.546875v-9.859375l14.661459-5.734376v3.687501h-2.828125v2.109375h1.421875l-3.458333,24.328126c-.005208.046875-.005208.09375-.005208.135417h-6.9375v-2.375H5.440104v2.375H.98177v6.255209h54.03646v-6.255209h-7.369792v-7.3125ZM10.736978,42.894401h-1.645833v-6.802084h1.645833v6.802084ZM10.736978,34.160026h-1.645833v-8.90625l1.645833-.645833v9.552084ZM25.403646,34.066276h4.447917l-5.020833,4.03125.572917-4.03125ZM26.075521,29.347526l3.9375,3.666667h-4.458333l.520833-3.666667ZM24.429687,40.894401l6.526042,3.921875h-7.083334l.557292-3.921875ZM25.492187,40.295443h5.994792l.557292,3.942708-6.557292-3.942708h.005208ZM25.091146,39.243359l5.604167-4.5.640625,4.5h-6.244792ZM26.846354,28.628776h2.979167l.453125,3.197917-3.432292-3.197917ZM29.221354,24.363151c0,.015625,0,.026042.005208.041667l.447917,3.166667h-3.348958l.453125-3.166667v-.041667h2.442708ZM23.304687,48.826693l.416667-2.958333h8.557292l.416667,2.958333h-9.390625ZM34.684896,48.826693c0-.041667-.005208-.088542-.010417-.135417l-3.458333-24.328126h.958333v-2.109375h-2.822917v-4.921875l13.708334-5.359375.526042,1.369792,2.875,7.333334v18.598959h-.421875c-.619792,0-1.119792.5-1.119792,1.119792s.5,1.119792,1.119792,1.119792h.421875v7.3125h-11.776042Z"/>
</svg>