<?xml version="1.0" encoding="UTF-8"?>
<svg id="Layer_1" data-name="Layer 1" xmlns="http://www.w3.org/2000/svg" xmlns:xlink="http://www.w3.org/1999/xlink" viewBox="0 0 56 56">
  <defs>
    <style>
      .cls-1 {
        fill: none;
      }

      .cls-2 {
        fill: #4fa4f4;
      }

      .cls-3 {
        clip-path: url(#clippath-1);
      }

      .cls-4 {
        clip-path: url(#clippath-3);
      }

      .cls-5 {
        clip-path: url(#clippath-2);
      }

      .cls-6 {
        clip-path: url(#clippath);
      }
    </style>
    <clipPath id="clippath">
      <rect class="cls-1" x="29.333333" y=".6616" width="9.333334" height="52.104168"/>
    </clipPath>
    <clipPath id="clippath-1">
      <rect class="cls-1" x=".65104" y="51.432432" width="54.697919" height="2.697918"/>
    </clipPath>
    <clipPath id="clippath-2">
      <rect class="cls-1" x="50.666667" y="46.0991" width="4.682293" height="6.666668"/>
    </clipPath>
    <clipPath id="clippath-3">
      <rect class="cls-1" x=".65104" y="46.0991" width="4.682292" height="6.666668"/>
    </clipPath>
  </defs>
  <rect class="cls-1" x="22.666667" y=".6616" width="25.333332" height="52.104168"/>
  <path class="cls-2" d="M42.015625,51.838684h1.052083V4.588683l-1.052083-.322917v47.572918ZM39.375,51.838684h1.052083V3.817848l-1.052083-.322916v48.343751ZM44.677084,51.838684h1.052083V5.25014l-1.052083-.322915v46.911459ZM37.411458.661599v51.177085h.5V1.31264l9.078125,2.864584v47.989584l.473958-.119792V3.828266l-10.052084-3.166667ZM25.71875,30.963683l1.182292.864583v-10.651042l-1.182292-.458333v10.244792ZM31.010416,34.828266l1.182292.864583v-13.010417l-1.182292-.458333v12.604167ZM23.848958,29.5991l.53125.390625v-11.270834l8.880209,2.822917v14.932292l.526042.385417v-15.833334l-9.9375-3.098958v11.671875ZM28.359375,32.895975l1.182292.864583v-11.776042l-1.182292-.458333v11.369792"/>
  <g class="cls-6">
    <path class="cls-2" d="M30.177083,4.448058v13.958333l5.333333,1.74479v17.968752l1.875,1.364583-1.875,2v10.354167h1.901042V.661599l-7.234375,3.786459"/>
  </g>
  <path class="cls-2" d="M23.848958,29.5991v-11.671875l-7.776041,4v11.609375l6.526041-4.848958,1.25.911458"/>
  <path class="cls-2" d="M23.328125,43.0366v-2.296875h.692708c1.265625,0,2.291667,1.026042,2.291667,2.296875h-2.984375ZM26.3125,49.119934h-2.984375v-5.130208h2.984375v5.130208ZM22.09375,43.0366h-2.979165c0-1.270833,1.02604-2.296875,2.291665-2.296875h.6875v2.296875ZM22.09375,49.119934h-2.979165v-5.130208h2.979165v5.130208ZM22.604166,29.0991l-9.265625,6.880209v-.380208h.307292v-1.088542h-2.3125v1.088542h.302082v1.645833l-3.098957,2.302083,2.125,2.3125.645833-.494792v10.473959h22.692709l.026042-10.473959.677083.494792,2.182292-2.328125-14.28125-10.432292"/>
  <g class="cls-3">
    <path class="cls-2" d="M55.348959,54.125142H.65104v-2.286458h54.697919v2.286458"/>
  </g>
  <g class="cls-5">
    <path class="cls-2" d="M52.296875,48.583475c0-.15625.125-.276042.276042-.276042s.276042.119792.276042.276042v2.90625h-.552083v-2.90625ZM53.432292,48.583475c0-.15625.125-.276042.276042-.276042s.276042.119792.276042.276042v2.90625h-.552083v-2.90625ZM50.932292,51.489725v.348958h4.416667v-.348958h-.776042v-2.442708c0-.40625.328125-.739583.739583-.739583v-.927083c-.520833,0-.942708-.421875-.942708-.942708h-2.458333c0,.520833-.421875.942708-.942708.942708v.927083c.40625,0,.739583.333333.739583.739583v2.442708h-.776042"/>
  </g>
  <g class="cls-4">
    <path class="cls-2" d="M2.015624,48.583475c0-.15625.125-.276042.276041-.276042s.276041.119792.276041.276042v2.90625h-.552083v-2.90625ZM3.15104,48.583475c0-.15625.125-.276042.276041-.276042.151043,0,.276043.119792.276043.276042v2.90625h-.552084v-2.90625ZM.65104,51.489725v.348958h4.416667v-.348958h-.776041v-2.442708c0-.40625.328125-.739583.739584-.739583v-.927083c-.520835,0-.942709-.421875-.942709-.942708H1.630207c0,.520833-.421875.942708-.942708.942708v.927083c.411459,0,.739583.333333.739583.739583v2.442708h-.776041"/>
  </g>
</svg>