<svg xmlns="http://www.w3.org/2000/svg" xmlns:xlink="http://www.w3.org/1999/xlink" width="45" zoomAndPan="magnify" viewBox="0 0 33.75 33.749998" height="45" preserveAspectRatio="xMidYMid meet" version="1.0"><defs><clipPath id="fc82a7ae82"><path d="M 12 1.609375 L 21 1.609375 L 21 7 L 12 7 Z M 12 1.609375 " clip-rule="nonzero"/></clipPath><clipPath id="7437e0e5e3"><path d="M 28 14 L 32.570312 14 L 32.570312 22 L 28 22 Z M 28 14 " clip-rule="nonzero"/></clipPath><clipPath id="5952d748e9"><path d="M 1.300781 14 L 6 14 L 6 22 L 1.300781 22 Z M 1.300781 14 " clip-rule="nonzero"/></clipPath><clipPath id="045c9077f0"><path d="M 1.300781 4 L 17 4 L 17 17 L 1.300781 17 Z M 1.300781 4 " clip-rule="nonzero"/></clipPath></defs><g clip-path="url(#fc82a7ae82)"><path fill="#2f7cee" d="M 16.75 6.21875 L 14.96875 5.191406 L 12.757812 3.914062 L 16.75 1.609375 L 20.742188 3.914062 L 18.207031 5.375 Z M 16.75 6.21875 " fill-opacity="1" fill-rule="nonzero"/></g><path fill="#2f7cee" d="M 17.335938 27.109375 L 21.035156 24.972656 L 21.035156 29.585938 L 17.042969 31.890625 L 17.042969 27.277344 L 17.339844 27.113281 Z M 17.335938 27.109375 " fill-opacity="1" fill-rule="nonzero"/><path fill="#2f7cee" d="M 16.160156 27.113281 L 16.457031 27.277344 L 16.457031 31.890625 L 12.464844 29.585938 L 12.464844 24.972656 L 16.164062 27.109375 Z M 16.160156 27.113281 " fill-opacity="1" fill-rule="nonzero"/><g clip-path="url(#7437e0e5e3)"><path fill="#2f7cee" d="M 28.496094 16.792969 L 32.195312 14.65625 L 32.195312 19.269531 L 28.203125 21.574219 L 28.203125 16.964844 L 28.5 16.796875 Z M 28.496094 16.792969 " fill-opacity="1" fill-rule="nonzero"/></g><path fill="#2f7cee" d="M 23.917969 14.152344 L 26 12.949219 L 20.683594 9.238281 L 17.042969 11.339844 L 17.042969 6.726562 L 17.339844 6.558594 L 17.335938 6.554688 L 21.035156 4.417969 L 21.035156 8.613281 L 26.679688 12.558594 L 27.910156 11.847656 L 31.902344 14.152344 L 29.371094 15.613281 L 27.910156 16.457031 L 26.128906 15.425781 Z M 23.917969 14.152344 " fill-opacity="1" fill-rule="nonzero"/><path fill="#2f7cee" d="M 6.171875 16.792969 L 9.875 14.65625 L 9.875 18.867188 L 15.800781 22.710938 L 16.75 22.164062 L 17.824219 22.78125 L 23.625 18.859375 L 23.625 14.65625 L 27.324219 16.792969 L 27.320312 16.796875 L 27.617188 16.964844 L 27.617188 21.578125 L 23.980469 19.476562 L 18.507812 23.179688 L 20.742188 24.464844 L 18.207031 25.929688 L 16.75 26.769531 L 14.96875 25.742188 L 12.757812 24.464844 L 15.109375 23.109375 L 9.511719 19.480469 L 5.882812 21.574219 L 5.882812 16.964844 L 6.179688 16.796875 Z M 6.171875 16.792969 " fill-opacity="1" fill-rule="nonzero"/><g clip-path="url(#5952d748e9)"><path fill="#2f7cee" d="M 5.003906 16.792969 L 5 16.796875 L 5.296875 16.964844 L 5.296875 21.578125 L 1.300781 19.269531 L 1.300781 14.65625 Z M 5.003906 16.792969 " fill-opacity="1" fill-rule="nonzero"/></g><g clip-path="url(#045c9077f0)"><path fill="#2f7cee" d="M 1.597656 14.152344 L 5.589844 11.847656 L 6.941406 12.628906 L 12.464844 8.570312 L 12.464844 4.417969 L 16.164062 6.554688 L 16.160156 6.558594 L 16.457031 6.726562 L 16.457031 11.339844 L 12.785156 9.21875 L 7.613281 13.015625 L 9.578125 14.152344 L 7.046875 15.613281 L 5.589844 16.457031 L 3.808594 15.425781 Z M 1.597656 14.152344 " fill-opacity="1" fill-rule="nonzero"/></g></svg>