<svg xmlns="http://www.w3.org/2000/svg" xmlns:xlink="http://www.w3.org/1999/xlink" width="45" zoomAndPan="magnify" viewBox="0 0 33.75 33.749998" height="45" preserveAspectRatio="xMidYMid meet" version="1.0"><defs><clipPath id="58ca5a60ec"><path d="M 1.414062 18 L 11 18 L 11 23 L 1.414062 23 Z M 1.414062 18 " clip-rule="nonzero"/></clipPath><clipPath id="477aaf8e24"><path d="M 11 21 L 17 21 L 17 30.152344 L 11 30.152344 Z M 11 21 " clip-rule="nonzero"/></clipPath><clipPath id="497bec7b62"><path d="M 6 21 L 12 21 L 12 30.152344 L 6 30.152344 Z M 6 21 " clip-rule="nonzero"/></clipPath><clipPath id="4dde9353d2"><path d="M 3 3.351562 L 13 3.351562 L 13 8 L 3 8 Z M 3 3.351562 " clip-rule="nonzero"/></clipPath><clipPath id="5099a593da"><path d="M 1.414062 21 L 6 21 L 6 30.152344 L 1.414062 30.152344 Z M 1.414062 21 " clip-rule="nonzero"/></clipPath><clipPath id="194195a712"><path d="M 22 18 L 31.9375 18 L 31.9375 23 L 22 23 Z M 22 18 " clip-rule="nonzero"/></clipPath><clipPath id="b987370b52"><path d="M 27 21 L 31.9375 21 L 31.9375 30.152344 L 27 30.152344 Z M 27 21 " clip-rule="nonzero"/></clipPath><clipPath id="ad0bd32d27"><path d="M 17 21 L 22 21 L 22 30.152344 L 17 30.152344 Z M 17 21 " clip-rule="nonzero"/></clipPath><clipPath id="e6a89ccd9f"><path d="M 22 21 L 27 21 L 27 30.152344 L 22 30.152344 Z M 22 21 " clip-rule="nonzero"/></clipPath></defs><path fill="#ffffff" d="M 16.746094 18.582031 L 12.394531 20.65625 L 16.746094 22.726562 L 21.09375 20.65625 Z M 16.746094 18.582031 " fill-opacity="1" fill-rule="nonzero"/><g clip-path="url(#58ca5a60ec)"><path fill="#ffffff" d="M 6.265625 18.582031 L 1.914062 20.65625 L 6.265625 22.726562 L 10.613281 20.65625 Z M 6.265625 18.582031 " fill-opacity="1" fill-rule="nonzero"/></g><g clip-path="url(#477aaf8e24)"><path fill="#ffffff" d="M 11.886719 27.835938 L 16.363281 30.167969 L 16.363281 23.394531 L 11.886719 21.261719 Z M 11.886719 27.835938 " fill-opacity="1" fill-rule="nonzero"/></g><g clip-path="url(#497bec7b62)"><path fill="#ffffff" d="M 6.648438 30.167969 L 11.121094 27.835938 L 11.121094 21.261719 L 6.648438 23.394531 Z M 6.648438 30.167969 " fill-opacity="1" fill-rule="nonzero"/></g><path fill="#ffffff" d="M 8.332031 14.957031 L 12.804688 12.628906 L 12.804688 6.054688 L 8.332031 8.1875 Z M 8.332031 14.957031 " fill-opacity="1" fill-rule="nonzero"/><g clip-path="url(#4dde9353d2)"><path fill="#ffffff" d="M 12.296875 5.449219 L 7.949219 3.375 L 3.597656 5.449219 L 7.949219 7.519531 Z M 12.296875 5.449219 " fill-opacity="1" fill-rule="nonzero"/></g><path fill="#ffffff" d="M 7.566406 8.1875 L 3.089844 6.054688 L 3.089844 12.628906 L 7.566406 14.957031 Z M 7.566406 8.1875 " fill-opacity="1" fill-rule="nonzero"/><g clip-path="url(#5099a593da)"><path fill="#ffffff" d="M 1.40625 27.835938 L 5.882812 30.167969 L 5.882812 23.394531 L 1.40625 21.261719 Z M 1.40625 27.835938 " fill-opacity="1" fill-rule="nonzero"/></g><path fill="#ffffff" d="M 17.128906 17.695312 L 21.601562 20.023438 L 21.601562 13.25 L 17.128906 11.121094 Z M 17.128906 17.695312 " fill-opacity="1" fill-rule="nonzero"/><g clip-path="url(#194195a712)"><path fill="#ffffff" d="M 27.226562 18.582031 L 22.878906 20.65625 L 27.226562 22.726562 L 31.574219 20.65625 Z M 27.226562 18.582031 " fill-opacity="1" fill-rule="nonzero"/></g><g clip-path="url(#b987370b52)"><path fill="#ffffff" d="M 27.609375 23.394531 L 27.609375 30.167969 L 32.082031 27.835938 L 32.082031 21.261719 Z M 27.609375 23.394531 " fill-opacity="1" fill-rule="nonzero"/></g><path fill="#ffffff" d="M 22.371094 13.25 L 22.371094 20.023438 L 26.84375 17.695312 L 26.84375 11.121094 L 25.074219 11.964844 Z M 22.371094 13.25 " fill-opacity="1" fill-rule="nonzero"/><g clip-path="url(#ad0bd32d27)"><path fill="#ffffff" d="M 17.128906 23.394531 L 17.128906 30.167969 L 21.601562 27.835938 L 21.601562 21.261719 L 20.640625 21.722656 Z M 17.128906 23.394531 " fill-opacity="1" fill-rule="nonzero"/></g><g clip-path="url(#e6a89ccd9f)"><path fill="#ffffff" d="M 22.371094 27.835938 L 26.84375 30.167969 L 26.84375 23.394531 L 22.371094 21.261719 Z M 22.371094 27.835938 " fill-opacity="1" fill-rule="nonzero"/></g><path fill="#ffffff" d="M 21.984375 8.441406 L 17.636719 10.515625 L 21.984375 12.585938 L 26.335938 10.515625 Z M 21.984375 8.441406 " fill-opacity="1" fill-rule="nonzero"/><path fill="#ffffff" d="M 13.570312 18.125 C 13.742188 18.125 13.894531 18.015625 13.941406 17.847656 L 14.496094 15.859375 C 14.550781 15.65625 14.433594 15.441406 14.226562 15.386719 C 14.023438 15.328125 13.8125 15.449219 13.757812 15.652344 L 13.402344 16.917969 L 12.285156 15.035156 C 12.175781 14.851562 11.941406 14.792969 11.757812 14.902344 C 11.578125 15.007812 11.515625 15.246094 11.625 15.425781 L 12.65625 17.15625 L 11.585938 16.929688 C 11.378906 16.886719 11.175781 17.015625 11.128906 17.222656 C 11.085938 17.429688 11.21875 17.636719 11.425781 17.679688 L 13.492188 18.117188 C 13.519531 18.125 13.546875 18.125 13.570312 18.125 Z M 13.570312 18.125 " fill-opacity="1" fill-rule="nonzero"/></svg>