<svg xmlns="http://www.w3.org/2000/svg" xmlns:xlink="http://www.w3.org/1999/xlink" width="45" zoomAndPan="magnify" viewBox="0 0 33.75 33.749998" height="45" preserveAspectRatio="xMidYMid meet" version="1.0"><defs><clipPath id="1918d1268a"><path d="M 1.355469 4.824219 L 28.160156 4.824219 L 28.160156 28.644531 L 1.355469 28.644531 Z M 1.355469 4.824219 " clip-rule="nonzero"/></clipPath><clipPath id="37985197b3"><path d="M 24.386719 15 L 31 15 L 31 18.148438 L 24.386719 18.148438 Z M 24.386719 15 " clip-rule="nonzero"/></clipPath><clipPath id="6e8e3bf989"><path d="M 26 11.445312 L 29 11.445312 L 29 16 L 26 16 Z M 26 11.445312 " clip-rule="nonzero"/></clipPath><clipPath id="6f6907c9ea"><path d="M 28 11.445312 L 32.574219 11.445312 L 32.574219 16 L 28 16 Z M 28 11.445312 " clip-rule="nonzero"/></clipPath></defs><g clip-path="url(#1918d1268a)"><path fill="#2f7cee" d="M 9.578125 13.390625 L 14.554688 16.261719 L 14.554688 22.648438 L 9.578125 19.773438 Z M 20.207031 13.390625 L 15.226562 16.261719 L 15.226562 22.648438 L 20.207031 19.773438 Z M 19.871094 12.808594 L 14.890625 9.941406 L 9.914062 12.808594 L 14.890625 15.679688 Z M 14.484375 6.257812 L 15.300781 6.257812 C 15.410156 6.257812 15.46875 6.203125 15.46875 6.089844 C 15.46875 5.976562 15.410156 5.921875 15.300781 5.921875 L 14.484375 5.921875 C 14.371094 5.921875 14.316406 5.976562 14.316406 6.089844 C 14.316406 6.203125 14.371094 6.257812 14.484375 6.257812 Z M 12.445312 6.257812 L 13.261719 6.257812 C 13.375 6.257812 13.429688 6.203125 13.429688 6.089844 C 13.429688 5.976562 13.375 5.921875 13.261719 5.921875 L 12.445312 5.921875 C 12.335938 5.921875 12.277344 5.976562 12.277344 6.089844 C 12.277344 6.203125 12.335938 6.257812 12.445312 6.257812 Z M 18.558594 6.257812 L 19.375 6.257812 C 19.484375 6.257812 19.542969 6.203125 19.542969 6.089844 C 19.542969 5.976562 19.484375 5.921875 19.375 5.921875 L 18.558594 5.921875 C 18.445312 5.921875 18.390625 5.976562 18.390625 6.089844 C 18.390625 6.203125 18.445312 6.257812 18.558594 6.257812 Z M 16.523438 6.257812 L 17.335938 6.257812 C 17.449219 6.257812 17.503906 6.203125 17.503906 6.089844 C 17.503906 5.976562 17.449219 5.921875 17.335938 5.921875 L 16.523438 5.921875 C 16.410156 5.921875 16.355469 5.976562 16.355469 6.089844 C 16.355469 6.203125 16.410156 6.257812 16.523438 6.257812 Z M 10.410156 6.257812 L 11.226562 6.257812 C 11.335938 6.257812 11.390625 6.203125 11.390625 6.089844 C 11.390625 5.976562 11.335938 5.921875 11.226562 5.921875 L 10.410156 5.921875 C 10.296875 5.921875 10.242188 5.976562 10.242188 6.089844 C 10.242188 6.203125 10.296875 6.257812 10.410156 6.257812 Z M 5.953125 10.921875 C 5.855469 10.863281 5.777344 10.886719 5.722656 10.980469 L 5.316406 11.6875 C 5.257812 11.785156 5.28125 11.859375 5.375 11.914062 C 5.472656 11.972656 5.550781 11.953125 5.605469 11.855469 L 6.011719 11.148438 C 6.070312 11.050781 6.046875 10.976562 5.953125 10.921875 Z M 7.414062 8.386719 C 7.4375 8.402344 7.46875 8.410156 7.496094 8.410156 C 7.5625 8.410156 7.609375 8.382812 7.644531 8.328125 L 8.050781 7.621094 C 8.105469 7.523438 8.085938 7.445312 7.988281 7.390625 C 7.890625 7.335938 7.816406 7.355469 7.757812 7.453125 L 7.351562 8.160156 C 7.296875 8.253906 7.316406 8.332031 7.414062 8.386719 Z M 3.339844 15.445312 C 3.4375 15.5 3.511719 15.480469 3.566406 15.382812 L 3.976562 14.679688 C 4.03125 14.582031 4.011719 14.503906 3.914062 14.449219 C 3.816406 14.394531 3.742188 14.414062 3.683594 14.511719 L 3.277344 15.214844 C 3.222656 15.3125 3.242188 15.390625 3.339844 15.445312 Z M 4.933594 12.683594 C 4.835938 12.628906 4.757812 12.648438 4.703125 12.746094 L 4.296875 13.453125 C 4.238281 13.546875 4.261719 13.625 4.355469 13.679688 C 4.382812 13.695312 4.410156 13.703125 4.441406 13.703125 C 4.503906 13.703125 4.554688 13.675781 4.585938 13.621094 L 4.996094 12.914062 C 5.050781 12.816406 5.03125 12.742188 4.933594 12.683594 Z M 6.96875 9.15625 C 6.875 9.101562 6.796875 9.121094 6.742188 9.21875 L 6.332031 9.921875 C 6.277344 10.019531 6.296875 10.097656 6.394531 10.152344 C 6.421875 10.167969 6.449219 10.175781 6.480469 10.175781 C 6.542969 10.175781 6.589844 10.144531 6.625 10.089844 L 7.03125 9.382812 C 7.085938 9.289062 7.066406 9.210938 6.96875 9.15625 Z M 5.605469 21.636719 C 5.550781 21.539062 5.472656 21.519531 5.375 21.574219 C 5.28125 21.632812 5.257812 21.707031 5.316406 21.804688 L 5.722656 22.511719 C 5.777344 22.609375 5.855469 22.628906 5.953125 22.570312 C 6.046875 22.515625 6.070312 22.441406 6.011719 22.34375 Z M 6.625 23.402344 C 6.566406 23.304688 6.492188 23.285156 6.394531 23.339844 C 6.296875 23.394531 6.277344 23.472656 6.332031 23.570312 L 6.742188 24.273438 C 6.773438 24.332031 6.820312 24.359375 6.886719 24.359375 C 6.917969 24.359375 6.945312 24.351562 6.96875 24.335938 C 7.066406 24.28125 7.085938 24.203125 7.03125 24.105469 Z M 4.585938 19.871094 C 4.53125 19.777344 4.453125 19.753906 4.359375 19.8125 C 4.261719 19.867188 4.242188 19.945312 4.296875 20.039062 L 4.703125 20.746094 C 4.734375 20.800781 4.785156 20.828125 4.847656 20.828125 C 4.878906 20.832031 4.90625 20.824219 4.933594 20.808594 C 5.03125 20.75 5.050781 20.675781 4.996094 20.578125 Z M 3.566406 18.109375 C 3.511719 18.011719 3.4375 17.992188 3.339844 18.046875 C 3.242188 18.101562 3.222656 18.179688 3.277344 18.277344 L 3.683594 18.980469 C 3.71875 19.039062 3.765625 19.066406 3.832031 19.066406 C 3.859375 19.066406 3.886719 19.058594 3.914062 19.042969 C 4.011719 18.988281 4.03125 18.910156 3.976562 18.8125 Z M 7.90625 26.125 C 7.96875 26.125 8.019531 26.09375 8.050781 26.039062 C 8.082031 25.984375 8.082031 25.925781 8.050781 25.871094 L 7.644531 25.164062 C 7.585938 25.070312 7.511719 25.046875 7.414062 25.105469 C 7.316406 25.160156 7.296875 25.238281 7.351562 25.332031 L 7.757812 26.039062 C 7.792969 26.09375 7.839844 26.125 7.90625 26.125 Z M 17.335938 27.234375 L 16.523438 27.234375 C 16.410156 27.234375 16.355469 27.289062 16.355469 27.402344 C 16.355469 27.511719 16.410156 27.570312 16.523438 27.570312 L 17.335938 27.570312 C 17.449219 27.570312 17.503906 27.511719 17.503906 27.402344 C 17.503906 27.289062 17.449219 27.234375 17.335938 27.234375 Z M 15.300781 27.234375 L 14.484375 27.234375 C 14.371094 27.234375 14.316406 27.289062 14.316406 27.402344 C 14.316406 27.511719 14.371094 27.570312 14.484375 27.570312 L 15.300781 27.570312 C 15.410156 27.570312 15.46875 27.511719 15.46875 27.402344 C 15.46875 27.289062 15.410156 27.234375 15.300781 27.234375 Z M 19.375 27.234375 L 18.558594 27.234375 C 18.445312 27.234375 18.390625 27.289062 18.390625 27.402344 C 18.390625 27.511719 18.445312 27.570312 18.558594 27.570312 L 19.375 27.570312 C 19.484375 27.570312 19.542969 27.511719 19.542969 27.402344 C 19.542969 27.289062 19.484375 27.234375 19.375 27.234375 Z M 13.261719 27.234375 L 12.445312 27.234375 C 12.335938 27.234375 12.28125 27.289062 12.28125 27.402344 C 12.28125 27.511719 12.335938 27.570312 12.445312 27.570312 L 13.261719 27.570312 C 13.375 27.570312 13.429688 27.511719 13.429688 27.402344 C 13.429688 27.289062 13.375 27.234375 13.261719 27.234375 Z M 11.226562 27.234375 L 10.410156 27.234375 C 10.296875 27.234375 10.242188 27.289062 10.242188 27.402344 C 10.242188 27.511719 10.296875 27.570312 10.410156 27.570312 L 11.226562 27.570312 C 11.335938 27.570312 11.390625 27.511719 11.390625 27.402344 C 11.390625 27.289062 11.335938 27.234375 11.226562 27.234375 Z M 23.390625 23.339844 C 23.292969 23.285156 23.214844 23.304688 23.160156 23.402344 L 22.75 24.105469 C 22.695312 24.203125 22.714844 24.28125 22.8125 24.335938 C 22.839844 24.351562 22.867188 24.359375 22.898438 24.359375 C 22.960938 24.359375 23.011719 24.332031 23.042969 24.273438 L 23.449219 23.570312 C 23.507812 23.472656 23.484375 23.394531 23.390625 23.339844 Z M 24.40625 21.574219 C 24.3125 21.519531 24.234375 21.539062 24.179688 21.636719 L 23.769531 22.34375 C 23.714844 22.441406 23.734375 22.515625 23.832031 22.570312 C 23.929688 22.628906 24.003906 22.605469 24.0625 22.511719 L 24.46875 21.804688 C 24.523438 21.707031 24.503906 21.632812 24.40625 21.574219 Z M 26.445312 18.046875 C 26.347656 17.992188 26.273438 18.011719 26.214844 18.109375 L 25.808594 18.8125 C 25.753906 18.910156 25.773438 18.988281 25.871094 19.042969 C 25.96875 19.097656 26.042969 19.078125 26.097656 18.980469 L 26.507812 18.277344 C 26.5625 18.179688 26.542969 18.101562 26.445312 18.046875 Z M 22.371094 25.105469 C 22.273438 25.046875 22.195312 25.070312 22.140625 25.164062 L 21.734375 25.871094 C 21.675781 25.96875 21.699219 26.046875 21.796875 26.101562 C 21.820312 26.117188 21.847656 26.125 21.878906 26.125 C 21.945312 26.125 21.992188 26.09375 22.023438 26.039062 L 22.433594 25.332031 C 22.488281 25.238281 22.46875 25.160156 22.371094 25.105469 Z M 25.425781 19.8125 C 25.328125 19.753906 25.253906 19.777344 25.195312 19.871094 L 24.789062 20.578125 C 24.734375 20.675781 24.753906 20.75 24.851562 20.808594 C 24.875 20.824219 24.90625 20.832031 24.933594 20.828125 C 25 20.828125 25.046875 20.800781 25.082031 20.746094 L 25.488281 20.039062 C 25.542969 19.945312 25.523438 19.867188 25.425781 19.8125 Z M 26.214844 15.382812 C 26.246094 15.441406 26.296875 15.46875 26.359375 15.46875 C 26.390625 15.46875 26.417969 15.460938 26.445312 15.445312 C 26.542969 15.390625 26.5625 15.3125 26.507812 15.214844 L 26.097656 14.511719 C 26.042969 14.414062 25.964844 14.394531 25.871094 14.449219 C 25.773438 14.503906 25.753906 14.582031 25.808594 14.679688 Z M 21.796875 7.390625 C 21.699219 7.445312 21.675781 7.523438 21.734375 7.621094 L 22.140625 8.328125 C 22.195312 8.421875 22.273438 8.445312 22.371094 8.386719 C 22.46875 8.332031 22.488281 8.253906 22.429688 8.160156 L 22.023438 7.453125 C 21.96875 7.355469 21.890625 7.335938 21.796875 7.390625 Z M 25.082031 12.746094 C 25.023438 12.648438 24.949219 12.628906 24.851562 12.683594 C 24.753906 12.742188 24.734375 12.816406 24.789062 12.914062 L 25.195312 13.621094 C 25.230469 13.675781 25.277344 13.703125 25.34375 13.703125 C 25.371094 13.703125 25.402344 13.695312 25.425781 13.679688 C 25.523438 13.625 25.542969 13.546875 25.488281 13.453125 Z M 23.042969 9.21875 C 22.988281 9.121094 22.910156 9.101562 22.8125 9.15625 C 22.714844 9.210938 22.695312 9.289062 22.75 9.386719 L 23.160156 10.089844 C 23.191406 10.144531 23.242188 10.175781 23.304688 10.175781 C 23.335938 10.175781 23.363281 10.167969 23.390625 10.152344 C 23.484375 10.097656 23.507812 10.019531 23.449219 9.921875 Z M 24.0625 10.980469 C 24.003906 10.886719 23.929688 10.863281 23.832031 10.921875 C 23.734375 10.976562 23.714844 11.050781 23.769531 11.148438 L 24.179688 11.855469 C 24.234375 11.953125 24.308594 11.972656 24.40625 11.917969 C 24.503906 11.859375 24.523438 11.785156 24.46875 11.6875 Z M 3.816406 16.746094 C 3.816406 16.582031 3.785156 16.425781 3.722656 16.273438 C 3.660156 16.125 3.574219 15.992188 3.457031 15.875 C 3.34375 15.761719 3.210938 15.671875 3.058594 15.609375 C 2.90625 15.546875 2.75 15.515625 2.585938 15.515625 C 2.425781 15.515625 2.269531 15.546875 2.117188 15.609375 C 1.964844 15.671875 1.832031 15.761719 1.71875 15.875 C 1.601562 15.992188 1.511719 16.125 1.449219 16.273438 C 1.386719 16.425781 1.355469 16.582031 1.355469 16.746094 C 1.355469 16.910156 1.386719 17.066406 1.449219 17.21875 C 1.511719 17.367188 1.601562 17.5 1.71875 17.617188 C 1.832031 17.730469 1.964844 17.820312 2.117188 17.882812 C 2.269531 17.945312 2.425781 17.976562 2.585938 17.976562 C 2.75 17.976562 2.90625 17.945312 3.058594 17.882812 C 3.210938 17.820312 3.34375 17.730469 3.457031 17.617188 C 3.574219 17.5 3.660156 17.367188 3.722656 17.214844 C 3.785156 17.066406 3.816406 16.910156 3.816406 16.746094 Z M 8.746094 26.171875 C 8.582031 26.171875 8.425781 26.203125 8.273438 26.265625 C 8.125 26.328125 7.992188 26.417969 7.875 26.53125 C 7.761719 26.648438 7.671875 26.78125 7.609375 26.929688 C 7.546875 27.082031 7.515625 27.238281 7.515625 27.402344 C 7.515625 27.566406 7.546875 27.722656 7.609375 27.871094 C 7.671875 28.023438 7.761719 28.15625 7.875 28.273438 C 7.992188 28.386719 8.125 28.476562 8.273438 28.539062 C 8.425781 28.601562 8.582031 28.632812 8.746094 28.632812 C 8.910156 28.632812 9.066406 28.601562 9.214844 28.539062 C 9.367188 28.476562 9.5 28.386719 9.617188 28.273438 C 9.730469 28.15625 9.820312 28.023438 9.882812 27.871094 C 9.945312 27.722656 9.976562 27.566406 9.976562 27.402344 C 9.976562 27.238281 9.945312 27.082031 9.882812 26.929688 C 9.820312 26.78125 9.730469 26.648438 9.617188 26.53125 C 9.5 26.417969 9.367188 26.328125 9.214844 26.265625 C 9.066406 26.203125 8.910156 26.171875 8.746094 26.171875 Z M 8.738281 7.320312 C 8.902344 7.320312 9.058594 7.289062 9.210938 7.226562 C 9.359375 7.164062 9.492188 7.074219 9.609375 6.960938 C 9.722656 6.84375 9.8125 6.710938 9.875 6.5625 C 9.9375 6.410156 9.96875 6.253906 9.96875 6.089844 C 9.96875 5.925781 9.9375 5.769531 9.875 5.621094 C 9.8125 5.46875 9.722656 5.335938 9.609375 5.21875 C 9.492188 5.105469 9.359375 5.015625 9.210938 4.953125 C 9.058594 4.890625 8.902344 4.859375 8.738281 4.859375 C 8.574219 4.859375 8.417969 4.890625 8.269531 4.953125 C 8.117188 5.015625 7.984375 5.105469 7.867188 5.21875 C 7.753906 5.335938 7.664062 5.46875 7.601562 5.621094 C 7.539062 5.769531 7.507812 5.925781 7.507812 6.089844 C 7.507812 6.253906 7.539062 6.410156 7.601562 6.5625 C 7.664062 6.710938 7.753906 6.84375 7.867188 6.960938 C 7.984375 7.074219 8.117188 7.164062 8.269531 7.226562 C 8.417969 7.289062 8.574219 7.320312 8.738281 7.320312 Z M 21.054688 26.171875 C 20.890625 26.171875 20.734375 26.203125 20.582031 26.265625 C 20.429688 26.328125 20.296875 26.417969 20.183594 26.53125 C 20.066406 26.648438 19.980469 26.78125 19.917969 26.929688 C 19.855469 27.082031 19.824219 27.238281 19.824219 27.402344 C 19.824219 27.566406 19.855469 27.722656 19.917969 27.871094 C 19.980469 28.023438 20.066406 28.15625 20.183594 28.273438 C 20.296875 28.386719 20.429688 28.476562 20.582031 28.539062 C 20.734375 28.601562 20.890625 28.632812 21.054688 28.632812 C 21.214844 28.632812 21.375 28.601562 21.523438 28.539062 C 21.675781 28.476562 21.808594 28.386719 21.921875 28.273438 C 22.039062 28.15625 22.128906 28.023438 22.191406 27.871094 C 22.253906 27.722656 22.285156 27.566406 22.285156 27.402344 C 22.285156 27.238281 22.253906 27.082031 22.191406 26.929688 C 22.128906 26.78125 22.039062 26.648438 21.921875 26.53125 C 21.808594 26.417969 21.675781 26.328125 21.523438 26.265625 C 21.375 26.203125 21.214844 26.171875 21.054688 26.171875 Z M 21.046875 7.320312 C 21.207031 7.320312 21.367188 7.289062 21.515625 7.226562 C 21.667969 7.164062 21.800781 7.074219 21.914062 6.960938 C 22.03125 6.84375 22.121094 6.710938 22.183594 6.5625 C 22.246094 6.410156 22.277344 6.253906 22.277344 6.089844 C 22.277344 5.925781 22.246094 5.769531 22.183594 5.621094 C 22.121094 5.46875 22.03125 5.335938 21.914062 5.21875 C 21.800781 5.105469 21.667969 5.015625 21.515625 4.953125 C 21.367188 4.890625 21.207031 4.859375 21.046875 4.859375 C 20.882812 4.859375 20.726562 4.890625 20.574219 4.953125 C 20.425781 5.015625 20.289062 5.105469 20.175781 5.21875 C 20.058594 5.335938 19.972656 5.46875 19.910156 5.621094 C 19.847656 5.769531 19.816406 5.925781 19.816406 6.089844 C 19.816406 6.253906 19.847656 6.410156 19.910156 6.5625 C 19.972656 6.710938 20.0625 6.84375 20.175781 6.960938 C 20.292969 7.074219 20.425781 7.164062 20.574219 7.226562 C 20.726562 7.289062 20.882812 7.320312 21.046875 7.320312 Z M 27.195312 15.515625 C 27.03125 15.515625 26.875 15.546875 26.726562 15.609375 C 26.574219 15.671875 26.441406 15.761719 26.324219 15.875 C 26.210938 15.992188 26.121094 16.125 26.058594 16.273438 C 25.996094 16.425781 25.964844 16.582031 25.964844 16.746094 C 25.964844 16.910156 25.996094 17.066406 26.058594 17.21875 C 26.121094 17.367188 26.210938 17.5 26.324219 17.617188 C 26.441406 17.730469 26.574219 17.820312 26.726562 17.882812 C 26.875 17.945312 27.03125 17.976562 27.195312 17.976562 C 27.359375 17.976562 27.515625 17.945312 27.667969 17.882812 C 27.816406 17.820312 27.949219 17.730469 28.066406 17.617188 C 28.179688 17.5 28.269531 17.367188 28.332031 17.21875 C 28.394531 17.066406 28.425781 16.910156 28.425781 16.746094 C 28.425781 16.582031 28.394531 16.425781 28.332031 16.273438 C 28.269531 16.125 28.179688 15.992188 28.066406 15.875 C 27.949219 15.761719 27.816406 15.671875 27.667969 15.609375 C 27.515625 15.546875 27.359375 15.515625 27.195312 15.515625 Z M 27.195312 15.515625 " fill-opacity="1" fill-rule="nonzero"/></g><g clip-path="url(#37985197b3)"><path fill="#2f7cee" d="M 30.183594 16.425781 C 30.152344 16.222656 30.046875 16.066406 29.875 15.957031 C 29.558594 15.785156 29.226562 15.664062 28.875 15.589844 C 28.703125 15.554688 28.535156 15.503906 28.371094 15.441406 L 27.695312 16.542969 L 27.625 15.992188 C 27.695312 15.957031 27.734375 15.902344 27.734375 15.824219 L 27.734375 15.78125 C 27.734375 15.65625 27.671875 15.59375 27.546875 15.59375 L 27.210938 15.59375 C 27.085938 15.59375 27.023438 15.65625 27.023438 15.78125 L 27.023438 15.824219 C 27.023438 15.902344 27.058594 15.957031 27.128906 15.992188 L 27.058594 16.542969 L 26.382812 15.441406 C 26.21875 15.503906 26.050781 15.554688 25.878906 15.589844 C 25.53125 15.664062 25.195312 15.785156 24.882812 15.957031 C 24.707031 16.066406 24.605469 16.222656 24.574219 16.425781 L 24.5 16.863281 C 24.449219 17.171875 24.425781 17.484375 24.425781 17.800781 L 24.425781 18.027344 C 24.425781 18.15625 24.46875 18.265625 24.5625 18.355469 C 24.652344 18.445312 24.761719 18.492188 24.890625 18.492188 L 29.867188 18.492188 C 29.996094 18.492188 30.105469 18.445312 30.195312 18.355469 C 30.285156 18.265625 30.332031 18.15625 30.332031 18.027344 L 30.332031 17.800781 C 30.332031 17.484375 30.304688 17.171875 30.253906 16.863281 Z M 30.183594 16.425781 " fill-opacity="1" fill-rule="nonzero"/></g><g clip-path="url(#6e8e3bf989)"><path fill="#2f7cee" d="M 27.378906 15.21875 C 28.082031 15.21875 28.65625 13.972656 28.65625 13.269531 C 28.65625 13.097656 28.621094 12.933594 28.558594 12.777344 C 28.492188 12.621094 28.402344 12.484375 28.28125 12.363281 C 28.160156 12.242188 28.023438 12.152344 27.867188 12.085938 C 27.710938 12.023438 27.546875 11.988281 27.378906 11.988281 C 27.207031 11.988281 27.046875 12.023438 26.890625 12.085938 C 26.730469 12.152344 26.59375 12.242188 26.472656 12.363281 C 26.355469 12.484375 26.261719 12.621094 26.199219 12.777344 C 26.132812 12.933594 26.101562 13.097656 26.101562 13.269531 C 26.101562 13.972656 26.671875 15.21875 27.378906 15.21875 Z M 27.378906 15.21875 " fill-opacity="1" fill-rule="nonzero"/></g><g clip-path="url(#6f6907c9ea)"><path fill="#2f7cee" d="M 31.839844 11.453125 L 28.820312 11.453125 C 28.679688 11.453125 28.550781 11.5 28.445312 11.59375 C 28.335938 11.6875 28.273438 11.804688 28.25 11.945312 C 28.375 12.027344 28.484375 12.125 28.582031 12.238281 L 28.582031 12.03125 C 28.582031 11.871094 28.664062 11.792969 28.820312 11.792969 L 31.839844 11.792969 C 32 11.792969 32.078125 11.871094 32.078125 12.03125 L 32.078125 13.878906 C 32.078125 14.035156 32 14.117188 31.839844 14.117188 L 31.246094 14.117188 C 31.183594 14.117188 31.125 14.132812 31.074219 14.167969 L 29.941406 14.941406 L 29.835938 14.363281 C 29.804688 14.199219 29.707031 14.117188 29.539062 14.117188 L 28.820312 14.117188 C 28.8125 14.117188 28.804688 14.117188 28.796875 14.113281 C 28.757812 14.222656 28.714844 14.328125 28.667969 14.433594 C 28.71875 14.449219 28.769531 14.453125 28.820312 14.453125 L 29.507812 14.453125 L 29.613281 15.011719 C 29.621094 15.070312 29.644531 15.117188 29.679688 15.160156 C 29.714844 15.203125 29.757812 15.238281 29.808594 15.257812 C 29.859375 15.28125 29.914062 15.289062 29.96875 15.28125 C 30.027344 15.277344 30.078125 15.257812 30.121094 15.226562 L 31.257812 14.453125 L 31.839844 14.453125 C 32 14.453125 32.136719 14.398438 32.25 14.285156 C 32.359375 14.171875 32.417969 14.035156 32.417969 13.878906 L 32.417969 12.03125 C 32.417969 11.871094 32.359375 11.734375 32.25 11.621094 C 32.136719 11.511719 32 11.453125 31.839844 11.453125 Z M 31.839844 11.453125 " fill-opacity="1" fill-rule="nonzero"/></g></svg>