<svg xmlns="http://www.w3.org/2000/svg" xmlns:xlink="http://www.w3.org/1999/xlink" width="45" zoomAndPan="magnify" viewBox="0 0 33.75 33.749998" height="45" preserveAspectRatio="xMidYMid meet" version="1.0"><defs><clipPath id="2d6d970013"><path d="M 1.480469 1.5 L 32.003906 1.5 L 32.003906 32 L 1.480469 32 Z M 1.480469 1.5 " clip-rule="nonzero"/></clipPath></defs><path fill="#2f7cee" d="M 15.542969 6.519531 L 17.988281 6.519531 C 18.179688 6.519531 18.339844 6.355469 18.339844 6.164062 L 18.339844 5.683594 C 18.339844 5.296875 18.117188 4.941406 17.761719 4.8125 L 17.472656 4.683594 C 17.28125 4.878906 17.023438 4.972656 16.734375 4.972656 C 16.445312 4.972656 16.21875 4.878906 15.992188 4.683594 L 15.703125 4.8125 C 15.351562 4.972656 15.125 5.328125 15.125 5.683594 L 15.125 6.164062 C 15.191406 6.355469 15.351562 6.519531 15.542969 6.519531 Z M 15.542969 6.519531 " fill-opacity="1" fill-rule="nonzero"/><path fill="#2f7cee" d="M 17.570312 3.6875 C 17.570312 3.945312 17.492188 4.164062 17.335938 4.347656 C 17.175781 4.53125 16.988281 4.621094 16.765625 4.621094 C 16.542969 4.621094 16.355469 4.53125 16.195312 4.347656 C 16.039062 4.164062 15.960938 3.945312 15.960938 3.6875 C 15.960938 3.429688 16.039062 3.210938 16.195312 3.027344 C 16.355469 2.847656 16.542969 2.753906 16.765625 2.753906 C 16.988281 2.753906 17.175781 2.847656 17.335938 3.027344 C 17.492188 3.210938 17.570312 3.429688 17.570312 3.6875 Z M 17.570312 3.6875 " fill-opacity="1" fill-rule="nonzero"/><path fill="#2f7cee" d="M 9.914062 9.636719 L 9.914062 9.15625 C 9.914062 8.769531 9.691406 8.414062 9.335938 8.285156 L 9.046875 8.191406 C 8.855469 8.382812 8.597656 8.480469 8.308594 8.480469 C 8.015625 8.480469 7.792969 8.382812 7.566406 8.191406 L 7.277344 8.320312 C 6.925781 8.480469 6.699219 8.832031 6.699219 9.1875 L 6.699219 9.667969 C 6.699219 9.863281 6.859375 10.023438 7.050781 10.023438 L 9.496094 10.023438 C 9.753906 9.992188 9.914062 9.863281 9.914062 9.636719 Z M 9.914062 9.636719 " fill-opacity="1" fill-rule="nonzero"/><path fill="#2f7cee" d="M 8.339844 8.125 C 8.789062 8.125 9.144531 7.707031 9.144531 7.191406 C 9.144531 6.679688 8.789062 6.261719 8.339844 6.261719 C 7.890625 6.261719 7.535156 6.679688 7.535156 7.191406 C 7.535156 7.707031 7.890625 8.125 8.339844 8.125 Z M 8.339844 8.125 " fill-opacity="1" fill-rule="nonzero"/><path fill="#2f7cee" d="M 23.96875 9.992188 L 26.414062 9.992188 C 26.605469 9.992188 26.769531 9.832031 26.769531 9.636719 L 26.769531 9.15625 C 26.769531 8.769531 26.542969 8.414062 26.1875 8.285156 L 25.898438 8.15625 C 25.707031 8.351562 25.449219 8.449219 25.160156 8.449219 C 24.871094 8.449219 24.644531 8.351562 24.417969 8.15625 L 24.128906 8.285156 C 23.777344 8.449219 23.550781 8.800781 23.550781 9.15625 L 23.550781 9.636719 C 23.617188 9.863281 23.777344 9.992188 23.96875 9.992188 Z M 23.96875 9.992188 " fill-opacity="1" fill-rule="nonzero"/><path fill="#2f7cee" d="M 25.191406 8.125 C 25.640625 8.125 25.996094 7.707031 25.996094 7.191406 C 25.996094 6.679688 25.640625 6.261719 25.191406 6.261719 C 24.742188 6.261719 24.386719 6.679688 24.386719 7.191406 C 24.417969 7.707031 24.773438 8.125 25.191406 8.125 Z M 25.191406 8.125 " fill-opacity="1" fill-rule="nonzero"/><path fill="#2f7cee" d="M 5.832031 16.746094 L 5.542969 16.617188 C 5.347656 16.808594 5.089844 16.90625 4.800781 16.90625 C 4.511719 16.90625 4.285156 16.808594 4.0625 16.617188 L 3.835938 16.746094 C 3.484375 16.90625 3.257812 17.226562 3.257812 17.613281 L 3.257812 18.097656 C 3.257812 18.289062 3.417969 18.449219 3.613281 18.449219 L 6.054688 18.449219 C 6.25 18.449219 6.410156 18.289062 6.410156 18.097656 L 6.410156 17.613281 C 6.410156 17.226562 6.183594 16.90625 5.832031 16.746094 Z M 5.832031 16.746094 " fill-opacity="1" fill-rule="nonzero"/><path fill="#2f7cee" d="M 4.832031 16.550781 C 5.285156 16.550781 5.636719 16.132812 5.636719 15.621094 C 5.636719 15.105469 5.285156 14.6875 4.832031 14.6875 C 4.382812 14.6875 4.03125 15.105469 4.03125 15.621094 C 4.0625 16.132812 4.414062 16.550781 4.832031 16.550781 Z M 4.832031 16.550781 " fill-opacity="1" fill-rule="nonzero"/><path fill="#2f7cee" d="M 17.761719 28.675781 L 17.472656 28.546875 C 17.28125 28.742188 17.023438 28.835938 16.734375 28.835938 C 16.445312 28.835938 16.21875 28.742188 15.992188 28.546875 L 15.703125 28.675781 C 15.351562 28.835938 15.125 29.191406 15.125 29.546875 L 15.125 30.027344 C 15.125 30.222656 15.285156 30.382812 15.480469 30.382812 L 17.921875 30.382812 C 18.117188 30.382812 18.277344 30.222656 18.277344 30.027344 L 18.277344 29.546875 C 18.339844 29.160156 18.117188 28.835938 17.761719 28.675781 Z M 17.761719 28.675781 " fill-opacity="1" fill-rule="nonzero"/><path fill="#2f7cee" d="M 16.765625 28.484375 C 17.214844 28.484375 17.570312 28.066406 17.570312 27.550781 C 17.570312 27.035156 17.214844 26.617188 16.765625 26.617188 C 16.316406 26.617188 15.960938 27.035156 15.960938 27.550781 C 15.960938 28.066406 16.316406 28.484375 16.765625 28.484375 Z M 16.765625 28.484375 " fill-opacity="1" fill-rule="nonzero"/><path fill="#2f7cee" d="M 9.335938 25.171875 L 9.046875 25.042969 C 8.855469 25.234375 8.597656 25.332031 8.308594 25.332031 C 8.015625 25.332031 7.792969 25.234375 7.566406 25.042969 L 7.277344 25.171875 C 6.925781 25.332031 6.699219 25.6875 6.699219 26.039062 L 6.699219 26.523438 C 6.699219 26.714844 6.859375 26.875 7.050781 26.875 L 9.496094 26.875 C 9.691406 26.875 9.851562 26.714844 9.851562 26.523438 L 9.851562 26.070312 C 9.914062 25.6875 9.691406 25.332031 9.335938 25.171875 Z M 9.335938 25.171875 " fill-opacity="1" fill-rule="nonzero"/><path fill="#2f7cee" d="M 8.339844 24.980469 C 8.789062 24.980469 9.144531 24.558594 9.144531 24.046875 C 9.144531 23.53125 8.789062 23.113281 8.339844 23.113281 C 7.890625 23.113281 7.535156 23.53125 7.535156 24.046875 C 7.535156 24.558594 7.890625 24.980469 8.339844 24.980469 Z M 8.339844 24.980469 " fill-opacity="1" fill-rule="nonzero"/><path fill="#2f7cee" d="M 25.191406 25.332031 C 24.902344 25.332031 24.675781 25.234375 24.453125 25.042969 L 24.164062 25.171875 C 23.808594 25.332031 23.582031 25.6875 23.582031 26.039062 L 23.582031 26.523438 C 23.582031 26.714844 23.746094 26.875 23.9375 26.875 L 26.414062 26.875 C 26.605469 26.875 26.769531 26.714844 26.769531 26.523438 L 26.769531 26.070312 C 26.769531 25.6875 26.542969 25.332031 26.1875 25.203125 L 25.898438 25.074219 C 25.738281 25.234375 25.480469 25.332031 25.191406 25.332031 Z M 25.191406 25.332031 " fill-opacity="1" fill-rule="nonzero"/><path fill="#2f7cee" d="M 24.417969 24.078125 C 24.417969 24.59375 24.773438 25.011719 25.222656 25.011719 C 25.675781 25.011719 26.027344 24.59375 26.027344 24.078125 C 26.027344 23.5625 25.675781 23.144531 25.222656 23.144531 C 24.773438 23.144531 24.417969 23.5625 24.417969 24.078125 Z M 24.417969 24.078125 " fill-opacity="1" fill-rule="nonzero"/><g clip-path="url(#2d6d970013)"><path fill="#2f7cee" d="M 28.699219 13.402344 C 28.40625 13.402344 28.152344 13.433594 27.859375 13.496094 L 26.992188 11.117188 C 27.925781 10.507812 28.535156 9.476562 28.535156 8.320312 C 28.535156 6.484375 27.023438 4.972656 25.191406 4.972656 C 23.96875 4.972656 22.910156 5.617188 22.328125 6.613281 L 20.046875 5.554688 C 20.109375 5.328125 20.109375 5.101562 20.109375 4.84375 C 20.109375 3.011719 18.597656 1.5 16.765625 1.5 C 14.933594 1.5 13.421875 2.980469 13.421875 4.8125 C 13.421875 5.101562 13.453125 5.359375 13.515625 5.648438 L 11.136719 6.519531 C 10.527344 5.585938 9.496094 4.972656 8.339844 4.972656 C 6.507812 4.972656 4.996094 6.484375 4.996094 8.320312 C 4.996094 9.542969 5.636719 10.601562 6.632812 11.179688 L 5.574219 13.464844 C 5.347656 13.402344 5.121094 13.402344 4.867188 13.402344 C 3 13.402344 1.488281 14.910156 1.488281 16.746094 C 1.488281 18.578125 3 20.089844 4.832031 20.089844 C 5.121094 20.089844 5.378906 20.058594 5.667969 19.992188 L 6.539062 22.375 C 5.605469 22.984375 4.996094 24.015625 4.996094 25.171875 C 4.996094 27.003906 6.507812 28.515625 8.339844 28.515625 C 9.5625 28.515625 10.621094 27.871094 11.203125 26.875 L 13.484375 27.9375 C 13.421875 28.164062 13.421875 28.386719 13.421875 28.644531 C 13.421875 30.476562 14.933594 31.988281 16.765625 31.988281 C 18.597656 31.988281 20.109375 30.476562 20.109375 28.644531 C 20.109375 28.355469 20.078125 28.097656 20.015625 27.808594 L 22.394531 26.941406 C 23.003906 27.871094 24.035156 28.484375 25.191406 28.484375 C 27.023438 28.484375 28.535156 26.972656 28.535156 25.140625 C 28.535156 23.917969 27.894531 22.855469 26.894531 22.277344 L 27.957031 19.992188 C 28.183594 20.058594 28.40625 20.058594 28.664062 20.058594 C 30.5 20.058594 32.011719 18.546875 32.011719 16.714844 C 32.011719 14.878906 30.53125 13.402344 28.699219 13.402344 Z M 27.378906 13.65625 C 26.285156 14.109375 25.480469 15.167969 25.351562 16.390625 L 19.757812 14.074219 L 23.003906 10.828125 C 23.582031 11.34375 24.355469 11.632812 25.191406 11.632812 C 25.675781 11.632812 26.125 11.535156 26.542969 11.34375 Z M 17.023438 16.132812 L 17.023438 13.496094 L 18.886719 14.269531 Z M 16.507812 16.132812 L 14.644531 14.269531 L 16.507812 13.496094 Z M 16.507812 17.355469 L 16.507812 19.992188 L 14.644531 19.222656 Z M 17.023438 17.355469 L 18.886719 19.222656 L 17.023438 19.992188 Z M 19.402344 14.460938 L 24.257812 16.488281 L 17.375 16.488281 Z M 19.273438 13.882812 L 17.441406 13.109375 L 21.878906 11.277344 Z M 14.257812 13.882812 L 11.652344 11.277344 L 16.121094 13.109375 Z M 16.15625 16.488281 L 9.273438 16.488281 L 14.128906 14.460938 Z M 16.15625 17.003906 L 14.128906 19.027344 L 9.273438 17.003906 Z M 14.257812 19.609375 L 16.089844 20.378906 L 11.652344 22.210938 Z M 19.273438 19.609375 L 21.878906 22.210938 L 17.410156 20.378906 Z M 17.375 17.003906 L 24.257812 17.003906 L 19.402344 19.027344 Z M 25.191406 5.457031 C 26.769531 5.457031 28.023438 6.742188 28.023438 8.285156 C 28.023438 9.863281 26.734375 11.117188 25.191406 11.117188 C 23.617188 11.117188 22.363281 9.832031 22.363281 8.285156 C 22.363281 6.742188 23.648438 5.457031 25.191406 5.457031 Z M 22.105469 7.066406 C 21.945312 7.449219 21.847656 7.867188 21.847656 8.320312 C 21.847656 9.121094 22.136719 9.863281 22.585938 10.441406 L 16.992188 12.757812 L 16.992188 8.15625 C 18.308594 8.0625 19.402344 7.191406 19.851562 6.035156 Z M 16.765625 1.984375 C 18.339844 1.984375 19.59375 3.269531 19.59375 4.8125 C 19.59375 6.390625 18.308594 7.644531 16.765625 7.644531 C 15.222656 7.644531 13.933594 6.355469 13.933594 4.8125 C 13.933594 3.238281 15.191406 1.984375 16.765625 1.984375 Z M 13.679688 6.132812 C 14.160156 7.257812 15.222656 8.0625 16.507812 8.15625 L 16.507812 12.757812 L 10.910156 10.441406 C 11.394531 9.863281 11.652344 9.121094 11.652344 8.320312 C 11.652344 7.835938 11.554688 7.386719 11.363281 6.96875 Z M 5.476562 8.320312 C 5.476562 6.742188 6.761719 5.488281 8.308594 5.488281 C 9.882812 5.488281 11.136719 6.773438 11.136719 8.320312 C 11.136719 9.894531 9.851562 11.148438 8.308594 11.148438 C 6.761719 11.148438 5.476562 9.863281 5.476562 8.320312 Z M 7.085938 11.40625 C 7.472656 11.566406 7.890625 11.664062 8.339844 11.664062 C 9.175781 11.664062 9.914062 11.34375 10.527344 10.859375 L 13.773438 14.109375 L 8.179688 16.421875 C 8.050781 15.136719 7.214844 14.074219 6.054688 13.65625 Z M 2.003906 16.746094 C 2.003906 15.167969 3.289062 13.914062 4.832031 13.914062 C 6.378906 13.914062 7.664062 15.203125 7.664062 16.746094 C 7.664062 18.289062 6.378906 19.574219 4.832031 19.574219 C 3.289062 19.574219 2.003906 18.320312 2.003906 16.746094 Z M 6.152344 19.832031 C 7.246094 19.351562 8.050781 18.320312 8.179688 17.097656 L 13.773438 19.414062 L 10.492188 22.628906 C 9.914062 22.117188 9.144531 21.828125 8.308594 21.828125 C 7.824219 21.828125 7.375 21.921875 6.957031 22.117188 Z M 8.339844 28.035156 C 6.761719 28.035156 5.507812 26.746094 5.507812 25.203125 C 5.507812 23.628906 6.796875 22.375 8.339844 22.375 C 9.914062 22.375 11.167969 23.660156 11.167969 25.203125 C 11.167969 26.746094 9.882812 28.035156 8.339844 28.035156 Z M 11.425781 26.425781 C 11.585938 26.039062 11.683594 25.621094 11.683594 25.171875 C 11.683594 24.367188 11.394531 23.628906 10.945312 23.050781 L 16.539062 20.734375 L 16.539062 25.332031 C 15.222656 25.429688 14.128906 26.296875 13.679688 27.453125 Z M 16.765625 31.507812 C 15.191406 31.507812 13.933594 30.222656 13.933594 28.675781 C 13.933594 27.101562 15.222656 25.847656 16.765625 25.847656 C 18.339844 25.847656 19.59375 27.132812 19.59375 28.675781 C 19.59375 30.253906 18.339844 31.507812 16.765625 31.507812 Z M 19.851562 27.359375 C 19.371094 26.234375 18.308594 25.429688 17.023438 25.332031 L 17.023438 20.765625 L 22.617188 23.082031 C 22.136719 23.660156 21.878906 24.398438 21.878906 25.203125 C 21.878906 25.6875 21.976562 26.136719 22.167969 26.554688 Z M 28.054688 25.171875 C 28.054688 26.746094 26.769531 28 25.222656 28 C 23.648438 28 22.394531 26.714844 22.394531 25.171875 C 22.394531 23.59375 23.679688 22.339844 25.222656 22.339844 C 26.769531 22.339844 28.054688 23.628906 28.054688 25.171875 Z M 26.445312 22.085938 C 26.058594 21.921875 25.640625 21.828125 25.191406 21.828125 C 24.355469 21.828125 23.582031 22.148438 23.003906 22.628906 L 19.789062 19.414062 L 25.382812 17.097656 C 25.511719 18.386719 26.347656 19.445312 27.507812 19.863281 Z M 28.699219 19.574219 C 27.121094 19.574219 25.867188 18.289062 25.867188 16.746094 C 25.867188 15.167969 27.152344 13.914062 28.699219 13.914062 C 30.273438 13.914062 31.527344 15.203125 31.527344 16.746094 C 31.527344 18.320312 30.273438 19.574219 28.699219 19.574219 Z M 28.699219 19.574219 " fill-opacity="1" fill-rule="nonzero"/></g><path fill="#2f7cee" d="M 29.695312 16.746094 L 29.40625 16.617188 C 29.210938 16.808594 28.953125 16.90625 28.664062 16.90625 C 28.375 16.90625 28.152344 16.808594 27.925781 16.617188 L 27.699219 16.746094 C 27.347656 16.90625 27.121094 17.261719 27.121094 17.613281 L 27.121094 18.097656 C 27.121094 18.289062 27.28125 18.449219 27.476562 18.449219 L 29.917969 18.449219 C 30.113281 18.449219 30.273438 18.289062 30.273438 18.097656 L 30.273438 17.613281 C 30.273438 17.226562 30.046875 16.90625 29.695312 16.746094 Z M 29.695312 16.746094 " fill-opacity="1" fill-rule="nonzero"/><path fill="#2f7cee" d="M 28.699219 16.550781 C 29.148438 16.550781 29.5 16.132812 29.5 15.621094 C 29.5 15.105469 29.148438 14.6875 28.699219 14.6875 C 28.246094 14.6875 27.894531 15.105469 27.894531 15.621094 C 27.894531 16.132812 28.246094 16.550781 28.699219 16.550781 Z M 28.699219 16.550781 " fill-opacity="1" fill-rule="nonzero"/></svg>