<svg xmlns="http://www.w3.org/2000/svg" xmlns:xlink="http://www.w3.org/1999/xlink" width="45" zoomAndPan="magnify" viewBox="0 0 33.75 33.749998" height="45" preserveAspectRatio="xMidYMid meet" version="1.0"><defs><clipPath id="96e8d8a251"><path d="M 2 2.0625 L 31.769531 2.0625 L 31.769531 26 L 2 26 Z M 2 2.0625 " clip-rule="nonzero"/></clipPath><clipPath id="b475a1035a"><path d="M 4 24 L 12 24 L 12 31.097656 L 4 31.097656 Z M 4 24 " clip-rule="nonzero"/></clipPath><clipPath id="c2b5826785"><path d="M 13 24 L 21 24 L 21 31.097656 L 13 31.097656 Z M 13 24 " clip-rule="nonzero"/></clipPath><clipPath id="24afe2b8df"><path d="M 21 24 L 29 24 L 29 31.097656 L 21 31.097656 Z M 21 24 " clip-rule="nonzero"/></clipPath></defs><path fill="#ffffff" d="M 11.992188 16.816406 L 13.644531 16.816406 C 13.914062 16.851562 14.386719 16.953125 14.792969 17.492188 L 16.109375 19.214844 C 16.277344 19.414062 16.480469 19.515625 16.71875 19.515625 C 16.953125 19.515625 17.191406 19.414062 17.324219 19.214844 L 18.640625 17.492188 C 19.046875 16.984375 19.519531 16.851562 19.789062 16.816406 L 21.445312 16.816406 C 22.996094 16.816406 24.246094 18.066406 24.246094 19.617188 L 24.246094 22.320312 C 24.246094 22.859375 23.808594 23.296875 23.265625 23.296875 L 10.167969 23.296875 C 9.628906 23.296875 9.1875 22.859375 9.1875 22.320312 L 9.1875 19.617188 C 9.1875 18.066406 10.4375 16.816406 11.992188 16.816406 Z M 11.992188 16.816406 " fill-opacity="1" fill-rule="evenodd"/><path fill="#ffffff" d="M 20.566406 12.191406 C 20.566406 12.703125 20.46875 13.191406 20.273438 13.664062 C 20.078125 14.136719 19.800781 14.550781 19.4375 14.914062 C 19.078125 15.273438 18.660156 15.550781 18.191406 15.746094 C 17.71875 15.941406 17.226562 16.039062 16.71875 16.039062 C 16.207031 16.039062 15.714844 15.941406 15.242188 15.746094 C 14.773438 15.550781 14.355469 15.273438 13.996094 14.914062 C 13.632812 14.550781 13.355469 14.136719 13.160156 13.664062 C 12.964844 13.191406 12.867188 12.703125 12.867188 12.191406 C 12.867188 11.679688 12.964844 11.191406 13.160156 10.71875 C 13.355469 10.246094 13.632812 9.832031 13.996094 9.46875 C 14.355469 9.109375 14.773438 8.832031 15.242188 8.636719 C 15.714844 8.441406 16.207031 8.34375 16.71875 8.34375 C 17.226562 8.34375 17.71875 8.441406 18.191406 8.636719 C 18.660156 8.832031 19.078125 9.109375 19.4375 9.46875 C 19.800781 9.832031 20.078125 10.246094 20.273438 10.71875 C 20.46875 11.191406 20.566406 11.679688 20.566406 12.191406 Z M 20.566406 12.191406 " fill-opacity="1" fill-rule="nonzero"/><g clip-path="url(#96e8d8a251)"><path fill="#ffffff" d="M 16.71875 2.0625 C 20.800781 2.0625 24.480469 3.71875 27.148438 6.382812 C 29.816406 9.050781 31.46875 12.730469 31.46875 16.816406 C 31.46875 20.226562 30.324219 23.367188 28.398438 25.863281 L 27.351562 25.761719 L 26.945312 24.785156 C 28.667969 22.589844 29.679688 19.820312 29.679688 16.816406 C 29.679688 13.238281 28.230469 9.996094 25.898438 7.667969 C 23.570312 5.335938 20.328125 3.886719 16.75 3.886719 C 13.171875 3.886719 9.929688 5.335938 7.601562 7.667969 C 5.273438 9.996094 3.820312 13.238281 3.820312 16.816406 C 3.820312 19.820312 4.832031 22.589844 6.554688 24.785156 L 6.148438 25.761719 L 5.101562 25.863281 C 3.179688 23.367188 2.03125 20.226562 2.03125 16.816406 C 2.03125 12.730469 3.683594 9.050781 6.351562 6.382812 C 9.019531 3.71875 12.699219 2.0625 16.785156 2.0625 Z M 16.71875 2.0625 " fill-opacity="1" fill-rule="nonzero"/></g><g clip-path="url(#b475a1035a)"><path fill="#ffffff" d="M 9.222656 26.945312 L 11.179688 27.113281 C 11.316406 27.113281 11.449219 27.214844 11.484375 27.351562 C 11.519531 27.484375 11.484375 27.621094 11.382812 27.722656 L 9.898438 29.039062 L 10.335938 30.960938 C 10.371094 31.097656 10.300781 31.230469 10.199219 31.332031 C 10.066406 31.433594 9.929688 31.433594 9.796875 31.367188 L 8.109375 30.355469 L 6.417969 31.367188 C 6.285156 31.433594 6.148438 31.433594 6.015625 31.332031 C 5.878906 31.230469 5.847656 31.097656 5.878906 30.960938 L 6.320312 29.039062 L 4.832031 27.722656 C 4.730469 27.621094 4.699219 27.484375 4.730469 27.351562 C 4.765625 27.214844 4.902344 27.113281 5.035156 27.113281 L 6.992188 26.945312 L 7.769531 25.121094 C 7.835938 24.988281 7.9375 24.917969 8.109375 24.917969 C 8.242188 24.917969 8.378906 24.988281 8.445312 25.121094 Z M 9.222656 26.945312 " fill-opacity="1" fill-rule="evenodd"/></g><g clip-path="url(#c2b5826785)"><path fill="#ffffff" d="M 17.832031 26.945312 L 19.789062 27.113281 C 19.925781 27.113281 20.058594 27.214844 20.09375 27.351562 C 20.125 27.484375 20.09375 27.621094 19.992188 27.722656 L 18.507812 29.039062 L 18.945312 30.960938 C 18.980469 31.097656 18.910156 31.230469 18.808594 31.332031 C 18.675781 31.433594 18.539062 31.433594 18.40625 31.367188 L 16.71875 30.355469 L 15.027344 31.367188 C 14.894531 31.433594 14.757812 31.433594 14.625 31.332031 C 14.488281 31.230469 14.453125 31.097656 14.488281 30.960938 L 14.925781 29.039062 L 13.441406 27.722656 C 13.339844 27.621094 13.308594 27.484375 13.339844 27.351562 C 13.375 27.214844 13.507812 27.113281 13.644531 27.113281 L 15.601562 26.945312 L 16.378906 25.121094 C 16.445312 24.988281 16.546875 24.917969 16.71875 24.917969 C 16.851562 24.917969 16.988281 24.988281 17.054688 25.121094 Z M 17.832031 26.945312 " fill-opacity="1" fill-rule="evenodd"/></g><g clip-path="url(#24afe2b8df)"><path fill="#ffffff" d="M 26.441406 26.945312 L 28.398438 27.113281 C 28.535156 27.113281 28.667969 27.214844 28.703125 27.351562 C 28.734375 27.484375 28.703125 27.621094 28.601562 27.722656 L 27.117188 29.039062 L 27.554688 30.960938 C 27.589844 31.097656 27.519531 31.230469 27.417969 31.332031 C 27.285156 31.433594 27.148438 31.433594 27.015625 31.367188 L 25.324219 30.355469 L 23.636719 31.367188 C 23.503906 31.433594 23.367188 31.433594 23.234375 31.332031 C 23.097656 31.230469 23.0625 31.097656 23.097656 30.960938 L 23.535156 29.039062 L 22.050781 27.722656 C 21.949219 27.621094 21.917969 27.484375 21.949219 27.351562 C 21.984375 27.214844 22.117188 27.113281 22.253906 27.113281 L 24.210938 26.945312 L 24.988281 25.121094 C 25.054688 24.988281 25.15625 24.917969 25.324219 24.917969 C 25.460938 24.917969 25.597656 24.988281 25.664062 25.121094 Z M 26.441406 26.945312 " fill-opacity="1" fill-rule="evenodd"/></g></svg>