<svg xmlns="http://www.w3.org/2000/svg" xmlns:xlink="http://www.w3.org/1999/xlink" width="45" zoomAndPan="magnify" viewBox="0 0 33.75 33.749998" height="45" preserveAspectRatio="xMidYMid meet" version="1.0"><defs><clipPath id="7cdc30179e"><path d="M 2.242188 1.128906 L 31.277344 1.128906 L 31.277344 32.398438 L 2.242188 32.398438 Z M 2.242188 1.128906 " clip-rule="nonzero"/></clipPath></defs><g clip-path="url(#7cdc30179e)"><path fill="#2f7cee" d="M 5.972656 8.308594 L 14.835938 3.296875 C 16.015625 2.628906 17.480469 2.628906 18.664062 3.296875 L 27.523438 8.308594 C 28.734375 8.992188 29.484375 10.28125 29.484375 11.667969 L 29.484375 21.605469 C 29.484375 22.992188 28.734375 24.277344 27.523438 24.960938 L 18.664062 29.976562 C 18.074219 30.3125 17.410156 30.480469 16.75 30.480469 C 16.085938 30.480469 15.425781 30.3125 14.835938 29.976562 L 5.972656 24.960938 C 4.765625 24.277344 4.011719 22.992188 4.011719 21.605469 L 4.011719 11.667969 C 4.011719 10.28125 4.765625 8.992188 5.972656 8.308594 Z M 2.351562 11.667969 L 2.351562 21.605469 C 2.351562 23.589844 3.425781 25.429688 5.15625 26.410156 L 14.015625 31.421875 C 15.679688 32.363281 17.820312 32.363281 19.480469 31.421875 L 28.34375 26.410156 C 30.074219 25.429688 31.148438 23.589844 31.148438 21.605469 L 31.148438 11.667969 C 31.148438 9.683594 30.074219 7.84375 28.34375 6.863281 L 19.480469 1.851562 C 18.652344 1.378906 17.707031 1.128906 16.75 1.128906 C 15.792969 1.128906 14.847656 1.378906 14.015625 1.847656 L 5.15625 6.863281 C 3.425781 7.84375 2.351562 9.683594 2.351562 11.667969 " fill-opacity="1" fill-rule="nonzero"/></g><path fill="#2f7cee" d="M 7.335938 12.207031 C 7.335938 11.949219 7.511719 11.726562 7.761719 11.667969 C 8.015625 11.609375 8.269531 11.730469 8.382812 11.957031 L 11.765625 18.722656 L 11.765625 12.207031 C 11.765625 11.902344 12.015625 11.652344 12.320312 11.652344 C 12.625 11.652344 12.871094 11.902344 12.871094 12.207031 L 12.871094 21.066406 C 12.871094 21.324219 12.695312 21.546875 12.445312 21.605469 C 12.402344 21.617188 12.363281 21.621094 12.320312 21.621094 C 12.113281 21.621094 11.917969 21.503906 11.824219 21.316406 L 8.441406 14.550781 L 8.441406 21.066406 C 8.441406 21.371094 8.195312 21.621094 7.886719 21.621094 C 7.582031 21.621094 7.335938 21.371094 7.335938 21.066406 Z M 14.535156 12.207031 C 14.535156 11.902344 14.78125 11.652344 15.085938 11.652344 L 19.519531 11.652344 C 19.824219 11.652344 20.070312 11.902344 20.070312 12.207031 C 20.070312 12.511719 19.824219 12.761719 19.519531 12.761719 L 15.640625 12.761719 L 15.640625 16.082031 L 17.855469 16.082031 C 18.160156 16.082031 18.410156 16.332031 18.410156 16.636719 C 18.410156 16.941406 18.160156 17.191406 17.855469 17.191406 L 15.640625 17.191406 L 15.640625 21.066406 C 15.640625 21.371094 15.394531 21.621094 15.085938 21.621094 C 14.78125 21.621094 14.535156 21.371094 14.535156 21.066406 Z M 21.179688 11.652344 L 25.609375 11.652344 C 25.914062 11.652344 26.164062 11.902344 26.164062 12.207031 C 26.164062 12.511719 25.914062 12.761719 25.609375 12.761719 L 23.949219 12.761719 L 23.949219 21.066406 C 23.949219 21.371094 23.699219 21.621094 23.394531 21.621094 C 23.089844 21.621094 22.839844 21.371094 22.839844 21.066406 L 22.839844 12.761719 L 21.179688 12.761719 C 20.875 12.761719 20.625 12.511719 20.625 12.207031 C 20.625 11.902344 20.875 11.652344 21.179688 11.652344 Z M 6.519531 24 L 15.378906 29.015625 C 16.226562 29.488281 17.273438 29.488281 18.117188 29.015625 L 26.980469 24 C 27.84375 23.511719 28.378906 22.59375 28.378906 21.605469 L 28.378906 11.667969 C 28.378906 10.679688 27.84375 9.761719 26.980469 9.273438 L 18.117188 4.261719 C 17.695312 4.019531 17.222656 3.902344 16.75 3.902344 C 16.273438 3.902344 15.800781 4.019531 15.378906 4.261719 L 6.519531 9.273438 C 5.65625 9.761719 5.121094 10.679688 5.121094 11.667969 L 5.121094 21.605469 C 5.121094 22.59375 5.65625 23.511719 6.519531 24 " fill-opacity="1" fill-rule="nonzero"/></svg>