<svg xmlns="http://www.w3.org/2000/svg" xmlns:xlink="http://www.w3.org/1999/xlink" width="45" zoomAndPan="magnify" viewBox="0 0 33.75 33.749998" height="45" preserveAspectRatio="xMidYMid meet" version="1.0"><defs><clipPath id="1117cfa52f"><path d="M 0.976562 6.007812 L 32.246094 6.007812 L 32.246094 27.597656 L 0.976562 27.597656 Z M 0.976562 6.007812 " clip-rule="nonzero"/></clipPath></defs><g clip-path="url(#1117cfa52f)"><path fill="#2f7cee" d="M 11.980469 6.015625 C 10.828125 6.015625 9.878906 6.960938 9.878906 8.117188 L 9.878906 24.71875 C 9.878906 25.875 10.828125 26.820312 11.980469 26.820312 L 23.257812 26.820312 C 24.410156 26.820312 25.359375 25.875 25.359375 24.71875 L 25.359375 19.058594 C 25.359375 19.066406 25.359375 19.070312 25.359375 19.046875 L 25.359375 12.863281 C 25.359375 12.8125 25.332031 12.769531 25.285156 12.746094 C 24.976562 12.574219 24.648438 12.4375 24.300781 12.347656 C 23.789062 12.214844 23.246094 12.171875 22.695312 12.191406 C 22.460938 12.199219 22.207031 12.21875 21.941406 12.226562 C 21.941406 12.226562 21.9375 12.222656 21.933594 12.222656 C 21.929688 12.222656 21.921875 12.222656 21.914062 12.222656 C 20.464844 12.21875 19.277344 11.050781 19.277344 9.597656 C 19.277344 9.542969 19.273438 9.492188 19.273438 9.460938 C 19.273438 9.457031 19.273438 9.457031 19.273438 9.457031 C 19.28125 9.230469 19.296875 9.007812 19.304688 8.800781 C 19.324219 8.25 19.285156 7.710938 19.152344 7.199219 C 19.050781 6.804688 18.882812 6.429688 18.675781 6.082031 C 18.652344 6.042969 18.605469 6.015625 18.558594 6.015625 Z M 19.820312 6.121094 C 19.742188 6.125 19.683594 6.1875 19.6875 6.261719 C 19.6875 6.28125 19.691406 6.296875 19.695312 6.3125 C 19.792969 6.539062 19.875 6.765625 19.933594 6.996094 C 20.09375 7.601562 20.128906 8.222656 20.109375 8.828125 C 20.097656 9.1875 20.078125 9.503906 20.085938 9.804688 C 20.085938 9.808594 20.085938 9.8125 20.085938 9.816406 C 20.085938 9.816406 20.085938 9.820312 20.085938 9.820312 C 20.15625 10.671875 20.839844 11.351562 21.691406 11.414062 C 21.691406 11.414062 21.695312 11.414062 21.695312 11.414062 C 21.699219 11.414062 21.703125 11.414062 21.707031 11.414062 C 22.007812 11.417969 22.316406 11.398438 22.667969 11.386719 C 23.273438 11.367188 23.894531 11.410156 24.5 11.566406 C 24.664062 11.613281 24.832031 11.664062 24.996094 11.722656 C 25.066406 11.75 25.144531 11.714844 25.167969 11.640625 C 25.183594 11.609375 25.179688 11.570312 25.164062 11.539062 C 25.0625 11.3125 24.917969 11.101562 24.730469 10.929688 L 24.722656 10.921875 L 20.898438 6.863281 C 20.632812 6.515625 20.273438 6.265625 19.867188 6.128906 C 19.851562 6.125 19.835938 6.121094 19.820312 6.121094 Z M 8.484375 9.257812 C 8.398438 9.257812 8.316406 9.261719 8.230469 9.269531 C 8.222656 9.269531 8.21875 9.269531 8.210938 9.269531 C 7.863281 9.277344 7.554688 9.488281 7.414062 9.800781 C 7.414062 9.804688 7.410156 9.804688 7.410156 9.808594 C 7.410156 9.808594 7.410156 9.808594 7.40625 9.816406 C 7.402344 9.824219 7.402344 9.828125 7.398438 9.839844 C 7.394531 9.84375 7.394531 9.847656 7.390625 9.847656 C 7.199219 10.269531 7.085938 10.75 6.976562 11.28125 C 6.929688 11.503906 6.777344 11.6875 6.566406 11.777344 C 6.558594 11.78125 6.535156 11.792969 6.5 11.804688 C 6.289062 11.894531 6.050781 11.871094 5.859375 11.746094 C 5.40625 11.445312 4.980469 11.179688 4.546875 11.019531 C 4.53125 11.015625 4.515625 11.011719 4.503906 11.003906 C 4.183594 10.882812 3.820312 10.953125 3.570312 11.191406 C 3.566406 11.195312 3.558594 11.199219 3.554688 11.203125 C 3.484375 11.269531 3.425781 11.316406 3.367188 11.375 C 3.363281 11.375 3.363281 11.375 3.359375 11.378906 C 3.355469 11.382812 3.355469 11.382812 3.351562 11.382812 C 3.3125 11.421875 3.277344 11.460938 3.242188 11.5 C 3.238281 11.5 3.238281 11.5 3.234375 11.503906 L 3.230469 11.503906 L 3.230469 11.507812 C 3.226562 11.507812 3.226562 11.511719 3.226562 11.511719 C 3.1875 11.550781 3.152344 11.585938 3.113281 11.625 C 3.113281 11.625 3.109375 11.625 3.109375 11.625 L 3.105469 11.628906 L 3.105469 11.632812 L 3.101562 11.636719 C 3.042969 11.699219 2.988281 11.761719 2.929688 11.824219 C 2.925781 11.828125 2.921875 11.835938 2.917969 11.839844 C 2.679688 12.085938 2.609375 12.453125 2.730469 12.773438 C 2.738281 12.789062 2.742188 12.808594 2.746094 12.824219 C 2.90625 13.253906 3.171875 13.675781 3.46875 14.132812 C 3.597656 14.324219 3.621094 14.5625 3.53125 14.773438 C 3.511719 14.816406 3.5 14.839844 3.5 14.847656 C 3.410156 15.054688 3.226562 15.207031 3.003906 15.253906 C 2.472656 15.359375 1.992188 15.476562 1.574219 15.667969 C 1.570312 15.667969 1.566406 15.671875 1.5625 15.671875 L 1.5625 15.667969 L 1.558594 15.675781 L 1.554688 15.675781 L 1.550781 15.679688 C 1.546875 15.679688 1.542969 15.679688 1.542969 15.679688 L 1.523438 15.691406 C 1.210938 15.828125 1.003906 16.140625 0.992188 16.484375 C 0.992188 16.492188 0.992188 16.5 0.992188 16.507812 C 0.984375 16.59375 0.980469 16.675781 0.980469 16.757812 C 0.980469 16.761719 0.980469 16.761719 0.980469 16.765625 C 0.980469 16.769531 0.980469 16.769531 0.980469 16.773438 C 0.980469 16.828125 0.980469 16.878906 0.980469 16.929688 C 0.980469 16.933594 0.980469 16.9375 0.980469 16.9375 L 0.980469 16.945312 C 0.980469 16.949219 0.980469 16.949219 0.980469 16.953125 C 0.980469 17.007812 0.980469 17.058594 0.980469 17.109375 C 0.980469 17.109375 0.980469 17.113281 0.980469 17.117188 C 0.980469 17.121094 0.980469 17.121094 0.980469 17.125 C 0.980469 17.207031 0.984375 17.289062 0.992188 17.378906 C 0.992188 17.382812 0.992188 17.390625 0.992188 17.398438 C 1.003906 17.742188 1.210938 18.054688 1.523438 18.195312 L 1.542969 18.203125 C 1.542969 18.203125 1.546875 18.203125 1.550781 18.207031 L 1.5625 18.214844 L 1.5625 18.210938 C 1.566406 18.214844 1.570312 18.214844 1.574219 18.214844 C 1.992188 18.40625 2.472656 18.523438 3.003906 18.632812 C 3.226562 18.675781 3.410156 18.828125 3.5 19.039062 C 3.5 19.046875 3.511719 19.070312 3.53125 19.109375 C 3.621094 19.320312 3.597656 19.5625 3.46875 19.753906 C 3.171875 20.207031 2.90625 20.628906 2.746094 21.058594 C 2.742188 21.074219 2.738281 21.09375 2.730469 21.109375 C 2.609375 21.429688 2.679688 21.796875 2.917969 22.042969 C 2.921875 22.050781 2.925781 22.054688 2.929688 22.0625 C 2.988281 22.125 3.042969 22.1875 3.101562 22.246094 L 3.105469 22.25 L 3.105469 22.253906 L 3.109375 22.253906 C 3.109375 22.257812 3.113281 22.257812 3.113281 22.261719 C 3.152344 22.300781 3.1875 22.332031 3.226562 22.371094 C 3.226562 22.371094 3.226562 22.375 3.230469 22.375 L 3.230469 22.378906 L 3.234375 22.382812 C 3.238281 22.382812 3.238281 22.382812 3.242188 22.386719 C 3.277344 22.425781 3.316406 22.460938 3.355469 22.5 C 3.355469 22.5 3.355469 22.503906 3.359375 22.503906 L 3.359375 22.507812 C 3.363281 22.507812 3.363281 22.507812 3.367188 22.511719 C 3.425781 22.566406 3.484375 22.617188 3.554688 22.679688 C 3.558594 22.683594 3.566406 22.6875 3.570312 22.695312 C 3.820312 22.929688 4.183594 23 4.503906 22.878906 C 4.515625 22.875 4.53125 22.867188 4.546875 22.863281 C 4.980469 22.703125 5.40625 22.4375 5.859375 22.136719 C 6.050781 22.011719 6.289062 21.988281 6.5 22.078125 C 6.535156 22.09375 6.558594 22.101562 6.566406 22.105469 C 6.777344 22.191406 6.929688 22.378906 6.976562 22.601562 C 7.085938 23.132812 7.199219 23.617188 7.390625 24.035156 C 7.394531 24.039062 7.394531 24.042969 7.398438 24.046875 C 7.402344 24.058594 7.402344 24.0625 7.40625 24.066406 C 7.40625 24.066406 7.40625 24.066406 7.40625 24.070312 C 7.410156 24.074219 7.410156 24.074219 7.410156 24.074219 C 7.410156 24.078125 7.414062 24.082031 7.414062 24.082031 C 7.554688 24.398438 7.863281 24.605469 8.210938 24.613281 C 8.21875 24.613281 8.222656 24.613281 8.230469 24.617188 C 8.316406 24.621094 8.398438 24.625 8.484375 24.628906 C 8.488281 24.628906 8.488281 24.628906 8.492188 24.628906 C 8.496094 24.628906 8.496094 24.628906 8.5 24.628906 C 8.554688 24.628906 8.609375 24.628906 8.664062 24.628906 C 8.667969 24.628906 8.675781 24.628906 8.679688 24.628906 C 8.734375 24.628906 8.785156 24.628906 8.84375 24.628906 C 8.847656 24.628906 8.847656 24.628906 8.851562 24.628906 L 8.855469 24.628906 C 8.941406 24.625 9.015625 24.621094 9.101562 24.617188 C 9.109375 24.613281 9.117188 24.613281 9.125 24.613281 C 9.144531 24.613281 9.164062 24.605469 9.1875 24.601562 L 9.1875 19.667969 C 9.015625 19.699219 8.839844 19.714844 8.667969 19.714844 C 7.136719 19.714844 5.894531 18.472656 5.894531 16.941406 C 5.894531 15.410156 7.132812 14.167969 8.667969 14.167969 C 8.839844 14.167969 9.015625 14.183594 9.1875 14.21875 L 9.1875 9.28125 C 9.164062 9.277344 9.144531 9.273438 9.125 9.269531 C 9.117188 9.269531 9.109375 9.269531 9.101562 9.269531 C 9.015625 9.261719 8.941406 9.257812 8.855469 9.257812 L 8.851562 9.257812 C 8.847656 9.257812 8.847656 9.257812 8.84375 9.257812 C 8.785156 9.257812 8.734375 9.257812 8.679688 9.257812 C 8.675781 9.257812 8.667969 9.257812 8.664062 9.257812 C 8.609375 9.257812 8.554688 9.257812 8.5 9.257812 C 8.496094 9.257812 8.496094 9.257812 8.492188 9.257812 L 8.488281 9.257812 C 8.488281 9.257812 8.484375 9.257812 8.484375 9.257812 Z M 31.101562 9.664062 C 30.84375 9.664062 30.589844 9.746094 30.382812 9.894531 C 29.960938 10.191406 29.765625 10.71875 29.894531 11.21875 L 28.070312 12.507812 C 28.0625 12.515625 28.058594 12.523438 28.058594 12.53125 C 27.976562 12.613281 27.917969 12.722656 27.917969 12.847656 L 27.917969 14.96875 L 26.152344 14.96875 L 26.152344 15.855469 L 28.363281 15.855469 C 28.425781 15.855469 28.484375 15.84375 28.535156 15.824219 C 28.5625 15.8125 28.578125 15.792969 28.59375 15.785156 C 28.621094 15.769531 28.652344 15.753906 28.679688 15.726562 C 28.757812 15.648438 28.808594 15.535156 28.808594 15.414062 L 28.808594 13.078125 L 30.40625 11.945312 C 30.835938 12.234375 31.398438 12.226562 31.820312 11.925781 C 32.382812 11.53125 32.515625 10.753906 32.117188 10.191406 C 31.882812 9.859375 31.503906 9.664062 31.101562 9.664062 Z M 17.601562 12.679688 C 17.613281 12.679688 17.625 12.679688 17.636719 12.679688 C 17.792969 12.683594 17.949219 12.714844 18.09375 12.78125 L 20.234375 13.722656 C 20.660156 13.914062 20.933594 14.335938 20.933594 14.804688 L 20.933594 17.460938 C 20.933594 17.929688 20.660156 18.351562 20.230469 18.542969 L 18.09375 19.484375 C 17.792969 19.617188 17.449219 19.617188 17.144531 19.484375 L 15.007812 18.542969 C 14.582031 18.351562 14.304688 17.929688 14.304688 17.460938 L 14.304688 14.804688 C 14.304688 14.335938 14.578125 13.914062 15.007812 13.722656 L 17.144531 12.78125 C 17.289062 12.714844 17.441406 12.683594 17.601562 12.679688 Z M 17.617188 13.414062 C 17.554688 13.414062 17.496094 13.429688 17.441406 13.453125 L 15.410156 14.351562 C 15.371094 14.367188 15.355469 14.410156 15.371094 14.449219 C 15.378906 14.464844 15.394531 14.476562 15.410156 14.484375 L 17.589844 15.445312 C 17.609375 15.453125 17.628906 15.453125 17.648438 15.445312 L 19.101562 14.804688 L 19.832031 14.484375 C 19.867188 14.46875 19.882812 14.425781 19.867188 14.386719 C 19.859375 14.371094 19.847656 14.355469 19.832031 14.351562 L 17.800781 13.453125 C 17.730469 13.421875 17.671875 13.414062 17.617188 13.414062 Z M 20.132812 15.160156 C 20.121094 15.160156 20.109375 15.164062 20.097656 15.167969 L 19.042969 15.632812 L 18.027344 16.082031 C 18 16.09375 17.980469 16.121094 17.980469 16.152344 L 17.980469 18.617188 C 17.980469 18.65625 18.015625 18.691406 18.054688 18.691406 C 18.066406 18.691406 18.074219 18.6875 18.085938 18.683594 L 19.9375 17.867188 C 20.097656 17.796875 20.199219 17.636719 20.199219 17.460938 L 20.199219 15.234375 C 20.199219 15.199219 20.171875 15.167969 20.132812 15.160156 Z M 15.109375 15.164062 C 15.070312 15.167969 15.039062 15.199219 15.039062 15.238281 L 15.039062 17.460938 C 15.039062 17.636719 15.144531 17.796875 15.304688 17.867188 L 17.152344 18.683594 C 17.191406 18.703125 17.234375 18.683594 17.25 18.648438 C 17.257812 18.636719 17.257812 18.628906 17.257812 18.617188 L 17.257812 16.152344 C 17.257812 16.121094 17.242188 16.09375 17.214844 16.082031 L 16.195312 15.632812 L 15.144531 15.171875 C 15.132812 15.164062 15.121094 15.164062 15.109375 15.164062 Z M 31.078125 17.257812 C 30.5625 17.257812 30.097656 17.578125 29.914062 18.058594 L 26.152344 18.058594 L 26.152344 18.949219 L 29.914062 18.949219 C 30.097656 19.429688 30.5625 19.75 31.078125 19.75 C 31.765625 19.75 32.324219 19.191406 32.324219 18.503906 C 32.324219 17.816406 31.765625 17.257812 31.078125 17.257812 Z M 26.152344 21.121094 L 26.152344 22.011719 L 27.917969 22.011719 L 27.917969 24.128906 C 27.917969 24.257812 27.976562 24.367188 28.058594 24.449219 C 28.058594 24.457031 28.0625 24.464844 28.070312 24.472656 L 29.894531 25.761719 C 29.765625 26.261719 29.960938 26.785156 30.382812 27.085938 C 30.941406 27.480469 31.722656 27.347656 32.117188 26.785156 C 32.515625 26.226562 32.382812 25.445312 31.820312 25.050781 C 31.398438 24.753906 30.835938 24.746094 30.40625 25.035156 L 28.808594 23.90625 L 28.808594 21.566406 C 28.808594 21.445312 28.757812 21.332031 28.679688 21.253906 C 28.652344 21.226562 28.621094 21.210938 28.59375 21.195312 C 28.578125 21.183594 28.5625 21.167969 28.535156 21.15625 C 28.484375 21.132812 28.425781 21.121094 28.363281 21.121094 Z M 13.164062 21.175781 L 22.074219 21.175781 C 22.292969 21.175781 22.460938 21.339844 22.460938 21.558594 C 22.460938 21.777344 22.292969 21.941406 22.074219 21.941406 L 13.164062 21.941406 C 12.945312 21.941406 12.777344 21.777344 12.777344 21.558594 C 12.777344 21.339844 12.945312 21.175781 13.164062 21.175781 Z M 13.164062 23.722656 L 22.074219 23.722656 C 22.292969 23.722656 22.460938 23.890625 22.460938 24.109375 C 22.460938 24.324219 22.292969 24.492188 22.074219 24.492188 L 13.164062 24.492188 C 12.945312 24.492188 12.777344 24.324219 12.777344 24.109375 C 12.777344 23.890625 12.945312 23.722656 13.164062 23.722656 Z M 13.164062 23.722656 " fill-opacity="1" fill-rule="nonzero"/></g></svg>